<?xml version="1.0"?><svg xmlns="http://www.w3.org/2000/svg" xmlns:xlink="http://www.w3.org/1999/xlink" viewBox="36.6 42.93 286.46 102.07" preserveAspectRatio="xMidYMid" width="100%" height="100%"><clipPath id="883"><rect x="0.3" y="0.3" width="539.4" height="719.15" /></clipPath><g id="drawing"><rect x="36.6" y="42.93" width="100%" height="100%" fill="rgb(255, 255, 255)" /><g id="page" clip-path="url(#883)"><g><text xml:space="preserve" text-anchor="end" text-rendering="geometricPrecision"><tspan x="56.57" y="73.83" font-family="Arial" font-size="10" fill="rgb(0, 0, 0)">HN</tspan></text></g><g><text xml:space="preserve" text-anchor="start" text-rendering="geometricPrecision"><tspan x="61.84" y="95.43" font-family="Arial" font-size="10" fill="rgb(0, 0, 0)">N</tspan><tspan x="61.84" y="144.88" font-family="Arial" font-size="10" fill="rgb(0, 0, 0)">H</tspan></text></g><g id="Solid"><path d="M52.67 75.5 L52.67 75.5 L52.97 75.5 L53.27 75.5 L53.27 84.16 L52.97 84.33 L52.67 84.5 Z" stroke="rgb(0, 0, 0)" stroke-width="0" fill-rule="evenodd" stroke-linejoin="miter" fill="rgb(0, 0, 0)" shape-rendering="geometricPrecision" /></g><g id="Solid"><path d="M52.67 84.5 L52.67 84.5 L52.97 84.33 L53.27 84.16 L61.36 88.83 L61.21 89.09 L61.06 89.35 Z" stroke="rgb(0, 0, 0)" stroke-width="0" fill-rule="evenodd" stroke-linejoin="miter" fill="rgb(0, 0, 0)" shape-rendering="geometricPrecision" /></g><g id="Solid"><path d="M69.84 89.34 L69.84 89.34 L69.69 89.08 L69.54 88.82 L77.61 84.16 L77.91 84.33 L78.21 84.5 Z" stroke="rgb(0, 0, 0)" stroke-width="0" fill-rule="evenodd" stroke-linejoin="miter" fill="rgb(0, 0, 0)" shape-rendering="geometricPrecision" /></g><g id="Solid"><path d="M78.21 84.5 L78.21 84.5 L77.91 84.33 L77.61 84.16 L77.61 70.1 L77.91 69.93 L78.21 70.1 Z" stroke="rgb(0, 0, 0)" stroke-width="0" fill-rule="evenodd" stroke-linejoin="miter" fill="rgb(0, 0, 0)" shape-rendering="geometricPrecision" /><line x1="75.32" y1="82.83" x2="75.32" y2="71.43" stroke="rgb(0, 0, 0)" stroke-width="0.6" shape-rendering="auto" /></g><g id="Solid"><path d="M77.91 69.58 L77.91 69.58 L77.91 69.93 L77.61 70.1 L65.44 63.08 L65.44 62.73 L65.44 62.38 Z" stroke="rgb(0, 0, 0)" stroke-width="0" fill-rule="evenodd" stroke-linejoin="miter" fill="rgb(0, 0, 0)" shape-rendering="geometricPrecision" /></g><g id="Solid"><path d="M65.44 62.38 L65.44 62.38 L65.44 62.73 L65.44 63.08 L57.34 67.76 L57.19 67.5 L57.04 67.24 Z" stroke="rgb(0, 0, 0)" stroke-width="0" fill-rule="evenodd" stroke-linejoin="miter" fill="rgb(0, 0, 0)" shape-rendering="geometricPrecision" /></g><g><text xml:space="preserve" text-anchor="start" text-rendering="geometricPrecision"><tspan x="36.6" y="95.43" font-family="Arial" font-size="10" fill="rgb(0, 0, 0)">O</tspan></text></g><g id="Solid"><line x1="53.62" y1="85.45" x2="46.03" y2="89.83" stroke="rgb(0, 0, 0)" stroke-width="0.6" shape-rendering="auto" /><path d="M52.67 83.35 L52.67 83.35 L52.67 82.66 L44.59 87.33 L44.89 87.85 Z" stroke="rgb(0, 0, 0)" stroke-width="0" fill-rule="evenodd" stroke-linejoin="miter" fill="rgb(0, 0, 0)" shape-rendering="geometricPrecision" /><path d="M54.27 85.42 L54.27 85.42 L53.67 85.08 L45.88 89.57 L46.18 90.09 Z" stroke="rgb(0, 0, 0)" stroke-width="0" fill-rule="evenodd" stroke-linejoin="miter" fill="rgb(0, 0, 0)" shape-rendering="geometricPrecision" /></g><g><text xml:space="preserve" text-anchor="start" text-rendering="geometricPrecision"><tspan x="61.54" y="52.23" font-family="Arial" font-size="10" fill="rgb(0, 0, 0)">O</tspan></text></g><g id="Solid"><line x1="64.14" y1="62.73" x2="64.14" y2="54" stroke="rgb(0, 0, 0)" stroke-width="0.6" shape-rendering="auto" /><path d="M66.44 62.96 L66.44 62.96 L67.04 63.31 L67.04 54 L66.44 54 Z" stroke="rgb(0, 0, 0)" stroke-width="0" fill-rule="evenodd" stroke-linejoin="miter" fill="rgb(0, 0, 0)" shape-rendering="geometricPrecision" /><path d="M63.84 63.31 L63.84 63.31 L64.44 62.96 L64.44 54 L63.84 54 Z" stroke="rgb(0, 0, 0)" stroke-width="0" fill-rule="evenodd" stroke-linejoin="miter" fill="rgb(0, 0, 0)" shape-rendering="geometricPrecision" /></g><g><text xml:space="preserve" text-anchor="start" text-rendering="geometricPrecision"><tspan x="87.33" y="66.63" font-family="Arial" font-size="10" fill="rgb(0, 0, 0)">F</tspan></text></g><g id="Solid"><path d="M78.21 70.1 L78.21 70.1 L77.91 69.93 L77.91 69.58 L86.66 64.53 L86.81 64.79 L86.96 65.05 Z" stroke="rgb(0, 0, 0)" stroke-width="0" fill-rule="evenodd" stroke-linejoin="miter" fill="rgb(0, 0, 0)" shape-rendering="geometricPrecision" /></g><g id="Solid"><path d="M114.65 77.85 L114.65 77.85 L114.65 78.22 L114.65 78.59 L103.35 86.79 L103 86.68 L102.65 86.57 Z" stroke="rgb(0, 0, 0)" stroke-width="0" fill-rule="evenodd" stroke-linejoin="miter" fill="rgb(0, 0, 0)" shape-rendering="geometricPrecision" /></g><g id="Solid"><path d="M102.65 86.57 L102.65 86.57 L103 86.68 L103.35 86.79 L107.66 100.08 L107.44 100.38 L107.22 100.68 Z" stroke="rgb(0, 0, 0)" stroke-width="0" fill-rule="evenodd" stroke-linejoin="miter" fill="rgb(0, 0, 0)" shape-rendering="geometricPrecision" /></g><g id="Solid"><path d="M107.22 100.68 L107.22 100.68 L107.44 100.38 L107.66 100.08 L121.62 100.09 L121.84 100.39 L122.06 100.69 Z" stroke="rgb(0, 0, 0)" stroke-width="0" fill-rule="evenodd" stroke-linejoin="miter" fill="rgb(0, 0, 0)" shape-rendering="geometricPrecision" /></g><g id="Solid"><path d="M122.06 100.69 L122.06 100.69 L121.84 100.39 L121.62 100.09 L125.95 86.8 L126.3 86.69 L126.65 86.58 Z" stroke="rgb(0, 0, 0)" stroke-width="0" fill-rule="evenodd" stroke-linejoin="miter" fill="rgb(0, 0, 0)" shape-rendering="geometricPrecision" /></g><g id="Solid"><path d="M126.65 86.58 L126.65 86.58 L126.3 86.69 L125.95 86.8 L114.65 78.59 L114.65 78.22 L114.65 77.85 Z" stroke="rgb(0, 0, 0)" stroke-width="0" fill-rule="evenodd" stroke-linejoin="miter" fill="rgb(0, 0, 0)" shape-rendering="geometricPrecision" /></g><g id="Solid"><line x1="113.35" y1="78.22" x2="113.36" y2="63.82" stroke="rgb(0, 0, 0)" stroke-width="0.6" shape-rendering="auto" /><path d="M115.65 78.57 L115.65 78.57 L116.25 79.01 L116.26 63.82 L115.66 63.82 Z" stroke="rgb(0, 0, 0)" stroke-width="0" fill-rule="evenodd" stroke-linejoin="miter" fill="rgb(0, 0, 0)" shape-rendering="geometricPrecision" /><path d="M113.05 79.01 L113.05 79.01 L113.65 78.57 L113.66 63.82 L113.06 63.82 Z" stroke="rgb(0, 0, 0)" stroke-width="0" fill-rule="evenodd" stroke-linejoin="miter" fill="rgb(0, 0, 0)" shape-rendering="geometricPrecision" /></g><g id="Arrow"><line x1="219.93" y1="74.71" x2="153.56" y2="74.71" stroke="rgb(0, 0, 0)" stroke-width="0.6" shape-rendering="auto" /><path d="M224.18 74.71 L218.18 73.21 C219.37 74.05 219.37 75.37 218.18 76.21 Z" stroke="rgb(0, 0, 0)" stroke-width="0" fill-rule="evenodd" stroke-linejoin="miter" stroke-miterlimit="6.93525005514877" fill="rgb(0, 0, 0)" shape-rendering="geometricPrecision" /></g><g><text xml:space="preserve" text-anchor="end" text-rendering="geometricPrecision"><tspan x="266.19" y="72.99" font-family="Arial" font-size="10" fill="rgb(0, 0, 0)">HN</tspan></text></g><g><text xml:space="preserve" text-anchor="start" text-rendering="geometricPrecision"><tspan x="271.46" y="94.59" font-family="Arial" font-size="10" fill="rgb(0, 0, 0)">N</tspan><tspan x="271.46" y="126.19" font-family="Arial" font-size="10" fill="rgb(0, 0, 0)">H</tspan></text></g><g id="Solid"><path d="M262.29 74.6 L262.29 74.6 L262.59 74.6 L262.89 74.6 L262.89 83.32 L262.59 83.49 L262.29 83.66 Z" stroke="rgb(0, 0, 0)" stroke-width="0" fill-rule="evenodd" stroke-linejoin="miter" fill="rgb(0, 0, 0)" shape-rendering="geometricPrecision" /></g><g id="Solid"><path d="M262.29 83.66 L262.29 83.66 L262.59 83.49 L262.89 83.32 L271.06 88.04 L270.91 88.3 L270.76 88.56 Z" stroke="rgb(0, 0, 0)" stroke-width="0" fill-rule="evenodd" stroke-linejoin="miter" fill="rgb(0, 0, 0)" shape-rendering="geometricPrecision" /></g><g id="Solid"><path d="M279.44 88.51 L279.44 88.51 L279.29 88.25 L279.14 87.99 L287.23 83.32 L287.53 83.49 L287.31 83.96 Z" stroke="rgb(0, 0, 0)" stroke-width="0" fill-rule="evenodd" stroke-linejoin="miter" fill="rgb(0, 0, 0)" shape-rendering="geometricPrecision" /></g><g id="Solid"><path d="M287.83 83.19 L287.83 83.19 L287.53 83.49 L287.23 83.32 L287.23 69.26 L287.53 69.09 L287.83 69.39 Z" stroke="rgb(0, 0, 0)" stroke-width="0" fill-rule="evenodd" stroke-linejoin="miter" fill="rgb(0, 0, 0)" shape-rendering="geometricPrecision" /></g><g id="Solid"><path d="M287.4 68.67 L287.4 68.67 L287.53 69.09 L287.23 69.26 L275.06 62.24 L275.06 61.89 L275.06 61.54 Z" stroke="rgb(0, 0, 0)" stroke-width="0" fill-rule="evenodd" stroke-linejoin="miter" fill="rgb(0, 0, 0)" shape-rendering="geometricPrecision" /></g><g id="Solid"><path d="M275.06 61.54 L275.06 61.54 L275.06 61.89 L275.06 62.24 L266.94 66.93 L266.79 66.67 L266.64 66.41 Z" stroke="rgb(0, 0, 0)" stroke-width="0" fill-rule="evenodd" stroke-linejoin="miter" fill="rgb(0, 0, 0)" shape-rendering="geometricPrecision" /></g><g><text xml:space="preserve" text-anchor="start" text-rendering="geometricPrecision"><tspan x="246.22" y="94.59" font-family="Arial" font-size="10" fill="rgb(0, 0, 0)">O</tspan></text></g><g id="Solid"><line x1="263.24" y1="84.61" x2="255.63" y2="89" stroke="rgb(0, 0, 0)" stroke-width="0.6" shape-rendering="auto" /><path d="M262.29 82.51 L262.29 82.51 L262.29 81.82 L254.19 86.5 L254.49 87.02 Z" stroke="rgb(0, 0, 0)" stroke-width="0" fill-rule="evenodd" stroke-linejoin="miter" fill="rgb(0, 0, 0)" shape-rendering="geometricPrecision" /><path d="M263.89 84.58 L263.89 84.58 L263.29 84.24 L255.48 88.74 L255.78 89.26 Z" stroke="rgb(0, 0, 0)" stroke-width="0" fill-rule="evenodd" stroke-linejoin="miter" fill="rgb(0, 0, 0)" shape-rendering="geometricPrecision" /></g><g id="Solid"><line x1="273.76" y1="61.89" x2="273.76" y2="53.2" stroke="rgb(0, 0, 0)" stroke-width="0.6" shape-rendering="auto" /><path d="M276.06 62.12 L276.06 62.12 L276.66 62.47 L276.66 53.2 L276.06 53.2 Z" stroke="rgb(0, 0, 0)" stroke-width="0" fill-rule="evenodd" stroke-linejoin="miter" fill="rgb(0, 0, 0)" shape-rendering="geometricPrecision" /><path d="M273.46 62.47 L273.46 62.47 L274.06 62.12 L274.06 53.2 L273.46 53.2 Z" stroke="rgb(0, 0, 0)" stroke-width="0" fill-rule="evenodd" stroke-linejoin="miter" fill="rgb(0, 0, 0)" shape-rendering="geometricPrecision" /></g><g><text xml:space="preserve" text-anchor="start" text-rendering="geometricPrecision"><tspan x="271.16" y="51.39" font-family="Arial" font-size="10" fill="rgb(0, 0, 0)">O</tspan></text></g><g id="Solid"><path d="M287.83 69.39 L287.83 69.39 L287.53 69.09 L288.1 68.79 L302.23 68.79 L301.93 69.09 L301.63 69.39 Z" stroke="rgb(0, 0, 0)" stroke-width="0" fill-rule="evenodd" stroke-linejoin="miter" fill="rgb(0, 0, 0)" shape-rendering="geometricPrecision" /></g><g id="Solid"><path d="M287.96 83.79 L287.96 83.79 L287.53 83.49 L287.83 83.19 L301.63 83.19 L301.93 83.49 L301.58 83.79 Z" stroke="rgb(0, 0, 0)" stroke-width="0" fill-rule="evenodd" stroke-linejoin="miter" fill="rgb(0, 0, 0)" shape-rendering="geometricPrecision" /></g><g id="Solid"><path d="M302.23 83.14 L302.23 83.14 L301.93 83.49 L301.63 83.19 L301.63 69.39 L301.93 69.09 L302.23 68.79 Z" stroke="rgb(0, 0, 0)" stroke-width="0" fill-rule="evenodd" stroke-linejoin="miter" fill="rgb(0, 0, 0)" shape-rendering="geometricPrecision" /></g><g id="Solid"><path d="M301.58 83.79 L301.58 83.79 L301.93 83.49 L302.19 83.75 L300.01 97.54 L299.68 97.71 L299.35 97.88 Z" stroke="rgb(0, 0, 0)" stroke-width="0" fill-rule="evenodd" stroke-linejoin="miter" fill="rgb(0, 0, 0)" shape-rendering="geometricPrecision" /></g><g id="Solid"><path d="M299.35 97.88 L299.35 97.88 L299.68 97.71 L300.01 97.54 L312.45 103.88 L312.51 104.25 L312.57 104.62 Z" stroke="rgb(0, 0, 0)" stroke-width="0" fill-rule="evenodd" stroke-linejoin="miter" fill="rgb(0, 0, 0)" shape-rendering="geometricPrecision" /></g><g id="Solid"><path d="M312.57 104.62 L312.57 104.62 L312.51 104.25 L312.45 103.88 L322.32 94 L322.69 94.06 L323.06 94.12 Z" stroke="rgb(0, 0, 0)" stroke-width="0" fill-rule="evenodd" stroke-linejoin="miter" fill="rgb(0, 0, 0)" shape-rendering="geometricPrecision" /></g><g id="Solid"><path d="M323.06 94.12 L323.06 94.12 L322.69 94.06 L322.32 94 L315.99 81.56 L316.16 81.23 L316.33 80.9 Z" stroke="rgb(0, 0, 0)" stroke-width="0" fill-rule="evenodd" stroke-linejoin="miter" fill="rgb(0, 0, 0)" shape-rendering="geometricPrecision" /></g><g id="Solid"><path d="M316.33 80.9 L316.33 80.9 L316.16 81.23 L315.99 81.56 L302.19 83.75 L301.93 83.49 L302.23 83.14 Z" stroke="rgb(0, 0, 0)" stroke-width="0" fill-rule="evenodd" stroke-linejoin="miter" fill="rgb(0, 0, 0)" shape-rendering="geometricPrecision" /></g><g id="WedgeBegin"><path d="M287.31 83.96 L287.31 83.96 L287.53 83.49 L287.96 83.79 L291.44 92.27 L289.99 92.65 L288.54 93.04 Z" stroke="rgb(0, 0, 0)" stroke-width="0" fill-rule="evenodd" stroke-linejoin="miter" fill="rgb(0, 0, 0)" shape-rendering="geometricPrecision" /></g><g><text xml:space="preserve" text-anchor="start" text-rendering="geometricPrecision"><tspan x="287.66" y="101.3" font-family="Arial" font-size="10" fill="rgb(0, 0, 0)">H</tspan></text></g><g id="WedgeBegin"><path d="M288.1 68.79 L288.1 68.79 L287.53 69.09 L287.4 68.67 L290.4 61.12 L291.7 61.87 L293 62.62 Z" stroke="rgb(0, 0, 0)" stroke-width="0" fill-rule="evenodd" stroke-linejoin="miter" fill="rgb(0, 0, 0)" shape-rendering="geometricPrecision" /></g><g><text xml:space="preserve" text-anchor="start" text-rendering="geometricPrecision"><tspan x="291.68" y="60.52" font-family="Arial" font-size="10" fill="rgb(0, 0, 0)">F</tspan></text></g><g><text xml:space="preserve" text-anchor="start" text-rendering="geometricPrecision"><tspan x="182.06" y="68.63" font-family="Arial" font-style="italic" font-size="10" fill="rgb(0, 0, 0)">hv</tspan></text></g><g><text xml:space="preserve" text-anchor="start" text-rendering="geometricPrecision"><tspan x="164.81" y="88.88" font-family="Arial" font-size="10" fill="rgb(0, 0, 0)">(CH</tspan><tspan font-family="Arial" dy="2.26" font-size="7.5" fill="rgb(0, 0, 0)">3</tspan><tspan font-family="Arial" dy="-2.26" font-size="10" fill="rgb(0, 0, 0)">)</tspan><tspan font-family="Arial" dy="2.26" font-size="7.5" fill="rgb(0, 0, 0)">2</tspan><tspan font-family="Arial" dy="-2.26" font-size="10" fill="rgb(0, 0, 0)">CO</tspan></text></g><g id="Arrow"><path d="M96.91 80.48 C93.15 74.04 84.87 71.87 78.43 75.64 C77.43 76.22 76.51 76.93 75.69 77.75 " stroke="rgb(255, 0, 0)" stroke-width="0.6" fill-rule="evenodd" stroke-linejoin="bevel" fill="none" shape-rendering="geometricPrecision" /><path d="M98.3 83.8 L97.45 78.93 C97.25 80.15 96.29 80.57 95.25 79.9 Z" stroke="rgb(255, 0, 0)" stroke-width="0" fill-rule="evenodd" stroke-linejoin="miter" stroke-miterlimit="6.93525005514877" fill="rgb(255, 0, 0)" shape-rendering="geometricPrecision" /></g><g id="Arrow"><path d="M96.57 72.09 C102.47 75.12 110.46 73.9 114.4 69.36 C114.88 68.81 115.28 68.22 115.61 67.61 " stroke="rgb(255, 0, 0)" stroke-width="0.6" fill-rule="evenodd" stroke-linejoin="bevel" fill="none" shape-rendering="geometricPrecision" /><path d="M93.55 69.92 L96.95 73.73 C96.45 72.57 97.08 71.64 98.34 71.68 Z" stroke="rgb(255, 0, 0)" stroke-width="0" fill-rule="evenodd" stroke-linejoin="miter" stroke-miterlimit="7.31857450681776" fill="rgb(255, 0, 0)" shape-rendering="geometricPrecision" /></g></g></g></svg>