<?xml version="1.0"?><svg xmlns="http://www.w3.org/2000/svg" xmlns:xlink="http://www.w3.org/1999/xlink" viewBox="93.53 140.33 103 41.77" preserveAspectRatio="xMidYMid" width="100%" height="100%"><clipPath id="2349"><rect x="0.3" y="0.3" width="522.72" height="769.32" /></clipPath><g id="drawing"><rect x="93.53" y="140.33" width="100%" height="100%" fill="rgb(255, 255, 255)" /><g id="page" clip-path="url(#2349)"><g id="Solid"><path d="M149.2 173.05 L149.2 173.05 L148.48 173.35 L148.43 172.98 L163.03 158.38 L163.75 158.08 L164.47 157.78 Z" stroke="rgb(0, 0, 0)" stroke-width="0" fill-rule="evenodd" stroke-linejoin="miter" fill="rgb(0, 0, 0)" shape-rendering="geometricPrecision" /><line x1="147.84" y1="168.49" x2="154.37" y2="161.97" stroke="rgb(0, 0, 0)" stroke-width="0.6" shape-rendering="auto" /></g><g id="Solid"><path d="M164.47 157.78 L164.47 157.78 L163.75 158.08 L163.03 158.38 L142.07 158.38 L142.15 158.08 L142.23 157.78 Z" stroke="rgb(0, 0, 0)" stroke-width="0" fill-rule="evenodd" stroke-linejoin="miter" fill="rgb(0, 0, 0)" shape-rendering="geometricPrecision" /></g><g id="Solid"><path d="M129.85 162.25 L129.85 162.25 L129.77 162.55 L129.08 162.85 L107.45 162.85 L108.17 162.55 L108.89 162.25 Z" stroke="rgb(0, 0, 0)" stroke-width="0" fill-rule="evenodd" stroke-linejoin="miter" fill="rgb(0, 0, 0)" shape-rendering="geometricPrecision" /><line x1="120.78" y1="166.44" x2="108.17" y2="166.44" stroke="rgb(0, 0, 0)" stroke-width="0.6" shape-rendering="auto" /></g><g id="Solid"><path d="M108.89 162.25 L108.89 162.25 L108.17 162.55 L107.45 162.85 L123.4 146.91 L123.45 147.28 L123.5 147.65 Z" stroke="rgb(0, 0, 0)" stroke-width="0" fill-rule="evenodd" stroke-linejoin="miter" fill="rgb(0, 0, 0)" shape-rendering="geometricPrecision" /></g><g id="Charge2315"><line x1="192.75" y1="141.22" x2="192.75" y2="153.82" stroke="rgb(0, 0, 0)" stroke-width="0.48" shape-rendering="auto" /><line x1="189.45" y1="144.52" x2="196.05" y2="144.52" stroke="rgb(0, 0, 0)" stroke-width="0.48" shape-rendering="auto" /><line x1="189.45" y1="150.52" x2="196.05" y2="150.52" stroke="rgb(0, 0, 0)" stroke-width="0.48" shape-rendering="auto" /></g><g id="Solid"><path d="M123.5 147.65 L123.5 147.65 L123.45 147.28 L123.4 146.91 L142.23 157.78 L142.15 158.08 L142.07 158.38 Z" stroke="rgb(0, 0, 0)" stroke-width="0" fill-rule="evenodd" stroke-linejoin="miter" fill="rgb(0, 0, 0)" shape-rendering="geometricPrecision" /><line x1="124.09" y1="152.14" x2="140.21" y2="161.45" stroke="rgb(0, 0, 0)" stroke-width="0.6" shape-rendering="auto" /></g><g id="Solid"><path d="M129.08 162.85 L129.08 162.85 L129.77 162.55 L129.83 162.93 L118.31 175.19 L118.09 174.98 L117.87 174.77 Z" stroke="rgb(0, 0, 0)" stroke-width="0" fill-rule="evenodd" stroke-linejoin="miter" fill="rgb(0, 0, 0)" shape-rendering="geometricPrecision" /></g><g id="Solid"><path d="M148.4 173.65 L148.4 173.65 L148.48 173.35 L149.2 173.05 L167.38 173.05 L167.38 173.35 L167.38 173.65 Z" stroke="rgb(0, 0, 0)" stroke-width="0" fill-rule="evenodd" stroke-linejoin="miter" fill="rgb(0, 0, 0)" shape-rendering="geometricPrecision" /></g><g id="Dash"><path d="M131.99 164.18 L131.99 164.18 L132.29 163.66 L129.85 162.25 L129.77 162.55 L129.83 162.93 Z" stroke="rgb(0, 0, 0)" stroke-width="0" fill-rule="evenodd" stroke-linejoin="miter" fill="rgb(0, 0, 0)" shape-rendering="geometricPrecision" /><path d="M145.97 172.24 L145.97 172.24 L146.27 171.73 L148.43 172.98 L148.48 173.35 L148.4 173.65 Z" stroke="rgb(0, 0, 0)" stroke-width="0" fill-rule="evenodd" stroke-linejoin="miter" fill="rgb(0, 0, 0)" shape-rendering="geometricPrecision" /><path d="M133.86 165.26 L133.86 165.26 L136.03 166.51 L136.33 165.99 L134.16 164.74 Z" stroke="rgb(0, 0, 0)" stroke-width="0" fill-rule="evenodd" stroke-linejoin="miter" fill="rgb(0, 0, 0)" shape-rendering="geometricPrecision" /><path d="M137.9 167.59 L137.9 167.59 L140.06 168.84 L140.36 168.32 L138.2 167.07 Z" stroke="rgb(0, 0, 0)" stroke-width="0" fill-rule="evenodd" stroke-linejoin="miter" fill="rgb(0, 0, 0)" shape-rendering="geometricPrecision" /><path d="M141.93 169.92 L141.93 169.92 L144.1 171.17 L144.4 170.65 L142.23 169.4 Z" stroke="rgb(0, 0, 0)" stroke-width="0" fill-rule="evenodd" stroke-linejoin="miter" fill="rgb(0, 0, 0)" shape-rendering="geometricPrecision" /></g><g id="Bracket"><path d="M179.3 141 L182.63 141 L182.63 181.5 L179.3 181.5 " stroke="rgb(0, 0, 0)" stroke-width="0.6" fill-rule="evenodd" stroke-linejoin="miter" fill="none" shape-rendering="geometricPrecision" /></g><g id="Bracket"><path d="M97.46 181.5 L94.13 181.5 L94.13 141 L97.46 141 " stroke="rgb(0, 0, 0)" stroke-width="0.6" fill-rule="evenodd" stroke-linejoin="miter" fill="none" shape-rendering="geometricPrecision" /></g><g id="Arrow"><path d="M133.99 167.99 C135.14 163.71 132.59 159.31 128.32 158.17 C128.14 158.12 127.95 158.08 127.76 158.04 " stroke="rgb(0, 0, 255)" stroke-width="0.6" fill-rule="evenodd" stroke-linejoin="bevel" fill="none" shape-rendering="geometricPrecision" /><path d="M124.17 158.17 L128.96 159.38 C127.93 158.7 127.93 157.65 128.97 156.98 Z" stroke="rgb(0, 0, 255)" stroke-width="0" fill-rule="evenodd" stroke-linejoin="miter" stroke-miterlimit="6.92187669690708" fill="rgb(0, 0, 255)" shape-rendering="geometricPrecision" /></g><g id="Arrow"><path d="M157.66 168.27 C153.44 164.87 147.25 165.53 143.86 169.75 C143.54 170.15 143.25 170.57 143 171 " stroke="rgb(0, 0, 255)" stroke-width="0.6" fill-rule="evenodd" stroke-linejoin="bevel" fill="none" shape-rendering="geometricPrecision" /><path d="M160 171 L157.65 166.64 C157.85 167.87 157.08 168.57 155.88 168.26 Z" stroke="rgb(0, 0, 255)" stroke-width="0" fill-rule="evenodd" stroke-linejoin="miter" stroke-miterlimit="6.93525005514895" fill="rgb(0, 0, 255)" shape-rendering="geometricPrecision" /></g></g></g></svg>