<?xml version="1.0"?><svg xmlns="http://www.w3.org/2000/svg" xmlns:xlink="http://www.w3.org/1999/xlink" viewBox="23.44 34.09 274.3 120.43" preserveAspectRatio="xMidYMid" width="100%" height="100%"><clipPath id="1377"><rect x="0.3" y="0.3" width="522.72" height="769.32" /></clipPath><g id="drawing"><rect x="23.44" y="34.09" width="100%" height="100%" fill="rgb(255, 255, 255)" /><g id="page" clip-path="url(#1377)"><g><text xml:space="preserve" text-anchor="start" text-rendering="geometricPrecision"><tspan x="60.37" y="42.43" font-family="Arial" font-size="10" fill="rgb(0, 0, 0)">NH</tspan></text></g><g><text xml:space="preserve" text-anchor="end" text-rendering="geometricPrecision"><tspan x="53.17" y="42.43" font-family="Arial" font-size="10" fill="rgb(0, 0, 0)">HN</tspan></text></g><g id="Bold"><path d="M41.47 51.42 L41.47 51.42 L42.38 51 L43.17 50.22 L46.91 61.33 L45.82 61.22 L44.73 61.11 Z" stroke="rgb(0, 0, 0)" stroke-width="0" fill-rule="evenodd" stroke-linejoin="miter" fill="rgb(0, 0, 0)" shape-rendering="geometricPrecision" /><line x1="40.57" y1="53.9" x2="42.94" y2="60.93" stroke="rgb(0, 0, 0)" stroke-width="0.6" shape-rendering="auto" /></g><g id="Solid"><path d="M67.3 61.94 L67.3 61.94 L66.97 61.97 L66.64 62 L70.84 51.03 L71.17 51 L71.11 52 Z" stroke="rgb(0, 0, 0)" stroke-width="0" fill-rule="evenodd" stroke-linejoin="miter" fill="rgb(0, 0, 0)" shape-rendering="geometricPrecision" /><line x1="69.3" y1="61.79" x2="72.55" y2="53.31" stroke="rgb(0, 0, 0)" stroke-width="0.6" shape-rendering="auto" /></g><g id="Solid"><path d="M70.91 49.96 L70.91 49.96 L71.17 51 L70.84 51.03 L66.8 44.04 L67.06 43.89 L67.32 43.74 Z" stroke="rgb(0, 0, 0)" stroke-width="0" fill-rule="evenodd" stroke-linejoin="miter" fill="rgb(0, 0, 0)" shape-rendering="geometricPrecision" /></g><g id="Solid"><path d="M59.6 38.23 L59.6 38.23 L59.6 38.53 L59.6 38.83 L54 38.83 L54 38.53 L54 38.23 Z" stroke="rgb(0, 0, 0)" stroke-width="0" fill-rule="evenodd" stroke-linejoin="miter" fill="rgb(0, 0, 0)" shape-rendering="geometricPrecision" /></g><g id="Solid"><path d="M46.22 43.74 L46.22 43.74 L46.48 43.89 L46.74 44.04 L43.17 50.22 L42.38 51 L42.19 50.72 Z" stroke="rgb(0, 0, 0)" stroke-width="0" fill-rule="evenodd" stroke-linejoin="miter" fill="rgb(0, 0, 0)" shape-rendering="geometricPrecision" /></g><g id="Solid"><path d="M42.19 50.72 L42.19 50.72 L42.38 51 L41.47 51.42 L31.17 52.78 L30.98 52.5 L30.79 52.22 Z" stroke="rgb(0, 0, 0)" stroke-width="0" fill-rule="evenodd" stroke-linejoin="miter" fill="rgb(0, 0, 0)" shape-rendering="geometricPrecision" /></g><g id="Solid"><path d="M30.79 52.22 L30.79 52.22 L30.98 52.5 L31.17 52.78 L24.11 65 L23.78 64.97 L23.45 64.94 Z" stroke="rgb(0, 0, 0)" stroke-width="0" fill-rule="evenodd" stroke-linejoin="miter" fill="rgb(0, 0, 0)" shape-rendering="geometricPrecision" /><line x1="32.59" y1="54.9" x2="26.64" y2="65.2" stroke="rgb(0, 0, 0)" stroke-width="0.6" shape-rendering="auto" /></g><g id="Solid"><path d="M23.45 64.94 L23.45 64.94 L23.78 64.97 L24.11 65 L27.92 74.93 L27.98 75.94 L28.04 76.95 Z" stroke="rgb(0, 0, 0)" stroke-width="0" fill-rule="evenodd" stroke-linejoin="miter" fill="rgb(0, 0, 0)" shape-rendering="geometricPrecision" /></g><g id="Bold"><path d="M28.04 76.95 L28.04 76.95 L27.98 75.94 L27.92 74.93 L37.99 72.8 L38.63 73.69 L39.27 74.58 Z" stroke="rgb(0, 0, 0)" stroke-width="0" fill-rule="evenodd" stroke-linejoin="miter" fill="rgb(0, 0, 0)" shape-rendering="geometricPrecision" /><line x1="29.65" y1="72.87" x2="36.92" y2="71.33" stroke="rgb(0, 0, 0)" stroke-width="0.6" shape-rendering="auto" /></g><g id="Bold"><path d="M39.27 74.58 L39.27 74.58 L38.63 73.69 L37.99 72.8 L44.73 61.11 L45.82 61.22 L46.91 61.33 Z" stroke="rgb(0, 0, 0)" stroke-width="0" fill-rule="evenodd" stroke-linejoin="miter" fill="rgb(0, 0, 0)" shape-rendering="geometricPrecision" /></g><g id="Solid"><path d="M66.64 62 L66.64 62 L66.97 61.97 L67.3 61.94 L74.36 74.16 L74.17 74.44 L73.98 74.72 Z" stroke="rgb(0, 0, 0)" stroke-width="0" fill-rule="evenodd" stroke-linejoin="miter" fill="rgb(0, 0, 0)" shape-rendering="geometricPrecision" /></g><g id="Solid"><path d="M73.98 74.72 L73.98 74.72 L74.17 74.44 L74.36 74.16 L84.66 75.52 L85.57 75.94 L86.48 76.36 Z" stroke="rgb(0, 0, 0)" stroke-width="0" fill-rule="evenodd" stroke-linejoin="miter" fill="rgb(0, 0, 0)" shape-rendering="geometricPrecision" /><line x1="75.45" y1="72.52" x2="84.22" y2="73.67" stroke="rgb(0, 0, 0)" stroke-width="0.6" shape-rendering="auto" /></g><g id="Bold"><path d="M86.48 76.36 L86.48 76.36 L85.57 75.94 L84.66 75.52 L88.67 65.06 L89.77 64.97 L90.87 64.88 Z" stroke="rgb(0, 0, 0)" stroke-width="0" fill-rule="evenodd" stroke-linejoin="miter" fill="rgb(0, 0, 0)" shape-rendering="geometricPrecision" /></g><g id="Bold"><path d="M90.87 64.88 L90.87 64.88 L89.77 64.97 L88.67 65.06 L81.95 53.43 L82.57 52.5 L83.19 51.57 Z" stroke="rgb(0, 0, 0)" stroke-width="0" fill-rule="evenodd" stroke-linejoin="miter" fill="rgb(0, 0, 0)" shape-rendering="geometricPrecision" /><line x1="86.13" y1="65.26" x2="80.53" y2="55.55" stroke="rgb(0, 0, 0)" stroke-width="0.6" shape-rendering="auto" /></g><g id="Bold"><path d="M83.19 51.57 L83.19 51.57 L82.57 52.5 L81.95 53.43 L71.11 52 L71.17 51 L70.91 49.96 Z" stroke="rgb(0, 0, 0)" stroke-width="0" fill-rule="evenodd" stroke-linejoin="miter" fill="rgb(0, 0, 0)" shape-rendering="geometricPrecision" /></g><g id="Solid"><path d="M231.96 58.8 L231.96 58.8 L232.13 58.5 L232.48 58.5 L239.49 70.67 L239.32 70.97 L239.15 71.27 Z" stroke="rgb(0, 0, 0)" stroke-width="0" fill-rule="evenodd" stroke-linejoin="miter" fill="rgb(0, 0, 0)" shape-rendering="geometricPrecision" /></g><g id="Solid"><path d="M239.15 71.27 L239.15 71.27 L239.32 70.97 L239.49 70.67 L253.55 70.67 L253.72 70.97 L253.89 71.27 Z" stroke="rgb(0, 0, 0)" stroke-width="0" fill-rule="evenodd" stroke-linejoin="miter" fill="rgb(0, 0, 0)" shape-rendering="geometricPrecision" /><line x1="240.82" y1="68.38" x2="252.22" y2="68.38" stroke="rgb(0, 0, 0)" stroke-width="0.6" shape-rendering="auto" /></g><g id="Solid"><path d="M253.89 71.27 L253.89 71.27 L253.72 70.97 L253.55 70.67 L260.57 58.5 L260.92 58.5 L261.27 58.5 Z" stroke="rgb(0, 0, 0)" stroke-width="0" fill-rule="evenodd" stroke-linejoin="miter" fill="rgb(0, 0, 0)" shape-rendering="geometricPrecision" /></g><g id="Solid"><path d="M261.27 58.5 L261.27 58.5 L260.92 58.5 L260.57 58.5 L253.55 46.33 L253.72 46.03 L253.89 45.73 Z" stroke="rgb(0, 0, 0)" stroke-width="0" fill-rule="evenodd" stroke-linejoin="miter" fill="rgb(0, 0, 0)" shape-rendering="geometricPrecision" /></g><g id="Solid"><path d="M253.89 45.73 L253.89 45.73 L253.72 46.03 L253.55 46.33 L239.49 46.33 L239.32 46.03 L239.15 45.73 Z" stroke="rgb(0, 0, 0)" stroke-width="0" fill-rule="evenodd" stroke-linejoin="miter" fill="rgb(0, 0, 0)" shape-rendering="geometricPrecision" /><line x1="252.22" y1="48.62" x2="240.82" y2="48.62" stroke="rgb(0, 0, 0)" stroke-width="0.6" shape-rendering="auto" /></g><g id="Solid"><path d="M239.15 45.73 L239.15 45.73 L239.32 46.03 L239.49 46.33 L232.48 58.5 L232.13 58.5 L231.96 58.2 Z" stroke="rgb(0, 0, 0)" stroke-width="0" fill-rule="evenodd" stroke-linejoin="miter" fill="rgb(0, 0, 0)" shape-rendering="geometricPrecision" /></g><g id="Solid"><path d="M231.96 58.2 L231.96 58.2 L232.13 58.5 L231.96 58.8 L217.9 58.8 L217.73 58.5 L217.9 58.2 Z" stroke="rgb(0, 0, 0)" stroke-width="0" fill-rule="evenodd" stroke-linejoin="miter" fill="rgb(0, 0, 0)" shape-rendering="geometricPrecision" /></g><g id="Solid"><path d="M217.9 58.2 L217.9 58.2 L217.73 58.5 L217.38 58.5 L210.36 46.33 L210.53 46.03 L210.7 45.73 Z" stroke="rgb(0, 0, 0)" stroke-width="0" fill-rule="evenodd" stroke-linejoin="miter" fill="rgb(0, 0, 0)" shape-rendering="geometricPrecision" /></g><g id="Solid"><path d="M210.7 45.73 L210.7 45.73 L210.53 46.03 L210.36 46.33 L196.3 46.33 L196.13 46.03 L195.96 45.73 Z" stroke="rgb(0, 0, 0)" stroke-width="0" fill-rule="evenodd" stroke-linejoin="miter" fill="rgb(0, 0, 0)" shape-rendering="geometricPrecision" /><line x1="209.03" y1="48.62" x2="197.63" y2="48.62" stroke="rgb(0, 0, 0)" stroke-width="0.6" shape-rendering="auto" /></g><g id="Solid"><path d="M195.96 45.73 L195.96 45.73 L196.13 46.03 L196.3 46.33 L189.28 58.5 L188.93 58.5 L188.58 58.5 Z" stroke="rgb(0, 0, 0)" stroke-width="0" fill-rule="evenodd" stroke-linejoin="miter" fill="rgb(0, 0, 0)" shape-rendering="geometricPrecision" /></g><g id="Solid"><path d="M188.58 58.5 L188.58 58.5 L188.93 58.5 L189.28 58.5 L196.3 70.67 L196.13 70.97 L195.96 71.27 Z" stroke="rgb(0, 0, 0)" stroke-width="0" fill-rule="evenodd" stroke-linejoin="miter" fill="rgb(0, 0, 0)" shape-rendering="geometricPrecision" /></g><g id="Solid"><path d="M195.96 71.27 L195.96 71.27 L196.13 70.97 L196.3 70.67 L210.36 70.67 L210.53 70.97 L210.7 71.27 Z" stroke="rgb(0, 0, 0)" stroke-width="0" fill-rule="evenodd" stroke-linejoin="miter" fill="rgb(0, 0, 0)" shape-rendering="geometricPrecision" /><line x1="197.63" y1="68.38" x2="209.03" y2="68.38" stroke="rgb(0, 0, 0)" stroke-width="0.6" shape-rendering="auto" /></g><g id="Solid"><path d="M210.7 71.27 L210.7 71.27 L210.53 70.97 L210.36 70.67 L217.38 58.5 L217.73 58.5 L217.9 58.8 Z" stroke="rgb(0, 0, 0)" stroke-width="0" fill-rule="evenodd" stroke-linejoin="miter" fill="rgb(0, 0, 0)" shape-rendering="geometricPrecision" /></g><g><text xml:space="preserve" text-anchor="end" text-rendering="geometricPrecision"><tspan x="178.13" y="62.4" font-family="Arial" font-size="10" fill="rgb(0, 0, 0)">HN</tspan></text></g><g id="Solid"><line x1="188.93" y1="59.8" x2="179" y2="59.8" stroke="rgb(0, 0, 0)" stroke-width="0.6" shape-rendering="auto" /><path d="M189.16 57.5 L189.16 57.5 L189.51 56.9 L179 56.9 L179 57.5 Z" stroke="rgb(0, 0, 0)" stroke-width="0" fill-rule="evenodd" stroke-linejoin="miter" fill="rgb(0, 0, 0)" shape-rendering="geometricPrecision" /><path d="M189.51 60.1 L189.51 60.1 L189.16 59.5 L179 59.5 L179 60.1 Z" stroke="rgb(0, 0, 0)" stroke-width="0" fill-rule="evenodd" stroke-linejoin="miter" fill="rgb(0, 0, 0)" shape-rendering="geometricPrecision" /></g><g><text xml:space="preserve" text-anchor="start" text-rendering="geometricPrecision"><tspan x="271.72" y="62.4" font-family="Arial" font-size="10" fill="rgb(0, 0, 0)">NH</tspan></text></g><g id="Solid"><line x1="260.92" y1="57.2" x2="270.9" y2="57.2" stroke="rgb(0, 0, 0)" stroke-width="0.6" shape-rendering="auto" /><path d="M260.69 59.5 L260.69 59.5 L260.34 60.1 L270.9 60.1 L270.9 59.5 Z" stroke="rgb(0, 0, 0)" stroke-width="0" fill-rule="evenodd" stroke-linejoin="miter" fill="rgb(0, 0, 0)" shape-rendering="geometricPrecision" /><path d="M260.34 56.9 L260.34 56.9 L260.69 57.5 L270.9 57.5 L270.9 56.9 Z" stroke="rgb(0, 0, 0)" stroke-width="0" fill-rule="evenodd" stroke-linejoin="miter" fill="rgb(0, 0, 0)" shape-rendering="geometricPrecision" /></g><g id="Arrow"><line x1="146.88" y1="58.5" x2="115.88" y2="58.5" stroke="rgb(0, 0, 0)" stroke-width="0.6" shape-rendering="auto" /><path d="M151.13 58.5 L145.13 57 C146.32 57.84 146.32 59.16 145.13 60 Z" stroke="rgb(0, 0, 0)" stroke-width="0" fill-rule="evenodd" stroke-linejoin="miter" stroke-miterlimit="6.93525005514877" fill="rgb(0, 0, 0)" shape-rendering="geometricPrecision" /></g><g><text xml:space="preserve" text-anchor="start" text-rendering="geometricPrecision"><tspan x="129.37" y="54" font-family="Symbol" font-size="10" fill="rgb(0, 0, 0)">D</tspan></text></g><g id="Arrow"><line x1="229.5" y1="119.13" x2="229.5" y2="89.63" stroke="rgb(0, 0, 0)" stroke-width="0.6" shape-rendering="auto" /><path d="M229.5 123.38 L231 117.38 C230.16 118.57 228.84 118.57 228 117.38 Z" stroke="rgb(0, 0, 0)" stroke-width="0" fill-rule="evenodd" stroke-linejoin="miter" stroke-miterlimit="6.93525005514859" fill="rgb(0, 0, 0)" shape-rendering="geometricPrecision" /></g><g id="Arrow"><line x1="224.25" y1="99.88" x2="224.25" y2="111.38" stroke="rgb(0, 0, 0)" stroke-width="0.6" shape-rendering="auto" /><path d="M224.25 95.63 L222.75 101.63 C223.59 100.44 224.91 100.44 225.75 101.63 Z" stroke="rgb(0, 0, 0)" stroke-width="0" fill-rule="evenodd" stroke-linejoin="miter" stroke-miterlimit="6.935250055149" fill="rgb(0, 0, 0)" shape-rendering="geometricPrecision" /></g><g id="Solid"><path d="M192.95 142.05 L192.95 142.05 L193.12 141.75 L193.47 141.75 L200.49 153.92 L200.32 154.22 L200.15 154.52 Z" stroke="rgb(0, 0, 0)" stroke-width="0" fill-rule="evenodd" stroke-linejoin="miter" fill="rgb(0, 0, 0)" shape-rendering="geometricPrecision" /><line x1="196.11" y1="141.75" x2="201.82" y2="151.63" stroke="rgb(0, 0, 0)" stroke-width="0.6" shape-rendering="auto" /></g><g id="Solid"><path d="M200.15 154.52 L200.15 154.52 L200.32 154.22 L200.49 153.92 L214.55 153.92 L214.72 154.22 L214.89 154.52 Z" stroke="rgb(0, 0, 0)" stroke-width="0" fill-rule="evenodd" stroke-linejoin="miter" fill="rgb(0, 0, 0)" shape-rendering="geometricPrecision" /></g><g id="Solid"><path d="M214.89 154.52 L214.89 154.52 L214.72 154.22 L214.55 153.92 L221.57 141.75 L221.92 141.75 L222.09 142.05 Z" stroke="rgb(0, 0, 0)" stroke-width="0" fill-rule="evenodd" stroke-linejoin="miter" fill="rgb(0, 0, 0)" shape-rendering="geometricPrecision" /><line x1="213.22" y1="151.63" x2="218.93" y2="141.75" stroke="rgb(0, 0, 0)" stroke-width="0.6" shape-rendering="auto" /></g><g id="Solid"><path d="M222.09 141.45 L222.09 141.45 L221.92 141.75 L221.57 141.75 L214.55 129.58 L214.72 129.28 L214.89 128.98 Z" stroke="rgb(0, 0, 0)" stroke-width="0" fill-rule="evenodd" stroke-linejoin="miter" fill="rgb(0, 0, 0)" shape-rendering="geometricPrecision" /></g><g id="Solid"><path d="M214.89 128.98 L214.89 128.98 L214.72 129.28 L214.55 129.58 L200.49 129.58 L200.32 129.28 L200.15 128.98 Z" stroke="rgb(0, 0, 0)" stroke-width="0" fill-rule="evenodd" stroke-linejoin="miter" fill="rgb(0, 0, 0)" shape-rendering="geometricPrecision" /><line x1="213.22" y1="131.87" x2="201.82" y2="131.87" stroke="rgb(0, 0, 0)" stroke-width="0.6" shape-rendering="auto" /></g><g id="Solid"><path d="M200.15 128.98 L200.15 128.98 L200.32 129.28 L200.49 129.58 L193.47 141.75 L193.12 141.75 L192.95 141.45 Z" stroke="rgb(0, 0, 0)" stroke-width="0" fill-rule="evenodd" stroke-linejoin="miter" fill="rgb(0, 0, 0)" shape-rendering="geometricPrecision" /></g><g id="Solid"><path d="M192.95 141.45 L192.95 141.45 L193.12 141.75 L192.95 142.05 L183.1 142.05 L183.1 141.75 L183.1 141.45 Z" stroke="rgb(0, 0, 0)" stroke-width="0" fill-rule="evenodd" stroke-linejoin="miter" fill="rgb(0, 0, 0)" shape-rendering="geometricPrecision" /></g><g><text xml:space="preserve" text-anchor="end" text-rendering="geometricPrecision"><tspan x="182.32" y="145.65" font-family="Arial" font-size="10" fill="rgb(0, 0, 0)">H</tspan><tspan font-family="Arial" dy="2.26" font-size="7.5" fill="rgb(0, 0, 0)">2</tspan><tspan font-family="Arial" dy="-2.26" font-size="10" fill="rgb(0, 0, 0)">N</tspan></text></g><g id="Solid"><path d="M222.09 142.05 L222.09 142.05 L221.92 141.75 L222.09 141.45 L236.15 141.45 L236.32 141.75 L236.15 142.05 Z" stroke="rgb(0, 0, 0)" stroke-width="0" fill-rule="evenodd" stroke-linejoin="miter" fill="rgb(0, 0, 0)" shape-rendering="geometricPrecision" /></g><g id="Solid"><path d="M236.15 142.05 L236.15 142.05 L236.32 141.75 L236.67 141.75 L243.69 153.92 L243.52 154.22 L243.35 154.52 Z" stroke="rgb(0, 0, 0)" stroke-width="0" fill-rule="evenodd" stroke-linejoin="miter" fill="rgb(0, 0, 0)" shape-rendering="geometricPrecision" /><line x1="239.31" y1="141.75" x2="245.02" y2="151.63" stroke="rgb(0, 0, 0)" stroke-width="0.6" shape-rendering="auto" /></g><g id="Solid"><path d="M243.35 154.52 L243.35 154.52 L243.52 154.22 L243.69 153.92 L257.75 153.92 L257.92 154.22 L258.09 154.52 Z" stroke="rgb(0, 0, 0)" stroke-width="0" fill-rule="evenodd" stroke-linejoin="miter" fill="rgb(0, 0, 0)" shape-rendering="geometricPrecision" /></g><g id="Solid"><path d="M258.09 154.52 L258.09 154.52 L257.92 154.22 L257.75 153.92 L264.77 141.75 L265.12 141.75 L265.29 142.05 Z" stroke="rgb(0, 0, 0)" stroke-width="0" fill-rule="evenodd" stroke-linejoin="miter" fill="rgb(0, 0, 0)" shape-rendering="geometricPrecision" /><line x1="256.42" y1="151.63" x2="262.13" y2="141.75" stroke="rgb(0, 0, 0)" stroke-width="0.6" shape-rendering="auto" /></g><g id="Solid"><path d="M265.29 141.45 L265.29 141.45 L265.12 141.75 L264.77 141.75 L257.75 129.58 L257.92 129.28 L258.09 128.98 Z" stroke="rgb(0, 0, 0)" stroke-width="0" fill-rule="evenodd" stroke-linejoin="miter" fill="rgb(0, 0, 0)" shape-rendering="geometricPrecision" /></g><g id="Solid"><path d="M258.09 128.98 L258.09 128.98 L257.92 129.28 L257.75 129.58 L243.69 129.58 L243.52 129.28 L243.35 128.98 Z" stroke="rgb(0, 0, 0)" stroke-width="0" fill-rule="evenodd" stroke-linejoin="miter" fill="rgb(0, 0, 0)" shape-rendering="geometricPrecision" /><line x1="256.42" y1="131.87" x2="245.02" y2="131.87" stroke="rgb(0, 0, 0)" stroke-width="0.6" shape-rendering="auto" /></g><g id="Solid"><path d="M243.35 128.98 L243.35 128.98 L243.52 129.28 L243.69 129.58 L236.67 141.75 L236.32 141.75 L236.15 141.45 Z" stroke="rgb(0, 0, 0)" stroke-width="0" fill-rule="evenodd" stroke-linejoin="miter" fill="rgb(0, 0, 0)" shape-rendering="geometricPrecision" /></g><g><text xml:space="preserve" text-anchor="start" text-rendering="geometricPrecision"><tspan x="275.92" y="145.65" font-family="Arial" font-size="10" fill="rgb(0, 0, 0)">NH</tspan><tspan font-family="Arial" dy="2.26" font-size="7.5" fill="rgb(0, 0, 0)">2</tspan></text></g><g id="Solid"><path d="M265.29 142.05 L265.29 142.05 L265.12 141.75 L265.29 141.45 L275.1 141.45 L275.1 141.75 L275.1 142.05 Z" stroke="rgb(0, 0, 0)" stroke-width="0" fill-rule="evenodd" stroke-linejoin="miter" fill="rgb(0, 0, 0)" shape-rendering="geometricPrecision" /></g><g><text xml:space="preserve" text-anchor="start" text-rendering="geometricPrecision"><tspan x="236.53" y="108.75" font-family="Arial" font-style="italic" font-size="10" fill="rgb(0, 0, 0)">Aromatisation</tspan></text></g><g id="Arrow"><path d="M35.54 79.5 C47.94 91.9 69.52 93 83.11 81.91 " stroke="rgb(255, 0, 0)" stroke-width="0.6" fill-rule="evenodd" stroke-linejoin="bevel" fill="none" shape-rendering="geometricPrecision" /><path d="M85.78 79.5 L81.39 81.79 C82.62 81.61 83.32 82.39 82.99 83.58 Z" stroke="rgb(255, 0, 0)" stroke-width="0" fill-rule="evenodd" stroke-linejoin="miter" stroke-miterlimit="6.93525005514884" fill="rgb(255, 0, 0)" shape-rendering="geometricPrecision" /></g><g id="Arrow"><path d="M80.62 71.25 C80.01 68.96 78.12 67.07 75.83 66.46 " stroke="rgb(255, 0, 0)" stroke-width="0.6" fill-rule="evenodd" stroke-linejoin="bevel" fill="none" shape-rendering="geometricPrecision" /><path d="M72.33 66.46 L76.33 67.46 C75.47 66.83 75.47 66.1 76.34 65.46 Z" stroke="rgb(255, 0, 0)" stroke-width="0" fill-rule="evenodd" stroke-linejoin="miter" stroke-miterlimit="5.30330226536999" fill="rgb(255, 0, 0)" shape-rendering="geometricPrecision" /></g><g id="Arrow"><path d="M65.92 49.23 C65.37 51.29 65.99 53.61 67.5 55.12 " stroke="rgb(255, 0, 0)" stroke-width="0.6" fill-rule="evenodd" stroke-linejoin="bevel" fill="none" shape-rendering="geometricPrecision" /><path d="M67.5 46.5 L64.92 49.17 C65.83 48.8 66.34 49.1 66.48 50.07 Z" stroke="rgb(255, 0, 0)" stroke-width="0" fill-rule="evenodd" stroke-linejoin="miter" stroke-miterlimit="4.91065618851278" fill="rgb(255, 0, 0)" shape-rendering="geometricPrecision" /></g><g id="Arrow"><path d="M49.83 48.04 C53.2 47.53 56.13 44.92 57.01 41.63 " stroke="rgb(255, 0, 0)" stroke-width="0.6" fill-rule="evenodd" stroke-linejoin="bevel" fill="none" shape-rendering="geometricPrecision" /><path d="M46.24 47.84 L51.01 49.14 C49.99 48.44 50.01 47.39 51.06 46.74 Z" stroke="rgb(255, 0, 0)" stroke-width="0" fill-rule="evenodd" stroke-linejoin="miter" stroke-miterlimit="6.93525005514874" fill="rgb(255, 0, 0)" shape-rendering="geometricPrecision" /></g><g id="Arrow"><path d="M40.13 57.75 C38.62 59.26 38 61.58 38.55 63.64 " stroke="rgb(255, 0, 0)" stroke-width="0.6" fill-rule="evenodd" stroke-linejoin="bevel" fill="none" shape-rendering="geometricPrecision" /><path d="M40.13 66.37 L39.11 62.8 C38.97 63.77 38.46 64.07 37.55 63.7 Z" stroke="rgb(255, 0, 0)" stroke-width="0" fill-rule="evenodd" stroke-linejoin="miter" stroke-miterlimit="4.91065618851278" fill="rgb(255, 0, 0)" shape-rendering="geometricPrecision" /></g></g></g></svg>