<?xml version="1.0"?><svg xmlns="http://www.w3.org/2000/svg" xmlns:xlink="http://www.w3.org/1999/xlink" viewBox="63.01 44.29 388.07 147.89" preserveAspectRatio="xMidYMid" width="100%" height="100%"><clipPath id="110"><rect x="0.67" y="0.67" width="521.86" height="768.34" /></clipPath><g id="drawing"><rect x="63.01" y="44.29" width="100%" height="100%" fill="rgb(255, 255, 255)" /><g id="page" clip-path="url(#110)"><g id="Solid"><path d="M66.92 102.85 L66.92 102.85 L66.25 102.46 L65.58 102.07 L93.51 85.94 L94.18 86.33 L94.85 86.72 Z" stroke="rgb(0, 0, 0)" stroke-width="0" fill-rule="evenodd" stroke-linejoin="miter" fill="rgb(0, 0, 0)" shape-rendering="geometricPrecision" /><line x1="72.06" y1="105.81" x2="97.08" y2="91.36" stroke="rgb(0, 0, 0)" stroke-width="1.34" shape-rendering="auto" /></g><g id="Solid"><path d="M65.58 102.07 L65.58 102.07 L66.25 102.46 L66.92 102.85 L66.92 134.32 L66.25 134.71 L65.58 135.1 Z" stroke="rgb(0, 0, 0)" stroke-width="0" fill-rule="evenodd" stroke-linejoin="miter" fill="rgb(0, 0, 0)" shape-rendering="geometricPrecision" /></g><g id="Solid"><path d="M65.58 135.1 L65.58 135.1 L66.25 134.71 L66.92 134.32 L94.85 150.45 L94.18 150.84 L93.51 151.23 Z" stroke="rgb(0, 0, 0)" stroke-width="0" fill-rule="evenodd" stroke-linejoin="miter" fill="rgb(0, 0, 0)" shape-rendering="geometricPrecision" /><line x1="72.06" y1="131.36" x2="97.08" y2="145.81" stroke="rgb(0, 0, 0)" stroke-width="1.34" shape-rendering="auto" /></g><g><text xml:space="preserve" text-anchor="start" text-rendering="geometricPrecision"><tspan x="84.86" y="191.92" font-family="Arial" font-size="22.4" fill="rgb(0, 0, 0)">Me</tspan></text></g><g id="Solid"><path d="M93.51 151.23 L93.51 151.23 L94.18 150.84 L94.85 150.45 L94.85 174.15 L94.18 174.15 L93.51 174.15 Z" stroke="rgb(0, 0, 0)" stroke-width="0" fill-rule="evenodd" stroke-linejoin="miter" fill="rgb(0, 0, 0)" shape-rendering="geometricPrecision" /></g><g><text xml:space="preserve" text-anchor="start" text-rendering="geometricPrecision"><tspan x="84.86" y="62.9" font-family="Arial" font-size="22.4" fill="rgb(0, 0, 0)">Me</tspan></text></g><g id="Solid"><path d="M94.85 86.72 L94.85 86.72 L94.18 86.33 L93.51 85.94 L93.51 66.48 L94.18 66.48 L94.85 66.48 Z" stroke="rgb(0, 0, 0)" stroke-width="0" fill-rule="evenodd" stroke-linejoin="miter" fill="rgb(0, 0, 0)" shape-rendering="geometricPrecision" /></g><g id="Solid"><path d="M373.55 101.79 L373.55 101.79 L374.22 102.46 L374.89 103.13 L374.89 134.04 L374.22 134.71 L373.55 135.38 Z" stroke="rgb(0, 0, 0)" stroke-width="0" fill-rule="evenodd" stroke-linejoin="miter" fill="rgb(0, 0, 0)" shape-rendering="geometricPrecision" /><line x1="380.03" y1="108.26" x2="380.03" y2="128.9" stroke="rgb(0, 0, 0)" stroke-width="1.34" shape-rendering="auto" /></g><g id="Solid"><path d="M373.55 135.38 L373.55 135.38 L374.22 134.71 L374.89 134.04 L405.81 134.04 L406.48 134.71 L406.17 135.38 Z" stroke="rgb(0, 0, 0)" stroke-width="0" fill-rule="evenodd" stroke-linejoin="miter" fill="rgb(0, 0, 0)" shape-rendering="geometricPrecision" /></g><g id="Solid"><path d="M407.15 134.4 L407.15 134.4 L406.48 134.71 L405.81 134.04 L405.81 103.13 L406.48 102.46 L407.15 102.77 Z" stroke="rgb(0, 0, 0)" stroke-width="0" fill-rule="evenodd" stroke-linejoin="miter" fill="rgb(0, 0, 0)" shape-rendering="geometricPrecision" /></g><g id="Solid"><path d="M406.17 101.79 L406.17 101.79 L406.48 102.46 L405.81 103.13 L374.89 103.13 L374.22 102.46 L373.55 101.79 Z" stroke="rgb(0, 0, 0)" stroke-width="0" fill-rule="evenodd" stroke-linejoin="miter" fill="rgb(0, 0, 0)" shape-rendering="geometricPrecision" /></g><g><text xml:space="preserve" text-anchor="start" text-rendering="geometricPrecision"><tspan x="419.96" y="88.47" font-family="Arial" font-size="22.4" fill="rgb(0, 0, 0)">Me</tspan></text></g><g id="WedgeBegin"><path d="M407.15 102.77 L407.15 102.77 L406.48 102.46 L406.17 101.79 L416.79 87.4 L419.17 89.77 L421.54 92.15 Z" stroke="rgb(0, 0, 0)" stroke-width="0" fill-rule="evenodd" stroke-linejoin="miter" fill="rgb(0, 0, 0)" shape-rendering="geometricPrecision" /></g><g><text xml:space="preserve" text-anchor="start" text-rendering="geometricPrecision"><tspan x="419.96" y="166.35" font-family="Arial" font-size="22.4" fill="rgb(0, 0, 0)">Me</tspan></text></g><g id="WedgeBegin"><path d="M406.17 135.38 L406.17 135.38 L406.48 134.71 L407.15 134.4 L422.01 145.49 L419.64 147.87 L417.26 150.24 Z" stroke="rgb(0, 0, 0)" stroke-width="0" fill-rule="evenodd" stroke-linejoin="miter" fill="rgb(0, 0, 0)" shape-rendering="geometricPrecision" /></g><g id="Arrow"><path d="M75.74 116.85 C82.69 112.77 85.28 102.96 81.25 95.98 " stroke="rgb(255, 0, 0)" stroke-width="1.34" fill-rule="evenodd" stroke-linejoin="bevel" fill="none" shape-rendering="geometricPrecision" /><path d="M67.98 118.96 L79.01 118.23 C76.85 117.34 76.13 115.11 77.36 113.13 Z" stroke="rgb(255, 0, 0)" stroke-width="0" fill-rule="evenodd" stroke-linejoin="miter" stroke-miterlimit="15.4887251231656" fill="rgb(255, 0, 0)" shape-rendering="geometricPrecision" /></g><g id="Arrow"><path d="M87.32 127.46 C81.85 129.77 78.66 136.3 80.2 142.04 " stroke="rgb(255, 0, 0)" stroke-width="1.34" fill-rule="evenodd" stroke-linejoin="bevel" fill="none" shape-rendering="geometricPrecision" /><path d="M95.33 126.9 L85.5 125.33 C87.22 126.65 87.39 128.55 85.92 130.14 Z" stroke="rgb(255, 0, 0)" stroke-width="0" fill-rule="evenodd" stroke-linejoin="miter" stroke-miterlimit="13.1698126527591" fill="rgb(255, 0, 0)" shape-rendering="geometricPrecision" /></g><g id="Arrow"><g id="Equilibrium Arrow"><line x1="311.92" y1="116.14" x2="166.07" y2="116.14" stroke="rgb(0, 0, 0)" stroke-width="1.34" shape-rendering="auto" /><line x1="320.63" y1="120.16" x2="174.78" y2="120.16" stroke="rgb(0, 0, 0)" stroke-width="1.34" shape-rendering="auto" /></g><path d="M322.64 116.81 L309.24 112.79 C311.35 115.05 310.92 116.81 310.92 116.81 Z" stroke="rgb(0, 0, 0)" stroke-width="0" fill-rule="evenodd" stroke-linejoin="miter" stroke-miterlimit="13.5234146695471" fill="rgb(0, 0, 0)" shape-rendering="geometricPrecision" /><path d="M164.06 119.49 L177.46 123.51 C175.35 121.25 175.78 119.49 175.78 119.49 Z" stroke="rgb(0, 0, 0)" stroke-width="0" fill-rule="evenodd" stroke-linejoin="miter" stroke-miterlimit="13.5234146695471" fill="rgb(0, 0, 0)" shape-rendering="geometricPrecision" /></g><g><text xml:space="preserve" text-anchor="start" text-rendering="geometricPrecision"><tspan x="233.27" y="102.63" font-family="Arial" font-style="italic" font-size="22.4" fill="rgb(0, 0, 0)">hv</tspan></text></g></g></g></svg>