<?xml version="1.0"?><svg xmlns="http://www.w3.org/2000/svg" xmlns:xlink="http://www.w3.org/1999/xlink" viewBox="134.75 167.79 270.5 76.21" preserveAspectRatio="xMidYMid" width="100%" height="100%"><clipPath id="10033"><rect x="0.3" y="0.3" width="522.72" height="769.32" /></clipPath><g id="drawing"><rect x="134.75" y="167.79" width="100%" height="100%" fill="rgb(255, 255, 255)" /><g id="page" clip-path="url(#10033)"><g id="Solid"><path d="M134.75 215.93 L134.75 215.93 L135.05 216.1 L135.35 216.27 L135.35 230.33 L135.05 230.5 L134.75 230.67 Z" stroke="rgb(0, 0, 0)" stroke-width="0" fill-rule="evenodd" stroke-linejoin="miter" fill="rgb(0, 0, 0)" shape-rendering="geometricPrecision" /></g><g id="Solid"><path d="M134.75 230.67 L134.75 230.67 L135.05 230.5 L135.35 230.33 L147.52 237.35 L147.52 237.7 L147.52 238.05 Z" stroke="rgb(0, 0, 0)" stroke-width="0" fill-rule="evenodd" stroke-linejoin="miter" fill="rgb(0, 0, 0)" shape-rendering="geometricPrecision" /></g><g id="Solid"><path d="M147.52 238.05 L147.52 238.05 L147.52 237.7 L147.52 237.35 L159.69 230.33 L159.99 230.5 L159.99 230.85 Z" stroke="rgb(0, 0, 0)" stroke-width="0" fill-rule="evenodd" stroke-linejoin="miter" fill="rgb(0, 0, 0)" shape-rendering="geometricPrecision" /></g><g id="Solid"><path d="M160.29 230.33 L160.29 230.33 L159.99 230.5 L159.69 230.33 L159.69 216.27 L159.99 216.1 L160.29 215.93 Z" stroke="rgb(0, 0, 0)" stroke-width="0" fill-rule="evenodd" stroke-linejoin="miter" fill="rgb(0, 0, 0)" shape-rendering="geometricPrecision" /><line x1="157.4" y1="229" x2="157.4" y2="217.6" stroke="rgb(0, 0, 0)" stroke-width="0.6" shape-rendering="auto" /></g><g id="Solid"><path d="M160.29 215.93 L160.29 215.93 L159.99 216.1 L159.69 216.27 L147.52 209.25 L147.52 208.9 L147.52 208.55 Z" stroke="rgb(0, 0, 0)" stroke-width="0" fill-rule="evenodd" stroke-linejoin="miter" fill="rgb(0, 0, 0)" shape-rendering="geometricPrecision" /></g><g id="Solid"><path d="M147.52 208.55 L147.52 208.55 L147.52 208.9 L147.52 209.25 L135.35 216.27 L135.05 216.1 L134.75 215.93 Z" stroke="rgb(0, 0, 0)" stroke-width="0" fill-rule="evenodd" stroke-linejoin="miter" fill="rgb(0, 0, 0)" shape-rendering="geometricPrecision" /></g><g><text xml:space="preserve" text-anchor="start" text-rendering="geometricPrecision"><tspan x="143.62" y="198.4" font-family="Arial" font-size="10" fill="rgb(0, 0, 0)">O</tspan></text></g><g id="Wedged Hash Begin Bond"><path d="M147.82 208.9 L147.82 208.9 L147.22 208.9 L147.14 208.3 L147.9 208.3 Z" stroke="rgb(0, 0, 0)" stroke-width="0" fill-rule="evenodd" stroke-linejoin="miter" fill="rgb(0, 0, 0)" shape-rendering="geometricPrecision" /><path d="M148.19 206.2 L148.19 206.2 L146.85 206.2 L146.76 205.6 L148.28 205.6 Z" stroke="rgb(0, 0, 0)" stroke-width="0" fill-rule="evenodd" stroke-linejoin="miter" fill="rgb(0, 0, 0)" shape-rendering="geometricPrecision" /><path d="M148.56 203.5 L148.56 203.5 L146.48 203.5 L146.39 202.9 L148.65 202.9 Z" stroke="rgb(0, 0, 0)" stroke-width="0" fill-rule="evenodd" stroke-linejoin="miter" fill="rgb(0, 0, 0)" shape-rendering="geometricPrecision" /><path d="M148.94 200.8 L148.94 200.8 L146.1 200.8 L146.02 200.2 L149.02 200.2 Z" stroke="rgb(0, 0, 0)" stroke-width="0" fill-rule="evenodd" stroke-linejoin="miter" fill="rgb(0, 0, 0)" shape-rendering="geometricPrecision" /></g><g id="Solid"><path d="M152.14 192.18 L152.14 192.18 L151.99 191.92 L151.84 191.66 L159.99 186.95 L159.99 187.3 L159.99 187.65 Z" stroke="rgb(0, 0, 0)" stroke-width="0" fill-rule="evenodd" stroke-linejoin="miter" fill="rgb(0, 0, 0)" shape-rendering="geometricPrecision" /></g><g id="Solid"><path d="M159.99 187.65 L159.99 187.65 L159.99 187.3 L159.99 186.95 L172.47 194.15 L172.47 194.5 L172.47 194.85 Z" stroke="rgb(0, 0, 0)" stroke-width="0" fill-rule="evenodd" stroke-linejoin="miter" fill="rgb(0, 0, 0)" shape-rendering="geometricPrecision" /></g><g><text xml:space="preserve" text-anchor="start" text-rendering="geometricPrecision"><tspan x="156.09" y="176.8" font-family="Arial" font-size="10" fill="rgb(0, 0, 0)">O</tspan></text></g><g id="Solid"><line x1="158.69" y1="187.3" x2="158.69" y2="178.6" stroke="rgb(0, 0, 0)" stroke-width="0.6" shape-rendering="auto" /><path d="M160.99 187.53 L160.99 187.53 L161.59 187.87 L161.59 178.6 L160.99 178.6 Z" stroke="rgb(0, 0, 0)" stroke-width="0" fill-rule="evenodd" stroke-linejoin="miter" fill="rgb(0, 0, 0)" shape-rendering="geometricPrecision" /><path d="M158.39 187.88 L158.39 187.88 L158.99 187.53 L158.99 178.6 L158.39 178.6 Z" stroke="rgb(0, 0, 0)" stroke-width="0" fill-rule="evenodd" stroke-linejoin="miter" fill="rgb(0, 0, 0)" shape-rendering="geometricPrecision" /></g><g id="Arrow"><line x1="303.02" y1="217.3" x2="255.52" y2="217.3" stroke="rgb(0, 0, 0)" stroke-width="0.6" shape-rendering="auto" /><path d="M307.27 217.3 L301.27 215.8 C302.46 216.64 302.46 217.96 301.27 218.8 Z" stroke="rgb(0, 0, 0)" stroke-width="0" fill-rule="evenodd" stroke-linejoin="miter" stroke-miterlimit="6.93525005514877" fill="rgb(0, 0, 0)" shape-rendering="geometricPrecision" /></g><g><text xml:space="preserve" text-anchor="start" text-rendering="geometricPrecision"><tspan x="276.17" y="213.97" font-family="Symbol" font-size="11.1" fill="rgb(0, 0, 0)">D</tspan></text></g><g id="Solid"><path d="M350 204.68 L350 204.68 L350.3 204.85 L350.6 205.02 L350.6 219.08 L350.3 219.25 L350 219.42 Z" stroke="rgb(0, 0, 0)" stroke-width="0" fill-rule="evenodd" stroke-linejoin="miter" fill="rgb(0, 0, 0)" shape-rendering="geometricPrecision" /></g><g id="Solid"><path d="M350 219.42 L350 219.42 L350.3 219.25 L350.6 219.08 L362.77 226.1 L362.77 226.45 L362.77 226.8 Z" stroke="rgb(0, 0, 0)" stroke-width="0" fill-rule="evenodd" stroke-linejoin="miter" fill="rgb(0, 0, 0)" shape-rendering="geometricPrecision" /></g><g id="Solid"><path d="M362.77 226.8 L362.77 226.8 L362.77 226.45 L362.77 226.1 L374.94 219.08 L375.24 219.25 L375.24 219.6 Z" stroke="rgb(0, 0, 0)" stroke-width="0" fill-rule="evenodd" stroke-linejoin="miter" fill="rgb(0, 0, 0)" shape-rendering="geometricPrecision" /></g><g id="Solid"><path d="M375.54 219.08 L375.54 219.08 L375.24 219.25 L374.94 219.08 L374.94 205.02 L375.24 204.85 L375.54 205.02 Z" stroke="rgb(0, 0, 0)" stroke-width="0" fill-rule="evenodd" stroke-linejoin="miter" fill="rgb(0, 0, 0)" shape-rendering="geometricPrecision" /></g><g id="Solid"><path d="M375.24 204.5 L375.24 204.5 L375.24 204.85 L374.94 205.02 L362.77 198 L362.77 197.65 L362.77 197.3 Z" stroke="rgb(0, 0, 0)" stroke-width="0" fill-rule="evenodd" stroke-linejoin="miter" fill="rgb(0, 0, 0)" shape-rendering="geometricPrecision" /></g><g id="Solid"><path d="M362.77 197.3 L362.77 197.3 L362.77 197.65 L362.77 198 L350.6 205.02 L350.3 204.85 L350 204.68 Z" stroke="rgb(0, 0, 0)" stroke-width="0" fill-rule="evenodd" stroke-linejoin="miter" fill="rgb(0, 0, 0)" shape-rendering="geometricPrecision" /></g><g id="Solid"><path d="M375.24 219.6 L375.24 219.6 L375.24 219.25 L375.54 219.08 L387.72 226.1 L387.72 226.45 L387.72 226.8 Z" stroke="rgb(0, 0, 0)" stroke-width="0" fill-rule="evenodd" stroke-linejoin="miter" fill="rgb(0, 0, 0)" shape-rendering="geometricPrecision" /></g><g id="Solid"><path d="M387.72 226.8 L387.72 226.8 L387.72 226.45 L387.72 226.1 L399.89 219.08 L400.19 219.25 L400.49 219.42 Z" stroke="rgb(0, 0, 0)" stroke-width="0" fill-rule="evenodd" stroke-linejoin="miter" fill="rgb(0, 0, 0)" shape-rendering="geometricPrecision" /></g><g id="Solid"><path d="M400.49 219.42 L400.49 219.42 L400.19 219.25 L399.89 219.08 L399.89 205.02 L400.19 204.85 L400.49 204.68 Z" stroke="rgb(0, 0, 0)" stroke-width="0" fill-rule="evenodd" stroke-linejoin="miter" fill="rgb(0, 0, 0)" shape-rendering="geometricPrecision" /><line x1="397.6" y1="217.75" x2="397.6" y2="206.35" stroke="rgb(0, 0, 0)" stroke-width="0.6" shape-rendering="auto" /></g><g id="Solid"><path d="M400.49 204.68 L400.49 204.68 L400.19 204.85 L399.89 205.02 L387.72 198 L387.72 197.65 L388 197.46 Z" stroke="rgb(0, 0, 0)" stroke-width="0" fill-rule="evenodd" stroke-linejoin="miter" fill="rgb(0, 0, 0)" shape-rendering="geometricPrecision" /></g><g id="Solid"><path d="M387.4 197.49 L387.4 197.49 L387.72 197.65 L387.72 198 L375.54 205.02 L375.24 204.85 L375.24 204.5 Z" stroke="rgb(0, 0, 0)" stroke-width="0" fill-rule="evenodd" stroke-linejoin="miter" fill="rgb(0, 0, 0)" shape-rendering="geometricPrecision" /></g><g id="Wedged Hash Begin Bond"><path d="M363.07 197.69 L363.07 197.69 L362.47 197.61 L362.48 197 L363.24 197.11 Z" stroke="rgb(0, 0, 0)" stroke-width="0" fill-rule="evenodd" stroke-linejoin="miter" fill="rgb(0, 0, 0)" shape-rendering="geometricPrecision" /><path d="M363.84 195.09 L363.84 195.09 L362.51 194.89 L362.51 194.29 L364.01 194.51 Z" stroke="rgb(0, 0, 0)" stroke-width="0" fill-rule="evenodd" stroke-linejoin="miter" fill="rgb(0, 0, 0)" shape-rendering="geometricPrecision" /><path d="M364.61 192.49 L364.61 192.49 L362.54 192.18 L362.55 191.57 L364.78 191.91 Z" stroke="rgb(0, 0, 0)" stroke-width="0" fill-rule="evenodd" stroke-linejoin="miter" fill="rgb(0, 0, 0)" shape-rendering="geometricPrecision" /><path d="M365.38 189.89 L365.38 189.89 L362.57 189.46 L362.58 188.86 L365.55 189.31 Z" stroke="rgb(0, 0, 0)" stroke-width="0" fill-rule="evenodd" stroke-linejoin="miter" fill="rgb(0, 0, 0)" shape-rendering="geometricPrecision" /></g><g><text xml:space="preserve" text-anchor="start" text-rendering="geometricPrecision"><tspan x="361.02" y="187.31" font-family="Arial" font-size="10" fill="rgb(0, 0, 0)">O</tspan></text></g><g id="Solid"><path d="M388 197.46 L388 197.46 L387.72 197.65 L387.4 197.49 L385.48 183.54 L385.74 183.24 L386 182.94 Z" stroke="rgb(0, 0, 0)" stroke-width="0" fill-rule="evenodd" stroke-linejoin="miter" fill="rgb(0, 0, 0)" shape-rendering="geometricPrecision" /></g><g id="Solid"><path d="M370 183.67 L370 183.67 L370 183.37 L370 183.07 L386 182.94 L385.74 183.24 L385.48 183.54 Z" stroke="rgb(0, 0, 0)" stroke-width="0" fill-rule="evenodd" stroke-linejoin="miter" fill="rgb(0, 0, 0)" shape-rendering="geometricPrecision" /></g><path d="M387.72 226.45 A0.935064935064935,0.935064935064935 89.9999988540844 0,0 386.72 227.39 A0.935064935064935,0.935064935064935 89.9999988540844 0,0 387.72 228.32 A0.935064935064935,0.935064935064935 89.9999988540844 0,1 388.72 229.26 A0.935064935064935,0.935064935064935 89.9999988540844 0,1 387.72 230.19 A0.935064935064935,0.935064935064935 89.9999988540844 0,0 386.72 231.13 A0.935064935064935,0.935064935064935 89.9999988540844 0,0 387.72 232.06 A0.935064935064935,0.935064935064935 89.9999988540844 0,1 388.72 233 A0.935064935064935,0.935064935064935 89.9999988540844 0,1 387.72 233.93 A0.935064935064935,0.935064935064935 89.9999988540844 0,0 386.72 234.87 A0.935064935064935,0.935064935064935 89.9999988540844 0,0 387.72 235.8 A0.935064935064935,0.935064935064935 89.9999988540844 0,1 388.72 236.74 A0.935064935064935,0.935064935064935 89.9999988540844 0,1 387.72 237.67 A0.935064935064935,0.935064935064935 89.9999988540844 0,0 386.72 238.61 A0.935064935064935,0.935064935064935 89.9999988540844 0,0 387.72 239.54 A0.935064935064935,0.935064935064935 89.9999988540844 0,1 388.72 240.48 " stroke="rgb(0, 0, 0)" stroke-width="0.6" fill-rule="evenodd" stroke-linejoin="bevel" fill="none" shape-rendering="geometricPrecision" /><g id="Solid"><line x1="384.76" y1="182.39" x2="389.77" y2="176.6" stroke="rgb(0, 0, 0)" stroke-width="0.6" shape-rendering="auto" /><path d="M386.18 184.25 L386.18 184.25 L386.29 185.04 L391.96 178.49 L391.51 178.1 Z" stroke="rgb(0, 0, 0)" stroke-width="0" fill-rule="evenodd" stroke-linejoin="miter" fill="rgb(0, 0, 0)" shape-rendering="geometricPrecision" /><path d="M383.88 182.96 L383.88 182.96 L384.68 182.95 L390 176.79 L389.55 176.4 Z" stroke="rgb(0, 0, 0)" stroke-width="0" fill-rule="evenodd" stroke-linejoin="miter" fill="rgb(0, 0, 0)" shape-rendering="geometricPrecision" /></g><g><text xml:space="preserve" text-anchor="start" text-rendering="geometricPrecision"><tspan x="391.26" y="176.25" font-family="Arial" font-size="10" fill="rgb(0, 0, 0)">O</tspan></text></g><g><text xml:space="preserve" text-anchor="end" text-rendering="geometricPrecision"><tspan x="377.34" y="240.55" font-family="Arial" font-size="10" fill="rgb(0, 0, 0)">MeO</tspan><tspan font-family="Arial" dy="2.26" font-size="7.5" fill="rgb(0, 0, 0)">2</tspan><tspan font-family="Arial" dy="-2.26" font-size="10" fill="rgb(0, 0, 0)">C</tspan></text></g><path d="M375.24 219.25 A0.925937521474114,0.925937521474114 94.9271099476489 0,0 374.16 220.09 A0.925937521474114,0.925937521474114 94.9271099476489 0,0 375.08 221.1 A0.925937521474114,0.925937521474114 94.9271099476489 0,1 376 222.1 A0.925937521474114,0.925937521474114 94.9271099476489 0,1 374.92 222.94 A0.925937521474114,0.925937521474114 94.9271099476489 0,0 373.85 223.78 A0.925937521474114,0.925937521474114 94.9271099476489 0,0 374.76 224.79 A0.925937521474114,0.925937521474114 94.9271099476489 0,1 375.68 225.79 A0.925937521474114,0.925937521474114 94.9271099476489 0,1 374.6 226.63 A0.925937521474114,0.925937521474114 94.9271099476489 0,0 373.53 227.47 A0.925937521474114,0.925937521474114 94.9271099476489 0,0 374.44 228.48 A0.925937521474114,0.925937521474114 94.9271099476489 0,1 375.36 229.48 A0.925937521474114,0.925937521474114 94.9271099476489 0,1 374.29 230.32 A0.925937521474114,0.925937521474114 94.9271099476489 0,0 373.21 231.16 " stroke="rgb(0, 0, 0)" stroke-width="0.6" fill-rule="evenodd" stroke-linejoin="bevel" fill="none" shape-rendering="geometricPrecision" /><path d="M375.24 204.85 A0.907651213097128,0.907651213097128 165.017294326379 0,0 374.1 204.12 A0.907651213097128,0.907651213097128 165.017294326379 0,0 373.49 205.32 A0.907651213097128,0.907651213097128 165.017294326379 0,1 372.87 206.52 A0.907651213097128,0.907651213097128 165.017294326379 0,1 371.73 205.79 A0.907651213097128,0.907651213097128 165.017294326379 0,0 370.6 205.06 A0.907651213097128,0.907651213097128 165.017294326379 0,0 369.98 206.26 A0.907651213097128,0.907651213097128 165.017294326379 0,1 369.36 207.46 A0.907651213097128,0.907651213097128 165.017294326379 0,1 368.23 206.73 A0.907651213097128,0.907651213097128 165.017294326379 0,0 367.09 206 A0.907651213097128,0.907651213097128 165.017294326379 0,0 366.47 207.2 " stroke="rgb(0, 0, 0)" stroke-width="0.6" fill-rule="evenodd" stroke-linejoin="bevel" fill="none" shape-rendering="geometricPrecision" /><g><text xml:space="preserve" text-anchor="start" text-rendering="geometricPrecision"><tspan x="357.74" y="212.47" font-family="Arial" font-size="10" fill="rgb(0, 0, 0)">H</tspan></text></g><g><text xml:space="preserve" text-anchor="start" text-rendering="geometricPrecision"><tspan x="398.02" y="197.82" font-family="Arial" font-size="10" fill="rgb(0, 0, 0)">H</tspan></text></g><path d="M387.72 197.65 A0.908888218939365,0.908888218939365 -15.0211855625773 0,0 388.86 198.38 A0.908888218939365,0.908888218939365 -15.0211855625773 0,0 389.48 197.18 A0.908888218939365,0.908888218939365 -15.0211855625773 0,1 390.09 195.98 A0.908888218939365,0.908888218939365 -15.0211855625773 0,1 391.23 196.71 A0.908888218939365,0.908888218939365 -15.0211855625773 0,0 392.37 197.44 A0.908888218939365,0.908888218939365 -15.0211855625773 0,0 392.99 196.24 A0.908888218939365,0.908888218939365 -15.0211855625773 0,1 393.61 195.04 A0.908888218939365,0.908888218939365 -15.0211855625773 0,1 394.74 195.77 A0.908888218939365,0.908888218939365 -15.0211855625773 0,0 395.88 196.5 A0.908888218939365,0.908888218939365 -15.0211855625773 0,0 396.5 195.29 " stroke="rgb(0, 0, 0)" stroke-width="0.6" fill-rule="evenodd" stroke-linejoin="bevel" fill="none" shape-rendering="geometricPrecision" /><g id="Solid"><path d="M172.47 194.85 L172.47 194.85 L172.47 194.5 L172.47 194.15 L184.94 186.95 L184.94 187.3 L184.94 187.65 Z" stroke="rgb(0, 0, 0)" stroke-width="0" fill-rule="evenodd" stroke-linejoin="miter" fill="rgb(0, 0, 0)" shape-rendering="geometricPrecision" /><line x1="172.47" y1="191.51" x2="183.64" y2="185.06" stroke="rgb(0, 0, 0)" stroke-width="0.6" shape-rendering="auto" /></g><g id="Solid"><path d="M184.94 187.65 L184.94 187.65 L184.94 187.3 L184.94 186.95 L197.71 194.33 L197.41 194.5 L197.11 194.67 Z" stroke="rgb(0, 0, 0)" stroke-width="0" fill-rule="evenodd" stroke-linejoin="miter" fill="rgb(0, 0, 0)" shape-rendering="geometricPrecision" /></g><g><text xml:space="preserve" text-anchor="start" text-rendering="geometricPrecision"><tspan x="168.87" y="241.6" font-family="Arial" font-size="10" fill="rgb(0, 0, 0)">CO</tspan><tspan font-family="Arial" dy="2.26" font-size="7.5" fill="rgb(0, 0, 0)">2</tspan><tspan font-family="Arial" dy="-2.26" font-size="10" fill="rgb(0, 0, 0)">Me</tspan></text></g><g id="Solid"><path d="M159.99 230.85 L159.99 230.85 L159.99 230.5 L160.29 230.33 L168.46 235.04 L168.31 235.3 L168.16 235.56 Z" stroke="rgb(0, 0, 0)" stroke-width="0" fill-rule="evenodd" stroke-linejoin="miter" fill="rgb(0, 0, 0)" shape-rendering="geometricPrecision" /></g><g id="Solid"><path d="M197.11 194.67 L197.11 194.67 L197.41 194.5 L197.71 194.33 L197.71 208.73 L197.41 208.9 L197.11 209.07 Z" stroke="rgb(0, 0, 0)" stroke-width="0" fill-rule="evenodd" stroke-linejoin="miter" fill="rgb(0, 0, 0)" shape-rendering="geometricPrecision" /><line x1="194.82" y1="196" x2="194.82" y2="208.9" stroke="rgb(0, 0, 0)" stroke-width="0.6" shape-rendering="auto" /></g><g id="Solid"><path d="M197.11 209.07 L197.11 209.07 L197.41 208.9 L197.71 208.73 L210.03 215.84 L209.88 216.1 L209.73 216.36 Z" stroke="rgb(0, 0, 0)" stroke-width="0" fill-rule="evenodd" stroke-linejoin="miter" fill="rgb(0, 0, 0)" shape-rendering="geometricPrecision" /></g><g id="Arrow"><path d="M191.88 207.6 C179.78 205.03 166.57 212.35 162.34 223.98 " stroke="rgb(255, 0, 0)" stroke-width="0.6" fill-rule="evenodd" stroke-linejoin="bevel" fill="none" shape-rendering="geometricPrecision" /><path d="M195.34 208.59 L191.03 206.16 C191.85 207.09 191.57 208.1 190.4 208.48 Z" stroke="rgb(255, 0, 0)" stroke-width="0" fill-rule="evenodd" stroke-linejoin="miter" stroke-miterlimit="6.93140174224066" fill="rgb(255, 0, 0)" shape-rendering="geometricPrecision" /></g><g id="Arrow"><path d="M191.27 195.52 C191.89 197.95 193.88 199.97 196.31 200.62 " stroke="rgb(255, 0, 0)" stroke-width="0.6" fill-rule="evenodd" stroke-linejoin="bevel" fill="none" shape-rendering="geometricPrecision" /><path d="M191.29 191.92 L190.24 196.12 C190.89 195.21 191.69 195.21 192.34 196.12 Z" stroke="rgb(255, 0, 0)" stroke-width="0" fill-rule="evenodd" stroke-linejoin="miter" stroke-miterlimit="5.66106310698193" fill="rgb(255, 0, 0)" shape-rendering="geometricPrecision" /></g><g id="Arrow"><path d="M175.13 187.49 C165.38 187.49 157.47 195.41 157.46 205.16 C157.46 207.04 157.77 208.92 158.36 210.7 " stroke="rgb(255, 0, 0)" stroke-width="0.6" fill-rule="evenodd" stroke-linejoin="bevel" fill="none" shape-rendering="geometricPrecision" /><path d="M159.83 213.99 L159.05 209.1 C158.83 210.32 157.87 210.74 156.84 210.05 Z" stroke="rgb(255, 0, 0)" stroke-width="0" fill-rule="evenodd" stroke-linejoin="miter" stroke-miterlimit="6.93525005514874" fill="rgb(255, 0, 0)" shape-rendering="geometricPrecision" /></g></g></g></svg>