<?xml version="1.0"?><svg xmlns="http://www.w3.org/2000/svg" xmlns:xlink="http://www.w3.org/1999/xlink" viewBox="144.4 146.4 115.33 107.6" preserveAspectRatio="xMidYMid" width="100%" height="100%"><clipPath id="4124"><rect x="0.3" y="0.3" width="522.72" height="769.32" /></clipPath><g id="drawing"><rect x="144.4" y="146.4" width="100%" height="100%" fill="rgb(255, 255, 255)" /><g id="page" clip-path="url(#4124)"><g id="Solid"><path d="M191.03 166.88 L191.03 166.88 L190.97 166.58 L190.92 166.29 L206.38 163.43 L205.79 163.84 L205.2 164.25 Z" stroke="rgb(0, 0, 0)" stroke-width="0" fill-rule="evenodd" stroke-linejoin="miter" fill="rgb(0, 0, 0)" shape-rendering="geometricPrecision" /></g><g id="Solid"><g id="Bond's parts"><path d="M185.65 173.15 L185.65 173.15 L186.25 173.15 L186.25 175.75 Z" stroke="rgb(0, 0, 0)" stroke-width="0" fill-rule="evenodd" stroke-linejoin="miter" fill="rgb(0, 0, 0)" shape-rendering="geometricPrecision" /><path d="M185.55 182.05 L185.55 182.05 L186.15 182.05 L186.1 194.95 L186 197.85 L185.98 197.8 L185.45 197.75 Z" stroke="rgb(0, 0, 0)" stroke-width="0" fill-rule="evenodd" stroke-linejoin="miter" fill="rgb(0, 0, 0)" shape-rendering="geometricPrecision" /><path d="M185.45 201.55 L185.45 201.55 L185.75 201.6 L186.05 201.65 L186 208.85 L185.9 215.75 L185.85 215.8 L185.8 215.85 L185.7 215.25 L185.6 214.45 L185.5 213.75 L185.4 213.05 Z" stroke="rgb(0, 0, 0)" stroke-width="0" fill-rule="evenodd" stroke-linejoin="miter" fill="rgb(0, 0, 0)" shape-rendering="geometricPrecision" /></g></g><g><text xml:space="preserve" text-anchor="start" text-rendering="geometricPrecision"><tspan x="182.1" y="171.4" font-family="Arial" font-size="10" fill="rgb(0, 0, 0)">O</tspan></text></g><g id="Solid"><g id="Bond's parts"><path d="M185.82 215.8 L185.82 215.8 L186.05 215.8 L186.27 215.9 L186.32 216 L186.55 216.1 L186.75 216.2 L186.95 216.3 L187.15 216.4 L187.35 216.5 L187.55 216.6 L187.75 216.7 L187.95 216.8 L188.15 216.9 L188.35 217 L188.55 217.1 L188.75 217.2 L188.95 217.3 L189.15 217.4 L189.35 217.5 L189.55 217.6 L189.77 217.7 L189.82 217.8 L190.05 217.9 L190.25 218 L190.45 218.1 L190.65 218.2 L190.85 218.3 L191.05 218.4 L191.25 218.5 L191.45 218.6 L191.65 218.7 L191.85 218.8 L192.05 218.9 L192.25 219 L192.45 219.1 L192.65 219.2 L192.85 219.3 L193.05 219.4 L193.27 219.5 L193.32 219.6 L193.55 219.7 L193.75 219.8 L193.95 219.9 L194.15 220 L194.35 220.1 L194.55 220.2 L194.75 220.3 L194.95 220.4 L195.15 220.5 L195.35 220.6 L195.55 220.7 L195.75 220.8 L195.95 220.9 L196.15 221 L196.35 221.1 L196.55 221.2 L196.77 221.3 L196.82 221.4 L197.05 221.5 L197.25 221.6 L197.45 221.7 L197.65 221.8 L197.85 221.9 L198.05 222 L198.25 222.1 L198.45 222.2 L198.65 222.3 L198.85 222.4 L199.05 222.5 L199.25 222.6 L199.45 222.7 L199.65 222.8 L199.85 222.9 L200.05 223 L200.27 223.1 L200.32 223.2 L200.55 223.3 L200.77 223.4 L200.8 223.45 L200.9 223.65 L200.95 223.7 L201 223.75 L201.05 223.95 L200.45 223.9 L200.25 223.8 L200.05 223.7 L199.85 223.6 L199.65 223.5 L199.45 223.4 L199.25 223.3 L199.05 223.2 L198.85 223.1 L198.65 223 L198.43 222.9 L198.38 222.8 L198.15 222.7 L197.95 222.6 L197.75 222.5 L197.55 222.4 L197.35 222.3 L197.15 222.2 L196.95 222.1 L196.75 222 L196.55 221.9 L196.35 221.8 L196.15 221.7 L195.95 221.6 L195.75 221.5 L195.55 221.4 L195.35 221.3 L195.15 221.2 L194.93 221.1 L194.88 221 L194.65 220.9 L194.45 220.8 L194.25 220.7 L194.05 220.6 L193.85 220.5 L193.65 220.4 L193.45 220.3 L193.25 220.2 L193.05 220.1 L192.85 220 L192.65 219.9 L192.45 219.8 L192.25 219.7 L192.05 219.6 L191.85 219.5 L191.62 219.4 L191.57 219.3 L191.35 219.2 L191.15 219.1 L190.95 219 L190.75 218.9 L190.55 218.8 L190.35 218.7 L190.15 218.6 L189.95 218.5 L189.75 218.4 L189.55 218.3 L189.35 218.2 L189.15 218.1 L188.95 218 L188.75 217.9 L188.55 217.8 L188.32 217.7 L188.27 217.6 L188.05 217.5 L187.85 217.4 L187.65 217.3 L187.45 217.2 L187.25 217.1 L187.05 217 L186.85 216.9 L186.65 216.8 L186.45 216.7 L186.25 216.6 L186.05 216.5 L185.85 216.4 L185.65 216.35 L185.7 215.95 L185.75 215.9 Z" stroke="rgb(0, 0, 0)" stroke-width="0" fill-rule="evenodd" stroke-linejoin="miter" fill="rgb(0, 0, 0)" shape-rendering="geometricPrecision" /></g></g><g id="Solid"><g id="Bond's parts"><path d="M182.38 216.6 L182.38 216.6 L182.4 216.55 L182.45 217.25 L182.15 217.3 L181.85 217.4 L181.45 217.5 L181.15 217.6 L180.75 217.7 L180.45 217.8 L180.15 217.9 L179.75 218 L179.45 218.1 L179.15 218.2 L178.75 218.3 L178.45 218.4 L178.05 218.5 L177.75 218.6 L177.45 218.7 L177.05 218.8 L176.75 218.9 L176.45 219 L176.05 219.1 L175.75 219.2 L175.35 219.3 L175.05 219.4 L174.75 219.5 L174.35 219.6 L174.05 219.7 L173.75 219.8 L173.35 219.9 L173.05 220 L172.65 220.1 L172.35 220.2 L172.05 220.3 L171.65 220.4 L171.35 220.5 L171.05 220.6 L170.65 220.7 L170.35 220.8 L169.95 220.9 L169.65 221 L169.35 221.1 L168.95 221.2 L168.65 221.3 L168.35 221.4 L168.12 221.4 L168.05 221.3 L168 221.25 L167.9 221.05 L167.85 220.85 L168.25 220.8 L168.55 220.7 L168.95 220.6 L169.25 220.5 L169.55 220.4 L169.95 220.3 L170.25 220.2 L170.55 220.1 L170.95 220 L171.25 219.9 L171.55 219.8 L171.95 219.7 L172.25 219.6 L172.65 219.5 L172.95 219.4 L173.25 219.3 L173.65 219.2 L173.95 219.1 L174.25 219 L174.65 218.9 L174.95 218.8 L175.35 218.7 L175.65 218.6 L175.95 218.5 L176.35 218.4 L176.65 218.3 L176.95 218.2 L177.35 218.1 L177.65 218 L178.05 217.9 L178.35 217.8 L178.65 217.7 L179.05 217.6 L179.35 217.5 L179.65 217.4 L180.05 217.3 L180.35 217.2 L180.75 217.1 L181.05 217 L181.35 216.9 L181.75 216.8 L182.05 216.7 Z" stroke="rgb(0, 0, 0)" stroke-width="0" fill-rule="evenodd" stroke-linejoin="miter" fill="rgb(0, 0, 0)" shape-rendering="geometricPrecision" /></g></g><g id="Solid"><path d="M167.82 220.92 L167.82 220.92 L167.99 221.18 L168.16 221.44 L156.04 235.02 L155.56 235.11 L155.08 235.2 Z" stroke="rgb(0, 0, 0)" stroke-width="0" fill-rule="evenodd" stroke-linejoin="miter" fill="rgb(0, 0, 0)" shape-rendering="geometricPrecision" /></g><g id="Solid"><path d="M155.08 235.2 L155.08 235.2 L155.56 235.11 L156.04 235.02 L169.58 242 L169.53 242.31 L169.48 242.62 Z" stroke="rgb(0, 0, 0)" stroke-width="0" fill-rule="evenodd" stroke-linejoin="miter" fill="rgb(0, 0, 0)" shape-rendering="geometricPrecision" /></g><g id="Solid"><path d="M169.48 242.62 L169.48 242.62 L169.53 242.31 L169.58 242 L186.85 239.09 L187.19 239.34 L187.13 239.65 Z" stroke="rgb(0, 0, 0)" stroke-width="0" fill-rule="evenodd" stroke-linejoin="miter" fill="rgb(0, 0, 0)" shape-rendering="geometricPrecision" /></g><g id="Solid"><path d="M187.65 239.27 L187.65 239.27 L187.19 239.34 L187.4 238.66 L200.6 223.98 L201.08 223.89 L201.39 224 Z" stroke="rgb(0, 0, 0)" stroke-width="0" fill-rule="evenodd" stroke-linejoin="miter" fill="rgb(0, 0, 0)" shape-rendering="geometricPrecision" /><line x1="189.78" y1="230.86" x2="195.06" y2="225" stroke="rgb(0, 0, 0)" stroke-width="0.6" shape-rendering="auto" /></g><g><text xml:space="preserve" text-anchor="start" text-rendering="geometricPrecision"><tspan x="197.06" y="251.65" font-family="Arial" font-size="10" fill="rgb(0, 0, 0)">CO</tspan><tspan font-family="Arial" dy="2.26" font-size="7.5" fill="rgb(0, 0, 0)">2</tspan><tspan font-family="Arial" dy="-2.26" font-size="10" fill="rgb(0, 0, 0)">Me</tspan></text></g><g><text xml:space="preserve" text-anchor="end" text-rendering="geometricPrecision"><tspan x="179.69" y="214.84" font-family="Arial" font-size="10" fill="rgb(0, 0, 0)">Me</tspan></text></g><g id="Solid"><path d="M181.22 199.38 L181.22 199.38 L181.6 199.25 L181.46 200.41 L179.08 206.33 L178.81 206.22 L178.53 206.1 Z" stroke="rgb(0, 0, 0)" stroke-width="0" fill-rule="evenodd" stroke-linejoin="miter" fill="rgb(0, 0, 0)" shape-rendering="geometricPrecision" /></g><g id="Solid"><path d="M187.13 239.65 L187.13 239.65 L187.19 239.34 L187.65 239.27 L196.7 244.92 L196.54 245.18 L196.38 245.43 Z" stroke="rgb(0, 0, 0)" stroke-width="0" fill-rule="evenodd" stroke-linejoin="miter" fill="rgb(0, 0, 0)" shape-rendering="geometricPrecision" /></g><g id="Dash"><g id="Bond's parts"><path d="M198.45 176.2 L198.45 176.2 L198.55 176.2 L198.6 176.25 L198.7 176.45 L198.8 176.65 L198.9 177.45 L198.95 179.25 L198.35 179.25 L198.3 177.35 L198.3 176.35 L198.35 176.3 Z" stroke="rgb(0, 0, 0)" stroke-width="0" fill-rule="evenodd" stroke-linejoin="miter" fill="rgb(0, 0, 0)" shape-rendering="geometricPrecision" /><path d="M198.55 182.25 L198.55 182.25 L199.15 182.25 L199.2 183.05 L199.25 184.75 L198.65 184.75 Z" stroke="rgb(0, 0, 0)" stroke-width="0" fill-rule="evenodd" stroke-linejoin="miter" fill="rgb(0, 0, 0)" shape-rendering="geometricPrecision" /><path d="M198.85 187.75 L198.85 187.75 L199.45 187.75 L199.5 188.65 L199.55 190.25 L198.95 190.25 Z" stroke="rgb(0, 0, 0)" stroke-width="0" fill-rule="evenodd" stroke-linejoin="miter" fill="rgb(0, 0, 0)" shape-rendering="geometricPrecision" /><path d="M199.35 193.3 L199.35 193.3 L199.75 193.25 L199.8 194.25 L199.85 195.75 L199.55 195.8 L199.25 195.85 L199.2 194.25 L199.15 193.35 Z" stroke="rgb(0, 0, 0)" stroke-width="0" fill-rule="evenodd" stroke-linejoin="miter" fill="rgb(0, 0, 0)" shape-rendering="geometricPrecision" /><path d="M199.45 198.85 L199.45 198.85 L200.05 198.85 L200.05 199.25 Z" stroke="rgb(0, 0, 0)" stroke-width="0" fill-rule="evenodd" stroke-linejoin="miter" fill="rgb(0, 0, 0)" shape-rendering="geometricPrecision" /><path d="M199.75 204.35 L199.75 204.35 L200.35 204.35 L200.4 205.55 L200.45 206.85 L199.85 206.85 Z" stroke="rgb(0, 0, 0)" stroke-width="0" fill-rule="evenodd" stroke-linejoin="miter" fill="rgb(0, 0, 0)" shape-rendering="geometricPrecision" /><path d="M200.05 209.85 L200.05 209.85 L200.65 209.85 L200.7 211.15 L200.75 212.35 L200.15 212.35 Z" stroke="rgb(0, 0, 0)" stroke-width="0" fill-rule="evenodd" stroke-linejoin="miter" fill="rgb(0, 0, 0)" shape-rendering="geometricPrecision" /><path d="M200.35 215.35 L200.35 215.35 L200.95 215.35 L201 216.75 L201.05 217.85 L200.45 217.85 Z" stroke="rgb(0, 0, 0)" stroke-width="0" fill-rule="evenodd" stroke-linejoin="miter" fill="rgb(0, 0, 0)" shape-rendering="geometricPrecision" /><path d="M200.65 220.85 L200.65 220.85 L201.25 220.85 L201.3 222.35 L201.35 223.95 L201.12 223.9 L201.05 223.8 L200.95 223.7 L200.9 223.65 L200.8 223.45 Z" stroke="rgb(0, 0, 0)" stroke-width="0" fill-rule="evenodd" stroke-linejoin="miter" fill="rgb(0, 0, 0)" shape-rendering="geometricPrecision" /></g></g><g id="Solid"><path d="M205.2 164.25 L205.2 164.25 L205.79 163.84 L206.38 163.43 L198.92 176.03 L198.53 176.11 L198.35 175.83 Z" stroke="rgb(0, 0, 0)" stroke-width="0" fill-rule="evenodd" stroke-linejoin="miter" fill="rgb(0, 0, 0)" shape-rendering="geometricPrecision" /></g><g><text xml:space="preserve" text-anchor="start" text-rendering="geometricPrecision"><tspan x="213.87" y="158.36" font-family="Arial" font-size="10" fill="rgb(0, 0, 0)">O</tspan></text></g><g id="Solid"><line x1="204.95" y1="162.76" x2="212.3" y2="157.01" stroke="rgb(0, 0, 0)" stroke-width="0.6" shape-rendering="auto" /><path d="M204.94 165.86 L204.94 165.86 L204.1 167.28 L214.17 159.4 L213.8 158.93 Z" stroke="rgb(0, 0, 0)" stroke-width="0" fill-rule="evenodd" stroke-linejoin="miter" fill="rgb(0, 0, 0)" shape-rendering="geometricPrecision" /><path d="M202.75 164.1 L202.75 164.1 L204.03 163.86 L212.48 157.24 L212.11 156.77 Z" stroke="rgb(0, 0, 0)" stroke-width="0" fill-rule="evenodd" stroke-linejoin="miter" fill="rgb(0, 0, 0)" shape-rendering="geometricPrecision" /></g><g id="Solid"><path d="M198.35 175.83 L198.35 175.83 L198.53 176.11 L198.25 176.44 L181.7 178.1 L181.56 177.81 L181.42 177.52 Z" stroke="rgb(0, 0, 0)" stroke-width="0" fill-rule="evenodd" stroke-linejoin="miter" fill="rgb(0, 0, 0)" shape-rendering="geometricPrecision" /><line x1="195.64" y1="179.49" x2="182.94" y2="180.76" stroke="rgb(0, 0, 0)" stroke-width="0.6" shape-rendering="auto" /></g><g id="Solid"><path d="M181.69 198.96 L181.69 198.96 L181.6 199.25 L181.22 199.38 L167.13 191.62 L167.63 191.55 L168.13 191.48 Z" stroke="rgb(0, 0, 0)" stroke-width="0" fill-rule="evenodd" stroke-linejoin="miter" fill="rgb(0, 0, 0)" shape-rendering="geometricPrecision" /><line x1="182.48" y1="196.45" x2="172.39" y2="190.89" stroke="rgb(0, 0, 0)" stroke-width="0.6" shape-rendering="auto" /></g><g id="Charge4075"><line x1="256.25" y1="147.7" x2="256.25" y2="159.1" stroke="rgb(0, 0, 0)" stroke-width="0.48" shape-rendering="auto" /><line x1="253.25" y1="150.7" x2="259.25" y2="150.7" stroke="rgb(0, 0, 0)" stroke-width="0.48" shape-rendering="auto" /><line x1="253.25" y1="156.1" x2="259.25" y2="156.1" stroke="rgb(0, 0, 0)" stroke-width="0.48" shape-rendering="auto" /></g><g id="Solid"><path d="M168.13 191.48 L168.13 191.48 L167.63 191.55 L167.13 191.62 L181.42 177.52 L181.56 177.81 L181.7 178.1 Z" stroke="rgb(0, 0, 0)" stroke-width="0" fill-rule="evenodd" stroke-linejoin="miter" fill="rgb(0, 0, 0)" shape-rendering="geometricPrecision" /></g><g id="Solid"><path d="M198.86 176.74 L198.86 176.74 L198.53 176.11 L198.92 176.03 L210.1 184.49 L209.92 184.73 L209.74 184.97 Z" stroke="rgb(0, 0, 0)" stroke-width="0" fill-rule="evenodd" stroke-linejoin="miter" fill="rgb(0, 0, 0)" shape-rendering="geometricPrecision" /></g><g><text xml:space="preserve" text-anchor="start" text-rendering="geometricPrecision"><tspan x="210.4" y="191.71" font-family="Arial" font-size="10" fill="rgb(0, 0, 0)">H</tspan></text></g><g id="Solid"><path d="M181.95 199.59 L181.95 199.59 L181.6 199.25 L181.69 198.96 L201.14 200.99 L201.11 201.29 L201.08 201.59 Z" stroke="rgb(0, 0, 0)" stroke-width="0" fill-rule="evenodd" stroke-linejoin="miter" fill="rgb(0, 0, 0)" shape-rendering="geometricPrecision" /></g><g><text xml:space="preserve" text-anchor="start" text-rendering="geometricPrecision"><tspan x="201.9" y="205.65" font-family="Arial" font-size="10" fill="rgb(0, 0, 0)">H</tspan></text></g><g id="Dash"><path d="M187.05 236.18 L187.05 236.18 L186.46 236.27 L186.85 239.09 L187.19 239.34 L187.4 238.66 Z" stroke="rgb(0, 0, 0)" stroke-width="0" fill-rule="evenodd" stroke-linejoin="miter" fill="rgb(0, 0, 0)" shape-rendering="geometricPrecision" /><path d="M182.4 202.8 L182.4 202.8 L181.8 202.88 L181.46 200.41 L181.6 199.25 L181.95 199.59 Z" stroke="rgb(0, 0, 0)" stroke-width="0" fill-rule="evenodd" stroke-linejoin="miter" fill="rgb(0, 0, 0)" shape-rendering="geometricPrecision" /><path d="M186.56 232.68 L186.56 232.68 L186.22 230.21 L185.63 230.29 L185.97 232.77 Z" stroke="rgb(0, 0, 0)" stroke-width="0" fill-rule="evenodd" stroke-linejoin="miter" fill="rgb(0, 0, 0)" shape-rendering="geometricPrecision" /><path d="M185.73 226.71 L185.73 226.71 L185.39 224.23 L184.79 224.31 L185.14 226.79 Z" stroke="rgb(0, 0, 0)" stroke-width="0" fill-rule="evenodd" stroke-linejoin="miter" fill="rgb(0, 0, 0)" shape-rendering="geometricPrecision" /><path d="M184.9 220.73 L184.9 220.73 L184.55 218.25 L183.96 218.34 L184.3 220.81 Z" stroke="rgb(0, 0, 0)" stroke-width="0" fill-rule="evenodd" stroke-linejoin="miter" fill="rgb(0, 0, 0)" shape-rendering="geometricPrecision" /><path d="M184.06 214.75 L184.06 214.75 L183.72 212.28 L183.13 212.36 L183.47 214.84 Z" stroke="rgb(0, 0, 0)" stroke-width="0" fill-rule="evenodd" stroke-linejoin="miter" fill="rgb(0, 0, 0)" shape-rendering="geometricPrecision" /><path d="M183.23 208.78 L183.23 208.78 L182.89 206.3 L182.29 206.38 L182.64 208.86 Z" stroke="rgb(0, 0, 0)" stroke-width="0" fill-rule="evenodd" stroke-linejoin="miter" fill="rgb(0, 0, 0)" shape-rendering="geometricPrecision" /></g><g id="Bracket"><path d="M241.61 147 L249 147 L249 252.5 L241.61 252.5 " stroke="rgb(0, 0, 0)" stroke-width="0.6" fill-rule="evenodd" stroke-linejoin="miter" fill="none" shape-rendering="geometricPrecision" /></g><g id="Bracket"><path d="M152.39 252.5 L145 252.5 L145 147 L152.39 147 " stroke="rgb(0, 0, 0)" stroke-width="0.6" fill-rule="evenodd" stroke-linejoin="miter" fill="none" shape-rendering="geometricPrecision" /></g></g></g></svg>