<?xml version="1.0"?><svg xmlns="http://www.w3.org/2000/svg" xmlns:xlink="http://www.w3.org/1999/xlink" viewBox="59.24 286.37 61.01 74.96" preserveAspectRatio="xMidYMid" width="100%" height="100%"><clipPath id="10042"><rect x="0.3" y="0.3" width="522.72" height="769.32" /></clipPath><g id="drawing"><rect x="59.24" y="286.37" width="100%" height="100%" fill="rgb(255, 255, 255)" /><g id="page" clip-path="url(#10042)"><g id="Solid"><path d="M65 323.26 L65 323.26 L65.3 323.43 L65.6 323.6 L65.6 337.66 L65.3 337.83 L65 338 Z" stroke="rgb(0, 0, 0)" stroke-width="0" fill-rule="evenodd" stroke-linejoin="miter" fill="rgb(0, 0, 0)" shape-rendering="geometricPrecision" /></g><g id="Solid"><path d="M65 338 L65 338 L65.3 337.83 L65.6 337.66 L77.77 344.68 L77.77 345.03 L77.77 345.38 Z" stroke="rgb(0, 0, 0)" stroke-width="0" fill-rule="evenodd" stroke-linejoin="miter" fill="rgb(0, 0, 0)" shape-rendering="geometricPrecision" /></g><g id="Solid"><path d="M77.77 345.38 L77.77 345.38 L77.77 345.03 L77.77 344.68 L89.94 337.66 L90.24 337.83 L89.85 338.4 Z" stroke="rgb(0, 0, 0)" stroke-width="0" fill-rule="evenodd" stroke-linejoin="miter" fill="rgb(0, 0, 0)" shape-rendering="geometricPrecision" /></g><g id="Solid"><path d="M90.54 337.66 L90.54 337.66 L90.24 337.83 L89.94 337.66 L89.94 323.86 L90.24 323.43 L90.54 323.6 Z" stroke="rgb(0, 0, 0)" stroke-width="0" fill-rule="evenodd" stroke-linejoin="miter" fill="rgb(0, 0, 0)" shape-rendering="geometricPrecision" /></g><g id="Solid"><path d="M90.24 323.08 L90.24 323.08 L90.24 323.43 L89.38 323.28 L77.77 316.58 L77.77 316.23 L77.77 315.88 Z" stroke="rgb(0, 0, 0)" stroke-width="0" fill-rule="evenodd" stroke-linejoin="miter" fill="rgb(0, 0, 0)" shape-rendering="geometricPrecision" /></g><g id="Solid"><path d="M77.77 315.88 L77.77 315.88 L77.77 316.23 L77.77 316.58 L65.6 323.6 L65.3 323.43 L65 323.26 Z" stroke="rgb(0, 0, 0)" stroke-width="0" fill-rule="evenodd" stroke-linejoin="miter" fill="rgb(0, 0, 0)" shape-rendering="geometricPrecision" /></g><g id="Solid"><path d="M90.53 338.34 L90.53 338.34 L90.24 337.83 L90.54 337.66 L102.72 344.68 L102.72 345.03 L102.41 345.2 Z" stroke="rgb(0, 0, 0)" stroke-width="0" fill-rule="evenodd" stroke-linejoin="miter" fill="rgb(0, 0, 0)" shape-rendering="geometricPrecision" /></g><g id="Solid"><path d="M103.03 345.2 L103.03 345.2 L102.72 345.03 L102.72 344.68 L114.89 337.66 L115.19 337.83 L115.49 338 Z" stroke="rgb(0, 0, 0)" stroke-width="0" fill-rule="evenodd" stroke-linejoin="miter" fill="rgb(0, 0, 0)" shape-rendering="geometricPrecision" /></g><g id="Solid"><path d="M115.49 338 L115.49 338 L115.19 337.83 L114.89 337.66 L114.89 323.6 L115.19 323.43 L115.49 323.26 Z" stroke="rgb(0, 0, 0)" stroke-width="0" fill-rule="evenodd" stroke-linejoin="miter" fill="rgb(0, 0, 0)" shape-rendering="geometricPrecision" /><line x1="112.6" y1="336.33" x2="112.6" y2="324.93" stroke="rgb(0, 0, 0)" stroke-width="0.6" shape-rendering="auto" /></g><g id="Solid"><path d="M115.49 323.26 L115.49 323.26 L115.19 323.43 L114.89 323.6 L102.72 316.58 L102.72 316.23 L103 316.04 Z" stroke="rgb(0, 0, 0)" stroke-width="0" fill-rule="evenodd" stroke-linejoin="miter" fill="rgb(0, 0, 0)" shape-rendering="geometricPrecision" /></g><g id="Solid"><path d="M102.4 316.07 L102.4 316.07 L102.72 316.23 L102.72 316.58 L90.54 323.6 L90.24 323.43 L90.24 323.08 Z" stroke="rgb(0, 0, 0)" stroke-width="0" fill-rule="evenodd" stroke-linejoin="miter" fill="rgb(0, 0, 0)" shape-rendering="geometricPrecision" /></g><g><text xml:space="preserve" text-anchor="start" text-rendering="geometricPrecision"><tspan x="76.02" y="305.89" font-family="Arial" font-size="10" fill="rgb(0, 0, 0)">O</tspan></text></g><g id="Wedged Hash Begin Bond"><path d="M78.07 316.27 L78.07 316.27 L77.47 316.19 L77.48 315.58 L78.24 315.69 Z" stroke="rgb(0, 0, 0)" stroke-width="0" fill-rule="evenodd" stroke-linejoin="miter" fill="rgb(0, 0, 0)" shape-rendering="geometricPrecision" /><path d="M78.84 313.68 L78.84 313.68 L77.51 313.48 L77.51 312.87 L79.01 313.1 Z" stroke="rgb(0, 0, 0)" stroke-width="0" fill-rule="evenodd" stroke-linejoin="miter" fill="rgb(0, 0, 0)" shape-rendering="geometricPrecision" /><path d="M79.6 311.08 L79.6 311.08 L77.54 310.77 L77.55 310.17 L79.78 310.5 Z" stroke="rgb(0, 0, 0)" stroke-width="0" fill-rule="evenodd" stroke-linejoin="miter" fill="rgb(0, 0, 0)" shape-rendering="geometricPrecision" /><path d="M80.37 308.49 L80.37 308.49 L77.57 308.06 L77.58 307.46 L80.54 307.91 Z" stroke="rgb(0, 0, 0)" stroke-width="0" fill-rule="evenodd" stroke-linejoin="miter" fill="rgb(0, 0, 0)" shape-rendering="geometricPrecision" /></g><g id="Solid"><path d="M103 316.04 L103 316.04 L102.72 316.23 L102.4 316.07 L100.48 302.12 L100.74 301.82 L101 301.52 Z" stroke="rgb(0, 0, 0)" stroke-width="0" fill-rule="evenodd" stroke-linejoin="miter" fill="rgb(0, 0, 0)" shape-rendering="geometricPrecision" /></g><g id="Solid"><path d="M85 302.25 L85 302.25 L85 301.95 L85 301.65 L101 301.52 L100.74 301.82 L100.48 302.12 Z" stroke="rgb(0, 0, 0)" stroke-width="0" fill-rule="evenodd" stroke-linejoin="miter" fill="rgb(0, 0, 0)" shape-rendering="geometricPrecision" /></g><g id="WedgeBegin"><path d="M102.41 345.2 L102.41 345.2 L102.72 345.03 L103.03 345.2 L104.22 359.43 L102.72 359.43 L101.22 359.43 Z" stroke="rgb(0, 0, 0)" stroke-width="0" fill-rule="evenodd" stroke-linejoin="miter" fill="rgb(0, 0, 0)" shape-rendering="geometricPrecision" /></g><g><text xml:space="preserve" text-anchor="start" text-rendering="geometricPrecision"><tspan x="106.26" y="294.83" font-family="Arial" font-size="10" fill="rgb(0, 0, 0)">O</tspan></text></g><g id="Solid"><line x1="99.76" y1="300.97" x2="104.77" y2="295.18" stroke="rgb(0, 0, 0)" stroke-width="0.6" shape-rendering="auto" /><path d="M101.18 302.83 L101.18 302.83 L101.29 303.62 L106.96 297.07 L106.51 296.68 Z" stroke="rgb(0, 0, 0)" stroke-width="0" fill-rule="evenodd" stroke-linejoin="miter" fill="rgb(0, 0, 0)" shape-rendering="geometricPrecision" /><path d="M98.88 301.54 L98.88 301.54 L99.68 301.53 L105 295.37 L104.55 294.98 Z" stroke="rgb(0, 0, 0)" stroke-width="0" fill-rule="evenodd" stroke-linejoin="miter" fill="rgb(0, 0, 0)" shape-rendering="geometricPrecision" /></g><g><text xml:space="preserve" text-anchor="end" text-rendering="geometricPrecision"><tspan x="92.34" y="359.13" font-family="Arial" font-size="10" fill="rgb(0, 0, 0)">MeO</tspan><tspan font-family="Arial" dy="2.26" font-size="7.5" fill="rgb(0, 0, 0)">2</tspan><tspan font-family="Arial" dy="-2.26" font-size="10" fill="rgb(0, 0, 0)">C</tspan></text></g><g id="WedgeBegin"><path d="M89.85 338.4 L89.85 338.4 L90.24 337.83 L90.53 338.34 L90.66 350.43 L89.16 350.31 L87.67 350.18 Z" stroke="rgb(0, 0, 0)" stroke-width="0" fill-rule="evenodd" stroke-linejoin="miter" fill="rgb(0, 0, 0)" shape-rendering="geometricPrecision" /></g><g><text xml:space="preserve" text-anchor="start" text-rendering="geometricPrecision"><tspan x="72.74" y="331.06" font-family="Arial" font-size="10" fill="rgb(0, 0, 0)">H</tspan></text></g><g id="WedgeBegin"><path d="M89.38 323.28 L89.38 323.28 L90.24 323.43 L89.94 323.86 L81.13 327.43 L80.75 325.98 L80.36 324.53 Z" stroke="rgb(0, 0, 0)" stroke-width="0" fill-rule="evenodd" stroke-linejoin="miter" fill="rgb(0, 0, 0)" shape-rendering="geometricPrecision" /></g><g><text xml:space="preserve" text-anchor="start" text-rendering="geometricPrecision"><tspan x="113.02" y="316.4" font-family="Arial" font-size="10" fill="rgb(0, 0, 0)">H</tspan></text></g><g id="Wedged Hash Begin Bond"><path d="M102.8 316.52 L102.8 316.52 L102.64 315.94 L103.2 315.72 L103.4 316.43 Z" stroke="rgb(0, 0, 0)" stroke-width="0" fill-rule="evenodd" stroke-linejoin="miter" fill="rgb(0, 0, 0)" shape-rendering="geometricPrecision" /><path d="M105.91 316.07 L105.91 316.07 L105.56 314.77 L106.12 314.54 L106.51 315.99 Z" stroke="rgb(0, 0, 0)" stroke-width="0" fill-rule="evenodd" stroke-linejoin="miter" fill="rgb(0, 0, 0)" shape-rendering="geometricPrecision" /><path d="M109.03 315.63 L109.03 315.63 L108.48 313.59 L109.04 313.37 L109.63 315.54 Z" stroke="rgb(0, 0, 0)" stroke-width="0" fill-rule="evenodd" stroke-linejoin="miter" fill="rgb(0, 0, 0)" shape-rendering="geometricPrecision" /><path d="M112.15 315.18 L112.15 315.18 L111.41 312.42 L111.97 312.2 L112.74 315.09 Z" stroke="rgb(0, 0, 0)" stroke-width="0" fill-rule="evenodd" stroke-linejoin="miter" fill="rgb(0, 0, 0)" shape-rendering="geometricPrecision" /></g></g></g></svg>