<?xml version="1.0"?><svg xmlns="http://www.w3.org/2000/svg" xmlns:xlink="http://www.w3.org/1999/xlink" viewBox="34.18 164.55 92.13 71.55" preserveAspectRatio="xMidYMid" width="100%" height="100%"><clipPath id="190"><rect x="0.3" y="0.3" width="522.6" height="769.08" /></clipPath><g id="drawing"><rect x="34.18" y="164.55" width="100%" height="100%" fill="rgb(255, 255, 255)" /><g id="page" clip-path="url(#190)"><g id="Solid"><path d="M73.86 171.3 L73.86 171.3 L73.78 171 L73.7 170.7 L92.24 170.7 L91.93 171 L91.62 171.3 Z" stroke="rgb(0, 0, 0)" stroke-width="0" fill-rule="evenodd" stroke-linejoin="miter" fill="rgb(0, 0, 0)" shape-rendering="geometricPrecision" /><line x1="74.66" y1="174.27" x2="88.57" y2="174.27" stroke="rgb(0, 0, 0)" stroke-width="0.6" shape-rendering="auto" /></g><g id="Solid"><path d="M73.7 170.7 L73.7 170.7 L73.78 171 L73.86 171.3 L61.72 178.31 L61.31 178.2 L60.9 178.09 Z" stroke="rgb(0, 0, 0)" stroke-width="0" fill-rule="evenodd" stroke-linejoin="miter" fill="rgb(0, 0, 0)" shape-rendering="geometricPrecision" /></g><g id="Solid"><path d="M60.9 178.09 L60.9 178.09 L61.31 178.2 L61.72 178.31 L68.03 189.04 L67.76 189.17 L67.49 189.3 Z" stroke="rgb(0, 0, 0)" stroke-width="0" fill-rule="evenodd" stroke-linejoin="miter" fill="rgb(0, 0, 0)" shape-rendering="geometricPrecision" /><line x1="64.45" y1="179.03" x2="69.73" y2="188.01" stroke="rgb(0, 0, 0)" stroke-width="0.6" shape-rendering="auto" /></g><g id="Solid"><path d="M78.36 220.8 L78.36 220.8 L78.28 220.5 L78.45 220.06 L89.98 213.4 L90.76 213.3 L91.06 213.48 Z" stroke="rgb(0, 0, 0)" stroke-width="0" fill-rule="evenodd" stroke-linejoin="miter" fill="rgb(0, 0, 0)" shape-rendering="geometricPrecision" /><line x1="79.73" y1="216.67" x2="84.04" y2="214.18" stroke="rgb(0, 0, 0)" stroke-width="0.6" shape-rendering="auto" /></g><g id="Solid"><path d="M77.86 220.2 L77.86 220.2 L78.28 220.5 L78.36 220.8 L63.61 220.8 L63.88 220.5 L64.15 220.2 Z" stroke="rgb(0, 0, 0)" stroke-width="0" fill-rule="evenodd" stroke-linejoin="miter" fill="rgb(0, 0, 0)" shape-rendering="geometricPrecision" /></g><g id="Solid"><g id="Bond's parts"><path d="M76.85 209.25 L76.85 209.25 L77.05 209.3 L77.35 209.4 L77.75 209.5 L78.15 209.6 L78.45 209.7 L78.85 209.8 L79.25 209.9 L79.65 210 L79.95 210.1 L80.35 210.2 L80.75 210.3 L81.15 210.4 L81.45 210.5 L81.85 210.6 L82.25 210.7 L82.55 210.8 L82.95 210.9 L83.35 211 L83.75 211.1 L84.05 211.2 L84.45 211.3 L84.85 211.4 L85.25 211.5 L85.55 211.6 L85.95 211.7 L86.35 211.8 L86.65 211.9 L87.05 212 L87.45 212.1 L87.85 212.2 L88.15 212.3 L88.55 212.4 L88.95 212.5 L89.35 212.6 L89.65 212.7 L90.05 212.8 L90.47 212.9 L90.55 213 L90.6 213.05 L90.7 213.25 L90.72 213.3 L89.65 213.3 L89.25 213.2 L88.85 213.1 L88.45 213 L88.15 212.9 L87.75 212.8 L87.35 212.7 L86.95 212.6 L86.65 212.5 L86.25 212.4 L85.85 212.3 L85.55 212.2 L85.15 212.1 L84.75 212 L84.35 211.9 L84.05 211.8 L83.65 211.7 L83.25 211.6 L82.85 211.5 L82.55 211.4 L82.15 211.3 L81.75 211.2 L81.45 211.1 L81.05 211 L80.65 210.9 L80.25 210.8 L79.95 210.7 L79.55 210.6 L79.15 210.5 L78.75 210.4 L78.45 210.3 L78.05 210.2 L77.65 210.1 L77.25 210 L76.93 209.9 Z" stroke="rgb(0, 0, 0)" stroke-width="0" fill-rule="evenodd" stroke-linejoin="miter" fill="rgb(0, 0, 0)" shape-rendering="geometricPrecision" /></g></g><g><text xml:space="preserve" text-anchor="start" text-rendering="geometricPrecision"><tspan x="59.04" y="215.7" font-family="Arial" font-size="10" fill="rgb(0, 0, 0)">O</tspan></text></g><g id="Solid"><g id="Bond's parts"><path d="M76.62 209.3 L76.62 209.3 L76.85 209.25 L76.85 209.85 L76.65 209.85 L76.6 209.55 L76.6 209.35 Z" stroke="rgb(0, 0, 0)" stroke-width="0" fill-rule="evenodd" stroke-linejoin="miter" fill="rgb(0, 0, 0)" shape-rendering="geometricPrecision" /><path d="M72.25 210 L72.25 210 L72.75 209.95 L72.8 210.15 L72.9 210.45 L72.93 210.5 L72.35 210.6 L71.65 210.7 L71.05 210.8 L70.45 210.9 L69.85 211 L69.15 211.1 L68.55 211.2 L68.03 211.2 L68 211.15 L67.95 210.65 L68.55 210.6 L69.15 210.5 L69.75 210.4 L70.35 210.3 L71.05 210.2 L71.65 210.1 Z" stroke="rgb(0, 0, 0)" stroke-width="0" fill-rule="evenodd" stroke-linejoin="miter" fill="rgb(0, 0, 0)" shape-rendering="geometricPrecision" /></g></g><g id="Solid"><path d="M63.21 217.08 L63.21 217.08 L63.51 217.05 L63.81 217.02 L64.15 220.2 L63.88 220.5 L63.61 220.8 Z" stroke="rgb(0, 0, 0)" stroke-width="0" fill-rule="evenodd" stroke-linejoin="miter" fill="rgb(0, 0, 0)" shape-rendering="geometricPrecision" /></g><g><text xml:space="preserve" text-anchor="start" text-rendering="geometricPrecision"><tspan x="47.49" y="229.23" font-family="Arial" font-size="10" fill="rgb(0, 0, 0)">O</tspan></text></g><g id="Solid"><line x1="64.31" y1="221.62" x2="56.83" y2="224.52" stroke="rgb(0, 0, 0)" stroke-width="0.6" shape-rendering="auto" /><path d="M63.49 219.68 L63.49 219.68 L63.42 219.06 L55.85 221.99 L56.07 222.55 Z" stroke="rgb(0, 0, 0)" stroke-width="0" fill-rule="evenodd" stroke-linejoin="miter" fill="rgb(0, 0, 0)" shape-rendering="geometricPrecision" /><path d="M67.28 220.8 L67.28 220.8 L65.61 220.8 L56.72 224.24 L56.94 224.8 Z" stroke="rgb(0, 0, 0)" stroke-width="0" fill-rule="evenodd" stroke-linejoin="miter" fill="rgb(0, 0, 0)" shape-rendering="geometricPrecision" /></g><g><text xml:space="preserve" text-anchor="start" text-rendering="geometricPrecision"><tspan x="72.95" y="205.82" font-family="Arial" font-size="10" fill="rgb(0, 0, 0)">O</tspan></text></g><g id="Solid"><g id="Bond's parts"><path d="M75.75 206.85 L75.75 206.85 L76.35 206.85 L76.3 208.65 L76.2 208.35 L76.1 208.05 L76 207.75 L75.9 207.45 Z" stroke="rgb(0, 0, 0)" stroke-width="0" fill-rule="evenodd" stroke-linejoin="miter" fill="rgb(0, 0, 0)" shape-rendering="geometricPrecision" /><path d="M77.25 206.85 L77.25 206.85 L77.85 206.85 L77.8 209.55 L77.78 209.5 L77.32 209.4 Z" stroke="rgb(0, 0, 0)" stroke-width="0" fill-rule="evenodd" stroke-linejoin="miter" fill="rgb(0, 0, 0)" shape-rendering="geometricPrecision" /></g></g><g id="Dash"><path d="M68.28 191.67 L68.28 191.67 L68.85 191.47 L68.03 189.04 L67.76 189.17 L67.49 189.3 Z" stroke="rgb(0, 0, 0)" stroke-width="0" fill-rule="evenodd" stroke-linejoin="miter" fill="rgb(0, 0, 0)" shape-rendering="geometricPrecision" /><path d="M77.07 217.83 L77.07 217.83 L77.64 217.64 L78.45 220.06 L78.28 220.5 L77.86 220.2 Z" stroke="rgb(0, 0, 0)" stroke-width="0" fill-rule="evenodd" stroke-linejoin="miter" fill="rgb(0, 0, 0)" shape-rendering="geometricPrecision" /><path d="M69.08 194.05 L69.08 194.05 L69.88 196.42 L70.45 196.23 L69.65 193.86 Z" stroke="rgb(0, 0, 0)" stroke-width="0" fill-rule="evenodd" stroke-linejoin="miter" fill="rgb(0, 0, 0)" shape-rendering="geometricPrecision" /><path d="M70.68 198.81 L70.68 198.81 L71.48 201.18 L72.04 200.99 L71.25 198.62 Z" stroke="rgb(0, 0, 0)" stroke-width="0" fill-rule="evenodd" stroke-linejoin="miter" fill="rgb(0, 0, 0)" shape-rendering="geometricPrecision" /><path d="M72.28 203.56 L72.28 203.56 L73.07 205.93 L73.64 205.74 L72.85 203.37 Z" stroke="rgb(0, 0, 0)" stroke-width="0" fill-rule="evenodd" stroke-linejoin="miter" fill="rgb(0, 0, 0)" shape-rendering="geometricPrecision" /><path d="M73.87 208.32 L73.87 208.32 L74.67 210.69 L75.24 210.5 L74.44 208.13 Z" stroke="rgb(0, 0, 0)" stroke-width="0" fill-rule="evenodd" stroke-linejoin="miter" fill="rgb(0, 0, 0)" shape-rendering="geometricPrecision" /><path d="M75.47 213.07 L75.47 213.07 L76.27 215.44 L76.83 215.25 L76.04 212.88 Z" stroke="rgb(0, 0, 0)" stroke-width="0" fill-rule="evenodd" stroke-linejoin="miter" fill="rgb(0, 0, 0)" shape-rendering="geometricPrecision" /></g><g id="Dash"><path d="M91.55 173.8 L91.55 173.8 L92.15 173.82 L92.24 170.7 L91.93 171 L91.62 171.3 Z" stroke="rgb(0, 0, 0)" stroke-width="0" fill-rule="evenodd" stroke-linejoin="miter" fill="rgb(0, 0, 0)" shape-rendering="geometricPrecision" /><path d="M90.54 210.41 L90.54 210.41 L91.14 210.43 L91.06 213.48 L90.76 213.3 L90.47 212.91 Z" stroke="rgb(0, 0, 0)" stroke-width="0" fill-rule="evenodd" stroke-linejoin="miter" fill="rgb(0, 0, 0)" shape-rendering="geometricPrecision" /><path d="M91.47 176.89 L91.47 176.89 L91.4 179.39 L92 179.4 L92.07 176.9 Z" stroke="rgb(0, 0, 0)" stroke-width="0" fill-rule="evenodd" stroke-linejoin="miter" fill="rgb(0, 0, 0)" shape-rendering="geometricPrecision" /><path d="M91.31 182.48 L91.31 182.48 L91.24 184.97 L91.84 184.99 L91.91 182.49 Z" stroke="rgb(0, 0, 0)" stroke-width="0" fill-rule="evenodd" stroke-linejoin="miter" fill="rgb(0, 0, 0)" shape-rendering="geometricPrecision" /><path d="M91.16 188.06 L91.16 188.06 L91.09 190.56 L91.69 190.58 L91.76 188.08 Z" stroke="rgb(0, 0, 0)" stroke-width="0" fill-rule="evenodd" stroke-linejoin="miter" fill="rgb(0, 0, 0)" shape-rendering="geometricPrecision" /><path d="M91 193.65 L91 193.65 L90.93 196.15 L91.53 196.17 L91.6 193.67 Z" stroke="rgb(0, 0, 0)" stroke-width="0" fill-rule="evenodd" stroke-linejoin="miter" fill="rgb(0, 0, 0)" shape-rendering="geometricPrecision" /><path d="M90.85 199.24 L90.85 199.24 L90.78 201.74 L91.38 201.75 L91.45 199.25 Z" stroke="rgb(0, 0, 0)" stroke-width="0" fill-rule="evenodd" stroke-linejoin="miter" fill="rgb(0, 0, 0)" shape-rendering="geometricPrecision" /><path d="M90.69 204.83 L90.69 204.83 L90.63 207.32 L91.22 207.34 L91.29 204.84 Z" stroke="rgb(0, 0, 0)" stroke-width="0" fill-rule="evenodd" stroke-linejoin="miter" fill="rgb(0, 0, 0)" shape-rendering="geometricPrecision" /></g><g id="Bracket"><path d="M109.17 166.5 L114.28 166.5 L114.28 235.5 L109.17 235.5 " stroke="rgb(0, 0, 0)" stroke-width="0.6" fill-rule="evenodd" stroke-linejoin="miter" fill="none" shape-rendering="geometricPrecision" /></g><g id="Bracket"><path d="M39.89 235.5 L34.78 235.5 L34.78 166.5 L39.89 166.5 " stroke="rgb(0, 0, 0)" stroke-width="0.6" fill-rule="evenodd" stroke-linejoin="miter" fill="none" shape-rendering="geometricPrecision" /></g><g id="Charge188"><line x1="122.53" y1="165.45" x2="122.53" y2="178.05" stroke="rgb(0, 0, 0)" stroke-width="0.48" shape-rendering="auto" /><line x1="119.23" y1="168.75" x2="125.83" y2="168.75" stroke="rgb(0, 0, 0)" stroke-width="0.48" shape-rendering="auto" /><line x1="119.23" y1="174.75" x2="125.83" y2="174.75" stroke="rgb(0, 0, 0)" stroke-width="0.48" shape-rendering="auto" /></g></g></g></svg>