<?xml version="1.0"?><svg xmlns="http://www.w3.org/2000/svg" xmlns:xlink="http://www.w3.org/1999/xlink" viewBox="19.87 12.85 92.13 75.85" preserveAspectRatio="xMidYMid" width="100%" height="100%"><clipPath id="194"><rect x="0.3" y="0.3" width="539.4" height="719.15" /></clipPath><g id="drawing"><rect x="19.87" y="12.85" width="100%" height="100%" fill="rgb(255, 255, 255)" /><g id="page" clip-path="url(#194)"><g id="Solid"><path d="M59.55 23.9 L59.55 23.9 L59.47 23.6 L59.39 23.3 L77.93 23.3 L77.62 23.6 L77.31 23.9 Z" stroke="rgb(0, 0, 255)" stroke-width="0" fill-rule="evenodd" stroke-linejoin="miter" fill="rgb(0, 0, 255)" shape-rendering="geometricPrecision" /><line x1="60.35" y1="26.87" x2="74.26" y2="26.87" stroke="rgb(0, 0, 255)" stroke-width="0.6" shape-rendering="auto" /></g><g id="Solid"><path d="M59.39 23.3 L59.39 23.3 L59.47 23.6 L59.55 23.9 L47.41 30.91 L47 30.8 L46.59 30.69 Z" stroke="rgb(0, 0, 255)" stroke-width="0" fill-rule="evenodd" stroke-linejoin="miter" fill="rgb(0, 0, 255)" shape-rendering="geometricPrecision" /></g><g id="Solid"><path d="M46.59 30.69 L46.59 30.69 L47 30.8 L47.41 30.91 L53.72 41.64 L53.45 41.77 L53.18 41.9 Z" stroke="rgb(0, 0, 255)" stroke-width="0" fill-rule="evenodd" stroke-linejoin="miter" fill="rgb(0, 0, 255)" shape-rendering="geometricPrecision" /><line x1="50.14" y1="31.63" x2="55.42" y2="40.61" stroke="rgb(0, 0, 255)" stroke-width="0.6" shape-rendering="auto" /></g><g id="Solid"><path d="M64.05 73.4 L64.05 73.4 L63.97 73.1 L64.14 72.66 L75.67 66 L76.45 65.9 L76.75 66.08 Z" stroke="rgb(0, 0, 255)" stroke-width="0" fill-rule="evenodd" stroke-linejoin="miter" fill="rgb(0, 0, 255)" shape-rendering="geometricPrecision" /><line x1="65.42" y1="69.27" x2="69.73" y2="66.78" stroke="rgb(0, 0, 255)" stroke-width="0.6" shape-rendering="auto" /></g><g id="Solid"><path d="M63.55 72.8 L63.55 72.8 L63.97 73.1 L64.05 73.4 L49.3 73.4 L49.57 73.1 L49.84 72.8 Z" stroke="rgb(0, 0, 255)" stroke-width="0" fill-rule="evenodd" stroke-linejoin="miter" fill="rgb(0, 0, 255)" shape-rendering="geometricPrecision" /></g><g id="Solid"><g id="Bond's parts"><path d="M62.6 61.85 L62.6 61.85 L62.62 61.9 L63.05 62 L63.45 62.1 L63.85 62.2 L64.15 62.3 L64.55 62.4 L64.95 62.5 L65.35 62.6 L65.65 62.7 L66.05 62.8 L66.45 62.9 L66.75 63 L67.15 63.1 L67.55 63.2 L67.95 63.3 L68.25 63.4 L68.65 63.5 L69.05 63.6 L69.45 63.7 L69.75 63.8 L70.15 63.9 L70.55 64 L70.85 64.1 L71.25 64.2 L71.65 64.3 L72.05 64.4 L72.35 64.5 L72.75 64.6 L73.15 64.7 L73.55 64.8 L73.85 64.9 L74.25 65 L74.65 65.1 L74.95 65.2 L75.35 65.3 L75.75 65.4 L76.18 65.5 L76.25 65.6 L76.3 65.65 L76.4 65.85 L76.43 65.9 L75.35 65.9 L74.95 65.8 L74.55 65.7 L74.15 65.6 L73.85 65.5 L73.45 65.4 L73.05 65.3 L72.65 65.2 L72.35 65.1 L71.95 65 L71.55 64.9 L71.15 64.8 L70.85 64.7 L70.45 64.6 L70.05 64.5 L69.75 64.4 L69.35 64.3 L68.95 64.2 L68.55 64.1 L68.25 64 L67.85 63.9 L67.45 63.8 L67.05 63.7 L66.75 63.6 L66.35 63.5 L65.95 63.4 L65.65 63.3 L65.25 63.2 L64.85 63.1 L64.45 63 L64.15 62.9 L63.75 62.8 L63.35 62.7 L62.95 62.6 L62.62 62.5 Z" stroke="rgb(0, 0, 255)" stroke-width="0" fill-rule="evenodd" stroke-linejoin="miter" fill="rgb(0, 0, 255)" shape-rendering="geometricPrecision" /></g></g><g><text xml:space="preserve" text-anchor="start" text-rendering="geometricPrecision"><tspan x="44.73" y="68.3" font-family="Arial" font-size="10" fill="rgb(0, 0, 255)">O</tspan></text></g><g id="Solid"><g id="Bond's parts"><path d="M62.33 61.9 L62.33 61.9 L62.55 61.85 L62.55 62.45 L62.35 62.45 L62.3 62.15 L62.3 61.95 Z" stroke="rgb(0, 0, 255)" stroke-width="0" fill-rule="evenodd" stroke-linejoin="miter" fill="rgb(0, 0, 255)" shape-rendering="geometricPrecision" /><path d="M57.95 62.6 L57.95 62.6 L58.45 62.55 L58.5 62.75 L58.6 63.05 L58.62 63.1 L58.05 63.2 L57.35 63.3 L56.75 63.4 L56.15 63.5 L55.55 63.6 L54.85 63.7 L54.25 63.8 L53.72 63.8 L53.7 63.75 L53.65 63.25 L54.25 63.2 L54.85 63.1 L55.45 63 L56.05 62.9 L56.75 62.8 L57.35 62.7 Z" stroke="rgb(0, 0, 255)" stroke-width="0" fill-rule="evenodd" stroke-linejoin="miter" fill="rgb(0, 0, 255)" shape-rendering="geometricPrecision" /></g></g><g id="Solid"><path d="M48.9 69.68 L48.9 69.68 L49.2 69.65 L49.5 69.62 L49.84 72.8 L49.57 73.1 L49.3 73.4 Z" stroke="rgb(0, 0, 255)" stroke-width="0" fill-rule="evenodd" stroke-linejoin="miter" fill="rgb(0, 0, 255)" shape-rendering="geometricPrecision" /></g><g><text xml:space="preserve" text-anchor="start" text-rendering="geometricPrecision"><tspan x="33.18" y="81.83" font-family="Arial" font-size="10" fill="rgb(0, 0, 255)">O</tspan></text></g><g id="Solid"><line x1="50" y1="74.22" x2="42.53" y2="77.12" stroke="rgb(0, 0, 255)" stroke-width="0.6" shape-rendering="auto" /><path d="M49.18 72.28 L49.18 72.28 L49.11 71.66 L41.55 74.59 L41.77 75.15 Z" stroke="rgb(0, 0, 255)" stroke-width="0" fill-rule="evenodd" stroke-linejoin="miter" fill="rgb(0, 0, 255)" shape-rendering="geometricPrecision" /><path d="M52.97 73.4 L52.97 73.4 L51.3 73.4 L42.42 76.84 L42.64 77.4 Z" stroke="rgb(0, 0, 255)" stroke-width="0" fill-rule="evenodd" stroke-linejoin="miter" fill="rgb(0, 0, 255)" shape-rendering="geometricPrecision" /></g><g><text xml:space="preserve" text-anchor="start" text-rendering="geometricPrecision"><tspan x="58.64" y="58.42" font-family="Arial" font-size="10" fill="rgb(0, 0, 255)">O</tspan></text></g><g id="Solid"><g id="Bond's parts"><path d="M61.45 59.45 L61.45 59.45 L62.05 59.45 L62 61.25 L61.9 60.95 L61.8 60.65 L61.7 60.35 L61.6 60.05 Z" stroke="rgb(0, 0, 255)" stroke-width="0" fill-rule="evenodd" stroke-linejoin="miter" fill="rgb(0, 0, 255)" shape-rendering="geometricPrecision" /><path d="M62.95 59.45 L62.95 59.45 L63.55 59.45 L63.5 62.15 L63.47 62.1 L63.03 62 Z" stroke="rgb(0, 0, 255)" stroke-width="0" fill-rule="evenodd" stroke-linejoin="miter" fill="rgb(0, 0, 255)" shape-rendering="geometricPrecision" /></g></g><g id="Dash"><path d="M53.97 44.27 L53.97 44.27 L54.54 44.07 L53.72 41.64 L53.45 41.77 L53.18 41.9 Z" stroke="rgb(0, 0, 255)" stroke-width="0" fill-rule="evenodd" stroke-linejoin="miter" fill="rgb(0, 0, 255)" shape-rendering="geometricPrecision" /><path d="M62.76 70.43 L62.76 70.43 L63.33 70.24 L64.14 72.66 L63.97 73.1 L63.55 72.8 Z" stroke="rgb(0, 0, 255)" stroke-width="0" fill-rule="evenodd" stroke-linejoin="miter" fill="rgb(0, 0, 255)" shape-rendering="geometricPrecision" /><path d="M54.77 46.65 L54.77 46.65 L55.57 49.02 L56.14 48.83 L55.34 46.46 Z" stroke="rgb(0, 0, 255)" stroke-width="0" fill-rule="evenodd" stroke-linejoin="miter" fill="rgb(0, 0, 255)" shape-rendering="geometricPrecision" /><path d="M56.37 51.41 L56.37 51.41 L57.17 53.78 L57.73 53.59 L56.94 51.22 Z" stroke="rgb(0, 0, 255)" stroke-width="0" fill-rule="evenodd" stroke-linejoin="miter" fill="rgb(0, 0, 255)" shape-rendering="geometricPrecision" /><path d="M57.97 56.16 L57.97 56.16 L58.76 58.53 L59.33 58.34 L58.54 55.97 Z" stroke="rgb(0, 0, 255)" stroke-width="0" fill-rule="evenodd" stroke-linejoin="miter" fill="rgb(0, 0, 255)" shape-rendering="geometricPrecision" /><path d="M59.56 60.92 L59.56 60.92 L60.36 63.29 L60.93 63.1 L60.13 60.73 Z" stroke="rgb(0, 0, 255)" stroke-width="0" fill-rule="evenodd" stroke-linejoin="miter" fill="rgb(0, 0, 255)" shape-rendering="geometricPrecision" /><path d="M61.16 65.67 L61.16 65.67 L61.96 68.04 L62.52 67.85 L61.73 65.48 Z" stroke="rgb(0, 0, 255)" stroke-width="0" fill-rule="evenodd" stroke-linejoin="miter" fill="rgb(0, 0, 255)" shape-rendering="geometricPrecision" /></g><g id="Dash"><path d="M77.24 26.4 L77.24 26.4 L77.84 26.42 L77.93 23.3 L77.62 23.6 L77.31 23.9 Z" stroke="rgb(0, 0, 255)" stroke-width="0" fill-rule="evenodd" stroke-linejoin="miter" fill="rgb(0, 0, 255)" shape-rendering="geometricPrecision" /><path d="M76.23 63.01 L76.23 63.01 L76.83 63.03 L76.75 66.08 L76.45 65.9 L76.16 65.51 Z" stroke="rgb(0, 0, 255)" stroke-width="0" fill-rule="evenodd" stroke-linejoin="miter" fill="rgb(0, 0, 255)" shape-rendering="geometricPrecision" /><path d="M77.16 29.49 L77.16 29.49 L77.09 31.99 L77.69 32 L77.76 29.5 Z" stroke="rgb(0, 0, 255)" stroke-width="0" fill-rule="evenodd" stroke-linejoin="miter" fill="rgb(0, 0, 255)" shape-rendering="geometricPrecision" /><path d="M77 35.08 L77 35.08 L76.93 37.57 L77.53 37.59 L77.6 35.09 Z" stroke="rgb(0, 0, 255)" stroke-width="0" fill-rule="evenodd" stroke-linejoin="miter" fill="rgb(0, 0, 255)" shape-rendering="geometricPrecision" /><path d="M76.85 40.66 L76.85 40.66 L76.78 43.16 L77.38 43.18 L77.45 40.68 Z" stroke="rgb(0, 0, 255)" stroke-width="0" fill-rule="evenodd" stroke-linejoin="miter" fill="rgb(0, 0, 255)" shape-rendering="geometricPrecision" /><path d="M76.69 46.25 L76.69 46.25 L76.62 48.75 L77.22 48.77 L77.29 46.27 Z" stroke="rgb(0, 0, 255)" stroke-width="0" fill-rule="evenodd" stroke-linejoin="miter" fill="rgb(0, 0, 255)" shape-rendering="geometricPrecision" /><path d="M76.54 51.84 L76.54 51.84 L76.47 54.34 L77.07 54.35 L77.14 51.85 Z" stroke="rgb(0, 0, 255)" stroke-width="0" fill-rule="evenodd" stroke-linejoin="miter" fill="rgb(0, 0, 255)" shape-rendering="geometricPrecision" /><path d="M76.38 57.43 L76.38 57.43 L76.32 59.92 L76.91 59.94 L76.98 57.44 Z" stroke="rgb(0, 0, 255)" stroke-width="0" fill-rule="evenodd" stroke-linejoin="miter" fill="rgb(0, 0, 255)" shape-rendering="geometricPrecision" /></g><g id="Bracket"><path d="M94.86 19.1 L99.97 19.1 L99.97 88.1 L94.86 88.1 " stroke="rgb(0, 0, 255)" stroke-width="0.6" fill-rule="evenodd" stroke-linejoin="miter" fill="none" shape-rendering="geometricPrecision" /></g><g id="Bracket"><path d="M25.58 88.1 L20.47 88.1 L20.47 19.1 L25.58 19.1 " stroke="rgb(0, 0, 255)" stroke-width="0.6" fill-rule="evenodd" stroke-linejoin="miter" fill="none" shape-rendering="geometricPrecision" /></g><g id="Charge188"><line x1="108.22" y1="18.05" x2="108.22" y2="30.65" stroke="rgb(0, 0, 255)" stroke-width="0.48" shape-rendering="auto" /><line x1="104.92" y1="21.35" x2="111.52" y2="21.35" stroke="rgb(0, 0, 255)" stroke-width="0.48" shape-rendering="auto" /><line x1="104.92" y1="27.35" x2="111.52" y2="27.35" stroke="rgb(0, 0, 255)" stroke-width="0.48" shape-rendering="auto" /></g><g><text xml:space="preserve" text-anchor="start" text-rendering="geometricPrecision"><tspan x="38.47" y="37.85" font-family="Arial" font-size="16" fill="rgb(0, 0, 255)">*</tspan></text></g><g><text xml:space="preserve" text-anchor="start" text-rendering="geometricPrecision"><tspan x="54.97" y="27.35" font-family="Arial" font-size="16" fill="rgb(0, 0, 255)">*</tspan></text></g><g><text xml:space="preserve" text-anchor="start" text-rendering="geometricPrecision"><tspan x="36.22" y="79.1" font-family="Arial" font-size="16" fill="rgb(0, 0, 255)">*</tspan></text></g><g><text xml:space="preserve" text-anchor="start" text-rendering="geometricPrecision"><tspan x="64.72" y="55.1" font-family="Arial" font-size="16" fill="rgb(0, 0, 255)">*</tspan></text></g></g></g></svg>