<?xml version="1.0"?><svg xmlns="http://www.w3.org/2000/svg" xmlns:xlink="http://www.w3.org/1999/xlink" viewBox="28.93 119.75 103.38 73.6" preserveAspectRatio="xMidYMid" width="100%" height="100%"><clipPath id="194"><rect x="0.3" y="0.3" width="522.6" height="769.08" /></clipPath><g id="drawing"><rect x="28.93" y="119.75" width="100%" height="100%" fill="rgb(255, 255, 255)" /><g id="page" clip-path="url(#194)"><g id="Solid"><g id="Bond's parts"><path d="M74.25 170.65 L74.25 170.65 L91.55 170.7 L91.78 170.8 L91.85 170.9 L91.95 171 L92.05 171.1 L92.12 171.2 L74.15 171.25 Z" stroke="rgb(0, 0, 255)" stroke-width="0" fill-rule="evenodd" stroke-linejoin="miter" fill="rgb(0, 0, 255)" shape-rendering="geometricPrecision" /><path d="M74.65 173.95 L74.65 173.95 L91.95 173.95 L91.95 174.55 Z" stroke="rgb(0, 0, 255)" stroke-width="0" fill-rule="evenodd" stroke-linejoin="miter" fill="rgb(0, 0, 255)" shape-rendering="geometricPrecision" /></g></g><g id="Solid"><g id="Bond's parts"><path d="M73.7 170.85 L73.7 170.85 L73.8 171.05 L73.85 171.35 Z" stroke="rgb(0, 0, 255)" stroke-width="0" fill-rule="evenodd" stroke-linejoin="miter" fill="rgb(0, 0, 255)" shape-rendering="geometricPrecision" /><path d="M73.6 171.4 L73.6 171.4 L69.15 173.3 L69.2 173.25 L69.2 173.45 L69.1 173.85 L69.05 174.15 L68.85 174.2 L68.65 174.3 L68.43 174.4 L68.38 174.5 L68.15 174.6 L67.95 174.7 L67.72 174.8 L67.68 174.9 L67.45 175 L67.22 175.1 L67.18 175.2 L66.95 175.3 L66.75 175.4 L66.53 175.5 L66.47 175.6 L66.25 175.7 L66.05 175.8 L65.82 175.9 L65.78 176 L65.55 176.1 L65.35 176.2 L65.12 176.3 L65.07 176.4 L64.85 176.5 L64.62 176.6 L64.57 176.7 L64.35 176.8 L64.15 176.9 L63.92 177 L63.88 177.1 L63.65 177.2 L63.45 177.3 L63.22 177.4 L63.17 177.5 L62.95 177.6 L62.75 177.7 L62.53 177.8 L62.47 177.9 L62.25 178 L62.03 178.1 L61.97 178.2 L61.72 178.3 L61.67 178.3 L61.35 178.2 L60.97 178.1 L61.03 178 L61.25 177.9 L61.47 177.8 L61.53 177.7 L61.75 177.6 L61.95 177.5 L62.17 177.4 L62.22 177.3 L62.45 177.2 L62.67 177.1 L62.72 177 L62.95 176.9 L63.15 176.8 L63.38 176.7 L63.42 176.6 L63.65 176.5 L63.85 176.4 L64.07 176.3 L64.12 176.2 L64.35 176.1 L64.57 176 L64.62 175.9 L64.85 175.8 L65.05 175.7 L65.28 175.6 L65.32 175.5 L65.55 175.4 L65.75 175.3 L65.97 175.2 L66.03 175.1 L66.25 175 L66.45 174.9 L66.68 174.8 L66.72 174.7 L66.95 174.6 L67.18 174.5 L67.22 174.4 L67.45 174.3 L67.65 174.2 L67.88 174.1 L67.93 174 L68.15 173.9 L68.35 173.8 L68.57 173.7 L68.62 173.6 L68.85 173.5 L69.07 173.4 Z" stroke="rgb(0, 0, 255)" stroke-width="0" fill-rule="evenodd" stroke-linejoin="miter" fill="rgb(0, 0, 255)" shape-rendering="geometricPrecision" /></g></g><g id="Solid"><path d="M60.9 178.09 L60.9 178.09 L61.31 178.2 L61.72 178.31 L67.64 188.37 L67.76 189.17 L67.88 189.97 Z" stroke="rgb(0, 0, 255)" stroke-width="0" fill-rule="evenodd" stroke-linejoin="miter" fill="rgb(0, 0, 255)" shape-rendering="geometricPrecision" /><line x1="64.45" y1="179.03" x2="66.82" y2="183.05" stroke="rgb(0, 0, 255)" stroke-width="0.6" shape-rendering="auto" /></g><g id="Solid"><path d="M77.04 150.19 L77.04 150.19 L76.78 150 L76.7 149.7 L88.48 142.9 L89.26 142.8 L89.01 143.29 Z" stroke="rgb(0, 0, 255)" stroke-width="0" fill-rule="evenodd" stroke-linejoin="miter" fill="rgb(0, 0, 255)" shape-rendering="geometricPrecision" /><line x1="76.09" y1="147.41" x2="82.54" y2="143.68" stroke="rgb(0, 0, 255)" stroke-width="0.6" shape-rendering="auto" /></g><g id="Solid"><path d="M76.7 149.7 L76.7 149.7 L76.78 150 L76.4 150.3 L62.11 150.3 L62.38 150 L62.65 149.7 Z" stroke="rgb(0, 0, 255)" stroke-width="0" fill-rule="evenodd" stroke-linejoin="miter" fill="rgb(0, 0, 255)" shape-rendering="geometricPrecision" /></g><g id="Solid"><path d="M89.54 142.56 L89.54 142.56 L89.26 142.8 L88.48 142.9 L75.33 139.38 L75.35 139.07 L75.37 138.76 Z" stroke="rgb(0, 0, 255)" stroke-width="0" fill-rule="evenodd" stroke-linejoin="miter" fill="rgb(0, 0, 255)" shape-rendering="geometricPrecision" /></g><g><text xml:space="preserve" text-anchor="start" text-rendering="geometricPrecision"><tspan x="57.54" y="145.2" font-family="Arial" font-size="10" fill="rgb(0, 0, 255)">O</tspan></text></g><g id="Solid"><path d="M75.37 138.76 L75.37 138.76 L75.35 139.07 L75.33 139.38 L66.53 140.79 L66.48 140.49 L66.43 140.2 Z" stroke="rgb(0, 0, 255)" stroke-width="0" fill-rule="evenodd" stroke-linejoin="miter" fill="rgb(0, 0, 255)" shape-rendering="geometricPrecision" /></g><g id="Solid"><path d="M61.71 146.58 L61.71 146.58 L62.01 146.55 L62.31 146.52 L62.65 149.7 L62.38 150 L62.11 150.3 Z" stroke="rgb(0, 0, 255)" stroke-width="0" fill-rule="evenodd" stroke-linejoin="miter" fill="rgb(0, 0, 255)" shape-rendering="geometricPrecision" /></g><g><text xml:space="preserve" text-anchor="start" text-rendering="geometricPrecision"><tspan x="45.99" y="158.73" font-family="Arial" font-size="10" fill="rgb(0, 0, 255)">O</tspan></text></g><g id="Solid"><line x1="62.81" y1="151.12" x2="55.33" y2="154.02" stroke="rgb(0, 0, 255)" stroke-width="0.6" shape-rendering="auto" /><path d="M61.99 149.18 L61.99 149.18 L61.92 148.56 L54.35 151.49 L54.57 152.05 Z" stroke="rgb(0, 0, 255)" stroke-width="0" fill-rule="evenodd" stroke-linejoin="miter" fill="rgb(0, 0, 255)" shape-rendering="geometricPrecision" /><path d="M65.78 150.3 L65.78 150.3 L64.11 150.3 L55.22 153.74 L55.44 154.3 Z" stroke="rgb(0, 0, 255)" stroke-width="0" fill-rule="evenodd" stroke-linejoin="miter" fill="rgb(0, 0, 255)" shape-rendering="geometricPrecision" /></g><g><text xml:space="preserve" text-anchor="start" text-rendering="geometricPrecision"><tspan x="71.45" y="135.32" font-family="Arial" font-size="10" fill="rgb(0, 0, 255)">O</tspan></text></g><g id="Solid"><line x1="74.6" y1="139.07" x2="74.6" y2="136.39" stroke="rgb(0, 0, 255)" stroke-width="0.6" shape-rendering="auto" /><path d="M75.8 138.88 L75.8 138.88 L76.4 139.04 L76.4 136.39 L75.8 136.39 Z" stroke="rgb(0, 0, 255)" stroke-width="0" fill-rule="evenodd" stroke-linejoin="miter" fill="rgb(0, 0, 255)" shape-rendering="geometricPrecision" /><path d="M74.3 138.93 L74.3 138.93 L74.9 138.84 L74.9 136.39 L74.3 136.39 Z" stroke="rgb(0, 0, 255)" stroke-width="0" fill-rule="evenodd" stroke-linejoin="miter" fill="rgb(0, 0, 255)" shape-rendering="geometricPrecision" /></g><g id="Dash"><path d="M68.78 186.07 L68.78 186.07 L68.2 185.93 L67.64 188.37 L67.76 189.17 L67.88 189.97 Z" stroke="rgb(0, 0, 255)" stroke-width="0" fill-rule="evenodd" stroke-linejoin="miter" fill="rgb(0, 0, 255)" shape-rendering="geometricPrecision" /><path d="M76.43 152.87 L76.43 152.87 L75.84 152.74 L76.4 150.3 L76.78 150 L77.04 150.19 Z" stroke="rgb(0, 0, 255)" stroke-width="0" fill-rule="evenodd" stroke-linejoin="miter" fill="rgb(0, 0, 255)" shape-rendering="geometricPrecision" /><path d="M69.59 182.56 L69.59 182.56 L70.15 180.13 L69.57 179.99 L69 182.43 Z" stroke="rgb(0, 0, 255)" stroke-width="0" fill-rule="evenodd" stroke-linejoin="miter" fill="rgb(0, 0, 255)" shape-rendering="geometricPrecision" /><path d="M70.96 176.63 L70.96 176.63 L71.52 174.19 L70.93 174.05 L70.37 176.49 Z" stroke="rgb(0, 0, 255)" stroke-width="0" fill-rule="evenodd" stroke-linejoin="miter" fill="rgb(0, 0, 255)" shape-rendering="geometricPrecision" /><path d="M72.32 170.69 L72.32 170.69 L72.89 168.25 L72.3 168.12 L71.74 170.55 Z" stroke="rgb(0, 0, 255)" stroke-width="0" fill-rule="evenodd" stroke-linejoin="miter" fill="rgb(0, 0, 255)" shape-rendering="geometricPrecision" /><path d="M73.69 164.75 L73.69 164.75 L74.25 162.31 L73.67 162.18 L73.11 164.61 Z" stroke="rgb(0, 0, 255)" stroke-width="0" fill-rule="evenodd" stroke-linejoin="miter" fill="rgb(0, 0, 255)" shape-rendering="geometricPrecision" /><path d="M75.06 158.81 L75.06 158.81 L75.62 156.37 L75.04 156.24 L74.47 158.67 Z" stroke="rgb(0, 0, 255)" stroke-width="0" fill-rule="evenodd" stroke-linejoin="miter" fill="rgb(0, 0, 255)" shape-rendering="geometricPrecision" /></g><g id="Dash"><path d="M91.96 168.15 L91.96 168.15 L91.36 168.21 L91.6 170.7 L91.93 171 L92.26 171.3 Z" stroke="rgb(0, 0, 255)" stroke-width="0" fill-rule="evenodd" stroke-linejoin="miter" fill="rgb(0, 0, 255)" shape-rendering="geometricPrecision" /><path d="M89.84 145.73 L89.84 145.73 L89.24 145.78 L89.01 143.29 L89.26 142.8 L89.54 142.56 Z" stroke="rgb(0, 0, 255)" stroke-width="0" fill-rule="evenodd" stroke-linejoin="miter" fill="rgb(0, 0, 255)" shape-rendering="geometricPrecision" /><path d="M91.73 165.66 L91.73 165.66 L91.49 163.17 L90.89 163.23 L91.13 165.72 Z" stroke="rgb(0, 0, 255)" stroke-width="0" fill-rule="evenodd" stroke-linejoin="miter" fill="rgb(0, 0, 255)" shape-rendering="geometricPrecision" /><path d="M91.25 160.68 L91.25 160.68 L91.02 158.19 L90.42 158.24 L90.66 160.73 Z" stroke="rgb(0, 0, 255)" stroke-width="0" fill-rule="evenodd" stroke-linejoin="miter" fill="rgb(0, 0, 255)" shape-rendering="geometricPrecision" /><path d="M90.78 155.69 L90.78 155.69 L90.55 153.2 L89.95 153.26 L90.18 155.75 Z" stroke="rgb(0, 0, 255)" stroke-width="0" fill-rule="evenodd" stroke-linejoin="miter" fill="rgb(0, 0, 255)" shape-rendering="geometricPrecision" /><path d="M90.31 150.71 L90.31 150.71 L90.07 148.22 L89.48 148.28 L89.71 150.77 Z" stroke="rgb(0, 0, 255)" stroke-width="0" fill-rule="evenodd" stroke-linejoin="miter" fill="rgb(0, 0, 255)" shape-rendering="geometricPrecision" /></g><g id="Bracket"><path d="M114.42 123 L119.53 123 L119.53 192 L114.42 192 " stroke="rgb(0, 0, 255)" stroke-width="0.6" fill-rule="evenodd" stroke-linejoin="miter" fill="none" shape-rendering="geometricPrecision" /></g><g id="Bracket"><path d="M34.64 192.75 L29.53 192.75 L29.53 123.75 L34.64 123.75 " stroke="rgb(0, 0, 255)" stroke-width="0.6" fill-rule="evenodd" stroke-linejoin="miter" fill="none" shape-rendering="geometricPrecision" /></g><g id="Charge188"><line x1="128.53" y1="123.45" x2="128.53" y2="136.05" stroke="rgb(0, 0, 255)" stroke-width="0.48" shape-rendering="auto" /><line x1="125.23" y1="126.75" x2="131.83" y2="126.75" stroke="rgb(0, 0, 255)" stroke-width="0.48" shape-rendering="auto" /><line x1="125.23" y1="132.75" x2="131.83" y2="132.75" stroke="rgb(0, 0, 255)" stroke-width="0.48" shape-rendering="auto" /></g><g><text xml:space="preserve" text-anchor="start" text-rendering="geometricPrecision"><tspan x="46.03" y="152.25" font-family="Arial" font-size="16" fill="rgb(0, 0, 255)">*</tspan></text></g><g><text xml:space="preserve" text-anchor="start" text-rendering="geometricPrecision"><tspan x="80.53" y="134.25" font-family="Arial" font-size="16" fill="rgb(0, 0, 255)">*</tspan></text></g><g><text xml:space="preserve" text-anchor="start" text-rendering="geometricPrecision"><tspan x="55.78" y="182.25" font-family="Arial" font-size="16" fill="rgb(0, 0, 255)">*</tspan></text></g><g><text xml:space="preserve" text-anchor="start" text-rendering="geometricPrecision"><tspan x="65.53" y="174" font-family="Arial" font-size="16" fill="rgb(0, 0, 255)">*</tspan></text></g></g></g></svg>