<?xml version="1.0"?><svg xmlns="http://www.w3.org/2000/svg" xmlns:xlink="http://www.w3.org/1999/xlink" viewBox="223.87 229.5 92.13 71.55" preserveAspectRatio="xMidYMid" width="100%" height="100%"><clipPath id="194"><rect x="0.3" y="0.3" width="522.6" height="769.08" /></clipPath><g id="drawing"><rect x="223.87" y="229.5" width="100%" height="100%" fill="rgb(255, 255, 255)" /><g id="page" clip-path="url(#194)"><g id="Solid"><path d="M261.68 240.94 L261.68 240.94 L261.6 240.64 L261.52 240.34 L279.67 240.34 L279.75 240.64 L279.44 240.94 Z" stroke="rgb(0, 0, 0)" stroke-width="0" fill-rule="evenodd" stroke-linejoin="miter" fill="rgb(0, 0, 0)" shape-rendering="geometricPrecision" /><line x1="262.48" y1="243.91" x2="276.39" y2="243.91" stroke="rgb(0, 0, 0)" stroke-width="0.6" shape-rendering="auto" /></g><g id="Solid"><path d="M261.52 240.34 L261.52 240.34 L261.6 240.64 L261.68 240.94 L249.54 247.95 L249.13 247.84 L248.72 247.73 Z" stroke="rgb(0, 0, 0)" stroke-width="0" fill-rule="evenodd" stroke-linejoin="miter" fill="rgb(0, 0, 0)" shape-rendering="geometricPrecision" /></g><g id="Solid"><path d="M248.72 247.73 L248.72 247.73 L249.13 247.84 L249.54 247.95 L255.75 258.51 L255.58 258.81 L255.31 258.94 Z" stroke="rgb(0, 0, 0)" stroke-width="0" fill-rule="evenodd" stroke-linejoin="miter" fill="rgb(0, 0, 0)" shape-rendering="geometricPrecision" /><line x1="252.27" y1="248.67" x2="256.89" y2="256.52" stroke="rgb(0, 0, 0)" stroke-width="0.6" shape-rendering="auto" /></g><g id="Solid"><path d="M266.18 290.44 L266.18 290.44 L266.1 290.14 L266.27 289.7 L277.79 283.04 L278.57 282.94 L278.87 283.12 Z" stroke="rgb(0, 0, 0)" stroke-width="0" fill-rule="evenodd" stroke-linejoin="miter" fill="rgb(0, 0, 0)" shape-rendering="geometricPrecision" /><line x1="267.55" y1="286.31" x2="271.86" y2="283.82" stroke="rgb(0, 0, 0)" stroke-width="0.6" shape-rendering="auto" /></g><g id="Solid"><path d="M265.68 289.84 L265.68 289.84 L266.1 290.14 L266.18 290.44 L251.43 290.44 L251.7 290.14 L251.97 289.84 Z" stroke="rgb(0, 0, 0)" stroke-width="0" fill-rule="evenodd" stroke-linejoin="miter" fill="rgb(0, 0, 0)" shape-rendering="geometricPrecision" /></g><g id="Solid"><g id="Bond's parts"><path d="M264.65 278.95 L264.65 278.95 L265.05 279 L265.35 279.1 L265.75 279.2 L266.15 279.3 L266.55 279.4 L266.85 279.5 L267.25 279.6 L267.65 279.7 L268.05 279.8 L268.35 279.9 L268.75 280 L269.15 280.1 L269.55 280.2 L269.85 280.3 L270.25 280.4 L270.65 280.5 L270.95 280.6 L271.35 280.7 L271.75 280.8 L272.15 280.9 L272.45 281 L272.85 281.1 L273.25 281.2 L273.65 281.3 L273.95 281.4 L274.35 281.5 L274.75 281.6 L275.15 281.7 L275.45 281.8 L275.85 281.9 L276.25 282 L276.65 282.1 L276.95 282.2 L277.35 282.3 L277.75 282.4 L278.05 282.5 L278.35 282.55 L278.4 282.75 L278.45 282.8 L278.52 282.9 L278.15 283 L277.65 283 L277.25 282.9 L276.85 282.8 L276.55 282.7 L276.15 282.6 L275.75 282.5 L275.35 282.4 L275.05 282.3 L274.65 282.2 L274.25 282.1 L273.95 282 L273.55 281.9 L273.15 281.8 L272.75 281.7 L272.45 281.6 L272.05 281.5 L271.65 281.4 L271.25 281.3 L270.95 281.2 L270.55 281.1 L270.15 281 L269.75 280.9 L269.45 280.8 L269.05 280.7 L268.65 280.6 L268.35 280.5 L267.95 280.4 L267.55 280.3 L267.15 280.2 L266.85 280.1 L266.45 280 L266.05 279.9 L265.65 279.8 L265.35 279.7 L264.95 279.6 L264.75 279.55 Z" stroke="rgb(0, 0, 0)" stroke-width="0" fill-rule="evenodd" stroke-linejoin="miter" fill="rgb(0, 0, 0)" shape-rendering="geometricPrecision" /></g></g><g><text xml:space="preserve" text-anchor="start" text-rendering="geometricPrecision"><tspan x="246.85" y="285.34" font-family="Arial" font-size="10" fill="rgb(0, 0, 0)">O</tspan></text></g><g id="Solid"><g id="Bond's parts"><path d="M264.05 278.95 L264.05 278.95 L264.65 278.95 L264.65 279.55 L264.23 279.5 L264.2 279.45 Z" stroke="rgb(0, 0, 0)" stroke-width="0" fill-rule="evenodd" stroke-linejoin="miter" fill="rgb(0, 0, 0)" shape-rendering="geometricPrecision" /><path d="M259.75 279.7 L259.75 279.7 L260.27 279.7 L260.3 279.75 L260.4 280.05 L260.4 280.1 L260.38 280.2 L259.75 280.3 L259.15 280.4 L258.55 280.5 L257.85 280.6 L257.25 280.7 L256.65 280.8 L256.05 280.9 L255.85 280.95 L255.8 280.75 L255.75 280.35 L255.95 280.3 L256.55 280.2 L257.25 280.1 L257.85 280 L258.45 279.9 L259.05 279.8 Z" stroke="rgb(0, 0, 0)" stroke-width="0" fill-rule="evenodd" stroke-linejoin="miter" fill="rgb(0, 0, 0)" shape-rendering="geometricPrecision" /></g></g><g id="Solid"><path d="M251.02 286.69 L251.02 286.69 L251.32 286.66 L251.62 286.63 L251.97 289.84 L251.7 290.14 L251.43 290.44 Z" stroke="rgb(0, 0, 0)" stroke-width="0" fill-rule="evenodd" stroke-linejoin="miter" fill="rgb(0, 0, 0)" shape-rendering="geometricPrecision" /></g><g><text xml:space="preserve" text-anchor="start" text-rendering="geometricPrecision"><tspan x="235.31" y="298.86" font-family="Arial" font-size="10" fill="rgb(0, 0, 0)">O</tspan></text></g><g id="Solid"><line x1="252.13" y1="291.26" x2="244.63" y2="294.16" stroke="rgb(0, 0, 0)" stroke-width="0.6" shape-rendering="auto" /><path d="M251.31 289.32 L251.31 289.32 L251.24 288.7 L243.65 291.63 L243.87 292.19 Z" stroke="rgb(0, 0, 0)" stroke-width="0" fill-rule="evenodd" stroke-linejoin="miter" fill="rgb(0, 0, 0)" shape-rendering="geometricPrecision" /><path d="M255.1 290.44 L255.1 290.44 L253.44 290.44 L244.52 293.88 L244.73 294.44 Z" stroke="rgb(0, 0, 0)" stroke-width="0" fill-rule="evenodd" stroke-linejoin="miter" fill="rgb(0, 0, 0)" shape-rendering="geometricPrecision" /></g><g><text xml:space="preserve" text-anchor="start" text-rendering="geometricPrecision"><tspan x="260.76" y="275.46" font-family="Arial" font-size="10" fill="rgb(0, 0, 0)">O</tspan></text></g><g id="Solid"><g id="Bond's parts"><path d="M263.65 276.45 L263.65 276.45 L264.25 276.45 L264.2 278.25 L264.1 277.95 L264 277.65 L263.9 277.35 L263.8 277.05 Z" stroke="rgb(0, 0, 0)" stroke-width="0" fill-rule="evenodd" stroke-linejoin="miter" fill="rgb(0, 0, 0)" shape-rendering="geometricPrecision" /><path d="M265.15 276.45 L265.15 276.45 L265.75 276.45 L265.75 279.15 L265.45 279.1 Z" stroke="rgb(0, 0, 0)" stroke-width="0" fill-rule="evenodd" stroke-linejoin="miter" fill="rgb(0, 0, 0)" shape-rendering="geometricPrecision" /></g></g><g id="Dash"><path d="M256.22 261.67 L256.22 261.67 L256.79 261.48 L256 259.11 L255.58 258.81 L255.31 258.94 Z" stroke="rgb(0, 0, 0)" stroke-width="0" fill-rule="evenodd" stroke-linejoin="miter" fill="rgb(0, 0, 0)" shape-rendering="geometricPrecision" /><path d="M264.89 287.47 L264.89 287.47 L265.46 287.28 L266.27 289.7 L266.1 290.14 L265.68 289.84 Z" stroke="rgb(0, 0, 0)" stroke-width="0" fill-rule="evenodd" stroke-linejoin="miter" fill="rgb(0, 0, 0)" shape-rendering="geometricPrecision" /><path d="M257 264 L257 264 L257.8 266.37 L258.37 266.17 L257.57 263.8 Z" stroke="rgb(0, 0, 0)" stroke-width="0" fill-rule="evenodd" stroke-linejoin="miter" fill="rgb(0, 0, 0)" shape-rendering="geometricPrecision" /><path d="M258.58 268.69 L258.58 268.69 L259.38 271.06 L259.95 270.87 L259.15 268.5 Z" stroke="rgb(0, 0, 0)" stroke-width="0" fill-rule="evenodd" stroke-linejoin="miter" fill="rgb(0, 0, 0)" shape-rendering="geometricPrecision" /><path d="M260.16 273.39 L260.16 273.39 L260.95 275.76 L261.52 275.56 L260.73 273.19 Z" stroke="rgb(0, 0, 0)" stroke-width="0" fill-rule="evenodd" stroke-linejoin="miter" fill="rgb(0, 0, 0)" shape-rendering="geometricPrecision" /><path d="M261.73 278.08 L261.73 278.08 L262.53 280.45 L263.1 280.26 L262.3 277.89 Z" stroke="rgb(0, 0, 0)" stroke-width="0" fill-rule="evenodd" stroke-linejoin="miter" fill="rgb(0, 0, 0)" shape-rendering="geometricPrecision" /><path d="M263.31 282.78 L263.31 282.78 L264.11 285.15 L264.68 284.95 L263.88 282.58 Z" stroke="rgb(0, 0, 0)" stroke-width="0" fill-rule="evenodd" stroke-linejoin="miter" fill="rgb(0, 0, 0)" shape-rendering="geometricPrecision" /></g><g id="Dash"><path d="M279.37 243.44 L279.37 243.44 L279.97 243.46 L280.05 240.82 L279.75 240.64 L279.44 240.94 Z" stroke="rgb(0, 0, 0)" stroke-width="0" fill-rule="evenodd" stroke-linejoin="miter" fill="rgb(0, 0, 0)" shape-rendering="geometricPrecision" /><path d="M278.35 280.05 L278.35 280.05 L278.95 280.07 L278.87 283.12 L278.57 282.94 L278.28 282.55 Z" stroke="rgb(0, 0, 0)" stroke-width="0" fill-rule="evenodd" stroke-linejoin="miter" fill="rgb(0, 0, 0)" shape-rendering="geometricPrecision" /><path d="M279.29 246.53 L279.29 246.53 L279.22 249.03 L279.82 249.04 L279.89 246.54 Z" stroke="rgb(0, 0, 0)" stroke-width="0" fill-rule="evenodd" stroke-linejoin="miter" fill="rgb(0, 0, 0)" shape-rendering="geometricPrecision" /><path d="M279.13 252.12 L279.13 252.12 L279.06 254.61 L279.66 254.63 L279.73 252.13 Z" stroke="rgb(0, 0, 0)" stroke-width="0" fill-rule="evenodd" stroke-linejoin="miter" fill="rgb(0, 0, 0)" shape-rendering="geometricPrecision" /><path d="M278.97 257.7 L278.97 257.7 L278.9 260.2 L279.5 260.22 L279.57 257.72 Z" stroke="rgb(0, 0, 0)" stroke-width="0" fill-rule="evenodd" stroke-linejoin="miter" fill="rgb(0, 0, 0)" shape-rendering="geometricPrecision" /><path d="M278.82 263.29 L278.82 263.29 L278.75 265.79 L279.35 265.81 L279.42 263.31 Z" stroke="rgb(0, 0, 0)" stroke-width="0" fill-rule="evenodd" stroke-linejoin="miter" fill="rgb(0, 0, 0)" shape-rendering="geometricPrecision" /><path d="M278.66 268.88 L278.66 268.88 L278.59 271.38 L279.19 271.39 L279.26 268.89 Z" stroke="rgb(0, 0, 0)" stroke-width="0" fill-rule="evenodd" stroke-linejoin="miter" fill="rgb(0, 0, 0)" shape-rendering="geometricPrecision" /><path d="M278.51 274.47 L278.51 274.47 L278.44 276.96 L279.04 276.98 L279.11 274.48 Z" stroke="rgb(0, 0, 0)" stroke-width="0" fill-rule="evenodd" stroke-linejoin="miter" fill="rgb(0, 0, 0)" shape-rendering="geometricPrecision" /></g><g id="Bracket"><path d="M298.86 231.45 L303.97 231.45 L303.97 300.45 L298.86 300.45 " stroke="rgb(0, 0, 0)" stroke-width="0.6" fill-rule="evenodd" stroke-linejoin="miter" fill="none" shape-rendering="geometricPrecision" /></g><g id="Bracket"><path d="M229.58 300.45 L224.47 300.45 L224.47 231.45 L229.58 231.45 " stroke="rgb(0, 0, 0)" stroke-width="0.6" fill-rule="evenodd" stroke-linejoin="miter" fill="none" shape-rendering="geometricPrecision" /></g><g id="Charge188"><line x1="312.22" y1="230.4" x2="312.22" y2="243" stroke="rgb(0, 0, 0)" stroke-width="0.48" shape-rendering="auto" /><line x1="308.92" y1="233.7" x2="315.52" y2="233.7" stroke="rgb(0, 0, 0)" stroke-width="0.48" shape-rendering="auto" /><line x1="308.92" y1="239.7" x2="315.52" y2="239.7" stroke="rgb(0, 0, 0)" stroke-width="0.48" shape-rendering="auto" /></g><g id="Solid"><path d="M280.05 240.82 L280.05 240.82 L279.75 240.64 L279.67 240.34 L292.07 233.18 L292.22 233.44 L292.37 233.7 Z" stroke="rgb(0, 0, 0)" stroke-width="0" fill-rule="evenodd" stroke-linejoin="miter" fill="rgb(0, 0, 0)" shape-rendering="geometricPrecision" /></g><g id="Solid"><path d="M256 259.11 L256 259.11 L255.58 258.81 L255.75 258.51 L269.98 258.51 L269.98 258.81 L269.98 259.11 Z" stroke="rgb(0, 0, 0)" stroke-width="0" fill-rule="evenodd" stroke-linejoin="miter" fill="rgb(0, 0, 0)" shape-rendering="geometricPrecision" /></g></g></g></svg>