<?xml version="1.0"?><svg xmlns="http://www.w3.org/2000/svg" xmlns:xlink="http://www.w3.org/1999/xlink" viewBox="267.22 252 51.31 59.27" preserveAspectRatio="xMidYMid" width="100%" height="100%"><clipPath id="4560"><rect x="0.3" y="0.3" width="522.72" height="769.32" /></clipPath><g id="drawing"><rect x="267.22" y="252" width="100%" height="100%" fill="rgb(255, 255, 255)" /><g id="page" clip-path="url(#4560)"><g id="Solid"><path d="M267.22 274.53 L267.22 274.53 L267.52 274.7 L267.82 274.87 L267.82 288.93 L267.52 289.1 L267.22 289.27 Z" stroke="rgb(0, 0, 0)" stroke-width="0" fill-rule="evenodd" stroke-linejoin="miter" fill="rgb(0, 0, 0)" shape-rendering="geometricPrecision" /><line x1="270.11" y1="276.2" x2="270.11" y2="287.6" stroke="rgb(0, 0, 0)" stroke-width="0.6" shape-rendering="auto" /></g><g id="Solid"><path d="M267.22 289.27 L267.22 289.27 L267.52 289.1 L267.82 288.93 L280 295.95 L280 296.3 L280 296.65 Z" stroke="rgb(0, 0, 0)" stroke-width="0" fill-rule="evenodd" stroke-linejoin="miter" fill="rgb(0, 0, 0)" shape-rendering="geometricPrecision" /></g><g id="Solid"><path d="M280 296.65 L280 296.65 L280 296.3 L280 295.95 L292.17 288.93 L292.47 289.1 L292.5 289.43 Z" stroke="rgb(0, 0, 0)" stroke-width="0" fill-rule="evenodd" stroke-linejoin="miter" fill="rgb(0, 0, 0)" shape-rendering="geometricPrecision" /></g><g id="Solid"><path d="M292.77 288.88 L292.77 288.88 L292.47 289.1 L292.17 288.93 L292.17 274.87 L292.47 274.7 L292.77 274.92 Z" stroke="rgb(0, 0, 0)" stroke-width="0" fill-rule="evenodd" stroke-linejoin="miter" fill="rgb(0, 0, 0)" shape-rendering="geometricPrecision" /></g><g id="Solid"><path d="M292.12 274.15 L292.12 274.15 L292.47 274.7 L292.17 274.87 L280 267.85 L280 267.5 L280 267.15 Z" stroke="rgb(0, 0, 0)" stroke-width="0" fill-rule="evenodd" stroke-linejoin="miter" fill="rgb(0, 0, 0)" shape-rendering="geometricPrecision" /></g><g id="Solid"><path d="M280 267.15 L280 267.15 L280 267.5 L280 267.85 L267.82 274.87 L267.52 274.7 L267.22 274.53 Z" stroke="rgb(0, 0, 0)" stroke-width="0" fill-rule="evenodd" stroke-linejoin="miter" fill="rgb(0, 0, 0)" shape-rendering="geometricPrecision" /></g><g><text xml:space="preserve" text-anchor="start" text-rendering="geometricPrecision"><tspan x="310.73" y="285.8" font-family="Arial" font-size="10" fill="rgb(0, 0, 0)">O</tspan></text></g><g id="Solid"><path d="M292.5 289.43 L292.5 289.43 L292.47 289.1 L292.77 288.88 L306.05 293.2 L306.16 293.55 L306.27 293.9 Z" stroke="rgb(0, 0, 0)" stroke-width="0" fill-rule="evenodd" stroke-linejoin="miter" fill="rgb(0, 0, 0)" shape-rendering="geometricPrecision" /></g><g id="Solid"><path d="M306.27 293.9 L306.27 293.9 L306.16 293.55 L306.05 293.2 L311.02 286.36 L311.26 286.54 L311.5 286.71 Z" stroke="rgb(0, 0, 0)" stroke-width="0" fill-rule="evenodd" stroke-linejoin="miter" fill="rgb(0, 0, 0)" shape-rendering="geometricPrecision" /></g><g id="Solid"><path d="M311.9 277.63 L311.9 277.63 L311.65 277.81 L311.41 277.98 L306.05 270.6 L306.16 270.25 L306.27 269.9 Z" stroke="rgb(0, 0, 0)" stroke-width="0" fill-rule="evenodd" stroke-linejoin="miter" fill="rgb(0, 0, 0)" shape-rendering="geometricPrecision" /></g><g id="Solid"><path d="M306.27 269.9 L306.27 269.9 L306.16 270.25 L306.05 270.6 L292.77 274.92 L292.47 274.7 L292.81 274.28 Z" stroke="rgb(0, 0, 0)" stroke-width="0" fill-rule="evenodd" stroke-linejoin="miter" fill="rgb(0, 0, 0)" shape-rendering="geometricPrecision" /></g><g><text xml:space="preserve" text-anchor="start" text-rendering="geometricPrecision"><tspan x="306.71" y="260.46" font-family="Arial" font-size="10" fill="rgb(0, 0, 0)">O</tspan></text></g><g id="Solid"><line x1="304.93" y1="269.85" x2="307.57" y2="261.72" stroke="rgb(0, 0, 0)" stroke-width="0.6" shape-rendering="auto" /><path d="M307 270.89 L307 270.89 L307.43 271.49 L310.32 262.61 L309.75 262.43 Z" stroke="rgb(0, 0, 0)" stroke-width="0" fill-rule="evenodd" stroke-linejoin="miter" fill="rgb(0, 0, 0)" shape-rendering="geometricPrecision" /><path d="M304.4 270.51 L304.4 270.51 L305.1 270.28 L307.86 261.81 L307.28 261.63 Z" stroke="rgb(0, 0, 0)" stroke-width="0" fill-rule="evenodd" stroke-linejoin="miter" fill="rgb(0, 0, 0)" shape-rendering="geometricPrecision" /></g><g><text xml:space="preserve" text-anchor="start" text-rendering="geometricPrecision"><tspan x="306.71" y="311.15" font-family="Arial" font-size="10" fill="rgb(0, 0, 0)">O</tspan></text></g><g id="Solid"><line x1="307.39" y1="293.15" x2="310.26" y2="301.98" stroke="rgb(0, 0, 0)" stroke-width="0.6" shape-rendering="auto" /><path d="M305.1 293.52 L305.1 293.52 L304.4 293.29 L307.51 302.87 L308.08 302.69 Z" stroke="rgb(0, 0, 0)" stroke-width="0" fill-rule="evenodd" stroke-linejoin="miter" fill="rgb(0, 0, 0)" shape-rendering="geometricPrecision" /><path d="M307.43 292.31 L307.43 292.31 L307 292.91 L309.98 302.07 L310.55 301.89 Z" stroke="rgb(0, 0, 0)" stroke-width="0" fill-rule="evenodd" stroke-linejoin="miter" fill="rgb(0, 0, 0)" shape-rendering="geometricPrecision" /></g><g><text xml:space="preserve" text-anchor="start" text-rendering="geometricPrecision"><tspan x="288.87" y="264.2" font-family="Arial" font-size="10" fill="rgb(0, 0, 0)">H</tspan></text></g><g id="WedgeBegin"><path d="M292.81 274.28 L292.81 274.28 L292.47 274.7 L292.12 274.15 L290.97 265.8 L292.47 265.8 L293.97 265.8 Z" stroke="rgb(0, 0, 0)" stroke-width="0" fill-rule="evenodd" stroke-linejoin="miter" fill="rgb(0, 0, 0)" shape-rendering="geometricPrecision" /></g><g><text xml:space="preserve" text-anchor="start" text-rendering="geometricPrecision"><tspan x="288.87" y="307.4" font-family="Arial" font-size="10" fill="rgb(0, 0, 0)">H</tspan></text></g><g id="Wedged Hash Begin Bond"><path d="M292.17 289.1 L292.17 289.1 L292.77 289.1 L292.85 289.7 L292.09 289.7 Z" stroke="rgb(0, 0, 0)" stroke-width="0" fill-rule="evenodd" stroke-linejoin="miter" fill="rgb(0, 0, 0)" shape-rendering="geometricPrecision" /><path d="M291.8 292.1 L291.8 292.1 L293.15 292.1 L293.22 292.7 L291.72 292.7 Z" stroke="rgb(0, 0, 0)" stroke-width="0" fill-rule="evenodd" stroke-linejoin="miter" fill="rgb(0, 0, 0)" shape-rendering="geometricPrecision" /><path d="M291.42 295.1 L291.42 295.1 L293.52 295.1 L293.6 295.7 L291.35 295.7 Z" stroke="rgb(0, 0, 0)" stroke-width="0" fill-rule="evenodd" stroke-linejoin="miter" fill="rgb(0, 0, 0)" shape-rendering="geometricPrecision" /><path d="M291.05 298.1 L291.05 298.1 L293.9 298.1 L293.97 298.7 L290.97 298.7 Z" stroke="rgb(0, 0, 0)" stroke-width="0" fill-rule="evenodd" stroke-linejoin="miter" fill="rgb(0, 0, 0)" shape-rendering="geometricPrecision" /></g></g></g></svg>