<?xml version="1.0"?><svg xmlns="http://www.w3.org/2000/svg" xmlns:xlink="http://www.w3.org/1999/xlink" viewBox="365.47 252.75 51.31 59.27" preserveAspectRatio="xMidYMid" width="100%" height="100%"><clipPath id="4588"><rect x="0.3" y="0.3" width="522.72" height="769.32" /></clipPath><g id="drawing"><rect x="365.47" y="252.75" width="100%" height="100%" fill="rgb(255, 255, 255)" /><g id="page" clip-path="url(#4588)"><g id="Solid"><path d="M365.47 275.28 L365.47 275.28 L365.77 275.45 L366.07 275.62 L366.07 289.68 L365.77 289.85 L365.47 290.02 Z" stroke="rgb(0, 0, 0)" stroke-width="0" fill-rule="evenodd" stroke-linejoin="miter" fill="rgb(0, 0, 0)" shape-rendering="geometricPrecision" /><line x1="368.36" y1="276.95" x2="368.36" y2="288.35" stroke="rgb(0, 0, 0)" stroke-width="0.6" shape-rendering="auto" /></g><g id="Solid"><path d="M365.47 290.02 L365.47 290.02 L365.77 289.85 L366.07 289.68 L378.25 296.7 L378.25 297.05 L378.25 297.4 Z" stroke="rgb(0, 0, 0)" stroke-width="0" fill-rule="evenodd" stroke-linejoin="miter" fill="rgb(0, 0, 0)" shape-rendering="geometricPrecision" /></g><g id="Solid"><path d="M378.25 297.4 L378.25 297.4 L378.25 297.05 L378.25 296.7 L390.42 289.68 L390.72 289.85 L390.75 290.18 Z" stroke="rgb(0, 0, 0)" stroke-width="0" fill-rule="evenodd" stroke-linejoin="miter" fill="rgb(0, 0, 0)" shape-rendering="geometricPrecision" /></g><g id="Solid"><path d="M391.02 289.63 L391.02 289.63 L390.72 289.85 L390.42 289.68 L390.42 275.62 L390.72 275.45 L391.02 275.67 Z" stroke="rgb(0, 0, 0)" stroke-width="0" fill-rule="evenodd" stroke-linejoin="miter" fill="rgb(0, 0, 0)" shape-rendering="geometricPrecision" /></g><g id="Solid"><path d="M390.75 275.12 L390.75 275.12 L390.72 275.45 L390.42 275.62 L378.25 268.6 L378.25 268.25 L378.25 267.9 Z" stroke="rgb(0, 0, 0)" stroke-width="0" fill-rule="evenodd" stroke-linejoin="miter" fill="rgb(0, 0, 0)" shape-rendering="geometricPrecision" /></g><g id="Solid"><path d="M378.25 267.9 L378.25 267.9 L378.25 268.25 L378.25 268.6 L366.07 275.62 L365.77 275.45 L365.47 275.28 Z" stroke="rgb(0, 0, 0)" stroke-width="0" fill-rule="evenodd" stroke-linejoin="miter" fill="rgb(0, 0, 0)" shape-rendering="geometricPrecision" /></g><g><text xml:space="preserve" text-anchor="start" text-rendering="geometricPrecision"><tspan x="408.98" y="286.55" font-family="Arial" font-size="10" fill="rgb(0, 0, 0)">O</tspan></text></g><g id="Solid"><path d="M390.75 290.18 L390.75 290.18 L390.72 289.85 L391.02 289.63 L404.3 293.95 L404.41 294.3 L404.52 294.65 Z" stroke="rgb(0, 0, 0)" stroke-width="0" fill-rule="evenodd" stroke-linejoin="miter" fill="rgb(0, 0, 0)" shape-rendering="geometricPrecision" /></g><g id="Solid"><path d="M404.52 294.65 L404.52 294.65 L404.41 294.3 L404.3 293.95 L409.26 287.12 L409.5 287.29 L409.75 287.47 Z" stroke="rgb(0, 0, 0)" stroke-width="0" fill-rule="evenodd" stroke-linejoin="miter" fill="rgb(0, 0, 0)" shape-rendering="geometricPrecision" /></g><g id="Solid"><path d="M410.11 278.33 L410.11 278.33 L409.87 278.51 L409.62 278.68 L404.3 271.35 L404.41 271 L404.52 270.65 Z" stroke="rgb(0, 0, 0)" stroke-width="0" fill-rule="evenodd" stroke-linejoin="miter" fill="rgb(0, 0, 0)" shape-rendering="geometricPrecision" /></g><g id="Solid"><path d="M404.52 270.65 L404.52 270.65 L404.41 271 L404.3 271.35 L391.02 275.67 L390.72 275.45 L390.75 275.12 Z" stroke="rgb(0, 0, 0)" stroke-width="0" fill-rule="evenodd" stroke-linejoin="miter" fill="rgb(0, 0, 0)" shape-rendering="geometricPrecision" /></g><g><text xml:space="preserve" text-anchor="start" text-rendering="geometricPrecision"><tspan x="404.96" y="261.21" font-family="Arial" font-size="10" fill="rgb(0, 0, 0)">O</tspan></text></g><g id="Solid"><line x1="403.18" y1="270.6" x2="405.8" y2="262.52" stroke="rgb(0, 0, 0)" stroke-width="0.6" shape-rendering="auto" /><path d="M405.25 271.64 L405.25 271.64 L405.68 272.24 L408.55 263.41 L407.98 263.23 Z" stroke="rgb(0, 0, 0)" stroke-width="0" fill-rule="evenodd" stroke-linejoin="miter" fill="rgb(0, 0, 0)" shape-rendering="geometricPrecision" /><path d="M402.65 271.26 L402.65 271.26 L403.35 271.03 L406.09 262.61 L405.52 262.43 Z" stroke="rgb(0, 0, 0)" stroke-width="0" fill-rule="evenodd" stroke-linejoin="miter" fill="rgb(0, 0, 0)" shape-rendering="geometricPrecision" /></g><g><text xml:space="preserve" text-anchor="start" text-rendering="geometricPrecision"><tspan x="404.96" y="311.9" font-family="Arial" font-size="10" fill="rgb(0, 0, 0)">O</tspan></text></g><g id="Solid"><line x1="405.64" y1="293.9" x2="408.53" y2="302.78" stroke="rgb(0, 0, 0)" stroke-width="0.6" shape-rendering="auto" /><path d="M403.35 294.27 L403.35 294.27 L402.65 294.04 L405.78 303.67 L406.35 303.49 Z" stroke="rgb(0, 0, 0)" stroke-width="0" fill-rule="evenodd" stroke-linejoin="miter" fill="rgb(0, 0, 0)" shape-rendering="geometricPrecision" /><path d="M405.68 293.06 L405.68 293.06 L405.25 293.66 L408.24 302.87 L408.81 302.69 Z" stroke="rgb(0, 0, 0)" stroke-width="0" fill-rule="evenodd" stroke-linejoin="miter" fill="rgb(0, 0, 0)" shape-rendering="geometricPrecision" /></g><g><text xml:space="preserve" text-anchor="start" text-rendering="geometricPrecision"><tspan x="387.12" y="264.95" font-family="Arial" font-size="10" fill="rgb(0, 0, 0)">H</tspan></text></g><g id="Wedged Hash Begin Bond"><path d="M391.02 275.45 L391.02 275.45 L390.42 275.45 L390.34 274.85 L391.1 274.85 Z" stroke="rgb(0, 0, 0)" stroke-width="0" fill-rule="evenodd" stroke-linejoin="miter" fill="rgb(0, 0, 0)" shape-rendering="geometricPrecision" /><path d="M391.39 272.7 L391.39 272.7 L390.05 272.7 L389.97 272.1 L391.47 272.1 Z" stroke="rgb(0, 0, 0)" stroke-width="0" fill-rule="evenodd" stroke-linejoin="miter" fill="rgb(0, 0, 0)" shape-rendering="geometricPrecision" /><path d="M391.77 269.95 L391.77 269.95 L389.67 269.95 L389.59 269.35 L391.85 269.35 Z" stroke="rgb(0, 0, 0)" stroke-width="0" fill-rule="evenodd" stroke-linejoin="miter" fill="rgb(0, 0, 0)" shape-rendering="geometricPrecision" /><path d="M392.14 267.2 L392.14 267.2 L389.3 267.2 L389.22 266.6 L392.22 266.6 Z" stroke="rgb(0, 0, 0)" stroke-width="0" fill-rule="evenodd" stroke-linejoin="miter" fill="rgb(0, 0, 0)" shape-rendering="geometricPrecision" /></g><g><text xml:space="preserve" text-anchor="start" text-rendering="geometricPrecision"><tspan x="387.12" y="308.15" font-family="Arial" font-size="10" fill="rgb(0, 0, 0)">H</tspan></text></g><g id="Wedged Hash Begin Bond"><path d="M390.42 289.85 L390.42 289.85 L391.02 289.85 L391.1 290.45 L390.34 290.45 Z" stroke="rgb(0, 0, 0)" stroke-width="0" fill-rule="evenodd" stroke-linejoin="miter" fill="rgb(0, 0, 0)" shape-rendering="geometricPrecision" /><path d="M390.05 292.83 L390.05 292.83 L391.39 292.83 L391.47 293.43 L389.97 293.43 Z" stroke="rgb(0, 0, 0)" stroke-width="0" fill-rule="evenodd" stroke-linejoin="miter" fill="rgb(0, 0, 0)" shape-rendering="geometricPrecision" /><path d="M389.67 295.82 L389.67 295.82 L391.77 295.82 L391.85 296.42 L389.59 296.42 Z" stroke="rgb(0, 0, 0)" stroke-width="0" fill-rule="evenodd" stroke-linejoin="miter" fill="rgb(0, 0, 0)" shape-rendering="geometricPrecision" /><path d="M389.3 298.8 L389.3 298.8 L392.14 298.8 L392.22 299.4 L389.22 299.4 Z" stroke="rgb(0, 0, 0)" stroke-width="0" fill-rule="evenodd" stroke-linejoin="miter" fill="rgb(0, 0, 0)" shape-rendering="geometricPrecision" /></g></g></g></svg>