<?xml version="1.0"?><svg xmlns="http://www.w3.org/2000/svg" xmlns:xlink="http://www.w3.org/1999/xlink" viewBox="46.14 23.25 129.43 71.55" preserveAspectRatio="xMidYMid" width="100%" height="100%"><clipPath id="4590"><rect x="0.3" y="0.3" width="539.4" height="719.15" /></clipPath><g id="drawing"><rect x="46.14" y="23.25" width="100%" height="100%" fill="rgb(255, 255, 255)" /><g id="page" clip-path="url(#4590)"><g id="Solid"><path d="M85.82 30 L85.82 30 L85.74 29.7 L85.66 29.4 L104.2 29.4 L103.89 29.7 L103.58 30 Z" stroke="rgb(0, 0, 255)" stroke-width="0" fill-rule="evenodd" stroke-linejoin="miter" fill="rgb(0, 0, 255)" shape-rendering="geometricPrecision" /><line x1="86.61" y1="32.97" x2="100.53" y2="32.97" stroke="rgb(0, 0, 255)" stroke-width="0.6" shape-rendering="auto" /></g><g id="Solid"><path d="M85.66 29.4 L85.66 29.4 L85.74 29.7 L85.82 30 L73.67 37.01 L73.26 36.9 L72.85 36.79 Z" stroke="rgb(0, 0, 255)" stroke-width="0" fill-rule="evenodd" stroke-linejoin="miter" fill="rgb(0, 0, 255)" shape-rendering="geometricPrecision" /></g><g id="Solid"><path d="M72.85 36.79 L72.85 36.79 L73.26 36.9 L73.67 37.01 L79.98 47.74 L79.71 47.87 L79.44 48 Z" stroke="rgb(0, 0, 255)" stroke-width="0" fill-rule="evenodd" stroke-linejoin="miter" fill="rgb(0, 0, 255)" shape-rendering="geometricPrecision" /><line x1="76.41" y1="37.73" x2="81.68" y2="46.71" stroke="rgb(0, 0, 255)" stroke-width="0.6" shape-rendering="auto" /></g><g id="Solid"><path d="M90.84 79.2 L90.84 79.2 L90.24 79.2 L90.41 78.76 L101.93 72.1 L102.71 72 L102.79 72.3 Z" stroke="rgb(0, 0, 255)" stroke-width="0" fill-rule="evenodd" stroke-linejoin="miter" fill="rgb(0, 0, 255)" shape-rendering="geometricPrecision" /><line x1="91.69" y1="75.37" x2="96" y2="72.88" stroke="rgb(0, 0, 255)" stroke-width="0.6" shape-rendering="auto" /></g><g id="Solid"><path d="M89.82 78.9 L89.82 78.9 L90.24 79.2 L90.16 79.5 L75.57 79.5 L75.84 79.2 L76.11 78.9 Z" stroke="rgb(0, 0, 255)" stroke-width="0" fill-rule="evenodd" stroke-linejoin="miter" fill="rgb(0, 0, 255)" shape-rendering="geometricPrecision" /></g><g id="Solid"><g id="Bond's parts"><path d="M88.9 67.95 L88.9 67.95 L88.93 68 L89.35 68.1 L89.75 68.2 L90.05 68.3 L90.45 68.4 L90.85 68.5 L91.15 68.6 L91.55 68.7 L91.95 68.8 L92.35 68.9 L92.65 69 L93.05 69.1 L93.45 69.2 L93.85 69.3 L94.15 69.4 L94.55 69.5 L94.95 69.6 L95.25 69.7 L95.65 69.8 L96.05 69.9 L96.45 70 L96.75 70.1 L97.15 70.2 L97.55 70.3 L97.95 70.4 L98.25 70.5 L98.65 70.6 L99.05 70.7 L99.35 70.8 L99.75 70.9 L100.15 71 L100.55 71.1 L100.85 71.2 L101.25 71.3 L101.65 71.4 L101.95 71.5 L102.38 71.6 L102.45 71.7 L102.55 71.8 L102.65 71.9 L102.72 72 L101.55 72 L101.15 71.9 L100.85 71.8 L100.45 71.7 L100.05 71.6 L99.65 71.5 L99.35 71.4 L98.95 71.3 L98.55 71.2 L98.25 71.1 L97.85 71 L97.45 70.9 L97.05 70.8 L96.75 70.7 L96.35 70.6 L95.95 70.5 L95.55 70.4 L95.25 70.3 L94.85 70.2 L94.45 70.1 L94.05 70 L93.75 69.9 L93.35 69.8 L92.95 69.7 L92.65 69.6 L92.25 69.5 L91.85 69.4 L91.45 69.3 L91.15 69.2 L90.75 69.1 L90.35 69 L89.95 68.9 L89.65 68.8 L89.25 68.7 L88.82 68.6 L88.8 68.55 Z" stroke="rgb(0, 0, 255)" stroke-width="0" fill-rule="evenodd" stroke-linejoin="miter" fill="rgb(0, 0, 255)" shape-rendering="geometricPrecision" /></g></g><g><text xml:space="preserve" text-anchor="start" text-rendering="geometricPrecision"><tspan x="70.99" y="74.4" font-family="Arial" font-size="10" fill="rgb(0, 0, 255)">O</tspan></text></g><g id="Solid"><g id="Bond's parts"><path d="M88.55 67.95 L88.55 67.95 L88.85 67.95 L88.8 68.25 L88.7 68.55 Z" stroke="rgb(0, 0, 255)" stroke-width="0" fill-rule="evenodd" stroke-linejoin="miter" fill="rgb(0, 0, 255)" shape-rendering="geometricPrecision" /><path d="M84.25 68.7 L84.25 68.7 L84.75 68.65 L84.8 68.95 L84.85 69.25 L84.25 69.3 L83.65 69.4 L83.05 69.5 L82.35 69.6 L81.75 69.7 L81.15 69.8 L80.55 69.9 L79.93 69.9 L79.9 69.85 L79.85 69.35 L80.45 69.3 L81.15 69.2 L81.75 69.1 L82.35 69 L82.95 68.9 L83.65 68.8 Z" stroke="rgb(0, 0, 255)" stroke-width="0" fill-rule="evenodd" stroke-linejoin="miter" fill="rgb(0, 0, 255)" shape-rendering="geometricPrecision" /></g></g><g id="Solid"><path d="M75.17 75.78 L75.17 75.78 L75.46 75.75 L75.76 75.72 L76.11 78.9 L75.84 79.2 L75.57 79.5 Z" stroke="rgb(0, 0, 255)" stroke-width="0" fill-rule="evenodd" stroke-linejoin="miter" fill="rgb(0, 0, 255)" shape-rendering="geometricPrecision" /></g><g><text xml:space="preserve" text-anchor="start" text-rendering="geometricPrecision"><tspan x="59.44" y="87.93" font-family="Arial" font-size="10" fill="rgb(0, 0, 255)">O</tspan></text></g><g id="Solid"><line x1="76.27" y1="80.32" x2="68.73" y2="83.24" stroke="rgb(0, 0, 255)" stroke-width="0.6" shape-rendering="auto" /><path d="M75.45 78.38 L75.45 78.38 L75.38 77.76 L67.75 80.71 L67.97 81.27 Z" stroke="rgb(0, 0, 255)" stroke-width="0" fill-rule="evenodd" stroke-linejoin="miter" fill="rgb(0, 0, 255)" shape-rendering="geometricPrecision" /><path d="M79.24 79.5 L79.24 79.5 L77.58 79.5 L68.62 82.96 L68.84 83.52 Z" stroke="rgb(0, 0, 255)" stroke-width="0" fill-rule="evenodd" stroke-linejoin="miter" fill="rgb(0, 0, 255)" shape-rendering="geometricPrecision" /></g><g><text xml:space="preserve" text-anchor="start" text-rendering="geometricPrecision"><tspan x="84.9" y="64.52" font-family="Arial" font-size="10" fill="rgb(0, 0, 255)">O</tspan></text></g><g id="Solid"><g id="Bond's parts"><path d="M87.75 65.55 L87.75 65.55 L88.35 65.55 L88.3 67.45 L88.2 67.15 L88.1 66.85 L88 66.55 L87.9 66.25 Z" stroke="rgb(0, 0, 255)" stroke-width="0" fill-rule="evenodd" stroke-linejoin="miter" fill="rgb(0, 0, 255)" shape-rendering="geometricPrecision" /><path d="M89.25 65.55 L89.25 65.55 L89.85 65.55 L89.85 68.25 L89.65 68.2 L89.32 68.1 Z" stroke="rgb(0, 0, 255)" stroke-width="0" fill-rule="evenodd" stroke-linejoin="miter" fill="rgb(0, 0, 255)" shape-rendering="geometricPrecision" /></g></g><g id="Dash"><path d="M80.23 50.36 L80.23 50.36 L80.8 50.17 L79.98 47.74 L79.71 47.87 L79.44 48 Z" stroke="rgb(0, 0, 255)" stroke-width="0" fill-rule="evenodd" stroke-linejoin="miter" fill="rgb(0, 0, 255)" shape-rendering="geometricPrecision" /><path d="M89.03 76.53 L89.03 76.53 L89.59 76.34 L90.41 78.76 L90.24 79.2 L89.82 78.9 Z" stroke="rgb(0, 0, 255)" stroke-width="0" fill-rule="evenodd" stroke-linejoin="miter" fill="rgb(0, 0, 255)" shape-rendering="geometricPrecision" /><path d="M81.03 52.75 L81.03 52.75 L81.83 55.12 L82.4 54.93 L81.6 52.56 Z" stroke="rgb(0, 0, 255)" stroke-width="0" fill-rule="evenodd" stroke-linejoin="miter" fill="rgb(0, 0, 255)" shape-rendering="geometricPrecision" /><path d="M82.63 57.51 L82.63 57.51 L83.43 59.88 L84 59.69 L83.2 57.32 Z" stroke="rgb(0, 0, 255)" stroke-width="0" fill-rule="evenodd" stroke-linejoin="miter" fill="rgb(0, 0, 255)" shape-rendering="geometricPrecision" /><path d="M84.23 62.26 L84.23 62.26 L85.03 64.63 L85.6 64.44 L84.8 62.07 Z" stroke="rgb(0, 0, 255)" stroke-width="0" fill-rule="evenodd" stroke-linejoin="miter" fill="rgb(0, 0, 255)" shape-rendering="geometricPrecision" /><path d="M85.83 67.02 L85.83 67.02 L86.63 69.39 L87.19 69.2 L86.4 66.83 Z" stroke="rgb(0, 0, 255)" stroke-width="0" fill-rule="evenodd" stroke-linejoin="miter" fill="rgb(0, 0, 255)" shape-rendering="geometricPrecision" /><path d="M87.43 71.77 L87.43 71.77 L88.22 74.14 L88.79 73.95 L88 71.58 Z" stroke="rgb(0, 0, 255)" stroke-width="0" fill-rule="evenodd" stroke-linejoin="miter" fill="rgb(0, 0, 255)" shape-rendering="geometricPrecision" /></g><g id="Dash"><path d="M103.51 32.5 L103.51 32.5 L104.11 32.52 L104.2 29.4 L103.89 29.7 L103.58 30 Z" stroke="rgb(0, 0, 255)" stroke-width="0" fill-rule="evenodd" stroke-linejoin="miter" fill="rgb(0, 0, 255)" shape-rendering="geometricPrecision" /><path d="M102.49 69.11 L102.49 69.11 L103.09 69.13 L103.02 71.7 L102.71 72 L102.42 71.61 Z" stroke="rgb(0, 0, 255)" stroke-width="0" fill-rule="evenodd" stroke-linejoin="miter" fill="rgb(0, 0, 255)" shape-rendering="geometricPrecision" /><path d="M103.43 35.59 L103.43 35.59 L103.36 38.09 L103.96 38.1 L104.03 35.6 Z" stroke="rgb(0, 0, 255)" stroke-width="0" fill-rule="evenodd" stroke-linejoin="miter" fill="rgb(0, 0, 255)" shape-rendering="geometricPrecision" /><path d="M103.27 41.18 L103.27 41.18 L103.2 43.67 L103.8 43.69 L103.87 41.19 Z" stroke="rgb(0, 0, 255)" stroke-width="0" fill-rule="evenodd" stroke-linejoin="miter" fill="rgb(0, 0, 255)" shape-rendering="geometricPrecision" /><path d="M103.11 46.76 L103.11 46.76 L103.04 49.26 L103.64 49.28 L103.71 46.78 Z" stroke="rgb(0, 0, 255)" stroke-width="0" fill-rule="evenodd" stroke-linejoin="miter" fill="rgb(0, 0, 255)" shape-rendering="geometricPrecision" /><path d="M102.96 52.35 L102.96 52.35 L102.89 54.85 L103.49 54.87 L103.56 52.37 Z" stroke="rgb(0, 0, 255)" stroke-width="0" fill-rule="evenodd" stroke-linejoin="miter" fill="rgb(0, 0, 255)" shape-rendering="geometricPrecision" /><path d="M102.8 57.94 L102.8 57.94 L102.73 60.44 L103.33 60.45 L103.4 57.95 Z" stroke="rgb(0, 0, 255)" stroke-width="0" fill-rule="evenodd" stroke-linejoin="miter" fill="rgb(0, 0, 255)" shape-rendering="geometricPrecision" /><path d="M102.65 63.53 L102.65 63.53 L102.58 66.02 L103.18 66.04 L103.25 63.54 Z" stroke="rgb(0, 0, 255)" stroke-width="0" fill-rule="evenodd" stroke-linejoin="miter" fill="rgb(0, 0, 255)" shape-rendering="geometricPrecision" /></g><g id="Bracket"><path d="M121.13 25.2 L126.24 25.2 L126.24 94.2 L121.13 94.2 " stroke="rgb(0, 0, 255)" stroke-width="0.6" fill-rule="evenodd" stroke-linejoin="miter" fill="none" shape-rendering="geometricPrecision" /></g><g id="Bracket"><path d="M51.85 94.2 L46.74 94.2 L46.74 25.2 L51.85 25.2 " stroke="rgb(0, 0, 255)" stroke-width="0.6" fill-rule="evenodd" stroke-linejoin="miter" fill="none" shape-rendering="geometricPrecision" /></g><g id="Charge188"><line x1="134.49" y1="24.15" x2="134.49" y2="36.75" stroke="rgb(0, 0, 255)" stroke-width="0.48" shape-rendering="auto" /><line x1="131.19" y1="27.45" x2="137.79" y2="27.45" stroke="rgb(0, 0, 255)" stroke-width="0.48" shape-rendering="auto" /><line x1="131.19" y1="33.45" x2="137.79" y2="33.45" stroke="rgb(0, 0, 255)" stroke-width="0.48" shape-rendering="auto" /></g><g id="Solid"><path d="M160.05 91.05 L160.05 91.05 L160.05 90.75 L160.05 90.45 L173.33 90.45 L174.45 90.75 L175.57 91.05 Z" stroke="rgb(0, 0, 255)" stroke-width="0" fill-rule="evenodd" stroke-linejoin="miter" fill="rgb(0, 0, 255)" shape-rendering="geometricPrecision" /></g><g id="Solid"><path d="M175.57 91.05 L175.57 91.05 L174.45 90.75 L173.33 90.45 L161.82 83.81 L161.97 83.55 L162.12 83.29 Z" stroke="rgb(0, 0, 255)" stroke-width="0" fill-rule="evenodd" stroke-linejoin="miter" fill="rgb(0, 0, 255)" shape-rendering="geometricPrecision" /></g><path d="M166.11 86.31 C164.64 86.99 163.94 88.9 164.62 90.36 " stroke="rgb(0, 0, 255)" stroke-width="0.6" fill-rule="evenodd" stroke-linejoin="bevel" fill="none" shape-rendering="geometricPrecision" /><g id="Arrow"><g id="Equilibrium Arrow"><line x1="150.12" y1="84.04" x2="156.99" y2="88" stroke="rgb(0, 0, 255)" stroke-width="0.6" shape-rendering="auto" /><line x1="151.92" y1="80.92" x2="158.79" y2="84.88" stroke="rgb(0, 0, 255)" stroke-width="0.6" shape-rendering="auto" /></g><path d="M150.78 86.5 L149.46 81.58 L154.38 80.26 " stroke="rgb(0, 0, 255)" stroke-width="0.6" fill-rule="evenodd" stroke-linejoin="miter" stroke-miterlimit="3.74573353910337" fill="none" shape-rendering="geometricPrecision" /></g><g><text xml:space="preserve" text-anchor="start" text-rendering="geometricPrecision"><tspan x="99.11" y="90.3" font-family="Arial" font-size="10" fill="rgb(0, 0, 255)">H</tspan></text></g><g id="Solid"><path d="M90.16 79.5 L90.16 79.5 L90.24 79.2 L90.84 79.2 L98.76 83.78 L98.61 84.04 L98.46 84.3 Z" stroke="rgb(0, 0, 255)" stroke-width="0" fill-rule="evenodd" stroke-linejoin="miter" fill="rgb(0, 0, 255)" shape-rendering="geometricPrecision" /></g><g id="Solid"><path d="M102.79 72.3 L102.79 72.3 L102.71 72 L103.02 71.7 L112.8 71.7 L112.8 72 L112.8 72.3 Z" stroke="rgb(0, 0, 255)" stroke-width="0" fill-rule="evenodd" stroke-linejoin="miter" fill="rgb(0, 0, 255)" shape-rendering="geometricPrecision" /></g><g><text xml:space="preserve" text-anchor="start" text-rendering="geometricPrecision"><tspan x="113.51" y="75.9" font-family="Arial" font-size="10" fill="rgb(0, 0, 255)">H</tspan></text></g></g></g></svg>