<?xml version="1.0"?><svg xmlns="http://www.w3.org/2000/svg" xmlns:xlink="http://www.w3.org/1999/xlink" viewBox="160.89 236.95 206.4 51.01" preserveAspectRatio="xMidYMid" width="100%" height="100%"><clipPath id="328"><rect x="0.3" y="0.3" width="522.6" height="769.08" /></clipPath><g id="drawing"><rect x="160.89" y="236.95" width="100%" height="100%" fill="rgb(255, 255, 255)" /><g id="page" clip-path="url(#328)"><g id="Solid"><path d="M173.51 264.21 L173.51 264.21 L173.51 263.86 L173.51 263.51 L185.68 256.49 L185.98 256.66 L185.98 257.01 Z" stroke="rgb(0, 0, 0)" stroke-width="0" fill-rule="evenodd" stroke-linejoin="miter" fill="rgb(0, 0, 0)" shape-rendering="geometricPrecision" /><line x1="173.51" y1="260.87" x2="183.39" y2="255.16" stroke="rgb(0, 0, 0)" stroke-width="0.6" shape-rendering="auto" /></g><g><text xml:space="preserve" text-anchor="start" text-rendering="geometricPrecision"><tspan x="194.55" y="267.76" font-family="Arial" font-size="10" fill="rgb(0, 0, 0)">O</tspan></text></g><g id="Solid"><path d="M185.98 257.01 L185.98 257.01 L185.98 256.66 L186.28 256.49 L194.26 261.1 L194.11 261.36 L193.96 261.62 Z" stroke="rgb(0, 0, 0)" stroke-width="0" fill-rule="evenodd" stroke-linejoin="miter" fill="rgb(0, 0, 0)" shape-rendering="geometricPrecision" /></g><g><text xml:space="preserve" text-anchor="start" text-rendering="geometricPrecision"><tspan x="182.08" y="246.16" font-family="Arial" font-size="10" fill="rgb(0, 0, 0)">OMe</tspan></text></g><g id="Solid"><path d="M186.28 256.49 L186.28 256.49 L185.98 256.66 L185.68 256.49 L185.68 247.9 L185.98 247.9 L186.28 247.9 Z" stroke="rgb(0, 0, 0)" stroke-width="0" fill-rule="evenodd" stroke-linejoin="miter" fill="rgb(0, 0, 0)" shape-rendering="geometricPrecision" /></g><g id="Solid"><path d="M198.15 269.5 L198.15 269.5 L198.45 269.5 L198.75 269.5 L198.75 278.43 L198.45 278.26 L198.15 278.09 Z" stroke="rgb(0, 0, 0)" stroke-width="0" fill-rule="evenodd" stroke-linejoin="miter" fill="rgb(0, 0, 0)" shape-rendering="geometricPrecision" /></g><g id="Solid"><path d="M198.15 278.09 L198.15 278.09 L198.45 278.26 L198.75 278.43 L185.98 285.81 L185.98 285.46 L185.98 285.11 Z" stroke="rgb(0, 0, 0)" stroke-width="0" fill-rule="evenodd" stroke-linejoin="miter" fill="rgb(0, 0, 0)" shape-rendering="geometricPrecision" /></g><g id="Solid"><path d="M185.98 285.11 L185.98 285.11 L185.98 285.46 L185.98 285.81 L173.51 278.61 L173.51 278.26 L173.51 277.91 Z" stroke="rgb(0, 0, 0)" stroke-width="0" fill-rule="evenodd" stroke-linejoin="miter" fill="rgb(0, 0, 0)" shape-rendering="geometricPrecision" /><line x1="185.98" y1="282.47" x2="174.81" y2="276.02" stroke="rgb(0, 0, 0)" stroke-width="0.6" shape-rendering="auto" /></g><g id="Arrow"><line x1="294.63" y1="270.61" x2="241.01" y2="270.61" stroke="rgb(0, 0, 0)" stroke-width="0.6" shape-rendering="auto" /><path d="M298.88 270.61 L292.88 269.11 C294.07 269.95 294.07 271.27 292.88 272.11 Z" stroke="rgb(0, 0, 0)" stroke-width="0" fill-rule="evenodd" stroke-linejoin="miter" stroke-miterlimit="6.93525005514877" fill="rgb(0, 0, 0)" shape-rendering="geometricPrecision" /></g><g><text xml:space="preserve" text-anchor="start" text-rendering="geometricPrecision"><tspan x="265.76" y="265.36" font-family="Symbol" font-size="10" fill="rgb(0, 0, 0)">D</tspan></text></g><g id="Solid"><path d="M337.31 263.28 L337.31 263.28 L337.01 263.11 L337.01 262.76 L349.18 255.74 L349.48 255.91 L349.78 256.08 Z" stroke="rgb(0, 0, 0)" stroke-width="0" fill-rule="evenodd" stroke-linejoin="miter" fill="rgb(0, 0, 0)" shape-rendering="geometricPrecision" /></g><g id="Solid"><line x1="350.13" y1="254.79" x2="357.86" y2="259.25" stroke="rgb(0, 0, 0)" stroke-width="0.6" shape-rendering="auto" /><path d="M348.78 256.66 L348.78 256.66 L348.18 257 L356.42 261.76 L356.72 261.24 Z" stroke="rgb(0, 0, 0)" stroke-width="0" fill-rule="evenodd" stroke-linejoin="miter" fill="rgb(0, 0, 0)" shape-rendering="geometricPrecision" /><path d="M349.78 254.24 L349.78 254.24 L349.78 254.93 L357.71 259.51 L358.01 258.99 Z" stroke="rgb(0, 0, 0)" stroke-width="0" fill-rule="evenodd" stroke-linejoin="miter" fill="rgb(0, 0, 0)" shape-rendering="geometricPrecision" /></g><g><text xml:space="preserve" text-anchor="start" text-rendering="geometricPrecision"><tspan x="358.05" y="267.01" font-family="Arial" font-size="10" fill="rgb(0, 0, 0)">O</tspan></text></g><g id="Solid"><path d="M349.78 256.08 L349.78 256.08 L349.48 255.91 L349.18 255.74 L349.18 247.2 L349.48 247.2 L349.78 247.2 Z" stroke="rgb(0, 0, 0)" stroke-width="0" fill-rule="evenodd" stroke-linejoin="miter" fill="rgb(0, 0, 0)" shape-rendering="geometricPrecision" /></g><g><text xml:space="preserve" text-anchor="start" text-rendering="geometricPrecision"><tspan x="345.58" y="245.41" font-family="Arial" font-size="10" fill="rgb(0, 0, 0)">OMe</tspan></text></g><g id="Solid"><path d="M361.8 277.25 L361.8 277.25 L361.95 277.51 L362.1 277.77 L349.48 285.06 L349.48 284.71 L349.48 284.36 Z" stroke="rgb(0, 0, 0)" stroke-width="0" fill-rule="evenodd" stroke-linejoin="miter" fill="rgb(0, 0, 0)" shape-rendering="geometricPrecision" /><line x1="360.65" y1="275.27" x2="349.48" y2="281.72" stroke="rgb(0, 0, 0)" stroke-width="0.6" shape-rendering="auto" /></g><g id="Solid"><path d="M349.48 284.36 L349.48 284.36 L349.48 284.71 L349.48 285.06 L337.01 277.86 L337.01 277.51 L337.31 277.34 Z" stroke="rgb(0, 0, 0)" stroke-width="0" fill-rule="evenodd" stroke-linejoin="miter" fill="rgb(0, 0, 0)" shape-rendering="geometricPrecision" /></g><g id="Solid"><path d="M336.71 263.28 L336.71 263.28 L337.01 263.11 L337.31 263.28 L337.31 277.34 L337.01 277.51 L336.71 277.34 Z" stroke="rgb(0, 0, 0)" stroke-width="0" fill-rule="evenodd" stroke-linejoin="miter" fill="rgb(0, 0, 0)" shape-rendering="geometricPrecision" /></g><g id="Arrow"><path d="M176.26 271.62 C179.92 270.2 182.5 266.43 182.5 262.5 " stroke="rgb(255, 0, 0)" stroke-width="0.6" fill-rule="evenodd" stroke-linejoin="bevel" fill="none" shape-rendering="geometricPrecision" /><path d="M172.72 272.28 L177.67 272.42 C176.51 271.98 176.28 270.96 177.15 270.08 Z" stroke="rgb(255, 0, 0)" stroke-width="0" fill-rule="evenodd" stroke-linejoin="miter" stroke-miterlimit="6.93525005514895" fill="rgb(255, 0, 0)" shape-rendering="geometricPrecision" /></g><g id="Arrow"><path d="M190.15 275.85 C188 275.28 185.57 275.93 184 277.5 " stroke="rgb(255, 0, 0)" stroke-width="0.6" fill-rule="evenodd" stroke-linejoin="bevel" fill="none" shape-rendering="geometricPrecision" /><path d="M193 277.5 L190.21 274.8 C190.61 275.74 190.28 276.3 189.27 276.43 Z" stroke="rgb(255, 0, 0)" stroke-width="0" fill-rule="evenodd" stroke-linejoin="miter" stroke-miterlimit="4.91065618851272" fill="rgb(255, 0, 0)" shape-rendering="geometricPrecision" /></g><g id="Arrow"><path d="M189.81 267.01 C191.12 269.69 194.01 271.5 197 271.5 " stroke="rgb(255, 0, 0)" stroke-width="0.6" fill-rule="evenodd" stroke-linejoin="bevel" fill="none" shape-rendering="geometricPrecision" /><path d="M189 263.5 L189.08 268.38 C189.47 267.22 190.45 266.95 191.37 267.77 Z" stroke="rgb(255, 0, 0)" stroke-width="0" fill-rule="evenodd" stroke-linejoin="miter" stroke-miterlimit="6.77589499690771" fill="rgb(255, 0, 0)" shape-rendering="geometricPrecision" /></g><g id="Solid"><path d="M173.51 263.51 L173.51 263.51 L173.51 263.86 L173.51 264.21 L160.89 256.92 L161.04 256.66 L161.19 256.4 Z" stroke="rgb(0, 0, 0)" stroke-width="0" fill-rule="evenodd" stroke-linejoin="miter" fill="rgb(0, 0, 0)" shape-rendering="geometricPrecision" /></g><g id="Solid"><path d="M173.51 277.91 L173.51 277.91 L173.51 278.26 L173.51 278.61 L161.19 285.72 L161.04 285.46 L160.89 285.2 Z" stroke="rgb(0, 0, 0)" stroke-width="0" fill-rule="evenodd" stroke-linejoin="miter" fill="rgb(0, 0, 0)" shape-rendering="geometricPrecision" /></g><g id="Solid"><path d="M337.01 262.76 L337.01 262.76 L337.01 263.11 L336.71 263.28 L324.39 256.17 L324.54 255.91 L324.69 255.65 Z" stroke="rgb(0, 0, 0)" stroke-width="0" fill-rule="evenodd" stroke-linejoin="miter" fill="rgb(0, 0, 0)" shape-rendering="geometricPrecision" /></g><g id="Solid"><path d="M336.71 277.34 L336.71 277.34 L337.01 277.51 L337.01 277.86 L324.69 284.97 L324.54 284.71 L324.39 284.45 Z" stroke="rgb(0, 0, 0)" stroke-width="0" fill-rule="evenodd" stroke-linejoin="miter" fill="rgb(0, 0, 0)" shape-rendering="geometricPrecision" /></g></g></g></svg>