<?xml version="1.0"?><svg xmlns="http://www.w3.org/2000/svg" xmlns:xlink="http://www.w3.org/1999/xlink" viewBox="47.78 107.55 97.38 52.05" preserveAspectRatio="xMidYMid" width="100%" height="100%"><clipPath id="338"><rect x="0.3" y="0.3" width="522.6" height="769.08" /></clipPath><g id="drawing"><rect x="47.78" y="107.55" width="100%" height="100%" fill="rgb(255, 255, 255)" /><g id="page" clip-path="url(#338)"><g id="Solid"><g id="Bond's parts"><path d="M99.25 128.2 L99.25 128.2 L99.35 128.2 L99.43 128.3 L99.65 128.35 L99.7 130.25 L99.8 133.05 L99.9 135.75 L99.95 136.85 L99.55 136.8 L99.35 136.75 L99.3 135.75 L99.2 133.05 L99.1 130.25 L99.1 128.35 L99.15 128.3 Z" stroke="rgb(0, 0, 0)" stroke-width="0" fill-rule="evenodd" stroke-linejoin="miter" fill="rgb(0, 0, 0)" shape-rendering="geometricPrecision" /><path d="M99.45 140.75 L99.45 140.75 L99.85 140.8 L100.05 140.85 L100.1 141.25 L100.2 144.05 L100.3 146.75 L100.35 147.05 L100.05 147.1 L99.75 147.15 L99.7 146.75 L99.6 144.05 Z" stroke="rgb(0, 0, 0)" stroke-width="0" fill-rule="evenodd" stroke-linejoin="miter" fill="rgb(0, 0, 0)" shape-rendering="geometricPrecision" /></g></g><g id="Dash"><path d="M77.42 126.27 L77.42 126.27 L77.94 126.57 L79.44 123.97 L79.29 123.63 L78.67 124.11 Z" stroke="rgb(0, 0, 0)" stroke-width="0" fill-rule="evenodd" stroke-linejoin="miter" fill="rgb(0, 0, 0)" shape-rendering="geometricPrecision" /><path d="M70.28 138.64 L70.28 138.64 L70.8 138.94 L69.55 141.1 L68.93 141.58 L68.79 141.23 Z" stroke="rgb(0, 0, 0)" stroke-width="0" fill-rule="evenodd" stroke-linejoin="miter" fill="rgb(0, 0, 0)" shape-rendering="geometricPrecision" /><path d="M75.87 128.95 L75.87 128.95 L74.62 131.12 L75.14 131.42 L76.39 129.25 Z" stroke="rgb(0, 0, 0)" stroke-width="0" fill-rule="evenodd" stroke-linejoin="miter" fill="rgb(0, 0, 0)" shape-rendering="geometricPrecision" /><path d="M73.08 133.79 L73.08 133.79 L71.83 135.96 L72.35 136.26 L73.6 134.09 Z" stroke="rgb(0, 0, 0)" stroke-width="0" fill-rule="evenodd" stroke-linejoin="miter" fill="rgb(0, 0, 0)" shape-rendering="geometricPrecision" /></g><g id="Solid"><path d="M68.93 141.89 L68.93 141.89 L68.93 141.58 L69.55 141.1 L88.95 135.91 L88.95 136.22 L88.95 136.53 Z" stroke="rgb(0, 0, 0)" stroke-width="0" fill-rule="evenodd" stroke-linejoin="miter" fill="rgb(0, 0, 0)" shape-rendering="geometricPrecision" /><line x1="76.66" y1="135.65" x2="87.99" y2="132.62" stroke="rgb(0, 0, 0)" stroke-width="0.6" shape-rendering="auto" /></g><g id="Solid"><path d="M79.44 123.97 L79.44 123.97 L79.29 123.63 L79.28 123.32 L99.32 127.85 L99.32 128.16 L99.03 128.4 Z" stroke="rgb(0, 0, 0)" stroke-width="0" fill-rule="evenodd" stroke-linejoin="miter" fill="rgb(0, 0, 0)" shape-rendering="geometricPrecision" /><line x1="81.13" y1="127.84" x2="95.73" y2="131.14" stroke="rgb(0, 0, 0)" stroke-width="0.6" shape-rendering="auto" /></g><g><text xml:space="preserve" text-anchor="start" text-rendering="geometricPrecision"><tspan x="115.45" y="127.53" font-family="Arial" font-size="10" fill="rgb(0, 0, 0)">O</tspan></text></g><g id="Solid"><path d="M99.63 128.4 L99.63 128.4 L99.32 128.16 L99.32 127.85 L114.37 124.45 L114.44 124.74 L114.51 125.03 Z" stroke="rgb(0, 0, 0)" stroke-width="0" fill-rule="evenodd" stroke-linejoin="miter" fill="rgb(0, 0, 0)" shape-rendering="geometricPrecision" /></g><g id="Solid"><path d="M88.95 136.53 L88.95 136.53 L88.95 136.22 L88.95 135.91 L108.84 141.23 L108.98 141.58 L109.12 141.93 Z" stroke="rgb(0, 0, 0)" stroke-width="0" fill-rule="evenodd" stroke-linejoin="miter" fill="rgb(0, 0, 0)" shape-rendering="geometricPrecision" /></g><g><text xml:space="preserve" text-anchor="start" text-rendering="geometricPrecision"><tspan x="96.29" y="155.95" font-family="Arial" font-size="10" fill="rgb(0, 0, 0)">OMe</tspan></text></g><g id="Dash"><path d="M110.61 139.37 L110.61 139.37 L110.09 139.07 L108.84 141.23 L108.98 141.58 L109.12 141.93 Z" stroke="rgb(0, 0, 0)" stroke-width="0" fill-rule="evenodd" stroke-linejoin="miter" fill="rgb(0, 0, 0)" shape-rendering="geometricPrecision" /><path d="M115.5 130.9 L115.5 130.9 L114.98 130.6 L116.23 128.44 L116.49 128.59 L116.75 128.74 Z" stroke="rgb(0, 0, 0)" stroke-width="0" fill-rule="evenodd" stroke-linejoin="miter" fill="rgb(0, 0, 0)" shape-rendering="geometricPrecision" /><path d="M112.43 136.22 L112.43 136.22 L113.68 134.05 L113.16 133.75 L111.91 135.92 Z" stroke="rgb(0, 0, 0)" stroke-width="0" fill-rule="evenodd" stroke-linejoin="miter" fill="rgb(0, 0, 0)" shape-rendering="geometricPrecision" /></g><g id="Bracket"><path d="M127.69 108.75 L131.63 108.75 L131.63 159 L127.69 159 " stroke="rgb(0, 0, 0)" stroke-width="0.6" fill-rule="evenodd" stroke-linejoin="miter" fill="none" shape-rendering="geometricPrecision" /></g><g id="Bracket"><path d="M52.32 159 L48.38 159 L48.38 108.75 L52.32 108.75 " stroke="rgb(0, 0, 0)" stroke-width="0.6" fill-rule="evenodd" stroke-linejoin="miter" fill="none" shape-rendering="geometricPrecision" /></g><g id="Charge324"><line x1="141.38" y1="108.45" x2="141.38" y2="121.05" stroke="rgb(0, 0, 0)" stroke-width="0.48" shape-rendering="auto" /><line x1="138.08" y1="111.75" x2="144.68" y2="111.75" stroke="rgb(0, 0, 0)" stroke-width="0.48" shape-rendering="auto" /><line x1="138.08" y1="117.75" x2="144.68" y2="117.75" stroke="rgb(0, 0, 0)" stroke-width="0.48" shape-rendering="auto" /></g><g id="Solid"><path d="M68.79 141.23 L68.79 141.23 L68.93 141.58 L68.93 141.89 L54.94 138.15 L55.02 137.86 L55.1 137.57 Z" stroke="rgb(0, 0, 0)" stroke-width="0" fill-rule="evenodd" stroke-linejoin="miter" fill="rgb(0, 0, 0)" shape-rendering="geometricPrecision" /></g><g id="Solid"><path d="M79.28 123.32 L79.28 123.32 L79.29 123.63 L78.67 124.11 L65.46 127.64 L65.38 127.35 L65.3 127.06 Z" stroke="rgb(0, 0, 0)" stroke-width="0" fill-rule="evenodd" stroke-linejoin="miter" fill="rgb(0, 0, 0)" shape-rendering="geometricPrecision" /></g></g></g></svg>