<?xml version="1.0"?><svg xmlns="http://www.w3.org/2000/svg" xmlns:xlink="http://www.w3.org/1999/xlink" viewBox="110.04 173.95 43.5 49.06" preserveAspectRatio="xMidYMid" width="100%" height="100%"><clipPath id="4660"><rect x="0.3" y="0.3" width="522.6" height="769.08" /></clipPath><g id="drawing"><rect x="110.04" y="173.95" width="100%" height="100%" fill="rgb(255, 255, 255)" /><g id="page" clip-path="url(#4660)"><g id="Solid"><path d="M123.56 200.28 L123.56 200.28 L123.26 200.11 L123.27 199.76 L135.43 192.74 L135.73 192.91 L136.03 193.08 Z" stroke="rgb(0, 0, 0)" stroke-width="0" fill-rule="evenodd" stroke-linejoin="miter" fill="rgb(0, 0, 0)" shape-rendering="geometricPrecision" /></g><g><text xml:space="preserve" text-anchor="start" text-rendering="geometricPrecision"><tspan x="144.3" y="204.01" font-family="Arial" font-size="10" fill="rgb(0, 0, 0)">O</tspan></text></g><g id="Solid"><line x1="136.38" y1="191.79" x2="144.06" y2="196.22" stroke="rgb(0, 0, 0)" stroke-width="0.6" shape-rendering="auto" /><path d="M135.03 193.66 L135.03 193.66 L134.43 194 L142.62 198.73 L142.92 198.21 Z" stroke="rgb(0, 0, 0)" stroke-width="0" fill-rule="evenodd" stroke-linejoin="miter" fill="rgb(0, 0, 0)" shape-rendering="geometricPrecision" /><path d="M136.03 191.24 L136.03 191.24 L136.03 191.93 L143.91 196.48 L144.21 195.96 Z" stroke="rgb(0, 0, 0)" stroke-width="0" fill-rule="evenodd" stroke-linejoin="miter" fill="rgb(0, 0, 0)" shape-rendering="geometricPrecision" /></g><g><text xml:space="preserve" text-anchor="start" text-rendering="geometricPrecision"><tspan x="131.83" y="182.41" font-family="Arial" font-size="10" fill="rgb(0, 0, 0)">OMe</tspan></text></g><g id="Solid"><path d="M136.03 193.08 L136.03 193.08 L135.73 192.91 L135.43 192.74 L135.43 184.2 L135.73 184.2 L136.03 184.2 Z" stroke="rgb(0, 0, 0)" stroke-width="0" fill-rule="evenodd" stroke-linejoin="miter" fill="rgb(0, 0, 0)" shape-rendering="geometricPrecision" /></g><g id="Solid"><path d="M148.05 214.25 L148.05 214.25 L148.2 214.51 L148.35 214.77 L135.73 222.06 L135.73 221.71 L135.73 221.36 Z" stroke="rgb(0, 0, 0)" stroke-width="0" fill-rule="evenodd" stroke-linejoin="miter" fill="rgb(0, 0, 0)" shape-rendering="geometricPrecision" /><line x1="146.9" y1="212.27" x2="135.73" y2="218.72" stroke="rgb(0, 0, 0)" stroke-width="0.6" shape-rendering="auto" /></g><g id="Solid"><path d="M135.73 221.36 L135.73 221.36 L135.73 221.71 L135.73 222.06 L122.96 214.68 L123.26 214.51 L123.56 214.34 Z" stroke="rgb(0, 0, 0)" stroke-width="0" fill-rule="evenodd" stroke-linejoin="miter" fill="rgb(0, 0, 0)" shape-rendering="geometricPrecision" /></g><g id="Solid"><path d="M122.96 200.3 L122.96 200.3 L123.26 200.11 L123.56 200.28 L123.56 214.34 L123.26 214.51 L122.96 214.68 Z" stroke="rgb(0, 0, 0)" stroke-width="0" fill-rule="evenodd" stroke-linejoin="miter" fill="rgb(0, 0, 0)" shape-rendering="geometricPrecision" /></g><g id="WedgeBegin"><path d="M123.27 199.76 L123.27 199.76 L123.26 200.11 L122.96 200.3 L110.04 194.21 L110.79 192.91 L111.54 191.61 Z" stroke="rgb(0, 0, 0)" stroke-width="0" fill-rule="evenodd" stroke-linejoin="miter" fill="rgb(0, 0, 0)" shape-rendering="geometricPrecision" /></g><g id="Wedged Hash Begin Bond"><path d="M123.11 214.25 L123.11 214.25 L123.41 214.77 L122.92 215.11 L122.57 214.51 Z" stroke="rgb(0, 0, 0)" stroke-width="0" fill-rule="evenodd" stroke-linejoin="miter" fill="rgb(0, 0, 0)" shape-rendering="geometricPrecision" /><path d="M120.6 215.43 L120.6 215.43 L121.13 216.35 L120.64 216.69 L120.06 215.69 Z" stroke="rgb(0, 0, 0)" stroke-width="0" fill-rule="evenodd" stroke-linejoin="miter" fill="rgb(0, 0, 0)" shape-rendering="geometricPrecision" /><path d="M118.1 216.61 L118.1 216.61 L118.86 217.93 L118.37 218.27 L117.56 216.87 Z" stroke="rgb(0, 0, 0)" stroke-width="0" fill-rule="evenodd" stroke-linejoin="miter" fill="rgb(0, 0, 0)" shape-rendering="geometricPrecision" /><path d="M115.59 217.79 L115.59 217.79 L116.58 219.51 L116.09 219.85 L115.05 218.05 Z" stroke="rgb(0, 0, 0)" stroke-width="0" fill-rule="evenodd" stroke-linejoin="miter" fill="rgb(0, 0, 0)" shape-rendering="geometricPrecision" /><path d="M113.09 218.97 L113.09 218.97 L114.31 221.09 L113.82 221.43 L112.55 219.23 Z" stroke="rgb(0, 0, 0)" stroke-width="0" fill-rule="evenodd" stroke-linejoin="miter" fill="rgb(0, 0, 0)" shape-rendering="geometricPrecision" /><path d="M110.58 220.15 L110.58 220.15 L112.03 222.67 L111.54 223.01 L110.04 220.41 Z" stroke="rgb(0, 0, 0)" stroke-width="0" fill-rule="evenodd" stroke-linejoin="miter" fill="rgb(0, 0, 0)" shape-rendering="geometricPrecision" /></g></g></g></svg>