<?xml version="1.0"?><svg xmlns="http://www.w3.org/2000/svg" xmlns:xlink="http://www.w3.org/1999/xlink" viewBox="46.81 51.99 209.15 30.47" preserveAspectRatio="xMidYMid" width="100%" height="100%"><clipPath id="149"><rect x="0.3" y="0.3" width="522.6" height="769.08" /></clipPath><g id="drawing"><rect x="46.81" y="51.99" width="100%" height="100%" fill="rgb(255, 255, 255)" /><g id="page" clip-path="url(#149)"><g id="Solid"><path d="M59.57 52.96 L59.57 52.96 L59.57 53.31 L59.57 53.66 L47.41 60.71 L47.11 60.54 L46.81 60.37 Z" stroke="rgb(0, 0, 0)" stroke-width="0" fill-rule="evenodd" stroke-linejoin="miter" fill="rgb(0, 0, 0)" shape-rendering="geometricPrecision" /><line x1="59.58" y1="56.3" x2="49.71" y2="62.03" stroke="rgb(0, 0, 0)" stroke-width="0.6" shape-rendering="auto" /></g><g id="Solid"><path d="M46.81 60.37 L46.81 60.37 L47.11 60.54 L47.41 60.71 L47.45 74.77 L47.15 74.94 L46.85 75.11 Z" stroke="rgb(0, 0, 0)" stroke-width="0" fill-rule="evenodd" stroke-linejoin="miter" fill="rgb(0, 0, 0)" shape-rendering="geometricPrecision" /></g><g id="Solid"><path d="M46.85 75.11 L46.85 75.11 L47.15 74.94 L47.45 74.77 L59.64 81.76 L59.64 82.11 L59.64 82.46 Z" stroke="rgb(0, 0, 0)" stroke-width="0" fill-rule="evenodd" stroke-linejoin="miter" fill="rgb(0, 0, 0)" shape-rendering="geometricPrecision" /><line x1="49.74" y1="73.44" x2="59.63" y2="79.12" stroke="rgb(0, 0, 0)" stroke-width="0.6" shape-rendering="auto" /></g><g id="Solid"><path d="M59.64 82.46 L59.64 82.46 L59.64 82.11 L59.64 81.76 L71.79 74.71 L72.09 74.88 L72.39 75.05 Z" stroke="rgb(0, 0, 0)" stroke-width="0" fill-rule="evenodd" stroke-linejoin="miter" fill="rgb(0, 0, 0)" shape-rendering="geometricPrecision" /></g><g id="Solid"><path d="M72.39 75.05 L72.39 75.05 L72.09 74.88 L71.79 74.71 L71.76 60.65 L72.06 60.48 L72.36 60.31 Z" stroke="rgb(0, 0, 0)" stroke-width="0" fill-rule="evenodd" stroke-linejoin="miter" fill="rgb(0, 0, 0)" shape-rendering="geometricPrecision" /><line x1="74.68" y1="74.87" x2="74.65" y2="60.47" stroke="rgb(0, 0, 0)" stroke-width="0.6" shape-rendering="auto" /><line x1="69.5" y1="74.89" x2="69.47" y2="60.49" stroke="rgb(0, 0, 0)" stroke-width="0.6" shape-rendering="auto" /></g><g id="Solid"><path d="M72.36 60.31 L72.36 60.31 L72.06 60.48 L71.76 60.65 L59.57 53.66 L59.57 53.31 L59.57 52.96 Z" stroke="rgb(0, 0, 0)" stroke-width="0" fill-rule="evenodd" stroke-linejoin="miter" fill="rgb(0, 0, 0)" shape-rendering="geometricPrecision" /></g><g id="Solid"><path d="M117 81.49 L117 81.49 L116.99 81.14 L116.98 80.79 L129.04 73.56 L129.34 73.73 L129.64 73.9 Z" stroke="rgb(0, 0, 0)" stroke-width="0" fill-rule="evenodd" stroke-linejoin="miter" fill="rgb(0, 0, 0)" shape-rendering="geometricPrecision" /><line x1="116.94" y1="78.15" x2="126.72" y2="72.28" stroke="rgb(0, 0, 0)" stroke-width="0.6" shape-rendering="auto" /></g><g id="Solid"><path d="M129.64 73.9 L129.64 73.9 L129.34 73.73 L129.04 73.56 L128.8 59.51 L129.1 59.33 L129.4 59.15 Z" stroke="rgb(0, 0, 0)" stroke-width="0" fill-rule="evenodd" stroke-linejoin="miter" fill="rgb(0, 0, 0)" shape-rendering="geometricPrecision" /></g><g id="Solid"><path d="M129.4 59.15 L129.4 59.15 L129.1 59.33 L128.8 59.51 L116.52 52.69 L116.51 52.34 L116.5 51.99 Z" stroke="rgb(0, 0, 0)" stroke-width="0" fill-rule="evenodd" stroke-linejoin="miter" fill="rgb(0, 0, 0)" shape-rendering="geometricPrecision" /><line x1="126.53" y1="60.87" x2="116.56" y2="55.33" stroke="rgb(0, 0, 0)" stroke-width="0.6" shape-rendering="auto" /></g><g id="Solid"><path d="M116.5 51.99 L116.5 51.99 L116.51 52.34 L116.52 52.69 L104.46 59.92 L104.16 59.75 L103.86 59.58 Z" stroke="rgb(0, 0, 0)" stroke-width="0" fill-rule="evenodd" stroke-linejoin="miter" fill="rgb(0, 0, 0)" shape-rendering="geometricPrecision" /></g><g id="Solid"><path d="M103.86 59.58 L103.86 59.58 L104.16 59.75 L104.46 59.92 L104.7 73.97 L104.4 74.15 L104.1 74.33 Z" stroke="rgb(0, 0, 0)" stroke-width="0" fill-rule="evenodd" stroke-linejoin="miter" fill="rgb(0, 0, 0)" shape-rendering="geometricPrecision" /></g><g id="Solid"><path d="M104.1 74.33 L104.1 74.33 L104.4 74.15 L104.7 73.97 L116.98 80.79 L116.99 81.14 L117 81.49 Z" stroke="rgb(0, 0, 0)" stroke-width="0" fill-rule="evenodd" stroke-linejoin="miter" fill="rgb(0, 0, 0)" shape-rendering="geometricPrecision" /></g><g id="Arrow"><path d="M70.76 66.66 C78.33 69.13 88.03 67.66 92.41 63.38 C92.73 63.06 93.01 62.74 93.27 62.4 " stroke="rgb(255, 0, 0)" stroke-width="0.6" fill-rule="evenodd" stroke-linejoin="bevel" fill="none" shape-rendering="geometricPrecision" /><path d="M94.53 58.89 L91.53 62.95 C92.56 62.23 93.57 62.65 93.8 63.89 Z" stroke="rgb(255, 0, 0)" stroke-width="0" fill-rule="evenodd" stroke-linejoin="miter" stroke-miterlimit="7.17873016144054" fill="rgb(255, 0, 0)" shape-rendering="geometricPrecision" /></g><g id="Arrow"><path d="M120.75 54.96 C119.67 58.99 122.06 63.13 126.09 64.22 C126.19 64.24 126.3 64.27 126.4 64.29 " stroke="rgb(255, 0, 0)" stroke-width="0.6" fill-rule="evenodd" stroke-linejoin="bevel" fill="none" shape-rendering="geometricPrecision" /><path d="M130 64.22 L125.23 62.92 C126.25 63.62 126.23 64.67 125.18 65.32 Z" stroke="rgb(255, 0, 0)" stroke-width="0" fill-rule="evenodd" stroke-linejoin="miter" stroke-miterlimit="6.93525005514861" fill="rgb(255, 0, 0)" shape-rendering="geometricPrecision" /></g><g id="Arrow"><path d="M119.74 78.23 C114.86 72.45 104.07 70.48 95.64 73.82 C94.27 74.36 93.01 75.03 91.9 75.81 " stroke="rgb(255, 0, 0)" stroke-width="0.6" fill-rule="evenodd" stroke-linejoin="bevel" fill="none" shape-rendering="geometricPrecision" /><path d="M89.19 78.25 L93.6 76.01 C92.38 76.18 91.69 75.39 92.03 74.2 Z" stroke="rgb(255, 0, 0)" stroke-width="0" fill-rule="evenodd" stroke-linejoin="miter" stroke-miterlimit="6.93873308635736" fill="rgb(255, 0, 0)" shape-rendering="geometricPrecision" /></g><g id="Solid"><path d="M205.48 59.87 L205.48 59.87 L205.78 60.04 L206.08 60.21 L206.08 74.27 L205.78 74.44 L205.48 74.61 Z" stroke="rgb(0, 0, 0)" stroke-width="0" fill-rule="evenodd" stroke-linejoin="miter" fill="rgb(0, 0, 0)" shape-rendering="geometricPrecision" /></g><g id="Solid"><path d="M205.48 74.61 L205.48 74.61 L205.78 74.44 L206.08 74.27 L218.25 81.29 L218.25 81.64 L218.25 81.99 Z" stroke="rgb(0, 0, 0)" stroke-width="0" fill-rule="evenodd" stroke-linejoin="miter" fill="rgb(0, 0, 0)" shape-rendering="geometricPrecision" /><line x1="208.37" y1="72.94" x2="218.25" y2="78.65" stroke="rgb(0, 0, 0)" stroke-width="0.6" shape-rendering="auto" /></g><g id="Solid"><path d="M218.25 81.99 L218.25 81.99 L218.25 81.64 L218.25 81.29 L230.42 74.27 L230.72 74.44 L230.72 74.79 Z" stroke="rgb(0, 0, 0)" stroke-width="0" fill-rule="evenodd" stroke-linejoin="miter" fill="rgb(0, 0, 0)" shape-rendering="geometricPrecision" /></g><g id="Solid"><g id="Bond's parts"><path d="M230.65 60.1 L230.65 60.1 L230.88 60.1 L230.95 60.2 L231 60.25 L231 66.75 L230.9 66.95 L230.85 67 L230.77 67.1 L230.98 67.1 L231 67.05 L231 67.65 L230.95 67.7 L230.88 67.8 L231.05 67.85 L231 74.25 L230.98 74.3 L230.73 74.4 L230.68 74.4 L230.45 74.35 L230.45 60.15 Z" stroke="rgb(0, 0, 0)" stroke-width="0" fill-rule="evenodd" stroke-linejoin="miter" fill="rgb(0, 0, 0)" shape-rendering="geometricPrecision" /><path d="M227.85 61.55 L227.85 61.55 L228.45 61.55 L228.45 72.95 Z" stroke="rgb(0, 0, 0)" stroke-width="0" fill-rule="evenodd" stroke-linejoin="miter" fill="rgb(0, 0, 0)" shape-rendering="geometricPrecision" /></g></g><g id="Solid"><path d="M230.72 59.69 L230.72 59.69 L230.72 60.04 L230.42 60.21 L218.25 53.19 L218.25 52.84 L218.25 52.49 Z" stroke="rgb(0, 0, 0)" stroke-width="0" fill-rule="evenodd" stroke-linejoin="miter" fill="rgb(0, 0, 0)" shape-rendering="geometricPrecision" /></g><g id="Solid"><path d="M218.25 52.49 L218.25 52.49 L218.25 52.84 L218.25 53.19 L206.08 60.21 L205.78 60.04 L205.48 59.87 Z" stroke="rgb(0, 0, 0)" stroke-width="0" fill-rule="evenodd" stroke-linejoin="miter" fill="rgb(0, 0, 0)" shape-rendering="geometricPrecision" /><line x1="218.25" y1="55.83" x2="208.37" y2="61.54" stroke="rgb(0, 0, 0)" stroke-width="0.6" shape-rendering="auto" /></g><g id="Solid"><path d="M230.72 74.79 L230.72 74.79 L230.72 74.44 L231.02 74.27 L243.06 81.22 L243.19 81.64 L243.19 81.99 Z" stroke="rgb(0, 0, 0)" stroke-width="0" fill-rule="evenodd" stroke-linejoin="miter" fill="rgb(0, 0, 0)" shape-rendering="geometricPrecision" /></g><g id="Solid"><path d="M243.19 81.99 L243.19 81.99 L243.19 81.64 L244.2 80.71 L255.36 74.27 L255.66 74.44 L255.96 74.61 Z" stroke="rgb(0, 0, 0)" stroke-width="0" fill-rule="evenodd" stroke-linejoin="miter" fill="rgb(0, 0, 0)" shape-rendering="geometricPrecision" /></g><g id="Solid"><g id="Bond's parts"><path d="M255.75 60 L255.75 60 L255.95 59.95 L255.95 74.55 L255.75 74.5 L255.52 74.4 L255.45 74.3 L255.4 74.25 L255.35 60.15 L255.55 60.1 Z" stroke="rgb(0, 0, 0)" stroke-width="0" fill-rule="evenodd" stroke-linejoin="miter" fill="rgb(0, 0, 0)" shape-rendering="geometricPrecision" /><path d="M252.75 61.55 L252.75 61.55 L253.35 61.55 L253.35 67.85 L253.05 67.8 Z" stroke="rgb(0, 0, 0)" stroke-width="0" fill-rule="evenodd" stroke-linejoin="miter" fill="rgb(0, 0, 0)" shape-rendering="geometricPrecision" /><path d="M253.27 68.5 L253.27 68.5 L253.3 68.45 L253.3 69.05 L253.27 69.1 L252.75 69.15 L252.75 68.55 Z" stroke="rgb(0, 0, 0)" stroke-width="0" fill-rule="evenodd" stroke-linejoin="miter" fill="rgb(0, 0, 0)" shape-rendering="geometricPrecision" /><path d="M253.3 70.65 L253.3 70.65 L253.35 72.95 L252.75 72.95 L252.8 71.45 L252.9 71.25 L252.95 71.2 L253 71.15 L253.1 70.95 L253.15 70.9 Z" stroke="rgb(0, 0, 0)" stroke-width="0" fill-rule="evenodd" stroke-linejoin="miter" fill="rgb(0, 0, 0)" shape-rendering="geometricPrecision" /></g></g><g id="Solid"><path d="M255.96 59.87 L255.96 59.87 L255.66 60.04 L255.36 60.21 L243.32 53.26 L243.19 52.84 L243.19 52.49 Z" stroke="rgb(0, 0, 0)" stroke-width="0" fill-rule="evenodd" stroke-linejoin="miter" fill="rgb(0, 0, 0)" shape-rendering="geometricPrecision" /></g><g id="Solid"><path d="M243.19 52.49 L243.19 52.49 L243.19 52.84 L242.18 53.77 L231.02 60.21 L230.72 60.04 L230.72 59.69 Z" stroke="rgb(0, 0, 0)" stroke-width="0" fill-rule="evenodd" stroke-linejoin="miter" fill="rgb(0, 0, 0)" shape-rendering="geometricPrecision" /></g><g id="WedgeBegin"><path d="M242.18 53.77 L242.18 53.77 L243.19 52.84 L243.32 53.26 L238.05 64.46 L235.99 65.31 L233.44 66.36 Z" stroke="rgb(0, 0, 0)" stroke-width="0" fill-rule="evenodd" stroke-linejoin="miter" fill="rgb(0, 0, 0)" shape-rendering="geometricPrecision" /></g><g id="WedgeBegin"><path d="M244.2 80.71 L244.2 80.71 L243.19 81.64 L243.06 81.22 L248.74 69.17 L250.39 69.17 L252.03 69.44 Z" stroke="rgb(0, 0, 0)" stroke-width="0" fill-rule="evenodd" stroke-linejoin="miter" fill="rgb(0, 0, 0)" shape-rendering="geometricPrecision" /></g><g id="WedgeBegin"><path d="M252.03 69.44 L252.03 69.44 L250.39 69.17 L248.74 69.17 L233.44 66.36 L235.99 65.31 L238.05 64.46 Z" stroke="rgb(0, 0, 0)" stroke-width="0" fill-rule="evenodd" stroke-linejoin="miter" fill="rgb(0, 0, 0)" shape-rendering="geometricPrecision" /></g><g id="Arrow"><line x1="190.5" y1="66.5" x2="136.75" y2="66.5" stroke="rgb(0, 0, 0)" stroke-width="0.6" shape-rendering="auto" /><path d="M194.75 66.5 L188.75 65 C189.94 65.84 189.94 67.16 188.75 68 Z" stroke="rgb(0, 0, 0)" stroke-width="0" fill-rule="evenodd" stroke-linejoin="miter" stroke-miterlimit="6.93525005514877" fill="rgb(0, 0, 0)" shape-rendering="geometricPrecision" /></g></g></g></svg>