<?xml version="1.0"?><svg xmlns="http://www.w3.org/2000/svg" xmlns:xlink="http://www.w3.org/1999/xlink" viewBox="35.92 21.97 302.34 62.89" preserveAspectRatio="xMidYMid" width="100%" height="100%"><clipPath id="1121"><rect x="0.3" y="0.3" width="522.72" height="769.32" /></clipPath><g id="drawing"><rect x="35.92" y="21.97" width="100%" height="100%" fill="rgb(255, 255, 255)" /><g id="page" clip-path="url(#1121)"><g><text xml:space="preserve" text-anchor="end" text-rendering="geometricPrecision"><tspan x="48.15" y="63.15" font-family="Arial" font-size="10" fill="rgb(0, 0, 0)">Ph</tspan></text></g><g><text xml:space="preserve" text-anchor="start" text-rendering="geometricPrecision"><tspan x="54.25" y="55.95" font-family="Arial" font-size="10" fill="rgb(0, 0, 0)">N</tspan></text></g><g id="Solid"><path d="M48.73 57.66 L48.73 57.66 L48.58 57.4 L48.43 57.14 L53.56 54.18 L53.71 54.44 L53.86 54.7 Z" stroke="rgb(0, 0, 0)" stroke-width="0" fill-rule="evenodd" stroke-linejoin="miter" fill="rgb(0, 0, 0)" shape-rendering="geometricPrecision" /></g><g><text xml:space="preserve" text-anchor="start" text-rendering="geometricPrecision"><tspan x="66.72" y="63.15" font-family="Arial" font-size="10" fill="rgb(0, 0, 0)">N</tspan></text></g><g id="Solid"><line x1="62.58" y1="53.64" x2="66.61" y2="55.97" stroke="rgb(0, 0, 0)" stroke-width="0.6" shape-rendering="auto" /><path d="M61.74 55.09 L61.74 55.09 L61.44 55.61 L65.47 57.93 L65.77 57.41 Z" stroke="rgb(0, 0, 0)" stroke-width="0" fill-rule="evenodd" stroke-linejoin="miter" fill="rgb(0, 0, 0)" shape-rendering="geometricPrecision" /><path d="M62.73 53.38 L62.73 53.38 L62.43 53.9 L66.46 56.23 L66.76 55.71 Z" stroke="rgb(0, 0, 0)" stroke-width="0" fill-rule="evenodd" stroke-linejoin="miter" fill="rgb(0, 0, 0)" shape-rendering="geometricPrecision" /></g><g><text xml:space="preserve" text-anchor="start" text-rendering="geometricPrecision"><tspan x="79.19" y="70.35" font-family="Arial" font-size="10" fill="rgb(0, 0, 0)">N</tspan></text></g><g id="Solid"><line x1="75.08" y1="60.86" x2="79.11" y2="63.19" stroke="rgb(0, 0, 0)" stroke-width="0.6" shape-rendering="auto" /><line x1="74.09" y1="62.56" x2="78.12" y2="64.89" stroke="rgb(0, 0, 0)" stroke-width="0.6" shape-rendering="auto" /><line x1="75.08" y1="60.86" x2="79.11" y2="63.19" stroke="rgb(0, 0, 0)" stroke-width="0.6" shape-rendering="auto" /></g><g id="Solid"><path d="M153.98 55.01 L153.98 55.01 L154.13 54.75 L154.28 54.49 L166.75 61.69 L166.6 61.95 L166.45 62.21 Z" stroke="rgb(0, 0, 0)" stroke-width="0" fill-rule="evenodd" stroke-linejoin="miter" fill="rgb(0, 0, 0)" shape-rendering="geometricPrecision" /><line x1="152.83" y1="56.99" x2="165.3" y2="64.19" stroke="rgb(0, 0, 0)" stroke-width="0.6" shape-rendering="auto" /><line x1="155.43" y1="52.51" x2="167.9" y2="59.71" stroke="rgb(0, 0, 0)" stroke-width="0.6" shape-rendering="auto" /></g><g><text xml:space="preserve" text-anchor="start" text-rendering="geometricPrecision"><tspan x="117.38" y="59.25" font-family="Arial" font-size="10" fill="rgb(0, 0, 0)">+</tspan></text></g><g id="Arrow"><line x1="243.63" y1="55.5" x2="211.13" y2="55.5" stroke="rgb(0, 0, 0)" stroke-width="0.6" shape-rendering="auto" /><path d="M247.88 55.5 L241.88 54 C243.07 54.84 243.07 56.16 241.88 57 Z" stroke="rgb(0, 0, 0)" stroke-width="0" fill-rule="evenodd" stroke-linejoin="miter" stroke-miterlimit="6.93525005514877" fill="rgb(0, 0, 0)" shape-rendering="geometricPrecision" /></g><g><text xml:space="preserve" text-anchor="start" text-rendering="geometricPrecision"><tspan x="174.89" y="73.05" font-family="Arial" font-size="10" fill="rgb(0, 0, 0)">Me</tspan></text></g><g id="Solid"><path d="M166.45 62.21 L166.45 62.21 L166.6 61.95 L166.75 61.69 L174.46 66.14 L174.31 66.4 L174.16 66.66 Z" stroke="rgb(0, 0, 0)" stroke-width="0" fill-rule="evenodd" stroke-linejoin="miter" fill="rgb(0, 0, 0)" shape-rendering="geometricPrecision" /></g><g id="Solid"><path d="M154.28 54.49 L154.28 54.49 L154.13 54.75 L153.98 55.01 L145.34 50.02 L145.49 49.76 L145.64 49.5 Z" stroke="rgb(0, 0, 0)" stroke-width="0" fill-rule="evenodd" stroke-linejoin="miter" fill="rgb(0, 0, 0)" shape-rendering="geometricPrecision" /></g><g><text xml:space="preserve" text-anchor="end" text-rendering="geometricPrecision"><tspan x="144.43" y="51.45" font-family="Arial" font-size="10" fill="rgb(0, 0, 0)">Me</tspan></text></g><g id="Charge1017"><circle cx="77.19" cy="52.39" r="3.33333333333333" stroke="rgb(0, 0, 0)" stroke-width="0.48" fill="none" /><line x1="75.22" y1="52.39" x2="79.16" y2="52.39" stroke="rgb(0, 0, 0)" stroke-width="0.48" shape-rendering="auto" /><line x1="77.19" y1="50.42" x2="77.19" y2="54.36" stroke="rgb(0, 0, 0)" stroke-width="0.48" shape-rendering="auto" /></g><g id="Charge1018"><circle cx="89.66" cy="59.59" r="3.33333333333333" stroke="rgb(0, 0, 0)" stroke-width="0.48" fill="none" /><line x1="87.69" y1="59.59" x2="91.63" y2="59.59" stroke="rgb(0, 0, 0)" stroke-width="0.48" shape-rendering="auto" /></g><g><text xml:space="preserve" text-anchor="start" text-rendering="geometricPrecision"><tspan x="288.37" y="55.2" font-family="Arial" font-size="10" fill="rgb(0, 0, 0)">N</tspan></text></g><g><text xml:space="preserve" text-anchor="start" text-rendering="geometricPrecision"><tspan x="288.37" y="69.6" font-family="Arial" font-size="10" fill="rgb(0, 0, 0)">N</tspan></text></g><g><text xml:space="preserve" text-anchor="start" text-rendering="geometricPrecision"><tspan x="302.06" y="74.05" font-family="Arial" font-size="10" fill="rgb(0, 0, 0)">N</tspan></text></g><g id="Solid"><path d="M291.67 54.5 L291.67 54.5 L291.97 54.5 L292.27 54.5 L292.27 60.9 L291.97 60.9 L291.67 60.9 Z" stroke="rgb(0, 0, 0)" stroke-width="0" fill-rule="evenodd" stroke-linejoin="miter" fill="rgb(0, 0, 0)" shape-rendering="geometricPrecision" /></g><g id="Solid"><path d="M296.23 67.4 L296.23 67.4 L296.32 67.11 L296.41 66.83 L301.47 68.47 L301.38 68.76 L301.29 69.04 Z" stroke="rgb(0, 0, 0)" stroke-width="0" fill-rule="evenodd" stroke-linejoin="miter" fill="rgb(0, 0, 0)" shape-rendering="geometricPrecision" /><line x1="296.9" y1="65.34" x2="301.95" y2="66.99" stroke="rgb(0, 0, 0)" stroke-width="0.6" shape-rendering="auto" /></g><g id="Solid"><path d="M309.2 65.78 L309.2 65.78 L308.96 65.61 L308.72 65.43 L313.75 58.5 L314.12 58.5 L314.27 58.8 Z" stroke="rgb(0, 0, 0)" stroke-width="0" fill-rule="evenodd" stroke-linejoin="miter" fill="rgb(0, 0, 0)" shape-rendering="geometricPrecision" /></g><g id="Solid"><path d="M314.27 58.2 L314.27 58.2 L314.12 58.5 L313.75 58.5 L305.55 47.2 L305.66 46.85 L305.99 46.8 Z" stroke="rgb(0, 0, 0)" stroke-width="0" fill-rule="evenodd" stroke-linejoin="miter" fill="rgb(0, 0, 0)" shape-rendering="geometricPrecision" /><line x1="310.92" y1="58.5" x2="304.67" y2="49.9" stroke="rgb(0, 0, 0)" stroke-width="0.6" shape-rendering="auto" /></g><g id="Solid"><path d="M305.42 46.61 L305.42 46.61 L305.66 46.85 L305.55 47.2 L296.41 50.17 L296.32 49.89 L296.23 49.6 Z" stroke="rgb(0, 0, 0)" stroke-width="0" fill-rule="evenodd" stroke-linejoin="miter" fill="rgb(0, 0, 0)" shape-rendering="geometricPrecision" /></g><g><text xml:space="preserve" text-anchor="end" text-rendering="geometricPrecision"><tspan x="282.27" y="48" font-family="Arial" font-size="10" fill="rgb(0, 0, 0)">Ph</tspan></text></g><g id="Solid"><path d="M287.96 48.64 L287.96 48.64 L287.81 48.9 L287.66 49.16 L282.84 46.38 L282.99 46.12 L283.14 45.86 Z" stroke="rgb(0, 0, 0)" stroke-width="0" fill-rule="evenodd" stroke-linejoin="miter" fill="rgb(0, 0, 0)" shape-rendering="geometricPrecision" /></g><g><text xml:space="preserve" text-anchor="start" text-rendering="geometricPrecision"><tspan x="324.35" y="62.4" font-family="Arial" font-size="10" fill="rgb(0, 0, 0)">Me</tspan></text></g><g id="Solid"><path d="M314.27 58.8 L314.27 58.8 L314.12 58.5 L314.27 58.2 L323.5 58.2 L323.5 58.5 L323.5 58.8 Z" stroke="rgb(0, 0, 0)" stroke-width="0" fill-rule="evenodd" stroke-linejoin="miter" fill="rgb(0, 0, 0)" shape-rendering="geometricPrecision" /></g><g><text xml:space="preserve" text-anchor="start" text-rendering="geometricPrecision"><tspan x="305.94" y="37.05" font-family="Arial" font-size="10" fill="rgb(0, 0, 0)">Me</tspan></text></g><g id="Solid"><path d="M305.99 46.8 L305.99 46.8 L305.66 46.85 L305.42 46.61 L308.32 37.69 L308.61 37.78 L308.89 37.87 Z" stroke="rgb(0, 0, 0)" stroke-width="0" fill-rule="evenodd" stroke-linejoin="miter" fill="rgb(0, 0, 0)" shape-rendering="geometricPrecision" /></g><g id="Arrow"><path d="M94.79 66.75 C111.78 83.74 141.53 84.86 159.75 69.2 " stroke="rgb(255, 0, 0)" stroke-width="0.6" fill-rule="evenodd" stroke-linejoin="bevel" fill="none" shape-rendering="geometricPrecision" /><path d="M162.39 66.75 L158.04 69.11 C159.26 68.9 159.97 69.68 159.66 70.88 Z" stroke="rgb(255, 0, 0)" stroke-width="0" fill-rule="evenodd" stroke-linejoin="miter" stroke-miterlimit="6.93525005514889" fill="rgb(255, 0, 0)" shape-rendering="geometricPrecision" /></g><g id="Arrow"><path d="M161.25 53.61 C138.82 26.88 95.66 21.97 67.79 42.97 " stroke="rgb(255, 0, 0)" stroke-width="0.6" fill-rule="evenodd" stroke-linejoin="bevel" fill="none" shape-rendering="geometricPrecision" /><path d="M64.97 45.21 L69.48 43.18 C68.25 43.29 67.6 42.47 68 41.3 Z" stroke="rgb(255, 0, 0)" stroke-width="0" fill-rule="evenodd" stroke-linejoin="miter" stroke-miterlimit="6.93505242967359" fill="rgb(255, 0, 0)" shape-rendering="geometricPrecision" /></g><g id="Arrow"><path d="M61.01 59.01 C59.73 61.23 60.49 64.07 62.71 65.35 C63.75 65.95 65.02 66.12 66.18 65.83 " stroke="rgb(255, 0, 0)" stroke-width="0.6" fill-rule="evenodd" stroke-linejoin="bevel" fill="none" shape-rendering="geometricPrecision" /><path d="M69.05 63.65 L64.37 65.27 C65.61 65.27 66.19 66.14 65.68 67.28 Z" stroke="rgb(255, 0, 0)" stroke-width="0" fill-rule="evenodd" stroke-linejoin="miter" stroke-miterlimit="6.93525005514882" fill="rgb(255, 0, 0)" shape-rendering="geometricPrecision" /></g></g></g></svg>