<?xml version="1.0"?><svg xmlns="http://www.w3.org/2000/svg" xmlns:xlink="http://www.w3.org/1999/xlink" viewBox="130.7 53.33 179.24 47.68" preserveAspectRatio="xMidYMid" width="100%" height="100%"><clipPath id="88"><rect x="0.3" y="0.3" width="522.6" height="769.08" /></clipPath><g id="drawing"><rect x="130.7" y="53.33" width="100%" height="100%" fill="rgb(255, 255, 255)" /><g id="page" clip-path="url(#88)"><g id="Solid"><path d="M131.07 76.01 L131.07 76.01 L131.37 76.13 L131.67 76.25 L131.67 90.41 L131.37 90.53 L131.07 90.65 Z" stroke="rgb(0, 0, 0)" stroke-width="0" fill-rule="evenodd" stroke-linejoin="miter" fill="rgb(0, 0, 0)" shape-rendering="geometricPrecision" /><line x1="133.96" y1="77.2" x2="133.96" y2="89.46" stroke="rgb(0, 0, 0)" stroke-width="0.6" shape-rendering="auto" /></g><g id="Solid"><path d="M131.07 90.65 L131.07 90.65 L131.37 90.53 L131.67 90.41 L141.67 100.41 L141.55 100.71 L141.43 101.01 Z" stroke="rgb(0, 0, 0)" stroke-width="0" fill-rule="evenodd" stroke-linejoin="miter" fill="rgb(0, 0, 0)" shape-rendering="geometricPrecision" /></g><g id="Solid"><path d="M141.43 101.01 L141.43 101.01 L141.55 100.71 L141.67 100.41 L155.83 100.41 L155.95 100.71 L156.07 101.01 Z" stroke="rgb(0, 0, 0)" stroke-width="0" fill-rule="evenodd" stroke-linejoin="miter" fill="rgb(0, 0, 0)" shape-rendering="geometricPrecision" /><line x1="142.62" y1="98.12" x2="154.88" y2="98.12" stroke="rgb(0, 0, 0)" stroke-width="0.6" shape-rendering="auto" /></g><g id="Solid"><path d="M156.07 101.01 L156.07 101.01 L155.95 100.71 L155.83 100.41 L165.92 90.32 L166.13 90.53 L166.34 90.74 Z" stroke="rgb(0, 0, 0)" stroke-width="0" fill-rule="evenodd" stroke-linejoin="miter" fill="rgb(0, 0, 0)" shape-rendering="geometricPrecision" /></g><g id="Solid"><path d="M155.78 65.65 L155.78 65.65 L155.95 65.95 L156.12 66.25 L141.67 66.25 L141.55 65.95 L141.43 65.65 Z" stroke="rgb(0, 0, 0)" stroke-width="0" fill-rule="evenodd" stroke-linejoin="miter" fill="rgb(0, 0, 0)" shape-rendering="geometricPrecision" /><line x1="154.45" y1="63.36" x2="141.55" y2="63.36" stroke="rgb(0, 0, 0)" stroke-width="0.6" shape-rendering="auto" /></g><g id="Solid"><path d="M141.43 65.65 L141.43 65.65 L141.55 65.95 L141.67 66.25 L131.67 76.25 L131.37 76.13 L131.07 76.01 Z" stroke="rgb(0, 0, 0)" stroke-width="0" fill-rule="evenodd" stroke-linejoin="miter" fill="rgb(0, 0, 0)" shape-rendering="geometricPrecision" /></g><g id="Solid"><path d="M156.12 66.25 L156.12 66.25 L155.95 65.95 L155.78 65.65 L162.89 53.33 L163.15 53.48 L163.41 53.63 Z" stroke="rgb(0, 0, 0)" stroke-width="0" fill-rule="evenodd" stroke-linejoin="miter" fill="rgb(0, 0, 0)" shape-rendering="geometricPrecision" /></g><g id="Solid"><path d="M271.48 69.8 L271.48 69.8 L271.78 69.97 L272.08 70.14 L272.08 84.2 L271.78 84.37 L271.48 84.54 Z" stroke="rgb(0, 0, 0)" stroke-width="0" fill-rule="evenodd" stroke-linejoin="miter" fill="rgb(0, 0, 0)" shape-rendering="geometricPrecision" /></g><g id="Solid"><path d="M271.48 84.54 L271.48 84.54 L271.78 84.37 L272.08 84.2 L284.25 91.22 L284.25 91.57 L284.25 91.92 Z" stroke="rgb(0, 0, 0)" stroke-width="0" fill-rule="evenodd" stroke-linejoin="miter" fill="rgb(0, 0, 0)" shape-rendering="geometricPrecision" /><line x1="274.37" y1="82.87" x2="284.25" y2="88.58" stroke="rgb(0, 0, 0)" stroke-width="0.6" shape-rendering="auto" /></g><g id="Solid"><path d="M284.25 91.92 L284.25 91.92 L284.25 91.57 L284.25 91.22 L296.42 84.2 L296.72 84.37 L296.71 84.72 Z" stroke="rgb(0, 0, 0)" stroke-width="0" fill-rule="evenodd" stroke-linejoin="miter" fill="rgb(0, 0, 0)" shape-rendering="geometricPrecision" /></g><g id="Solid"><path d="M297.02 84.18 L297.02 84.18 L296.72 84.37 L296.42 84.2 L296.42 70.14 L296.72 69.97 L297.02 69.8 Z" stroke="rgb(0, 0, 0)" stroke-width="0" fill-rule="evenodd" stroke-linejoin="miter" fill="rgb(0, 0, 0)" shape-rendering="geometricPrecision" /></g><g id="Solid"><path d="M297.02 69.8 L297.02 69.8 L296.72 69.97 L296.42 70.14 L284.25 63.12 L284.25 62.77 L284.25 62.42 Z" stroke="rgb(0, 0, 0)" stroke-width="0" fill-rule="evenodd" stroke-linejoin="miter" fill="rgb(0, 0, 0)" shape-rendering="geometricPrecision" /></g><g id="Solid"><path d="M284.25 62.42 L284.25 62.42 L284.25 62.77 L284.25 63.12 L272.08 70.14 L271.78 69.97 L271.48 69.8 Z" stroke="rgb(0, 0, 0)" stroke-width="0" fill-rule="evenodd" stroke-linejoin="miter" fill="rgb(0, 0, 0)" shape-rendering="geometricPrecision" /><line x1="284.25" y1="65.76" x2="274.37" y2="71.47" stroke="rgb(0, 0, 0)" stroke-width="0.6" shape-rendering="auto" /></g><g id="Wedged Hash Begin Bond"><path d="M296.87 70.23 L296.87 70.23 L296.57 69.71 L297.06 69.37 L297.41 69.97 Z" stroke="rgb(0, 0, 0)" stroke-width="0" fill-rule="evenodd" stroke-linejoin="miter" fill="rgb(0, 0, 0)" shape-rendering="geometricPrecision" /><path d="M299.38 69.05 L299.38 69.05 L298.85 68.13 L299.34 67.79 L299.92 68.79 Z" stroke="rgb(0, 0, 0)" stroke-width="0" fill-rule="evenodd" stroke-linejoin="miter" fill="rgb(0, 0, 0)" shape-rendering="geometricPrecision" /><path d="M301.88 67.87 L301.88 67.87 L301.12 66.55 L301.61 66.21 L302.42 67.61 Z" stroke="rgb(0, 0, 0)" stroke-width="0" fill-rule="evenodd" stroke-linejoin="miter" fill="rgb(0, 0, 0)" shape-rendering="geometricPrecision" /><path d="M304.39 66.69 L304.39 66.69 L303.4 64.97 L303.89 64.63 L304.93 66.43 Z" stroke="rgb(0, 0, 0)" stroke-width="0" fill-rule="evenodd" stroke-linejoin="miter" fill="rgb(0, 0, 0)" shape-rendering="geometricPrecision" /><path d="M306.89 65.51 L306.89 65.51 L305.67 63.39 L306.16 63.05 L307.43 65.25 Z" stroke="rgb(0, 0, 0)" stroke-width="0" fill-rule="evenodd" stroke-linejoin="miter" fill="rgb(0, 0, 0)" shape-rendering="geometricPrecision" /><path d="M309.4 64.33 L309.4 64.33 L307.95 61.81 L308.44 61.47 L309.94 64.07 Z" stroke="rgb(0, 0, 0)" stroke-width="0" fill-rule="evenodd" stroke-linejoin="miter" fill="rgb(0, 0, 0)" shape-rendering="geometricPrecision" /></g><g id="WedgeBegin"><path d="M296.71 84.72 L296.71 84.72 L296.72 84.37 L297.02 84.18 L309.94 90.27 L309.19 91.57 L308.44 92.87 Z" stroke="rgb(0, 0, 0)" stroke-width="0" fill-rule="evenodd" stroke-linejoin="miter" fill="rgb(0, 0, 0)" shape-rendering="geometricPrecision" /></g><g id="Arrow"><path d="M137.86 76.73 C141.26 78.76 145.66 77.66 147.7 74.27 C149.01 72.08 149.03 69.21 147.76 67 " stroke="rgb(255, 0, 0)" stroke-width="0.6" fill-rule="evenodd" stroke-linejoin="bevel" fill="none" shape-rendering="geometricPrecision" /><path d="M135.34 74.16 L138.03 78.31 C137.73 77.11 138.45 76.34 139.67 76.56 Z" stroke="rgb(255, 0, 0)" stroke-width="0" fill-rule="evenodd" stroke-linejoin="miter" stroke-miterlimit="6.93525005514866" fill="rgb(255, 0, 0)" shape-rendering="geometricPrecision" /></g><g id="Arrow"><path d="M140.86 90.86 C142.6 87.66 141.41 83.65 138.2 81.91 C136.22 80.85 133.7 80.88 131.75 82 " stroke="rgb(255, 0, 0)" stroke-width="0.6" fill-rule="evenodd" stroke-linejoin="bevel" fill="none" shape-rendering="geometricPrecision" /><path d="M138.35 93.44 L142.43 90.64 C141.24 90.97 140.45 90.28 140.64 89.05 Z" stroke="rgb(255, 0, 0)" stroke-width="0" fill-rule="evenodd" stroke-linejoin="miter" stroke-miterlimit="6.93857132315241" fill="rgb(255, 0, 0)" shape-rendering="geometricPrecision" /></g><g id="Arrow"><path d="M151.36 86.29 C147.46 86.25 144.26 89.39 144.22 93.3 C144.19 95.8 145.59 98.25 147.75 99.5 " stroke="rgb(255, 0, 0)" stroke-width="0.6" fill-rule="evenodd" stroke-linejoin="bevel" fill="none" shape-rendering="geometricPrecision" /><path d="M154.83 87.24 L150.42 85.01 C151.28 85.9 151.05 86.92 149.89 87.35 Z" stroke="rgb(255, 0, 0)" stroke-width="0" fill-rule="evenodd" stroke-linejoin="miter" stroke-miterlimit="6.92385279338265" fill="rgb(255, 0, 0)" shape-rendering="geometricPrecision" /></g><g id="Arrow"><line x1="247.1" y1="78" x2="172.25" y2="78" stroke="rgb(0, 0, 0)" stroke-width="0.6" shape-rendering="auto" /><path d="M251.35 78 L245.35 76.5 C246.54 77.34 246.54 78.66 245.35 79.5 Z" stroke="rgb(0, 0, 0)" stroke-width="0" fill-rule="evenodd" stroke-linejoin="miter" stroke-miterlimit="6.93525005514877" fill="rgb(0, 0, 0)" shape-rendering="geometricPrecision" /></g><g><text xml:space="preserve" text-anchor="start" text-rendering="geometricPrecision"><tspan x="210.25" y="70.5" font-family="Symbol" font-size="10" fill="rgb(0, 0, 0)">D</tspan></text></g></g></g></svg>