<?xml version="1.0"?><svg xmlns="http://www.w3.org/2000/svg" xmlns:xlink="http://www.w3.org/1999/xlink" viewBox="38.11 97.54 258.93 59.15" preserveAspectRatio="xMidYMid" width="100%" height="100%"><clipPath id="142"><rect x="0.3" y="0.3" width="539.4" height="719.15" /></clipPath><g id="drawing"><rect x="38.11" y="97.54" width="100%" height="100%" fill="rgb(255, 255, 255)" /><g id="page" clip-path="url(#142)"><g><text xml:space="preserve" text-anchor="start" text-rendering="geometricPrecision"><tspan x="50.31" y="120.55" font-family="Arial" font-size="10" fill="rgb(0, 0, 0)">N</tspan></text></g><g id="Solid"><path d="M41.74 124.02 L41.74 124.02 L41.44 123.85 L41.14 123.68 L49.56 118.81 L49.71 119.07 L49.86 119.33 Z" stroke="rgb(0, 0, 0)" stroke-width="0" fill-rule="evenodd" stroke-linejoin="miter" fill="rgb(0, 0, 0)" shape-rendering="geometricPrecision" /><line x1="44.03" y1="125.35" x2="51.01" y2="121.32" stroke="rgb(0, 0, 0)" stroke-width="0.6" shape-rendering="auto" /></g><g><text xml:space="preserve" text-anchor="start" text-rendering="geometricPrecision"><tspan x="62.48" y="127.75" font-family="Arial" font-size="10" fill="rgb(0, 0, 0)">O</tspan></text></g><g id="Solid"><path d="M58.04 119.38 L58.04 119.38 L58.19 119.12 L58.34 118.86 L62.16 121.07 L62.01 121.33 L61.86 121.59 Z" stroke="rgb(0, 0, 0)" stroke-width="0" fill-rule="evenodd" stroke-linejoin="miter" fill="rgb(0, 0, 0)" shape-rendering="geometricPrecision" /></g><g><text xml:space="preserve" text-anchor="start" text-rendering="geometricPrecision"><tspan x="49.73" y="106.15" font-family="Arial" font-size="10" fill="rgb(0, 0, 0)">Me</tspan></text></g><g id="Solid"><path d="M54.21 111.8 L54.21 111.8 L53.91 111.8 L53.61 111.8 L53.61 107.8 L53.91 107.8 L54.21 107.8 Z" stroke="rgb(0, 0, 0)" stroke-width="0" fill-rule="evenodd" stroke-linejoin="miter" fill="rgb(0, 0, 0)" shape-rendering="geometricPrecision" /></g><g id="Charge14"><circle cx="75.21" cy="119.82" r="3.33333333333333" stroke="rgb(0, 0, 0)" stroke-width="0.48" fill="none" /><line x1="73.24" y1="119.82" x2="77.18" y2="119.82" stroke="rgb(0, 0, 0)" stroke-width="0.48" shape-rendering="auto" /></g><g id="Arrow"><line x1="151.44" y1="127.3" x2="93.19" y2="127.3" stroke="rgb(0, 0, 0)" stroke-width="0.6" shape-rendering="auto" /><path d="M155.69 127.3 L149.69 125.8 C150.88 126.64 150.88 127.96 149.69 128.8 Z" stroke="rgb(0, 0, 0)" stroke-width="0" fill-rule="evenodd" stroke-linejoin="miter" stroke-miterlimit="6.93525005514874" fill="rgb(0, 0, 0)" shape-rendering="geometricPrecision" /></g><g><text xml:space="preserve" text-anchor="start" text-rendering="geometricPrecision"><tspan x="205.41" y="131.23" font-family="Arial" font-size="10" fill="rgb(0, 0, 0)">O</tspan></text></g><g><text xml:space="preserve" text-anchor="start" text-rendering="geometricPrecision"><tspan x="197.25" y="119.58" font-family="Arial" font-size="10" fill="rgb(0, 0, 0)">N</tspan></text></g><g id="Solid"><path d="M186.85 120.32 L186.85 120.32 L187.15 120.13 L187.45 120.35 L187.45 134.31 L187.15 134.53 L186.85 134.75 Z" stroke="rgb(0, 0, 0)" stroke-width="0" fill-rule="evenodd" stroke-linejoin="miter" fill="rgb(0, 0, 0)" shape-rendering="geometricPrecision" /></g><g id="Solid"><path d="M186.85 134.75 L186.85 134.75 L187.15 134.53 L187.45 134.31 L200.74 138.63 L200.85 138.98 L200.96 139.33 Z" stroke="rgb(0, 0, 0)" stroke-width="0" fill-rule="evenodd" stroke-linejoin="miter" fill="rgb(0, 0, 0)" shape-rendering="geometricPrecision" /></g><g id="Solid"><path d="M200.96 139.33 L200.96 139.33 L200.85 138.98 L200.74 138.63 L205.72 131.77 L205.96 131.94 L206.2 132.12 Z" stroke="rgb(0, 0, 0)" stroke-width="0" fill-rule="evenodd" stroke-linejoin="miter" fill="rgb(0, 0, 0)" shape-rendering="geometricPrecision" /></g><g id="Solid"><path d="M206.61 123.1 L206.61 123.1 L206.37 123.27 L206.12 123.45 L204.34 121 L204.59 120.82 L204.83 120.65 Z" stroke="rgb(0, 0, 0)" stroke-width="0" fill-rule="evenodd" stroke-linejoin="miter" fill="rgb(0, 0, 0)" shape-rendering="geometricPrecision" /></g><g id="Solid"><path d="M196.49 116.78 L196.49 116.78 L196.58 117.07 L196.67 117.35 L187.45 120.35 L187.15 120.13 L187.2 119.8 Z" stroke="rgb(0, 0, 0)" stroke-width="0" fill-rule="evenodd" stroke-linejoin="miter" fill="rgb(0, 0, 0)" shape-rendering="geometricPrecision" /></g><g><text xml:space="preserve" text-anchor="start" text-rendering="geometricPrecision"><tspan x="38.11" y="142.15" font-family="Arial" font-size="10" fill="rgb(0, 0, 0)">Ph</tspan></text></g><g id="Solid"><path d="M41.14 123.68 L41.14 123.68 L41.44 123.85 L41.74 124.02 L41.74 133.4 L41.44 133.4 L41.14 133.4 Z" stroke="rgb(0, 0, 0)" stroke-width="0" fill-rule="evenodd" stroke-linejoin="miter" fill="rgb(0, 0, 0)" shape-rendering="geometricPrecision" /></g><g id="Charge59"><circle cx="53.92" cy="126.36" r="3.33333333333333" stroke="rgb(0, 0, 0)" stroke-width="0.48" fill="none" /><line x1="51.95" y1="126.36" x2="55.89" y2="126.36" stroke="rgb(0, 0, 0)" stroke-width="0.48" shape-rendering="auto" /><line x1="53.92" y1="124.39" x2="53.92" y2="128.33" stroke="rgb(0, 0, 0)" stroke-width="0.48" shape-rendering="auto" /></g><g><text xml:space="preserve" text-anchor="start" text-rendering="geometricPrecision"><tspan x="201.12" y="105.88" font-family="Arial" font-size="10" fill="rgb(0, 0, 0)">Me</tspan></text></g><g id="Solid"><path d="M202.66 111.07 L202.66 111.07 L202.38 110.98 L202.09 110.89 L203.52 106.49 L203.81 106.58 L204.09 106.67 Z" stroke="rgb(0, 0, 0)" stroke-width="0" fill-rule="evenodd" stroke-linejoin="miter" fill="rgb(0, 0, 0)" shape-rendering="geometricPrecision" /></g><g><text xml:space="preserve" text-anchor="end" text-rendering="geometricPrecision"><tspan x="177.46" y="116.83" font-family="Arial" font-size="10" fill="rgb(0, 0, 0)">Ph</tspan></text></g><g id="WedgeBegin"><path d="M187.2 119.8 L187.2 119.8 L187.15 120.13 L186.85 120.32 L177.44 116.25 L178.19 114.95 L178.94 113.66 Z" stroke="rgb(0, 0, 0)" stroke-width="0" fill-rule="evenodd" stroke-linejoin="miter" fill="rgb(0, 0, 0)" shape-rendering="geometricPrecision" /></g><g id="Wedged Hash Begin Bond"><path d="M200.56 139.07 L200.56 139.07 L201.14 138.89 L201.39 139.43 L200.68 139.67 Z" stroke="rgb(0, 0, 0)" stroke-width="0" fill-rule="evenodd" stroke-linejoin="miter" fill="rgb(0, 0, 0)" shape-rendering="geometricPrecision" /><path d="M201.1 141.93 L201.1 141.93 L202.38 141.51 L202.64 142.06 L201.21 142.53 Z" stroke="rgb(0, 0, 0)" stroke-width="0" fill-rule="evenodd" stroke-linejoin="miter" fill="rgb(0, 0, 0)" shape-rendering="geometricPrecision" /><path d="M201.64 144.79 L201.64 144.79 L203.63 144.14 L203.89 144.69 L201.75 145.38 Z" stroke="rgb(0, 0, 0)" stroke-width="0" fill-rule="evenodd" stroke-linejoin="miter" fill="rgb(0, 0, 0)" shape-rendering="geometricPrecision" /><path d="M202.17 147.65 L202.17 147.65 L204.88 146.77 L205.14 147.31 L202.28 148.24 Z" stroke="rgb(0, 0, 0)" stroke-width="0" fill-rule="evenodd" stroke-linejoin="miter" fill="rgb(0, 0, 0)" shape-rendering="geometricPrecision" /></g><g><text xml:space="preserve" text-anchor="start" text-rendering="geometricPrecision"><tspan x="201.4" y="156.57" font-family="Arial" font-size="10" fill="rgb(0, 0, 0)">OEt</tspan></text></g><g><text xml:space="preserve" text-anchor="start" text-rendering="geometricPrecision"><tspan x="283.79" y="131.23" font-family="Arial" font-size="10" fill="rgb(0, 0, 0)">O</tspan></text></g><g id="Solid"><path d="M265.23 120.32 L265.23 120.32 L265.53 120.13 L265.83 120.35 L265.83 134.31 L265.53 134.53 L265.23 134.75 Z" stroke="rgb(0, 0, 0)" stroke-width="0" fill-rule="evenodd" stroke-linejoin="miter" fill="rgb(0, 0, 0)" shape-rendering="geometricPrecision" /></g><g><text xml:space="preserve" text-anchor="start" text-rendering="geometricPrecision"><tspan x="275.62" y="119.58" font-family="Arial" font-size="10" fill="rgb(0, 0, 0)">N</tspan></text></g><g id="Solid"><path d="M265.23 134.75 L265.23 134.75 L265.53 134.53 L265.83 134.31 L279.11 138.63 L279.22 138.98 L278.97 139.21 Z" stroke="rgb(0, 0, 0)" stroke-width="0" fill-rule="evenodd" stroke-linejoin="miter" fill="rgb(0, 0, 0)" shape-rendering="geometricPrecision" /></g><g id="Solid"><path d="M279.56 139.02 L279.56 139.02 L279.22 138.98 L279.11 138.63 L284.12 131.74 L284.36 131.91 L284.6 132.09 Z" stroke="rgb(0, 0, 0)" stroke-width="0" fill-rule="evenodd" stroke-linejoin="miter" fill="rgb(0, 0, 0)" shape-rendering="geometricPrecision" /></g><g id="Solid"><path d="M284.98 123.1 L284.98 123.1 L284.74 123.27 L284.5 123.45 L282.72 121 L282.96 120.82 L283.2 120.65 Z" stroke="rgb(0, 0, 0)" stroke-width="0" fill-rule="evenodd" stroke-linejoin="miter" fill="rgb(0, 0, 0)" shape-rendering="geometricPrecision" /></g><g id="Solid"><path d="M274.79 116.81 L274.79 116.81 L274.88 117.09 L274.97 117.38 L265.83 120.35 L265.53 120.13 L265.58 119.8 Z" stroke="rgb(0, 0, 0)" stroke-width="0" fill-rule="evenodd" stroke-linejoin="miter" fill="rgb(0, 0, 0)" shape-rendering="geometricPrecision" /></g><g><text xml:space="preserve" text-anchor="start" text-rendering="geometricPrecision"><tspan x="279.5" y="105.88" font-family="Arial" font-size="10" fill="rgb(0, 0, 0)">Me</tspan></text></g><g id="Solid"><path d="M281.03 111.07 L281.03 111.07 L280.75 110.98 L280.46 110.89 L281.92 106.4 L282.21 106.49 L282.49 106.58 Z" stroke="rgb(0, 0, 0)" stroke-width="0" fill-rule="evenodd" stroke-linejoin="miter" fill="rgb(0, 0, 0)" shape-rendering="geometricPrecision" /></g><g id="WedgeBegin"><path d="M265.58 119.8 L265.58 119.8 L265.53 120.13 L265.23 120.32 L255.84 116.26 L256.59 114.97 L257.34 113.67 Z" stroke="rgb(0, 0, 0)" stroke-width="0" fill-rule="evenodd" stroke-linejoin="miter" fill="rgb(0, 0, 0)" shape-rendering="geometricPrecision" /></g><g><text xml:space="preserve" text-anchor="end" text-rendering="geometricPrecision"><tspan x="255.83" y="116.83" font-family="Arial" font-size="10" fill="rgb(0, 0, 0)">Ph</tspan></text></g><g id="WedgeBegin"><path d="M278.97 139.21 L278.97 139.21 L279.22 138.98 L279.56 139.02 L283.51 147.31 L282.08 147.78 L280.65 148.24 Z" stroke="rgb(0, 0, 0)" stroke-width="0" fill-rule="evenodd" stroke-linejoin="miter" fill="rgb(0, 0, 0)" shape-rendering="geometricPrecision" /></g><g><text xml:space="preserve" text-anchor="start" text-rendering="geometricPrecision"><tspan x="279.77" y="156.57" font-family="Arial" font-size="10" fill="rgb(0, 0, 0)">OEt</tspan></text></g><g id="Solid"><path d="M58.46 148.01 L58.46 148.01 L58.31 147.75 L58.16 147.49 L70.74 140.23 L70.78 140.55 L70.82 140.87 Z" stroke="rgb(0, 0, 0)" stroke-width="0" fill-rule="evenodd" stroke-linejoin="miter" fill="rgb(0, 0, 0)" shape-rendering="geometricPrecision" /><line x1="59.61" y1="149.99" x2="71.15" y2="143.33" stroke="rgb(0, 0, 0)" stroke-width="0.6" shape-rendering="auto" /></g><g id="Solid"><path d="M70.82 140.87 L70.82 140.87 L70.78 140.55 L70.74 140.23 L79.93 142.69 L79.85 142.98 L79.78 143.27 Z" stroke="rgb(0, 0, 0)" stroke-width="0" fill-rule="evenodd" stroke-linejoin="miter" fill="rgb(0, 0, 0)" shape-rendering="geometricPrecision" /></g><g><text xml:space="preserve" text-anchor="start" text-rendering="geometricPrecision"><tspan x="80.79" y="148.18" font-family="Arial" font-size="10" fill="rgb(0, 0, 0)">OEt</tspan></text></g><g id="Arrow"><path d="M76.46 136.68 C80.08 133.7 80.59 128.35 77.61 124.73 C77.44 124.52 77.25 124.32 77.06 124.12 " stroke="rgb(255, 0, 0)" stroke-width="0.6" fill-rule="evenodd" stroke-linejoin="bevel" fill="none" shape-rendering="geometricPrecision" /><path d="M73.26 138.33 L78.03 137.02 C76.8 136.94 76.28 136.03 76.86 134.93 Z" stroke="rgb(255, 0, 0)" stroke-width="0" fill-rule="evenodd" stroke-linejoin="miter" stroke-miterlimit="6.93525005514895" fill="rgb(255, 0, 0)" shape-rendering="geometricPrecision" /></g><g id="Arrow"><path d="M48.17 129.31 C49.57 135.83 53.55 141.75 59.06 145.5 " stroke="rgb(255, 0, 0)" stroke-width="0.6" fill-rule="evenodd" stroke-linejoin="bevel" fill="none" shape-rendering="geometricPrecision" /><path d="M47.66 125.75 L47.21 130.68 C47.72 129.55 48.76 129.39 49.58 130.31 Z" stroke="rgb(255, 0, 0)" stroke-width="0" fill-rule="evenodd" stroke-linejoin="miter" stroke-miterlimit="6.93525005514871" fill="rgb(255, 0, 0)" shape-rendering="geometricPrecision" /></g><g id="Charge135"><line x1="233.34" y1="126" x2="237.28" y2="126" stroke="rgb(0, 0, 0)" stroke-width="0.48" shape-rendering="auto" /><line x1="235.31" y1="124.03" x2="235.31" y2="127.97" stroke="rgb(0, 0, 0)" stroke-width="0.48" shape-rendering="auto" /></g><g><text xml:space="preserve" text-anchor="start" text-rendering="geometricPrecision"><tspan x="119.06" y="121.13" font-family="Symbol" font-size="10" fill="rgb(0, 0, 0)">D</tspan></text></g></g></g></svg>