<?xml version="1.0"?><svg xmlns="http://www.w3.org/2000/svg" xmlns:xlink="http://www.w3.org/1999/xlink" viewBox="18.75 49.77 97.38 106.58" preserveAspectRatio="xMidYMid" width="100%" height="100%"><clipPath id="10210"><rect x="0.3" y="0.3" width="522.72" height="769.32" /></clipPath><g id="drawing"><rect x="18.75" y="49.77" width="100%" height="100%" fill="rgb(255, 255, 255)" /><g id="page" clip-path="url(#10210)"><g id="Solid"><path d="M93.11 123.72 L93.11 123.72 L92.7 124.08 L92.29 124.44 L80.73 126.03 L80.75 125.72 L80.77 125.41 Z" stroke="rgb(0, 0, 0)" stroke-width="0" fill-rule="evenodd" stroke-linejoin="miter" fill="rgb(0, 0, 0)" shape-rendering="geometricPrecision" /></g><g id="Solid"><path d="M92.29 124.44 L92.29 124.44 L92.7 124.08 L93.11 123.72 L88.64 139.35 L88.44 138.97 L88.24 138.59 Z" stroke="rgb(0, 0, 0)" stroke-width="0" fill-rule="evenodd" stroke-linejoin="miter" fill="rgb(0, 0, 0)" shape-rendering="geometricPrecision" /></g><g id="Solid"><path d="M72.21 134.02 L72.21 134.02 L72 133.64 L72.3 133.42 L88.24 138.59 L88.44 138.97 L88.64 139.35 Z" stroke="rgb(0, 0, 0)" stroke-width="0" fill-rule="evenodd" stroke-linejoin="miter" fill="rgb(0, 0, 0)" shape-rendering="geometricPrecision" /></g><g id="Solid"><g id="Bond's parts"><path d="M63.55 120.95 L63.55 120.95 L63.85 121 L64.25 121.1 L64.65 121.2 L65.05 121.3 L65.45 121.4 L65.75 121.5 L66.15 121.6 L66.55 121.7 L66.95 121.8 L67.35 121.9 L67.65 122 L68.05 122.1 L68.45 122.2 L68.85 122.3 L69.25 122.4 L69.65 122.5 L69.97 122.6 L70 122.65 L70 123.25 L69.97 123.2 L69.55 123.1 L69.15 123 L68.75 122.9 L68.35 122.8 L67.95 122.7 L67.65 122.6 L67.25 122.5 L66.85 122.4 L66.45 122.3 L66.05 122.2 L65.75 122.1 L65.35 122 L64.95 121.9 L64.55 121.8 L64.15 121.7 L63.85 121.65 L63.8 121.45 L63.75 121.4 L63.7 121.35 Z" stroke="rgb(0, 0, 0)" stroke-width="0" fill-rule="evenodd" stroke-linejoin="miter" fill="rgb(0, 0, 0)" shape-rendering="geometricPrecision" /><path d="M73.85 123.65 L73.85 123.65 L74.25 123.7 L74.55 123.8 L74.95 123.9 L75.35 124 L75.75 124.1 L76.15 124.2 L76.55 124.3 L76.85 124.4 L77.25 124.5 L77.65 124.6 L78.05 124.7 L78.45 124.8 L78.85 124.9 L79.15 125 L79.55 125.1 L79.95 125.2 L80.35 125.3 L80.75 125.35 L80.7 126.05 L80.68 126 L80.25 125.9 L79.85 125.8 L79.45 125.7 L79.15 125.6 L78.75 125.5 L78.35 125.4 L77.95 125.3 L77.55 125.2 L77.15 125.1 L76.85 125 L76.45 124.9 L76.05 124.8 L75.65 124.7 L75.25 124.6 L74.85 124.5 L74.55 124.4 L74.15 124.3 Z" stroke="rgb(0, 0, 0)" stroke-width="0" fill-rule="evenodd" stroke-linejoin="miter" fill="rgb(0, 0, 0)" shape-rendering="geometricPrecision" /></g></g><g id="Dash"><path d="M62.43 135.84 L62.43 135.84 L62.32 135.25 L59.86 135.73 L59.44 136.12 L59.43 136.43 Z" stroke="rgb(0, 0, 0)" stroke-width="0" fill-rule="evenodd" stroke-linejoin="miter" fill="rgb(0, 0, 0)" shape-rendering="geometricPrecision" /><path d="M69.13 134.51 L69.13 134.51 L69.02 133.92 L71.7 133.39 L72 133.64 L71.59 134.03 Z" stroke="rgb(0, 0, 0)" stroke-width="0" fill-rule="evenodd" stroke-linejoin="miter" fill="rgb(0, 0, 0)" shape-rendering="geometricPrecision" /><path d="M64.56 135.42 L64.56 135.42 L67.01 134.93 L66.89 134.34 L64.44 134.83 Z" stroke="rgb(0, 0, 0)" stroke-width="0" fill-rule="evenodd" stroke-linejoin="miter" fill="rgb(0, 0, 0)" shape-rendering="geometricPrecision" /></g><g id="Solid"><path d="M63.46 120.9 L63.46 120.9 L63.67 121.26 L63.88 121.62 L59.86 135.73 L59.44 136.12 L59.23 135.75 Z" stroke="rgb(0, 0, 0)" stroke-width="0" fill-rule="evenodd" stroke-linejoin="miter" fill="rgb(0, 0, 0)" shape-rendering="geometricPrecision" /></g><g id="Solid"><path d="M71.59 134.03 L71.59 134.03 L72 133.64 L72.21 134.02 L67.73 150.7 L67.52 150.33 L67.31 149.96 Z" stroke="rgb(0, 0, 0)" stroke-width="0" fill-rule="evenodd" stroke-linejoin="miter" fill="rgb(0, 0, 0)" shape-rendering="geometricPrecision" /></g><g id="Solid"><path d="M67.31 149.96 L67.31 149.96 L67.52 150.33 L67.73 150.7 L50.82 146.17 L50.83 145.86 L50.84 145.55 Z" stroke="rgb(0, 0, 0)" stroke-width="0" fill-rule="evenodd" stroke-linejoin="miter" fill="rgb(0, 0, 0)" shape-rendering="geometricPrecision" /><line x1="65.32" y1="146.52" x2="51.63" y2="142.86" stroke="rgb(0, 0, 0)" stroke-width="0.6" shape-rendering="auto" /></g><g><text xml:space="preserve" text-anchor="start" text-rendering="geometricPrecision"><tspan x="68.1" y="120.26" font-family="Arial" font-size="10" fill="rgb(0, 0, 0)">OH</tspan></text></g><g id="Solid"><path d="M72.3 133.42 L72.3 133.42 L72 133.64 L71.7 133.39 L71.7 122 L72 122 L72.3 122 Z" stroke="rgb(0, 0, 0)" stroke-width="0" fill-rule="evenodd" stroke-linejoin="miter" fill="rgb(0, 0, 0)" shape-rendering="geometricPrecision" /></g><g id="Solid"><path d="M59.23 135.75 L59.23 135.75 L59.44 136.12 L59.43 136.43 L42.96 132.01 L42.75 131.64 L42.91 131.37 Z" stroke="rgb(0, 0, 0)" stroke-width="0" fill-rule="evenodd" stroke-linejoin="miter" fill="rgb(0, 0, 0)" shape-rendering="geometricPrecision" /></g><g id="Solid"><path d="M42.42 131.73 L42.42 131.73 L42.75 131.64 L42.96 132.01 L38.69 147.95 L38.28 148.34 L37.87 148.73 Z" stroke="rgb(0, 0, 0)" stroke-width="0" fill-rule="evenodd" stroke-linejoin="miter" fill="rgb(0, 0, 0)" shape-rendering="geometricPrecision" /><line x1="44.95" y1="135.45" x2="42.58" y2="144.32" stroke="rgb(0, 0, 0)" stroke-width="0.6" shape-rendering="auto" /></g><g id="Solid"><path d="M42.91 131.37 L42.91 131.37 L42.75 131.64 L42.42 131.73 L30.2 119.52 L30.53 119.43 L30.86 119.34 Z" stroke="rgb(0, 0, 0)" stroke-width="0" fill-rule="evenodd" stroke-linejoin="miter" fill="rgb(0, 0, 0)" shape-rendering="geometricPrecision" /></g><g><text xml:space="preserve" text-anchor="start" text-rendering="geometricPrecision"><tspan x="31.1" y="106.63" font-family="Arial" font-size="10" fill="rgb(0, 0, 0)">O</tspan></text></g><g id="Solid"><path d="M30.86 119.34 L30.86 119.34 L30.53 119.43 L30.2 119.52 L33.23 108.17 L33.52 108.25 L33.81 108.32 Z" stroke="rgb(0, 0, 0)" stroke-width="0" fill-rule="evenodd" stroke-linejoin="miter" fill="rgb(0, 0, 0)" shape-rendering="geometricPrecision" /></g><g id="Solid"><path d="M40.02 101.7 L40.02 101.7 L39.95 101.41 L39.87 101.12 L51.45 98.02 L51.69 98.26 L51.93 98.5 Z" stroke="rgb(0, 0, 0)" stroke-width="0" fill-rule="evenodd" stroke-linejoin="miter" fill="rgb(0, 0, 0)" shape-rendering="geometricPrecision" /></g><g id="Solid"><path d="M51.93 98.5 L51.93 98.5 L51.69 98.26 L51.45 98.02 L55.92 81.33 L56.16 81.57 L56.4 81.81 Z" stroke="rgb(0, 0, 0)" stroke-width="0" fill-rule="evenodd" stroke-linejoin="miter" fill="rgb(0, 0, 0)" shape-rendering="geometricPrecision" /></g><g id="Solid"><path d="M56.4 81.81 L56.4 81.81 L56.16 81.57 L55.92 81.33 L72.62 76.86 L72.86 77.1 L73.1 77.34 Z" stroke="rgb(0, 0, 0)" stroke-width="0" fill-rule="evenodd" stroke-linejoin="miter" fill="rgb(0, 0, 0)" shape-rendering="geometricPrecision" /><line x1="58.7" y1="84.11" x2="73.66" y2="80.11" stroke="rgb(0, 0, 0)" stroke-width="0.6" shape-rendering="auto" /></g><g><text xml:space="preserve" text-anchor="start" text-rendering="geometricPrecision"><tspan x="74" y="64.31" font-family="Arial" font-size="10" fill="rgb(0, 0, 0)">Ph</tspan></text></g><g id="Solid"><path d="M73.1 77.34 L73.1 77.34 L72.86 77.1 L72.62 76.86 L75.56 65.87 L75.85 65.95 L76.14 66.02 Z" stroke="rgb(0, 0, 0)" stroke-width="0" fill-rule="evenodd" stroke-linejoin="miter" fill="rgb(0, 0, 0)" shape-rendering="geometricPrecision" /></g><g id="Dash"><path d="M41.26 148.06 L41.26 148.06 L41.15 147.47 L38.69 147.95 L38.28 148.34 L37.87 148.73 Z" stroke="rgb(0, 0, 0)" stroke-width="0" fill-rule="evenodd" stroke-linejoin="miter" fill="rgb(0, 0, 0)" shape-rendering="geometricPrecision" /><path d="M48.37 146.65 L48.37 146.65 L48.25 146.06 L50.84 145.55 L50.83 145.86 L50.82 146.17 Z" stroke="rgb(0, 0, 0)" stroke-width="0" fill-rule="evenodd" stroke-linejoin="miter" fill="rgb(0, 0, 0)" shape-rendering="geometricPrecision" /><path d="M43.59 147.6 L43.59 147.6 L46.04 147.11 L45.93 146.52 L43.47 147.01 Z" stroke="rgb(0, 0, 0)" stroke-width="0" fill-rule="evenodd" stroke-linejoin="miter" fill="rgb(0, 0, 0)" shape-rendering="geometricPrecision" /></g><g id="Bracket"><path d="M97.08 50.37 L104.47 50.37 L104.47 155.75 L97.08 155.75 " stroke="rgb(0, 0, 0)" stroke-width="0.6" fill-rule="evenodd" stroke-linejoin="miter" fill="none" shape-rendering="geometricPrecision" /></g><g id="Bracket"><path d="M26.74 155.75 L19.35 155.75 L19.35 50.37 L26.74 50.37 " stroke="rgb(0, 0, 0)" stroke-width="0.6" fill-rule="evenodd" stroke-linejoin="miter" fill="none" shape-rendering="geometricPrecision" /></g><g id="Charge10208"><line x1="112.35" y1="51.57" x2="112.35" y2="64.17" stroke="rgb(0, 0, 0)" stroke-width="0.48" shape-rendering="auto" /><line x1="109.05" y1="54.87" x2="115.65" y2="54.87" stroke="rgb(0, 0, 0)" stroke-width="0.48" shape-rendering="auto" /><line x1="109.05" y1="60.87" x2="115.65" y2="60.87" stroke="rgb(0, 0, 0)" stroke-width="0.48" shape-rendering="auto" /></g></g></g></svg>