<?xml version="1.0"?><svg xmlns="http://www.w3.org/2000/svg" xmlns:xlink="http://www.w3.org/1999/xlink" viewBox="33.81 271.85 100.66 51.1" preserveAspectRatio="xMidYMid" width="100%" height="100%"><clipPath id="10286"><rect x="0.3" y="0.3" width="522.72" height="769.32" /></clipPath><g id="drawing"><rect x="33.81" y="271.85" width="100%" height="100%" fill="rgb(255, 255, 255)" /><g id="page" clip-path="url(#10286)"><g id="Solid"><path d="M92.85 279.23 L92.85 279.23 L93.15 279.4 L93.45 279.57 L93.45 293.63 L93.15 293.8 L92.85 293.97 Z" stroke="rgb(0, 0, 255)" stroke-width="0" fill-rule="evenodd" stroke-linejoin="miter" fill="rgb(0, 0, 255)" shape-rendering="geometricPrecision" /></g><g id="Solid"><path d="M92.85 293.97 L92.85 293.97 L93.15 293.8 L93.45 293.63 L105.92 300.83 L105.62 301 L105.32 301.17 Z" stroke="rgb(0, 0, 255)" stroke-width="0" fill-rule="evenodd" stroke-linejoin="miter" fill="rgb(0, 0, 255)" shape-rendering="geometricPrecision" /></g><g id="Solid"><path d="M118.39 293.63 L118.39 293.63 L118.09 293.8 L117.79 293.97 L117.79 279.57 L118.09 279.4 L118.39 279.23 Z" stroke="rgb(0, 0, 255)" stroke-width="0" fill-rule="evenodd" stroke-linejoin="miter" fill="rgb(0, 0, 255)" shape-rendering="geometricPrecision" /></g><g id="Solid"><path d="M118.39 279.23 L118.39 279.23 L118.09 279.4 L117.79 279.57 L105.62 272.55 L105.62 272.2 L105.62 271.85 Z" stroke="rgb(0, 0, 255)" stroke-width="0" fill-rule="evenodd" stroke-linejoin="miter" fill="rgb(0, 0, 255)" shape-rendering="geometricPrecision" /></g><g id="Solid"><path d="M105.62 271.85 L105.62 271.85 L105.62 272.2 L105.62 272.55 L93.45 279.57 L93.15 279.4 L92.85 279.23 Z" stroke="rgb(0, 0, 255)" stroke-width="0" fill-rule="evenodd" stroke-linejoin="miter" fill="rgb(0, 0, 255)" shape-rendering="geometricPrecision" /></g><g><text xml:space="preserve" text-anchor="start" text-rendering="geometricPrecision"><tspan x="126.67" y="290.5" font-family="Arial" font-size="10" fill="rgb(0, 0, 255)">O</tspan></text></g><g id="Solid"><line x1="117.44" y1="292.68" x2="125.17" y2="288.22" stroke="rgb(0, 0, 255)" stroke-width="0.6" shape-rendering="auto" /><path d="M119.39 294.2 L119.39 294.2 L119.99 294.55 L126.61 290.73 L126.31 290.21 Z" stroke="rgb(0, 0, 255)" stroke-width="0" fill-rule="evenodd" stroke-linejoin="miter" fill="rgb(0, 0, 255)" shape-rendering="geometricPrecision" /><path d="M118.39 291.78 L118.39 291.78 L118.39 292.48 L125.32 288.48 L125.02 287.96 Z" stroke="rgb(0, 0, 255)" stroke-width="0" fill-rule="evenodd" stroke-linejoin="miter" fill="rgb(0, 0, 255)" shape-rendering="geometricPrecision" /></g><g id="Solid"><path d="M117.79 293.97 L117.79 293.97 L118.09 293.8 L118.39 293.63 L130.87 300.83 L130.57 301 L130.27 301.17 Z" stroke="rgb(0, 0, 255)" stroke-width="0" fill-rule="evenodd" stroke-linejoin="miter" fill="rgb(0, 0, 255)" shape-rendering="geometricPrecision" /></g><g id="Solid"><path d="M130.27 301.17 L130.27 301.17 L130.57 301 L130.87 300.83 L130.87 315.57 L130.57 315.4 L130.27 315.23 Z" stroke="rgb(0, 0, 255)" stroke-width="0" fill-rule="evenodd" stroke-linejoin="miter" fill="rgb(0, 0, 255)" shape-rendering="geometricPrecision" /></g><g id="Solid"><path d="M105.32 301.17 L105.32 301.17 L105.62 301 L105.92 300.83 L105.92 315.23 L105.62 315.4 L105.32 315.23 Z" stroke="rgb(0, 0, 255)" stroke-width="0" fill-rule="evenodd" stroke-linejoin="miter" fill="rgb(0, 0, 255)" shape-rendering="geometricPrecision" /><line x1="103.03" y1="302.5" x2="103.03" y2="313.9" stroke="rgb(0, 0, 255)" stroke-width="0.6" shape-rendering="auto" /></g><g id="Solid"><path d="M105.62 315.75 L105.62 315.75 L105.62 315.4 L105.92 315.23 L118.09 322.25 L118.09 322.6 L118.09 322.95 Z" stroke="rgb(0, 0, 255)" stroke-width="0" fill-rule="evenodd" stroke-linejoin="miter" fill="rgb(0, 0, 255)" shape-rendering="geometricPrecision" /></g><g id="Solid"><path d="M105.32 315.23 L105.32 315.23 L105.62 315.4 L105.62 315.75 L93.15 322.95 L93.15 322.6 L93.15 322.25 Z" stroke="rgb(0, 0, 255)" stroke-width="0" fill-rule="evenodd" stroke-linejoin="miter" fill="rgb(0, 0, 255)" shape-rendering="geometricPrecision" /></g><g><text xml:space="preserve" text-anchor="start" text-rendering="geometricPrecision"><tspan x="76.78" y="319.3" font-family="Arial" font-size="10" fill="rgb(0, 0, 255)">O</tspan></text></g><g id="Solid"><path d="M93.15 322.25 L93.15 322.25 L93.15 322.6 L93.15 322.95 L85.24 318.38 L85.39 318.12 L85.54 317.86 Z" stroke="rgb(0, 0, 255)" stroke-width="0" fill-rule="evenodd" stroke-linejoin="miter" fill="rgb(0, 0, 255)" shape-rendering="geometricPrecision" /></g><g id="Solid"><path d="M80.98 310.5 L80.98 310.5 L80.68 310.5 L80.38 310.5 L80.38 301.17 L80.68 301 L80.98 300.83 Z" stroke="rgb(0, 0, 255)" stroke-width="0" fill-rule="evenodd" stroke-linejoin="miter" fill="rgb(0, 0, 255)" shape-rendering="geometricPrecision" /></g><g id="Solid"><path d="M80.98 300.83 L80.98 300.83 L80.68 301 L80.38 301.17 L68.21 294.15 L68.21 293.8 L68.21 293.45 Z" stroke="rgb(0, 0, 255)" stroke-width="0" fill-rule="evenodd" stroke-linejoin="miter" fill="rgb(0, 0, 255)" shape-rendering="geometricPrecision" /></g><g id="Solid"><path d="M118.09 322.95 L118.09 322.95 L118.09 322.6 L118.09 322.25 L130.27 315.23 L130.57 315.4 L130.87 315.57 Z" stroke="rgb(0, 0, 255)" stroke-width="0" fill-rule="evenodd" stroke-linejoin="miter" fill="rgb(0, 0, 255)" shape-rendering="geometricPrecision" /></g><g id="Solid"><path d="M68.21 293.45 L68.21 293.45 L68.21 293.8 L68.21 294.15 L55.74 301.35 L55.74 301 L55.74 300.65 Z" stroke="rgb(0, 0, 255)" stroke-width="0" fill-rule="evenodd" stroke-linejoin="miter" fill="rgb(0, 0, 255)" shape-rendering="geometricPrecision" /><line x1="68.21" y1="296.79" x2="57.04" y2="303.24" stroke="rgb(0, 0, 255)" stroke-width="0.6" shape-rendering="auto" /></g><g><text xml:space="preserve" text-anchor="end" text-rendering="geometricPrecision"><tspan x="46.05" y="297.7" font-family="Arial" font-size="10" fill="rgb(0, 0, 255)">Ph</tspan></text></g><g id="Solid"><path d="M55.74 300.65 L55.74 300.65 L55.74 301 L55.74 301.35 L46.64 296.09 L46.79 295.83 L46.94 295.57 Z" stroke="rgb(0, 0, 255)" stroke-width="0" fill-rule="evenodd" stroke-linejoin="miter" fill="rgb(0, 0, 255)" shape-rendering="geometricPrecision" /></g></g></g></svg>