<?xml version="1.0"?><svg xmlns="http://www.w3.org/2000/svg" xmlns:xlink="http://www.w3.org/1999/xlink" viewBox="53.94 34.59 302.84 55.71" preserveAspectRatio="xMidYMid" width="100%" height="100%"><clipPath id="117"><rect x="0.3" y="0.3" width="522.72" height="769.32" /></clipPath><g id="drawing"><rect x="53.94" y="34.59" width="100%" height="100%" fill="rgb(255, 255, 255)" /><g id="page" clip-path="url(#117)"><g id="Solid"><path d="M78.73 54.13 L78.73 54.13 L79.03 54.3 L79.33 54.47 L79.33 68.53 L79.03 68.7 L78.73 68.51 Z" stroke="rgb(0, 0, 0)" stroke-width="0" fill-rule="evenodd" stroke-linejoin="miter" fill="rgb(0, 0, 0)" shape-rendering="geometricPrecision" /></g><g id="Solid"><path d="M79.04 69.05 L79.04 69.05 L79.03 68.7 L79.33 68.53 L91.5 75.55 L91.5 75.9 L91.5 76.25 Z" stroke="rgb(0, 0, 0)" stroke-width="0" fill-rule="evenodd" stroke-linejoin="miter" fill="rgb(0, 0, 0)" shape-rendering="geometricPrecision" /></g><g id="Solid"><path d="M91.5 76.25 L91.5 76.25 L91.5 75.9 L91.5 75.55 L103.67 68.53 L103.97 68.7 L103.96 69.05 Z" stroke="rgb(0, 0, 0)" stroke-width="0" fill-rule="evenodd" stroke-linejoin="miter" fill="rgb(0, 0, 0)" shape-rendering="geometricPrecision" /></g><g id="Solid"><path d="M104.27 68.51 L104.27 68.51 L103.97 68.7 L103.67 68.53 L103.67 54.47 L103.97 54.3 L104.27 54.47 Z" stroke="rgb(0, 0, 0)" stroke-width="0" fill-rule="evenodd" stroke-linejoin="miter" fill="rgb(0, 0, 0)" shape-rendering="geometricPrecision" /></g><g id="Solid"><path d="M103.62 53.75 L103.62 53.75 L103.97 54.3 L103.67 54.47 L91.5 47.45 L91.5 47.1 L91.5 46.75 Z" stroke="rgb(0, 0, 0)" stroke-width="0" fill-rule="evenodd" stroke-linejoin="miter" fill="rgb(0, 0, 0)" shape-rendering="geometricPrecision" /></g><g id="Solid"><path d="M91.5 46.75 L91.5 46.75 L91.5 47.1 L91.5 47.45 L79.33 54.47 L79.03 54.3 L78.73 54.13 Z" stroke="rgb(0, 0, 0)" stroke-width="0" fill-rule="evenodd" stroke-linejoin="miter" fill="rgb(0, 0, 0)" shape-rendering="geometricPrecision" /></g><g id="WedgeBegin"><path d="M78.73 68.51 L78.73 68.51 L79.03 68.7 L79.04 69.05 L66.86 77.51 L66.56 75.9 L65.31 74.83 Z" stroke="rgb(0, 0, 0)" stroke-width="0" fill-rule="evenodd" stroke-linejoin="miter" fill="rgb(0, 0, 0)" shape-rendering="geometricPrecision" /></g><g id="Solid"><path d="M65.31 74.83 L65.31 74.83 L66.56 75.9 L66.07 75.96 L53.94 68.96 L54.09 68.7 L54.24 68.44 Z" stroke="rgb(0, 0, 0)" stroke-width="0" fill-rule="evenodd" stroke-linejoin="miter" fill="rgb(0, 0, 0)" shape-rendering="geometricPrecision" /></g><g id="Solid"><path d="M66.26 76.62 L66.26 76.62 L66.56 75.9 L66.86 77.51 L66.86 90.3 L66.56 90.3 L66.26 90.3 Z" stroke="rgb(0, 0, 0)" stroke-width="0" fill-rule="evenodd" stroke-linejoin="miter" fill="rgb(0, 0, 0)" shape-rendering="geometricPrecision" /></g><g id="Solid"><path d="M66.07 75.96 L66.07 75.96 L66.56 75.9 L66.26 76.62 L56.59 86.29 L56.38 86.08 L56.17 85.87 Z" stroke="rgb(0, 0, 0)" stroke-width="0" fill-rule="evenodd" stroke-linejoin="miter" fill="rgb(0, 0, 0)" shape-rendering="geometricPrecision" /></g><g><text xml:space="preserve" text-anchor="start" text-rendering="geometricPrecision"><tspan x="100.07" y="43.8" font-family="Arial" font-size="10" fill="rgb(0, 0, 0)">OH</tspan></text></g><g id="WedgeBegin"><path d="M104.32 53.75 L104.32 53.75 L103.97 54.3 L103.62 53.75 L102.47 45.6 L103.97 45.6 L105.47 45.6 Z" stroke="rgb(0, 0, 0)" stroke-width="0" fill-rule="evenodd" stroke-linejoin="miter" fill="rgb(0, 0, 0)" shape-rendering="geometricPrecision" /></g><g id="Solid"><path d="M104.27 54.47 L104.27 54.47 L103.97 54.3 L104.32 53.75 L116.44 46.75 L116.44 47.1 L116.44 47.45 Z" stroke="rgb(0, 0, 0)" stroke-width="0" fill-rule="evenodd" stroke-linejoin="miter" fill="rgb(0, 0, 0)" shape-rendering="geometricPrecision" /></g><g id="Solid"><path d="M116.44 47.45 L116.44 47.45 L116.44 47.1 L116.44 46.75 L128.91 53.95 L128.91 54.3 L128.91 54.65 Z" stroke="rgb(0, 0, 0)" stroke-width="0" fill-rule="evenodd" stroke-linejoin="miter" fill="rgb(0, 0, 0)" shape-rendering="geometricPrecision" /><line x1="116.44" y1="50.09" x2="127.61" y2="56.54" stroke="rgb(0, 0, 0)" stroke-width="0.6" shape-rendering="auto" /></g><g id="Solid"><path d="M128.91 54.65 L128.91 54.65 L128.91 54.3 L128.91 53.95 L141.23 46.84 L141.38 47.1 L141.53 47.36 Z" stroke="rgb(0, 0, 0)" stroke-width="0" fill-rule="evenodd" stroke-linejoin="miter" fill="rgb(0, 0, 0)" shape-rendering="geometricPrecision" /></g><g id="WedgeBegin"><path d="M103.96 69.05 L103.96 69.05 L103.97 68.7 L104.27 68.51 L117.69 74.83 L116.44 75.9 L115.28 76.92 Z" stroke="rgb(0, 0, 0)" stroke-width="0" fill-rule="evenodd" stroke-linejoin="miter" fill="rgb(0, 0, 0)" shape-rendering="geometricPrecision" /></g><g id="Solid"><path d="M115.28 76.92 L115.28 76.92 L116.44 75.9 L117.69 74.83 L128.76 68.44 L128.91 68.7 L129.06 68.96 Z" stroke="rgb(0, 0, 0)" stroke-width="0" fill-rule="evenodd" stroke-linejoin="miter" fill="rgb(0, 0, 0)" shape-rendering="geometricPrecision" /><line x1="116.44" y1="72.91" x2="127.61" y2="66.46" stroke="rgb(0, 0, 0)" stroke-width="0.6" shape-rendering="auto" /></g><g id="Solid"><path d="M293.98 53.38 L293.98 53.38 L294.28 53.55 L294.58 53.72 L294.58 67.78 L294.28 67.95 L293.98 67.76 Z" stroke="rgb(0, 0, 0)" stroke-width="0" fill-rule="evenodd" stroke-linejoin="miter" fill="rgb(0, 0, 0)" shape-rendering="geometricPrecision" /></g><g id="Solid"><path d="M294.29 68.3 L294.29 68.3 L294.28 67.95 L294.58 67.78 L306.75 74.8 L306.75 75.15 L306.75 75.5 Z" stroke="rgb(0, 0, 0)" stroke-width="0" fill-rule="evenodd" stroke-linejoin="miter" fill="rgb(0, 0, 0)" shape-rendering="geometricPrecision" /></g><g id="Solid"><path d="M306.75 75.5 L306.75 75.5 L306.75 75.15 L306.75 74.8 L319.22 67.6 L319.22 67.95 L319.22 68.3 Z" stroke="rgb(0, 0, 0)" stroke-width="0" fill-rule="evenodd" stroke-linejoin="miter" fill="rgb(0, 0, 0)" shape-rendering="geometricPrecision" /></g><g id="Solid"><path d="M319.22 53.2 L319.22 53.2 L319.22 53.55 L319.22 53.9 L306.75 46.7 L306.75 46.35 L306.75 46 Z" stroke="rgb(0, 0, 0)" stroke-width="0" fill-rule="evenodd" stroke-linejoin="miter" fill="rgb(0, 0, 0)" shape-rendering="geometricPrecision" /></g><g id="Solid"><path d="M306.75 46 L306.75 46 L306.75 46.35 L306.75 46.7 L294.58 53.72 L294.28 53.55 L293.98 53.38 Z" stroke="rgb(0, 0, 0)" stroke-width="0" fill-rule="evenodd" stroke-linejoin="miter" fill="rgb(0, 0, 0)" shape-rendering="geometricPrecision" /></g><g id="WedgeBegin"><path d="M293.98 67.76 L293.98 67.76 L294.28 67.95 L294.29 68.3 L282.11 76.76 L281.81 75.15 L280.56 74.08 Z" stroke="rgb(0, 0, 0)" stroke-width="0" fill-rule="evenodd" stroke-linejoin="miter" fill="rgb(0, 0, 0)" shape-rendering="geometricPrecision" /></g><g id="Solid"><path d="M280.56 74.08 L280.56 74.08 L281.81 75.15 L281.32 75.21 L269.19 68.21 L269.34 67.95 L269.49 67.69 Z" stroke="rgb(0, 0, 0)" stroke-width="0" fill-rule="evenodd" stroke-linejoin="miter" fill="rgb(0, 0, 0)" shape-rendering="geometricPrecision" /></g><g id="Solid"><path d="M281.51 75.87 L281.51 75.87 L281.81 75.15 L282.11 76.76 L282.11 89.55 L281.81 89.55 L281.51 89.55 Z" stroke="rgb(0, 0, 0)" stroke-width="0" fill-rule="evenodd" stroke-linejoin="miter" fill="rgb(0, 0, 0)" shape-rendering="geometricPrecision" /></g><g id="Solid"><path d="M281.32 75.21 L281.32 75.21 L281.81 75.15 L281.51 75.87 L271.84 85.54 L271.63 85.33 L271.42 85.12 Z" stroke="rgb(0, 0, 0)" stroke-width="0" fill-rule="evenodd" stroke-linejoin="miter" fill="rgb(0, 0, 0)" shape-rendering="geometricPrecision" /></g><g><text xml:space="preserve" text-anchor="start" text-rendering="geometricPrecision"><tspan x="315.32" y="43.05" font-family="Arial" font-size="10" fill="rgb(0, 0, 0)">O</tspan></text></g><g id="Solid"><line x1="317.92" y1="53.55" x2="317.92" y2="44.8" stroke="rgb(0, 0, 0)" stroke-width="0.6" shape-rendering="auto" /><path d="M320.22 52.63 L320.22 52.63 L320.82 52.28 L320.82 44.8 L320.22 44.8 Z" stroke="rgb(0, 0, 0)" stroke-width="0" fill-rule="evenodd" stroke-linejoin="miter" fill="rgb(0, 0, 0)" shape-rendering="geometricPrecision" /><path d="M317.62 52.28 L317.62 52.28 L318.22 52.63 L318.22 44.8 L317.62 44.8 Z" stroke="rgb(0, 0, 0)" stroke-width="0" fill-rule="evenodd" stroke-linejoin="miter" fill="rgb(0, 0, 0)" shape-rendering="geometricPrecision" /></g><g id="Solid"><path d="M319.22 53.9 L319.22 53.9 L319.22 53.55 L319.22 53.2 L331.69 46 L331.69 46.35 L331.69 46.7 Z" stroke="rgb(0, 0, 0)" stroke-width="0" fill-rule="evenodd" stroke-linejoin="miter" fill="rgb(0, 0, 0)" shape-rendering="geometricPrecision" /></g><g id="Solid"><path d="M331.69 46.7 L331.69 46.7 L331.69 46.35 L331.69 46 L344.16 53.2 L344.16 53.55 L343.86 53.72 Z" stroke="rgb(0, 0, 0)" stroke-width="0" fill-rule="evenodd" stroke-linejoin="miter" fill="rgb(0, 0, 0)" shape-rendering="geometricPrecision" /></g><g id="Solid"><path d="M344.46 53.72 L344.46 53.72 L344.16 53.55 L344.16 53.2 L356.48 46.09 L356.63 46.35 L356.78 46.61 Z" stroke="rgb(0, 0, 0)" stroke-width="0" fill-rule="evenodd" stroke-linejoin="miter" fill="rgb(0, 0, 0)" shape-rendering="geometricPrecision" /></g><g id="Solid"><path d="M319.22 68.3 L319.22 68.3 L319.22 67.95 L319.22 67.6 L331.84 74.89 L331.69 75.15 L331.54 75.41 Z" stroke="rgb(0, 0, 0)" stroke-width="0" fill-rule="evenodd" stroke-linejoin="miter" fill="rgb(0, 0, 0)" shape-rendering="geometricPrecision" /><line x1="319.22" y1="70.94" x2="330.39" y2="77.39" stroke="rgb(0, 0, 0)" stroke-width="0.6" shape-rendering="auto" /></g><path d="M331.69 75.15 A0.935062138479169,0.935062138479169 -30.0015236097033 0,0 333 75.55 A0.935062138479169,0.935062138479169 -30.0015236097033 0,0 333.31 74.21 A0.935062138479169,0.935062138479169 -30.0015236097033 0,1 333.62 72.88 A0.935062138479169,0.935062138479169 -30.0015236097033 0,1 334.93 73.28 A0.935062138479169,0.935062138479169 -30.0015236097033 0,0 336.24 73.68 A0.935062138479169,0.935062138479169 -30.0015236097033 0,0 336.55 72.34 A0.935062138479169,0.935062138479169 -30.0015236097033 0,1 336.86 71.01 A0.935062138479169,0.935062138479169 -30.0015236097033 0,1 338.17 71.41 A0.935062138479169,0.935062138479169 -30.0015236097033 0,0 339.48 71.81 A0.935062138479169,0.935062138479169 -30.0015236097033 0,0 339.79 70.47 A0.935062138479169,0.935062138479169 -30.0015236097033 0,1 340.1 69.14 A0.935062138479169,0.935062138479169 -30.0015236097033 0,1 341.41 69.54 A0.935062138479169,0.935062138479169 -30.0015236097033 0,0 342.72 69.94 A0.935062138479169,0.935062138479169 -30.0015236097033 0,0 343.03 68.6 A0.935062138479169,0.935062138479169 -30.0015236097033 0,1 343.34 67.27 " stroke="rgb(0, 0, 0)" stroke-width="0.6" fill-rule="evenodd" stroke-linejoin="bevel" fill="none" shape-rendering="geometricPrecision" /><g id="Arrow"><line x1="232" y1="60" x2="193.5" y2="60" stroke="rgb(0, 0, 0)" stroke-width="0.6" shape-rendering="auto" /><path d="M236.25 60 L230.25 58.5 C231.44 59.34 231.44 60.66 230.25 61.5 Z" stroke="rgb(0, 0, 0)" stroke-width="0" fill-rule="evenodd" stroke-linejoin="miter" stroke-miterlimit="6.93525005514877" fill="rgb(0, 0, 0)" shape-rendering="geometricPrecision" /></g><g><text xml:space="preserve" text-anchor="start" text-rendering="geometricPrecision"><tspan x="210" y="54.75" font-family="Symbol" font-size="10" fill="rgb(0, 0, 0)">D</tspan></text></g><g id="Solid"><path d="M343.86 53.72 L343.86 53.72 L344.16 53.55 L344.46 53.72 L344.46 67.95 L344.16 67.95 L343.86 67.95 Z" stroke="rgb(0, 0, 0)" stroke-width="0" fill-rule="evenodd" stroke-linejoin="miter" fill="rgb(0, 0, 0)" shape-rendering="geometricPrecision" /></g><g id="Arrow"><path d="M125.39 62.12 C123.34 63.31 122 65.62 122 68 " stroke="rgb(255, 0, 0)" stroke-width="0.6" fill-rule="evenodd" stroke-linejoin="bevel" fill="none" shape-rendering="geometricPrecision" /><path d="M128.79 61.21 L124.65 61.28 C125.65 61.67 125.84 62.38 125.17 63.22 Z" stroke="rgb(255, 0, 0)" stroke-width="0" fill-rule="evenodd" stroke-linejoin="miter" stroke-miterlimit="5.32399999838295" fill="rgb(255, 0, 0)" shape-rendering="geometricPrecision" /></g><g id="Arrow"><path d="M114.19 53.56 C116.23 54.1 118.51 53.49 120 52 " stroke="rgb(255, 0, 0)" stroke-width="0.6" fill-rule="evenodd" stroke-linejoin="bevel" fill="none" shape-rendering="geometricPrecision" /><path d="M111.5 52 L114.13 54.55 C113.77 53.64 114.06 53.14 115.02 53.01 Z" stroke="rgb(255, 0, 0)" stroke-width="0" fill-rule="evenodd" stroke-linejoin="miter" stroke-miterlimit="4.91065618851277" fill="rgb(255, 0, 0)" shape-rendering="geometricPrecision" /></g><g id="Arrow"><path d="M111.55 65.61 C110.93 63.16 108.93 61.14 106.5 60.49 " stroke="rgb(255, 0, 0)" stroke-width="0.6" fill-rule="evenodd" stroke-linejoin="bevel" fill="none" shape-rendering="geometricPrecision" /><path d="M111.53 69.21 L112.58 65 C111.93 65.91 111.12 65.91 110.47 65 Z" stroke="rgb(255, 0, 0)" stroke-width="0" fill-rule="evenodd" stroke-linejoin="miter" stroke-miterlimit="5.68232044903056" fill="rgb(255, 0, 0)" shape-rendering="geometricPrecision" /></g></g></g></svg>