<?xml version="1.0"?><svg xmlns="http://www.w3.org/2000/svg" xmlns:xlink="http://www.w3.org/1999/xlink" viewBox="30.08 173.52 88.19 54.96" preserveAspectRatio="xMidYMid" width="100%" height="100%"><clipPath id="5016"><rect x="0.3" y="0.3" width="522.72" height="769.32" /></clipPath><g id="drawing"><rect x="30.08" y="173.52" width="100%" height="100%" fill="rgb(255, 255, 255)" /><g id="page" clip-path="url(#5016)"><g id="Solid"><path d="M54.87 192.31 L54.87 192.31 L55.17 192.48 L55.47 192.65 L55.47 206.71 L55.17 206.88 L54.87 207.05 Z" stroke="rgb(0, 0, 0)" stroke-width="0" fill-rule="evenodd" stroke-linejoin="miter" fill="rgb(0, 0, 0)" shape-rendering="geometricPrecision" /></g><g id="Solid"><path d="M54.87 207.05 L54.87 207.05 L55.17 206.88 L55.47 206.71 L67.64 213.73 L67.64 214.08 L67.64 214.43 Z" stroke="rgb(0, 0, 0)" stroke-width="0" fill-rule="evenodd" stroke-linejoin="miter" fill="rgb(0, 0, 0)" shape-rendering="geometricPrecision" /></g><g id="Solid"><path d="M67.64 214.43 L67.64 214.43 L67.64 214.08 L67.64 213.73 L80.11 206.53 L80.11 206.88 L80.11 207.23 Z" stroke="rgb(0, 0, 0)" stroke-width="0" fill-rule="evenodd" stroke-linejoin="miter" fill="rgb(0, 0, 0)" shape-rendering="geometricPrecision" /></g><g id="Solid"><path d="M80.11 192.13 L80.11 192.13 L80.11 192.48 L80.11 192.83 L67.64 185.63 L67.64 185.28 L67.64 184.93 Z" stroke="rgb(0, 0, 0)" stroke-width="0" fill-rule="evenodd" stroke-linejoin="miter" fill="rgb(0, 0, 0)" shape-rendering="geometricPrecision" /></g><g id="Solid"><path d="M67.64 184.93 L67.64 184.93 L67.64 185.28 L67.64 185.63 L55.47 192.65 L55.17 192.48 L54.87 192.31 Z" stroke="rgb(0, 0, 0)" stroke-width="0" fill-rule="evenodd" stroke-linejoin="miter" fill="rgb(0, 0, 0)" shape-rendering="geometricPrecision" /></g><g id="Wedged Hash Begin Bond"><path d="M55.02 206.62 L55.02 206.62 L55.32 207.14 L54.83 207.48 L54.48 206.88 Z" stroke="rgb(0, 0, 0)" stroke-width="0" fill-rule="evenodd" stroke-linejoin="miter" fill="rgb(0, 0, 0)" shape-rendering="geometricPrecision" /><path d="M52.51 207.8 L52.51 207.8 L53.04 208.72 L52.55 209.06 L51.97 208.06 Z" stroke="rgb(0, 0, 0)" stroke-width="0" fill-rule="evenodd" stroke-linejoin="miter" fill="rgb(0, 0, 0)" shape-rendering="geometricPrecision" /><path d="M50.01 208.98 L50.01 208.98 L50.77 210.3 L50.28 210.64 L49.47 209.24 Z" stroke="rgb(0, 0, 0)" stroke-width="0" fill-rule="evenodd" stroke-linejoin="miter" fill="rgb(0, 0, 0)" shape-rendering="geometricPrecision" /><path d="M47.5 210.16 L47.5 210.16 L48.49 211.88 L48 212.22 L46.96 210.42 Z" stroke="rgb(0, 0, 0)" stroke-width="0" fill-rule="evenodd" stroke-linejoin="miter" fill="rgb(0, 0, 0)" shape-rendering="geometricPrecision" /><path d="M45 211.34 L45 211.34 L46.22 213.46 L45.73 213.8 L44.46 211.6 Z" stroke="rgb(0, 0, 0)" stroke-width="0" fill-rule="evenodd" stroke-linejoin="miter" fill="rgb(0, 0, 0)" shape-rendering="geometricPrecision" /><path d="M42.49 212.52 L42.49 212.52 L43.94 215.04 L43.45 215.38 L41.95 212.78 Z" stroke="rgb(0, 0, 0)" stroke-width="0" fill-rule="evenodd" stroke-linejoin="miter" fill="rgb(0, 0, 0)" shape-rendering="geometricPrecision" /></g><g id="Solid"><path d="M43 213.91 L43 213.91 L42.7 214.08 L42.21 214.14 L30.08 207.14 L30.23 206.88 L30.38 206.62 Z" stroke="rgb(0, 0, 0)" stroke-width="0" fill-rule="evenodd" stroke-linejoin="miter" fill="rgb(0, 0, 0)" shape-rendering="geometricPrecision" /></g><g id="Solid"><path d="M42.4 214.8 L42.4 214.8 L42.7 214.08 L43 213.91 L43 228.48 L42.7 228.48 L42.4 228.48 Z" stroke="rgb(0, 0, 0)" stroke-width="0" fill-rule="evenodd" stroke-linejoin="miter" fill="rgb(0, 0, 0)" shape-rendering="geometricPrecision" /></g><g id="Solid"><path d="M42.21 214.14 L42.21 214.14 L42.7 214.08 L42.4 214.8 L32.73 224.47 L32.52 224.26 L32.31 224.05 Z" stroke="rgb(0, 0, 0)" stroke-width="0" fill-rule="evenodd" stroke-linejoin="miter" fill="rgb(0, 0, 0)" shape-rendering="geometricPrecision" /></g><g><text xml:space="preserve" text-anchor="start" text-rendering="geometricPrecision"><tspan x="76.21" y="181.98" font-family="Arial" font-size="10" fill="rgb(0, 0, 0)">O</tspan></text></g><g id="Solid"><line x1="78.81" y1="192.48" x2="78.81" y2="183.8" stroke="rgb(0, 0, 0)" stroke-width="0.6" shape-rendering="auto" /><path d="M81.11 191.56 L81.11 191.56 L81.71 191.21 L81.71 183.8 L81.11 183.8 Z" stroke="rgb(0, 0, 0)" stroke-width="0" fill-rule="evenodd" stroke-linejoin="miter" fill="rgb(0, 0, 0)" shape-rendering="geometricPrecision" /><path d="M78.51 191.21 L78.51 191.21 L79.11 191.56 L79.11 183.8 L78.51 183.8 Z" stroke="rgb(0, 0, 0)" stroke-width="0" fill-rule="evenodd" stroke-linejoin="miter" fill="rgb(0, 0, 0)" shape-rendering="geometricPrecision" /></g><g id="Solid"><path d="M80.11 192.83 L80.11 192.83 L80.11 192.48 L80.11 192.13 L92.58 184.93 L92.58 185.28 L92.58 185.63 Z" stroke="rgb(0, 0, 0)" stroke-width="0" fill-rule="evenodd" stroke-linejoin="miter" fill="rgb(0, 0, 0)" shape-rendering="geometricPrecision" /></g><g id="Solid"><path d="M92.58 185.63 L92.58 185.63 L92.58 185.28 L92.58 184.93 L105.04 192.13 L105.05 192.48 L104.75 192.65 Z" stroke="rgb(0, 0, 0)" stroke-width="0" fill-rule="evenodd" stroke-linejoin="miter" fill="rgb(0, 0, 0)" shape-rendering="geometricPrecision" /></g><g id="WedgeBegin"><path d="M105.35 192.67 L105.35 192.67 L105.05 192.48 L105.04 192.13 L116.77 183.98 L117.52 185.28 L118.27 186.58 Z" stroke="rgb(0, 0, 0)" stroke-width="0" fill-rule="evenodd" stroke-linejoin="miter" fill="rgb(0, 0, 0)" shape-rendering="geometricPrecision" /></g><g id="Solid"><path d="M80.11 207.23 L80.11 207.23 L80.11 206.88 L80.11 206.53 L92.58 213.73 L92.58 214.08 L92.58 214.43 Z" stroke="rgb(0, 0, 0)" stroke-width="0" fill-rule="evenodd" stroke-linejoin="miter" fill="rgb(0, 0, 0)" shape-rendering="geometricPrecision" /><line x1="80.11" y1="209.87" x2="91.28" y2="216.32" stroke="rgb(0, 0, 0)" stroke-width="0.6" shape-rendering="auto" /></g><g id="Solid"><path d="M92.58 214.43 L92.58 214.43 L92.58 214.08 L92.58 213.73 L104.75 206.71 L105.05 206.88 L105.35 207.05 Z" stroke="rgb(0, 0, 0)" stroke-width="0" fill-rule="evenodd" stroke-linejoin="miter" fill="rgb(0, 0, 0)" shape-rendering="geometricPrecision" /></g><g id="Solid"><path d="M104.75 192.65 L104.75 192.65 L105.05 192.48 L105.35 192.67 L105.35 207.05 L105.05 206.88 L104.75 206.71 Z" stroke="rgb(0, 0, 0)" stroke-width="0" fill-rule="evenodd" stroke-linejoin="miter" fill="rgb(0, 0, 0)" shape-rendering="geometricPrecision" /></g></g></g></svg>