<?xml version="1.0"?><svg xmlns="http://www.w3.org/2000/svg" xmlns:xlink="http://www.w3.org/1999/xlink" viewBox="30.08 173.52 90.44 54.96" preserveAspectRatio="xMidYMid" width="100%" height="100%"><clipPath id="5022"><rect x="0.3" y="0.3" width="522.72" height="769.32" /></clipPath><g id="drawing"><rect x="30.08" y="173.52" width="100%" height="100%" fill="rgb(255, 255, 255)" /><g id="page" clip-path="url(#5022)"><g id="Solid"><path d="M54.87 192.31 L54.87 192.31 L55.17 192.48 L55.47 192.65 L55.47 206.63 L55.17 206.88 L54.87 206.69 Z" stroke="rgb(0, 0, 0)" stroke-width="0" fill-rule="evenodd" stroke-linejoin="miter" fill="rgb(0, 0, 0)" shape-rendering="geometricPrecision" /></g><g id="Solid"><path d="M55.24 207.2 L55.24 207.2 L55.17 206.88 L55.47 206.63 L71.33 209.27 L71.39 209.58 L71.45 209.89 Z" stroke="rgb(0, 0, 0)" stroke-width="0" fill-rule="evenodd" stroke-linejoin="miter" fill="rgb(0, 0, 0)" shape-rendering="geometricPrecision" /></g><g id="Solid"><path d="M71.45 209.89 L71.45 209.89 L71.39 209.58 L71.33 209.27 L83.86 202.03 L83.86 202.38 L83.86 202.73 Z" stroke="rgb(0, 0, 0)" stroke-width="0" fill-rule="evenodd" stroke-linejoin="miter" fill="rgb(0, 0, 0)" shape-rendering="geometricPrecision" /></g><g id="Solid"><path d="M80.18 192.17 L80.18 192.17 L80.11 192.48 L80.04 192.79 L67.64 185.63 L67.64 185.28 L67.64 184.93 Z" stroke="rgb(0, 0, 0)" stroke-width="0" fill-rule="evenodd" stroke-linejoin="miter" fill="rgb(0, 0, 0)" shape-rendering="geometricPrecision" /></g><g id="Solid"><path d="M67.64 184.93 L67.64 184.93 L67.64 185.28 L67.64 185.63 L55.47 192.65 L55.17 192.48 L54.87 192.31 Z" stroke="rgb(0, 0, 0)" stroke-width="0" fill-rule="evenodd" stroke-linejoin="miter" fill="rgb(0, 0, 0)" shape-rendering="geometricPrecision" /></g><g id="WedgeBegin"><path d="M54.87 206.69 L54.87 206.69 L55.17 206.88 L55.24 207.2 L43 215.69 L42.7 214.08 L41.45 213.01 Z" stroke="rgb(0, 0, 0)" stroke-width="0" fill-rule="evenodd" stroke-linejoin="miter" fill="rgb(0, 0, 0)" shape-rendering="geometricPrecision" /></g><g id="Solid"><path d="M41.45 213.01 L41.45 213.01 L42.7 214.08 L42.21 214.14 L30.08 207.14 L30.23 206.88 L30.38 206.62 Z" stroke="rgb(0, 0, 0)" stroke-width="0" fill-rule="evenodd" stroke-linejoin="miter" fill="rgb(0, 0, 0)" shape-rendering="geometricPrecision" /></g><g id="Solid"><path d="M42.4 214.8 L42.4 214.8 L42.7 214.08 L43 215.69 L43 228.48 L42.7 228.48 L42.4 228.48 Z" stroke="rgb(0, 0, 0)" stroke-width="0" fill-rule="evenodd" stroke-linejoin="miter" fill="rgb(0, 0, 0)" shape-rendering="geometricPrecision" /></g><g id="Solid"><path d="M42.21 214.14 L42.21 214.14 L42.7 214.08 L42.4 214.8 L32.73 224.47 L32.52 224.26 L32.31 224.05 Z" stroke="rgb(0, 0, 0)" stroke-width="0" fill-rule="evenodd" stroke-linejoin="miter" fill="rgb(0, 0, 0)" shape-rendering="geometricPrecision" /></g><g><text xml:space="preserve" text-anchor="start" text-rendering="geometricPrecision"><tspan x="76.21" y="181.98" font-family="Arial" font-size="10" fill="rgb(0, 0, 0)">O</tspan></text></g><g id="Solid"><line x1="78.81" y1="192.48" x2="78.81" y2="183.8" stroke="rgb(0, 0, 0)" stroke-width="0.6" shape-rendering="auto" /><path d="M81.11 192.1 L81.11 192.1 L81.71 192.05 L81.71 183.8 L81.11 183.8 Z" stroke="rgb(0, 0, 0)" stroke-width="0" fill-rule="evenodd" stroke-linejoin="miter" fill="rgb(0, 0, 0)" shape-rendering="geometricPrecision" /><path d="M78.51 191.21 L78.51 191.21 L79.11 191.56 L79.11 183.8 L78.51 183.8 Z" stroke="rgb(0, 0, 0)" stroke-width="0" fill-rule="evenodd" stroke-linejoin="miter" fill="rgb(0, 0, 0)" shape-rendering="geometricPrecision" /></g><g id="Solid"><path d="M80.04 192.79 L80.04 192.79 L80.11 192.48 L80.18 192.17 L94.93 190.97 L94.83 191.28 L94.73 191.59 Z" stroke="rgb(0, 0, 0)" stroke-width="0" fill-rule="evenodd" stroke-linejoin="miter" fill="rgb(0, 0, 0)" shape-rendering="geometricPrecision" /></g><g id="Solid"><path d="M94.73 191.59 L94.73 191.59 L94.83 191.28 L94.93 190.97 L107.32 201.85 L107.3 202.23 L106.96 202.33 Z" stroke="rgb(0, 0, 0)" stroke-width="0" fill-rule="evenodd" stroke-linejoin="miter" fill="rgb(0, 0, 0)" shape-rendering="geometricPrecision" /></g><g id="WedgeBegin"><path d="M107.55 202.44 L107.55 202.44 L107.3 202.23 L107.32 201.85 L119.02 193.73 L119.77 195.03 L120.52 196.33 Z" stroke="rgb(0, 0, 0)" stroke-width="0" fill-rule="evenodd" stroke-linejoin="miter" fill="rgb(0, 0, 0)" shape-rendering="geometricPrecision" /></g><g id="Solid"><path d="M83.86 202.73 L83.86 202.73 L83.86 202.38 L83.86 202.03 L96.57 209.37 L96.33 209.58 L96.09 209.79 Z" stroke="rgb(0, 0, 0)" stroke-width="0" fill-rule="evenodd" stroke-linejoin="miter" fill="rgb(0, 0, 0)" shape-rendering="geometricPrecision" /><line x1="83.86" y1="205.37" x2="94.22" y2="211.35" stroke="rgb(0, 0, 0)" stroke-width="0.6" shape-rendering="auto" /></g><g id="Solid"><path d="M96.09 209.79 L96.09 209.79 L96.33 209.58 L96.57 209.37 L101.53 222.98 L101.58 223.98 L101.63 224.98 Z" stroke="rgb(0, 0, 0)" stroke-width="0" fill-rule="evenodd" stroke-linejoin="miter" fill="rgb(0, 0, 0)" shape-rendering="geometricPrecision" /></g><g id="Solid"><path d="M101.63 224.98 L101.63 224.98 L101.58 223.98 L101.53 222.98 L106.96 202.33 L107.3 202.23 L107.55 202.44 Z" stroke="rgb(0, 0, 0)" stroke-width="0" fill-rule="evenodd" stroke-linejoin="miter" fill="rgb(0, 0, 0)" shape-rendering="geometricPrecision" /></g></g></g></svg>