<?xml version="1.0"?><svg xmlns="http://www.w3.org/2000/svg" xmlns:xlink="http://www.w3.org/1999/xlink" viewBox="83.38 92.45 392.47 44.46" preserveAspectRatio="xMidYMid" width="100%" height="100%"><clipPath id="88"><rect x="0.3" y="0.3" width="539.4" height="719.15" /></clipPath><g id="drawing"><rect x="83.38" y="92.45" width="100%" height="100%" fill="rgb(255, 255, 255)" /><g id="page" clip-path="url(#88)"><g id="Solid"><path d="M83.38 111.55 L83.38 111.55 L83.53 111.29 L83.68 111.03 L96 118.14 L96 118.49 L96 118.84 Z" stroke="rgb(0, 0, 0)" stroke-width="0" fill-rule="evenodd" stroke-linejoin="miter" fill="rgb(0, 0, 0)" shape-rendering="geometricPrecision" /><line x1="84.83" y1="109.05" x2="96" y2="115.5" stroke="rgb(0, 0, 0)" stroke-width="0.6" shape-rendering="auto" /></g><g id="Solid"><path d="M96 118.84 L96 118.84 L96 118.49 L96 118.14 L108.47 110.94 L108.47 111.29 L108.47 111.64 Z" stroke="rgb(0, 0, 0)" stroke-width="0" fill-rule="evenodd" stroke-linejoin="miter" fill="rgb(0, 0, 0)" shape-rendering="geometricPrecision" /></g><g><text xml:space="preserve" text-anchor="start" text-rendering="geometricPrecision"><tspan x="117.05" y="122.39" font-family="Arial" font-size="10" fill="rgb(0, 0, 0)">O</tspan></text></g><g id="Solid"><path d="M108.47 111.64 L108.47 111.64 L108.47 111.29 L108.47 110.94 L116.76 115.73 L116.61 115.99 L116.46 116.25 Z" stroke="rgb(0, 0, 0)" stroke-width="0" fill-rule="evenodd" stroke-linejoin="miter" fill="rgb(0, 0, 0)" shape-rendering="geometricPrecision" /></g><g id="Solid"><path d="M125.64 116.13 L125.64 116.13 L125.49 115.87 L125.34 115.61 L133.42 110.94 L133.42 111.29 L133.42 111.64 Z" stroke="rgb(0, 0, 0)" stroke-width="0" fill-rule="evenodd" stroke-linejoin="miter" fill="rgb(0, 0, 0)" shape-rendering="geometricPrecision" /></g><g id="Solid"><path d="M133.42 111.64 L133.42 111.64 L133.42 111.29 L133.42 110.94 L145.89 118.14 L145.89 118.49 L145.89 118.84 Z" stroke="rgb(0, 0, 0)" stroke-width="0" fill-rule="evenodd" stroke-linejoin="miter" fill="rgb(0, 0, 0)" shape-rendering="geometricPrecision" /><line x1="133.42" y1="114.28" x2="144.59" y2="120.73" stroke="rgb(0, 0, 0)" stroke-width="0.6" shape-rendering="auto" /></g><g><text xml:space="preserve" text-anchor="start" text-rendering="geometricPrecision"><tspan x="154.18" y="115.19" font-family="Arial" font-size="10" fill="rgb(0, 0, 0)">Me</tspan></text></g><g id="Solid"><path d="M145.89 118.84 L145.89 118.84 L145.89 118.49 L145.89 118.14 L153.46 113.77 L153.61 114.03 L153.76 114.29 Z" stroke="rgb(0, 0, 0)" stroke-width="0" fill-rule="evenodd" stroke-linejoin="miter" fill="rgb(0, 0, 0)" shape-rendering="geometricPrecision" /></g><g id="Arrow"><g id="Equilibrium Arrow"><line x1="220.34" y1="113.77" x2="180.56" y2="113.77" stroke="rgb(0, 0, 0)" stroke-width="0.6" shape-rendering="auto" /><line x1="223.69" y1="115.57" x2="183.91" y2="115.57" stroke="rgb(0, 0, 0)" stroke-width="0.6" shape-rendering="auto" /></g><path d="M224.59 114.07 L218.59 112.27 C219.78 113.28 219.34 114.07 219.34 114.07 Z" stroke="rgb(0, 0, 0)" stroke-width="0" fill-rule="evenodd" stroke-linejoin="miter" stroke-miterlimit="6.0552602997972" fill="rgb(0, 0, 0)" shape-rendering="geometricPrecision" /><path d="M179.66 115.27 L185.66 117.07 C184.47 116.06 184.91 115.27 184.91 115.27 Z" stroke="rgb(0, 0, 0)" stroke-width="0" fill-rule="evenodd" stroke-linejoin="miter" stroke-miterlimit="6.0552602997972" fill="rgb(0, 0, 0)" shape-rendering="geometricPrecision" /></g><g id="Solid"><path d="M259.99 105.81 L259.99 105.81 L259.69 105.64 L259.39 105.47 L272.16 98.09 L272.16 98.44 L272.16 98.79 Z" stroke="rgb(0, 0, 0)" stroke-width="0" fill-rule="evenodd" stroke-linejoin="miter" fill="rgb(0, 0, 0)" shape-rendering="geometricPrecision" /></g><g id="Solid"><path d="M259.39 105.47 L259.39 105.47 L259.69 105.64 L259.99 105.81 L259.99 115.1 L259.69 115.1 L259.39 115.1 Z" stroke="rgb(0, 0, 0)" stroke-width="0" fill-rule="evenodd" stroke-linejoin="miter" fill="rgb(0, 0, 0)" shape-rendering="geometricPrecision" /></g><g><text xml:space="preserve" text-anchor="start" text-rendering="geometricPrecision"><tspan x="255.79" y="123.94" font-family="Arial" font-size="10" fill="rgb(0, 0, 0)">O</tspan></text></g><g id="Solid"><path d="M264.24 123.01 L264.24 123.01 L264.39 122.75 L264.54 122.49 L272.16 126.89 L272.16 127.24 L272.16 127.59 Z" stroke="rgb(0, 0, 0)" stroke-width="0" fill-rule="evenodd" stroke-linejoin="miter" fill="rgb(0, 0, 0)" shape-rendering="geometricPrecision" /></g><g id="Solid"><path d="M272.16 127.59 L272.16 127.59 L272.16 127.24 L272.16 126.89 L284.63 119.69 L284.63 120.04 L284.63 120.39 Z" stroke="rgb(0, 0, 0)" stroke-width="0" fill-rule="evenodd" stroke-linejoin="miter" fill="rgb(0, 0, 0)" shape-rendering="geometricPrecision" /><line x1="272.16" y1="124.25" x2="283.33" y2="117.8" stroke="rgb(0, 0, 0)" stroke-width="0.6" shape-rendering="auto" /></g><g id="Solid"><path d="M284.63 120.39 L284.63 120.39 L284.63 120.04 L284.63 119.69 L292.46 124.22 L292.31 124.48 L292.16 124.74 Z" stroke="rgb(0, 0, 0)" stroke-width="0" fill-rule="evenodd" stroke-linejoin="miter" fill="rgb(0, 0, 0)" shape-rendering="geometricPrecision" /></g><g><text xml:space="preserve" text-anchor="start" text-rendering="geometricPrecision"><tspan x="292.92" y="131.14" font-family="Arial" font-size="10" fill="rgb(0, 0, 0)">Me</tspan></text></g><g id="Solid"><path d="M272.16 98.79 L272.16 98.79 L272.16 98.44 L272.16 98.09 L284.78 105.38 L284.63 105.64 L284.48 105.9 Z" stroke="rgb(0, 0, 0)" stroke-width="0" fill-rule="evenodd" stroke-linejoin="miter" fill="rgb(0, 0, 0)" shape-rendering="geometricPrecision" /><line x1="272.16" y1="101.43" x2="283.33" y2="107.88" stroke="rgb(0, 0, 0)" stroke-width="0.6" shape-rendering="auto" /></g><g id="Arrow"><line x1="380.12" y1="114.86" x2="328.69" y2="114.86" stroke="rgb(0, 0, 0)" stroke-width="0.6" shape-rendering="auto" /><path d="M384.37 114.86 L378.37 113.36 C379.56 114.2 379.56 115.52 378.37 116.36 Z" stroke="rgb(0, 0, 0)" stroke-width="0" fill-rule="evenodd" stroke-linejoin="miter" stroke-miterlimit="6.93525005514877" fill="rgb(0, 0, 0)" shape-rendering="geometricPrecision" /></g><g id="Solid"><path d="M422.06 118.84 L422.06 118.84 L422.06 118.49 L422.06 118.14 L434.53 110.94 L434.53 111.29 L434.53 111.64 Z" stroke="rgb(0, 0, 0)" stroke-width="0" fill-rule="evenodd" stroke-linejoin="miter" fill="rgb(0, 0, 0)" shape-rendering="geometricPrecision" /></g><g id="Solid"><path d="M422.06 118.14 L422.06 118.14 L422.06 118.49 L422.06 118.84 L409.44 111.55 L409.59 111.29 L409.74 111.03 Z" stroke="rgb(0, 0, 0)" stroke-width="0" fill-rule="evenodd" stroke-linejoin="miter" fill="rgb(0, 0, 0)" shape-rendering="geometricPrecision" /><line x1="422.06" y1="115.5" x2="410.89" y2="109.05" stroke="rgb(0, 0, 0)" stroke-width="0.6" shape-rendering="auto" /></g><g id="Solid"><path d="M434.53 111.64 L434.53 111.64 L434.53 111.29 L434.53 110.94 L447 118.14 L447 118.49 L446.7 118.66 Z" stroke="rgb(0, 0, 0)" stroke-width="0" fill-rule="evenodd" stroke-linejoin="miter" fill="rgb(0, 0, 0)" shape-rendering="geometricPrecision" /></g><g id="Solid"><path d="M447.3 118.66 L447.3 118.66 L447 118.49 L447 118.14 L459.17 111.12 L459.47 111.29 L459.77 111.46 Z" stroke="rgb(0, 0, 0)" stroke-width="0" fill-rule="evenodd" stroke-linejoin="miter" fill="rgb(0, 0, 0)" shape-rendering="geometricPrecision" /></g><g><text xml:space="preserve" text-anchor="start" text-rendering="geometricPrecision"><tspan x="468.05" y="122.39" font-family="Arial" font-size="10" fill="rgb(0, 0, 0)">O</tspan></text></g><g id="Solid"><line x1="460.12" y1="110.17" x2="467.86" y2="114.63" stroke="rgb(0, 0, 0)" stroke-width="0.6" shape-rendering="auto" /><path d="M458.77 112.04 L458.77 112.04 L458.17 112.39 L466.42 117.14 L466.72 116.62 Z" stroke="rgb(0, 0, 0)" stroke-width="0" fill-rule="evenodd" stroke-linejoin="miter" fill="rgb(0, 0, 0)" shape-rendering="geometricPrecision" /><path d="M459.77 109.62 L459.77 109.62 L459.77 110.31 L467.71 114.89 L468.01 114.37 Z" stroke="rgb(0, 0, 0)" stroke-width="0" fill-rule="evenodd" stroke-linejoin="miter" fill="rgb(0, 0, 0)" shape-rendering="geometricPrecision" /></g><g id="Solid"><path d="M459.77 111.46 L459.77 111.46 L459.47 111.29 L459.17 111.12 L459.17 102.4 L459.47 102.4 L459.77 102.4 Z" stroke="rgb(0, 0, 0)" stroke-width="0" fill-rule="evenodd" stroke-linejoin="miter" fill="rgb(0, 0, 0)" shape-rendering="geometricPrecision" /></g><g><text xml:space="preserve" text-anchor="start" text-rendering="geometricPrecision"><tspan x="455.87" y="100.79" font-family="Arial" font-size="10" fill="rgb(0, 0, 0)">H</tspan></text></g><g><text xml:space="preserve" text-anchor="start" text-rendering="geometricPrecision"><tspan x="442.83" y="136.79" font-family="Arial" font-size="10" fill="rgb(0, 0, 0)">Me</tspan></text></g><g id="Solid"><path d="M446.7 118.66 L446.7 118.66 L447 118.49 L447.3 118.66 L447.3 128.89 L447 128.89 L446.7 128.89 Z" stroke="rgb(0, 0, 0)" stroke-width="0" fill-rule="evenodd" stroke-linejoin="miter" fill="rgb(0, 0, 0)" shape-rendering="geometricPrecision" /></g><g id="Arrow"><path d="M278.29 113.48 C275.96 115.97 276.03 120.23 278.45 122.64 " stroke="rgb(255, 0, 0)" stroke-width="0.6" fill-rule="evenodd" stroke-linejoin="bevel" fill="none" shape-rendering="geometricPrecision" /><path d="M281.38 111.63 L276.72 113.29 C277.96 113.28 278.54 114.15 278.05 115.29 Z" stroke="rgb(255, 0, 0)" stroke-width="0" fill-rule="evenodd" stroke-linejoin="miter" stroke-miterlimit="6.935250055149" fill="rgb(255, 0, 0)" shape-rendering="geometricPrecision" /></g><g id="Arrow"><path d="M269.04 105.99 C272 107.55 276.01 106.39 277.68 103.49 " stroke="rgb(255, 0, 0)" stroke-width="0.6" fill-rule="evenodd" stroke-linejoin="bevel" fill="none" shape-rendering="geometricPrecision" /><path d="M266.44 103.5 L269.27 107.56 C268.93 106.37 269.62 105.58 270.85 105.75 Z" stroke="rgb(255, 0, 0)" stroke-width="0" fill-rule="evenodd" stroke-linejoin="miter" stroke-miterlimit="6.93525005514889" fill="rgb(255, 0, 0)" shape-rendering="geometricPrecision" /></g><g id="Arrow"><path d="M268.22 119.47 C268.58 114.97 265.22 111.02 260.72 110.66 C260.5 110.64 260.28 110.63 260.06 110.63 " stroke="rgb(255, 0, 0)" stroke-width="0.6" fill-rule="evenodd" stroke-linejoin="bevel" fill="none" shape-rendering="geometricPrecision" /><path d="M267.15 122.9 L269.56 118.58 C268.64 119.41 267.63 119.13 267.25 117.96 Z" stroke="rgb(255, 0, 0)" stroke-width="0" fill-rule="evenodd" stroke-linejoin="miter" stroke-miterlimit="6.92566128457755" fill="rgb(255, 0, 0)" shape-rendering="geometricPrecision" /></g></g></g></svg>