<?xml version="1.0"?><svg xmlns="http://www.w3.org/2000/svg" xmlns:xlink="http://www.w3.org/1999/xlink" viewBox="43.57 27.9 301.07 47.45" preserveAspectRatio="xMidYMid" width="100%" height="100%"><clipPath id="156"><rect x="0.3" y="0.3" width="522.6" height="769.08" /></clipPath><g id="drawing"><rect x="43.57" y="27.9" width="100%" height="100%" fill="rgb(255, 255, 255)" /><g id="page" clip-path="url(#156)"><g id="Solid"><path d="M57.6 68.29 L57.6 68.29 L57.56 67.99 L57.6 67.69 L71.92 67.69 L71.96 67.99 L71.92 68.29 Z" stroke="rgb(0, 0, 0)" stroke-width="0" fill-rule="evenodd" stroke-linejoin="miter" fill="rgb(0, 0, 0)" shape-rendering="geometricPrecision" /><line x1="57.9" y1="65.4" x2="71.62" y2="65.4" stroke="rgb(0, 0, 0)" stroke-width="0.6" shape-rendering="auto" /></g><g id="Solid"><path d="M73.12 67.99 L73.12 67.99 L71.96 67.99 L71.92 67.69 L85.79 63.97 L85.87 64.26 L85.95 64.55 Z" stroke="rgb(0, 0, 0)" stroke-width="0" fill-rule="evenodd" stroke-linejoin="miter" fill="rgb(0, 0, 0)" shape-rendering="geometricPrecision" /></g><g id="Solid"><path d="M57.6 67.69 L57.6 67.69 L57.56 67.99 L56.4 67.99 L43.57 64.55 L43.65 64.26 L43.73 63.97 Z" stroke="rgb(0, 0, 0)" stroke-width="0" fill-rule="evenodd" stroke-linejoin="miter" fill="rgb(0, 0, 0)" shape-rendering="geometricPrecision" /></g><g id="Solid"><path d="M56.4 67.99 L56.4 67.99 L57.56 67.99 L57.6 68.29 L43.73 72.01 L43.65 71.72 L43.57 71.43 Z" stroke="rgb(0, 0, 0)" stroke-width="0" fill-rule="evenodd" stroke-linejoin="miter" fill="rgb(0, 0, 0)" shape-rendering="geometricPrecision" /></g><g id="Solid"><path d="M71.92 68.29 L71.92 68.29 L71.96 67.99 L73.12 67.99 L85.95 71.43 L85.87 71.72 L85.79 72.01 Z" stroke="rgb(0, 0, 0)" stroke-width="0" fill-rule="evenodd" stroke-linejoin="miter" fill="rgb(0, 0, 0)" shape-rendering="geometricPrecision" /></g><g><text xml:space="preserve" text-anchor="start" text-rendering="geometricPrecision"><tspan x="49.81" y="54.26" font-family="Arial" font-size="10" fill="rgb(0, 0, 0)">O</tspan></text></g><g><text xml:space="preserve" text-anchor="start" text-rendering="geometricPrecision"><tspan x="61.63" y="45.94" font-family="Arial" font-size="10" fill="rgb(0, 0, 0)">O</tspan></text></g><g id="Solid"><path d="M58.4 46.5 L58.4 46.5 L58.25 46.24 L58.1 45.98 L60.73 44.46 L60.88 44.72 L61.03 44.98 Z" stroke="rgb(0, 0, 0)" stroke-width="0" fill-rule="evenodd" stroke-linejoin="miter" fill="rgb(0, 0, 0)" shape-rendering="geometricPrecision" /><line x1="59.18" y1="47.84" x2="61.81" y2="46.32" stroke="rgb(0, 0, 0)" stroke-width="0.6" shape-rendering="auto" /></g><g><text xml:space="preserve" text-anchor="start" text-rendering="geometricPrecision"><tspan x="74.1" y="53.14" font-family="Arial" font-size="10" fill="rgb(0, 0, 0)">O</tspan></text></g><g id="Solid"><path d="M70.04 44.99 L70.04 44.99 L70.19 44.73 L70.34 44.47 L73.76 46.45 L73.61 46.71 L73.46 46.97 Z" stroke="rgb(0, 0, 0)" stroke-width="0" fill-rule="evenodd" stroke-linejoin="miter" fill="rgb(0, 0, 0)" shape-rendering="geometricPrecision" /></g><g id="Charge34"><circle cx="84.19" cy="43.99" r="3.33333333333333" stroke="rgb(0, 0, 0)" stroke-width="0.48" fill="none" /><line x1="82.22" y1="43.99" x2="86.16" y2="43.99" stroke="rgb(0, 0, 0)" stroke-width="0.48" shape-rendering="auto" /></g><g id="Charge35"><circle cx="72.4" cy="35.18" r="3.33333333333333" stroke="rgb(0, 0, 0)" stroke-width="0.48" fill="none" /><line x1="70.43" y1="35.18" x2="74.37" y2="35.18" stroke="rgb(0, 0, 0)" stroke-width="0.48" shape-rendering="auto" /><line x1="72.4" y1="33.21" x2="72.4" y2="37.15" stroke="rgb(0, 0, 0)" stroke-width="0.48" shape-rendering="auto" /></g><g id="Arrow"><path d="M61.59 68.03 C65.26 64.52 65.39 58.69 61.87 55.01 C61.6 54.73 61.3 54.46 60.99 54.2 " stroke="rgb(255, 0, 0)" stroke-width="0.6" fill-rule="evenodd" stroke-linejoin="bevel" fill="none" shape-rendering="geometricPrecision" /><path d="M57.8 52.54 L61.39 55.95 C60.82 54.85 61.33 53.93 62.57 53.86 Z" stroke="rgb(255, 0, 0)" stroke-width="0" fill-rule="evenodd" stroke-linejoin="miter" stroke-miterlimit="6.93525005514877" fill="rgb(255, 0, 0)" shape-rendering="geometricPrecision" /></g><g id="Arrow"><path d="M60.56 47.57 C60.56 49.43 62.07 50.94 63.94 50.95 C65.1 50.95 66.24 50.3 66.84 49.3 " stroke="rgb(255, 0, 0)" stroke-width="0.6" fill-rule="evenodd" stroke-linejoin="bevel" fill="none" shape-rendering="geometricPrecision" /><path d="M66.75 45.7 L65.47 50.15 C66.17 49.2 67.09 49.24 67.72 50.23 Z" stroke="rgb(255, 0, 0)" stroke-width="0" fill-rule="evenodd" stroke-linejoin="miter" stroke-miterlimit="6.24312541127282" fill="rgb(255, 0, 0)" shape-rendering="geometricPrecision" /></g><g id="Arrow"><path d="M75.56 64.75 C81.98 63.26 85.98 56.84 84.49 50.42 C84.3 49.56 84 48.73 83.62 47.94 " stroke="rgb(255, 0, 0)" stroke-width="0.6" fill-rule="evenodd" stroke-linejoin="bevel" fill="none" shape-rendering="geometricPrecision" /><path d="M71.97 65.03 L76.87 65.73 C75.77 65.17 75.66 64.12 76.62 63.35 Z" stroke="rgb(255, 0, 0)" stroke-width="0" fill-rule="evenodd" stroke-linejoin="miter" stroke-miterlimit="6.93525005514879" fill="rgb(255, 0, 0)" shape-rendering="geometricPrecision" /></g><g id="Arrow"><g id="Equilibrium Arrow"><line x1="147.21" y1="50.72" x2="109.69" y2="50.72" stroke="rgb(0, 0, 0)" stroke-width="0.6" shape-rendering="auto" /><line x1="150.56" y1="52.52" x2="113.04" y2="52.52" stroke="rgb(0, 0, 0)" stroke-width="0.6" shape-rendering="auto" /></g><path d="M151.46 51.02 L145.46 49.22 C146.65 50.23 146.21 51.02 146.21 51.02 Z" stroke="rgb(0, 0, 0)" stroke-width="0" fill-rule="evenodd" stroke-linejoin="miter" stroke-miterlimit="6.0552602997972" fill="rgb(0, 0, 0)" shape-rendering="geometricPrecision" /><path d="M108.79 52.22 L114.79 54.02 C113.6 53.01 114.04 52.22 114.04 52.22 Z" stroke="rgb(0, 0, 0)" stroke-width="0" fill-rule="evenodd" stroke-linejoin="miter" stroke-miterlimit="6.0552602997972" fill="rgb(0, 0, 0)" shape-rendering="geometricPrecision" /></g><g><text xml:space="preserve" text-anchor="start" text-rendering="geometricPrecision"><tspan x="195.84" y="48.13" font-family="Arial" font-size="10" fill="rgb(0, 0, 0)">O</tspan></text></g><g id="Solid"><path d="M176.1 44.3 L176.1 44.3 L176.45 44.41 L176.8 44.52 L181.22 57.77 L181 58.07 L180.61 57.86 Z" stroke="rgb(0, 0, 0)" stroke-width="0" fill-rule="evenodd" stroke-linejoin="miter" fill="rgb(0, 0, 0)" shape-rendering="geometricPrecision" /></g><g><text xml:space="preserve" text-anchor="start" text-rendering="geometricPrecision"><tspan x="184.13" y="39.76" font-family="Arial" font-size="10" fill="rgb(0, 0, 0)">O</tspan></text></g><g id="Solid"><path d="M181.17 58.37 L181.17 58.37 L181 58.07 L181.22 57.77 L195.18 57.66 L195.4 57.96 L195.17 58.26 Z" stroke="rgb(0, 0, 0)" stroke-width="0" fill-rule="evenodd" stroke-linejoin="miter" fill="rgb(0, 0, 0)" shape-rendering="geometricPrecision" /></g><g id="Solid"><path d="M195.78 57.75 L195.78 57.75 L195.4 57.96 L195.18 57.66 L197.72 49.64 L198 49.73 L198.29 49.82 Z" stroke="rgb(0, 0, 0)" stroke-width="0" fill-rule="evenodd" stroke-linejoin="miter" fill="rgb(0, 0, 0)" shape-rendering="geometricPrecision" /></g><g id="Solid"><path d="M195.77 41.03 L195.77 41.03 L195.6 41.27 L195.42 41.51 L192.33 39.3 L192.5 39.06 L192.68 38.81 Z" stroke="rgb(0, 0, 0)" stroke-width="0" fill-rule="evenodd" stroke-linejoin="miter" fill="rgb(0, 0, 0)" shape-rendering="geometricPrecision" /></g><g id="Solid"><path d="M183.53 38.81 L183.53 38.81 L183.71 39.05 L183.89 39.29 L176.8 44.52 L176.45 44.41 L176.1 44.3 Z" stroke="rgb(0, 0, 0)" stroke-width="0" fill-rule="evenodd" stroke-linejoin="miter" fill="rgb(0, 0, 0)" shape-rendering="geometricPrecision" /></g><g id="Solid"><path d="M180.61 57.86 L180.61 57.86 L181 58.07 L180.38 58.55 L167.17 62.09 L167.09 61.8 L167.01 61.51 Z" stroke="rgb(0, 0, 0)" stroke-width="0" fill-rule="evenodd" stroke-linejoin="miter" fill="rgb(0, 0, 0)" shape-rendering="geometricPrecision" /></g><g id="Solid"><path d="M180.38 58.55 L180.38 58.55 L181 58.07 L181.17 58.37 L174.06 70.69 L173.8 70.54 L173.54 70.39 Z" stroke="rgb(0, 0, 0)" stroke-width="0" fill-rule="evenodd" stroke-linejoin="miter" fill="rgb(0, 0, 0)" shape-rendering="geometricPrecision" /></g><g id="Solid"><path d="M195.17 58.26 L195.17 58.26 L195.4 57.96 L195.82 58.38 L199.42 71.79 L199.13 71.87 L198.84 71.95 Z" stroke="rgb(0, 0, 0)" stroke-width="0" fill-rule="evenodd" stroke-linejoin="miter" fill="rgb(0, 0, 0)" shape-rendering="geometricPrecision" /></g><g id="Solid"><path d="M195.82 58.38 L195.82 58.38 L195.4 57.96 L195.78 57.75 L209.39 61.4 L209.31 61.69 L209.23 61.98 Z" stroke="rgb(0, 0, 0)" stroke-width="0" fill-rule="evenodd" stroke-linejoin="miter" fill="rgb(0, 0, 0)" shape-rendering="geometricPrecision" /></g><g id="Arrow"><path d="M187.3 56.93 C187.31 54.57 185.47 52.37 183.14 51.96 " stroke="rgb(255, 0, 0)" stroke-width="0.6" fill-rule="evenodd" stroke-linejoin="bevel" fill="none" shape-rendering="geometricPrecision" /><path d="M179.74 52.56 L183.79 52.85 C182.85 52.37 182.72 51.68 183.45 50.91 Z" stroke="rgb(255, 0, 0)" stroke-width="0" fill-rule="evenodd" stroke-linejoin="miter" stroke-miterlimit="5.19672800181491" fill="rgb(255, 0, 0)" shape-rendering="geometricPrecision" /></g><g id="Arrow"><path d="M181.7 40.95 C183.3 43.71 187.09 44.84 189.94 43.41 " stroke="rgb(255, 0, 0)" stroke-width="0.6" fill-rule="evenodd" stroke-linejoin="bevel" fill="none" shape-rendering="geometricPrecision" /><path d="M192.56 40.94 L188.13 43.14 C189.36 42.98 190.04 43.78 189.69 44.97 Z" stroke="rgb(255, 0, 0)" stroke-width="0" fill-rule="evenodd" stroke-linejoin="miter" stroke-miterlimit="6.93525005514887" fill="rgb(255, 0, 0)" shape-rendering="geometricPrecision" /></g><g id="Radical72"><circle cx="207.62" cy="46.11" r="0.833333333333333" stroke="rgb(0, 0, 0)" stroke-width="0" fill="rgb(0, 0, 0)" /><circle cx="207.62" cy="42.36" r="0.833333333333333" stroke="rgb(0, 0, 0)" stroke-width="0" fill="rgb(0, 0, 0)" /></g><g id="Arrow"><path d="M201.04 55.73 C203.67 58.25 207.85 58.16 210.38 55.53 C212.9 52.9 212.81 48.72 210.18 46.19 C209.95 45.97 209.71 45.77 209.45 45.59 " stroke="rgb(255, 0, 0)" stroke-width="0.6" fill-rule="evenodd" stroke-linejoin="bevel" fill="none" shape-rendering="geometricPrecision" /><path d="M199.22 52.62 L200.84 57.3 C200.84 56.06 201.71 55.48 202.85 55.99 Z" stroke="rgb(255, 0, 0)" stroke-width="0" fill-rule="evenodd" stroke-linejoin="miter" stroke-miterlimit="6.93525005514887" fill="rgb(255, 0, 0)" shape-rendering="geometricPrecision" /></g><g id="Arrow"><line x1="273.81" y1="49.56" x2="234.94" y2="49.56" stroke="rgb(0, 0, 0)" stroke-width="0.6" shape-rendering="auto" /><path d="M278.06 49.56 L272.06 48.06 C273.25 48.9 273.25 50.22 272.06 51.06 Z" stroke="rgb(0, 0, 0)" stroke-width="0" fill-rule="evenodd" stroke-linejoin="miter" stroke-miterlimit="6.93525005514877" fill="rgb(0, 0, 0)" shape-rendering="geometricPrecision" /></g><g id="Arrow"><line x1="281.82" y1="53.31" x2="243.19" y2="53.31" stroke="rgb(0, 0, 0)" stroke-width="0.6" shape-rendering="auto" /><path d="M286.07 53.31 L280.07 51.81 C281.26 52.65 281.26 53.97 280.07 54.81 Z" stroke="rgb(0, 0, 0)" stroke-width="0" fill-rule="evenodd" stroke-linejoin="miter" stroke-miterlimit="6.93525005514877" fill="rgb(0, 0, 0)" shape-rendering="geometricPrecision" /></g><g><text xml:space="preserve" text-anchor="start" text-rendering="geometricPrecision"><tspan x="313.55" y="52.97" font-family="Arial" font-size="10" fill="rgb(0, 0, 0)">O</tspan></text></g><g><text xml:space="preserve" text-anchor="start" text-rendering="geometricPrecision"><tspan x="332.5" y="66.52" font-family="Arial" font-size="10" fill="rgb(0, 0, 0)">O</tspan></text></g><g><text xml:space="preserve" text-anchor="start" text-rendering="geometricPrecision"><tspan x="336.84" y="52.79" font-family="Arial" font-size="10" fill="rgb(0, 0, 0)">O</tspan></text></g><g id="Solid"><path d="M318.98 54.61 L318.98 54.61 L319.26 54.52 L319.55 54.42 L322.22 62.43 L322 62.73 L321.61 62.52 Z" stroke="rgb(0, 0, 0)" stroke-width="0" fill-rule="evenodd" stroke-linejoin="miter" fill="rgb(0, 0, 0)" shape-rendering="geometricPrecision" /></g><g id="Solid"><path d="M322.17 63.03 L322.17 63.03 L322 62.73 L322.22 62.43 L331.4 62.36 L331.4 62.66 L331.4 62.96 Z" stroke="rgb(0, 0, 0)" stroke-width="0" fill-rule="evenodd" stroke-linejoin="miter" fill="rgb(0, 0, 0)" shape-rendering="geometricPrecision" /></g><g id="Solid"><path d="M338.19 57.96 L338.19 57.96 L337.9 57.87 L337.61 57.78 L338.74 54.24 L339.02 54.33 L339.31 54.42 Z" stroke="rgb(0, 0, 0)" stroke-width="0" fill-rule="evenodd" stroke-linejoin="miter" fill="rgb(0, 0, 0)" shape-rendering="geometricPrecision" /></g><g id="Solid"><path d="M336.77 45.69 L336.77 45.69 L336.6 45.93 L336.42 46.17 L329.03 40.89 L329.03 40.52 L329.43 40.43 Z" stroke="rgb(0, 0, 0)" stroke-width="0" fill-rule="evenodd" stroke-linejoin="miter" fill="rgb(0, 0, 0)" shape-rendering="geometricPrecision" /></g><g id="Solid"><path d="M328.64 40.44 L328.64 40.44 L329.03 40.52 L329.03 40.89 L321.85 46.19 L321.68 45.95 L321.5 45.71 Z" stroke="rgb(0, 0, 0)" stroke-width="0" fill-rule="evenodd" stroke-linejoin="miter" fill="rgb(0, 0, 0)" shape-rendering="geometricPrecision" /></g><g id="Solid"><path d="M321.61 62.52 L321.61 62.52 L322 62.73 L321.38 63.21 L308.17 66.75 L308.09 66.46 L308.01 66.17 Z" stroke="rgb(0, 0, 0)" stroke-width="0" fill-rule="evenodd" stroke-linejoin="miter" fill="rgb(0, 0, 0)" shape-rendering="geometricPrecision" /></g><g id="Solid"><path d="M321.38 63.21 L321.38 63.21 L322 62.73 L322.17 63.03 L315.06 75.35 L314.8 75.2 L314.54 75.05 Z" stroke="rgb(0, 0, 0)" stroke-width="0" fill-rule="evenodd" stroke-linejoin="miter" fill="rgb(0, 0, 0)" shape-rendering="geometricPrecision" /></g><g id="Solid"><path d="M329.43 40.43 L329.43 40.43 L329.03 40.52 L329.03 39.92 L335.97 27.9 L336.23 28.05 L336.49 28.2 Z" stroke="rgb(0, 0, 0)" stroke-width="0" fill-rule="evenodd" stroke-linejoin="miter" fill="rgb(0, 0, 0)" shape-rendering="geometricPrecision" /></g><g id="Solid"><path d="M329.03 39.92 L329.03 39.92 L329.03 40.52 L328.64 40.44 L321.57 28.2 L321.83 28.05 L322.09 27.9 Z" stroke="rgb(0, 0, 0)" stroke-width="0" fill-rule="evenodd" stroke-linejoin="miter" fill="rgb(0, 0, 0)" shape-rendering="geometricPrecision" /></g></g></g></svg>