<?xml version="1.0"?><svg xmlns="http://www.w3.org/2000/svg" xmlns:xlink="http://www.w3.org/1999/xlink" viewBox="45.35 48.06 250.29 76.26" preserveAspectRatio="xMidYMid" width="100%" height="100%"><clipPath id="1501"><rect x="0.3" y="0.3" width="522.6" height="769.08" /></clipPath><g id="drawing"><rect x="45.35" y="48.06" width="100%" height="100%" fill="rgb(255, 255, 255)" /><g id="page" clip-path="url(#1501)"><g id="Solid"><path d="M45.35 84.13 L45.35 84.13 L45.65 84.3 L45.95 84.47 L45.95 98.53 L45.65 98.7 L45.35 98.87 Z" stroke="rgb(0, 0, 0)" stroke-width="0" fill-rule="evenodd" stroke-linejoin="miter" fill="rgb(0, 0, 0)" shape-rendering="geometricPrecision" /><line x1="48.24" y1="85.8" x2="48.24" y2="97.2" stroke="rgb(0, 0, 0)" stroke-width="0.6" shape-rendering="auto" /></g><g id="Solid"><path d="M45.35 98.87 L45.35 98.87 L45.65 98.7 L45.95 98.53 L58.13 105.55 L58.13 105.9 L58.13 106.25 Z" stroke="rgb(0, 0, 0)" stroke-width="0" fill-rule="evenodd" stroke-linejoin="miter" fill="rgb(0, 0, 0)" shape-rendering="geometricPrecision" /></g><g id="Solid"><path d="M58.13 106.25 L58.13 106.25 L58.13 105.9 L58.13 105.55 L70.3 98.53 L70.6 98.7 L70.59 99.05 Z" stroke="rgb(0, 0, 0)" stroke-width="0" fill-rule="evenodd" stroke-linejoin="miter" fill="rgb(0, 0, 0)" shape-rendering="geometricPrecision" /></g><g id="Solid"><path d="M70.9 98.51 L70.9 98.51 L70.6 98.7 L70.3 98.53 L70.3 84.47 L70.6 84.3 L70.9 84.13 Z" stroke="rgb(0, 0, 0)" stroke-width="0" fill-rule="evenodd" stroke-linejoin="miter" fill="rgb(0, 0, 0)" shape-rendering="geometricPrecision" /></g><g id="Solid"><path d="M70.9 84.13 L70.9 84.13 L70.6 84.3 L70.3 84.47 L58.13 77.45 L58.13 77.1 L58.43 76.93 Z" stroke="rgb(0, 0, 0)" stroke-width="0" fill-rule="evenodd" stroke-linejoin="miter" fill="rgb(0, 0, 0)" shape-rendering="geometricPrecision" /><line x1="68.01" y1="85.8" x2="58.13" y2="80.09" stroke="rgb(0, 0, 0)" stroke-width="0.6" shape-rendering="auto" /></g><g id="Solid"><path d="M57.83 76.93 L57.83 76.93 L58.13 77.1 L58.13 77.45 L45.95 84.47 L45.65 84.3 L45.35 84.13 Z" stroke="rgb(0, 0, 0)" stroke-width="0" fill-rule="evenodd" stroke-linejoin="miter" fill="rgb(0, 0, 0)" shape-rendering="geometricPrecision" /></g><g><text xml:space="preserve" text-anchor="start" text-rendering="geometricPrecision"><tspan x="54.22" y="124.2" font-family="Arial" font-size="10" fill="rgb(0, 0, 0)">OH</tspan></text></g><g id="Wedged Hash Begin Bond"><path d="M57.83 105.9 L57.83 105.9 L58.43 105.9 L58.51 106.5 L57.75 106.5 Z" stroke="rgb(0, 0, 0)" stroke-width="0" fill-rule="evenodd" stroke-linejoin="miter" fill="rgb(0, 0, 0)" shape-rendering="geometricPrecision" /><path d="M57.46 108.87 L57.46 108.87 L58.8 108.87 L58.88 109.47 L57.38 109.47 Z" stroke="rgb(0, 0, 0)" stroke-width="0" fill-rule="evenodd" stroke-linejoin="miter" fill="rgb(0, 0, 0)" shape-rendering="geometricPrecision" /><path d="M57.08 111.83 L57.08 111.83 L59.18 111.83 L59.26 112.43 L57 112.43 Z" stroke="rgb(0, 0, 0)" stroke-width="0" fill-rule="evenodd" stroke-linejoin="miter" fill="rgb(0, 0, 0)" shape-rendering="geometricPrecision" /><path d="M56.71 114.8 L56.71 114.8 L59.55 114.8 L59.63 115.4 L56.63 115.4 Z" stroke="rgb(0, 0, 0)" stroke-width="0" fill-rule="evenodd" stroke-linejoin="miter" fill="rgb(0, 0, 0)" shape-rendering="geometricPrecision" /></g><g><text xml:space="preserve" text-anchor="start" text-rendering="geometricPrecision"><tspan x="79.17" y="109.8" font-family="Arial" font-size="10" fill="rgb(0, 0, 0)">O</tspan></text></g><g id="WedgeBegin"><path d="M70.59 99.05 L70.59 99.05 L70.6 98.7 L70.9 98.51 L79.16 101.91 L78.41 103.21 L77.66 104.51 Z" stroke="rgb(0, 0, 0)" stroke-width="0" fill-rule="evenodd" stroke-linejoin="miter" fill="rgb(0, 0, 0)" shape-rendering="geometricPrecision" /></g><g id="Solid"><path d="M87.74 103.55 L87.74 103.55 L87.59 103.29 L87.44 103.03 L95.54 98.35 L95.54 98.7 L95.54 99.05 Z" stroke="rgb(0, 0, 0)" stroke-width="0" fill-rule="evenodd" stroke-linejoin="miter" fill="rgb(0, 0, 0)" shape-rendering="geometricPrecision" /></g><g id="Solid"><line x1="94.24" y1="98.7" x2="94.24" y2="84.3" stroke="rgb(0, 0, 0)" stroke-width="0.6" shape-rendering="auto" /><path d="M96.54 98.93 L96.54 98.93 L97.14 99.28 L97.14 84.3 L96.54 84.3 Z" stroke="rgb(0, 0, 0)" stroke-width="0" fill-rule="evenodd" stroke-linejoin="miter" fill="rgb(0, 0, 0)" shape-rendering="geometricPrecision" /><path d="M93.94 99.28 L93.94 99.28 L94.54 98.93 L94.54 84.3 L93.94 84.3 Z" stroke="rgb(0, 0, 0)" stroke-width="0" fill-rule="evenodd" stroke-linejoin="miter" fill="rgb(0, 0, 0)" shape-rendering="geometricPrecision" /></g><g><text xml:space="preserve" text-anchor="start" text-rendering="geometricPrecision"><tspan x="104.41" y="109.8" font-family="Arial" font-size="10" fill="rgb(0, 0, 0)">CO</tspan><tspan font-family="Arial" dy="2.26" font-size="7.5" fill="rgb(0, 0, 0)">2</tspan></text></g><g id="Solid"><path d="M95.54 99.05 L95.54 99.05 L95.54 98.7 L95.54 98.35 L103.96 103.22 L103.81 103.48 L103.66 103.74 Z" stroke="rgb(0, 0, 0)" stroke-width="0" fill-rule="evenodd" stroke-linejoin="miter" fill="rgb(0, 0, 0)" shape-rendering="geometricPrecision" /></g><g><text xml:space="preserve" text-anchor="start" text-rendering="geometricPrecision"><tspan x="54.52" y="66.6" font-family="Arial" font-size="10" fill="rgb(0, 0, 0)">CO</tspan><tspan font-family="Arial" dy="2.26" font-size="7.5" fill="rgb(0, 0, 0)">2</tspan></text></g><g id="Solid"><path d="M58.43 76.93 L58.43 76.93 L58.13 77.1 L57.83 76.93 L57.83 68.4 L58.13 68.4 L58.43 68.4 Z" stroke="rgb(0, 0, 0)" stroke-width="0" fill-rule="evenodd" stroke-linejoin="miter" fill="rgb(0, 0, 0)" shape-rendering="geometricPrecision" /></g><g id="Charge1374"><circle cx="73.15" cy="53.99" r="3.33333333333333" stroke="rgb(0, 0, 0)" stroke-width="0.48" fill="none" /><line x1="71.18" y1="53.99" x2="75.12" y2="53.99" stroke="rgb(0, 0, 0)" stroke-width="0.48" shape-rendering="auto" /></g><g id="Charge1375"><circle cx="123.53" cy="97.19" r="3.33333333333333" stroke="rgb(0, 0, 0)" stroke-width="0.48" fill="none" /><line x1="121.56" y1="97.19" x2="125.5" y2="97.19" stroke="rgb(0, 0, 0)" stroke-width="0.48" shape-rendering="auto" /></g><g id="Arrow"><line x1="189.63" y1="89.25" x2="145.13" y2="89.25" stroke="rgb(0, 0, 0)" stroke-width="0.6" shape-rendering="auto" /><path d="M193.88 89.25 L187.88 87.75 C189.07 88.59 189.07 89.91 187.88 90.75 Z" stroke="rgb(0, 0, 0)" stroke-width="0" fill-rule="evenodd" stroke-linejoin="miter" stroke-miterlimit="6.93525005514877" fill="rgb(0, 0, 0)" shape-rendering="geometricPrecision" /></g><g><text xml:space="preserve" text-anchor="start" text-rendering="geometricPrecision"><tspan x="163.87" y="84" font-family="Symbol" font-size="10" fill="rgb(0, 0, 0)">D</tspan></text></g><g id="Solid"><path d="M230.6 82.63 L230.6 82.63 L230.9 82.8 L231.2 82.97 L231.2 97.03 L230.9 97.2 L230.6 97.37 Z" stroke="rgb(0, 0, 0)" stroke-width="0" fill-rule="evenodd" stroke-linejoin="miter" fill="rgb(0, 0, 0)" shape-rendering="geometricPrecision" /><line x1="233.49" y1="84.3" x2="233.49" y2="95.7" stroke="rgb(0, 0, 0)" stroke-width="0.6" shape-rendering="auto" /></g><g id="Solid"><path d="M230.6 97.37 L230.6 97.37 L230.9 97.2 L231.2 97.03 L243.38 104.05 L243.38 104.4 L243.38 104.75 Z" stroke="rgb(0, 0, 0)" stroke-width="0" fill-rule="evenodd" stroke-linejoin="miter" fill="rgb(0, 0, 0)" shape-rendering="geometricPrecision" /></g><g id="Solid"><path d="M243.38 104.75 L243.38 104.75 L243.38 104.4 L243.38 104.05 L255.55 97.03 L255.85 97.2 L256.15 97.37 Z" stroke="rgb(0, 0, 0)" stroke-width="0" fill-rule="evenodd" stroke-linejoin="miter" fill="rgb(0, 0, 0)" shape-rendering="geometricPrecision" /></g><g id="Solid"><path d="M256.15 97.37 L256.15 97.37 L255.85 97.2 L255.55 97.03 L255.55 82.97 L255.85 82.8 L256.15 82.63 Z" stroke="rgb(0, 0, 0)" stroke-width="0" fill-rule="evenodd" stroke-linejoin="miter" fill="rgb(0, 0, 0)" shape-rendering="geometricPrecision" /></g><g id="Solid"><path d="M256.15 82.63 L256.15 82.63 L255.85 82.8 L255.55 82.97 L243.38 75.95 L243.38 75.6 L243.38 75.25 Z" stroke="rgb(0, 0, 0)" stroke-width="0" fill-rule="evenodd" stroke-linejoin="miter" fill="rgb(0, 0, 0)" shape-rendering="geometricPrecision" /></g><g id="Solid"><path d="M243.38 75.25 L243.38 75.25 L243.38 75.6 L243.38 75.95 L231.2 82.97 L230.9 82.8 L230.6 82.63 Z" stroke="rgb(0, 0, 0)" stroke-width="0" fill-rule="evenodd" stroke-linejoin="miter" fill="rgb(0, 0, 0)" shape-rendering="geometricPrecision" /></g><g id="Wedged Hash Begin Bond"><path d="M243.08 104.4 L243.08 104.4 L243.68 104.4 L243.76 105 L243 105 Z" stroke="rgb(0, 0, 0)" stroke-width="0" fill-rule="evenodd" stroke-linejoin="miter" fill="rgb(0, 0, 0)" shape-rendering="geometricPrecision" /><path d="M242.71 107.37 L242.71 107.37 L244.05 107.37 L244.13 107.97 L242.63 107.97 Z" stroke="rgb(0, 0, 0)" stroke-width="0" fill-rule="evenodd" stroke-linejoin="miter" fill="rgb(0, 0, 0)" shape-rendering="geometricPrecision" /><path d="M242.33 110.33 L242.33 110.33 L244.43 110.33 L244.51 110.93 L242.25 110.93 Z" stroke="rgb(0, 0, 0)" stroke-width="0" fill-rule="evenodd" stroke-linejoin="miter" fill="rgb(0, 0, 0)" shape-rendering="geometricPrecision" /><path d="M241.96 113.3 L241.96 113.3 L244.8 113.3 L244.88 113.9 L241.88 113.9 Z" stroke="rgb(0, 0, 0)" stroke-width="0" fill-rule="evenodd" stroke-linejoin="miter" fill="rgb(0, 0, 0)" shape-rendering="geometricPrecision" /></g><g><text xml:space="preserve" text-anchor="start" text-rendering="geometricPrecision"><tspan x="239.47" y="122.7" font-family="Arial" font-size="10" fill="rgb(0, 0, 0)">OH</tspan></text></g><g><text xml:space="preserve" text-anchor="start" text-rendering="geometricPrecision"><tspan x="262.98" y="91.16" font-family="Arial" font-size="10" fill="rgb(0, 0, 0)">O</tspan></text></g><g id="Solid"><line x1="265.58" y1="82.3" x2="265.58" y2="72.86" stroke="rgb(0, 0, 0)" stroke-width="0.6" shape-rendering="auto" /><path d="M267.88 82.3 L267.88 82.3 L268.48 82.3 L268.48 72.28 L267.88 72.63 Z" stroke="rgb(0, 0, 0)" stroke-width="0" fill-rule="evenodd" stroke-linejoin="miter" fill="rgb(0, 0, 0)" shape-rendering="geometricPrecision" /><path d="M265.28 82.3 L265.28 82.3 L265.88 82.3 L265.88 72.63 L265.28 72.28 Z" stroke="rgb(0, 0, 0)" stroke-width="0" fill-rule="evenodd" stroke-linejoin="miter" fill="rgb(0, 0, 0)" shape-rendering="geometricPrecision" /></g><g id="Solid"><path d="M266.88 72.51 L266.88 72.51 L266.88 72.86 L266.88 73.21 L254.26 65.92 L254.41 65.66 L254.56 65.4 Z" stroke="rgb(0, 0, 0)" stroke-width="0" fill-rule="evenodd" stroke-linejoin="miter" fill="rgb(0, 0, 0)" shape-rendering="geometricPrecision" /></g><g id="Solid"><path d="M266.88 73.21 L266.88 73.21 L266.88 72.86 L266.88 72.51 L274.86 67.9 L275.01 68.16 L275.16 68.42 Z" stroke="rgb(0, 0, 0)" stroke-width="0" fill-rule="evenodd" stroke-linejoin="miter" fill="rgb(0, 0, 0)" shape-rendering="geometricPrecision" /></g><g><text xml:space="preserve" text-anchor="start" text-rendering="geometricPrecision"><tspan x="275.75" y="69.56" font-family="Arial" font-size="10" fill="rgb(0, 0, 0)">CO</tspan><tspan font-family="Arial" dy="2.26" font-size="7.5" fill="rgb(0, 0, 0)">2</tspan></text></g><g><text xml:space="preserve" text-anchor="end" text-rendering="geometricPrecision"><tspan x="239.97" y="65.6" font-family="Arial" font-size="10" fill="rgb(0, 0, 0)">O</tspan><tspan font-family="Arial" dy="2.26" font-size="7.5" fill="rgb(0, 0, 0)">2</tspan><tspan font-family="Arial" dy="-2.26" font-size="10" fill="rgb(0, 0, 0)">C</tspan></text></g><path d="M243.38 75.6 A0.904621213070563,0.904621213070563 243.270306231515 0,0 243.87 74.34 A0.904621213070563,0.904621213070563 243.270306231515 0,0 242.57 73.98 A0.904621213070563,0.904621213070563 243.270306231515 0,1 241.27 73.63 A0.904621213070563,0.904621213070563 243.270306231515 0,1 241.75 72.37 A0.904621213070563,0.904621213070563 243.270306231515 0,0 242.24 71.11 A0.904621213070563,0.904621213070563 243.270306231515 0,0 240.94 70.75 A0.904621213070563,0.904621213070563 243.270306231515 0,1 239.64 70.39 A0.904621213070563,0.904621213070563 243.270306231515 0,1 240.12 69.14 A0.904621213070563,0.904621213070563 243.270306231515 0,0 240.61 67.88 A0.904621213070563,0.904621213070563 243.270306231515 0,0 239.31 67.52 " stroke="rgb(0, 0, 0)" stroke-width="0.6" fill-rule="evenodd" stroke-linejoin="bevel" fill="none" shape-rendering="geometricPrecision" /><g id="Charge1423"><circle cx="220.4" cy="51.99" r="3.33333333333333" stroke="rgb(0, 0, 0)" stroke-width="0.48" fill="none" /><line x1="218.43" y1="51.99" x2="222.37" y2="51.99" stroke="rgb(0, 0, 0)" stroke-width="0.48" shape-rendering="auto" /></g><g id="Charge1424"><circle cx="291.71" cy="55.29" r="3.33518467106747" stroke="rgb(0, 0, 0)" stroke-width="0.48" fill="none" /><line x1="289.74" y1="55.29" x2="293.68" y2="55.29" stroke="rgb(0, 0, 0)" stroke-width="0.48" shape-rendering="auto" /></g><path d="M243.38 75.6 A0.936900742445248,0.936900742445248 -42.0244994916376 0,0 244.75 75.72 A0.936900742445248,0.936900742445248 -42.0244994916376 0,0 244.77 74.35 A0.936900742445248,0.936900742445248 -42.0244994916376 0,1 244.8 72.98 A0.936900742445248,0.936900742445248 -42.0244994916376 0,1 246.16 73.09 A0.936900742445248,0.936900742445248 -42.0244994916376 0,0 247.53 73.21 A0.936900742445248,0.936900742445248 -42.0244994916376 0,0 247.56 71.84 A0.936900742445248,0.936900742445248 -42.0244994916376 0,1 247.58 70.47 A0.936900742445248,0.936900742445248 -42.0244994916376 0,1 248.95 70.58 A0.936900742445248,0.936900742445248 -42.0244994916376 0,0 250.31 70.7 A0.936900742445248,0.936900742445248 -42.0244994916376 0,0 250.34 69.33 A0.936900742445248,0.936900742445248 -42.0244994916376 0,1 250.37 67.96 A0.936900742445248,0.936900742445248 -42.0244994916376 0,1 251.73 68.07 A0.936900742445248,0.936900742445248 -42.0244994916376 0,0 253.1 68.19 A0.936900742445248,0.936900742445248 -42.0244994916376 0,0 253.12 66.82 A0.936900742445248,0.936900742445248 -42.0244994916376 0,1 253.15 65.45 " stroke="rgb(0, 0, 0)" stroke-width="0.6" fill-rule="evenodd" stroke-linejoin="bevel" fill="none" shape-rendering="geometricPrecision" /><g id="Arrow"><path d="M92.12 85.49 C89.49 75.69 79.4 69.87 69.6 72.49 C67.66 73.01 65.81 73.85 64.14 74.97 " stroke="rgb(255, 0, 0)" stroke-width="0.6" fill-rule="evenodd" stroke-linejoin="bevel" fill="none" shape-rendering="geometricPrecision" /><path d="M61.36 77.25 L65.87 75.21 C64.63 75.32 63.98 74.5 64.37 73.33 Z" stroke="rgb(255, 0, 0)" stroke-width="0" fill-rule="evenodd" stroke-linejoin="miter" stroke-miterlimit="6.93525005514877" fill="rgb(255, 0, 0)" shape-rendering="geometricPrecision" /></g><g id="Arrow"><path d="M61.77 85.5 C61.14 87.84 61.85 90.47 63.56 92.18 " stroke="rgb(255, 0, 0)" stroke-width="0.6" fill-rule="evenodd" stroke-linejoin="bevel" fill="none" shape-rendering="geometricPrecision" /><path d="M66.67 93.97 L63.63 91.04 C64.08 92.04 63.7 92.7 62.61 92.81 Z" stroke="rgb(255, 0, 0)" stroke-width="0" fill-rule="evenodd" stroke-linejoin="miter" stroke-miterlimit="5.46408074336723" fill="rgb(255, 0, 0)" shape-rendering="geometricPrecision" /></g><g id="Arrow"><path d="M86.44 95.65 C83.87 94.87 80.92 95.61 79.02 97.51 " stroke="rgb(255, 0, 0)" stroke-width="0.6" fill-rule="evenodd" stroke-linejoin="bevel" fill="none" shape-rendering="geometricPrecision" /><path d="M89.53 97.5 L86.27 94.36 C86.76 95.4 86.33 96.16 85.17 96.26 Z" stroke="rgb(255, 0, 0)" stroke-width="0" fill-rule="evenodd" stroke-linejoin="miter" stroke-miterlimit="6.03741916375326" fill="rgb(255, 0, 0)" shape-rendering="geometricPrecision" /></g></g></g></svg>