<?xml version="1.0"?><svg xmlns="http://www.w3.org/2000/svg" xmlns:xlink="http://www.w3.org/1999/xlink" viewBox="48.22 278 79.17 74.77" preserveAspectRatio="xMidYMid" width="100%" height="100%"><clipPath id="4861"><rect x="0.3" y="0.3" width="522.6" height="769.08" /></clipPath><g id="drawing"><rect x="48.22" y="278" width="100%" height="100%" fill="rgb(255, 255, 255)" /><g id="page" clip-path="url(#4861)"><g id="Solid"><path d="M62.36 312.58 L62.36 312.58 L62.66 312.75 L62.96 312.92 L62.96 326.98 L62.66 327.15 L62.36 327.32 Z" stroke="rgb(0, 0, 0)" stroke-width="0" fill-rule="evenodd" stroke-linejoin="miter" fill="rgb(0, 0, 0)" shape-rendering="geometricPrecision" /><line x1="65.25" y1="314.25" x2="65.25" y2="325.65" stroke="rgb(0, 0, 0)" stroke-width="0.6" shape-rendering="auto" /></g><g id="Solid"><path d="M62.36 327.32 L62.36 327.32 L62.66 327.15 L62.96 326.98 L75.13 334 L75.13 334.35 L75.13 334.7 Z" stroke="rgb(0, 0, 0)" stroke-width="0" fill-rule="evenodd" stroke-linejoin="miter" fill="rgb(0, 0, 0)" shape-rendering="geometricPrecision" /></g><g id="Solid"><path d="M75.13 334.7 L75.13 334.7 L75.13 334.35 L75.13 334 L87.3 326.98 L87.6 327.15 L87.9 327.32 Z" stroke="rgb(0, 0, 0)" stroke-width="0" fill-rule="evenodd" stroke-linejoin="miter" fill="rgb(0, 0, 0)" shape-rendering="geometricPrecision" /></g><g id="Solid"><path d="M87.9 327.32 L87.9 327.32 L87.6 327.15 L87.3 326.98 L87.3 312.92 L87.6 312.75 L87.9 312.58 Z" stroke="rgb(0, 0, 0)" stroke-width="0" fill-rule="evenodd" stroke-linejoin="miter" fill="rgb(0, 0, 0)" shape-rendering="geometricPrecision" /></g><g id="Solid"><path d="M87.9 312.58 L87.9 312.58 L87.6 312.75 L87.3 312.92 L75.13 305.9 L75.13 305.55 L75.37 305.34 Z" stroke="rgb(0, 0, 0)" stroke-width="0" fill-rule="evenodd" stroke-linejoin="miter" fill="rgb(0, 0, 0)" shape-rendering="geometricPrecision" /></g><g id="Solid"><path d="M74.72 305.44 L74.72 305.44 L75.13 305.55 L75.13 305.9 L62.96 312.92 L62.66 312.75 L62.36 312.58 Z" stroke="rgb(0, 0, 0)" stroke-width="0" fill-rule="evenodd" stroke-linejoin="miter" fill="rgb(0, 0, 0)" shape-rendering="geometricPrecision" /></g><g><text xml:space="preserve" text-anchor="start" text-rendering="geometricPrecision"><tspan x="71.23" y="352.65" font-family="Arial" font-size="10" fill="rgb(0, 0, 0)">OH</tspan></text></g><g id="Wedged Hash Begin Bond"><path d="M74.83 334.35 L74.83 334.35 L75.43 334.35 L75.51 334.95 L74.75 334.95 Z" stroke="rgb(0, 0, 0)" stroke-width="0" fill-rule="evenodd" stroke-linejoin="miter" fill="rgb(0, 0, 0)" shape-rendering="geometricPrecision" /><path d="M74.46 337.3 L74.46 337.3 L75.8 337.3 L75.88 337.9 L74.38 337.9 Z" stroke="rgb(0, 0, 0)" stroke-width="0" fill-rule="evenodd" stroke-linejoin="miter" fill="rgb(0, 0, 0)" shape-rendering="geometricPrecision" /><path d="M74.08 340.25 L74.08 340.25 L76.18 340.25 L76.26 340.85 L74 340.85 Z" stroke="rgb(0, 0, 0)" stroke-width="0" fill-rule="evenodd" stroke-linejoin="miter" fill="rgb(0, 0, 0)" shape-rendering="geometricPrecision" /><path d="M73.71 343.2 L73.71 343.2 L76.55 343.2 L76.63 343.8 L73.63 343.8 Z" stroke="rgb(0, 0, 0)" stroke-width="0" fill-rule="evenodd" stroke-linejoin="miter" fill="rgb(0, 0, 0)" shape-rendering="geometricPrecision" /></g><g><text xml:space="preserve" text-anchor="start" text-rendering="geometricPrecision"><tspan x="94.73" y="321.11" font-family="Arial" font-size="10" fill="rgb(0, 0, 0)">O</tspan></text></g><g id="Solid"><line x1="97.33" y1="312.3" x2="97.33" y2="302.81" stroke="rgb(0, 0, 0)" stroke-width="0.6" shape-rendering="auto" /><path d="M99.63 312.3 L99.63 312.3 L100.23 312.3 L100.23 302.24 L99.63 302.58 Z" stroke="rgb(0, 0, 0)" stroke-width="0" fill-rule="evenodd" stroke-linejoin="miter" fill="rgb(0, 0, 0)" shape-rendering="geometricPrecision" /><path d="M97.03 312.3 L97.03 312.3 L97.63 312.3 L97.63 302.58 L97.03 302.23 Z" stroke="rgb(0, 0, 0)" stroke-width="0" fill-rule="evenodd" stroke-linejoin="miter" fill="rgb(0, 0, 0)" shape-rendering="geometricPrecision" /></g><g id="Solid"><path d="M98.63 302.46 L98.63 302.46 L98.63 302.81 L98.63 303.16 L86.01 295.87 L86.16 295.61 L86.31 295.35 Z" stroke="rgb(0, 0, 0)" stroke-width="0" fill-rule="evenodd" stroke-linejoin="miter" fill="rgb(0, 0, 0)" shape-rendering="geometricPrecision" /></g><g><text xml:space="preserve" text-anchor="start" text-rendering="geometricPrecision"><tspan x="107.51" y="299.51" font-family="Arial" font-size="10" fill="rgb(0, 0, 0)">CO</tspan><tspan font-family="Arial" dy="2.26" font-size="7.5" fill="rgb(0, 0, 0)">2</tspan></text></g><g id="Solid"><path d="M98.63 303.16 L98.63 303.16 L98.63 302.81 L98.63 302.46 L106.66 297.83 L106.81 298.09 L106.96 298.35 Z" stroke="rgb(0, 0, 0)" stroke-width="0" fill-rule="evenodd" stroke-linejoin="miter" fill="rgb(0, 0, 0)" shape-rendering="geometricPrecision" /></g><g><text xml:space="preserve" text-anchor="end" text-rendering="geometricPrecision"><tspan x="71.73" y="295.55" font-family="Arial" font-size="10" fill="rgb(0, 0, 0)">O</tspan><tspan font-family="Arial" dy="2.26" font-size="7.5" fill="rgb(0, 0, 0)">2</tspan><tspan font-family="Arial" dy="-2.26" font-size="10" fill="rgb(0, 0, 0)">C</tspan></text></g><g id="WedgeBegin"><path d="M75.37 305.34 L75.37 305.34 L75.13 305.55 L74.72 305.44 L69.55 297.8 L70.89 297.13 L72.23 296.45 Z" stroke="rgb(0, 0, 0)" stroke-width="0" fill-rule="evenodd" stroke-linejoin="miter" fill="rgb(0, 0, 0)" shape-rendering="geometricPrecision" /></g><g id="Charge4839"><circle cx="52.15" cy="281.94" r="3.33333333333333" stroke="rgb(0, 0, 0)" stroke-width="0.48" fill="none" /><line x1="50.18" y1="281.94" x2="54.12" y2="281.94" stroke="rgb(0, 0, 0)" stroke-width="0.48" shape-rendering="auto" /></g><g id="Charge4840"><circle cx="123.46" cy="285.24" r="3.33133569771409" stroke="rgb(0, 0, 0)" stroke-width="0.48" fill="none" /><line x1="121.49" y1="285.24" x2="125.43" y2="285.24" stroke="rgb(0, 0, 0)" stroke-width="0.48" shape-rendering="auto" /></g><g id="Wedged Hash Begin Bond"><path d="M75.33 305.77 L75.33 305.77 L74.93 305.33 L75.34 304.89 L75.81 305.41 Z" stroke="rgb(0, 0, 0)" stroke-width="0" fill-rule="evenodd" stroke-linejoin="miter" fill="rgb(0, 0, 0)" shape-rendering="geometricPrecision" /><path d="M77.6 304.04 L77.6 304.04 L76.89 303.25 L77.31 302.81 L78.08 303.67 Z" stroke="rgb(0, 0, 0)" stroke-width="0" fill-rule="evenodd" stroke-linejoin="miter" fill="rgb(0, 0, 0)" shape-rendering="geometricPrecision" /><path d="M79.87 302.3 L79.87 302.3 L78.85 301.17 L79.27 300.73 L80.35 301.93 Z" stroke="rgb(0, 0, 0)" stroke-width="0" fill-rule="evenodd" stroke-linejoin="miter" fill="rgb(0, 0, 0)" shape-rendering="geometricPrecision" /><path d="M82.14 300.56 L82.14 300.56 L80.82 299.09 L81.23 298.65 L82.62 300.2 Z" stroke="rgb(0, 0, 0)" stroke-width="0" fill-rule="evenodd" stroke-linejoin="miter" fill="rgb(0, 0, 0)" shape-rendering="geometricPrecision" /><path d="M84.41 298.83 L84.41 298.83 L82.78 297.01 L83.19 296.57 L84.89 298.46 Z" stroke="rgb(0, 0, 0)" stroke-width="0" fill-rule="evenodd" stroke-linejoin="miter" fill="rgb(0, 0, 0)" shape-rendering="geometricPrecision" /><path d="M86.69 297.09 L86.69 297.09 L84.74 294.93 L85.16 294.5 L87.16 296.72 Z" stroke="rgb(0, 0, 0)" stroke-width="0" fill-rule="evenodd" stroke-linejoin="miter" fill="rgb(0, 0, 0)" shape-rendering="geometricPrecision" /></g></g></g></svg>