<?xml version="1.0"?><svg xmlns="http://www.w3.org/2000/svg" xmlns:xlink="http://www.w3.org/1999/xlink" viewBox="40.28 18.01 273.44 57.73" preserveAspectRatio="xMidYMid" width="100%" height="100%"><clipPath id="10240"><rect x="0.3" y="0.3" width="522.72" height="769.32" /></clipPath><g id="drawing"><rect x="40.28" y="18.01" width="100%" height="100%" fill="rgb(255, 255, 255)" /><g id="page" clip-path="url(#10240)"><g id="Solid"><path d="M86.85 30.98 L86.85 30.98 L87.15 31.15 L87.45 31.32 L87.45 45.38 L87.15 45.55 L86.85 45.72 Z" stroke="rgb(0, 0, 0)" stroke-width="0" fill-rule="evenodd" stroke-linejoin="miter" fill="rgb(0, 0, 0)" shape-rendering="geometricPrecision" /></g><g id="Solid"><path d="M86.85 45.72 L86.85 45.72 L87.15 45.55 L87.45 45.38 L99.62 52.4 L99.62 52.75 L99.31 52.92 Z" stroke="rgb(0, 0, 0)" stroke-width="0" fill-rule="evenodd" stroke-linejoin="miter" fill="rgb(0, 0, 0)" shape-rendering="geometricPrecision" /></g><g id="Solid"><path d="M99.93 52.92 L99.93 52.92 L99.62 52.75 L99.62 52.4 L111.79 45.38 L112.09 45.55 L112.24 45.81 Z" stroke="rgb(0, 0, 0)" stroke-width="0" fill-rule="evenodd" stroke-linejoin="miter" fill="rgb(0, 0, 0)" shape-rendering="geometricPrecision" /></g><g id="Solid"><path d="M112.39 44.98 L112.39 44.98 L112.09 45.55 L111.79 45.38 L111.79 31.32 L112.09 31.15 L112.39 30.98 Z" stroke="rgb(0, 0, 0)" stroke-width="0" fill-rule="evenodd" stroke-linejoin="miter" fill="rgb(0, 0, 0)" shape-rendering="geometricPrecision" /></g><g id="Solid"><path d="M112.39 30.98 L112.39 30.98 L112.09 31.15 L111.79 31.32 L99.62 24.3 L99.62 23.95 L99.62 23.6 Z" stroke="rgb(0, 0, 0)" stroke-width="0" fill-rule="evenodd" stroke-linejoin="miter" fill="rgb(0, 0, 0)" shape-rendering="geometricPrecision" /></g><g id="Solid"><path d="M99.62 23.6 L99.62 23.6 L99.62 23.95 L99.62 24.3 L87.45 31.32 L87.15 31.15 L86.85 30.98 Z" stroke="rgb(0, 0, 0)" stroke-width="0" fill-rule="evenodd" stroke-linejoin="miter" fill="rgb(0, 0, 0)" shape-rendering="geometricPrecision" /></g><g><text xml:space="preserve" text-anchor="start" text-rendering="geometricPrecision"><tspan x="120.67" y="42.25" font-family="Arial" font-size="10" fill="rgb(0, 0, 0)">OH</tspan></text></g><g id="WedgeBegin"><path d="M112.24 45.81 L112.24 45.81 L112.09 45.55 L112.39 44.98 L119.06 39.79 L119.81 41.09 L120.56 42.39 Z" stroke="rgb(0, 0, 0)" stroke-width="0" fill-rule="evenodd" stroke-linejoin="miter" fill="rgb(0, 0, 0)" shape-rendering="geometricPrecision" /></g><g id="Wedged Hash Begin Bond"><path d="M111.94 45.81 L111.94 45.81 L112.24 45.29 L112.78 45.55 L112.43 46.15 Z" stroke="rgb(0, 0, 0)" stroke-width="0" fill-rule="evenodd" stroke-linejoin="miter" fill="rgb(0, 0, 0)" shape-rendering="geometricPrecision" /><path d="M114.22 47.39 L114.22 47.39 L114.75 46.47 L115.29 46.73 L114.71 47.73 Z" stroke="rgb(0, 0, 0)" stroke-width="0" fill-rule="evenodd" stroke-linejoin="miter" fill="rgb(0, 0, 0)" shape-rendering="geometricPrecision" /><path d="M116.49 48.97 L116.49 48.97 L117.25 47.65 L117.8 47.91 L116.99 49.31 Z" stroke="rgb(0, 0, 0)" stroke-width="0" fill-rule="evenodd" stroke-linejoin="miter" fill="rgb(0, 0, 0)" shape-rendering="geometricPrecision" /><path d="M118.77 50.55 L118.77 50.55 L119.76 48.83 L120.31 49.09 L119.27 50.89 Z" stroke="rgb(0, 0, 0)" stroke-width="0" fill-rule="evenodd" stroke-linejoin="miter" fill="rgb(0, 0, 0)" shape-rendering="geometricPrecision" /><path d="M121.05 52.13 L121.05 52.13 L122.27 50.01 L122.81 50.27 L121.54 52.47 Z" stroke="rgb(0, 0, 0)" stroke-width="0" fill-rule="evenodd" stroke-linejoin="miter" fill="rgb(0, 0, 0)" shape-rendering="geometricPrecision" /><path d="M123.33 53.71 L123.33 53.71 L124.77 51.19 L125.32 51.45 L123.82 54.05 Z" stroke="rgb(0, 0, 0)" stroke-width="0" fill-rule="evenodd" stroke-linejoin="miter" fill="rgb(0, 0, 0)" shape-rendering="geometricPrecision" /></g><g id="Solid"><path d="M124.27 52.75 L124.27 52.75 L124.57 52.75 L124.87 52.75 L124.87 67.15 L124.57 67.15 L124.27 67.15 Z" stroke="rgb(0, 0, 0)" stroke-width="0" fill-rule="evenodd" stroke-linejoin="miter" fill="rgb(0, 0, 0)" shape-rendering="geometricPrecision" /><line x1="121.98" y1="54.25" x2="121.98" y2="67.15" stroke="rgb(0, 0, 0)" stroke-width="0.6" shape-rendering="auto" /></g><g id="WedgeBegin"><path d="M99.31 52.92 L99.31 52.92 L99.62 52.75 L99.93 52.92 L101.08 66.65 L99.62 67.15 L98.07 67.7 Z" stroke="rgb(0, 0, 0)" stroke-width="0" fill-rule="evenodd" stroke-linejoin="miter" fill="rgb(0, 0, 0)" shape-rendering="geometricPrecision" /></g><g id="Solid"><line x1="100.27" y1="66.03" x2="112.74" y2="73.23" stroke="rgb(0, 0, 0)" stroke-width="0.6" shape-rendering="auto" /><path d="M98.92 67.9 L98.92 67.9 L98.32 68.24 L111.29 75.73 L111.59 75.21 Z" stroke="rgb(0, 0, 0)" stroke-width="0" fill-rule="evenodd" stroke-linejoin="miter" fill="rgb(0, 0, 0)" shape-rendering="geometricPrecision" /><path d="M100.05 65.56 L100.05 65.56 L100 66.22 L112.59 73.49 L112.89 72.97 Z" stroke="rgb(0, 0, 0)" stroke-width="0" fill-rule="evenodd" stroke-linejoin="miter" fill="rgb(0, 0, 0)" shape-rendering="geometricPrecision" /></g><g id="Solid"><path d="M98.07 67.7 L98.07 67.7 L99.62 67.15 L101.08 66.65 L87.15 74.7 L87.15 74.35 L87.15 74 Z" stroke="rgb(0, 0, 0)" stroke-width="0" fill-rule="evenodd" stroke-linejoin="miter" fill="rgb(0, 0, 0)" shape-rendering="geometricPrecision" /></g><g><text xml:space="preserve" text-anchor="start" text-rendering="geometricPrecision"><tspan x="70.78" y="71.05" font-family="Arial" font-size="10" fill="rgb(0, 0, 0)">O</tspan></text></g><g id="Solid"><path d="M87.15 74 L87.15 74 L87.15 74.35 L87.15 74.7 L79.24 70.13 L79.39 69.87 L79.54 69.61 Z" stroke="rgb(0, 0, 0)" stroke-width="0" fill-rule="evenodd" stroke-linejoin="miter" fill="rgb(0, 0, 0)" shape-rendering="geometricPrecision" /></g><g id="Solid"><path d="M74.98 62.2 L74.98 62.2 L74.68 62.2 L74.38 62.2 L74.38 52.92 L74.68 52.75 L74.98 52.58 Z" stroke="rgb(0, 0, 0)" stroke-width="0" fill-rule="evenodd" stroke-linejoin="miter" fill="rgb(0, 0, 0)" shape-rendering="geometricPrecision" /></g><g id="Solid"><path d="M74.98 52.58 L74.98 52.58 L74.68 52.75 L74.38 52.92 L61.91 45.72 L62.21 45.55 L62.51 45.38 Z" stroke="rgb(0, 0, 0)" stroke-width="0" fill-rule="evenodd" stroke-linejoin="miter" fill="rgb(0, 0, 0)" shape-rendering="geometricPrecision" /></g><g id="Solid"><path d="M62.51 45.38 L62.51 45.38 L62.21 45.55 L61.91 45.72 L61.91 31.32 L62.21 31.15 L62.51 30.98 Z" stroke="rgb(0, 0, 0)" stroke-width="0" fill-rule="evenodd" stroke-linejoin="miter" fill="rgb(0, 0, 0)" shape-rendering="geometricPrecision" /><line x1="64.8" y1="44.05" x2="64.8" y2="31.15" stroke="rgb(0, 0, 0)" stroke-width="0.6" shape-rendering="auto" /></g><g><text xml:space="preserve" text-anchor="end" text-rendering="geometricPrecision"><tspan x="52.52" y="27.85" font-family="Arial" font-size="10" fill="rgb(0, 0, 0)">Ph</tspan></text></g><g id="Solid"><path d="M62.51 30.98 L62.51 30.98 L62.21 31.15 L61.91 31.32 L53.14 26.26 L53.29 26 L53.44 25.74 Z" stroke="rgb(0, 0, 0)" stroke-width="0" fill-rule="evenodd" stroke-linejoin="miter" fill="rgb(0, 0, 0)" shape-rendering="geometricPrecision" /></g><g id="Arrow"><line x1="202.62" y1="52.6" x2="167.12" y2="52.6" stroke="rgb(0, 0, 0)" stroke-width="0.6" shape-rendering="auto" /><path d="M206.87 52.6 L200.87 51.1 C202.06 51.94 202.06 53.26 200.87 54.1 Z" stroke="rgb(0, 0, 0)" stroke-width="0" fill-rule="evenodd" stroke-linejoin="miter" stroke-miterlimit="6.93525005514877" fill="rgb(0, 0, 0)" shape-rendering="geometricPrecision" /></g><g id="Solid"><path d="M272.1 29.48 L272.1 29.48 L272.4 29.65 L272.7 29.82 L272.7 44.05 L272.4 44.05 L272.1 44.05 Z" stroke="rgb(0, 0, 0)" stroke-width="0" fill-rule="evenodd" stroke-linejoin="miter" fill="rgb(0, 0, 0)" shape-rendering="geometricPrecision" /></g><path d="M272.4 44.05 A0.935062138479164,0.935062138479164 30.0015236097033 0,0 272.71 45.38 A0.935062138479164,0.935062138479164 30.0015236097033 0,0 274.02 44.99 A0.935062138479164,0.935062138479164 30.0015236097033 0,1 275.33 44.59 A0.935062138479164,0.935062138479164 30.0015236097033 0,1 275.64 45.92 A0.935062138479164,0.935062138479164 30.0015236097033 0,0 275.95 47.25 A0.935062138479164,0.935062138479164 30.0015236097033 0,0 277.26 46.86 A0.935062138479164,0.935062138479164 30.0015236097033 0,1 278.57 46.46 A0.935062138479164,0.935062138479164 30.0015236097033 0,1 278.88 47.79 A0.935062138479164,0.935062138479164 30.0015236097033 0,0 279.19 49.12 A0.935062138479164,0.935062138479164 30.0015236097033 0,0 280.5 48.73 A0.935062138479164,0.935062138479164 30.0015236097033 0,1 281.81 48.33 A0.935062138479164,0.935062138479164 30.0015236097033 0,1 282.12 49.66 A0.935062138479164,0.935062138479164 30.0015236097033 0,0 282.43 50.99 A0.935062138479164,0.935062138479164 30.0015236097033 0,0 283.74 50.6 A0.935062138479164,0.935062138479164 30.0015236097033 0,1 285.05 50.2 " stroke="rgb(0, 0, 0)" stroke-width="0.6" fill-rule="evenodd" stroke-linejoin="bevel" fill="none" shape-rendering="geometricPrecision" /><g id="Solid"><path d="M297.64 43.88 L297.64 43.88 L297.34 44.05 L297.04 44.22 L297.04 29.82 L297.34 29.65 L297.64 29.48 Z" stroke="rgb(0, 0, 0)" stroke-width="0" fill-rule="evenodd" stroke-linejoin="miter" fill="rgb(0, 0, 0)" shape-rendering="geometricPrecision" /></g><g id="Solid"><path d="M297.64 29.48 L297.64 29.48 L297.34 29.65 L297.04 29.82 L284.87 22.8 L284.87 22.45 L284.87 22.1 Z" stroke="rgb(0, 0, 0)" stroke-width="0" fill-rule="evenodd" stroke-linejoin="miter" fill="rgb(0, 0, 0)" shape-rendering="geometricPrecision" /></g><g id="Solid"><path d="M284.87 22.1 L284.87 22.1 L284.87 22.45 L284.87 22.8 L272.7 29.82 L272.4 29.65 L272.1 29.48 Z" stroke="rgb(0, 0, 0)" stroke-width="0" fill-rule="evenodd" stroke-linejoin="miter" fill="rgb(0, 0, 0)" shape-rendering="geometricPrecision" /></g><g id="Solid"><line x1="296.69" y1="42.93" x2="304.47" y2="38.44" stroke="rgb(0, 0, 0)" stroke-width="0.6" shape-rendering="auto" /><path d="M298.64 44.45 L298.64 44.45 L299.24 44.8 L305.91 40.95 L305.61 40.43 Z" stroke="rgb(0, 0, 0)" stroke-width="0" fill-rule="evenodd" stroke-linejoin="miter" fill="rgb(0, 0, 0)" shape-rendering="geometricPrecision" /><path d="M297.64 42.03 L297.64 42.03 L297.64 42.73 L304.62 38.7 L304.32 38.18 Z" stroke="rgb(0, 0, 0)" stroke-width="0" fill-rule="evenodd" stroke-linejoin="miter" fill="rgb(0, 0, 0)" shape-rendering="geometricPrecision" /></g><g><text xml:space="preserve" text-anchor="start" text-rendering="geometricPrecision"><tspan x="305.92" y="40.75" font-family="Arial" font-size="10" fill="rgb(0, 0, 0)">O</tspan></text></g><g id="Solid"><path d="M297.04 44.22 L297.04 44.22 L297.34 44.05 L297.64 43.88 L310.12 51.08 L309.82 51.25 L309.52 51.42 Z" stroke="rgb(0, 0, 0)" stroke-width="0" fill-rule="evenodd" stroke-linejoin="miter" fill="rgb(0, 0, 0)" shape-rendering="geometricPrecision" /></g><g id="Solid"><path d="M309.52 51.42 L309.52 51.42 L309.82 51.25 L310.12 51.08 L310.12 65.82 L309.82 65.65 L309.52 65.48 Z" stroke="rgb(0, 0, 0)" stroke-width="0" fill-rule="evenodd" stroke-linejoin="miter" fill="rgb(0, 0, 0)" shape-rendering="geometricPrecision" /></g><g id="Solid"><path d="M284.57 51.25 L284.57 51.25 L284.87 51.25 L285.17 51.25 L285.17 65.48 L284.87 65.65 L284.57 65.48 Z" stroke="rgb(0, 0, 0)" stroke-width="0" fill-rule="evenodd" stroke-linejoin="miter" fill="rgb(0, 0, 0)" shape-rendering="geometricPrecision" /><line x1="282.28" y1="52.75" x2="282.28" y2="64.15" stroke="rgb(0, 0, 0)" stroke-width="0.6" shape-rendering="auto" /></g><g id="Solid"><path d="M284.87 66 L284.87 66 L284.87 65.65 L285.17 65.48 L297.34 72.5 L297.34 72.85 L297.34 73.2 Z" stroke="rgb(0, 0, 0)" stroke-width="0" fill-rule="evenodd" stroke-linejoin="miter" fill="rgb(0, 0, 0)" shape-rendering="geometricPrecision" /></g><g id="Solid"><path d="M284.57 65.48 L284.57 65.48 L284.87 65.65 L284.87 66 L272.4 73.2 L272.4 72.85 L272.4 72.5 Z" stroke="rgb(0, 0, 0)" stroke-width="0" fill-rule="evenodd" stroke-linejoin="miter" fill="rgb(0, 0, 0)" shape-rendering="geometricPrecision" /></g><g id="Solid"><path d="M272.4 72.5 L272.4 72.5 L272.4 72.85 L272.4 73.2 L264.44 68.6 L264.59 68.34 L264.74 68.08 Z" stroke="rgb(0, 0, 0)" stroke-width="0" fill-rule="evenodd" stroke-linejoin="miter" fill="rgb(0, 0, 0)" shape-rendering="geometricPrecision" /></g><g><text xml:space="preserve" text-anchor="start" text-rendering="geometricPrecision"><tspan x="256.03" y="69.55" font-family="Arial" font-size="10" fill="rgb(0, 0, 0)">O</tspan></text></g><g id="Solid"><path d="M260.23 60.7 L260.23 60.7 L259.93 60.7 L259.63 60.7 L259.63 51.42 L259.93 51.25 L260.23 51.08 Z" stroke="rgb(0, 0, 0)" stroke-width="0" fill-rule="evenodd" stroke-linejoin="miter" fill="rgb(0, 0, 0)" shape-rendering="geometricPrecision" /></g><g id="Solid"><path d="M260.23 51.08 L260.23 51.08 L259.93 51.25 L259.63 51.42 L247.16 44.22 L247.46 44.05 L247.76 43.88 Z" stroke="rgb(0, 0, 0)" stroke-width="0" fill-rule="evenodd" stroke-linejoin="miter" fill="rgb(0, 0, 0)" shape-rendering="geometricPrecision" /></g><g id="Solid"><path d="M247.76 43.88 L247.76 43.88 L247.46 44.05 L247.16 44.22 L247.16 29.82 L247.46 29.65 L247.76 29.48 Z" stroke="rgb(0, 0, 0)" stroke-width="0" fill-rule="evenodd" stroke-linejoin="miter" fill="rgb(0, 0, 0)" shape-rendering="geometricPrecision" /><line x1="250.05" y1="42.55" x2="250.05" y2="29.65" stroke="rgb(0, 0, 0)" stroke-width="0.6" shape-rendering="auto" /></g><g id="Solid"><path d="M247.76 29.48 L247.76 29.48 L247.46 29.65 L247.16 29.82 L238.34 24.73 L238.49 24.47 L238.64 24.21 Z" stroke="rgb(0, 0, 0)" stroke-width="0" fill-rule="evenodd" stroke-linejoin="miter" fill="rgb(0, 0, 0)" shape-rendering="geometricPrecision" /></g><g><text xml:space="preserve" text-anchor="end" text-rendering="geometricPrecision"><tspan x="237.77" y="26.35" font-family="Arial" font-size="10" fill="rgb(0, 0, 0)">Ph</tspan></text></g><g id="Solid"><path d="M297.34 73.2 L297.34 73.2 L297.34 72.85 L297.34 72.5 L309.52 65.48 L309.82 65.65 L310.12 65.82 Z" stroke="rgb(0, 0, 0)" stroke-width="0" fill-rule="evenodd" stroke-linejoin="miter" fill="rgb(0, 0, 0)" shape-rendering="geometricPrecision" /></g><g><text xml:space="preserve" text-anchor="start" text-rendering="geometricPrecision"><tspan x="182.86" y="46.51" font-family="Symbol" font-size="11.1" fill="rgb(0, 0, 0)">D</tspan></text></g><g id="Arrow"><path d="M120.75 61.13 C118.24 61.13 115.92 63.09 115.5 65.57 " stroke="rgb(255, 0, 0)" stroke-width="0.6" fill-rule="evenodd" stroke-linejoin="bevel" fill="none" shape-rendering="geometricPrecision" /><path d="M116.14 69.11 L116.44 64.83 C115.96 65.83 115.19 65.97 114.39 65.19 Z" stroke="rgb(255, 0, 0)" stroke-width="0" fill-rule="evenodd" stroke-linejoin="miter" stroke-miterlimit="5.58443758134613" fill="rgb(255, 0, 0)" shape-rendering="geometricPrecision" /></g><g id="Arrow"><path d="M107.98 68.24 C108.75 65.38 107.06 62.12 104.28 61.1 " stroke="rgb(255, 0, 0)" stroke-width="0.6" fill-rule="evenodd" stroke-linejoin="bevel" fill="none" shape-rendering="geometricPrecision" /><path d="M100.69 60.94 L105.22 62.51 C104.28 61.75 104.37 60.77 105.43 60.19 Z" stroke="rgb(255, 0, 0)" stroke-width="0" fill-rule="evenodd" stroke-linejoin="miter" stroke-miterlimit="6.59494370077956" fill="rgb(255, 0, 0)" shape-rendering="geometricPrecision" /></g><g id="Arrow"><path d="M105.76 51.75 C107.73 55.16 112.09 56.33 115.51 54.36 C115.54 54.35 115.56 54.33 115.59 54.31 " stroke="rgb(255, 0, 0)" stroke-width="0.6" fill-rule="evenodd" stroke-linejoin="bevel" fill="none" shape-rendering="geometricPrecision" /><path d="M118.12 51.75 L113.79 54.14 C115.01 53.93 115.72 54.69 115.42 55.9 Z" stroke="rgb(255, 0, 0)" stroke-width="0" fill-rule="evenodd" stroke-linejoin="miter" stroke-miterlimit="6.93525005514879" fill="rgb(255, 0, 0)" shape-rendering="geometricPrecision" /></g></g></g></svg>