<?xml version="1.0"?><svg xmlns="http://www.w3.org/2000/svg" xmlns:xlink="http://www.w3.org/1999/xlink" viewBox="18.75 49.77 97.38 106.58" preserveAspectRatio="xMidYMid" width="100%" height="100%"><clipPath id="10247"><rect x="0.3" y="0.3" width="522.72" height="769.32" /></clipPath><g id="drawing"><rect x="18.75" y="49.77" width="100%" height="100%" fill="rgb(255, 255, 255)" /><g id="page" clip-path="url(#10247)"><g id="Solid"><path d="M93.11 65.22 L93.11 65.22 L92.7 65.58 L92.29 65.94 L80.73 67.53 L80.75 67.22 L80.77 66.91 Z" stroke="rgb(0, 0, 0)" stroke-width="0" fill-rule="evenodd" stroke-linejoin="miter" fill="rgb(0, 0, 0)" shape-rendering="geometricPrecision" /></g><g id="Solid"><path d="M92.29 65.94 L92.29 65.94 L92.7 65.58 L93.11 65.22 L88.64 80.85 L88.44 80.47 L88.24 80.09 Z" stroke="rgb(0, 0, 0)" stroke-width="0" fill-rule="evenodd" stroke-linejoin="miter" fill="rgb(0, 0, 0)" shape-rendering="geometricPrecision" /></g><g id="Solid"><path d="M72.21 75.52 L72.21 75.52 L72 75.14 L72.3 74.92 L88.24 80.09 L88.44 80.47 L88.64 80.85 Z" stroke="rgb(0, 0, 0)" stroke-width="0" fill-rule="evenodd" stroke-linejoin="miter" fill="rgb(0, 0, 0)" shape-rendering="geometricPrecision" /></g><g id="Solid"><g id="Bond's parts"><path d="M63.55 62.45 L63.55 62.45 L63.85 62.5 L64.25 62.6 L64.65 62.7 L65.05 62.8 L65.45 62.9 L65.75 63 L66.15 63.1 L66.55 63.2 L66.95 63.3 L67.35 63.4 L67.65 63.5 L68.05 63.6 L68.45 63.7 L68.85 63.8 L69.25 63.9 L69.65 64 L69.95 64.1 L70.35 64.15 L70.3 64.85 L70.28 64.8 L69.95 64.7 L69.55 64.6 L69.15 64.5 L68.75 64.4 L68.35 64.3 L67.95 64.2 L67.65 64.1 L67.25 64 L66.85 63.9 L66.45 63.8 L66.05 63.7 L65.75 63.6 L65.35 63.5 L64.95 63.4 L64.55 63.3 L64.15 63.2 L63.85 63.15 L63.8 62.95 L63.75 62.9 L63.7 62.85 Z" stroke="rgb(0, 0, 0)" stroke-width="0" fill-rule="evenodd" stroke-linejoin="miter" fill="rgb(0, 0, 0)" shape-rendering="geometricPrecision" /><path d="M74.2 65.15 L74.2 65.15 L74.22 65.2 L74.55 65.3 L74.95 65.4 L75.35 65.5 L75.75 65.6 L76.15 65.7 L76.55 65.8 L76.85 65.9 L77.25 66 L77.65 66.1 L78.05 66.2 L78.45 66.3 L78.85 66.4 L79.15 66.5 L79.55 66.6 L79.95 66.7 L80.35 66.8 L80.75 66.85 L80.7 67.55 L80.68 67.5 L80.25 67.4 L79.85 67.3 L79.45 67.2 L79.15 67.1 L78.75 67 L78.35 66.9 L77.95 66.8 L77.55 66.7 L77.15 66.6 L76.85 66.5 L76.45 66.4 L76.05 66.3 L75.65 66.2 L75.25 66.1 L74.85 66 L74.55 65.9 Z" stroke="rgb(0, 0, 0)" stroke-width="0" fill-rule="evenodd" stroke-linejoin="miter" fill="rgb(0, 0, 0)" shape-rendering="geometricPrecision" /></g></g><g id="Dash"><path d="M62.43 77.34 L62.43 77.34 L62.32 76.75 L59.86 77.23 L59.44 77.62 L59.43 77.93 Z" stroke="rgb(0, 0, 0)" stroke-width="0" fill-rule="evenodd" stroke-linejoin="miter" fill="rgb(0, 0, 0)" shape-rendering="geometricPrecision" /><path d="M69.13 76.01 L69.13 76.01 L69.02 75.42 L71.7 74.89 L72 75.14 L71.59 75.53 Z" stroke="rgb(0, 0, 0)" stroke-width="0" fill-rule="evenodd" stroke-linejoin="miter" fill="rgb(0, 0, 0)" shape-rendering="geometricPrecision" /><path d="M64.56 76.92 L64.56 76.92 L67.01 76.43 L66.89 75.84 L64.44 76.33 Z" stroke="rgb(0, 0, 0)" stroke-width="0" fill-rule="evenodd" stroke-linejoin="miter" fill="rgb(0, 0, 0)" shape-rendering="geometricPrecision" /></g><g id="Solid"><path d="M63.46 62.4 L63.46 62.4 L63.67 62.76 L63.88 63.12 L59.86 77.23 L59.44 77.62 L59.23 77.25 Z" stroke="rgb(0, 0, 0)" stroke-width="0" fill-rule="evenodd" stroke-linejoin="miter" fill="rgb(0, 0, 0)" shape-rendering="geometricPrecision" /></g><g><text xml:space="preserve" text-anchor="end" text-rendering="geometricPrecision"><tspan x="71.42" y="95.73" font-family="Arial" font-size="10" fill="rgb(0, 0, 0)">HO</tspan></text></g><g id="Solid"><path d="M71.59 75.53 L71.59 75.53 L72 75.14 L72.21 75.52 L69.09 87.13 L68.8 87.05 L68.51 86.98 Z" stroke="rgb(0, 0, 0)" stroke-width="0" fill-rule="evenodd" stroke-linejoin="miter" fill="rgb(0, 0, 0)" shape-rendering="geometricPrecision" /></g><g id="Solid"><path d="M72.3 74.92 L72.3 74.92 L72 75.14 L71.7 74.89 L71.7 58.09 L72 57.86 L72.3 57.63 Z" stroke="rgb(0, 0, 0)" stroke-width="0" fill-rule="evenodd" stroke-linejoin="miter" fill="rgb(0, 0, 0)" shape-rendering="geometricPrecision" /></g><g id="Solid"><path d="M59.23 77.25 L59.23 77.25 L59.44 77.62 L59.43 77.93 L42.96 73.51 L42.75 73.14 L43.05 72.91 Z" stroke="rgb(0, 0, 0)" stroke-width="0" fill-rule="evenodd" stroke-linejoin="miter" fill="rgb(0, 0, 0)" shape-rendering="geometricPrecision" /></g><g id="Solid"><path d="M42.45 73.1 L42.45 73.1 L42.75 73.14 L42.96 73.51 L38.59 89.84 L38.28 89.84 L37.97 89.84 Z" stroke="rgb(0, 0, 0)" stroke-width="0" fill-rule="evenodd" stroke-linejoin="miter" fill="rgb(0, 0, 0)" shape-rendering="geometricPrecision" /></g><g id="Bracket"><path d="M97.08 50.37 L104.47 50.37 L104.47 155.75 L97.08 155.75 " stroke="rgb(0, 0, 0)" stroke-width="0.6" fill-rule="evenodd" stroke-linejoin="miter" fill="none" shape-rendering="geometricPrecision" /></g><g id="Bracket"><path d="M26.74 155.75 L19.35 155.75 L19.35 50.37 L26.74 50.37 " stroke="rgb(0, 0, 0)" stroke-width="0.6" fill-rule="evenodd" stroke-linejoin="miter" fill="none" shape-rendering="geometricPrecision" /></g><g id="Charge10208"><line x1="112.35" y1="51.57" x2="112.35" y2="64.17" stroke="rgb(0, 0, 0)" stroke-width="0.48" shape-rendering="auto" /><line x1="109.05" y1="54.87" x2="115.65" y2="54.87" stroke="rgb(0, 0, 0)" stroke-width="0.48" shape-rendering="auto" /><line x1="109.05" y1="60.87" x2="115.65" y2="60.87" stroke="rgb(0, 0, 0)" stroke-width="0.48" shape-rendering="auto" /></g><g id="Solid"><path d="M72.3 57.63 L72.3 57.63 L72 57.86 L71.7 58.09 L58.09 54.44 L58.09 54.13 L58.09 53.82 Z" stroke="rgb(0, 0, 0)" stroke-width="0" fill-rule="evenodd" stroke-linejoin="miter" fill="rgb(0, 0, 0)" shape-rendering="geometricPrecision" /><line x1="69.41" y1="59.85" x2="58.13" y2="56.82" stroke="rgb(0, 0, 0)" stroke-width="0.6" shape-rendering="auto" /></g><g id="Solid"><path d="M43.05 72.91 L43.05 72.91 L42.75 73.14 L42.45 73.1 L42.45 58.52 L42.75 58.74 L43.05 58.96 Z" stroke="rgb(0, 0, 0)" stroke-width="0" fill-rule="evenodd" stroke-linejoin="miter" fill="rgb(0, 0, 0)" shape-rendering="geometricPrecision" /><line x1="45.34" y1="71.15" x2="45.34" y2="60.67" stroke="rgb(0, 0, 0)" stroke-width="0.6" shape-rendering="auto" /></g><g id="Dash"><path d="M45.44 58.24 L45.44 58.24 L45.27 57.67 L42.45 58.52 L42.75 58.74 L43.05 58.96 Z" stroke="rgb(0, 0, 0)" stroke-width="0" fill-rule="evenodd" stroke-linejoin="miter" fill="rgb(0, 0, 0)" shape-rendering="geometricPrecision" /><path d="M55.7 55.16 L55.7 55.16 L55.53 54.59 L58.09 53.82 L58.09 54.13 L58.09 54.44 Z" stroke="rgb(0, 0, 0)" stroke-width="0" fill-rule="evenodd" stroke-linejoin="miter" fill="rgb(0, 0, 0)" shape-rendering="geometricPrecision" /><path d="M47.27 57.7 L47.27 57.7 L49.66 56.98 L49.49 56.4 L47.09 57.12 Z" stroke="rgb(0, 0, 0)" stroke-width="0" fill-rule="evenodd" stroke-linejoin="miter" fill="rgb(0, 0, 0)" shape-rendering="geometricPrecision" /><path d="M51.48 56.43 L51.48 56.43 L53.88 55.71 L53.71 55.13 L51.31 55.85 Z" stroke="rgb(0, 0, 0)" stroke-width="0" fill-rule="evenodd" stroke-linejoin="miter" fill="rgb(0, 0, 0)" shape-rendering="geometricPrecision" /></g><g><text xml:space="preserve" text-anchor="start" text-rendering="geometricPrecision"><tspan x="38.1" y="107.64" font-family="Arial" font-size="10" fill="rgb(0, 0, 0)">O</tspan></text></g><g id="Solid"><path d="M37.97 89.84 L37.97 89.84 L38.28 89.84 L38.59 89.84 L41.01 98.88 L40.72 98.95 L40.43 99.03 Z" stroke="rgb(0, 0, 0)" stroke-width="0" fill-rule="evenodd" stroke-linejoin="miter" fill="rgb(0, 0, 0)" shape-rendering="geometricPrecision" /></g><g id="Solid"><path d="M37.86 107.46 L37.86 107.46 L38.07 107.67 L38.28 107.89 L32.19 113.98 L31.82 113.93 L31.45 113.88 Z" stroke="rgb(0, 0, 0)" stroke-width="0" fill-rule="evenodd" stroke-linejoin="miter" fill="rgb(0, 0, 0)" shape-rendering="geometricPrecision" /></g><g id="Solid"><path d="M31.45 113.88 L31.45 113.88 L31.82 113.93 L32.19 113.98 L39.37 126.4 L39.02 126.4 L38.67 126.4 Z" stroke="rgb(0, 0, 0)" stroke-width="0" fill-rule="evenodd" stroke-linejoin="miter" fill="rgb(0, 0, 0)" shape-rendering="geometricPrecision" /></g><g id="Solid"><path d="M38.67 126.4 L38.67 126.4 L39.02 126.4 L39.37 126.4 L32.17 138.87 L31.82 138.87 L31.47 138.87 Z" stroke="rgb(0, 0, 0)" stroke-width="0" fill-rule="evenodd" stroke-linejoin="miter" fill="rgb(0, 0, 0)" shape-rendering="geometricPrecision" /><line x1="36.03" y1="126.4" x2="29.58" y2="137.57" stroke="rgb(0, 0, 0)" stroke-width="0.6" shape-rendering="auto" /></g><g id="Solid"><path d="M31.47 138.87 L31.47 138.87 L31.82 138.87 L32.17 138.87 L36.61 146.56 L36.35 146.71 L36.09 146.86 Z" stroke="rgb(0, 0, 0)" stroke-width="0" fill-rule="evenodd" stroke-linejoin="miter" fill="rgb(0, 0, 0)" shape-rendering="geometricPrecision" /></g><g><text xml:space="preserve" text-anchor="start" text-rendering="geometricPrecision"><tspan x="35.69" y="155.24" font-family="Arial" font-size="10" fill="rgb(0, 0, 0)">Ph</tspan></text></g></g></g></svg>