<?xml version="1.0"?><svg xmlns="http://www.w3.org/2000/svg" xmlns:xlink="http://www.w3.org/1999/xlink" viewBox="147.75 89.59 97.38 106.57" preserveAspectRatio="xMidYMid" width="100%" height="100%"><clipPath id="10210"><rect x="0.3" y="0.3" width="522.72" height="769.32" /></clipPath><g id="drawing"><rect x="147.75" y="89.59" width="100%" height="100%" fill="rgb(255, 255, 255)" /><g id="page" clip-path="url(#10210)"><g id="Solid"><path d="M222.11 163.53 L222.11 163.53 L221.7 163.89 L221.29 164.25 L209.73 165.84 L209.75 165.53 L209.77 165.22 Z" stroke="rgb(0, 0, 0)" stroke-width="0" fill-rule="evenodd" stroke-linejoin="miter" fill="rgb(0, 0, 0)" shape-rendering="geometricPrecision" /></g><g id="Solid"><path d="M221.29 164.25 L221.29 164.25 L221.7 163.89 L222.11 163.53 L217.64 179.16 L217.44 178.78 L217.24 178.4 Z" stroke="rgb(0, 0, 0)" stroke-width="0" fill-rule="evenodd" stroke-linejoin="miter" fill="rgb(0, 0, 0)" shape-rendering="geometricPrecision" /></g><g id="Solid"><path d="M201.21 173.83 L201.21 173.83 L201 173.45 L201.3 173.23 L217.24 178.4 L217.44 178.78 L217.64 179.16 Z" stroke="rgb(0, 0, 0)" stroke-width="0" fill-rule="evenodd" stroke-linejoin="miter" fill="rgb(0, 0, 0)" shape-rendering="geometricPrecision" /></g><g id="Solid"><g id="Bond's parts"><path d="M192.55 160.75 L192.55 160.75 L192.85 160.8 L193.25 160.9 L193.55 161 L193.95 161.1 L194.35 161.2 L194.75 161.3 L195.15 161.4 L195.55 161.5 L195.85 161.6 L196.25 161.7 L196.65 161.8 L197.05 161.9 L197.45 162 L197.85 162.1 L198.15 162.2 L198.55 162.3 L198.98 162.4 L199 162.45 L199.05 163.05 L198.85 163 L198.45 162.9 L198.05 162.8 L197.75 162.7 L197.35 162.6 L196.95 162.5 L196.55 162.4 L196.15 162.3 L195.85 162.2 L195.45 162.1 L195.05 162 L194.65 161.9 L194.25 161.8 L193.85 161.7 L193.55 161.6 L193.15 161.5 L192.85 161.45 L192.8 161.25 L192.75 161.2 L192.7 161.15 Z" stroke="rgb(0, 0, 0)" stroke-width="0" fill-rule="evenodd" stroke-linejoin="miter" fill="rgb(0, 0, 0)" shape-rendering="geometricPrecision" /><path d="M202.85 163.45 L202.85 163.45 L203.15 163.5 L203.55 163.6 L203.95 163.7 L204.35 163.8 L204.65 163.9 L205.05 164 L205.45 164.1 L205.85 164.2 L206.25 164.3 L206.65 164.4 L206.95 164.5 L207.35 164.6 L207.75 164.7 L208.15 164.8 L208.55 164.9 L208.95 165 L209.25 165.1 L209.68 165.2 L209.7 165.25 L209.75 165.85 L209.55 165.8 L209.25 165.7 L208.85 165.6 L208.45 165.5 L208.05 165.4 L207.65 165.3 L207.25 165.2 L206.95 165.1 L206.55 165 L206.15 164.9 L205.75 164.8 L205.35 164.7 L204.95 164.6 L204.65 164.5 L204.25 164.4 L203.85 164.3 L203.45 164.2 L203.05 164.1 Z" stroke="rgb(0, 0, 0)" stroke-width="0" fill-rule="evenodd" stroke-linejoin="miter" fill="rgb(0, 0, 0)" shape-rendering="geometricPrecision" /></g></g><g id="Dash"><path d="M191.43 175.65 L191.43 175.65 L191.32 175.06 L188.86 175.54 L188.44 175.93 L188.43 176.24 Z" stroke="rgb(0, 0, 0)" stroke-width="0" fill-rule="evenodd" stroke-linejoin="miter" fill="rgb(0, 0, 0)" shape-rendering="geometricPrecision" /><path d="M198.13 174.32 L198.13 174.32 L198.02 173.73 L200.7 173.2 L201 173.45 L200.59 173.84 Z" stroke="rgb(0, 0, 0)" stroke-width="0" fill-rule="evenodd" stroke-linejoin="miter" fill="rgb(0, 0, 0)" shape-rendering="geometricPrecision" /><path d="M193.56 175.23 L193.56 175.23 L196.01 174.74 L195.89 174.15 L193.44 174.64 Z" stroke="rgb(0, 0, 0)" stroke-width="0" fill-rule="evenodd" stroke-linejoin="miter" fill="rgb(0, 0, 0)" shape-rendering="geometricPrecision" /></g><g id="Solid"><path d="M192.46 160.71 L192.46 160.71 L192.67 161.07 L192.88 161.43 L188.86 175.54 L188.44 175.93 L188.23 175.56 Z" stroke="rgb(0, 0, 0)" stroke-width="0" fill-rule="evenodd" stroke-linejoin="miter" fill="rgb(0, 0, 0)" shape-rendering="geometricPrecision" /></g><g id="Solid"><path d="M200.59 173.84 L200.59 173.84 L201 173.45 L201.21 173.83 L196.73 190.51 L196.52 190.14 L196.31 189.77 Z" stroke="rgb(0, 0, 0)" stroke-width="0" fill-rule="evenodd" stroke-linejoin="miter" fill="rgb(0, 0, 0)" shape-rendering="geometricPrecision" /></g><g id="Solid"><path d="M196.31 189.77 L196.31 189.77 L196.52 190.14 L196.73 190.51 L179.82 185.98 L179.83 185.67 L179.84 185.36 Z" stroke="rgb(0, 0, 0)" stroke-width="0" fill-rule="evenodd" stroke-linejoin="miter" fill="rgb(0, 0, 0)" shape-rendering="geometricPrecision" /><line x1="194.32" y1="186.33" x2="180.63" y2="182.67" stroke="rgb(0, 0, 0)" stroke-width="0.6" shape-rendering="auto" /></g><g><text xml:space="preserve" text-anchor="start" text-rendering="geometricPrecision"><tspan x="197.1" y="160.07" font-family="Arial" font-size="10" fill="rgb(0, 0, 0)">OH</tspan></text></g><g id="Solid"><path d="M201.3 173.23 L201.3 173.23 L201 173.45 L200.7 173.2 L200.7 161.8 L201 161.8 L201.3 161.8 Z" stroke="rgb(0, 0, 0)" stroke-width="0" fill-rule="evenodd" stroke-linejoin="miter" fill="rgb(0, 0, 0)" shape-rendering="geometricPrecision" /></g><g id="Solid"><path d="M188.23 175.56 L188.23 175.56 L188.44 175.93 L188.43 176.24 L171.96 171.83 L171.75 171.46 L171.91 171.19 Z" stroke="rgb(0, 0, 0)" stroke-width="0" fill-rule="evenodd" stroke-linejoin="miter" fill="rgb(0, 0, 0)" shape-rendering="geometricPrecision" /></g><g id="Solid"><path d="M171.42 171.55 L171.42 171.55 L171.75 171.46 L171.96 171.83 L167.69 187.76 L167.28 188.15 L166.87 188.54 Z" stroke="rgb(0, 0, 0)" stroke-width="0" fill-rule="evenodd" stroke-linejoin="miter" fill="rgb(0, 0, 0)" shape-rendering="geometricPrecision" /><line x1="173.95" y1="175.27" x2="171.58" y2="184.13" stroke="rgb(0, 0, 0)" stroke-width="0.6" shape-rendering="auto" /></g><g id="Solid"><path d="M171.91 171.19 L171.91 171.19 L171.75 171.46 L171.42 171.55 L159.2 159.33 L159.53 159.24 L159.86 159.15 Z" stroke="rgb(0, 0, 0)" stroke-width="0" fill-rule="evenodd" stroke-linejoin="miter" fill="rgb(0, 0, 0)" shape-rendering="geometricPrecision" /></g><g><text xml:space="preserve" text-anchor="start" text-rendering="geometricPrecision"><tspan x="160.1" y="146.45" font-family="Arial" font-size="10" fill="rgb(0, 0, 0)">O</tspan></text></g><g id="Solid"><path d="M159.86 159.15 L159.86 159.15 L159.53 159.24 L159.2 159.33 L162.24 147.97 L162.53 148.05 L162.82 148.12 Z" stroke="rgb(0, 0, 0)" stroke-width="0" fill-rule="evenodd" stroke-linejoin="miter" fill="rgb(0, 0, 0)" shape-rendering="geometricPrecision" /></g><g id="Solid"><path d="M169.02 141.51 L169.02 141.51 L168.95 141.22 L168.87 140.93 L180.45 137.83 L180.69 138.07 L180.93 138.31 Z" stroke="rgb(0, 0, 0)" stroke-width="0" fill-rule="evenodd" stroke-linejoin="miter" fill="rgb(0, 0, 0)" shape-rendering="geometricPrecision" /></g><g id="Solid"><path d="M180.93 138.31 L180.93 138.31 L180.69 138.07 L180.45 137.83 L184.92 121.14 L185.16 121.38 L185.4 121.62 Z" stroke="rgb(0, 0, 0)" stroke-width="0" fill-rule="evenodd" stroke-linejoin="miter" fill="rgb(0, 0, 0)" shape-rendering="geometricPrecision" /></g><g id="Solid"><path d="M185.4 121.62 L185.4 121.62 L185.16 121.38 L184.92 121.14 L201.62 116.67 L201.86 116.91 L202.1 117.15 Z" stroke="rgb(0, 0, 0)" stroke-width="0" fill-rule="evenodd" stroke-linejoin="miter" fill="rgb(0, 0, 0)" shape-rendering="geometricPrecision" /><line x1="187.7" y1="123.92" x2="202.66" y2="119.92" stroke="rgb(0, 0, 0)" stroke-width="0.6" shape-rendering="auto" /></g><g><text xml:space="preserve" text-anchor="start" text-rendering="geometricPrecision"><tspan x="203" y="104.12" font-family="Arial" font-size="10" fill="rgb(0, 0, 0)">Ph</tspan></text></g><g id="Solid"><path d="M202.1 117.15 L202.1 117.15 L201.86 116.91 L201.62 116.67 L204.56 105.67 L204.85 105.75 L205.14 105.82 Z" stroke="rgb(0, 0, 0)" stroke-width="0" fill-rule="evenodd" stroke-linejoin="miter" fill="rgb(0, 0, 0)" shape-rendering="geometricPrecision" /></g><g id="Dash"><path d="M170.26 187.87 L170.26 187.87 L170.15 187.28 L167.69 187.76 L167.28 188.15 L166.87 188.54 Z" stroke="rgb(0, 0, 0)" stroke-width="0" fill-rule="evenodd" stroke-linejoin="miter" fill="rgb(0, 0, 0)" shape-rendering="geometricPrecision" /><path d="M177.37 186.46 L177.37 186.46 L177.25 185.87 L179.84 185.36 L179.83 185.67 L179.82 185.98 Z" stroke="rgb(0, 0, 0)" stroke-width="0" fill-rule="evenodd" stroke-linejoin="miter" fill="rgb(0, 0, 0)" shape-rendering="geometricPrecision" /><path d="M172.59 187.41 L172.59 187.41 L175.04 186.92 L174.93 186.33 L172.47 186.82 Z" stroke="rgb(0, 0, 0)" stroke-width="0" fill-rule="evenodd" stroke-linejoin="miter" fill="rgb(0, 0, 0)" shape-rendering="geometricPrecision" /></g><g id="Bracket"><path d="M226.08 90.19 L233.47 90.19 L233.47 195.56 L226.08 195.56 " stroke="rgb(0, 0, 0)" stroke-width="0.6" fill-rule="evenodd" stroke-linejoin="miter" fill="none" shape-rendering="geometricPrecision" /></g><g id="Bracket"><path d="M155.74 195.56 L148.35 195.56 L148.35 90.19 L155.74 90.19 " stroke="rgb(0, 0, 0)" stroke-width="0.6" fill-rule="evenodd" stroke-linejoin="miter" fill="none" shape-rendering="geometricPrecision" /></g><g id="Charge10208"><line x1="241.35" y1="91.39" x2="241.35" y2="103.99" stroke="rgb(0, 0, 0)" stroke-width="0.48" shape-rendering="auto" /><line x1="238.05" y1="94.69" x2="244.65" y2="94.69" stroke="rgb(0, 0, 0)" stroke-width="0.48" shape-rendering="auto" /><line x1="238.05" y1="100.69" x2="244.65" y2="100.69" stroke="rgb(0, 0, 0)" stroke-width="0.48" shape-rendering="auto" /></g></g></g></svg>