<?xml version="1.0"?><svg xmlns="http://www.w3.org/2000/svg" xmlns:xlink="http://www.w3.org/1999/xlink" viewBox="62.04 49.6 235.79 58.98" preserveAspectRatio="xMidYMid" width="100%" height="100%"><clipPath id="67"><rect x="0.3" y="0.3" width="539.4" height="719.15" /></clipPath><g id="drawing"><rect x="62.04" y="49.6" width="100%" height="100%" fill="rgb(255, 255, 255)" /><g id="page" clip-path="url(#67)"><g id="Solid"><path d="M62.04 75.59 L62.04 75.59 L62.34 75.76 L62.64 75.93 L62.64 89.99 L62.34 90.16 L62.04 90.33 Z" stroke="rgb(0, 0, 0)" stroke-width="0" fill-rule="evenodd" stroke-linejoin="miter" fill="rgb(0, 0, 0)" shape-rendering="geometricPrecision" /></g><g id="Solid"><path d="M62.04 90.33 L62.04 90.33 L62.34 90.16 L62.64 89.99 L74.81 97.01 L74.81 97.36 L74.81 97.71 Z" stroke="rgb(0, 0, 0)" stroke-width="0" fill-rule="evenodd" stroke-linejoin="miter" fill="rgb(0, 0, 0)" shape-rendering="geometricPrecision" /></g><g id="Solid"><path d="M74.81 97.71 L74.81 97.71 L74.81 97.36 L74.81 97.01 L86.98 89.99 L87.28 90.16 L87.58 90.33 Z" stroke="rgb(0, 0, 0)" stroke-width="0" fill-rule="evenodd" stroke-linejoin="miter" fill="rgb(0, 0, 0)" shape-rendering="geometricPrecision" /></g><g id="Solid"><path d="M87.58 90.33 L87.58 90.33 L87.28 90.16 L86.98 89.99 L86.98 75.93 L87.28 75.76 L87.58 75.59 Z" stroke="rgb(0, 0, 0)" stroke-width="0" fill-rule="evenodd" stroke-linejoin="miter" fill="rgb(0, 0, 0)" shape-rendering="geometricPrecision" /><line x1="84.69" y1="88.66" x2="84.69" y2="77.26" stroke="rgb(0, 0, 0)" stroke-width="0.6" shape-rendering="auto" /></g><g id="Solid"><path d="M87.58 75.59 L87.58 75.59 L87.28 75.76 L86.98 75.93 L74.81 68.91 L74.81 68.56 L74.81 68.21 Z" stroke="rgb(0, 0, 0)" stroke-width="0" fill-rule="evenodd" stroke-linejoin="miter" fill="rgb(0, 0, 0)" shape-rendering="geometricPrecision" /></g><g id="Solid"><path d="M74.81 68.21 L74.81 68.21 L74.81 68.56 L74.81 68.91 L62.64 75.93 L62.34 75.76 L62.04 75.59 Z" stroke="rgb(0, 0, 0)" stroke-width="0" fill-rule="evenodd" stroke-linejoin="miter" fill="rgb(0, 0, 0)" shape-rendering="geometricPrecision" /></g><g><text xml:space="preserve" text-anchor="start" text-rendering="geometricPrecision"><tspan x="70.91" y="58.06" font-family="Arial" font-size="10" fill="rgb(0, 0, 0)">O</tspan></text></g><g id="Solid"><line x1="73.51" y1="68.56" x2="73.51" y2="59.8" stroke="rgb(0, 0, 0)" stroke-width="0.6" shape-rendering="auto" /><path d="M75.81 68.79 L75.81 68.79 L76.41 69.14 L76.41 59.8 L75.81 59.8 Z" stroke="rgb(0, 0, 0)" stroke-width="0" fill-rule="evenodd" stroke-linejoin="miter" fill="rgb(0, 0, 0)" shape-rendering="geometricPrecision" /><path d="M73.21 69.14 L73.21 69.14 L73.81 68.79 L73.81 59.8 L73.21 59.8 Z" stroke="rgb(0, 0, 0)" stroke-width="0" fill-rule="evenodd" stroke-linejoin="miter" fill="rgb(0, 0, 0)" shape-rendering="geometricPrecision" /></g><g id="Solid"><line x1="122.61" y1="75.2" x2="122.61" y2="89.6" stroke="rgb(0, 0, 0)" stroke-width="0.6" shape-rendering="auto" /><path d="M120.31 75.2 L120.31 75.2 L119.71 75.2 L119.71 90.77 L120.31 90.17 Z" stroke="rgb(0, 0, 0)" stroke-width="0" fill-rule="evenodd" stroke-linejoin="miter" fill="rgb(0, 0, 0)" shape-rendering="geometricPrecision" /><path d="M122.91 75.2 L122.91 75.2 L122.31 75.2 L122.31 90.17 L122.91 90.77 Z" stroke="rgb(0, 0, 0)" stroke-width="0" fill-rule="evenodd" stroke-linejoin="miter" fill="rgb(0, 0, 0)" shape-rendering="geometricPrecision" /></g><g><text xml:space="preserve" text-anchor="end" text-rendering="geometricPrecision"><tspan x="113.91" y="103.68" font-family="Arial" font-size="10" fill="rgb(0, 0, 0)">Me</tspan></text></g><g id="Solid"><path d="M121.31 89.18 L121.31 89.18 L121.31 89.6 L121.31 90.02 L113.65 97.68 L113.44 97.47 L113.23 97.26 Z" stroke="rgb(0, 0, 0)" stroke-width="0" fill-rule="evenodd" stroke-linejoin="miter" fill="rgb(0, 0, 0)" shape-rendering="geometricPrecision" /></g><g><text xml:space="preserve" text-anchor="start" text-rendering="geometricPrecision"><tspan x="127.32" y="103.68" font-family="Arial" font-size="10" fill="rgb(0, 0, 0)">Me</tspan></text></g><g id="Solid"><path d="M121.31 90.02 L121.31 90.02 L121.31 89.6 L121.31 89.18 L127.39 95.26 L127.18 95.47 L126.97 95.68 Z" stroke="rgb(0, 0, 0)" stroke-width="0" fill-rule="evenodd" stroke-linejoin="miter" fill="rgb(0, 0, 0)" shape-rendering="geometricPrecision" /></g><g id="Arrow"><line x1="208.94" y1="81.81" x2="157.31" y2="81.81" stroke="rgb(0, 0, 0)" stroke-width="0.6" shape-rendering="auto" /><path d="M213.19 81.81 L207.19 80.31 C208.38 81.15 208.38 82.47 207.19 83.31 Z" stroke="rgb(0, 0, 0)" stroke-width="0" fill-rule="evenodd" stroke-linejoin="miter" stroke-miterlimit="6.93525005514877" fill="rgb(0, 0, 0)" shape-rendering="geometricPrecision" /></g><g id="Solid"><path d="M234.54 75.59 L234.54 75.59 L234.84 75.76 L235.14 75.93 L235.14 89.99 L234.84 90.16 L234.54 90.33 Z" stroke="rgb(0, 0, 0)" stroke-width="0" fill-rule="evenodd" stroke-linejoin="miter" fill="rgb(0, 0, 0)" shape-rendering="geometricPrecision" /></g><g id="Solid"><path d="M234.54 90.33 L234.54 90.33 L234.84 90.16 L235.14 89.99 L247.31 97.01 L247.31 97.36 L247.31 97.71 Z" stroke="rgb(0, 0, 0)" stroke-width="0" fill-rule="evenodd" stroke-linejoin="miter" fill="rgb(0, 0, 0)" shape-rendering="geometricPrecision" /></g><g id="Solid"><path d="M247.31 97.71 L247.31 97.71 L247.31 97.36 L247.31 97.01 L259.48 89.99 L259.78 90.16 L259.86 90.46 Z" stroke="rgb(0, 0, 0)" stroke-width="0" fill-rule="evenodd" stroke-linejoin="miter" fill="rgb(0, 0, 0)" shape-rendering="geometricPrecision" /></g><g id="Solid"><path d="M260.08 89.86 L260.08 89.86 L259.78 90.16 L259.48 89.99 L259.48 75.93 L259.78 75.76 L260.08 76.06 Z" stroke="rgb(0, 0, 0)" stroke-width="0" fill-rule="evenodd" stroke-linejoin="miter" fill="rgb(0, 0, 0)" shape-rendering="geometricPrecision" /></g><g id="Solid"><path d="M259.86 75.46 L259.86 75.46 L259.78 75.76 L259.48 75.93 L247.31 68.91 L247.31 68.56 L247.31 68.21 Z" stroke="rgb(0, 0, 0)" stroke-width="0" fill-rule="evenodd" stroke-linejoin="miter" fill="rgb(0, 0, 0)" shape-rendering="geometricPrecision" /></g><g id="Solid"><path d="M247.31 68.21 L247.31 68.21 L247.31 68.56 L247.31 68.91 L235.14 75.93 L234.84 75.76 L234.54 75.59 Z" stroke="rgb(0, 0, 0)" stroke-width="0" fill-rule="evenodd" stroke-linejoin="miter" fill="rgb(0, 0, 0)" shape-rendering="geometricPrecision" /></g><g id="Solid"><line x1="246.01" y1="68.56" x2="246.01" y2="59.8" stroke="rgb(0, 0, 0)" stroke-width="0.6" shape-rendering="auto" /><path d="M248.31 68.79 L248.31 68.79 L248.91 69.14 L248.91 59.8 L248.31 59.8 Z" stroke="rgb(0, 0, 0)" stroke-width="0" fill-rule="evenodd" stroke-linejoin="miter" fill="rgb(0, 0, 0)" shape-rendering="geometricPrecision" /><path d="M245.71 69.14 L245.71 69.14 L246.31 68.79 L246.31 59.8 L245.71 59.8 Z" stroke="rgb(0, 0, 0)" stroke-width="0" fill-rule="evenodd" stroke-linejoin="miter" fill="rgb(0, 0, 0)" shape-rendering="geometricPrecision" /></g><g><text xml:space="preserve" text-anchor="start" text-rendering="geometricPrecision"><tspan x="243.41" y="58.06" font-family="Arial" font-size="10" fill="rgb(0, 0, 0)">O</tspan></text></g><g id="Solid"><path d="M260.08 76.06 L260.08 76.06 L259.78 75.76 L259.86 75.46 L274.48 75.46 L274.18 75.76 L273.88 76.06 Z" stroke="rgb(0, 0, 0)" stroke-width="0" fill-rule="evenodd" stroke-linejoin="miter" fill="rgb(0, 0, 0)" shape-rendering="geometricPrecision" /></g><g id="Solid"><path d="M259.86 90.46 L259.86 90.46 L259.78 90.16 L260.08 89.86 L273.88 89.86 L274.18 90.16 L273.88 90.46 Z" stroke="rgb(0, 0, 0)" stroke-width="0" fill-rule="evenodd" stroke-linejoin="miter" fill="rgb(0, 0, 0)" shape-rendering="geometricPrecision" /></g><g id="Solid"><path d="M273.88 76.06 L273.88 76.06 L274.18 75.76 L274.48 75.46 L274.48 89.93 L274.18 90.16 L273.88 89.86 Z" stroke="rgb(0, 0, 0)" stroke-width="0" fill-rule="evenodd" stroke-linejoin="miter" fill="rgb(0, 0, 0)" shape-rendering="geometricPrecision" /></g><g id="Solid"><path d="M273.88 90.46 L273.88 90.46 L274.18 90.16 L274.48 90.55 L274.48 100.56 L274.18 100.56 L273.88 100.56 Z" stroke="rgb(0, 0, 0)" stroke-width="0" fill-rule="evenodd" stroke-linejoin="miter" fill="rgb(0, 0, 0)" shape-rendering="geometricPrecision" /></g><g><text xml:space="preserve" text-anchor="start" text-rendering="geometricPrecision"><tspan x="270.01" y="108.46" font-family="Arial" font-size="10" fill="rgb(0, 0, 0)">Me</tspan></text></g><g id="Solid"><path d="M274.48 90.55 L274.48 90.55 L274.18 90.16 L274.48 89.93 L283.23 92.28 L283.15 92.57 L283.08 92.86 Z" stroke="rgb(0, 0, 0)" stroke-width="0" fill-rule="evenodd" stroke-linejoin="miter" fill="rgb(0, 0, 0)" shape-rendering="geometricPrecision" /></g><g><text xml:space="preserve" text-anchor="start" text-rendering="geometricPrecision"><tspan x="283.92" y="97.79" font-family="Arial" font-size="10" fill="rgb(0, 0, 0)">Me</tspan></text></g><g><text xml:space="preserve" text-anchor="start" text-rendering="geometricPrecision"><tspan x="178.69" y="73.88" font-family="Arial" font-style="italic" font-size="10" fill="rgb(0, 0, 0)">hv</tspan></text></g><g id="Arrow"><path d="M84.93 83.81 C89.96 92.52 101.44 96.66 110.87 93.16 " stroke="rgb(255, 0, 0)" stroke-width="0.6" fill-rule="evenodd" stroke-linejoin="bevel" fill="none" shape-rendering="geometricPrecision" /><path d="M114.13 91.63 L109.26 92.52 C110.49 92.7 110.92 93.66 110.25 94.7 Z" stroke="rgb(255, 0, 0)" stroke-width="0" fill-rule="evenodd" stroke-linejoin="miter" stroke-miterlimit="6.93525005514882" fill="rgb(255, 0, 0)" shape-rendering="geometricPrecision" /></g><g id="Arrow"><path d="M121.5 81.04 C117.1 71.09 105.44 66.58 95.48 70.99 C93.43 71.9 91.54 73.16 89.91 74.7 " stroke="rgb(255, 0, 0)" stroke-width="0.6" fill-rule="evenodd" stroke-linejoin="bevel" fill="none" shape-rendering="geometricPrecision" /><path d="M87.53 77.4 L91.65 74.65 C90.45 74.97 89.67 74.26 89.87 73.04 Z" stroke="rgb(255, 0, 0)" stroke-width="0" fill-rule="evenodd" stroke-linejoin="miter" stroke-miterlimit="6.94106074149457" fill="rgb(255, 0, 0)" shape-rendering="geometricPrecision" /></g></g></g></svg>