<?xml version="1.0"?><svg xmlns="http://www.w3.org/2000/svg" xmlns:xlink="http://www.w3.org/1999/xlink" viewBox="13.28 277.05 123.63 47.55" preserveAspectRatio="xMidYMid" width="100%" height="100%"><clipPath id="2462"><rect x="0.3" y="0.3" width="522.72" height="769.32" /></clipPath><g id="drawing"><rect x="13.28" y="277.05" width="100%" height="100%" fill="rgb(255, 255, 255)" /><g id="page" clip-path="url(#2462)"><g id="WedgeBegin"><path d="M48.34 303.84 L48.34 303.84 L48.74 303.53 L49.17 303.11 L57.73 300.87 L58.7 302.16 L60.33 303.62 Z" stroke="rgb(0, 0, 0)" stroke-width="0" fill-rule="evenodd" stroke-linejoin="miter" fill="rgb(0, 0, 0)" shape-rendering="geometricPrecision" /></g><g id="Solid"><path d="M49.17 303.11 L49.17 303.11 L48.74 303.53 L48.34 303.84 L51.87 291.55 L52.3 291.12 L52.5 291.5 Z" stroke="rgb(0, 0, 0)" stroke-width="0" fill-rule="evenodd" stroke-linejoin="miter" fill="rgb(0, 0, 0)" shape-rendering="geometricPrecision" /></g><g id="Solid"><path d="M66.02 295.25 L66.02 295.25 L66 295.56 L65.98 295.87 L52.5 291.5 L52.3 291.12 L52.31 290.81 Z" stroke="rgb(0, 0, 0)" stroke-width="0" fill-rule="evenodd" stroke-linejoin="miter" fill="rgb(0, 0, 0)" shape-rendering="geometricPrecision" /></g><g id="Bold"><path d="M60.33 303.62 L60.33 303.62 L58.7 302.16 L57.73 300.87 L72.92 304.84 L72.94 305.88 L72.64 306.84 Z" stroke="rgb(0, 0, 0)" stroke-width="0" fill-rule="evenodd" stroke-linejoin="miter" fill="rgb(0, 0, 0)" shape-rendering="geometricPrecision" /></g><g id="Solid"><path d="M76.47 293.19 L76.47 293.19 L76.46 293.5 L76.04 293.89 L65.98 295.87 L66 295.56 L66.02 295.25 Z" stroke="rgb(0, 0, 0)" stroke-width="0" fill-rule="evenodd" stroke-linejoin="miter" fill="rgb(0, 0, 0)" shape-rendering="geometricPrecision" /></g><g id="Dash"><path d="M74.18 302.6 L74.18 302.6 L73.61 302.44 L72.92 304.84 L72.94 305.88 L73.37 305.45 Z" stroke="rgb(0, 0, 0)" stroke-width="0" fill-rule="evenodd" stroke-linejoin="miter" fill="rgb(0, 0, 0)" shape-rendering="geometricPrecision" /><path d="M75.93 296.46 L75.93 296.46 L75.35 296.29 L76.04 293.89 L76.46 293.5 L76.67 293.87 Z" stroke="rgb(0, 0, 0)" stroke-width="0" fill-rule="evenodd" stroke-linejoin="miter" fill="rgb(0, 0, 0)" shape-rendering="geometricPrecision" /><path d="M74.72 300.73 L74.72 300.73 L75.4 298.33 L74.82 298.16 L74.14 300.57 Z" stroke="rgb(0, 0, 0)" stroke-width="0" fill-rule="evenodd" stroke-linejoin="miter" fill="rgb(0, 0, 0)" shape-rendering="geometricPrecision" /></g><g id="Solid"><path d="M76.67 293.87 L76.67 293.87 L76.46 293.5 L76.47 293.19 L90.37 296.91 L90.37 297.22 L90.37 297.53 Z" stroke="rgb(0, 0, 0)" stroke-width="0" fill-rule="evenodd" stroke-linejoin="miter" fill="rgb(0, 0, 0)" shape-rendering="geometricPrecision" /></g><g id="Solid"><g id="Bond's parts"><path d="M103.15 290.8 L103.15 290.8 L103.55 290.75 L103.6 290.95 L103.65 291.35 L103.25 291.4 L102.85 291.5 L102.55 291.6 L102.15 291.7 L101.75 291.8 L101.35 291.9 L101.05 292 L100.65 292.1 L100.25 292.2 L99.85 292.3 L99.55 292.4 L99.15 292.5 L98.75 292.6 L98.45 292.7 L98.05 292.8 L97.65 292.9 L97.25 293 L96.95 293.1 L96.55 293.2 L96.15 293.3 L95.75 293.4 L95.45 293.5 L95.05 293.6 L94.65 293.7 L94.25 293.8 L93.95 293.9 L93.55 294 L93.15 294.1 L92.75 294.2 L92.45 294.3 L92.05 294.4 L91.65 294.5 L91.25 294.6 L90.95 294.7 L90.53 294.8 L90.5 294.85 L90.4 294.65 L90.4 294.25 L90.43 294.2 L90.85 294.1 L91.25 294 L91.65 293.9 L91.95 293.8 L92.35 293.7 L92.75 293.6 L93.05 293.5 L93.45 293.4 L93.85 293.3 L94.25 293.2 L94.55 293.1 L94.95 293 L95.35 292.9 L95.75 292.8 L96.05 292.7 L96.45 292.6 L96.85 292.5 L97.25 292.4 L97.55 292.3 L97.95 292.2 L98.35 292.1 L98.65 292 L99.05 291.9 L99.45 291.8 L99.85 291.7 L100.15 291.6 L100.55 291.5 L100.95 291.4 L101.35 291.3 L101.65 291.2 L102.05 291.1 L102.45 291 L102.85 290.9 Z" stroke="rgb(0, 0, 0)" stroke-width="0" fill-rule="evenodd" stroke-linejoin="miter" fill="rgb(0, 0, 0)" shape-rendering="geometricPrecision" /><path d="M104.28 293.2 L104.28 293.2 L104.3 293.15 L104.3 293.35 L104.2 293.55 L104.15 293.6 L104.05 293.7 L103.95 293.8 L103.88 293.9 L103.55 294 L103.15 294.1 L102.85 294.2 L102.45 294.3 L102.05 294.4 L101.65 294.5 L101.35 294.6 L100.95 294.7 L100.55 294.8 L100.25 294.9 L99.85 295 L99.45 295.1 L99.05 295.2 L98.75 295.3 L98.35 295.4 L97.95 295.5 L97.55 295.6 L97.25 295.7 L96.85 295.8 L96.45 295.9 L96.05 296 L95.75 296.1 L95.35 296.2 L94.95 296.3 L94.55 296.4 L94.25 296.5 L93.85 296.6 L93.45 296.7 L93.15 296.8 L92.75 296.9 L92.35 297 L91.95 297.1 L91.65 297.2 L91.25 297.3 L90.85 297.4 L90.43 297.5 L90.4 297.55 L90.4 296.95 L90.43 296.9 L90.75 296.8 L91.15 296.7 L91.55 296.6 L91.95 296.5 L92.25 296.4 L92.65 296.3 L93.05 296.2 L93.45 296.1 L93.75 296 L94.15 295.9 L94.55 295.8 L94.85 295.7 L95.25 295.6 L95.65 295.5 L96.05 295.4 L96.35 295.3 L96.75 295.2 L97.15 295.1 L97.55 295 L97.85 294.9 L98.25 294.8 L98.65 294.7 L99.05 294.6 L99.35 294.5 L99.75 294.4 L100.15 294.3 L100.45 294.2 L100.85 294.1 L101.25 294 L101.65 293.9 L101.95 293.8 L102.35 293.7 L102.75 293.6 L103.15 293.5 L103.45 293.4 L103.85 293.3 Z" stroke="rgb(0, 0, 0)" stroke-width="0" fill-rule="evenodd" stroke-linejoin="miter" fill="rgb(0, 0, 0)" shape-rendering="geometricPrecision" /></g></g><g id="Solid"><path d="M104.46 293.95 L104.46 293.95 L104.28 293.5 L104.32 293.18 L116.9 300.44 L116.75 300.7 L116.6 300.96 Z" stroke="rgb(0, 0, 0)" stroke-width="0" fill-rule="evenodd" stroke-linejoin="miter" fill="rgb(0, 0, 0)" shape-rendering="geometricPrecision" /></g><g id="Solid"><path d="M73.24 306.11 L73.24 306.11 L72.94 305.88 L73.37 305.45 L86.84 301.84 L86.84 302.15 L86.84 302.46 Z" stroke="rgb(0, 0, 0)" stroke-width="0" fill-rule="evenodd" stroke-linejoin="miter" fill="rgb(0, 0, 0)" shape-rendering="geometricPrecision" /></g><g id="Solid"><path d="M86.84 302.46 L86.84 302.46 L86.84 302.15 L86.84 301.84 L100.54 305.51 L100.75 305.88 L100.96 306.25 Z" stroke="rgb(0, 0, 0)" stroke-width="0" fill-rule="evenodd" stroke-linejoin="miter" fill="rgb(0, 0, 0)" shape-rendering="geometricPrecision" /><line x1="86.84" y1="304.83" x2="100.08" y2="308.38" stroke="rgb(0, 0, 0)" stroke-width="0.6" shape-rendering="auto" /></g><g id="Dash"><path d="M101.8 303.27 L101.8 303.27 L101.23 303.11 L100.54 305.51 L100.75 305.88 L100.96 306.25 Z" stroke="rgb(0, 0, 0)" stroke-width="0" fill-rule="evenodd" stroke-linejoin="miter" fill="rgb(0, 0, 0)" shape-rendering="geometricPrecision" /><path d="M103.74 296.5 L103.74 296.5 L103.16 296.33 L103.85 293.93 L104.28 293.5 L104.46 293.95 Z" stroke="rgb(0, 0, 0)" stroke-width="0" fill-rule="evenodd" stroke-linejoin="miter" fill="rgb(0, 0, 0)" shape-rendering="geometricPrecision" /><path d="M102.43 301.09 L102.43 301.09 L103.11 298.68 L102.54 298.52 L101.85 300.92 Z" stroke="rgb(0, 0, 0)" stroke-width="0" fill-rule="evenodd" stroke-linejoin="miter" fill="rgb(0, 0, 0)" shape-rendering="geometricPrecision" /></g><g><text xml:space="preserve" text-anchor="start" text-rendering="geometricPrecision"><tspan x="69.04" y="324.18" font-family="Arial" font-size="10" fill="rgb(0, 0, 0)">OH</tspan></text></g><g id="Solid"><path d="M72.64 306.84 L72.64 306.84 L72.94 305.88 L73.24 306.11 L73.24 315.4 L72.94 315.4 L72.64 315.4 Z" stroke="rgb(0, 0, 0)" stroke-width="0" fill-rule="evenodd" stroke-linejoin="miter" fill="rgb(0, 0, 0)" shape-rendering="geometricPrecision" /></g><g id="Bracket"><path d="M17.49 324 L13.88 324 L13.88 279 L17.49 279 " stroke="rgb(0, 0, 0)" stroke-width="0.6" fill-rule="evenodd" stroke-linejoin="miter" fill="none" shape-rendering="geometricPrecision" /></g><g id="Bracket"><path d="M122.02 278.25 L125.63 278.25 L125.63 323.25 L122.02 323.25 " stroke="rgb(0, 0, 0)" stroke-width="0.6" fill-rule="evenodd" stroke-linejoin="miter" fill="none" shape-rendering="geometricPrecision" /></g><g id="Charge2452"><line x1="133.13" y1="277.95" x2="133.13" y2="290.55" stroke="rgb(0, 0, 0)" stroke-width="0.48" shape-rendering="auto" /><line x1="129.83" y1="281.25" x2="136.43" y2="281.25" stroke="rgb(0, 0, 0)" stroke-width="0.48" shape-rendering="auto" /><line x1="129.83" y1="287.25" x2="136.43" y2="287.25" stroke="rgb(0, 0, 0)" stroke-width="0.48" shape-rendering="auto" /></g><g id="Solid"><path d="M52.31 290.81 L52.31 290.81 L52.3 291.12 L51.87 291.55 L38.63 295.09 L38.39 294.85 L38.48 294.52 Z" stroke="rgb(0, 0, 0)" stroke-width="0" fill-rule="evenodd" stroke-linejoin="miter" fill="rgb(0, 0, 0)" shape-rendering="geometricPrecision" /></g><g id="Solid"><path d="M38.48 294.52 L38.48 294.52 L38.39 294.85 L37.67 294.55 L27.99 284.87 L28.2 284.66 L28.41 284.45 Z" stroke="rgb(0, 0, 0)" stroke-width="0" fill-rule="evenodd" stroke-linejoin="miter" fill="rgb(0, 0, 0)" shape-rendering="geometricPrecision" /></g><g id="Solid"><path d="M37.67 294.55 L37.67 294.55 L38.39 294.85 L38 295.15 L23.99 295.15 L23.99 294.85 L23.99 294.55 Z" stroke="rgb(0, 0, 0)" stroke-width="0" fill-rule="evenodd" stroke-linejoin="miter" fill="rgb(0, 0, 0)" shape-rendering="geometricPrecision" /></g><g id="Solid"><path d="M38 295.15 L38 295.15 L38.39 294.85 L38.63 295.09 L34.95 308.84 L34.66 308.76 L34.37 308.68 Z" stroke="rgb(0, 0, 0)" stroke-width="0" fill-rule="evenodd" stroke-linejoin="miter" fill="rgb(0, 0, 0)" shape-rendering="geometricPrecision" /></g></g></g></svg>