<?xml version="1.0"?><svg xmlns="http://www.w3.org/2000/svg" xmlns:xlink="http://www.w3.org/1999/xlink" viewBox="18.53 147.3 117.63 46.8" preserveAspectRatio="xMidYMid" width="100%" height="100%"><clipPath id="2464"><rect x="0.3" y="0.3" width="522.72" height="769.32" /></clipPath><g id="drawing"><rect x="18.53" y="147.3" width="100%" height="100%" fill="rgb(255, 255, 255)" /><g id="page" clip-path="url(#2464)"><g id="WedgeBegin"><path d="M53.94 181.58 L53.94 181.58 L53.99 181.28 L54.42 180.86 L62.98 178.62 L63.95 179.91 L65.58 181.37 Z" stroke="rgb(0, 0, 0)" stroke-width="0" fill-rule="evenodd" stroke-linejoin="miter" fill="rgb(0, 0, 0)" shape-rendering="geometricPrecision" /></g><g id="Solid"><path d="M54.42 180.86 L54.42 180.86 L53.99 181.28 L53.78 180.91 L57.35 168.49 L57.55 168.87 L57.75 169.25 Z" stroke="rgb(0, 0, 0)" stroke-width="0" fill-rule="evenodd" stroke-linejoin="miter" fill="rgb(0, 0, 0)" shape-rendering="geometricPrecision" /></g><g id="Solid"><path d="M71.27 173 L71.27 173 L71.25 173.31 L71.23 173.62 L57.75 169.25 L57.55 168.87 L57.35 168.49 Z" stroke="rgb(0, 0, 0)" stroke-width="0" fill-rule="evenodd" stroke-linejoin="miter" fill="rgb(0, 0, 0)" shape-rendering="geometricPrecision" /></g><g id="Bold"><path d="M65.58 181.37 L65.58 181.37 L63.95 179.91 L62.98 178.62 L78.17 182.59 L78.19 183.63 L76.82 184.31 Z" stroke="rgb(0, 0, 0)" stroke-width="0" fill-rule="evenodd" stroke-linejoin="miter" fill="rgb(0, 0, 0)" shape-rendering="geometricPrecision" /></g><g id="Solid"><path d="M81.41 171 L81.41 171 L81.71 171.25 L81.29 171.64 L71.23 173.62 L71.25 173.31 L71.27 173 Z" stroke="rgb(0, 0, 0)" stroke-width="0" fill-rule="evenodd" stroke-linejoin="miter" fill="rgb(0, 0, 0)" shape-rendering="geometricPrecision" /></g><g id="Dash"><path d="M79.43 180.35 L79.43 180.35 L78.86 180.19 L78.17 182.59 L78.19 183.63 L78.62 183.2 Z" stroke="rgb(0, 0, 0)" stroke-width="0" fill-rule="evenodd" stroke-linejoin="miter" fill="rgb(0, 0, 0)" shape-rendering="geometricPrecision" /><path d="M81.18 174.21 L81.18 174.21 L80.6 174.04 L81.29 171.64 L81.71 171.25 L81.92 171.62 Z" stroke="rgb(0, 0, 0)" stroke-width="0" fill-rule="evenodd" stroke-linejoin="miter" fill="rgb(0, 0, 0)" shape-rendering="geometricPrecision" /><path d="M79.97 178.48 L79.97 178.48 L80.65 176.08 L80.07 175.91 L79.39 178.32 Z" stroke="rgb(0, 0, 0)" stroke-width="0" fill-rule="evenodd" stroke-linejoin="miter" fill="rgb(0, 0, 0)" shape-rendering="geometricPrecision" /></g><g id="Solid"><path d="M53.78 180.91 L53.78 180.91 L53.99 181.28 L53.94 181.58 L40.36 177.85 L40.27 177.51 L40.52 177.27 Z" stroke="rgb(0, 0, 0)" stroke-width="0" fill-rule="evenodd" stroke-linejoin="miter" fill="rgb(0, 0, 0)" shape-rendering="geometricPrecision" /></g><g id="Solid"><path d="M40.52 177.27 L40.52 177.27 L40.27 177.51 L39.88 177.21 L36.33 163.66 L36.62 163.58 L36.91 163.5 Z" stroke="rgb(0, 0, 0)" stroke-width="0" fill-rule="evenodd" stroke-linejoin="miter" fill="rgb(0, 0, 0)" shape-rendering="geometricPrecision" /></g><g id="Solid"><path d="M39.54 177.81 L39.54 177.81 L40.27 177.51 L40.36 177.85 L30.23 187.84 L30.02 187.63 L29.81 187.42 Z" stroke="rgb(0, 0, 0)" stroke-width="0" fill-rule="evenodd" stroke-linejoin="miter" fill="rgb(0, 0, 0)" shape-rendering="geometricPrecision" /></g><g id="Solid"><path d="M39.88 177.21 L39.88 177.21 L40.27 177.51 L39.54 177.81 L25.87 177.81 L25.87 177.51 L25.87 177.21 Z" stroke="rgb(0, 0, 0)" stroke-width="0" fill-rule="evenodd" stroke-linejoin="miter" fill="rgb(0, 0, 0)" shape-rendering="geometricPrecision" /></g><g><text xml:space="preserve" text-anchor="start" text-rendering="geometricPrecision"><tspan x="77.81" y="160.75" font-family="Arial" font-size="10" fill="rgb(0, 0, 0)">OH</tspan></text></g><g id="Solid"><path d="M82.01 171.02 L82.01 171.02 L81.71 171.25 L81.41 171 L81.41 162.5 L81.71 162.5 L82.01 162.5 Z" stroke="rgb(0, 0, 0)" stroke-width="0" fill-rule="evenodd" stroke-linejoin="miter" fill="rgb(0, 0, 0)" shape-rendering="geometricPrecision" /></g><g id="Solid"><path d="M81.92 171.62 L81.92 171.62 L81.71 171.25 L82.01 171.02 L95.62 174.66 L95.62 174.97 L95.62 175.28 Z" stroke="rgb(0, 0, 0)" stroke-width="0" fill-rule="evenodd" stroke-linejoin="miter" fill="rgb(0, 0, 0)" shape-rendering="geometricPrecision" /></g><g id="Solid"><g id="Bond's parts"><path d="M106.78 169 L106.78 169 L106.8 168.95 L106.9 169.15 L107 169.45 L107.03 169.5 L106.85 169.6 L106.45 169.7 L106.05 169.8 L105.75 169.9 L105.35 170 L104.95 170.1 L104.55 170.2 L104.25 170.3 L103.85 170.4 L103.45 170.5 L103.05 170.6 L102.75 170.7 L102.35 170.8 L101.95 170.9 L101.55 171 L101.25 171.1 L100.85 171.2 L100.45 171.3 L100.05 171.4 L99.75 171.5 L99.35 171.6 L98.95 171.7 L98.55 171.8 L98.25 171.9 L97.85 172 L97.45 172.1 L97.15 172.2 L96.75 172.3 L96.35 172.4 L95.95 172.5 L95.65 172.55 L95.6 172.25 L95.55 171.95 L95.95 171.9 L96.25 171.8 L96.65 171.7 L97.05 171.6 L97.45 171.5 L97.75 171.4 L98.15 171.3 L98.55 171.2 L98.95 171.1 L99.25 171 L99.65 170.9 L100.05 170.8 L100.35 170.7 L100.75 170.6 L101.15 170.5 L101.55 170.4 L101.85 170.3 L102.25 170.2 L102.65 170.1 L103.05 170 L103.35 169.9 L103.75 169.8 L104.15 169.7 L104.55 169.6 L104.85 169.5 L105.25 169.4 L105.65 169.3 L105.95 169.2 L106.35 169.1 Z" stroke="rgb(0, 0, 0)" stroke-width="0" fill-rule="evenodd" stroke-linejoin="miter" fill="rgb(0, 0, 0)" shape-rendering="geometricPrecision" /><path d="M108.95 171.1 L108.95 171.1 L109.38 171.1 L109.4 171.15 L109.4 171.35 L109.35 171.4 L109.25 171.5 L109.15 171.6 L109.07 171.7 L108.65 171.8 L108.25 171.9 L107.85 172 L107.55 172.1 L107.15 172.2 L106.75 172.3 L106.35 172.4 L106.05 172.5 L105.65 172.6 L105.25 172.7 L104.85 172.8 L104.55 172.9 L104.15 173 L103.75 173.1 L103.35 173.2 L103.05 173.3 L102.65 173.4 L102.25 173.5 L101.95 173.6 L101.55 173.7 L101.15 173.8 L100.75 173.9 L100.45 174 L100.05 174.1 L99.65 174.2 L99.25 174.3 L98.95 174.4 L98.55 174.5 L98.15 174.6 L97.75 174.7 L97.45 174.8 L97.05 174.9 L96.65 175 L96.25 175.1 L95.95 175.2 L95.65 175.25 L95.65 174.65 L95.85 174.6 L96.25 174.5 L96.55 174.4 L96.95 174.3 L97.35 174.2 L97.75 174.1 L98.05 174 L98.45 173.9 L98.85 173.8 L99.25 173.7 L99.55 173.6 L99.95 173.5 L100.35 173.4 L100.75 173.3 L101.05 173.2 L101.45 173.1 L101.85 173 L102.25 172.9 L102.55 172.8 L102.95 172.7 L103.35 172.6 L103.65 172.5 L104.05 172.4 L104.45 172.3 L104.85 172.2 L105.15 172.1 L105.55 172 L105.95 171.9 L106.35 171.8 L106.65 171.7 L107.05 171.6 L107.45 171.5 L107.85 171.4 L108.15 171.3 L108.55 171.2 Z" stroke="rgb(0, 0, 0)" stroke-width="0" fill-rule="evenodd" stroke-linejoin="miter" fill="rgb(0, 0, 0)" shape-rendering="geometricPrecision" /></g></g><g id="Solid"><path d="M76.82 184.31 L76.82 184.31 L78.19 183.63 L78.62 183.2 L92.09 179.59 L92.09 179.9 L92.09 180.21 Z" stroke="rgb(0, 0, 0)" stroke-width="0" fill-rule="evenodd" stroke-linejoin="miter" fill="rgb(0, 0, 0)" shape-rendering="geometricPrecision" /></g><g id="Solid"><path d="M92.09 180.21 L92.09 180.21 L92.09 179.9 L92.09 179.59 L105.79 183.26 L106 183.63 L106.21 184 Z" stroke="rgb(0, 0, 0)" stroke-width="0" fill-rule="evenodd" stroke-linejoin="miter" fill="rgb(0, 0, 0)" shape-rendering="geometricPrecision" /><line x1="92.09" y1="182.58" x2="105.33" y2="186.13" stroke="rgb(0, 0, 0)" stroke-width="0.6" shape-rendering="auto" /></g><g id="Dash"><path d="M107.05 181.02 L107.05 181.02 L106.48 180.86 L105.79 183.26 L106 183.63 L106.21 184 Z" stroke="rgb(0, 0, 0)" stroke-width="0" fill-rule="evenodd" stroke-linejoin="miter" fill="rgb(0, 0, 0)" shape-rendering="geometricPrecision" /><path d="M108.99 174.25 L108.99 174.25 L108.41 174.08 L109.1 171.68 L109.53 171.25 L109.83 171.29 Z" stroke="rgb(0, 0, 0)" stroke-width="0" fill-rule="evenodd" stroke-linejoin="miter" fill="rgb(0, 0, 0)" shape-rendering="geometricPrecision" /><path d="M107.68 178.84 L107.68 178.84 L108.36 176.43 L107.79 176.27 L107.1 178.67 Z" stroke="rgb(0, 0, 0)" stroke-width="0" fill-rule="evenodd" stroke-linejoin="miter" fill="rgb(0, 0, 0)" shape-rendering="geometricPrecision" /></g><g id="Bracket"><path d="M121.27 148.5 L124.88 148.5 L124.88 193.5 L121.27 193.5 " stroke="rgb(0, 0, 0)" stroke-width="0.6" fill-rule="evenodd" stroke-linejoin="miter" fill="none" shape-rendering="geometricPrecision" /></g><g id="Bracket"><path d="M22.74 193.5 L19.13 193.5 L19.13 148.5 L22.74 148.5 " stroke="rgb(0, 0, 0)" stroke-width="0.6" fill-rule="evenodd" stroke-linejoin="miter" fill="none" shape-rendering="geometricPrecision" /></g><g id="Charge2413"><line x1="132.38" y1="148.2" x2="132.38" y2="160.8" stroke="rgb(0, 0, 0)" stroke-width="0.48" shape-rendering="auto" /><line x1="129.08" y1="151.5" x2="135.68" y2="151.5" stroke="rgb(0, 0, 0)" stroke-width="0.48" shape-rendering="auto" /><line x1="129.08" y1="157.5" x2="135.68" y2="157.5" stroke="rgb(0, 0, 0)" stroke-width="0.48" shape-rendering="auto" /></g><g id="Solid"><path d="M109.83 171.29 L109.83 171.29 L109.53 171.25 L109.23 171.02 L109.23 156.85 L109.53 156.85 L109.83 156.85 Z" stroke="rgb(0, 0, 0)" stroke-width="0" fill-rule="evenodd" stroke-linejoin="miter" fill="rgb(0, 0, 0)" shape-rendering="geometricPrecision" /></g></g></g></svg>