<?xml version="1.0"?><svg xmlns="http://www.w3.org/2000/svg" xmlns:xlink="http://www.w3.org/1999/xlink" viewBox="30.08 173.52 88.19 54.96" preserveAspectRatio="xMidYMid" width="100%" height="100%"><clipPath id="5016"><rect x="0.3" y="0.3" width="522.72" height="769.32" /></clipPath><g id="drawing"><rect x="30.08" y="173.52" width="100%" height="100%" fill="rgb(255, 255, 255)" /><g id="page" clip-path="url(#5016)"><g id="Solid"><path d="M54.87 192.31 L54.87 192.31 L55.17 192.48 L55.47 192.65 L55.47 206.71 L55.17 206.88 L54.87 206.69 Z" stroke="rgb(0, 0, 0)" stroke-width="0" fill-rule="evenodd" stroke-linejoin="miter" fill="rgb(0, 0, 0)" shape-rendering="geometricPrecision" /></g><g id="Solid"><path d="M55.18 207.23 L55.18 207.23 L55.17 206.88 L55.47 206.71 L67.64 213.73 L67.64 214.08 L67.64 214.43 Z" stroke="rgb(0, 0, 0)" stroke-width="0" fill-rule="evenodd" stroke-linejoin="miter" fill="rgb(0, 0, 0)" shape-rendering="geometricPrecision" /></g><g id="Solid"><path d="M67.64 214.43 L67.64 214.43 L67.64 214.08 L67.64 213.73 L80.11 206.53 L80.11 206.88 L80.11 207.23 Z" stroke="rgb(0, 0, 0)" stroke-width="0" fill-rule="evenodd" stroke-linejoin="miter" fill="rgb(0, 0, 0)" shape-rendering="geometricPrecision" /></g><g id="Solid"><path d="M80.11 192.13 L80.11 192.13 L80.11 192.48 L80.11 192.83 L67.64 185.63 L67.64 185.28 L67.64 184.93 Z" stroke="rgb(0, 0, 0)" stroke-width="0" fill-rule="evenodd" stroke-linejoin="miter" fill="rgb(0, 0, 0)" shape-rendering="geometricPrecision" /></g><g id="Solid"><path d="M67.64 184.93 L67.64 184.93 L67.64 185.28 L67.64 185.63 L55.47 192.65 L55.17 192.48 L54.87 192.31 Z" stroke="rgb(0, 0, 0)" stroke-width="0" fill-rule="evenodd" stroke-linejoin="miter" fill="rgb(0, 0, 0)" shape-rendering="geometricPrecision" /></g><g id="WedgeBegin"><path d="M54.87 206.69 L54.87 206.69 L55.17 206.88 L55.18 207.23 L43 215.69 L42.7 214.08 L41.45 213.01 Z" stroke="rgb(0, 0, 0)" stroke-width="0" fill-rule="evenodd" stroke-linejoin="miter" fill="rgb(0, 0, 0)" shape-rendering="geometricPrecision" /></g><g id="Solid"><path d="M41.45 213.01 L41.45 213.01 L42.7 214.08 L42.21 214.14 L30.08 207.14 L30.23 206.88 L30.38 206.62 Z" stroke="rgb(0, 0, 0)" stroke-width="0" fill-rule="evenodd" stroke-linejoin="miter" fill="rgb(0, 0, 0)" shape-rendering="geometricPrecision" /></g><g id="Solid"><path d="M42.4 214.8 L42.4 214.8 L42.7 214.08 L43 215.69 L43 228.48 L42.7 228.48 L42.4 228.48 Z" stroke="rgb(0, 0, 0)" stroke-width="0" fill-rule="evenodd" stroke-linejoin="miter" fill="rgb(0, 0, 0)" shape-rendering="geometricPrecision" /></g><g id="Solid"><path d="M42.21 214.14 L42.21 214.14 L42.7 214.08 L42.4 214.8 L32.73 224.47 L32.52 224.26 L32.31 224.05 Z" stroke="rgb(0, 0, 0)" stroke-width="0" fill-rule="evenodd" stroke-linejoin="miter" fill="rgb(0, 0, 0)" shape-rendering="geometricPrecision" /></g><g><text xml:space="preserve" text-anchor="start" text-rendering="geometricPrecision"><tspan x="76.21" y="181.98" font-family="Arial" font-size="10" fill="rgb(0, 0, 0)">O</tspan></text></g><g id="Solid"><line x1="78.81" y1="192.48" x2="78.81" y2="183.8" stroke="rgb(0, 0, 0)" stroke-width="0.6" shape-rendering="auto" /><path d="M81.11 191.56 L81.11 191.56 L81.71 191.21 L81.71 183.8 L81.11 183.8 Z" stroke="rgb(0, 0, 0)" stroke-width="0" fill-rule="evenodd" stroke-linejoin="miter" fill="rgb(0, 0, 0)" shape-rendering="geometricPrecision" /><path d="M78.51 191.21 L78.51 191.21 L79.11 191.56 L79.11 183.8 L78.51 183.8 Z" stroke="rgb(0, 0, 0)" stroke-width="0" fill-rule="evenodd" stroke-linejoin="miter" fill="rgb(0, 0, 0)" shape-rendering="geometricPrecision" /></g><g id="Solid"><path d="M80.11 192.83 L80.11 192.83 L80.11 192.48 L80.11 192.13 L92.58 184.93 L92.58 185.28 L92.58 185.63 Z" stroke="rgb(0, 0, 0)" stroke-width="0" fill-rule="evenodd" stroke-linejoin="miter" fill="rgb(0, 0, 0)" shape-rendering="geometricPrecision" /></g><g id="Solid"><path d="M92.58 185.63 L92.58 185.63 L92.58 185.28 L92.58 184.93 L105.35 192.31 L105.05 192.48 L104.75 192.65 Z" stroke="rgb(0, 0, 0)" stroke-width="0" fill-rule="evenodd" stroke-linejoin="miter" fill="rgb(0, 0, 0)" shape-rendering="geometricPrecision" /></g><g id="Wedged Hash Begin Bond"><path d="M105.2 192.74 L105.2 192.74 L104.9 192.22 L105.39 191.88 L105.74 192.48 Z" stroke="rgb(0, 0, 0)" stroke-width="0" fill-rule="evenodd" stroke-linejoin="miter" fill="rgb(0, 0, 0)" shape-rendering="geometricPrecision" /><path d="M107.71 191.56 L107.71 191.56 L107.18 190.64 L107.67 190.3 L108.25 191.3 Z" stroke="rgb(0, 0, 0)" stroke-width="0" fill-rule="evenodd" stroke-linejoin="miter" fill="rgb(0, 0, 0)" shape-rendering="geometricPrecision" /><path d="M110.21 190.38 L110.21 190.38 L109.45 189.06 L109.94 188.72 L110.75 190.12 Z" stroke="rgb(0, 0, 0)" stroke-width="0" fill-rule="evenodd" stroke-linejoin="miter" fill="rgb(0, 0, 0)" shape-rendering="geometricPrecision" /><path d="M112.72 189.2 L112.72 189.2 L111.73 187.48 L112.22 187.14 L113.26 188.94 Z" stroke="rgb(0, 0, 0)" stroke-width="0" fill-rule="evenodd" stroke-linejoin="miter" fill="rgb(0, 0, 0)" shape-rendering="geometricPrecision" /><path d="M115.22 188.02 L115.22 188.02 L114 185.9 L114.49 185.56 L115.76 187.76 Z" stroke="rgb(0, 0, 0)" stroke-width="0" fill-rule="evenodd" stroke-linejoin="miter" fill="rgb(0, 0, 0)" shape-rendering="geometricPrecision" /><path d="M117.73 186.84 L117.73 186.84 L116.28 184.32 L116.77 183.98 L118.27 186.58 Z" stroke="rgb(0, 0, 0)" stroke-width="0" fill-rule="evenodd" stroke-linejoin="miter" fill="rgb(0, 0, 0)" shape-rendering="geometricPrecision" /></g><g id="Solid"><path d="M80.11 207.23 L80.11 207.23 L80.11 206.88 L80.11 206.53 L92.58 213.73 L92.58 214.08 L92.58 214.43 Z" stroke="rgb(0, 0, 0)" stroke-width="0" fill-rule="evenodd" stroke-linejoin="miter" fill="rgb(0, 0, 0)" shape-rendering="geometricPrecision" /><line x1="80.11" y1="209.87" x2="91.28" y2="216.32" stroke="rgb(0, 0, 0)" stroke-width="0.6" shape-rendering="auto" /></g><g id="Solid"><path d="M92.58 214.43 L92.58 214.43 L92.58 214.08 L92.58 213.73 L104.75 206.71 L105.05 206.88 L105.35 207.05 Z" stroke="rgb(0, 0, 0)" stroke-width="0" fill-rule="evenodd" stroke-linejoin="miter" fill="rgb(0, 0, 0)" shape-rendering="geometricPrecision" /></g><g id="Solid"><path d="M104.75 192.65 L104.75 192.65 L105.05 192.48 L105.35 192.31 L105.35 207.05 L105.05 206.88 L104.75 206.71 Z" stroke="rgb(0, 0, 0)" stroke-width="0" fill-rule="evenodd" stroke-linejoin="miter" fill="rgb(0, 0, 0)" shape-rendering="geometricPrecision" /></g></g></g></svg>