<?xml version="1.0"?><svg xmlns="http://www.w3.org/2000/svg" xmlns:xlink="http://www.w3.org/1999/xlink" viewBox="48.53 107.55 96.63 52.05" preserveAspectRatio="xMidYMid" width="100%" height="100%"><clipPath id="338"><rect x="0.3" y="0.3" width="522.6" height="769.08" /></clipPath><g id="drawing"><rect x="48.53" y="107.55" width="100%" height="100%" fill="rgb(255, 255, 255)" /><g id="page" clip-path="url(#338)"><g id="Dash"><path d="M76.61 135.73 L76.61 135.73 L77.13 136.03 L78.51 133.64 L78.31 133.38 L77.85 133.57 Z" stroke="rgb(0, 0, 0)" stroke-width="0" fill-rule="evenodd" stroke-linejoin="miter" fill="rgb(0, 0, 0)" shape-rendering="geometricPrecision" /><path d="M71.03 145.4 L71.03 145.4 L71.55 145.7 L70.3 147.86 L69.68 148.34 L69.54 147.99 Z" stroke="rgb(0, 0, 0)" stroke-width="0" fill-rule="evenodd" stroke-linejoin="miter" fill="rgb(0, 0, 0)" shape-rendering="geometricPrecision" /><path d="M75.58 137.51 L75.58 137.51 L74.33 139.68 L74.85 139.98 L76.1 137.81 Z" stroke="rgb(0, 0, 0)" stroke-width="0" fill-rule="evenodd" stroke-linejoin="miter" fill="rgb(0, 0, 0)" shape-rendering="geometricPrecision" /><path d="M73.31 141.45 L73.31 141.45 L72.06 143.62 L72.58 143.92 L73.83 141.75 Z" stroke="rgb(0, 0, 0)" stroke-width="0" fill-rule="evenodd" stroke-linejoin="miter" fill="rgb(0, 0, 0)" shape-rendering="geometricPrecision" /></g><g id="Solid"><path d="M69.68 148.65 L69.68 148.65 L69.68 148.34 L70.3 147.86 L86.37 143.56 L86.37 143.87 L86.37 144.18 Z" stroke="rgb(0, 0, 0)" stroke-width="0" fill-rule="evenodd" stroke-linejoin="miter" fill="rgb(0, 0, 0)" shape-rendering="geometricPrecision" /><line x1="76.12" y1="143.39" x2="85.57" y2="140.87" stroke="rgb(0, 0, 0)" stroke-width="0.6" shape-rendering="auto" /></g><g id="Solid"><path d="M78.51 133.64 L78.51 133.64 L78.31 133.38 L78.31 133.07 L94.8 128.65 L95.01 128.9 L95.01 129.21 Z" stroke="rgb(0, 0, 0)" stroke-width="0" fill-rule="evenodd" stroke-linejoin="miter" fill="rgb(0, 0, 0)" shape-rendering="geometricPrecision" /><line x1="80.36" y1="136.05" x2="95.01" y2="132.12" stroke="rgb(0, 0, 0)" stroke-width="0.6" shape-rendering="auto" /></g><g><text xml:space="preserve" text-anchor="start" text-rendering="geometricPrecision"><tspan x="107.8" y="137.28" font-family="Arial" font-size="10" fill="rgb(0, 0, 0)">O</tspan></text></g><g id="Solid"><path d="M95.01 129.21 L95.01 129.21 L95.01 128.9 L95.44 128.7 L106.93 131.79 L106.85 132.08 L106.78 132.37 Z" stroke="rgb(0, 0, 0)" stroke-width="0" fill-rule="evenodd" stroke-linejoin="miter" fill="rgb(0, 0, 0)" shape-rendering="geometricPrecision" /></g><g id="Solid"><path d="M86.37 144.18 L86.37 144.18 L86.37 143.87 L86.37 143.56 L102.92 147.99 L103.06 148.34 L103.2 148.69 Z" stroke="rgb(0, 0, 0)" stroke-width="0" fill-rule="evenodd" stroke-linejoin="miter" fill="rgb(0, 0, 0)" shape-rendering="geometricPrecision" /></g><g><text xml:space="preserve" text-anchor="start" text-rendering="geometricPrecision"><tspan x="97.41" y="120.02" font-family="Arial" font-size="10" fill="rgb(0, 0, 0)">OMe</tspan></text></g><g id="Solid"><path d="M95.44 128.7 L95.44 128.7 L95.01 128.9 L94.8 128.65 L98.47 121.2 L98.74 121.34 L99.01 121.47 Z" stroke="rgb(0, 0, 0)" stroke-width="0" fill-rule="evenodd" stroke-linejoin="miter" fill="rgb(0, 0, 0)" shape-rendering="geometricPrecision" /></g><g id="Dash"><path d="M104.69 146.13 L104.69 146.13 L104.17 145.83 L102.92 147.99 L103.06 148.34 L103.2 148.69 Z" stroke="rgb(0, 0, 0)" stroke-width="0" fill-rule="evenodd" stroke-linejoin="miter" fill="rgb(0, 0, 0)" shape-rendering="geometricPrecision" /><path d="M107.82 140.7 L107.82 140.7 L107.3 140.4 L108.55 138.24 L108.81 138.39 L109.07 138.54 Z" stroke="rgb(0, 0, 0)" stroke-width="0" fill-rule="evenodd" stroke-linejoin="miter" fill="rgb(0, 0, 0)" shape-rendering="geometricPrecision" /><path d="M105.63 144.5 L105.63 144.5 L106.88 142.33 L106.36 142.03 L105.11 144.2 Z" stroke="rgb(0, 0, 0)" stroke-width="0" fill-rule="evenodd" stroke-linejoin="miter" fill="rgb(0, 0, 0)" shape-rendering="geometricPrecision" /></g><g id="Bracket"><path d="M127.69 108.75 L131.63 108.75 L131.63 159 L127.69 159 " stroke="rgb(0, 0, 0)" stroke-width="0.6" fill-rule="evenodd" stroke-linejoin="miter" fill="none" shape-rendering="geometricPrecision" /></g><g id="Bracket"><path d="M53.07 159 L49.13 159 L49.13 108.75 L53.07 108.75 " stroke="rgb(0, 0, 0)" stroke-width="0.6" fill-rule="evenodd" stroke-linejoin="miter" fill="none" shape-rendering="geometricPrecision" /></g><g id="Charge324"><line x1="141.38" y1="108.45" x2="141.38" y2="121.05" stroke="rgb(0, 0, 0)" stroke-width="0.48" shape-rendering="auto" /><line x1="138.08" y1="111.75" x2="144.68" y2="111.75" stroke="rgb(0, 0, 0)" stroke-width="0.48" shape-rendering="auto" /><line x1="138.08" y1="117.75" x2="144.68" y2="117.75" stroke="rgb(0, 0, 0)" stroke-width="0.48" shape-rendering="auto" /></g><g id="Solid"><path d="M78.31 133.07 L78.31 133.07 L78.31 133.38 L77.85 133.57 L64.33 129.94 L64.41 129.65 L64.49 129.36 Z" stroke="rgb(0, 0, 0)" stroke-width="0" fill-rule="evenodd" stroke-linejoin="miter" fill="rgb(0, 0, 0)" shape-rendering="geometricPrecision" /></g><g id="Solid"><path d="M69.54 147.99 L69.54 147.99 L69.68 148.34 L69.68 148.65 L55.69 144.9 L55.77 144.61 L55.85 144.32 Z" stroke="rgb(0, 0, 0)" stroke-width="0" fill-rule="evenodd" stroke-linejoin="miter" fill="rgb(0, 0, 0)" shape-rendering="geometricPrecision" /></g></g></g></svg>