<?xml version="1.0"?><svg xmlns="http://www.w3.org/2000/svg" xmlns:xlink="http://www.w3.org/1999/xlink" viewBox="25.89 15.7 216.15 114.35" preserveAspectRatio="xMidYMid" width="100%" height="100%"><clipPath id="4645"><rect x="0.3" y="0.3" width="522.72" height="769.32" /></clipPath><g id="drawing"><rect x="25.89" y="15.7" width="100%" height="100%" fill="rgb(255, 255, 255)" /><g id="page" clip-path="url(#4645)"><g id="Solid"><path d="M38.51 42.96 L38.51 42.96 L38.51 42.61 L38.51 42.26 L50.68 35.24 L50.98 35.41 L50.98 35.76 Z" stroke="rgb(0, 0, 0)" stroke-width="0" fill-rule="evenodd" stroke-linejoin="miter" fill="rgb(0, 0, 0)" shape-rendering="geometricPrecision" /><line x1="38.51" y1="39.62" x2="48.39" y2="33.91" stroke="rgb(0, 0, 0)" stroke-width="0.6" shape-rendering="auto" /></g><g><text xml:space="preserve" text-anchor="start" text-rendering="geometricPrecision"><tspan x="59.55" y="46.51" font-family="Arial" font-size="10" fill="rgb(0, 0, 0)">O</tspan></text></g><g id="Solid"><path d="M50.98 35.76 L50.98 35.76 L50.98 35.41 L51.28 35.24 L59.26 39.85 L59.11 40.11 L58.96 40.37 Z" stroke="rgb(0, 0, 0)" stroke-width="0" fill-rule="evenodd" stroke-linejoin="miter" fill="rgb(0, 0, 0)" shape-rendering="geometricPrecision" /></g><g><text xml:space="preserve" text-anchor="start" text-rendering="geometricPrecision"><tspan x="47.08" y="24.91" font-family="Arial" font-size="10" fill="rgb(0, 0, 0)">OMe</tspan></text></g><g id="Solid"><path d="M51.28 35.24 L51.28 35.24 L50.98 35.41 L50.68 35.24 L50.68 26.7 L50.98 26.7 L51.28 26.7 Z" stroke="rgb(0, 0, 0)" stroke-width="0" fill-rule="evenodd" stroke-linejoin="miter" fill="rgb(0, 0, 0)" shape-rendering="geometricPrecision" /></g><g id="Solid"><path d="M63.15 48.3 L63.15 48.3 L63.45 48.3 L63.75 48.3 L63.75 57.18 L63.45 57.01 L63.15 56.84 Z" stroke="rgb(0, 0, 0)" stroke-width="0" fill-rule="evenodd" stroke-linejoin="miter" fill="rgb(0, 0, 0)" shape-rendering="geometricPrecision" /></g><g id="Solid"><path d="M63.15 56.84 L63.15 56.84 L63.45 57.01 L63.75 57.18 L50.98 64.56 L50.98 64.21 L50.98 63.86 Z" stroke="rgb(0, 0, 0)" stroke-width="0" fill-rule="evenodd" stroke-linejoin="miter" fill="rgb(0, 0, 0)" shape-rendering="geometricPrecision" /></g><g id="Solid"><path d="M50.98 63.86 L50.98 63.86 L50.98 64.21 L50.98 64.56 L38.51 57.36 L38.51 57.01 L38.51 56.66 Z" stroke="rgb(0, 0, 0)" stroke-width="0" fill-rule="evenodd" stroke-linejoin="miter" fill="rgb(0, 0, 0)" shape-rendering="geometricPrecision" /><line x1="50.98" y1="61.22" x2="39.81" y2="54.77" stroke="rgb(0, 0, 0)" stroke-width="0.6" shape-rendering="auto" /></g><g id="Arrow"><line x1="159.63" y1="49.36" x2="106.01" y2="49.36" stroke="rgb(0, 0, 0)" stroke-width="0.6" shape-rendering="auto" /><path d="M163.88 49.36 L157.88 47.86 C159.07 48.7 159.07 50.02 157.88 50.86 Z" stroke="rgb(0, 0, 0)" stroke-width="0" fill-rule="evenodd" stroke-linejoin="miter" stroke-miterlimit="6.93525005514877" fill="rgb(0, 0, 0)" shape-rendering="geometricPrecision" /></g><g><text xml:space="preserve" text-anchor="start" text-rendering="geometricPrecision"><tspan x="130.76" y="44.11" font-family="Symbol" font-size="10" fill="rgb(0, 0, 0)">D</tspan></text></g><g id="Solid"><path d="M212.06 42.03 L212.06 42.03 L211.76 41.86 L211.46 41.69 L223.93 34.49 L224.23 34.66 L224.53 34.83 Z" stroke="rgb(0, 0, 0)" stroke-width="0" fill-rule="evenodd" stroke-linejoin="miter" fill="rgb(0, 0, 0)" shape-rendering="geometricPrecision" /></g><g><text xml:space="preserve" text-anchor="start" text-rendering="geometricPrecision"><tspan x="232.8" y="45.76" font-family="Arial" font-size="10" fill="rgb(0, 0, 0)">O</tspan></text></g><g id="Solid"><line x1="224.88" y1="33.54" x2="232.56" y2="37.97" stroke="rgb(0, 0, 0)" stroke-width="0.6" shape-rendering="auto" /><path d="M223.53 35.41 L223.53 35.41 L222.93 35.75 L231.12 40.48 L231.42 39.96 Z" stroke="rgb(0, 0, 0)" stroke-width="0" fill-rule="evenodd" stroke-linejoin="miter" fill="rgb(0, 0, 0)" shape-rendering="geometricPrecision" /><path d="M224.53 32.99 L224.53 32.99 L224.53 33.68 L232.41 38.23 L232.71 37.71 Z" stroke="rgb(0, 0, 0)" stroke-width="0" fill-rule="evenodd" stroke-linejoin="miter" fill="rgb(0, 0, 0)" shape-rendering="geometricPrecision" /></g><g><text xml:space="preserve" text-anchor="start" text-rendering="geometricPrecision"><tspan x="220.33" y="24.16" font-family="Arial" font-size="10" fill="rgb(0, 0, 0)">OMe</tspan></text></g><g id="Solid"><path d="M224.53 34.83 L224.53 34.83 L224.23 34.66 L223.93 34.49 L223.93 25.9 L224.23 25.9 L224.53 25.9 Z" stroke="rgb(0, 0, 0)" stroke-width="0" fill-rule="evenodd" stroke-linejoin="miter" fill="rgb(0, 0, 0)" shape-rendering="geometricPrecision" /></g><g id="Solid"><path d="M236.55 56 L236.55 56 L236.7 56.26 L236.85 56.52 L224.23 63.81 L224.23 63.46 L224.23 63.11 Z" stroke="rgb(0, 0, 0)" stroke-width="0" fill-rule="evenodd" stroke-linejoin="miter" fill="rgb(0, 0, 0)" shape-rendering="geometricPrecision" /><line x1="235.4" y1="54.02" x2="224.23" y2="60.47" stroke="rgb(0, 0, 0)" stroke-width="0.6" shape-rendering="auto" /></g><g id="Solid"><path d="M224.23 63.11 L224.23 63.11 L224.23 63.46 L224.23 63.81 L211.46 56.43 L211.76 56.26 L212.06 56.09 Z" stroke="rgb(0, 0, 0)" stroke-width="0" fill-rule="evenodd" stroke-linejoin="miter" fill="rgb(0, 0, 0)" shape-rendering="geometricPrecision" /></g><g id="Solid"><path d="M211.46 41.69 L211.46 41.69 L211.76 41.86 L212.06 42.03 L212.06 56.09 L211.76 56.26 L211.46 56.43 Z" stroke="rgb(0, 0, 0)" stroke-width="0" fill-rule="evenodd" stroke-linejoin="miter" fill="rgb(0, 0, 0)" shape-rendering="geometricPrecision" /></g><g id="Solid"><g id="Bond's parts"><path d="M142.12 98.7 L142.12 98.7 L142.48 98.7 L142.55 98.8 L142.6 98.85 L142.7 101.45 L142.8 104.15 L142.9 106.85 L142.95 107.35 L142.75 107.3 L142.35 107.25 L142.3 106.85 L142.2 104.15 L142.1 101.45 L142.1 98.75 Z" stroke="rgb(0, 0, 0)" stroke-width="0" fill-rule="evenodd" stroke-linejoin="miter" fill="rgb(0, 0, 0)" shape-rendering="geometricPrecision" /><path d="M142.45 111.15 L142.45 111.15 L142.65 111.2 L142.98 111.3 L143 111.35 L143.1 112.35 L143.2 115.05 L143.25 117.55 L142.95 117.6 L142.65 117.65 L142.6 115.05 Z" stroke="rgb(0, 0, 0)" stroke-width="0" fill-rule="evenodd" stroke-linejoin="miter" fill="rgb(0, 0, 0)" shape-rendering="geometricPrecision" /></g></g><g id="Dash"><path d="M120.4 96.72 L120.4 96.72 L120.92 97.02 L122.42 94.42 L122.27 94.08 L121.65 94.56 Z" stroke="rgb(0, 0, 0)" stroke-width="0" fill-rule="evenodd" stroke-linejoin="miter" fill="rgb(0, 0, 0)" shape-rendering="geometricPrecision" /><path d="M113.25 109.09 L113.25 109.09 L113.77 109.39 L112.52 111.55 L111.9 112.03 L111.79 111.62 Z" stroke="rgb(0, 0, 0)" stroke-width="0" fill-rule="evenodd" stroke-linejoin="miter" fill="rgb(0, 0, 0)" shape-rendering="geometricPrecision" /><path d="M118.85 99.4 L118.85 99.4 L117.6 101.57 L118.12 101.87 L119.37 99.7 Z" stroke="rgb(0, 0, 0)" stroke-width="0" fill-rule="evenodd" stroke-linejoin="miter" fill="rgb(0, 0, 0)" shape-rendering="geometricPrecision" /><path d="M116.05 104.24 L116.05 104.24 L114.8 106.41 L115.32 106.71 L116.57 104.54 Z" stroke="rgb(0, 0, 0)" stroke-width="0" fill-rule="evenodd" stroke-linejoin="miter" fill="rgb(0, 0, 0)" shape-rendering="geometricPrecision" /></g><g id="Solid"><path d="M111.86 112.35 L111.86 112.35 L111.9 112.03 L112.52 111.55 L131.93 106.36 L131.93 106.67 L131.93 106.98 Z" stroke="rgb(0, 0, 0)" stroke-width="0" fill-rule="evenodd" stroke-linejoin="miter" fill="rgb(0, 0, 0)" shape-rendering="geometricPrecision" /><line x1="119.64" y1="106.1" x2="130.97" y2="103.06" stroke="rgb(0, 0, 0)" stroke-width="0.6" shape-rendering="auto" /></g><g id="Solid"><path d="M122.42 94.42 L122.42 94.42 L122.27 94.08 L122.26 93.77 L142.3 98.3 L142.3 98.61 L142.01 98.85 Z" stroke="rgb(0, 0, 0)" stroke-width="0" fill-rule="evenodd" stroke-linejoin="miter" fill="rgb(0, 0, 0)" shape-rendering="geometricPrecision" /><line x1="124.11" y1="98.29" x2="138.71" y2="101.59" stroke="rgb(0, 0, 0)" stroke-width="0.6" shape-rendering="auto" /></g><g><text xml:space="preserve" text-anchor="start" text-rendering="geometricPrecision"><tspan x="158.43" y="97.98" font-family="Arial" font-size="10" fill="rgb(0, 0, 0)">O</tspan></text></g><g id="Solid"><path d="M142.61 98.85 L142.61 98.85 L142.3 98.61 L142.3 98.3 L157.37 94.89 L157.44 95.19 L157.51 95.48 Z" stroke="rgb(0, 0, 0)" stroke-width="0" fill-rule="evenodd" stroke-linejoin="miter" fill="rgb(0, 0, 0)" shape-rendering="geometricPrecision" /></g><g id="Solid"><path d="M131.93 106.98 L131.93 106.98 L131.93 106.67 L131.93 106.36 L151.82 111.68 L151.96 112.03 L152.1 112.38 Z" stroke="rgb(0, 0, 0)" stroke-width="0" fill-rule="evenodd" stroke-linejoin="miter" fill="rgb(0, 0, 0)" shape-rendering="geometricPrecision" /></g><g id="Dash"><path d="M153.59 109.82 L153.59 109.82 L153.07 109.52 L151.82 111.68 L151.96 112.03 L152.1 112.38 Z" stroke="rgb(0, 0, 0)" stroke-width="0" fill-rule="evenodd" stroke-linejoin="miter" fill="rgb(0, 0, 0)" shape-rendering="geometricPrecision" /><path d="M158.45 101.4 L158.45 101.4 L157.93 101.1 L159.18 98.94 L159.44 99.09 L159.7 99.24 Z" stroke="rgb(0, 0, 0)" stroke-width="0" fill-rule="evenodd" stroke-linejoin="miter" fill="rgb(0, 0, 0)" shape-rendering="geometricPrecision" /><path d="M155.39 106.69 L155.39 106.69 L156.64 104.53 L156.12 104.23 L154.87 106.39 Z" stroke="rgb(0, 0, 0)" stroke-width="0" fill-rule="evenodd" stroke-linejoin="miter" fill="rgb(0, 0, 0)" shape-rendering="geometricPrecision" /></g><g><text xml:space="preserve" text-anchor="start" text-rendering="geometricPrecision"><tspan x="139.27" y="126.4" font-family="Arial" font-size="10" fill="rgb(0, 0, 0)">OMe</tspan></text></g><g id="Bracket"><path d="M170.66 79.2 L174.6 79.2 L174.6 129.45 L170.66 129.45 " stroke="rgb(0, 0, 0)" stroke-width="0.6" fill-rule="evenodd" stroke-linejoin="miter" fill="none" shape-rendering="geometricPrecision" /></g><g id="Bracket"><path d="M94.54 129.45 L90.6 129.45 L90.6 79.2 L94.54 79.2 " stroke="rgb(0, 0, 0)" stroke-width="0.6" fill-rule="evenodd" stroke-linejoin="miter" fill="none" shape-rendering="geometricPrecision" /></g><g id="Charge324"><line x1="184.35" y1="78.9" x2="184.35" y2="91.5" stroke="rgb(0, 0, 0)" stroke-width="0.48" shape-rendering="auto" /><line x1="181.05" y1="82.2" x2="187.65" y2="82.2" stroke="rgb(0, 0, 0)" stroke-width="0.48" shape-rendering="auto" /><line x1="181.05" y1="88.2" x2="187.65" y2="88.2" stroke="rgb(0, 0, 0)" stroke-width="0.48" shape-rendering="auto" /></g><g id="Solid"><path d="M38.51 42.26 L38.51 42.26 L38.51 42.61 L38.51 42.96 L25.89 35.67 L26.04 35.41 L26.19 35.15 Z" stroke="rgb(0, 0, 0)" stroke-width="0" fill-rule="evenodd" stroke-linejoin="miter" fill="rgb(0, 0, 0)" shape-rendering="geometricPrecision" /></g><g id="Solid"><path d="M38.51 56.66 L38.51 56.66 L38.51 57.01 L38.51 57.36 L26.19 64.47 L26.04 64.21 L25.89 63.95 Z" stroke="rgb(0, 0, 0)" stroke-width="0" fill-rule="evenodd" stroke-linejoin="miter" fill="rgb(0, 0, 0)" shape-rendering="geometricPrecision" /></g><g id="Solid"><path d="M122.26 93.77 L122.26 93.77 L122.27 94.08 L121.65 94.56 L108.44 98.09 L108.36 97.8 L108.28 97.51 Z" stroke="rgb(0, 0, 0)" stroke-width="0" fill-rule="evenodd" stroke-linejoin="miter" fill="rgb(0, 0, 0)" shape-rendering="geometricPrecision" /></g><g id="Solid"><path d="M111.79 111.62 L111.79 111.62 L111.9 112.03 L111.86 112.35 L99.28 105.09 L99.43 104.83 L99.58 104.57 Z" stroke="rgb(0, 0, 0)" stroke-width="0" fill-rule="evenodd" stroke-linejoin="miter" fill="rgb(0, 0, 0)" shape-rendering="geometricPrecision" /></g><path d="M211.76 41.86 A0.935062138479164,0.935062138479164 210.001523609703 0,0 211.45 40.53 A0.935062138479164,0.935062138479164 210.001523609703 0,0 210.14 40.92 A0.935062138479164,0.935062138479164 210.001523609703 0,1 208.83 41.32 A0.935062138479164,0.935062138479164 210.001523609703 0,1 208.52 39.99 A0.935062138479164,0.935062138479164 210.001523609703 0,0 208.21 38.66 A0.935062138479164,0.935062138479164 210.001523609703 0,0 206.9 39.05 A0.935062138479164,0.935062138479164 210.001523609703 0,1 205.59 39.45 A0.935062138479164,0.935062138479164 210.001523609703 0,1 205.28 38.12 A0.935062138479164,0.935062138479164 210.001523609703 0,0 204.97 36.79 A0.935062138479164,0.935062138479164 210.001523609703 0,0 203.66 37.18 A0.935062138479164,0.935062138479164 210.001523609703 0,1 202.35 37.58 A0.935062138479164,0.935062138479164 210.001523609703 0,1 202.04 36.25 A0.935062138479164,0.935062138479164 210.001523609703 0,0 201.73 34.92 A0.935062138479164,0.935062138479164 210.001523609703 0,0 200.42 35.31 A0.935062138479164,0.935062138479164 210.001523609703 0,1 199.11 35.71 " stroke="rgb(0, 0, 0)" stroke-width="0.6" fill-rule="evenodd" stroke-linejoin="bevel" fill="none" shape-rendering="geometricPrecision" /><path d="M211.76 56.26 A0.935062138479164,0.935062138479164 149.998476390297 0,0 210.45 55.86 A0.935062138479164,0.935062138479164 149.998476390297 0,0 210.14 57.2 A0.935062138479164,0.935062138479164 149.998476390297 0,1 209.83 58.53 A0.935062138479164,0.935062138479164 149.998476390297 0,1 208.52 58.13 A0.935062138479164,0.935062138479164 149.998476390297 0,0 207.21 57.73 A0.935062138479164,0.935062138479164 149.998476390297 0,0 206.9 59.07 A0.935062138479164,0.935062138479164 149.998476390297 0,1 206.59 60.4 A0.935062138479164,0.935062138479164 149.998476390297 0,1 205.28 60 A0.935062138479164,0.935062138479164 149.998476390297 0,0 203.97 59.6 A0.935062138479164,0.935062138479164 149.998476390297 0,0 203.66 60.94 A0.935062138479164,0.935062138479164 149.998476390297 0,1 203.35 62.27 A0.935062138479164,0.935062138479164 149.998476390297 0,1 202.04 61.87 A0.935062138479164,0.935062138479164 149.998476390297 0,0 200.73 61.47 A0.935062138479164,0.935062138479164 149.998476390297 0,0 200.42 62.81 A0.935062138479164,0.935062138479164 149.998476390297 0,1 200.11 64.14 " stroke="rgb(0, 0, 0)" stroke-width="0.6" fill-rule="evenodd" stroke-linejoin="bevel" fill="none" shape-rendering="geometricPrecision" /><g id="Arrow"><path d="M42.75 48.91 C45.3 47.62 47 44.85 47 42 " stroke="rgb(255, 0, 0)" stroke-width="0.6" fill-rule="evenodd" stroke-linejoin="bevel" fill="none" shape-rendering="geometricPrecision" /><path d="M39.25 49.75 L43.98 49.67 C42.85 49.28 42.6 48.36 43.38 47.46 Z" stroke="rgb(255, 0, 0)" stroke-width="0" fill-rule="evenodd" stroke-linejoin="miter" stroke-miterlimit="6.44106981540279" fill="rgb(255, 0, 0)" shape-rendering="geometricPrecision" /></g><g id="Arrow"><path d="M52.91 57.15 C50.35 56.37 47.4 57.1 45.5 59 " stroke="rgb(255, 0, 0)" stroke-width="0.6" fill-rule="evenodd" stroke-linejoin="bevel" fill="none" shape-rendering="geometricPrecision" /><path d="M56 59 L52.75 55.85 C53.24 56.9 52.8 57.66 51.65 57.75 Z" stroke="rgb(255, 0, 0)" stroke-width="0" fill-rule="evenodd" stroke-linejoin="miter" stroke-miterlimit="6.03439756185479" fill="rgb(255, 0, 0)" shape-rendering="geometricPrecision" /></g><g id="Arrow"><path d="M54.77 43.56 C55.19 47.48 58.18 50.97 62 51.99 " stroke="rgb(255, 0, 0)" stroke-width="0.6" fill-rule="evenodd" stroke-linejoin="bevel" fill="none" shape-rendering="geometricPrecision" /><path d="M55.05 39.97 L53.63 44.7 C54.35 43.7 55.4 43.75 56.03 44.82 Z" stroke="rgb(255, 0, 0)" stroke-width="0" fill-rule="evenodd" stroke-linejoin="miter" stroke-miterlimit="6.92434413605621" fill="rgb(255, 0, 0)" shape-rendering="geometricPrecision" /></g></g></g></svg>