<?xml version="1.0"?><svg xmlns="http://www.w3.org/2000/svg" xmlns:xlink="http://www.w3.org/1999/xlink" viewBox="40.29 172.45 43.5 49.06" preserveAspectRatio="xMidYMid" width="100%" height="100%"><clipPath id="4636"><rect x="0.3" y="0.3" width="522.72" height="769.32" /></clipPath><g id="drawing"><rect x="40.29" y="172.45" width="100%" height="100%" fill="rgb(255, 255, 255)" /><g id="page" clip-path="url(#4636)"><g id="Solid"><path d="M53.81 198.78 L53.81 198.78 L53.51 198.61 L53.52 198.26 L65.68 191.24 L65.98 191.41 L66.28 191.58 Z" stroke="rgb(0, 0, 0)" stroke-width="0" fill-rule="evenodd" stroke-linejoin="miter" fill="rgb(0, 0, 0)" shape-rendering="geometricPrecision" /></g><g><text xml:space="preserve" text-anchor="start" text-rendering="geometricPrecision"><tspan x="74.55" y="202.51" font-family="Arial" font-size="10" fill="rgb(0, 0, 0)">O</tspan></text></g><g id="Solid"><line x1="66.63" y1="190.29" x2="74.36" y2="194.75" stroke="rgb(0, 0, 0)" stroke-width="0.6" shape-rendering="auto" /><path d="M65.28 192.16 L65.28 192.16 L64.68 192.5 L72.92 197.26 L73.22 196.74 Z" stroke="rgb(0, 0, 0)" stroke-width="0" fill-rule="evenodd" stroke-linejoin="miter" fill="rgb(0, 0, 0)" shape-rendering="geometricPrecision" /><path d="M66.28 189.74 L66.28 189.74 L66.28 190.43 L74.21 195.01 L74.51 194.49 Z" stroke="rgb(0, 0, 0)" stroke-width="0" fill-rule="evenodd" stroke-linejoin="miter" fill="rgb(0, 0, 0)" shape-rendering="geometricPrecision" /></g><g><text xml:space="preserve" text-anchor="start" text-rendering="geometricPrecision"><tspan x="62.08" y="180.91" font-family="Arial" font-size="10" fill="rgb(0, 0, 0)">OMe</tspan></text></g><g id="Solid"><path d="M66.28 191.58 L66.28 191.58 L65.98 191.41 L65.68 191.24 L65.68 182.7 L65.98 182.7 L66.28 182.7 Z" stroke="rgb(0, 0, 0)" stroke-width="0" fill-rule="evenodd" stroke-linejoin="miter" fill="rgb(0, 0, 0)" shape-rendering="geometricPrecision" /></g><g id="Solid"><path d="M78.3 212.75 L78.3 212.75 L78.45 213.01 L78.6 213.27 L65.98 220.56 L65.98 220.21 L65.98 219.86 Z" stroke="rgb(0, 0, 0)" stroke-width="0" fill-rule="evenodd" stroke-linejoin="miter" fill="rgb(0, 0, 0)" shape-rendering="geometricPrecision" /><line x1="77.15" y1="210.77" x2="65.98" y2="217.22" stroke="rgb(0, 0, 0)" stroke-width="0.6" shape-rendering="auto" /></g><g id="Solid"><path d="M65.98 219.86 L65.98 219.86 L65.98 220.21 L65.98 220.56 L53.52 213.36 L53.51 213.01 L53.81 212.84 Z" stroke="rgb(0, 0, 0)" stroke-width="0" fill-rule="evenodd" stroke-linejoin="miter" fill="rgb(0, 0, 0)" shape-rendering="geometricPrecision" /></g><g id="Solid"><path d="M53.21 198.8 L53.21 198.8 L53.51 198.61 L53.81 198.78 L53.81 212.84 L53.51 213.01 L53.21 212.82 Z" stroke="rgb(0, 0, 0)" stroke-width="0" fill-rule="evenodd" stroke-linejoin="miter" fill="rgb(0, 0, 0)" shape-rendering="geometricPrecision" /></g><g id="WedgeBegin"><path d="M53.52 198.26 L53.52 198.26 L53.51 198.61 L53.21 198.8 L40.29 192.71 L41.04 191.41 L41.79 190.11 Z" stroke="rgb(0, 0, 0)" stroke-width="0" fill-rule="evenodd" stroke-linejoin="miter" fill="rgb(0, 0, 0)" shape-rendering="geometricPrecision" /></g><g id="WedgeBegin"><path d="M53.21 212.82 L53.21 212.82 L53.51 213.01 L53.52 213.36 L41.79 221.51 L41.04 220.21 L40.29 218.91 Z" stroke="rgb(0, 0, 0)" stroke-width="0" fill-rule="evenodd" stroke-linejoin="miter" fill="rgb(0, 0, 0)" shape-rendering="geometricPrecision" /></g></g></g></svg>