<?xml version="1.0"?><svg xmlns="http://www.w3.org/2000/svg" xmlns:xlink="http://www.w3.org/1999/xlink" viewBox="46.44 36.31 269.56 50.87" preserveAspectRatio="xMidYMid" width="100%" height="100%"><clipPath id="869"><rect x="0.3" y="0.3" width="539.4" height="719.15" /></clipPath><g id="drawing"><rect x="46.44" y="36.31" width="100%" height="100%" fill="rgb(255, 255, 255)" /><g id="page" clip-path="url(#869)"><g id="Solid"><path d="M46.44 54.41 L46.44 54.41 L46.74 54.55 L47.04 54.69 L47.04 68.81 L46.74 68.95 L46.44 69.09 Z" stroke="rgb(0, 0, 0)" stroke-width="0" fill-rule="evenodd" stroke-linejoin="miter" fill="rgb(0, 0, 0)" shape-rendering="geometricPrecision" /></g><g id="Solid"><path d="M46.44 69.09 L46.44 69.09 L46.74 68.95 L47.04 68.81 L58.06 77.61 L57.99 77.93 L57.92 78.25 Z" stroke="rgb(0, 0, 0)" stroke-width="0" fill-rule="evenodd" stroke-linejoin="miter" fill="rgb(0, 0, 0)" shape-rendering="geometricPrecision" /><line x1="49.33" y1="67.7" x2="58.63" y2="75.13" stroke="rgb(0, 0, 0)" stroke-width="0.6" shape-rendering="auto" /></g><g id="Solid"><path d="M57.92 78.25 L57.92 78.25 L57.99 77.93 L58.06 77.61 L71.82 74.46 L72.03 74.72 L72.24 74.98 Z" stroke="rgb(0, 0, 0)" stroke-width="0" fill-rule="evenodd" stroke-linejoin="miter" fill="rgb(0, 0, 0)" shape-rendering="geometricPrecision" /></g><g id="Solid"><path d="M72.24 74.98 L72.24 74.98 L72.03 74.72 L71.82 74.46 L77.95 61.75 L78.28 61.75 L78.61 61.75 Z" stroke="rgb(0, 0, 0)" stroke-width="0" fill-rule="evenodd" stroke-linejoin="miter" fill="rgb(0, 0, 0)" shape-rendering="geometricPrecision" /></g><g id="Solid"><path d="M78.61 61.75 L78.61 61.75 L78.28 61.75 L77.95 61.75 L71.82 49.03 L72.03 48.77 L72.24 48.51 Z" stroke="rgb(0, 0, 0)" stroke-width="0" fill-rule="evenodd" stroke-linejoin="miter" fill="rgb(0, 0, 0)" shape-rendering="geometricPrecision" /></g><g id="Solid"><path d="M72.24 48.51 L72.24 48.51 L72.03 48.77 L71.82 49.03 L58.06 45.89 L57.99 45.57 L57.92 45.25 Z" stroke="rgb(0, 0, 0)" stroke-width="0" fill-rule="evenodd" stroke-linejoin="miter" fill="rgb(0, 0, 0)" shape-rendering="geometricPrecision" /></g><g id="Solid"><path d="M57.92 45.25 L57.92 45.25 L57.99 45.57 L58.06 45.89 L47.04 54.69 L46.74 54.55 L46.44 54.41 Z" stroke="rgb(0, 0, 0)" stroke-width="0" fill-rule="evenodd" stroke-linejoin="miter" fill="rgb(0, 0, 0)" shape-rendering="geometricPrecision" /><line x1="58.63" y1="48.37" x2="49.33" y2="55.8" stroke="rgb(0, 0, 0)" stroke-width="0.6" shape-rendering="auto" /></g><g id="Solid"><path d="M119.36 53.85 L119.36 53.85 L119.66 53.73 L119.96 53.85 L119.96 68.01 L119.66 68.13 L119.36 68.01 Z" stroke="rgb(0, 0, 0)" stroke-width="0" fill-rule="evenodd" stroke-linejoin="miter" fill="rgb(0, 0, 0)" shape-rendering="geometricPrecision" /><line x1="122.25" y1="54.8" x2="122.25" y2="67.06" stroke="rgb(0, 0, 0)" stroke-width="0.6" shape-rendering="auto" /></g><g><text xml:space="preserve" text-anchor="start" text-rendering="geometricPrecision"><tspan x="126.24" y="47.45" font-family="Arial" font-size="10" fill="rgb(0, 0, 0)">NO</tspan><tspan font-family="Arial" dy="2.26" font-size="7.5" fill="rgb(0, 0, 0)">2</tspan></text></g><g id="Solid"><path d="M119.96 53.85 L119.96 53.85 L119.66 53.73 L119.66 53.31 L125.76 47.21 L125.97 47.42 L126.18 47.63 Z" stroke="rgb(0, 0, 0)" stroke-width="0" fill-rule="evenodd" stroke-linejoin="miter" fill="rgb(0, 0, 0)" shape-rendering="geometricPrecision" /></g><g><text xml:space="preserve" text-anchor="end" text-rendering="geometricPrecision"><tspan x="113.08" y="47.45" font-family="Arial" font-size="10" fill="rgb(0, 0, 0)">O</tspan><tspan font-family="Arial" dy="2.26" font-size="7.5" fill="rgb(0, 0, 0)">2</tspan><tspan font-family="Arial" dy="-2.26" font-size="10" fill="rgb(0, 0, 0)">N</tspan></text></g><g id="Solid"><path d="M119.66 53.31 L119.66 53.31 L119.66 53.73 L119.36 53.85 L113.22 47.71 L113.43 47.5 L113.64 47.29 Z" stroke="rgb(0, 0, 0)" stroke-width="0" fill-rule="evenodd" stroke-linejoin="miter" fill="rgb(0, 0, 0)" shape-rendering="geometricPrecision" /></g><g><text xml:space="preserve" text-anchor="end" text-rendering="geometricPrecision"><tspan x="113.08" y="82.21" font-family="Arial" font-size="10" fill="rgb(0, 0, 0)">NC</tspan></text></g><g id="Solid"><path d="M119.36 68.01 L119.36 68.01 L119.66 68.13 L119.66 68.55 L113.43 74.78 L113.22 74.57 L113.01 74.36 Z" stroke="rgb(0, 0, 0)" stroke-width="0" fill-rule="evenodd" stroke-linejoin="miter" fill="rgb(0, 0, 0)" shape-rendering="geometricPrecision" /></g><g><text xml:space="preserve" text-anchor="start" text-rendering="geometricPrecision"><tspan x="126.24" y="82.21" font-family="Arial" font-size="10" fill="rgb(0, 0, 0)">CF</tspan><tspan font-family="Arial" dy="2.26" font-size="7.5" fill="rgb(0, 0, 0)">3</tspan></text></g><g id="Solid"><path d="M119.66 68.55 L119.66 68.55 L119.66 68.13 L119.96 68.01 L126.58 74.63 L126.37 74.84 L126.16 75.05 Z" stroke="rgb(0, 0, 0)" stroke-width="0" fill-rule="evenodd" stroke-linejoin="miter" fill="rgb(0, 0, 0)" shape-rendering="geometricPrecision" /></g><g id="Arrow"><line x1="237.83" y1="61.94" x2="160.7" y2="61.94" stroke="rgb(0, 0, 0)" stroke-width="0.6" shape-rendering="auto" /><path d="M242.08 61.94 L236.08 60.44 C237.27 61.28 237.27 62.6 236.08 63.44 Z" stroke="rgb(0, 0, 0)" stroke-width="0" fill-rule="evenodd" stroke-linejoin="miter" stroke-miterlimit="6.93525005514877" fill="rgb(0, 0, 0)" shape-rendering="geometricPrecision" /></g><g id="Solid"><path d="M269.72 63.72 L269.72 63.72 L270.02 63.94 L270.03 64.25 L257.35 68.27 L258.07 67.73 L258.79 67.19 Z" stroke="rgb(0, 0, 0)" stroke-width="0" fill-rule="evenodd" stroke-linejoin="miter" fill="rgb(0, 0, 0)" shape-rendering="geometricPrecision" /></g><g id="Solid"><path d="M276.86 52.87 L276.86 52.87 L276.56 53.04 L276.26 52.84 L276.26 40.3 L276.56 40.06 L276.86 39.82 Z" stroke="rgb(0, 0, 0)" stroke-width="0" fill-rule="evenodd" stroke-linejoin="miter" fill="rgb(0, 0, 0)" shape-rendering="geometricPrecision" /></g><g id="Solid"><g id="Bond's parts"><path d="M276.15 52.9 L276.15 52.9 L276.35 52.9 L276.55 52.95 L276.5 53.35 L276.48 53.4 L276.25 53.5 L276.05 53.6 L275.85 53.7 L275.55 53.8 L275.35 53.9 L275.15 54 L274.95 54.1 L274.65 54.2 L274.45 54.3 L274.25 54.4 L273.95 54.5 L273.75 54.6 L273.55 54.7 L273.35 54.8 L273.05 54.9 L272.85 55 L272.65 55.1 L272.45 55.2 L272.15 55.25 L272.2 54.65 L272.23 54.6 L272.55 54.5 L272.75 54.4 L272.95 54.3 L273.15 54.2 L273.45 54.1 L273.65 54 L273.85 53.9 L274.05 53.8 L274.35 53.7 L274.55 53.6 L274.75 53.5 L275.05 53.4 L275.25 53.3 L275.45 53.2 L275.65 53.1 L275.95 53 Z" stroke="rgb(0, 0, 0)" stroke-width="0" fill-rule="evenodd" stroke-linejoin="miter" fill="rgb(0, 0, 0)" shape-rendering="geometricPrecision" /><path d="M268.27 56.4 L268.27 56.4 L268.3 56.35 L268.35 57.05 L268.15 57.1 L267.85 57.2 L267.65 57.3 L267.45 57.4 L267.25 57.5 L266.95 57.6 L266.75 57.7 L266.55 57.8 L266.25 57.9 L266.05 58 L265.85 58.1 L265.65 58.2 L265.35 58.3 L265.15 58.4 L264.95 58.5 L264.75 58.6 L264.42 58.7 L264.35 58.7 L264.25 58.6 L264.15 58.5 L264.05 58.4 L263.98 58.3 L264.15 58.2 L264.35 58.1 L264.55 58 L264.85 57.9 L265.05 57.8 L265.25 57.7 L265.45 57.6 L265.75 57.5 L265.95 57.4 L266.15 57.3 L266.35 57.2 L266.65 57.1 L266.85 57 L267.05 56.9 L267.25 56.8 L267.55 56.7 L267.75 56.6 L267.95 56.5 Z" stroke="rgb(0, 0, 0)" stroke-width="0" fill-rule="evenodd" stroke-linejoin="miter" fill="rgb(0, 0, 0)" shape-rendering="geometricPrecision" /></g></g><g id="Solid"><path d="M270.32 63.7 L270.32 63.7 L270.02 63.94 L269.72 63.72 L269.72 48.83 L270.02 48.73 L270.32 48.63 Z" stroke="rgb(0, 0, 0)" stroke-width="0" fill-rule="evenodd" stroke-linejoin="miter" fill="rgb(0, 0, 0)" shape-rendering="geometricPrecision" /></g><g id="Solid"><path d="M276.54 53.38 L276.54 53.38 L276.56 53.04 L276.86 52.87 L286.05 58.06 L286.18 58.48 L285.77 58.59 Z" stroke="rgb(0, 0, 0)" stroke-width="0" fill-rule="evenodd" stroke-linejoin="miter" fill="rgb(0, 0, 0)" shape-rendering="geometricPrecision" /></g><g id="Solid"><path d="M270.03 64.25 L270.03 64.25 L270.02 63.94 L270.32 63.7 L281.44 66.24 L281.59 66.58 L281.51 66.87 Z" stroke="rgb(0, 0, 0)" stroke-width="0" fill-rule="evenodd" stroke-linejoin="miter" fill="rgb(0, 0, 0)" shape-rendering="geometricPrecision" /></g><g id="Solid"><path d="M270.32 48.63 L270.32 48.63 L270.02 48.73 L269.72 48.83 L259.75 36.31 L260.5 36.77 L261.25 37.23 Z" stroke="rgb(0, 0, 0)" stroke-width="0" fill-rule="evenodd" stroke-linejoin="miter" fill="rgb(0, 0, 0)" shape-rendering="geometricPrecision" /></g><g id="Solid"><path d="M276.86 39.82 L276.86 39.82 L276.56 40.06 L276.26 40.3 L261.25 37.23 L260.5 36.77 L259.75 36.31 Z" stroke="rgb(0, 0, 0)" stroke-width="0" fill-rule="evenodd" stroke-linejoin="miter" fill="rgb(0, 0, 0)" shape-rendering="geometricPrecision" /></g><g id="Solid"><path d="M282.06 66.36 L282.06 66.36 L281.59 66.58 L281.44 66.24 L285.77 58.59 L286.18 58.48 L286.44 58.63 Z" stroke="rgb(0, 0, 0)" stroke-width="0" fill-rule="evenodd" stroke-linejoin="miter" fill="rgb(0, 0, 0)" shape-rendering="geometricPrecision" /></g><g id="Solid"><path d="M258.79 67.19 L258.79 67.19 L258.07 67.73 L257.35 68.27 L263.97 58.27 L264.17 58.51 L264.37 58.75 Z" stroke="rgb(0, 0, 0)" stroke-width="0" fill-rule="evenodd" stroke-linejoin="miter" fill="rgb(0, 0, 0)" shape-rendering="geometricPrecision" /><line x1="262.84" y1="64.13" x2="265.51" y2="60.09" stroke="rgb(0, 0, 0)" stroke-width="0.6" shape-rendering="auto" /></g><g id="Wedged Hash Begin Bond"><path d="M281.29 66.58 L281.29 66.58 L281.89 66.58 L281.97 67.18 L281.21 67.18 Z" stroke="rgb(0, 0, 0)" stroke-width="0" fill-rule="evenodd" stroke-linejoin="miter" fill="rgb(0, 0, 0)" shape-rendering="geometricPrecision" /><path d="M280.92 69.55 L280.92 69.55 L282.26 69.55 L282.34 70.15 L280.84 70.15 Z" stroke="rgb(0, 0, 0)" stroke-width="0" fill-rule="evenodd" stroke-linejoin="miter" fill="rgb(0, 0, 0)" shape-rendering="geometricPrecision" /><path d="M280.54 72.53 L280.54 72.53 L282.64 72.53 L282.72 73.13 L280.46 73.13 Z" stroke="rgb(0, 0, 0)" stroke-width="0" fill-rule="evenodd" stroke-linejoin="miter" fill="rgb(0, 0, 0)" shape-rendering="geometricPrecision" /><path d="M280.17 75.5 L280.17 75.5 L283.01 75.5 L283.09 76.1 L280.09 76.1 Z" stroke="rgb(0, 0, 0)" stroke-width="0" fill-rule="evenodd" stroke-linejoin="miter" fill="rgb(0, 0, 0)" shape-rendering="geometricPrecision" /></g><g><text xml:space="preserve" text-anchor="start" text-rendering="geometricPrecision"><tspan x="277.99" y="84.88" font-family="Arial" font-size="10" fill="rgb(0, 0, 0)">CF</tspan><tspan font-family="Arial" dy="2.26" font-size="7.5" fill="rgb(0, 0, 0)">3</tspan></text></g><g id="WedgeBegin"><path d="M281.51 66.87 L281.51 66.87 L281.59 66.58 L282.06 66.36 L291.34 67.64 L290.95 69.09 L290.57 70.54 Z" stroke="rgb(0, 0, 0)" stroke-width="0" fill-rule="evenodd" stroke-linejoin="miter" fill="rgb(0, 0, 0)" shape-rendering="geometricPrecision" /></g><g><text xml:space="preserve" text-anchor="start" text-rendering="geometricPrecision"><tspan x="291.9" y="74.21" font-family="Arial" font-size="10" fill="rgb(0, 0, 0)">CN</tspan></text></g><g id="WedgeBegin"><path d="M286.44 58.63 L286.44 58.63 L286.18 58.48 L286.05 58.06 L288.98 50.64 L290.28 51.39 L291.58 52.14 Z" stroke="rgb(0, 0, 0)" stroke-width="0" fill-rule="evenodd" stroke-linejoin="miter" fill="rgb(0, 0, 0)" shape-rendering="geometricPrecision" /></g><g><text xml:space="preserve" text-anchor="start" text-rendering="geometricPrecision"><tspan x="289.78" y="49.91" font-family="Arial" font-size="10" fill="rgb(0, 0, 0)">NO</tspan><tspan font-family="Arial" dy="2.26" font-size="7.5" fill="rgb(0, 0, 0)">2</tspan></text></g><g><text xml:space="preserve" text-anchor="start" text-rendering="geometricPrecision"><tspan x="296.49" y="66.11" font-family="Arial" font-size="10" fill="rgb(0, 0, 0)">NO</tspan><tspan font-family="Arial" dy="2.26" font-size="7.5" fill="rgb(0, 0, 0)">2</tspan></text></g><g id="Wedged Hash Begin Bond"><path d="M286.1 58.77 L286.1 58.77 L286.26 58.19 L286.86 58.28 L286.66 59 Z" stroke="rgb(0, 0, 0)" stroke-width="0" fill-rule="evenodd" stroke-linejoin="miter" fill="rgb(0, 0, 0)" shape-rendering="geometricPrecision" /><path d="M289 59.94 L289 59.94 L289.35 58.63 L289.95 58.72 L289.56 60.16 Z" stroke="rgb(0, 0, 0)" stroke-width="0" fill-rule="evenodd" stroke-linejoin="miter" fill="rgb(0, 0, 0)" shape-rendering="geometricPrecision" /><path d="M291.9 61.1 L291.9 61.1 L292.45 59.07 L293.05 59.16 L292.47 61.33 Z" stroke="rgb(0, 0, 0)" stroke-width="0" fill-rule="evenodd" stroke-linejoin="miter" fill="rgb(0, 0, 0)" shape-rendering="geometricPrecision" /><path d="M294.81 62.27 L294.81 62.27 L295.54 59.51 L296.14 59.6 L295.37 62.5 Z" stroke="rgb(0, 0, 0)" stroke-width="0" fill-rule="evenodd" stroke-linejoin="miter" fill="rgb(0, 0, 0)" shape-rendering="geometricPrecision" /></g><g id="Arrow"><path d="M54.83 59.68 C56.52 56.62 55.35 52.39 52.32 50.63 " stroke="rgb(255, 0, 0)" stroke-width="0.6" fill-rule="evenodd" stroke-linejoin="bevel" fill="none" shape-rendering="geometricPrecision" /><path d="M52.31 62.25 L56.4 59.47 C55.21 59.79 54.43 59.09 54.61 57.87 Z" stroke="rgb(255, 0, 0)" stroke-width="0" fill-rule="evenodd" stroke-linejoin="miter" stroke-miterlimit="6.93525005514877" fill="rgb(255, 0, 0)" shape-rendering="geometricPrecision" /></g><g id="Arrow"><path d="M84.74 69.06 C77.61 60.68 65.03 59.66 56.66 66.78 C54.92 68.26 53.45 70.03 52.31 72 " stroke="rgb(255, 0, 0)" stroke-width="0.6" fill-rule="evenodd" stroke-linejoin="bevel" fill="none" shape-rendering="geometricPrecision" /><path d="M86.81 72 L84.96 67.41 C85.02 68.65 84.17 69.27 83.01 68.83 Z" stroke="rgb(255, 0, 0)" stroke-width="0" fill-rule="evenodd" stroke-linejoin="miter" stroke-miterlimit="6.93525005514874" fill="rgb(255, 0, 0)" shape-rendering="geometricPrecision" /></g><g id="Arrow"><path d="M90.42 54.57 C95.09 64.36 106.83 68.52 116.63 63.84 C118.64 62.88 120.49 61.58 122.06 60 " stroke="rgb(255, 0, 0)" stroke-width="0.6" fill-rule="evenodd" stroke-linejoin="bevel" fill="none" shape-rendering="geometricPrecision" /><path d="M89.17 51.19 L89.78 56.1 C90.04 54.89 91.02 54.51 92.02 55.23 Z" stroke="rgb(255, 0, 0)" stroke-width="0" fill-rule="evenodd" stroke-linejoin="miter" stroke-miterlimit="6.93525005514869" fill="rgb(255, 0, 0)" shape-rendering="geometricPrecision" /></g><g><text xml:space="preserve" text-anchor="start" text-rendering="geometricPrecision"><tspan x="198.56" y="55.88" font-family="Symbol" font-size="10" fill="rgb(0, 0, 0)">D</tspan></text></g></g></g></svg>