<?xml version="1.0"?><svg xmlns="http://www.w3.org/2000/svg" xmlns:xlink="http://www.w3.org/1999/xlink" viewBox="69.22 248.25 51.31 59.27" preserveAspectRatio="xMidYMid" width="100%" height="100%"><clipPath id="4504"><rect x="0.3" y="0.3" width="522.72" height="769.32" /></clipPath><g id="drawing"><rect x="69.22" y="248.25" width="100%" height="100%" fill="rgb(255, 255, 255)" /><g id="page" clip-path="url(#4504)"><g id="Solid"><path d="M69.22 270.78 L69.22 270.78 L69.52 270.95 L69.82 271.12 L69.82 285.18 L69.52 285.35 L69.22 285.52 Z" stroke="rgb(0, 0, 0)" stroke-width="0" fill-rule="evenodd" stroke-linejoin="miter" fill="rgb(0, 0, 0)" shape-rendering="geometricPrecision" /><line x1="72.11" y1="272.45" x2="72.11" y2="283.85" stroke="rgb(0, 0, 0)" stroke-width="0.6" shape-rendering="auto" /></g><g id="Solid"><path d="M69.22 285.52 L69.22 285.52 L69.52 285.35 L69.82 285.18 L82 292.2 L82 292.55 L82 292.9 Z" stroke="rgb(0, 0, 0)" stroke-width="0" fill-rule="evenodd" stroke-linejoin="miter" fill="rgb(0, 0, 0)" shape-rendering="geometricPrecision" /></g><g id="Solid"><path d="M82 292.9 L82 292.9 L82 292.55 L82 292.2 L94.17 285.18 L94.47 285.35 L94.12 285.9 Z" stroke="rgb(0, 0, 0)" stroke-width="0" fill-rule="evenodd" stroke-linejoin="miter" fill="rgb(0, 0, 0)" shape-rendering="geometricPrecision" /></g><g id="Solid"><path d="M94.77 285.13 L94.77 285.13 L94.47 285.35 L94.17 285.18 L94.17 271.12 L94.47 270.95 L94.77 271.17 Z" stroke="rgb(0, 0, 0)" stroke-width="0" fill-rule="evenodd" stroke-linejoin="miter" fill="rgb(0, 0, 0)" shape-rendering="geometricPrecision" /></g><g id="Solid"><path d="M94.12 270.4 L94.12 270.4 L94.47 270.95 L94.17 271.12 L82 264.1 L82 263.75 L82 263.4 Z" stroke="rgb(0, 0, 0)" stroke-width="0" fill-rule="evenodd" stroke-linejoin="miter" fill="rgb(0, 0, 0)" shape-rendering="geometricPrecision" /></g><g id="Solid"><path d="M82 263.4 L82 263.4 L82 263.75 L82 264.1 L69.82 271.12 L69.52 270.95 L69.22 270.78 Z" stroke="rgb(0, 0, 0)" stroke-width="0" fill-rule="evenodd" stroke-linejoin="miter" fill="rgb(0, 0, 0)" shape-rendering="geometricPrecision" /></g><g><text xml:space="preserve" text-anchor="start" text-rendering="geometricPrecision"><tspan x="112.73" y="282.05" font-family="Arial" font-size="10" fill="rgb(0, 0, 0)">O</tspan></text></g><g id="Solid"><path d="M94.81 285.77 L94.81 285.77 L94.47 285.35 L94.77 285.13 L108.05 289.45 L108.16 289.8 L108.27 290.15 Z" stroke="rgb(0, 0, 0)" stroke-width="0" fill-rule="evenodd" stroke-linejoin="miter" fill="rgb(0, 0, 0)" shape-rendering="geometricPrecision" /></g><g id="Solid"><path d="M108.27 290.15 L108.27 290.15 L108.16 289.8 L108.05 289.45 L113.02 282.61 L113.26 282.79 L113.5 282.96 Z" stroke="rgb(0, 0, 0)" stroke-width="0" fill-rule="evenodd" stroke-linejoin="miter" fill="rgb(0, 0, 0)" shape-rendering="geometricPrecision" /></g><g id="Solid"><path d="M113.86 273.83 L113.86 273.83 L113.62 274.01 L113.37 274.18 L108.05 266.85 L108.16 266.5 L108.27 266.15 Z" stroke="rgb(0, 0, 0)" stroke-width="0" fill-rule="evenodd" stroke-linejoin="miter" fill="rgb(0, 0, 0)" shape-rendering="geometricPrecision" /></g><g id="Solid"><path d="M108.27 266.15 L108.27 266.15 L108.16 266.5 L108.05 266.85 L94.77 271.17 L94.47 270.95 L94.81 270.53 Z" stroke="rgb(0, 0, 0)" stroke-width="0" fill-rule="evenodd" stroke-linejoin="miter" fill="rgb(0, 0, 0)" shape-rendering="geometricPrecision" /></g><g><text xml:space="preserve" text-anchor="start" text-rendering="geometricPrecision"><tspan x="108.71" y="256.71" font-family="Arial" font-size="10" fill="rgb(0, 0, 0)">O</tspan></text></g><g id="Solid"><line x1="106.93" y1="266.1" x2="109.55" y2="258.02" stroke="rgb(0, 0, 0)" stroke-width="0.6" shape-rendering="auto" /><path d="M109 267.14 L109 267.14 L109.43 267.74 L112.3 258.91 L111.73 258.73 Z" stroke="rgb(0, 0, 0)" stroke-width="0" fill-rule="evenodd" stroke-linejoin="miter" fill="rgb(0, 0, 0)" shape-rendering="geometricPrecision" /><path d="M106.4 266.76 L106.4 266.76 L107.1 266.53 L109.84 258.11 L109.27 257.93 Z" stroke="rgb(0, 0, 0)" stroke-width="0" fill-rule="evenodd" stroke-linejoin="miter" fill="rgb(0, 0, 0)" shape-rendering="geometricPrecision" /></g><g><text xml:space="preserve" text-anchor="start" text-rendering="geometricPrecision"><tspan x="108.71" y="307.4" font-family="Arial" font-size="10" fill="rgb(0, 0, 0)">O</tspan></text></g><g id="Solid"><line x1="109.39" y1="289.4" x2="112.28" y2="298.28" stroke="rgb(0, 0, 0)" stroke-width="0.6" shape-rendering="auto" /><path d="M107.1 289.77 L107.1 289.77 L106.4 289.54 L109.53 299.17 L110.1 298.99 Z" stroke="rgb(0, 0, 0)" stroke-width="0" fill-rule="evenodd" stroke-linejoin="miter" fill="rgb(0, 0, 0)" shape-rendering="geometricPrecision" /><path d="M109.43 288.56 L109.43 288.56 L109 289.16 L111.99 298.37 L112.56 298.19 Z" stroke="rgb(0, 0, 0)" stroke-width="0" fill-rule="evenodd" stroke-linejoin="miter" fill="rgb(0, 0, 0)" shape-rendering="geometricPrecision" /></g><g><text xml:space="preserve" text-anchor="start" text-rendering="geometricPrecision"><tspan x="90.87" y="260.45" font-family="Arial" font-size="10" fill="rgb(0, 0, 0)">H</tspan></text></g><g id="WedgeBegin"><path d="M94.81 270.53 L94.81 270.53 L94.47 270.95 L94.12 270.4 L92.97 262.1 L94.47 262.1 L95.97 262.1 Z" stroke="rgb(0, 0, 0)" stroke-width="0" fill-rule="evenodd" stroke-linejoin="miter" fill="rgb(0, 0, 0)" shape-rendering="geometricPrecision" /></g><g><text xml:space="preserve" text-anchor="start" text-rendering="geometricPrecision"><tspan x="90.87" y="303.65" font-family="Arial" font-size="10" fill="rgb(0, 0, 0)">H</tspan></text></g><g id="WedgeBegin"><path d="M94.12 285.9 L94.12 285.9 L94.47 285.35 L94.81 285.77 L95.97 294.9 L94.47 294.9 L92.97 294.9 Z" stroke="rgb(0, 0, 0)" stroke-width="0" fill-rule="evenodd" stroke-linejoin="miter" fill="rgb(0, 0, 0)" shape-rendering="geometricPrecision" /></g></g></g></svg>