<?xml version="1.0"?><svg xmlns="http://www.w3.org/2000/svg" xmlns:xlink="http://www.w3.org/1999/xlink" viewBox="172.72 251.25 51.31 59.27" preserveAspectRatio="xMidYMid" width="100%" height="100%"><clipPath id="4532"><rect x="0.3" y="0.3" width="522.72" height="769.32" /></clipPath><g id="drawing"><rect x="172.72" y="251.25" width="100%" height="100%" fill="rgb(255, 255, 255)" /><g id="page" clip-path="url(#4532)"><g id="Solid"><path d="M172.72 273.78 L172.72 273.78 L173.02 273.95 L173.32 274.12 L173.32 288.18 L173.02 288.35 L172.72 288.52 Z" stroke="rgb(0, 0, 0)" stroke-width="0" fill-rule="evenodd" stroke-linejoin="miter" fill="rgb(0, 0, 0)" shape-rendering="geometricPrecision" /><line x1="175.61" y1="275.45" x2="175.61" y2="286.85" stroke="rgb(0, 0, 0)" stroke-width="0.6" shape-rendering="auto" /></g><g id="Solid"><path d="M172.72 288.52 L172.72 288.52 L173.02 288.35 L173.32 288.18 L185.5 295.2 L185.5 295.55 L185.5 295.9 Z" stroke="rgb(0, 0, 0)" stroke-width="0" fill-rule="evenodd" stroke-linejoin="miter" fill="rgb(0, 0, 0)" shape-rendering="geometricPrecision" /></g><g id="Solid"><path d="M185.5 295.9 L185.5 295.9 L185.5 295.55 L185.5 295.2 L197.67 288.18 L197.97 288.35 L197.62 288.9 Z" stroke="rgb(0, 0, 0)" stroke-width="0" fill-rule="evenodd" stroke-linejoin="miter" fill="rgb(0, 0, 0)" shape-rendering="geometricPrecision" /></g><g id="Solid"><path d="M198.27 288.13 L198.27 288.13 L197.97 288.35 L197.67 288.18 L197.67 274.12 L197.97 273.95 L198.27 274.17 Z" stroke="rgb(0, 0, 0)" stroke-width="0" fill-rule="evenodd" stroke-linejoin="miter" fill="rgb(0, 0, 0)" shape-rendering="geometricPrecision" /></g><g id="Solid"><path d="M198 273.62 L198 273.62 L197.97 273.95 L197.67 274.12 L185.5 267.1 L185.5 266.75 L185.5 266.4 Z" stroke="rgb(0, 0, 0)" stroke-width="0" fill-rule="evenodd" stroke-linejoin="miter" fill="rgb(0, 0, 0)" shape-rendering="geometricPrecision" /></g><g id="Solid"><path d="M185.5 266.4 L185.5 266.4 L185.5 266.75 L185.5 267.1 L173.32 274.12 L173.02 273.95 L172.72 273.78 Z" stroke="rgb(0, 0, 0)" stroke-width="0" fill-rule="evenodd" stroke-linejoin="miter" fill="rgb(0, 0, 0)" shape-rendering="geometricPrecision" /></g><g><text xml:space="preserve" text-anchor="start" text-rendering="geometricPrecision"><tspan x="216.23" y="285.05" font-family="Arial" font-size="10" fill="rgb(0, 0, 0)">O</tspan></text></g><g id="Solid"><path d="M198.31 288.77 L198.31 288.77 L197.97 288.35 L198.27 288.13 L211.55 292.45 L211.66 292.8 L211.77 293.15 Z" stroke="rgb(0, 0, 0)" stroke-width="0" fill-rule="evenodd" stroke-linejoin="miter" fill="rgb(0, 0, 0)" shape-rendering="geometricPrecision" /></g><g id="Solid"><path d="M211.77 293.15 L211.77 293.15 L211.66 292.8 L211.55 292.45 L216.52 285.61 L216.76 285.79 L217 285.96 Z" stroke="rgb(0, 0, 0)" stroke-width="0" fill-rule="evenodd" stroke-linejoin="miter" fill="rgb(0, 0, 0)" shape-rendering="geometricPrecision" /></g><g id="Solid"><path d="M217.36 276.83 L217.36 276.83 L217.12 277.01 L216.87 277.18 L211.55 269.85 L211.66 269.5 L211.77 269.15 Z" stroke="rgb(0, 0, 0)" stroke-width="0" fill-rule="evenodd" stroke-linejoin="miter" fill="rgb(0, 0, 0)" shape-rendering="geometricPrecision" /></g><g id="Solid"><path d="M211.77 269.15 L211.77 269.15 L211.66 269.5 L211.55 269.85 L198.27 274.17 L197.97 273.95 L198 273.62 Z" stroke="rgb(0, 0, 0)" stroke-width="0" fill-rule="evenodd" stroke-linejoin="miter" fill="rgb(0, 0, 0)" shape-rendering="geometricPrecision" /></g><g><text xml:space="preserve" text-anchor="start" text-rendering="geometricPrecision"><tspan x="212.21" y="259.71" font-family="Arial" font-size="10" fill="rgb(0, 0, 0)">O</tspan></text></g><g id="Solid"><line x1="210.43" y1="269.1" x2="213.05" y2="261.02" stroke="rgb(0, 0, 0)" stroke-width="0.6" shape-rendering="auto" /><path d="M212.5 270.14 L212.5 270.14 L212.93 270.74 L215.8 261.91 L215.23 261.73 Z" stroke="rgb(0, 0, 0)" stroke-width="0" fill-rule="evenodd" stroke-linejoin="miter" fill="rgb(0, 0, 0)" shape-rendering="geometricPrecision" /><path d="M209.9 269.76 L209.9 269.76 L210.6 269.53 L213.34 261.11 L212.77 260.93 Z" stroke="rgb(0, 0, 0)" stroke-width="0" fill-rule="evenodd" stroke-linejoin="miter" fill="rgb(0, 0, 0)" shape-rendering="geometricPrecision" /></g><g><text xml:space="preserve" text-anchor="start" text-rendering="geometricPrecision"><tspan x="212.21" y="310.4" font-family="Arial" font-size="10" fill="rgb(0, 0, 0)">O</tspan></text></g><g id="Solid"><line x1="212.89" y1="292.4" x2="215.78" y2="301.28" stroke="rgb(0, 0, 0)" stroke-width="0.6" shape-rendering="auto" /><path d="M210.6 292.77 L210.6 292.77 L209.9 292.54 L213.03 302.17 L213.6 301.99 Z" stroke="rgb(0, 0, 0)" stroke-width="0" fill-rule="evenodd" stroke-linejoin="miter" fill="rgb(0, 0, 0)" shape-rendering="geometricPrecision" /><path d="M212.93 291.56 L212.93 291.56 L212.5 292.16 L215.49 301.37 L216.06 301.19 Z" stroke="rgb(0, 0, 0)" stroke-width="0" fill-rule="evenodd" stroke-linejoin="miter" fill="rgb(0, 0, 0)" shape-rendering="geometricPrecision" /></g><g><text xml:space="preserve" text-anchor="start" text-rendering="geometricPrecision"><tspan x="194.37" y="263.45" font-family="Arial" font-size="10" fill="rgb(0, 0, 0)">H</tspan></text></g><g id="Wedged Hash Begin Bond"><path d="M198.27 273.95 L198.27 273.95 L197.67 273.95 L197.59 273.35 L198.35 273.35 Z" stroke="rgb(0, 0, 0)" stroke-width="0" fill-rule="evenodd" stroke-linejoin="miter" fill="rgb(0, 0, 0)" shape-rendering="geometricPrecision" /><path d="M198.64 271.2 L198.64 271.2 L197.3 271.2 L197.22 270.6 L198.72 270.6 Z" stroke="rgb(0, 0, 0)" stroke-width="0" fill-rule="evenodd" stroke-linejoin="miter" fill="rgb(0, 0, 0)" shape-rendering="geometricPrecision" /><path d="M199.02 268.45 L199.02 268.45 L196.92 268.45 L196.84 267.85 L199.1 267.85 Z" stroke="rgb(0, 0, 0)" stroke-width="0" fill-rule="evenodd" stroke-linejoin="miter" fill="rgb(0, 0, 0)" shape-rendering="geometricPrecision" /><path d="M199.39 265.7 L199.39 265.7 L196.55 265.7 L196.47 265.1 L199.47 265.1 Z" stroke="rgb(0, 0, 0)" stroke-width="0" fill-rule="evenodd" stroke-linejoin="miter" fill="rgb(0, 0, 0)" shape-rendering="geometricPrecision" /></g><g><text xml:space="preserve" text-anchor="start" text-rendering="geometricPrecision"><tspan x="194.37" y="306.65" font-family="Arial" font-size="10" fill="rgb(0, 0, 0)">H</tspan></text></g><g id="WedgeBegin"><path d="M197.62 288.9 L197.62 288.9 L197.97 288.35 L198.31 288.77 L199.47 297.9 L197.97 297.9 L196.47 297.9 Z" stroke="rgb(0, 0, 0)" stroke-width="0" fill-rule="evenodd" stroke-linejoin="miter" fill="rgb(0, 0, 0)" shape-rendering="geometricPrecision" /></g></g></g></svg>