<?xml version="1.0"?><svg xmlns="http://www.w3.org/2000/svg" xmlns:xlink="http://www.w3.org/1999/xlink" viewBox="78.34 141.23 345.99 56.77" preserveAspectRatio="xMidYMid" width="100%" height="100%"><clipPath id="1089"><rect x="0.3" y="0.3" width="522.72" height="769.32" /></clipPath><g id="drawing"><rect x="78.34" y="141.23" width="100%" height="100%" fill="rgb(255, 255, 255)" /><g id="page" clip-path="url(#1089)"><g><text xml:space="preserve" text-anchor="start" text-rendering="geometricPrecision"><tspan x="78.34" y="172.03" font-family="Arial" font-size="10" fill="rgb(0, 0, 0)">O</tspan></text></g><g id="Solid"><path d="M81.94 173.8 L81.94 173.8 L82.24 173.8 L82.54 173.8 L82.54 182.36 L82.24 182.53 L81.94 182.7 Z" stroke="rgb(0, 0, 0)" stroke-width="0" fill-rule="evenodd" stroke-linejoin="miter" fill="rgb(0, 0, 0)" shape-rendering="geometricPrecision" /></g><g id="Solid"><path d="M81.94 182.7 L81.94 182.7 L82.24 182.53 L82.54 182.36 L94.71 189.38 L94.71 189.73 L94.71 190.08 Z" stroke="rgb(0, 0, 0)" stroke-width="0" fill-rule="evenodd" stroke-linejoin="miter" fill="rgb(0, 0, 0)" shape-rendering="geometricPrecision" /></g><g id="Solid"><path d="M94.71 190.08 L94.71 190.08 L94.71 189.73 L94.71 189.38 L107.19 182.18 L107.19 182.53 L107.19 182.88 Z" stroke="rgb(0, 0, 0)" stroke-width="0" fill-rule="evenodd" stroke-linejoin="miter" fill="rgb(0, 0, 0)" shape-rendering="geometricPrecision" /><line x1="94.71" y1="186.74" x2="105.89" y2="180.28" stroke="rgb(0, 0, 0)" stroke-width="0.6" shape-rendering="auto" /></g><g id="Solid"><path d="M107.19 167.78 L107.19 167.78 L107.19 168.13 L107.19 168.48 L94.71 161.28 L94.71 160.93 L94.71 160.58 Z" stroke="rgb(0, 0, 0)" stroke-width="0" fill-rule="evenodd" stroke-linejoin="miter" fill="rgb(0, 0, 0)" shape-rendering="geometricPrecision" /></g><g id="Solid"><path d="M94.71 160.58 L94.71 160.58 L94.71 160.93 L94.71 161.28 L86.94 165.77 L86.79 165.51 L86.64 165.25 Z" stroke="rgb(0, 0, 0)" stroke-width="0" fill-rule="evenodd" stroke-linejoin="miter" fill="rgb(0, 0, 0)" shape-rendering="geometricPrecision" /></g><g id="Solid"><path d="M107.19 182.88 L107.19 182.88 L107.19 182.53 L107.19 182.18 L119.81 189.47 L119.66 189.73 L119.51 189.99 Z" stroke="rgb(0, 0, 0)" stroke-width="0" fill-rule="evenodd" stroke-linejoin="miter" fill="rgb(0, 0, 0)" shape-rendering="geometricPrecision" /></g><g id="Solid"><path d="M107.19 168.48 L107.19 168.48 L107.19 168.13 L107.19 167.78 L119.51 160.67 L119.66 160.93 L119.81 161.19 Z" stroke="rgb(0, 0, 0)" stroke-width="0" fill-rule="evenodd" stroke-linejoin="miter" fill="rgb(0, 0, 0)" shape-rendering="geometricPrecision" /></g><g><text xml:space="preserve" text-anchor="start" text-rendering="geometricPrecision"><tspan x="90.81" y="150.43" font-family="Arial" font-size="10" fill="rgb(0, 0, 0)">O</tspan></text></g><g id="Solid"><line x1="93.41" y1="160.93" x2="93.41" y2="152.2" stroke="rgb(0, 0, 0)" stroke-width="0.6" shape-rendering="auto" /><path d="M95.71 161.16 L95.71 161.16 L96.31 161.5 L96.31 152.2 L95.71 152.2 Z" stroke="rgb(0, 0, 0)" stroke-width="0" fill-rule="evenodd" stroke-linejoin="miter" fill="rgb(0, 0, 0)" shape-rendering="geometricPrecision" /><path d="M93.11 161.51 L93.11 161.51 L93.71 161.16 L93.71 152.2 L93.11 152.2 Z" stroke="rgb(0, 0, 0)" stroke-width="0" fill-rule="evenodd" stroke-linejoin="miter" fill="rgb(0, 0, 0)" shape-rendering="geometricPrecision" /></g><g><text xml:space="preserve" text-anchor="start" text-rendering="geometricPrecision"><tspan x="144.21" y="152.83" font-family="Arial" font-size="10" fill="rgb(0, 0, 0)">1. LDA, -78 </tspan><tspan font-family="Arial" dy="-4.07" font-size="7.5" fill="rgb(0, 0, 0)">o</tspan><tspan font-family="Arial" dy="4.07" font-size="10" fill="rgb(0, 0, 0)">C</tspan><tspan x="144.21" y="182.77" font-family="Arial" font-size="10" fill="rgb(0, 0, 0)">    TH</tspan><tspan x="144.21" y="197.74" font-family="Arial" font-size="10" fill="rgb(0, 0, 0)">F</tspan></text></g><g><text xml:space="preserve" text-anchor="start" text-rendering="geometricPrecision"><tspan x="144.21" y="188.08" font-family="Arial" font-size="10" fill="rgb(0, 0, 0)">2. TMSCl</tspan></text></g><g id="Arrow"><line x1="212.95" y1="171.58" x2="141.21" y2="171.58" stroke="rgb(0, 0, 0)" stroke-width="0.6" shape-rendering="auto" /><path d="M217.2 171.58 L211.2 170.08 C212.39 170.92 212.39 172.24 211.2 173.08 Z" stroke="rgb(0, 0, 0)" stroke-width="0" fill-rule="evenodd" stroke-linejoin="miter" stroke-miterlimit="6.93525005514877" fill="rgb(0, 0, 0)" shape-rendering="geometricPrecision" /></g><g><text xml:space="preserve" text-anchor="start" text-rendering="geometricPrecision"><tspan x="248.59" y="172.78" font-family="Arial" font-size="10" fill="rgb(0, 0, 0)">O</tspan></text></g><g id="Solid"><path d="M252.19 174.6 L252.19 174.6 L252.49 174.6 L252.79 174.6 L252.79 183.11 L252.49 183.28 L252.19 183.45 Z" stroke="rgb(0, 0, 0)" stroke-width="0" fill-rule="evenodd" stroke-linejoin="miter" fill="rgb(0, 0, 0)" shape-rendering="geometricPrecision" /></g><g id="Solid"><path d="M252.19 183.45 L252.19 183.45 L252.49 183.28 L252.79 183.11 L264.96 190.13 L264.96 190.48 L264.96 190.83 Z" stroke="rgb(0, 0, 0)" stroke-width="0" fill-rule="evenodd" stroke-linejoin="miter" fill="rgb(0, 0, 0)" shape-rendering="geometricPrecision" /></g><g id="Solid"><path d="M264.96 190.83 L264.96 190.83 L264.96 190.48 L264.96 190.13 L277.44 182.93 L277.44 183.28 L277.44 183.63 Z" stroke="rgb(0, 0, 0)" stroke-width="0" fill-rule="evenodd" stroke-linejoin="miter" fill="rgb(0, 0, 0)" shape-rendering="geometricPrecision" /><line x1="264.96" y1="187.49" x2="276.14" y2="181.03" stroke="rgb(0, 0, 0)" stroke-width="0.6" shape-rendering="auto" /></g><g id="Solid"><path d="M277.66 168.66 L277.66 168.66 L277.44 168.88 L277.22 169.1 L264.96 162.03 L264.96 161.68 L265.26 161.51 Z" stroke="rgb(0, 0, 0)" stroke-width="0" fill-rule="evenodd" stroke-linejoin="miter" fill="rgb(0, 0, 0)" shape-rendering="geometricPrecision" /><line x1="275.54" y1="170.78" x2="264.96" y2="164.67" stroke="rgb(0, 0, 0)" stroke-width="0.6" shape-rendering="auto" /></g><g id="Solid"><path d="M264.66 161.51 L264.66 161.51 L264.96 161.68 L264.96 162.03 L257.14 166.54 L256.99 166.28 L256.84 166.02 Z" stroke="rgb(0, 0, 0)" stroke-width="0" fill-rule="evenodd" stroke-linejoin="miter" fill="rgb(0, 0, 0)" shape-rendering="geometricPrecision" /></g><g id="Solid"><path d="M277.44 183.63 L277.44 183.63 L277.44 183.28 L277.44 182.93 L290.06 190.22 L289.91 190.48 L289.76 190.74 Z" stroke="rgb(0, 0, 0)" stroke-width="0" fill-rule="evenodd" stroke-linejoin="miter" fill="rgb(0, 0, 0)" shape-rendering="geometricPrecision" /></g><g id="Solid"><path d="M265.26 161.51 L265.26 161.51 L264.96 161.68 L264.66 161.51 L264.66 153 L264.96 153 L265.26 153 Z" stroke="rgb(0, 0, 0)" stroke-width="0" fill-rule="evenodd" stroke-linejoin="miter" fill="rgb(0, 0, 0)" shape-rendering="geometricPrecision" /></g><g><text xml:space="preserve" text-anchor="start" text-rendering="geometricPrecision"><tspan x="261.06" y="151.18" font-family="Arial" font-size="10" fill="rgb(0, 0, 0)">OTMS</tspan></text></g><g id="Arrow"><line x1="350.71" y1="171.58" x2="309.21" y2="171.58" stroke="rgb(0, 0, 0)" stroke-width="0.6" shape-rendering="auto" /><path d="M354.96 171.58 L348.96 170.08 C350.15 170.92 350.15 172.24 348.96 173.08 Z" stroke="rgb(0, 0, 0)" stroke-width="0" fill-rule="evenodd" stroke-linejoin="miter" stroke-miterlimit="6.93525005514877" fill="rgb(0, 0, 0)" shape-rendering="geometricPrecision" /></g><g><text xml:space="preserve" text-anchor="start" text-rendering="geometricPrecision"><tspan x="382.09" y="172.78" font-family="Arial" font-size="10" fill="rgb(0, 0, 0)">O</tspan></text></g><g id="Solid"><path d="M385.84 183.54 L385.84 183.54 L385.99 183.28 L386.14 183.02 L398.46 190.13 L398.46 190.48 L398.46 190.83 Z" stroke="rgb(0, 0, 0)" stroke-width="0" fill-rule="evenodd" stroke-linejoin="miter" fill="rgb(0, 0, 0)" shape-rendering="geometricPrecision" /><line x1="387.29" y1="181.04" x2="398.46" y2="187.49" stroke="rgb(0, 0, 0)" stroke-width="0.6" shape-rendering="auto" /></g><g id="Solid"><path d="M398.46 190.83 L398.46 190.83 L398.46 190.48 L398.46 190.13 L410.64 183.11 L410.94 183.28 L411.24 183.45 Z" stroke="rgb(0, 0, 0)" stroke-width="0" fill-rule="evenodd" stroke-linejoin="miter" fill="rgb(0, 0, 0)" shape-rendering="geometricPrecision" /></g><g id="Solid"><path d="M411.24 183.45 L411.24 183.45 L410.94 183.28 L410.64 183.11 L410.64 169.05 L410.94 168.88 L411.24 168.71 Z" stroke="rgb(0, 0, 0)" stroke-width="0" fill-rule="evenodd" stroke-linejoin="miter" fill="rgb(0, 0, 0)" shape-rendering="geometricPrecision" /></g><g id="Solid"><path d="M411.24 168.71 L411.24 168.71 L410.94 168.88 L410.64 169.05 L398.16 161.85 L398.46 161.68 L398.76 161.51 Z" stroke="rgb(0, 0, 0)" stroke-width="0" fill-rule="evenodd" stroke-linejoin="miter" fill="rgb(0, 0, 0)" shape-rendering="geometricPrecision" /></g><g id="Solid"><line x1="399.11" y1="162.8" x2="391.53" y2="167.18" stroke="rgb(0, 0, 0)" stroke-width="0.6" shape-rendering="auto" /><path d="M398.16 160.7 L398.16 160.7 L398.16 160.01 L390.09 164.67 L390.39 165.19 Z" stroke="rgb(0, 0, 0)" stroke-width="0" fill-rule="evenodd" stroke-linejoin="miter" fill="rgb(0, 0, 0)" shape-rendering="geometricPrecision" /><path d="M399.76 162.77 L399.76 162.77 L399.16 162.43 L391.38 166.92 L391.68 167.44 Z" stroke="rgb(0, 0, 0)" stroke-width="0" fill-rule="evenodd" stroke-linejoin="miter" fill="rgb(0, 0, 0)" shape-rendering="geometricPrecision" /></g><g id="Solid"><path d="M398.76 161.51 L398.76 161.51 L398.46 161.68 L398.16 161.85 L398.16 153 L398.46 153 L398.76 153 Z" stroke="rgb(0, 0, 0)" stroke-width="0" fill-rule="evenodd" stroke-linejoin="miter" fill="rgb(0, 0, 0)" shape-rendering="geometricPrecision" /></g><g><text xml:space="preserve" text-anchor="start" text-rendering="geometricPrecision"><tspan x="394.56" y="151.18" font-family="Arial" font-size="10" fill="rgb(0, 0, 0)">OH</tspan></text></g><path d="M410.94 183.28 A0.935062138479159,0.935062138479159 30.0015236097033 0,0 411.25 184.61 A0.935062138479159,0.935062138479159 30.0015236097033 0,0 412.56 184.22 A0.935062138479159,0.935062138479159 30.0015236097033 0,1 413.87 183.82 A0.935062138479159,0.935062138479159 30.0015236097033 0,1 414.18 185.15 A0.935062138479159,0.935062138479159 30.0015236097033 0,0 414.49 186.48 A0.935062138479159,0.935062138479159 30.0015236097033 0,0 415.8 186.09 A0.935062138479159,0.935062138479159 30.0015236097033 0,1 417.11 185.69 A0.935062138479159,0.935062138479159 30.0015236097033 0,1 417.42 187.02 A0.935062138479159,0.935062138479159 30.0015236097033 0,0 417.73 188.35 A0.935062138479159,0.935062138479159 30.0015236097033 0,0 419.04 187.96 A0.935062138479159,0.935062138479159 30.0015236097033 0,1 420.35 187.56 A0.935062138479159,0.935062138479159 30.0015236097033 0,1 420.66 188.89 A0.935062138479159,0.935062138479159 30.0015236097033 0,0 420.97 190.22 A0.935062138479159,0.935062138479159 30.0015236097033 0,0 422.28 189.83 A0.935062138479159,0.935062138479159 30.0015236097033 0,1 423.59 189.43 " stroke="rgb(0, 0, 0)" stroke-width="0.6" fill-rule="evenodd" stroke-linejoin="bevel" fill="none" shape-rendering="geometricPrecision" /><path d="M410.94 168.88 A0.935062138479159,0.935062138479159 -30.0015236097033 0,0 412.25 169.28 A0.935062138479159,0.935062138479159 -30.0015236097033 0,0 412.56 167.94 A0.935062138479159,0.935062138479159 -30.0015236097033 0,1 412.87 166.61 A0.935062138479159,0.935062138479159 -30.0015236097033 0,1 414.18 167.01 A0.935062138479159,0.935062138479159 -30.0015236097033 0,0 415.49 167.41 A0.935062138479159,0.935062138479159 -30.0015236097033 0,0 415.8 166.07 A0.935062138479159,0.935062138479159 -30.0015236097033 0,1 416.11 164.74 A0.935062138479159,0.935062138479159 -30.0015236097033 0,1 417.42 165.14 A0.935062138479159,0.935062138479159 -30.0015236097033 0,0 418.73 165.54 A0.935062138479159,0.935062138479159 -30.0015236097033 0,0 419.04 164.2 A0.935062138479159,0.935062138479159 -30.0015236097033 0,1 419.35 162.87 A0.935062138479159,0.935062138479159 -30.0015236097033 0,1 420.66 163.27 A0.935062138479159,0.935062138479159 -30.0015236097033 0,0 421.97 163.67 A0.935062138479159,0.935062138479159 -30.0015236097033 0,0 422.28 162.33 A0.935062138479159,0.935062138479159 -30.0015236097033 0,1 422.59 161 " stroke="rgb(0, 0, 0)" stroke-width="0.6" fill-rule="evenodd" stroke-linejoin="bevel" fill="none" shape-rendering="geometricPrecision" /><g id="Solid"><path d="M277.22 169.1 L277.22 169.1 L277.44 168.88 L277.66 168.66 L284.9 181.2 L284.64 181.35 L284.38 181.5 Z" stroke="rgb(0, 0, 0)" stroke-width="0" fill-rule="evenodd" stroke-linejoin="miter" fill="rgb(0, 0, 0)" shape-rendering="geometricPrecision" /></g><g id="Arrow"><path d="M262.2 169.88 C264.89 170.74 268.01 169.99 270 167.99 " stroke="rgb(255, 0, 0)" stroke-width="0.6" fill-rule="evenodd" stroke-linejoin="bevel" fill="none" shape-rendering="geometricPrecision" /><path d="M259.13 168 L262.5 171.25 C261.98 170.19 262.45 169.37 263.64 169.28 Z" stroke="rgb(255, 0, 0)" stroke-width="0" fill-rule="evenodd" stroke-linejoin="miter" stroke-miterlimit="6.35889803566174" fill="rgb(255, 0, 0)" shape-rendering="geometricPrecision" /></g><g id="Arrow"><path d="M260.33 181.05 C259.18 179.06 256.93 177.76 254.63 177.76 " stroke="rgb(255, 0, 0)" stroke-width="0.6" fill-rule="evenodd" stroke-linejoin="bevel" fill="none" shape-rendering="geometricPrecision" /><path d="M261.21 184.34 L261.14 180.33 C260.75 181.3 260.09 181.48 259.26 180.83 Z" stroke="rgb(255, 0, 0)" stroke-width="0" fill-rule="evenodd" stroke-linejoin="miter" stroke-miterlimit="5.11016428388322" fill="rgb(255, 0, 0)" shape-rendering="geometricPrecision" /></g><g id="Arrow"><path d="M273.48 176.1 C270.94 177.39 269.24 180.15 269.24 183 " stroke="rgb(255, 0, 0)" stroke-width="0.6" fill-rule="evenodd" stroke-linejoin="bevel" fill="none" shape-rendering="geometricPrecision" /><path d="M276.99 175.26 L272.27 175.34 C273.39 175.73 273.64 176.65 272.86 177.55 Z" stroke="rgb(255, 0, 0)" stroke-width="0" fill-rule="evenodd" stroke-linejoin="miter" stroke-miterlimit="6.4402002695429" fill="rgb(255, 0, 0)" shape-rendering="geometricPrecision" /></g></g></g></svg>