<?xml version="1.0"?><svg xmlns="http://www.w3.org/2000/svg" xmlns:xlink="http://www.w3.org/1999/xlink" viewBox="41.51 169.07 42.06 49.06" preserveAspectRatio="xMidYMid" width="100%" height="100%"><clipPath id="9841"><rect x="0.3" y="0.3" width="522.72" height="769.32" /></clipPath><g id="drawing"><rect x="41.51" y="169.07" width="100%" height="100%" fill="rgb(255, 255, 255)" /><g id="page" clip-path="url(#9841)"><g><text xml:space="preserve" text-anchor="start" text-rendering="geometricPrecision"><tspan x="41.51" y="199.13" font-family="Arial" font-size="10" fill="rgb(0, 0, 0)">O</tspan></text></g><g id="Solid"><path d="M45.26 209.89 L45.26 209.89 L45.41 209.63 L45.56 209.37 L57.88 216.48 L57.88 216.83 L57.88 217.18 Z" stroke="rgb(0, 0, 0)" stroke-width="0" fill-rule="evenodd" stroke-linejoin="miter" fill="rgb(0, 0, 0)" shape-rendering="geometricPrecision" /><line x1="46.71" y1="207.39" x2="57.88" y2="213.84" stroke="rgb(0, 0, 0)" stroke-width="0.6" shape-rendering="auto" /></g><g id="Solid"><path d="M57.88 217.18 L57.88 217.18 L57.88 216.83 L57.88 216.48 L70.05 209.46 L70.35 209.63 L70.34 209.98 Z" stroke="rgb(0, 0, 0)" stroke-width="0" fill-rule="evenodd" stroke-linejoin="miter" fill="rgb(0, 0, 0)" shape-rendering="geometricPrecision" /></g><g id="Solid"><path d="M70.65 209.44 L70.65 209.44 L70.35 209.63 L70.05 209.46 L70.05 195.4 L70.35 195.23 L70.65 195.42 Z" stroke="rgb(0, 0, 0)" stroke-width="0" fill-rule="evenodd" stroke-linejoin="miter" fill="rgb(0, 0, 0)" shape-rendering="geometricPrecision" /></g><g id="Solid"><path d="M70.34 194.88 L70.34 194.88 L70.35 195.23 L70.05 195.4 L57.58 188.2 L57.88 188.03 L58.18 187.86 Z" stroke="rgb(0, 0, 0)" stroke-width="0" fill-rule="evenodd" stroke-linejoin="miter" fill="rgb(0, 0, 0)" shape-rendering="geometricPrecision" /></g><g id="Solid"><line x1="58.53" y1="189.15" x2="50.93" y2="193.54" stroke="rgb(0, 0, 0)" stroke-width="0.6" shape-rendering="auto" /><path d="M57.58 187.05 L57.58 187.05 L57.58 186.36 L49.49 191.03 L49.79 191.55 Z" stroke="rgb(0, 0, 0)" stroke-width="0" fill-rule="evenodd" stroke-linejoin="miter" fill="rgb(0, 0, 0)" shape-rendering="geometricPrecision" /><path d="M59.18 189.12 L59.18 189.12 L58.58 188.78 L50.78 193.28 L51.08 193.8 Z" stroke="rgb(0, 0, 0)" stroke-width="0" fill-rule="evenodd" stroke-linejoin="miter" fill="rgb(0, 0, 0)" shape-rendering="geometricPrecision" /></g><g><text xml:space="preserve" text-anchor="start" text-rendering="geometricPrecision"><tspan x="53.98" y="177.53" font-family="Arial" font-size="10" fill="rgb(0, 0, 0)">OH</tspan></text></g><g id="Solid"><path d="M58.18 187.86 L58.18 187.86 L57.88 188.03 L57.58 188.2 L57.58 179.3 L57.88 179.3 L58.18 179.3 Z" stroke="rgb(0, 0, 0)" stroke-width="0" fill-rule="evenodd" stroke-linejoin="miter" fill="rgb(0, 0, 0)" shape-rendering="geometricPrecision" /></g><g id="WedgeBegin"><path d="M70.34 209.98 L70.34 209.98 L70.35 209.63 L70.65 209.44 L83.57 215.53 L82.82 216.83 L82.07 218.13 Z" stroke="rgb(0, 0, 0)" stroke-width="0" fill-rule="evenodd" stroke-linejoin="miter" fill="rgb(0, 0, 0)" shape-rendering="geometricPrecision" /></g><g id="WedgeBegin"><path d="M70.65 195.42 L70.65 195.42 L70.35 195.23 L70.34 194.88 L82.07 186.73 L82.82 188.03 L83.57 189.33 Z" stroke="rgb(0, 0, 0)" stroke-width="0" fill-rule="evenodd" stroke-linejoin="miter" fill="rgb(0, 0, 0)" shape-rendering="geometricPrecision" /></g></g></g></svg>