<?xml version="1.0"?><svg xmlns="http://www.w3.org/2000/svg" xmlns:xlink="http://www.w3.org/1999/xlink" viewBox="14 18.03 233.63 50.95" preserveAspectRatio="xMidYMid" width="100%" height="100%"><clipPath id="1167"><rect x="0.3" y="0.3" width="539.4" height="719.15" /></clipPath><g id="drawing"><rect x="14" y="18.03" width="100%" height="100%" fill="rgb(255, 255, 255)" /><g id="page" clip-path="url(#1167)"><g><text xml:space="preserve" text-anchor="start" text-rendering="geometricPrecision"><tspan x="69.62" y="55.39" font-family="Arial" font-size="10" fill="rgb(0, 0, 255)">O</tspan></text></g><g id="Solid"><path d="M61.71 53.41 L61.71 53.41 L61.57 53.13 L61.99 52.77 L68.57 51.87 L68.61 52.16 L68.66 52.46 Z" stroke="rgb(0, 0, 255)" stroke-width="0" fill-rule="evenodd" stroke-linejoin="miter" fill="rgb(0, 0, 255)" shape-rendering="geometricPrecision" /></g><g id="Solid"><path d="M61.99 52.77 L61.99 52.77 L61.57 53.13 L61.3 52.97 L65.54 38.2 L65.84 38.24 L66.04 38.62 Z" stroke="rgb(0, 0, 255)" stroke-width="0" fill-rule="evenodd" stroke-linejoin="miter" fill="rgb(0, 0, 255)" shape-rendering="geometricPrecision" /><line x1="65.43" y1="49.79" x2="67.72" y2="41.78" stroke="rgb(0, 0, 255)" stroke-width="0.6" shape-rendering="auto" /></g><g id="Dash"><path d="M79.69 42.42 L79.69 42.42 L79.51 42.99 L82.26 43.88 L82.28 43.57 L82.07 43.19 Z" stroke="rgb(0, 0, 255)" stroke-width="0" fill-rule="evenodd" stroke-linejoin="miter" fill="rgb(0, 0, 255)" shape-rendering="geometricPrecision" /><path d="M68.61 38.82 L68.61 38.82 L68.42 39.39 L66.04 38.62 L65.84 38.24 L66.14 38.02 Z" stroke="rgb(0, 0, 255)" stroke-width="0" fill-rule="evenodd" stroke-linejoin="miter" fill="rgb(0, 0, 255)" shape-rendering="geometricPrecision" /><path d="M77.58 41.73 L77.58 41.73 L75.21 40.96 L75.02 41.53 L77.4 42.3 Z" stroke="rgb(0, 0, 255)" stroke-width="0" fill-rule="evenodd" stroke-linejoin="miter" fill="rgb(0, 0, 255)" shape-rendering="geometricPrecision" /><path d="M73.09 40.28 L73.09 40.28 L70.72 39.51 L70.53 40.08 L72.91 40.85 Z" stroke="rgb(0, 0, 255)" stroke-width="0" fill-rule="evenodd" stroke-linejoin="miter" fill="rgb(0, 0, 255)" shape-rendering="geometricPrecision" /></g><g id="Dash"><path d="M80.89 53.72 L80.89 53.72 L81.04 53.14 L78.62 52.51 L78.55 52.8 L78.47 53.09 Z" stroke="rgb(0, 0, 255)" stroke-width="0" fill-rule="evenodd" stroke-linejoin="miter" fill="rgb(0, 0, 255)" shape-rendering="geometricPrecision" /><path d="M87.82 55.53 L87.82 55.53 L87.97 54.95 L90.39 55.59 L90.6 55.95 L90.81 56.31 Z" stroke="rgb(0, 0, 255)" stroke-width="0" fill-rule="evenodd" stroke-linejoin="miter" fill="rgb(0, 0, 255)" shape-rendering="geometricPrecision" /><path d="M83.15 54.31 L83.15 54.31 L85.57 54.95 L85.72 54.36 L83.3 53.73 Z" stroke="rgb(0, 0, 255)" stroke-width="0" fill-rule="evenodd" stroke-linejoin="miter" fill="rgb(0, 0, 255)" shape-rendering="geometricPrecision" /></g><g id="Solid"><path d="M90.81 56.31 L90.81 56.31 L90.6 55.95 L90.39 55.59 L94.42 41.48 L94.84 41.09 L95.26 40.7 Z" stroke="rgb(0, 0, 255)" stroke-width="0" fill-rule="evenodd" stroke-linejoin="miter" fill="rgb(0, 0, 255)" shape-rendering="geometricPrecision" /></g><g id="Bracket"><path d="M104.24 19.38 L108.1 19.38 L108.1 68.38 L104.24 68.38 " stroke="rgb(0, 0, 255)" stroke-width="0.6" fill-rule="evenodd" stroke-linejoin="miter" fill="none" shape-rendering="geometricPrecision" /></g><g id="Bracket"><path d="M18.46 68.38 L14.6 68.38 L14.6 19.38 L18.46 19.38 " stroke="rgb(0, 0, 255)" stroke-width="0.6" fill-rule="evenodd" stroke-linejoin="miter" fill="none" shape-rendering="geometricPrecision" /></g><g id="Charge1121"><line x1="114.1" y1="20.58" x2="114.1" y2="33.18" stroke="rgb(0, 0, 255)" stroke-width="0.48" shape-rendering="auto" /><line x1="110.8" y1="23.88" x2="117.4" y2="23.88" stroke="rgb(0, 0, 255)" stroke-width="0.48" shape-rendering="auto" /><line x1="110.8" y1="29.88" x2="117.4" y2="29.88" stroke="rgb(0, 0, 255)" stroke-width="0.48" shape-rendering="auto" /></g><g id="Solid"><path d="M82.26 43.88 L82.26 43.88 L82.28 43.57 L82.69 43.18 L95.26 40.7 L94.84 41.09 L94.42 41.48 Z" stroke="rgb(0, 0, 255)" stroke-width="0" fill-rule="evenodd" stroke-linejoin="miter" fill="rgb(0, 0, 255)" shape-rendering="geometricPrecision" /><line x1="85.46" y1="40.59" x2="94.39" y2="38.83" stroke="rgb(0, 0, 255)" stroke-width="0.6" shape-rendering="auto" /></g><g id="Solid"><path d="M61.3 52.97 L61.3 52.97 L61.57 53.13 L61.71 53.41 L55.24 59.88 L55.03 59.67 L54.82 59.46 Z" stroke="rgb(0, 0, 255)" stroke-width="0" fill-rule="evenodd" stroke-linejoin="miter" fill="rgb(0, 0, 255)" shape-rendering="geometricPrecision" /></g><g><text xml:space="preserve" text-anchor="end" text-rendering="geometricPrecision"><tspan x="55.29" y="67.21" font-family="Arial" font-size="10" fill="rgb(0, 0, 255)">SMTO</tspan></text></g><g id="Solid"><path d="M66.14 38.02 L66.14 38.02 L65.84 38.24 L65.54 38.2 L65.54 23.84 L65.84 23.84 L66.14 23.84 Z" stroke="rgb(0, 0, 255)" stroke-width="0" fill-rule="evenodd" stroke-linejoin="miter" fill="rgb(0, 0, 255)" shape-rendering="geometricPrecision" /></g><g id="Solid"><path d="M82.69 43.18 L82.69 43.18 L82.28 43.57 L82.07 43.19 L85.72 29.58 L86.01 29.66 L86.3 29.74 Z" stroke="rgb(0, 0, 255)" stroke-width="0" fill-rule="evenodd" stroke-linejoin="miter" fill="rgb(0, 0, 255)" shape-rendering="geometricPrecision" /></g><g id="Solid"><g id="Bond's parts"><path d="M199.95 47.4 L199.95 47.4 L200.18 47.4 L200.25 47.5 L200.3 47.55 L200.35 55.95 L200.15 55.9 L199.75 55.85 L199.75 47.45 Z" stroke="rgb(0, 0, 255)" stroke-width="0" fill-rule="evenodd" stroke-linejoin="miter" fill="rgb(0, 0, 255)" shape-rendering="geometricPrecision" /><path d="M199.75 59.75 L199.75 59.75 L200.05 59.8 L200.35 59.85 L200.35 64.55 Z" stroke="rgb(0, 0, 255)" stroke-width="0" fill-rule="evenodd" stroke-linejoin="miter" fill="rgb(0, 0, 255)" shape-rendering="geometricPrecision" /></g></g><g><text xml:space="preserve" text-anchor="start" text-rendering="geometricPrecision"><tspan x="175.42" y="60.78" font-family="Arial" font-size="10" fill="rgb(0, 0, 255)">O</tspan></text></g><g id="Dash"><path d="M186.9 56.14 L186.9 56.14 L186.82 55.55 L184.34 55.89 L184.39 56.18 L184.43 56.48 Z" stroke="rgb(0, 0, 255)" stroke-width="0" fill-rule="evenodd" stroke-linejoin="miter" fill="rgb(0, 0, 255)" shape-rendering="geometricPrecision" /></g><g id="Solid"><path d="M180.99 52.14 L180.99 52.14 L180.7 52.06 L180.41 51.98 L183.27 42.03 L183.59 41.99 L183.79 42.37 Z" stroke="rgb(0, 0, 255)" stroke-width="0" fill-rule="evenodd" stroke-linejoin="miter" fill="rgb(0, 0, 255)" shape-rendering="geometricPrecision" /></g><g id="Solid"><path d="M200.05 47.01 L200.05 47.01 L200.03 47.32 L199.73 47.54 L183.79 42.37 L183.59 41.99 L183.79 41.74 Z" stroke="rgb(0, 0, 255)" stroke-width="0" fill-rule="evenodd" stroke-linejoin="miter" fill="rgb(0, 0, 255)" shape-rendering="geometricPrecision" /><line x1="200.22" y1="44.11" x2="185.69" y2="39.4" stroke="rgb(0, 0, 255)" stroke-width="0.6" shape-rendering="auto" /></g><g id="Solid"><path d="M191.25 55.55 L191.25 55.55 L191.27 55.24 L191.29 54.93 L208.14 59.34 L208.35 59.7 L208.56 60.06 Z" stroke="rgb(0, 0, 255)" stroke-width="0" fill-rule="evenodd" stroke-linejoin="miter" fill="rgb(0, 0, 255)" shape-rendering="geometricPrecision" /></g><g id="Solid"><path d="M208.56 60.06 L208.56 60.06 L208.35 59.7 L208.14 59.34 L212.17 45.23 L212.59 44.84 L212.77 45.29 Z" stroke="rgb(0, 0, 255)" stroke-width="0" fill-rule="evenodd" stroke-linejoin="miter" fill="rgb(0, 0, 255)" shape-rendering="geometricPrecision" /><line x1="206.42" y1="56.32" x2="208.67" y2="48.45" stroke="rgb(0, 0, 255)" stroke-width="0.6" shape-rendering="auto" /></g><g><text xml:space="preserve" text-anchor="end" text-rendering="geometricPrecision"><tspan x="178.85" y="30.92" font-family="Arial" font-size="10" fill="rgb(0, 0, 255)">SMTO</tspan></text></g><g id="Solid"><path d="M183.79 41.74 L183.79 41.74 L183.59 41.99 L183.27 42.03 L177.5 32.04 L177.76 31.89 L178.02 31.74 Z" stroke="rgb(0, 0, 255)" stroke-width="0" fill-rule="evenodd" stroke-linejoin="miter" fill="rgb(0, 0, 255)" shape-rendering="geometricPrecision" /></g><g id="Solid"><path d="M212.77 45.29 L212.77 45.29 L212.59 44.84 L212.64 44.52 L227.7 53.22 L227.55 53.48 L227.4 53.74 Z" stroke="rgb(0, 0, 255)" stroke-width="0" fill-rule="evenodd" stroke-linejoin="miter" fill="rgb(0, 0, 255)" shape-rendering="geometricPrecision" /></g><g id="Dash"><path d="M202.78 47.08 L202.78 47.08 L202.67 46.49 L200.05 47.01 L200.03 47.32 L200.33 47.57 Z" stroke="rgb(0, 0, 255)" stroke-width="0" fill-rule="evenodd" stroke-linejoin="miter" fill="rgb(0, 0, 255)" shape-rendering="geometricPrecision" /><path d="M209.71 45.71 L209.71 45.71 L209.6 45.12 L212.64 44.52 L212.59 44.84 L212.17 45.23 Z" stroke="rgb(0, 0, 255)" stroke-width="0" fill-rule="evenodd" stroke-linejoin="miter" fill="rgb(0, 0, 255)" shape-rendering="geometricPrecision" /><path d="M205.02 46.64 L205.02 46.64 L207.47 46.16 L207.36 45.57 L204.91 46.05 Z" stroke="rgb(0, 0, 255)" stroke-width="0" fill-rule="evenodd" stroke-linejoin="miter" fill="rgb(0, 0, 255)" shape-rendering="geometricPrecision" /></g><g id="Bracket"><path d="M233.99 18.63 L237.85 18.63 L237.85 67.63 L233.99 67.63 " stroke="rgb(0, 0, 255)" stroke-width="0.6" fill-rule="evenodd" stroke-linejoin="miter" fill="none" shape-rendering="geometricPrecision" /></g><g id="Bracket"><path d="M149.71 67.63 L145.85 67.63 L145.85 18.63 L149.71 18.63 " stroke="rgb(0, 0, 255)" stroke-width="0.6" fill-rule="evenodd" stroke-linejoin="miter" fill="none" shape-rendering="geometricPrecision" /></g><g id="Charge1085"><line x1="243.85" y1="19.83" x2="243.85" y2="32.43" stroke="rgb(0, 0, 255)" stroke-width="0.48" shape-rendering="auto" /><line x1="240.55" y1="23.13" x2="247.15" y2="23.13" stroke="rgb(0, 0, 255)" stroke-width="0.48" shape-rendering="auto" /><line x1="240.55" y1="29.13" x2="247.15" y2="29.13" stroke="rgb(0, 0, 255)" stroke-width="0.48" shape-rendering="auto" /></g></g></g></svg>