<?xml version="1.0"?><svg xmlns="http://www.w3.org/2000/svg" xmlns:xlink="http://www.w3.org/1999/xlink" viewBox="29.98 33.85 191.55 60.77" preserveAspectRatio="xMidYMid" width="100%" height="100%"><clipPath id="162"><rect x="0.3" y="0.3" width="522.6" height="769.08" /></clipPath><g id="drawing"><rect x="29.98" y="33.85" width="100%" height="100%" fill="rgb(255, 255, 255)" /><g id="page" clip-path="url(#162)"><g id="Solid"><path d="M29.98 57.88 L29.98 57.88 L30.28 58.05 L30.58 58.22 L30.58 72.28 L30.28 72.45 L29.98 72.62 Z" stroke="rgb(0, 0, 0)" stroke-width="0" fill-rule="evenodd" stroke-linejoin="miter" fill="rgb(0, 0, 0)" shape-rendering="geometricPrecision" /></g><g id="Solid"><path d="M29.98 72.62 L29.98 72.62 L30.28 72.45 L30.58 72.28 L42.9 79.39 L42.75 79.65 L42.6 79.91 Z" stroke="rgb(0, 0, 0)" stroke-width="0" fill-rule="evenodd" stroke-linejoin="miter" fill="rgb(0, 0, 0)" shape-rendering="geometricPrecision" /><line x1="32.87" y1="70.95" x2="44.05" y2="77.41" stroke="rgb(0, 0, 0)" stroke-width="0.6" shape-rendering="auto" /></g><g id="Solid"><path d="M65.27 72.23 L65.27 72.23 L64.97 72.45 L64.67 72.67 L64.67 57.83 L64.97 58.05 L65.27 58.27 Z" stroke="rgb(0, 0, 0)" stroke-width="0" fill-rule="evenodd" stroke-linejoin="miter" fill="rgb(0, 0, 0)" shape-rendering="geometricPrecision" /><line x1="67.56" y1="70.57" x2="67.56" y2="59.93" stroke="rgb(0, 0, 0)" stroke-width="0.6" shape-rendering="auto" /></g><g id="Solid"><path d="M42.6 50.59 L42.6 50.59 L42.75 50.85 L42.9 51.11 L30.58 58.22 L30.28 58.05 L29.98 57.88 Z" stroke="rgb(0, 0, 0)" stroke-width="0" fill-rule="evenodd" stroke-linejoin="miter" fill="rgb(0, 0, 0)" shape-rendering="geometricPrecision" /><line x1="44.05" y1="53.09" x2="32.87" y2="59.55" stroke="rgb(0, 0, 0)" stroke-width="0.6" shape-rendering="auto" /></g><g><text xml:space="preserve" text-anchor="start" text-rendering="geometricPrecision"><tspan x="83.23" y="69.15" font-family="Arial" font-size="10" fill="rgb(0, 0, 0)">O</tspan></text></g><g id="Solid"><path d="M64.67 72.67 L64.67 72.67 L64.97 72.45 L65.27 72.23 L78.56 76.55 L78.67 76.9 L78.78 77.25 Z" stroke="rgb(0, 0, 0)" stroke-width="0" fill-rule="evenodd" stroke-linejoin="miter" fill="rgb(0, 0, 0)" shape-rendering="geometricPrecision" /></g><g id="Solid"><path d="M78.78 77.25 L78.78 77.25 L78.67 76.9 L78.56 76.55 L83.52 69.71 L83.76 69.89 L84 70.07 Z" stroke="rgb(0, 0, 0)" stroke-width="0" fill-rule="evenodd" stroke-linejoin="miter" fill="rgb(0, 0, 0)" shape-rendering="geometricPrecision" /></g><g id="Solid"><path d="M84.36 60.93 L84.36 60.93 L84.12 61.11 L83.88 61.28 L78.56 53.95 L78.67 53.6 L78.78 53.25 Z" stroke="rgb(0, 0, 0)" stroke-width="0" fill-rule="evenodd" stroke-linejoin="miter" fill="rgb(0, 0, 0)" shape-rendering="geometricPrecision" /></g><g id="Solid"><path d="M78.78 53.25 L78.78 53.25 L78.67 53.6 L78.56 53.95 L65.27 58.27 L64.97 58.05 L64.67 57.83 Z" stroke="rgb(0, 0, 0)" stroke-width="0" fill-rule="evenodd" stroke-linejoin="miter" fill="rgb(0, 0, 0)" shape-rendering="geometricPrecision" /></g><g><text xml:space="preserve" text-anchor="start" text-rendering="geometricPrecision"><tspan x="79.22" y="43.8" font-family="Arial" font-size="10" fill="rgb(0, 0, 0)">O</tspan></text></g><g id="Solid"><line x1="77.44" y1="53.2" x2="80.06" y2="45.12" stroke="rgb(0, 0, 0)" stroke-width="0.6" shape-rendering="auto" /><path d="M79.51 54.24 L79.51 54.24 L79.94 54.84 L82.81 46.01 L82.24 45.83 Z" stroke="rgb(0, 0, 0)" stroke-width="0" fill-rule="evenodd" stroke-linejoin="miter" fill="rgb(0, 0, 0)" shape-rendering="geometricPrecision" /><path d="M76.91 53.86 L76.91 53.86 L77.61 53.63 L80.35 45.21 L79.78 45.03 Z" stroke="rgb(0, 0, 0)" stroke-width="0" fill-rule="evenodd" stroke-linejoin="miter" fill="rgb(0, 0, 0)" shape-rendering="geometricPrecision" /></g><g><text xml:space="preserve" text-anchor="start" text-rendering="geometricPrecision"><tspan x="79.22" y="94.5" font-family="Arial" font-size="10" fill="rgb(0, 0, 0)">O</tspan></text></g><g id="Solid"><line x1="79.9" y1="76.5" x2="82.79" y2="85.38" stroke="rgb(0, 0, 0)" stroke-width="0.6" shape-rendering="auto" /><path d="M77.61 76.87 L77.61 76.87 L76.91 76.64 L80.04 86.27 L80.61 86.09 Z" stroke="rgb(0, 0, 0)" stroke-width="0" fill-rule="evenodd" stroke-linejoin="miter" fill="rgb(0, 0, 0)" shape-rendering="geometricPrecision" /><path d="M79.94 75.66 L79.94 75.66 L79.51 76.26 L82.5 85.47 L83.07 85.29 Z" stroke="rgb(0, 0, 0)" stroke-width="0" fill-rule="evenodd" stroke-linejoin="miter" fill="rgb(0, 0, 0)" shape-rendering="geometricPrecision" /></g><g id="Arrow"><line x1="145" y1="63.75" x2="112.5" y2="63.75" stroke="rgb(0, 0, 0)" stroke-width="0.6" shape-rendering="auto" /><path d="M149.25 63.75 L143.25 62.25 C144.44 63.09 144.44 64.41 143.25 65.25 Z" stroke="rgb(0, 0, 0)" stroke-width="0" fill-rule="evenodd" stroke-linejoin="miter" stroke-miterlimit="6.93525005514877" fill="rgb(0, 0, 0)" shape-rendering="geometricPrecision" /></g><g id="Solid"><path d="M170.23 56.38 L170.23 56.38 L170.53 56.55 L170.83 56.72 L170.83 70.78 L170.53 70.95 L170.23 71.12 Z" stroke="rgb(0, 0, 0)" stroke-width="0" fill-rule="evenodd" stroke-linejoin="miter" fill="rgb(0, 0, 0)" shape-rendering="geometricPrecision" /><line x1="173.12" y1="58.05" x2="173.12" y2="69.45" stroke="rgb(0, 0, 0)" stroke-width="0.6" shape-rendering="auto" /></g><g id="Solid"><path d="M170.23 71.12 L170.23 71.12 L170.53 70.95 L170.83 70.78 L183 77.8 L183 78.15 L183 78.5 Z" stroke="rgb(0, 0, 0)" stroke-width="0" fill-rule="evenodd" stroke-linejoin="miter" fill="rgb(0, 0, 0)" shape-rendering="geometricPrecision" /></g><g id="Solid"><path d="M183 78.5 L183 78.5 L183 78.15 L183 77.8 L195.17 70.78 L195.47 70.95 L195.5 71.28 Z" stroke="rgb(0, 0, 0)" stroke-width="0" fill-rule="evenodd" stroke-linejoin="miter" fill="rgb(0, 0, 0)" shape-rendering="geometricPrecision" /></g><g id="Solid"><path d="M195.77 70.73 L195.77 70.73 L195.47 70.95 L195.17 70.78 L195.17 56.72 L195.47 56.55 L195.77 56.77 Z" stroke="rgb(0, 0, 0)" stroke-width="0" fill-rule="evenodd" stroke-linejoin="miter" fill="rgb(0, 0, 0)" shape-rendering="geometricPrecision" /></g><g id="Solid"><path d="M195.5 56.22 L195.5 56.22 L195.47 56.55 L195.17 56.72 L183 49.7 L183 49.35 L183 49 Z" stroke="rgb(0, 0, 0)" stroke-width="0" fill-rule="evenodd" stroke-linejoin="miter" fill="rgb(0, 0, 0)" shape-rendering="geometricPrecision" /></g><g id="Solid"><path d="M183 49 L183 49 L183 49.35 L183 49.7 L170.83 56.72 L170.53 56.55 L170.23 56.38 Z" stroke="rgb(0, 0, 0)" stroke-width="0" fill-rule="evenodd" stroke-linejoin="miter" fill="rgb(0, 0, 0)" shape-rendering="geometricPrecision" /></g><g><text xml:space="preserve" text-anchor="start" text-rendering="geometricPrecision"><tspan x="213.73" y="67.65" font-family="Arial" font-size="10" fill="rgb(0, 0, 0)">O</tspan></text></g><g id="Solid"><path d="M195.5 71.28 L195.5 71.28 L195.47 70.95 L195.77 70.73 L209.06 75.05 L209.17 75.4 L209.28 75.75 Z" stroke="rgb(0, 0, 0)" stroke-width="0" fill-rule="evenodd" stroke-linejoin="miter" fill="rgb(0, 0, 0)" shape-rendering="geometricPrecision" /></g><g id="Solid"><path d="M209.28 75.75 L209.28 75.75 L209.17 75.4 L209.06 75.05 L214.02 68.21 L214.26 68.39 L214.5 68.57 Z" stroke="rgb(0, 0, 0)" stroke-width="0" fill-rule="evenodd" stroke-linejoin="miter" fill="rgb(0, 0, 0)" shape-rendering="geometricPrecision" /></g><g id="Solid"><path d="M214.86 59.43 L214.86 59.43 L214.62 59.61 L214.38 59.78 L209.06 52.45 L209.17 52.1 L209.28 51.75 Z" stroke="rgb(0, 0, 0)" stroke-width="0" fill-rule="evenodd" stroke-linejoin="miter" fill="rgb(0, 0, 0)" shape-rendering="geometricPrecision" /></g><g id="Solid"><path d="M209.28 51.75 L209.28 51.75 L209.17 52.1 L209.06 52.45 L195.77 56.77 L195.47 56.55 L195.5 56.22 Z" stroke="rgb(0, 0, 0)" stroke-width="0" fill-rule="evenodd" stroke-linejoin="miter" fill="rgb(0, 0, 0)" shape-rendering="geometricPrecision" /></g><g><text xml:space="preserve" text-anchor="start" text-rendering="geometricPrecision"><tspan x="209.72" y="42.3" font-family="Arial" font-size="10" fill="rgb(0, 0, 0)">O</tspan></text></g><g id="Solid"><line x1="207.94" y1="51.7" x2="210.56" y2="43.62" stroke="rgb(0, 0, 0)" stroke-width="0.6" shape-rendering="auto" /><path d="M210.01 52.74 L210.01 52.74 L210.44 53.34 L213.31 44.51 L212.74 44.33 Z" stroke="rgb(0, 0, 0)" stroke-width="0" fill-rule="evenodd" stroke-linejoin="miter" fill="rgb(0, 0, 0)" shape-rendering="geometricPrecision" /><path d="M207.41 52.36 L207.41 52.36 L208.11 52.13 L210.85 43.71 L210.28 43.53 Z" stroke="rgb(0, 0, 0)" stroke-width="0" fill-rule="evenodd" stroke-linejoin="miter" fill="rgb(0, 0, 0)" shape-rendering="geometricPrecision" /></g><g id="Solid"><line x1="210.4" y1="75" x2="213.29" y2="83.88" stroke="rgb(0, 0, 0)" stroke-width="0.6" shape-rendering="auto" /><path d="M208.11 75.37 L208.11 75.37 L207.41 75.14 L210.54 84.77 L211.11 84.59 Z" stroke="rgb(0, 0, 0)" stroke-width="0" fill-rule="evenodd" stroke-linejoin="miter" fill="rgb(0, 0, 0)" shape-rendering="geometricPrecision" /><path d="M210.44 74.16 L210.44 74.16 L210.01 74.76 L213 83.97 L213.57 83.79 Z" stroke="rgb(0, 0, 0)" stroke-width="0" fill-rule="evenodd" stroke-linejoin="miter" fill="rgb(0, 0, 0)" shape-rendering="geometricPrecision" /></g><g><text xml:space="preserve" text-anchor="start" text-rendering="geometricPrecision"><tspan x="209.72" y="93" font-family="Arial" font-size="10" fill="rgb(0, 0, 0)">O</tspan></text></g><g><text xml:space="preserve" text-anchor="start" text-rendering="geometricPrecision"><tspan x="191.87" y="46.05" font-family="Arial" font-size="10" fill="rgb(0, 0, 0)">H</tspan></text></g><path d="M195.47 56.55 A0.898477173087466,0.898477173087466 -89.9999988540846 0,0 196.47 55.65 A0.898477173087466,0.898477173087466 -89.9999988540846 0,0 195.47 54.75 A0.898477173087466,0.898477173087466 -89.9999988540846 0,1 194.47 53.85 A0.898477173087466,0.898477173087466 -89.9999988540846 0,1 195.47 52.96 A0.898477173087466,0.898477173087466 -89.9999988540846 0,0 196.47 52.06 A0.898477173087466,0.898477173087466 -89.9999988540846 0,0 195.47 51.16 A0.898477173087466,0.898477173087466 -89.9999988540846 0,1 194.47 50.26 A0.898477173087466,0.898477173087466 -89.9999988540846 0,1 195.47 49.36 A0.898477173087466,0.898477173087466 -89.9999988540846 0,0 196.47 48.46 " stroke="rgb(0, 0, 0)" stroke-width="0.6" fill-rule="evenodd" stroke-linejoin="bevel" fill="none" shape-rendering="geometricPrecision" /><path d="M195.47 70.95 A0.905213256432882,0.905213256432882 89.9999988540846 0,0 194.47 71.86 A0.905213256432882,0.905213256432882 89.9999988540846 0,0 195.47 72.76 A0.905213256432882,0.905213256432882 89.9999988540846 0,1 196.47 73.67 A0.905213256432882,0.905213256432882 89.9999988540846 0,1 195.47 74.57 A0.905213256432882,0.905213256432882 89.9999988540846 0,0 194.47 75.48 A0.905213256432882,0.905213256432882 89.9999988540846 0,0 195.47 76.38 A0.905213256432882,0.905213256432882 89.9999988540846 0,1 196.47 77.29 A0.905213256432882,0.905213256432882 89.9999988540846 0,1 195.47 78.19 A0.905213256432882,0.905213256432882 89.9999988540846 0,0 194.47 79.1 A0.905213256432882,0.905213256432882 89.9999988540846 0,0 195.47 80 " stroke="rgb(0, 0, 0)" stroke-width="0.6" fill-rule="evenodd" stroke-linejoin="bevel" fill="none" shape-rendering="geometricPrecision" /><g><text xml:space="preserve" text-anchor="start" text-rendering="geometricPrecision"><tspan x="191.87" y="89.25" font-family="Arial" font-size="10" fill="rgb(0, 0, 0)">H</tspan></text></g><g><text xml:space="preserve" text-anchor="start" text-rendering="geometricPrecision"><tspan x="127.5" y="59.25" font-family="Symbol" font-size="10" fill="rgb(0, 0, 0)">D</tspan></text></g><g id="Arrow"><path d="M43 58 C47.67 62.67 55.51 63.63 61.16 60.22 " stroke="rgb(255, 0, 0)" stroke-width="0.6" fill-rule="evenodd" stroke-linejoin="bevel" fill="none" shape-rendering="geometricPrecision" /><path d="M64 58 L59.44 59.92 C60.68 59.84 61.3 60.68 60.88 61.84 Z" stroke="rgb(255, 0, 0)" stroke-width="0" fill-rule="evenodd" stroke-linejoin="miter" stroke-miterlimit="6.93525005514877" fill="rgb(255, 0, 0)" shape-rendering="geometricPrecision" /></g><g id="Arrow"><path d="M62 68.99 C57.86 67.88 53.17 69.6 50.73 73.12 " stroke="rgb(255, 0, 0)" stroke-width="0.6" fill-rule="evenodd" stroke-linejoin="bevel" fill="none" shape-rendering="geometricPrecision" /><path d="M49.21 76.39 L52.43 72.63 C51.36 73.26 50.42 72.79 50.28 71.56 Z" stroke="rgb(255, 0, 0)" stroke-width="0" fill-rule="evenodd" stroke-linejoin="miter" stroke-miterlimit="6.94335189073662" fill="rgb(255, 0, 0)" shape-rendering="geometricPrecision" /></g><g id="Arrow"><path d="M40.49 71 C39.81 68.45 37.66 66.36 35.09 65.75 " stroke="rgb(255, 0, 0)" stroke-width="0.6" fill-rule="evenodd" stroke-linejoin="bevel" fill="none" shape-rendering="geometricPrecision" /><path d="M31.49 65.8 L35.84 66.89 C34.9 66.23 34.9 65.37 35.84 64.71 Z" stroke="rgb(255, 0, 0)" stroke-width="0" fill-rule="evenodd" stroke-linejoin="miter" stroke-miterlimit="5.94523816606341" fill="rgb(255, 0, 0)" shape-rendering="geometricPrecision" /></g></g></g></svg>