<?xml version="1.0"?><svg xmlns="http://www.w3.org/2000/svg" xmlns:xlink="http://www.w3.org/1999/xlink" viewBox="40.18 126.9 117.63 70.95" preserveAspectRatio="xMidYMid" width="100%" height="100%"><clipPath id="205"><rect x="0.3" y="0.3" width="522.6" height="769.08" /></clipPath><g id="drawing"><rect x="40.18" y="126.9" width="100%" height="100%" fill="rgb(255, 255, 255)" /><g id="page" clip-path="url(#205)"><g id="Solid"><g id="Bond's parts"><path d="M77.15 170.65 L77.15 170.65 L91.68 170.7 L91.75 170.8 L91.85 170.9 L91.95 171 L92.05 171.1 L92.12 171.2 L76.97 171.2 L77 171.15 Z" stroke="rgb(0, 0, 0)" stroke-width="0" fill-rule="evenodd" stroke-linejoin="miter" fill="rgb(0, 0, 0)" shape-rendering="geometricPrecision" /><path d="M75.93 174 L75.93 174 L91.95 173.95 L91.95 174.55 L75.75 174.55 L75.8 174.35 L75.9 174.05 Z" stroke="rgb(0, 0, 0)" stroke-width="0" fill-rule="evenodd" stroke-linejoin="miter" fill="rgb(0, 0, 0)" shape-rendering="geometricPrecision" /></g></g><g id="Solid"><g id="Bond's parts"><path d="M72.18 171.6 L72.18 171.6 L72.2 171.55 L72.2 171.75 L72.1 172.05 L72 172.25 L71.95 172.45 L71.72 172.5 L71.68 172.6 L71.45 172.7 L71.25 172.8 L71.03 172.9 L70.97 173 L70.75 173.1 L70.55 173.2 L70.32 173.3 L70.28 173.4 L70.05 173.5 L69.82 173.6 L69.78 173.7 L69.55 173.8 L69.35 173.9 L69.12 174 L69.07 174.1 L68.85 174.2 L68.65 174.3 L68.43 174.4 L68.38 174.5 L68.15 174.6 L67.95 174.7 L67.72 174.8 L67.68 174.9 L67.45 175 L67.22 175.1 L67.18 175.2 L66.95 175.3 L66.75 175.4 L66.53 175.5 L66.47 175.6 L66.25 175.7 L66.05 175.8 L65.82 175.9 L65.78 176 L65.55 176.1 L65.35 176.2 L65.12 176.3 L65.07 176.4 L64.85 176.5 L64.62 176.6 L64.57 176.7 L64.35 176.8 L64.15 176.9 L63.92 177 L63.88 177.1 L63.65 177.2 L63.45 177.3 L63.22 177.4 L63.17 177.5 L62.95 177.6 L62.75 177.7 L62.53 177.8 L62.47 177.9 L62.25 178 L62.03 178.1 L61.97 178.2 L61.72 178.3 L61.67 178.3 L61.35 178.2 L60.97 178.1 L61.03 178 L61.25 177.9 L61.47 177.8 L61.53 177.7 L61.75 177.6 L61.95 177.5 L62.17 177.4 L62.22 177.3 L62.45 177.2 L62.67 177.1 L62.72 177 L62.95 176.9 L63.15 176.8 L63.38 176.7 L63.42 176.6 L63.65 176.5 L63.85 176.4 L64.07 176.3 L64.12 176.2 L64.35 176.1 L64.57 176 L64.62 175.9 L64.85 175.8 L65.05 175.7 L65.28 175.6 L65.32 175.5 L65.55 175.4 L65.75 175.3 L65.97 175.2 L66.03 175.1 L66.25 175 L66.45 174.9 L66.68 174.8 L66.72 174.7 L66.95 174.6 L67.18 174.5 L67.22 174.4 L67.45 174.3 L67.65 174.2 L67.88 174.1 L67.93 174 L68.15 173.9 L68.35 173.8 L68.57 173.7 L68.62 173.6 L68.85 173.5 L69.07 173.4 L69.12 173.3 L69.35 173.2 L69.55 173.1 L69.78 173 L69.82 172.9 L70.05 172.8 L70.25 172.7 L70.47 172.6 L70.53 172.5 L70.75 172.4 L70.95 172.3 L71.18 172.2 L71.22 172.1 L71.45 172 L71.68 171.9 L71.72 171.8 L71.95 171.7 Z" stroke="rgb(0, 0, 0)" stroke-width="0" fill-rule="evenodd" stroke-linejoin="miter" fill="rgb(0, 0, 0)" shape-rendering="geometricPrecision" /></g></g><g id="Solid"><path d="M60.9 178.09 L60.9 178.09 L61.31 178.2 L61.72 178.31 L67.7 188.48 L67.76 189.17 L67.82 189.86 Z" stroke="rgb(0, 0, 0)" stroke-width="0" fill-rule="evenodd" stroke-linejoin="miter" fill="rgb(0, 0, 0)" shape-rendering="geometricPrecision" /><line x1="64.45" y1="179.03" x2="67.32" y2="183.91" stroke="rgb(0, 0, 0)" stroke-width="0.6" shape-rendering="auto" /></g><g id="Solid"><path d="M83.56 149.9 L83.56 149.9 L82.78 150 L82.54 149.79 L95.18 142.5 L95.26 142.8 L94.89 143.36 Z" stroke="rgb(0, 0, 0)" stroke-width="0" fill-rule="evenodd" stroke-linejoin="miter" fill="rgb(0, 0, 0)" shape-rendering="geometricPrecision" /><line x1="89.5" y1="149.12" x2="92.08" y2="147.63" stroke="rgb(0, 0, 0)" stroke-width="0.6" shape-rendering="auto" /></g><g id="Dash"><path d="M69.16 186.36 L69.16 186.36 L68.6 186.15 L67.7 188.48 L67.76 189.17 L67.82 189.86 Z" stroke="rgb(0, 0, 0)" stroke-width="0" fill-rule="evenodd" stroke-linejoin="miter" fill="rgb(0, 0, 0)" shape-rendering="geometricPrecision" /><path d="M82.07 152.69 L82.07 152.69 L81.51 152.48 L82.54 149.79 L82.78 150 L82.96 150.36 Z" stroke="rgb(0, 0, 0)" stroke-width="0" fill-rule="evenodd" stroke-linejoin="miter" fill="rgb(0, 0, 0)" shape-rendering="geometricPrecision" /><path d="M70.24 183.55 L70.24 183.55 L71.13 181.22 L70.57 181 L69.68 183.34 Z" stroke="rgb(0, 0, 0)" stroke-width="0" fill-rule="evenodd" stroke-linejoin="miter" fill="rgb(0, 0, 0)" shape-rendering="geometricPrecision" /><path d="M72.21 178.41 L72.21 178.41 L73.1 176.08 L72.54 175.86 L71.65 178.19 Z" stroke="rgb(0, 0, 0)" stroke-width="0" fill-rule="evenodd" stroke-linejoin="miter" fill="rgb(0, 0, 0)" shape-rendering="geometricPrecision" /><path d="M74.18 173.27 L74.18 173.27 L75.07 170.93 L74.51 170.72 L73.62 173.05 Z" stroke="rgb(0, 0, 0)" stroke-width="0" fill-rule="evenodd" stroke-linejoin="miter" fill="rgb(0, 0, 0)" shape-rendering="geometricPrecision" /><path d="M76.15 168.12 L76.15 168.12 L77.05 165.79 L76.49 165.57 L75.59 167.91 Z" stroke="rgb(0, 0, 0)" stroke-width="0" fill-rule="evenodd" stroke-linejoin="miter" fill="rgb(0, 0, 0)" shape-rendering="geometricPrecision" /><path d="M78.12 162.98 L78.12 162.98 L79.02 160.65 L78.46 160.43 L77.56 162.77 Z" stroke="rgb(0, 0, 0)" stroke-width="0" fill-rule="evenodd" stroke-linejoin="miter" fill="rgb(0, 0, 0)" shape-rendering="geometricPrecision" /><path d="M80.1 157.84 L80.1 157.84 L80.99 155.5 L80.43 155.29 L79.54 157.62 Z" stroke="rgb(0, 0, 0)" stroke-width="0" fill-rule="evenodd" stroke-linejoin="miter" fill="rgb(0, 0, 0)" shape-rendering="geometricPrecision" /></g><g id="Dash"><g id="Bond's parts"><path d="M95.15 142.85 L95.15 142.85 L95.38 142.9 L95.45 143 L95.5 143.05 L95.5 143.35 L95.4 144.15 L95.3 145.05 L95.2 145.85 L95.15 145.9 L95.07 145.9 L94.65 145.85 L94.7 144.95 L94.8 144.15 L94.9 143.35 L95 143.15 L95.05 143.1 Z" stroke="rgb(0, 0, 0)" stroke-width="0" fill-rule="evenodd" stroke-linejoin="miter" fill="rgb(0, 0, 0)" shape-rendering="geometricPrecision" /><path d="M94.25 148.35 L94.25 148.35 L94.85 148.35 L94.8 149.25 L94.7 150.05 L94.65 150.85 L94.25 150.8 L94.05 150.75 L94.1 150.05 Z" stroke="rgb(0, 0, 0)" stroke-width="0" fill-rule="evenodd" stroke-linejoin="miter" fill="rgb(0, 0, 0)" shape-rendering="geometricPrecision" /><path d="M93.55 154.55 L93.55 154.55 L93.75 154.6 L94.15 154.65 L94.1 155.15 L94.05 155.85 L93.53 155.8 L93.5 155.75 Z" stroke="rgb(0, 0, 0)" stroke-width="0" fill-rule="evenodd" stroke-linejoin="miter" fill="rgb(0, 0, 0)" shape-rendering="geometricPrecision" /><path d="M93.15 158.25 L93.15 158.25 L93.35 158.3 L93.75 158.35 L93.7 158.55 L93.6 159.35 L93.5 160.25 L93.45 160.85 L93.25 160.8 L92.85 160.75 L92.9 160.25 L93 159.35 Z" stroke="rgb(0, 0, 0)" stroke-width="0" fill-rule="evenodd" stroke-linejoin="miter" fill="rgb(0, 0, 0)" shape-rendering="geometricPrecision" /><path d="M92.55 163.25 L92.55 163.25 L92.95 163.3 L93.15 163.35 L93.1 163.65 L93 164.45 L92.9 165.35 L92.85 165.75 L92.25 165.75 L92.3 165.35 L92.4 164.45 Z" stroke="rgb(0, 0, 0)" stroke-width="0" fill-rule="evenodd" stroke-linejoin="miter" fill="rgb(0, 0, 0)" shape-rendering="geometricPrecision" /><path d="M91.95 168.25 L91.95 168.25 L92.55 168.25 L92.5 168.75 L92.4 169.55 L92.3 170.45 L92.2 171.25 L92.15 171.2 L92.05 171.1 L91.95 171 L91.85 170.9 L91.75 170.8 L91.7 170.75 L91.7 170.35 L91.8 169.55 Z" stroke="rgb(0, 0, 0)" stroke-width="0" fill-rule="evenodd" stroke-linejoin="miter" fill="rgb(0, 0, 0)" shape-rendering="geometricPrecision" /></g></g><g id="Bracket"><path d="M139.92 127.5 L145.03 127.5 L145.03 196.5 L139.92 196.5 " stroke="rgb(0, 0, 0)" stroke-width="0.6" fill-rule="evenodd" stroke-linejoin="miter" fill="none" shape-rendering="geometricPrecision" /></g><g id="Bracket"><path d="M45.89 197.25 L40.78 197.25 L40.78 128.25 L45.89 128.25 " stroke="rgb(0, 0, 0)" stroke-width="0.6" fill-rule="evenodd" stroke-linejoin="miter" fill="none" shape-rendering="geometricPrecision" /></g><g id="Charge188"><line x1="154.03" y1="127.95" x2="154.03" y2="140.55" stroke="rgb(0, 0, 0)" stroke-width="0.48" shape-rendering="auto" /><line x1="150.73" y1="131.25" x2="157.33" y2="131.25" stroke="rgb(0, 0, 0)" stroke-width="0.48" shape-rendering="auto" /><line x1="150.73" y1="137.25" x2="157.33" y2="137.25" stroke="rgb(0, 0, 0)" stroke-width="0.48" shape-rendering="auto" /></g><g id="Solid"><path d="M82.96 150.36 L82.96 150.36 L82.78 150 L83.56 149.9 L96.71 153.42 L96.69 153.73 L96.67 154.04 Z" stroke="rgb(0, 0, 0)" stroke-width="0" fill-rule="evenodd" stroke-linejoin="miter" fill="rgb(0, 0, 0)" shape-rendering="geometricPrecision" /></g><g id="Solid"><path d="M95.53 143.1 L95.53 143.1 L95.26 142.8 L95.18 142.5 L109.91 142.5 L109.66 142.8 L109.41 143.1 Z" stroke="rgb(0, 0, 0)" stroke-width="0" fill-rule="evenodd" stroke-linejoin="miter" fill="rgb(0, 0, 0)" shape-rendering="geometricPrecision" /></g><g id="Solid"><path d="M96.67 154.04 L96.67 154.04 L96.69 153.73 L96.71 153.42 L106.37 151.95 L106.42 152.25 L106.46 152.55 Z" stroke="rgb(0, 0, 0)" stroke-width="0" fill-rule="evenodd" stroke-linejoin="miter" fill="rgb(0, 0, 0)" shape-rendering="geometricPrecision" /></g><g><text xml:space="preserve" text-anchor="start" text-rendering="geometricPrecision"><tspan x="107.45" y="155.4" font-family="Arial" font-size="10" fill="rgb(0, 0, 0)">O</tspan></text></g><g id="Solid"><path d="M110.74 146.79 L110.74 146.79 L110.45 146.85 L110.15 146.91 L109.41 143.1 L109.66 142.8 L109.91 142.5 Z" stroke="rgb(0, 0, 0)" stroke-width="0" fill-rule="evenodd" stroke-linejoin="miter" fill="rgb(0, 0, 0)" shape-rendering="geometricPrecision" /></g><g id="Solid"><line x1="109.09" y1="141.88" x2="114.57" y2="138.49" stroke="rgb(0, 0, 0)" stroke-width="0.6" shape-rendering="auto" /><path d="M110.09 143.45 L110.09 143.45 L110.21 144.08 L115.87 140.59 L115.55 140.08 Z" stroke="rgb(0, 0, 0)" stroke-width="0" fill-rule="evenodd" stroke-linejoin="miter" fill="rgb(0, 0, 0)" shape-rendering="geometricPrecision" /><path d="M107.51 142.5 L107.51 142.5 L108.66 142.5 L114.73 138.75 L114.41 138.24 Z" stroke="rgb(0, 0, 0)" stroke-width="0" fill-rule="evenodd" stroke-linejoin="miter" fill="rgb(0, 0, 0)" shape-rendering="geometricPrecision" /></g><g><text xml:space="preserve" text-anchor="start" text-rendering="geometricPrecision"><tspan x="116" y="140.37" font-family="Arial" font-size="10" fill="rgb(0, 0, 0)">O</tspan></text></g><g id="Solid"><line x1="97.54" y1="153.35" x2="99.59" y2="157.96" stroke="rgb(0, 0, 0)" stroke-width="0.6" shape-rendering="auto" /><path d="M96.07 153.87 L96.07 153.87 L95.32 153.67 L97.61 158.84 L98.16 158.59 Z" stroke="rgb(0, 0, 0)" stroke-width="0" fill-rule="evenodd" stroke-linejoin="miter" fill="rgb(0, 0, 0)" shape-rendering="geometricPrecision" /><path d="M98.08 153.82 L98.08 153.82 L97.46 153.92 L99.31 158.08 L99.86 157.84 Z" stroke="rgb(0, 0, 0)" stroke-width="0" fill-rule="evenodd" stroke-linejoin="miter" fill="rgb(0, 0, 0)" shape-rendering="geometricPrecision" /></g><g><text xml:space="preserve" text-anchor="start" text-rendering="geometricPrecision"><tspan x="96.98" y="167.06" font-family="Arial" font-size="10" fill="rgb(0, 0, 0)">O</tspan></text></g></g></g></svg>