<?xml version="1.0"?><svg xmlns="http://www.w3.org/2000/svg" xmlns:xlink="http://www.w3.org/1999/xlink" viewBox="100.12 107.25 92.13 71.55" preserveAspectRatio="xMidYMid" width="100%" height="100%"><clipPath id="190"><rect x="0.3" y="0.3" width="522.6" height="769.08" /></clipPath><g id="drawing"><rect x="100.12" y="107.25" width="100%" height="100%" fill="rgb(255, 255, 255)" /><g id="page" clip-path="url(#190)"><g id="Solid"><path d="M139.8 114 L139.8 114 L139.72 113.7 L139.64 113.4 L158.18 113.4 L157.87 113.7 L157.56 114 Z" stroke="rgb(0, 0, 0)" stroke-width="0" fill-rule="evenodd" stroke-linejoin="miter" fill="rgb(0, 0, 0)" shape-rendering="geometricPrecision" /><line x1="140.6" y1="116.97" x2="154.51" y2="116.97" stroke="rgb(0, 0, 0)" stroke-width="0.6" shape-rendering="auto" /></g><g id="Solid"><path d="M139.64 113.4 L139.64 113.4 L139.72 113.7 L139.8 114 L127.66 121.01 L127.25 120.9 L126.84 120.79 Z" stroke="rgb(0, 0, 0)" stroke-width="0" fill-rule="evenodd" stroke-linejoin="miter" fill="rgb(0, 0, 0)" shape-rendering="geometricPrecision" /></g><g id="Solid"><path d="M126.84 120.79 L126.84 120.79 L127.25 120.9 L127.66 121.01 L133.97 131.74 L133.7 131.87 L133.43 132 Z" stroke="rgb(0, 0, 0)" stroke-width="0" fill-rule="evenodd" stroke-linejoin="miter" fill="rgb(0, 0, 0)" shape-rendering="geometricPrecision" /><line x1="130.39" y1="121.73" x2="135.67" y2="130.71" stroke="rgb(0, 0, 0)" stroke-width="0.6" shape-rendering="auto" /></g><g id="Solid"><path d="M144.3 163.5 L144.3 163.5 L144.22 163.2 L144.39 162.76 L155.92 156.1 L156.7 156 L157 156.18 Z" stroke="rgb(0, 0, 0)" stroke-width="0" fill-rule="evenodd" stroke-linejoin="miter" fill="rgb(0, 0, 0)" shape-rendering="geometricPrecision" /><line x1="145.67" y1="159.37" x2="149.98" y2="156.88" stroke="rgb(0, 0, 0)" stroke-width="0.6" shape-rendering="auto" /></g><g id="Solid"><path d="M143.8 162.9 L143.8 162.9 L144.22 163.2 L144.3 163.5 L129.55 163.5 L129.82 163.2 L130.09 162.9 Z" stroke="rgb(0, 0, 0)" stroke-width="0" fill-rule="evenodd" stroke-linejoin="miter" fill="rgb(0, 0, 0)" shape-rendering="geometricPrecision" /></g><g id="Solid"><g id="Bond's parts"><path d="M142.85 152 L142.85 152 L142.93 152 L143.35 152.1 L143.65 152.2 L144.05 152.3 L144.45 152.4 L144.85 152.5 L145.15 152.6 L145.55 152.7 L145.95 152.8 L146.35 152.9 L146.65 153 L147.05 153.1 L147.45 153.2 L147.75 153.3 L148.15 153.4 L148.55 153.5 L148.95 153.6 L149.25 153.7 L149.65 153.8 L150.05 153.9 L150.45 154 L150.75 154.1 L151.15 154.2 L151.55 154.3 L151.85 154.4 L152.25 154.5 L152.65 154.6 L153.05 154.7 L153.35 154.8 L153.75 154.9 L154.15 155 L154.55 155.1 L154.85 155.2 L155.25 155.3 L155.65 155.4 L155.95 155.5 L156.38 155.6 L156.45 155.7 L156.55 155.8 L156.6 155.85 L156.65 156.05 L155.55 156 L155.15 155.9 L154.85 155.8 L154.45 155.7 L154.05 155.6 L153.65 155.5 L153.35 155.4 L152.95 155.3 L152.55 155.2 L152.15 155.1 L151.85 155 L151.45 154.9 L151.05 154.8 L150.75 154.7 L150.35 154.6 L149.95 154.5 L149.55 154.4 L149.25 154.3 L148.85 154.2 L148.45 154.1 L148.05 154 L147.75 153.9 L147.35 153.8 L146.95 153.7 L146.55 153.6 L146.25 153.5 L145.85 153.4 L145.45 153.3 L145.15 153.2 L144.75 153.1 L144.35 153 L143.95 152.9 L143.65 152.8 L143.25 152.7 L142.82 152.6 L142.8 152.55 L142.8 152.05 Z" stroke="rgb(0, 0, 0)" stroke-width="0" fill-rule="evenodd" stroke-linejoin="miter" fill="rgb(0, 0, 0)" shape-rendering="geometricPrecision" /></g></g><g><text xml:space="preserve" text-anchor="start" text-rendering="geometricPrecision"><tspan x="124.98" y="158.4" font-family="Arial" font-size="10" fill="rgb(0, 0, 0)">O</tspan></text></g><g id="Solid"><g id="Bond's parts"><path d="M142.52 152 L142.52 152 L142.82 152 L142.8 152.05 L142.7 152.55 L142.65 152.5 L142.6 152.45 L142.5 152.15 L142.5 152.1 Z" stroke="rgb(0, 0, 0)" stroke-width="0" fill-rule="evenodd" stroke-linejoin="miter" fill="rgb(0, 0, 0)" shape-rendering="geometricPrecision" /><path d="M138.25 152.7 L138.25 152.7 L138.68 152.7 L138.7 152.75 L138.8 153.05 L138.85 153.25 L138.25 153.3 L137.65 153.4 L137.05 153.5 L136.35 153.6 L135.75 153.7 L135.15 153.8 L134.55 153.9 L133.93 153.9 L133.9 153.85 L133.85 153.35 L134.45 153.3 L135.05 153.2 L135.75 153.1 L136.35 153 L136.95 152.9 L137.55 152.8 Z" stroke="rgb(0, 0, 0)" stroke-width="0" fill-rule="evenodd" stroke-linejoin="miter" fill="rgb(0, 0, 0)" shape-rendering="geometricPrecision" /></g></g><g id="Solid"><path d="M129.15 159.78 L129.15 159.78 L129.45 159.75 L129.75 159.72 L130.09 162.9 L129.82 163.2 L129.55 163.5 Z" stroke="rgb(0, 0, 0)" stroke-width="0" fill-rule="evenodd" stroke-linejoin="miter" fill="rgb(0, 0, 0)" shape-rendering="geometricPrecision" /></g><g><text xml:space="preserve" text-anchor="start" text-rendering="geometricPrecision"><tspan x="113.43" y="171.93" font-family="Arial" font-size="10" fill="rgb(0, 0, 0)">O</tspan></text></g><g id="Solid"><line x1="130.25" y1="164.32" x2="122.73" y2="167.24" stroke="rgb(0, 0, 0)" stroke-width="0.6" shape-rendering="auto" /><path d="M129.43 162.38 L129.43 162.38 L129.36 161.76 L121.75 164.71 L121.97 165.27 Z" stroke="rgb(0, 0, 0)" stroke-width="0" fill-rule="evenodd" stroke-linejoin="miter" fill="rgb(0, 0, 0)" shape-rendering="geometricPrecision" /><path d="M133.22 163.5 L133.22 163.5 L131.55 163.5 L122.62 166.96 L122.84 167.51 Z" stroke="rgb(0, 0, 0)" stroke-width="0" fill-rule="evenodd" stroke-linejoin="miter" fill="rgb(0, 0, 0)" shape-rendering="geometricPrecision" /></g><g><text xml:space="preserve" text-anchor="start" text-rendering="geometricPrecision"><tspan x="138.89" y="148.52" font-family="Arial" font-size="10" fill="rgb(0, 0, 0)">O</tspan></text></g><g id="Solid"><g id="Bond's parts"><path d="M141.75 149.55 L141.75 149.55 L142.35 149.55 L142.3 151.55 L142.2 151.25 L142.1 150.95 L142 150.65 L141.9 150.35 Z" stroke="rgb(0, 0, 0)" stroke-width="0" fill-rule="evenodd" stroke-linejoin="miter" fill="rgb(0, 0, 0)" shape-rendering="geometricPrecision" /><path d="M143.25 149.55 L143.25 149.55 L143.85 149.55 L143.85 152.25 L143.65 152.2 L143.32 152.1 Z" stroke="rgb(0, 0, 0)" stroke-width="0" fill-rule="evenodd" stroke-linejoin="miter" fill="rgb(0, 0, 0)" shape-rendering="geometricPrecision" /></g></g><g id="Dash"><path d="M134.22 134.37 L134.22 134.37 L134.79 134.17 L133.97 131.74 L133.7 131.87 L133.43 132 Z" stroke="rgb(0, 0, 0)" stroke-width="0" fill-rule="evenodd" stroke-linejoin="miter" fill="rgb(0, 0, 0)" shape-rendering="geometricPrecision" /><path d="M143.01 160.53 L143.01 160.53 L143.58 160.34 L144.39 162.76 L144.22 163.2 L143.8 162.9 Z" stroke="rgb(0, 0, 0)" stroke-width="0" fill-rule="evenodd" stroke-linejoin="miter" fill="rgb(0, 0, 0)" shape-rendering="geometricPrecision" /><path d="M135.02 136.75 L135.02 136.75 L135.82 139.12 L136.39 138.93 L135.59 136.56 Z" stroke="rgb(0, 0, 0)" stroke-width="0" fill-rule="evenodd" stroke-linejoin="miter" fill="rgb(0, 0, 0)" shape-rendering="geometricPrecision" /><path d="M136.62 141.51 L136.62 141.51 L137.42 143.88 L137.98 143.69 L137.19 141.32 Z" stroke="rgb(0, 0, 0)" stroke-width="0" fill-rule="evenodd" stroke-linejoin="miter" fill="rgb(0, 0, 0)" shape-rendering="geometricPrecision" /><path d="M138.22 146.26 L138.22 146.26 L139.01 148.63 L139.58 148.44 L138.79 146.07 Z" stroke="rgb(0, 0, 0)" stroke-width="0" fill-rule="evenodd" stroke-linejoin="miter" fill="rgb(0, 0, 0)" shape-rendering="geometricPrecision" /><path d="M139.81 151.02 L139.81 151.02 L140.61 153.39 L141.18 153.2 L140.38 150.83 Z" stroke="rgb(0, 0, 0)" stroke-width="0" fill-rule="evenodd" stroke-linejoin="miter" fill="rgb(0, 0, 0)" shape-rendering="geometricPrecision" /><path d="M141.41 155.77 L141.41 155.77 L142.21 158.14 L142.77 157.95 L141.98 155.58 Z" stroke="rgb(0, 0, 0)" stroke-width="0" fill-rule="evenodd" stroke-linejoin="miter" fill="rgb(0, 0, 0)" shape-rendering="geometricPrecision" /></g><g id="Dash"><path d="M157.49 116.5 L157.49 116.5 L158.09 116.52 L158.18 113.4 L157.87 113.7 L157.56 114 Z" stroke="rgb(0, 0, 0)" stroke-width="0" fill-rule="evenodd" stroke-linejoin="miter" fill="rgb(0, 0, 0)" shape-rendering="geometricPrecision" /><path d="M156.48 153.11 L156.48 153.11 L157.08 153.13 L157 156.18 L156.7 156 L156.41 155.61 Z" stroke="rgb(0, 0, 0)" stroke-width="0" fill-rule="evenodd" stroke-linejoin="miter" fill="rgb(0, 0, 0)" shape-rendering="geometricPrecision" /><path d="M157.41 119.59 L157.41 119.59 L157.34 122.09 L157.94 122.1 L158.01 119.6 Z" stroke="rgb(0, 0, 0)" stroke-width="0" fill-rule="evenodd" stroke-linejoin="miter" fill="rgb(0, 0, 0)" shape-rendering="geometricPrecision" /><path d="M157.25 125.18 L157.25 125.18 L157.18 127.67 L157.78 127.69 L157.85 125.19 Z" stroke="rgb(0, 0, 0)" stroke-width="0" fill-rule="evenodd" stroke-linejoin="miter" fill="rgb(0, 0, 0)" shape-rendering="geometricPrecision" /><path d="M157.1 130.76 L157.1 130.76 L157.03 133.26 L157.63 133.28 L157.7 130.78 Z" stroke="rgb(0, 0, 0)" stroke-width="0" fill-rule="evenodd" stroke-linejoin="miter" fill="rgb(0, 0, 0)" shape-rendering="geometricPrecision" /><path d="M156.94 136.35 L156.94 136.35 L156.87 138.85 L157.47 138.87 L157.54 136.37 Z" stroke="rgb(0, 0, 0)" stroke-width="0" fill-rule="evenodd" stroke-linejoin="miter" fill="rgb(0, 0, 0)" shape-rendering="geometricPrecision" /><path d="M156.79 141.94 L156.79 141.94 L156.72 144.44 L157.32 144.45 L157.39 141.95 Z" stroke="rgb(0, 0, 0)" stroke-width="0" fill-rule="evenodd" stroke-linejoin="miter" fill="rgb(0, 0, 0)" shape-rendering="geometricPrecision" /><path d="M156.63 147.53 L156.63 147.53 L156.57 150.02 L157.16 150.04 L157.23 147.54 Z" stroke="rgb(0, 0, 0)" stroke-width="0" fill-rule="evenodd" stroke-linejoin="miter" fill="rgb(0, 0, 0)" shape-rendering="geometricPrecision" /></g><g id="Bracket"><path d="M175.11 109.2 L180.22 109.2 L180.22 178.2 L175.11 178.2 " stroke="rgb(0, 0, 0)" stroke-width="0.6" fill-rule="evenodd" stroke-linejoin="miter" fill="none" shape-rendering="geometricPrecision" /></g><g id="Bracket"><path d="M105.83 178.2 L100.72 178.2 L100.72 109.2 L105.83 109.2 " stroke="rgb(0, 0, 0)" stroke-width="0.6" fill-rule="evenodd" stroke-linejoin="miter" fill="none" shape-rendering="geometricPrecision" /></g><g id="Charge188"><line x1="188.47" y1="108.15" x2="188.47" y2="120.75" stroke="rgb(0, 0, 0)" stroke-width="0.48" shape-rendering="auto" /><line x1="185.17" y1="111.45" x2="191.77" y2="111.45" stroke="rgb(0, 0, 0)" stroke-width="0.48" shape-rendering="auto" /><line x1="185.17" y1="117.45" x2="191.77" y2="117.45" stroke="rgb(0, 0, 0)" stroke-width="0.48" shape-rendering="auto" /></g></g></g></svg>