<?xml version="1.0"?><svg xmlns="http://www.w3.org/2000/svg" xmlns:xlink="http://www.w3.org/1999/xlink" viewBox="44.72 103.99 353.81 88.3" preserveAspectRatio="xMidYMid" width="100%" height="100%"><clipPath id="872"><rect x="0.3" y="0.3" width="522.72" height="769.32" /></clipPath><g id="drawing"><rect x="44.72" y="103.99" width="100%" height="100%" fill="rgb(255, 255, 255)" /><g id="page" clip-path="url(#872)"><g id="Solid"><path d="M73.1 145.8 L73.1 145.8 L73.4 145.8 L73.7 145.97 L73.7 160.03 L73.4 160.2 L73.1 160.07 Z" stroke="rgb(0, 0, 0)" stroke-width="0" fill-rule="evenodd" stroke-linejoin="miter" fill="rgb(0, 0, 0)" shape-rendering="geometricPrecision" /></g><g id="Solid"><path d="M73.44 160.57 L73.44 160.57 L73.4 160.2 L73.7 160.03 L85.88 167.05 L85.88 167.4 L85.54 167.55 Z" stroke="rgb(0, 0, 0)" stroke-width="0" fill-rule="evenodd" stroke-linejoin="miter" fill="rgb(0, 0, 0)" shape-rendering="geometricPrecision" /><line x1="75.99" y1="158.7" x2="85.88" y2="164.41" stroke="rgb(0, 0, 0)" stroke-width="0.6" shape-rendering="auto" /></g><g id="Solid"><path d="M86.15 167.59 L86.15 167.59 L85.88 167.4 L85.88 167.05 L98.05 160.03 L98.35 160.2 L98.35 160.55 Z" stroke="rgb(0, 0, 0)" stroke-width="0" fill-rule="evenodd" stroke-linejoin="miter" fill="rgb(0, 0, 0)" shape-rendering="geometricPrecision" /></g><g id="Solid"><path d="M98.65 160.03 L98.65 160.03 L98.35 160.2 L98.05 160.03 L98.05 145.97 L98.35 145.8 L98.65 145.97 Z" stroke="rgb(0, 0, 0)" stroke-width="0" fill-rule="evenodd" stroke-linejoin="miter" fill="rgb(0, 0, 0)" shape-rendering="geometricPrecision" /><line x1="95.76" y1="158.7" x2="95.76" y2="147.3" stroke="rgb(0, 0, 0)" stroke-width="0.6" shape-rendering="auto" /></g><g id="Solid"><path d="M98.35 145.45 L98.35 145.45 L98.35 145.8 L98.05 145.97 L85.88 138.95 L85.88 138.6 L86.03 138.34 Z" stroke="rgb(0, 0, 0)" stroke-width="0" fill-rule="evenodd" stroke-linejoin="miter" fill="rgb(0, 0, 0)" shape-rendering="geometricPrecision" /></g><g id="Solid"><path d="M85.28 138.6 L85.28 138.6 L85.88 138.6 L85.88 138.95 L73.7 145.97 L73.4 145.8 L73.7 145.28 Z" stroke="rgb(0, 0, 0)" stroke-width="0" fill-rule="evenodd" stroke-linejoin="miter" fill="rgb(0, 0, 0)" shape-rendering="geometricPrecision" /></g><g id="Solid"><path d="M98.35 160.55 L98.35 160.55 L98.35 160.2 L98.65 160.03 L110.82 167.05 L110.82 167.4 L110.82 167.75 Z" stroke="rgb(0, 0, 0)" stroke-width="0" fill-rule="evenodd" stroke-linejoin="miter" fill="rgb(0, 0, 0)" shape-rendering="geometricPrecision" /></g><g id="Solid"><path d="M110.82 167.75 L110.82 167.75 L110.82 167.4 L110.82 167.05 L122.99 160.03 L123.29 160.2 L123.32 160.53 Z" stroke="rgb(0, 0, 0)" stroke-width="0" fill-rule="evenodd" stroke-linejoin="miter" fill="rgb(0, 0, 0)" shape-rendering="geometricPrecision" /><line x1="110.82" y1="164.41" x2="120.7" y2="158.7" stroke="rgb(0, 0, 0)" stroke-width="0.6" shape-rendering="auto" /></g><g id="Solid"><path d="M123.59 159.98 L123.59 159.98 L123.29 160.2 L122.99 160.03 L122.99 145.97 L123.29 145.8 L123.59 146.02 Z" stroke="rgb(0, 0, 0)" stroke-width="0" fill-rule="evenodd" stroke-linejoin="miter" fill="rgb(0, 0, 0)" shape-rendering="geometricPrecision" /></g><g id="Solid"><path d="M123.32 145.47 L123.32 145.47 L123.29 145.8 L122.99 145.97 L110.82 138.95 L110.82 138.6 L111.12 138.43 Z" stroke="rgb(0, 0, 0)" stroke-width="0" fill-rule="evenodd" stroke-linejoin="miter" fill="rgb(0, 0, 0)" shape-rendering="geometricPrecision" /><line x1="120.7" y1="147.3" x2="110.82" y2="141.59" stroke="rgb(0, 0, 0)" stroke-width="0.6" shape-rendering="auto" /></g><g id="Solid"><path d="M110.52 138.43 L110.52 138.43 L110.82 138.6 L110.82 138.95 L98.65 145.97 L98.35 145.8 L98.35 145.45 Z" stroke="rgb(0, 0, 0)" stroke-width="0" fill-rule="evenodd" stroke-linejoin="miter" fill="rgb(0, 0, 0)" shape-rendering="geometricPrecision" /></g><g><text xml:space="preserve" text-anchor="start" text-rendering="geometricPrecision"><tspan x="64.66" y="186.89" font-family="Arial" font-size="10" fill="rgb(0, 0, 0)">O</tspan></text></g><g id="Solid"><path d="M73.1 160.07 L73.1 160.07 L73.4 160.2 L73.44 160.57 L63.06 169.92 L62.7 169.84 L62.34 169.76 Z" stroke="rgb(0, 0, 0)" stroke-width="0" fill-rule="evenodd" stroke-linejoin="miter" fill="rgb(0, 0, 0)" shape-rendering="geometricPrecision" /></g><g id="Solid"><path d="M62.34 169.76 L62.34 169.76 L62.7 169.84 L63.06 169.92 L66.81 178.32 L66.53 178.44 L66.26 178.56 Z" stroke="rgb(0, 0, 0)" stroke-width="0" fill-rule="evenodd" stroke-linejoin="miter" fill="rgb(0, 0, 0)" shape-rendering="geometricPrecision" /></g><g id="Solid"><path d="M73.62 182.76 L73.62 182.76 L73.59 182.46 L73.56 182.16 L82.63 181.21 L82.88 181.49 L83.13 181.77 Z" stroke="rgb(0, 0, 0)" stroke-width="0" fill-rule="evenodd" stroke-linejoin="miter" fill="rgb(0, 0, 0)" shape-rendering="geometricPrecision" /></g><g id="Solid"><path d="M83.13 181.77 L83.13 181.77 L82.88 181.49 L82.63 181.21 L85.54 167.55 L85.88 167.4 L86.15 167.59 Z" stroke="rgb(0, 0, 0)" stroke-width="0" fill-rule="evenodd" stroke-linejoin="miter" fill="rgb(0, 0, 0)" shape-rendering="geometricPrecision" /></g><g><text xml:space="preserve" text-anchor="start" text-rendering="geometricPrecision"><tspan x="141.55" y="156.9" font-family="Arial" font-size="10" fill="rgb(0, 0, 0)">O</tspan></text></g><g id="Solid"><path d="M123.32 160.53 L123.32 160.53 L123.29 160.2 L123.59 159.98 L136.87 164.3 L136.98 164.65 L137.09 165 Z" stroke="rgb(0, 0, 0)" stroke-width="0" fill-rule="evenodd" stroke-linejoin="miter" fill="rgb(0, 0, 0)" shape-rendering="geometricPrecision" /></g><g id="Solid"><path d="M137.09 165 L137.09 165 L136.98 164.65 L136.87 164.3 L141.82 157.49 L142.06 157.66 L142.3 157.84 Z" stroke="rgb(0, 0, 0)" stroke-width="0" fill-rule="evenodd" stroke-linejoin="miter" fill="rgb(0, 0, 0)" shape-rendering="geometricPrecision" /></g><g id="Solid"><path d="M142.64 148.63 L142.64 148.63 L142.4 148.81 L142.16 148.98 L136.87 141.7 L136.98 141.35 L137.09 141 Z" stroke="rgb(0, 0, 0)" stroke-width="0" fill-rule="evenodd" stroke-linejoin="miter" fill="rgb(0, 0, 0)" shape-rendering="geometricPrecision" /></g><g id="Solid"><path d="M137.09 141 L137.09 141 L136.98 141.35 L136.87 141.7 L123.59 146.02 L123.29 145.8 L123.32 145.47 Z" stroke="rgb(0, 0, 0)" stroke-width="0" fill-rule="evenodd" stroke-linejoin="miter" fill="rgb(0, 0, 0)" shape-rendering="geometricPrecision" /></g><g id="Solid"><path d="M86.03 138.34 L86.03 138.34 L85.88 138.6 L85.28 138.6 L73.7 131.92 L73.4 131.4 L73.1 130.88 Z" stroke="rgb(0, 0, 0)" stroke-width="0" fill-rule="evenodd" stroke-linejoin="miter" fill="rgb(0, 0, 0)" shape-rendering="geometricPrecision" /></g><g id="Solid"><path d="M73.1 130.88 L73.1 130.88 L73.4 131.4 L73.7 131.92 L73.7 145.28 L73.4 145.8 L73.1 145.8 Z" stroke="rgb(0, 0, 0)" stroke-width="0" fill-rule="evenodd" stroke-linejoin="miter" fill="rgb(0, 0, 0)" shape-rendering="geometricPrecision" /></g><g id="Solid"><path d="M111.12 138.43 L111.12 138.43 L110.82 138.6 L110.52 138.43 L110.52 124.2 L110.82 124.2 L111.12 124.2 Z" stroke="rgb(0, 0, 0)" stroke-width="0" fill-rule="evenodd" stroke-linejoin="miter" fill="rgb(0, 0, 0)" shape-rendering="geometricPrecision" /></g><g><text xml:space="preserve" text-anchor="start" text-rendering="geometricPrecision"><tspan x="44.72" y="170.74" font-family="Arial" font-size="10" fill="rgb(0, 0, 0)">O</tspan></text></g><g id="Solid"><line x1="62.43" y1="171.11" x2="53.39" y2="169.18" stroke="rgb(0, 0, 0)" stroke-width="0.6" shape-rendering="auto" /><path d="M63.25 168.94 L63.25 168.94 L63.8 168.44 L54 166.35 L53.87 166.94 Z" stroke="rgb(0, 0, 0)" stroke-width="0" fill-rule="evenodd" stroke-linejoin="miter" fill="rgb(0, 0, 0)" shape-rendering="geometricPrecision" /><path d="M63.14 171.57 L63.14 171.57 L62.84 170.89 L53.46 168.89 L53.33 169.48 Z" stroke="rgb(0, 0, 0)" stroke-width="0" fill-rule="evenodd" stroke-linejoin="miter" fill="rgb(0, 0, 0)" shape-rendering="geometricPrecision" /></g><g><text xml:space="preserve" text-anchor="start" text-rendering="geometricPrecision"><tspan x="137.53" y="182.25" font-family="Arial" font-size="10" fill="rgb(0, 0, 0)">O</tspan></text></g><g id="Solid"><line x1="138.21" y1="164.25" x2="141.08" y2="173.08" stroke="rgb(0, 0, 0)" stroke-width="0.6" shape-rendering="auto" /><path d="M135.92 164.62 L135.92 164.62 L135.22 164.39 L138.33 173.97 L138.9 173.79 Z" stroke="rgb(0, 0, 0)" stroke-width="0" fill-rule="evenodd" stroke-linejoin="miter" fill="rgb(0, 0, 0)" shape-rendering="geometricPrecision" /><path d="M138.25 163.41 L138.25 163.41 L137.82 164.01 L140.8 173.17 L141.37 172.99 Z" stroke="rgb(0, 0, 0)" stroke-width="0" fill-rule="evenodd" stroke-linejoin="miter" fill="rgb(0, 0, 0)" shape-rendering="geometricPrecision" /></g><g id="Wedged Hash Begin Bond"><path d="M137.27 141.44 L137.27 141.44 L136.69 141.26 L136.83 140.67 L137.5 140.89 Z" stroke="rgb(0, 0, 0)" stroke-width="0" fill-rule="evenodd" stroke-linejoin="miter" fill="rgb(0, 0, 0)" shape-rendering="geometricPrecision" /><path d="M138.34 138.89 L138.34 138.89 L137.33 138.56 L137.47 137.97 L138.57 138.33 Z" stroke="rgb(0, 0, 0)" stroke-width="0" fill-rule="evenodd" stroke-linejoin="miter" fill="rgb(0, 0, 0)" shape-rendering="geometricPrecision" /><path d="M139.41 136.33 L139.41 136.33 L137.96 135.86 L138.1 135.28 L139.64 135.78 Z" stroke="rgb(0, 0, 0)" stroke-width="0" fill-rule="evenodd" stroke-linejoin="miter" fill="rgb(0, 0, 0)" shape-rendering="geometricPrecision" /><path d="M140.48 133.78 L140.48 133.78 L138.6 133.17 L138.74 132.58 L140.71 133.22 Z" stroke="rgb(0, 0, 0)" stroke-width="0" fill-rule="evenodd" stroke-linejoin="miter" fill="rgb(0, 0, 0)" shape-rendering="geometricPrecision" /><path d="M141.55 131.22 L141.55 131.22 L139.23 130.47 L139.37 129.88 L141.78 130.67 Z" stroke="rgb(0, 0, 0)" stroke-width="0" fill-rule="evenodd" stroke-linejoin="miter" fill="rgb(0, 0, 0)" shape-rendering="geometricPrecision" /><path d="M142.62 128.67 L142.62 128.67 L139.87 127.77 L140 127.19 L142.86 128.11 Z" stroke="rgb(0, 0, 0)" stroke-width="0" fill-rule="evenodd" stroke-linejoin="miter" fill="rgb(0, 0, 0)" shape-rendering="geometricPrecision" /></g><g><text xml:space="preserve" text-anchor="start" text-rendering="geometricPrecision"><tspan x="151.23" y="112.71" font-family="Arial" font-size="10" fill="rgb(0, 0, 0)">O</tspan></text></g><g id="Solid"><path d="M141.32 128 L141.32 128 L141.43 127.65 L141.54 127.3 L154.83 122.99 L155.13 123.21 L155.43 123.43 Z" stroke="rgb(0, 0, 0)" stroke-width="0" fill-rule="evenodd" stroke-linejoin="miter" fill="rgb(0, 0, 0)" shape-rendering="geometricPrecision" /><line x1="142.42" y1="124.6" x2="152.54" y2="121.33" stroke="rgb(0, 0, 0)" stroke-width="0.6" shape-rendering="auto" /></g><g id="Solid"><path d="M155.43 123.43 L155.43 123.43 L155.13 123.21 L154.83 122.99 L154.83 114.5 L155.13 114.5 L155.43 114.5 Z" stroke="rgb(0, 0, 0)" stroke-width="0" fill-rule="evenodd" stroke-linejoin="miter" fill="rgb(0, 0, 0)" shape-rendering="geometricPrecision" /></g><g id="Solid"><path d="M150.47 106.98 L150.47 106.98 L150.38 107.27 L150.29 107.55 L141.54 104.71 L141.43 104.36 L141.32 104.01 Z" stroke="rgb(0, 0, 0)" stroke-width="0" fill-rule="evenodd" stroke-linejoin="miter" fill="rgb(0, 0, 0)" shape-rendering="geometricPrecision" /></g><g id="Solid"><path d="M141.32 104.01 L141.32 104.01 L141.43 104.36 L141.54 104.71 L133.34 116.01 L132.97 116.01 L132.6 116.01 Z" stroke="rgb(0, 0, 0)" stroke-width="0" fill-rule="evenodd" stroke-linejoin="miter" fill="rgb(0, 0, 0)" shape-rendering="geometricPrecision" /><line x1="142.42" y1="107.41" x2="136.17" y2="116.01" stroke="rgb(0, 0, 0)" stroke-width="0.6" shape-rendering="auto" /></g><g id="Solid"><path d="M132.6 116.01 L132.6 116.01 L132.97 116.01 L133.34 116.01 L141.54 127.3 L141.43 127.65 L141.32 128 Z" stroke="rgb(0, 0, 0)" stroke-width="0" fill-rule="evenodd" stroke-linejoin="miter" fill="rgb(0, 0, 0)" shape-rendering="geometricPrecision" /></g><g id="Solid"><path d="M312.51 165.35 L312.51 165.35 L312.38 165 L312.59 164.74 L326.22 168.4 L326.28 168.73 L325.99 168.96 Z" stroke="rgb(0, 0, 0)" stroke-width="0" fill-rule="evenodd" stroke-linejoin="miter" fill="rgb(0, 0, 0)" shape-rendering="geometricPrecision" /></g><g id="Solid"><path d="M326.59 168.88 L326.59 168.88 L326.28 168.73 L326.22 168.4 L337.57 160.03 L337.87 160.18 L337.89 160.54 Z" stroke="rgb(0, 0, 0)" stroke-width="0" fill-rule="evenodd" stroke-linejoin="miter" fill="rgb(0, 0, 0)" shape-rendering="geometricPrecision" /><line x1="325.75" y1="165.9" x2="335.28" y2="158.87" stroke="rgb(0, 0, 0)" stroke-width="0.6" shape-rendering="auto" /></g><g id="Solid"><path d="M338.17 160.01 L338.17 160.01 L337.87 160.18 L337.57 160.03 L337.57 145.93 L337.87 145.79 L338.17 145.96 Z" stroke="rgb(0, 0, 0)" stroke-width="0" fill-rule="evenodd" stroke-linejoin="miter" fill="rgb(0, 0, 0)" shape-rendering="geometricPrecision" /></g><g id="Solid"><path d="M337.9 145.43 L337.9 145.43 L337.87 145.79 L337.57 145.93 L326.2 136.71 L326.28 136.39 L326.36 136.07 Z" stroke="rgb(0, 0, 0)" stroke-width="0" fill-rule="evenodd" stroke-linejoin="miter" fill="rgb(0, 0, 0)" shape-rendering="geometricPrecision" /><line x1="335.18" y1="147.07" x2="325.56" y2="139.26" stroke="rgb(0, 0, 0)" stroke-width="0.6" shape-rendering="auto" /></g><g id="Solid"><path d="M326.36 136.07 L326.36 136.07 L326.28 136.39 L326.2 136.71 L312.58 139.34 L312.38 139.07 L312.18 138.8 Z" stroke="rgb(0, 0, 0)" stroke-width="0" fill-rule="evenodd" stroke-linejoin="miter" fill="rgb(0, 0, 0)" shape-rendering="geometricPrecision" /></g><g id="Solid"><path d="M312.18 138.8 L312.18 138.8 L312.38 139.07 L312.58 139.34 L305.99 151.8 L305.65 151.8 L305.31 151.8 Z" stroke="rgb(0, 0, 0)" stroke-width="0" fill-rule="evenodd" stroke-linejoin="miter" fill="rgb(0, 0, 0)" shape-rendering="geometricPrecision" /></g><g id="Solid"><path d="M305.31 151.8 L305.31 151.8 L305.65 151.8 L305.99 151.8 L312.59 164.74 L312.38 165 L312.03 164.98 Z" stroke="rgb(0, 0, 0)" stroke-width="0" fill-rule="evenodd" stroke-linejoin="miter" fill="rgb(0, 0, 0)" shape-rendering="geometricPrecision" /><line x1="308.65" y1="151.82" x2="314.22" y2="162.73" stroke="rgb(0, 0, 0)" stroke-width="0.6" shape-rendering="auto" /></g><g id="Solid"><path d="M337.89 160.54 L337.89 160.54 L337.87 160.18 L338.17 160.01 L350.33 167.02 L350.33 167.37 L350.33 167.72 Z" stroke="rgb(0, 0, 0)" stroke-width="0" fill-rule="evenodd" stroke-linejoin="miter" fill="rgb(0, 0, 0)" shape-rendering="geometricPrecision" /></g><g id="Solid"><path d="M350.33 167.72 L350.33 167.72 L350.33 167.37 L350.33 167.02 L362.49 160.01 L362.79 160.18 L362.82 160.51 Z" stroke="rgb(0, 0, 0)" stroke-width="0" fill-rule="evenodd" stroke-linejoin="miter" fill="rgb(0, 0, 0)" shape-rendering="geometricPrecision" /><line x1="350.33" y1="164.38" x2="360.2" y2="158.68" stroke="rgb(0, 0, 0)" stroke-width="0.6" shape-rendering="auto" /></g><g id="Solid"><path d="M363.09 159.96 L363.09 159.96 L362.79 160.18 L362.49 160.01 L362.49 145.96 L362.79 145.79 L363.09 146.01 Z" stroke="rgb(0, 0, 0)" stroke-width="0" fill-rule="evenodd" stroke-linejoin="miter" fill="rgb(0, 0, 0)" shape-rendering="geometricPrecision" /></g><g id="Solid"><path d="M362.82 145.46 L362.82 145.46 L362.79 145.79 L362.49 145.96 L350.33 138.94 L350.33 138.59 L350.63 138.42 Z" stroke="rgb(0, 0, 0)" stroke-width="0" fill-rule="evenodd" stroke-linejoin="miter" fill="rgb(0, 0, 0)" shape-rendering="geometricPrecision" /><line x1="360.2" y1="147.28" x2="350.33" y2="141.58" stroke="rgb(0, 0, 0)" stroke-width="0.6" shape-rendering="auto" /></g><g id="Solid"><path d="M350.03 138.42 L350.03 138.42 L350.33 138.59 L350.33 138.94 L338.17 145.96 L337.87 145.79 L337.9 145.43 Z" stroke="rgb(0, 0, 0)" stroke-width="0" fill-rule="evenodd" stroke-linejoin="miter" fill="rgb(0, 0, 0)" shape-rendering="geometricPrecision" /></g><g><text xml:space="preserve" text-anchor="start" text-rendering="geometricPrecision"><tspan x="309.69" y="192.17" font-family="Arial" font-size="10" fill="rgb(0, 0, 0)">O</tspan></text></g><g id="Solid"><path d="M312.03 164.98 L312.03 164.98 L312.38 165 L312.51 165.35 L304.9 177.06 L304.53 177.08 L304.16 177.1 Z" stroke="rgb(0, 0, 0)" stroke-width="0" fill-rule="evenodd" stroke-linejoin="miter" fill="rgb(0, 0, 0)" shape-rendering="geometricPrecision" /></g><g id="Solid"><path d="M304.16 177.1 L304.16 177.1 L304.53 177.08 L304.9 177.06 L310.57 184.07 L310.34 184.26 L310.11 184.45 Z" stroke="rgb(0, 0, 0)" stroke-width="0" fill-rule="evenodd" stroke-linejoin="miter" fill="rgb(0, 0, 0)" shape-rendering="geometricPrecision" /></g><g id="Solid"><path d="M318.5 186.71 L318.5 186.71 L318.39 186.43 L318.29 186.15 L326.73 182.91 L327.04 183.11 L327.35 183.31 Z" stroke="rgb(0, 0, 0)" stroke-width="0" fill-rule="evenodd" stroke-linejoin="miter" fill="rgb(0, 0, 0)" shape-rendering="geometricPrecision" /></g><g id="Solid"><path d="M327.35 183.31 L327.35 183.31 L327.04 183.11 L326.73 182.91 L325.99 168.96 L326.28 168.73 L326.59 168.88 Z" stroke="rgb(0, 0, 0)" stroke-width="0" fill-rule="evenodd" stroke-linejoin="miter" fill="rgb(0, 0, 0)" shape-rendering="geometricPrecision" /></g><g><text xml:space="preserve" text-anchor="start" text-rendering="geometricPrecision"><tspan x="381.04" y="156.88" font-family="Arial" font-size="10" fill="rgb(0, 0, 0)">O</tspan></text></g><g id="Solid"><path d="M362.82 160.51 L362.82 160.51 L362.79 160.18 L363.09 159.96 L376.37 164.27 L376.48 164.62 L376.59 164.97 Z" stroke="rgb(0, 0, 0)" stroke-width="0" fill-rule="evenodd" stroke-linejoin="miter" fill="rgb(0, 0, 0)" shape-rendering="geometricPrecision" /></g><g id="Solid"><path d="M376.59 164.97 L376.59 164.97 L376.48 164.62 L376.37 164.27 L381.34 157.42 L381.59 157.59 L381.83 157.77 Z" stroke="rgb(0, 0, 0)" stroke-width="0" fill-rule="evenodd" stroke-linejoin="miter" fill="rgb(0, 0, 0)" shape-rendering="geometricPrecision" /></g><g id="Solid"><path d="M382.15 148.63 L382.15 148.63 L381.91 148.81 L381.66 148.98 L376.37 141.69 L376.48 141.34 L376.59 140.99 Z" stroke="rgb(0, 0, 0)" stroke-width="0" fill-rule="evenodd" stroke-linejoin="miter" fill="rgb(0, 0, 0)" shape-rendering="geometricPrecision" /></g><g id="Solid"><path d="M376.59 140.99 L376.59 140.99 L376.48 141.34 L376.37 141.69 L363.09 146.01 L362.79 145.79 L362.82 145.46 Z" stroke="rgb(0, 0, 0)" stroke-width="0" fill-rule="evenodd" stroke-linejoin="miter" fill="rgb(0, 0, 0)" shape-rendering="geometricPrecision" /></g><g id="Solid"><path d="M350.63 138.42 L350.63 138.42 L350.33 138.59 L350.03 138.42 L350.03 124.19 L350.33 124.19 L350.63 124.19 Z" stroke="rgb(0, 0, 0)" stroke-width="0" fill-rule="evenodd" stroke-linejoin="miter" fill="rgb(0, 0, 0)" shape-rendering="geometricPrecision" /></g><g id="Wedged Hash Begin Bond"><path d="M376.77 141.43 L376.77 141.43 L376.19 141.25 L376.33 140.66 L377 140.88 Z" stroke="rgb(0, 0, 0)" stroke-width="0" fill-rule="evenodd" stroke-linejoin="miter" fill="rgb(0, 0, 0)" shape-rendering="geometricPrecision" /><path d="M377.84 138.88 L377.84 138.88 L376.83 138.55 L376.97 137.96 L378.07 138.32 Z" stroke="rgb(0, 0, 0)" stroke-width="0" fill-rule="evenodd" stroke-linejoin="miter" fill="rgb(0, 0, 0)" shape-rendering="geometricPrecision" /><path d="M378.91 136.32 L378.91 136.32 L377.46 135.85 L377.6 135.27 L379.14 135.77 Z" stroke="rgb(0, 0, 0)" stroke-width="0" fill-rule="evenodd" stroke-linejoin="miter" fill="rgb(0, 0, 0)" shape-rendering="geometricPrecision" /><path d="M379.98 133.77 L379.98 133.77 L378.1 133.16 L378.24 132.57 L380.21 133.21 Z" stroke="rgb(0, 0, 0)" stroke-width="0" fill-rule="evenodd" stroke-linejoin="miter" fill="rgb(0, 0, 0)" shape-rendering="geometricPrecision" /><path d="M381.05 131.21 L381.05 131.21 L378.73 130.46 L378.87 129.87 L381.28 130.66 Z" stroke="rgb(0, 0, 0)" stroke-width="0" fill-rule="evenodd" stroke-linejoin="miter" fill="rgb(0, 0, 0)" shape-rendering="geometricPrecision" /><path d="M382.12 128.66 L382.12 128.66 L379.37 127.76 L379.5 127.18 L382.36 128.1 Z" stroke="rgb(0, 0, 0)" stroke-width="0" fill-rule="evenodd" stroke-linejoin="miter" fill="rgb(0, 0, 0)" shape-rendering="geometricPrecision" /></g><g><text xml:space="preserve" text-anchor="start" text-rendering="geometricPrecision"><tspan x="390.73" y="112.69" font-family="Arial" font-size="10" fill="rgb(0, 0, 0)">O</tspan></text></g><g id="Solid"><path d="M380.82 127.99 L380.82 127.99 L380.93 127.64 L381.04 127.29 L394.33 122.97 L394.63 123.19 L394.93 123.41 Z" stroke="rgb(0, 0, 0)" stroke-width="0" fill-rule="evenodd" stroke-linejoin="miter" fill="rgb(0, 0, 0)" shape-rendering="geometricPrecision" /><line x1="381.92" y1="124.59" x2="392.04" y2="121.31" stroke="rgb(0, 0, 0)" stroke-width="0.6" shape-rendering="auto" /></g><g id="Solid"><path d="M394.93 123.41 L394.93 123.41 L394.63 123.19 L394.33 122.97 L394.33 114.5 L394.63 114.5 L394.93 114.5 Z" stroke="rgb(0, 0, 0)" stroke-width="0" fill-rule="evenodd" stroke-linejoin="miter" fill="rgb(0, 0, 0)" shape-rendering="geometricPrecision" /></g><g id="Solid"><path d="M389.97 106.96 L389.97 106.96 L389.88 107.25 L389.79 107.53 L381.04 104.69 L380.93 104.34 L380.82 103.99 Z" stroke="rgb(0, 0, 0)" stroke-width="0" fill-rule="evenodd" stroke-linejoin="miter" fill="rgb(0, 0, 0)" shape-rendering="geometricPrecision" /></g><g id="Solid"><path d="M380.82 103.99 L380.82 103.99 L380.93 104.34 L381.04 104.69 L372.84 115.99 L372.47 115.99 L372.1 115.99 Z" stroke="rgb(0, 0, 0)" stroke-width="0" fill-rule="evenodd" stroke-linejoin="miter" fill="rgb(0, 0, 0)" shape-rendering="geometricPrecision" /><line x1="381.92" y1="107.39" x2="375.67" y2="115.99" stroke="rgb(0, 0, 0)" stroke-width="0.6" shape-rendering="auto" /></g><g id="Solid"><path d="M372.1 115.99 L372.1 115.99 L372.47 115.99 L372.84 115.99 L381.04 127.29 L380.93 127.64 L380.82 127.99 Z" stroke="rgb(0, 0, 0)" stroke-width="0" fill-rule="evenodd" stroke-linejoin="miter" fill="rgb(0, 0, 0)" shape-rendering="geometricPrecision" /></g><g><text xml:space="preserve" text-anchor="start" text-rendering="geometricPrecision"><tspan x="377.03" y="182.22" font-family="Arial" font-size="10" fill="rgb(0, 0, 0)">O</tspan></text></g><g id="Solid"><line x1="377.71" y1="164.22" x2="380.59" y2="173.08" stroke="rgb(0, 0, 0)" stroke-width="0.6" shape-rendering="auto" /><path d="M375.42 164.59 L375.42 164.59 L374.72 164.36 L377.84 173.97 L378.41 173.79 Z" stroke="rgb(0, 0, 0)" stroke-width="0" fill-rule="evenodd" stroke-linejoin="miter" fill="rgb(0, 0, 0)" shape-rendering="geometricPrecision" /><path d="M377.75 163.38 L377.75 163.38 L377.32 163.98 L380.3 173.17 L380.88 172.99 Z" stroke="rgb(0, 0, 0)" stroke-width="0" fill-rule="evenodd" stroke-linejoin="miter" fill="rgb(0, 0, 0)" shape-rendering="geometricPrecision" /></g><g><text xml:space="preserve" text-anchor="start" text-rendering="geometricPrecision"><tspan x="286.25" y="181.73" font-family="Arial" font-size="10" fill="rgb(0, 0, 0)">O</tspan></text></g><g id="Solid"><line x1="304.6" y1="178.37" x2="295.27" y2="178.86" stroke="rgb(0, 0, 0)" stroke-width="0.6" shape-rendering="auto" /><path d="M304.83 176.07 L304.83 176.07 L305.23 175.45 L295.11 175.97 L295.15 176.57 Z" stroke="rgb(0, 0, 0)" stroke-width="0" fill-rule="evenodd" stroke-linejoin="miter" fill="rgb(0, 0, 0)" shape-rendering="geometricPrecision" /><path d="M305.4 178.63 L305.4 178.63 L304.93 178.06 L295.25 178.56 L295.28 179.16 Z" stroke="rgb(0, 0, 0)" stroke-width="0" fill-rule="evenodd" stroke-linejoin="miter" fill="rgb(0, 0, 0)" shape-rendering="geometricPrecision" /></g><g id="Arrow"><line x1="257.88" y1="156.75" x2="200.63" y2="156.75" stroke="rgb(0, 0, 0)" stroke-width="0.6" shape-rendering="auto" /><path d="M262.13 156.75 L256.13 155.25 C257.32 156.09 257.32 157.41 256.13 158.25 Z" stroke="rgb(0, 0, 0)" stroke-width="0" fill-rule="evenodd" stroke-linejoin="miter" stroke-miterlimit="6.93525005514877" fill="rgb(0, 0, 0)" shape-rendering="geometricPrecision" /></g><g><text xml:space="preserve" text-anchor="start" text-rendering="geometricPrecision"><tspan x="224.62" y="150.75" font-family="Symbol" font-size="10" fill="rgb(0, 0, 0)">D</tspan></text></g><g id="Arrow"><path d="M76.48 151.66 C78.89 150.39 80.5 147.73 80.5 145 " stroke="rgb(255, 0, 0)" stroke-width="0.6" fill-rule="evenodd" stroke-linejoin="bevel" fill="none" shape-rendering="geometricPrecision" /><path d="M72.98 152.52 L77.56 152.44 C76.47 152.05 76.23 151.18 76.99 150.29 Z" stroke="rgb(255, 0, 0)" stroke-width="0" fill-rule="evenodd" stroke-linejoin="miter" stroke-miterlimit="6.15038039394081" fill="rgb(255, 0, 0)" shape-rendering="geometricPrecision" /></g><g id="Arrow"><path d="M88.46 158.54 C86.55 158.02 84.4 158.6 83 160 " stroke="rgb(255, 0, 0)" stroke-width="0.6" fill-rule="evenodd" stroke-linejoin="bevel" fill="none" shape-rendering="geometricPrecision" /><path d="M91 160 L88.52 157.6 C88.86 158.47 88.6 158.91 87.68 159.05 Z" stroke="rgb(255, 0, 0)" stroke-width="0" fill-rule="evenodd" stroke-linejoin="miter" stroke-miterlimit="4.91065618851282" fill="rgb(255, 0, 0)" shape-rendering="geometricPrecision" /></g><g id="Arrow"><path d="M89.5 147.23 C90.1 149.97 92.29 152.27 95 153 " stroke="rgb(255, 0, 0)" stroke-width="0.6" fill-rule="evenodd" stroke-linejoin="bevel" fill="none" shape-rendering="geometricPrecision" /><path d="M89.59 143.63 L88.46 148.16 C89.12 147.18 90.06 147.18 90.72 148.16 Z" stroke="rgb(255, 0, 0)" stroke-width="0" fill-rule="evenodd" stroke-linejoin="miter" stroke-miterlimit="6.31355110798745" fill="rgb(255, 0, 0)" shape-rendering="geometricPrecision" /></g></g></g></svg>