<?xml version="1.0"?><svg xmlns="http://www.w3.org/2000/svg" xmlns:xlink="http://www.w3.org/1999/xlink" viewBox="25.35 39.43 478.73 98.37" preserveAspectRatio="xMidYMid" width="100%" height="100%"><clipPath id="236"><rect x="0.43" y="0.43" width="522.34" height="768.82" /></clipPath><g id="drawing"><rect x="25.35" y="39.43" width="100%" height="100%" fill="rgb(255, 255, 255)" /><g id="page" clip-path="url(#236)"><g id="Solid"><path d="M25.35 80.37 L25.35 80.37 L25.78 80.62 L26.21 80.87 L26.21 100.92 L25.78 101.17 L25.35 101.42 Z" stroke="rgb(0, 0, 0)" stroke-width="0" fill-rule="evenodd" stroke-linejoin="miter" fill="rgb(0, 0, 0)" shape-rendering="geometricPrecision" /><line x1="29.48" y1="82.76" x2="29.48" y2="99.03" stroke="rgb(0, 0, 0)" stroke-width="0.86" shape-rendering="auto" /></g><g id="Solid"><path d="M25.35 101.42 L25.35 101.42 L25.78 101.17 L26.21 100.92 L43.58 110.94 L43.58 111.44 L43.58 111.94 Z" stroke="rgb(0, 0, 0)" stroke-width="0" fill-rule="evenodd" stroke-linejoin="miter" fill="rgb(0, 0, 0)" shape-rendering="geometricPrecision" /></g><g id="Solid"><path d="M43.58 111.94 L43.58 111.94 L43.58 111.44 L43.58 110.94 L60.94 100.92 L61.37 101.17 L61.35 101.68 Z" stroke="rgb(0, 0, 0)" stroke-width="0" fill-rule="evenodd" stroke-linejoin="miter" fill="rgb(0, 0, 0)" shape-rendering="geometricPrecision" /></g><g id="Solid"><path d="M61.8 100.9 L61.8 100.9 L61.37 101.17 L60.94 100.92 L60.94 80.87 L61.37 80.62 L61.8 80.37 Z" stroke="rgb(0, 0, 0)" stroke-width="0" fill-rule="evenodd" stroke-linejoin="miter" fill="rgb(0, 0, 0)" shape-rendering="geometricPrecision" /></g><g id="Solid"><path d="M61.8 80.37 L61.8 80.37 L61.37 80.62 L60.94 80.87 L43.58 70.85 L43.58 70.35 L44.01 70.1 Z" stroke="rgb(0, 0, 0)" stroke-width="0" fill-rule="evenodd" stroke-linejoin="miter" fill="rgb(0, 0, 0)" shape-rendering="geometricPrecision" /><line x1="57.67" y1="82.75" x2="43.58" y2="74.62" stroke="rgb(0, 0, 0)" stroke-width="0.86" shape-rendering="auto" /></g><g id="Solid"><path d="M43.15 70.1 L43.15 70.1 L43.58 70.35 L43.58 70.85 L26.21 80.87 L25.78 80.62 L25.35 80.37 Z" stroke="rgb(0, 0, 0)" stroke-width="0" fill-rule="evenodd" stroke-linejoin="miter" fill="rgb(0, 0, 0)" shape-rendering="geometricPrecision" /></g><g><text xml:space="preserve" text-anchor="start" text-rendering="geometricPrecision"><tspan x="38.03" y="137.62" font-family="Arial" font-size="14.25" fill="rgb(0, 0, 0)">OH</tspan></text></g><g id="Wedged Hash Begin Bond"><path d="M43.15 111.44 L43.15 111.44 L44.01 111.44 L44.12 112.3 L43.04 112.3 Z" stroke="rgb(0, 0, 0)" stroke-width="0" fill-rule="evenodd" stroke-linejoin="miter" fill="rgb(0, 0, 0)" shape-rendering="geometricPrecision" /><path d="M42.62 115.68 L42.62 115.68 L44.54 115.68 L44.65 116.54 L42.51 116.54 Z" stroke="rgb(0, 0, 0)" stroke-width="0" fill-rule="evenodd" stroke-linejoin="miter" fill="rgb(0, 0, 0)" shape-rendering="geometricPrecision" /><path d="M42.08 119.92 L42.08 119.92 L45.08 119.92 L45.18 120.78 L41.98 120.78 Z" stroke="rgb(0, 0, 0)" stroke-width="0" fill-rule="evenodd" stroke-linejoin="miter" fill="rgb(0, 0, 0)" shape-rendering="geometricPrecision" /><path d="M41.55 124.16 L41.55 124.16 L45.61 124.16 L45.72 125.02 L41.44 125.02 Z" stroke="rgb(0, 0, 0)" stroke-width="0" fill-rule="evenodd" stroke-linejoin="miter" fill="rgb(0, 0, 0)" shape-rendering="geometricPrecision" /></g><g><text xml:space="preserve" text-anchor="start" text-rendering="geometricPrecision"><tspan x="73.62" y="117.07" font-family="Arial" font-size="14.25" fill="rgb(0, 0, 0)">O</tspan></text></g><g id="WedgeBegin"><path d="M61.35 101.68 L61.35 101.68 L61.37 101.17 L61.8 100.9 L73.59 105.75 L72.53 107.61 L71.46 109.46 Z" stroke="rgb(0, 0, 0)" stroke-width="0" fill-rule="evenodd" stroke-linejoin="miter" fill="rgb(0, 0, 0)" shape-rendering="geometricPrecision" /></g><g><text xml:space="preserve" text-anchor="start" text-rendering="geometricPrecision"><tspan x="38.43" y="55.42" font-family="Arial" font-size="14.25" fill="rgb(0, 0, 0)">CO</tspan><tspan font-family="Arial" dy="3.23" font-size="10.6875" fill="rgb(0, 0, 0)">2</tspan><tspan font-family="Arial" dy="-3.23" font-size="14.25" fill="rgb(0, 0, 0)">H</tspan></text></g><g id="Solid"><path d="M44.01 70.1 L44.01 70.1 L43.58 70.35 L43.15 70.1 L43.15 57.88 L43.58 57.88 L44.01 57.88 Z" stroke="rgb(0, 0, 0)" stroke-width="0" fill-rule="evenodd" stroke-linejoin="miter" fill="rgb(0, 0, 0)" shape-rendering="geometricPrecision" /></g><g id="Solid"><path d="M85.79 108.12 L85.79 108.12 L85.57 107.74 L85.36 107.37 L96.96 100.67 L96.96 101.17 L96.96 101.67 Z" stroke="rgb(0, 0, 0)" stroke-width="0" fill-rule="evenodd" stroke-linejoin="miter" fill="rgb(0, 0, 0)" shape-rendering="geometricPrecision" /></g><g><text xml:space="preserve" text-anchor="start" text-rendering="geometricPrecision"><tspan x="109.61" y="117.07" font-family="Arial" font-size="14.25" fill="rgb(0, 0, 0)">CO</tspan><tspan font-family="Arial" dy="3.23" font-size="10.6875" fill="rgb(0, 0, 0)">2</tspan><tspan font-family="Arial" dy="-3.23" font-size="14.25" fill="rgb(0, 0, 0)">H</tspan></text></g><g id="Solid"><path d="M96.96 101.67 L96.96 101.67 L96.96 101.17 L96.96 100.67 L109.04 107.64 L108.83 108.02 L108.61 108.39 Z" stroke="rgb(0, 0, 0)" stroke-width="0" fill-rule="evenodd" stroke-linejoin="miter" fill="rgb(0, 0, 0)" shape-rendering="geometricPrecision" /></g><g id="Solid"><line x1="95.11" y1="101.17" x2="95.11" y2="80.62" stroke="rgb(0, 0, 0)" stroke-width="0.86" shape-rendering="auto" /><path d="M98.38 101.49 L98.38 101.49 L99.24 101.99 L99.24 80.62 L98.38 80.62 Z" stroke="rgb(0, 0, 0)" stroke-width="0" fill-rule="evenodd" stroke-linejoin="miter" fill="rgb(0, 0, 0)" shape-rendering="geometricPrecision" /><path d="M94.68 101.99 L94.68 101.99 L95.54 101.49 L95.54 80.62 L94.68 80.62 Z" stroke="rgb(0, 0, 0)" stroke-width="0" fill-rule="evenodd" stroke-linejoin="miter" fill="rgb(0, 0, 0)" shape-rendering="geometricPrecision" /></g><g><text xml:space="preserve" text-anchor="start" text-rendering="geometricPrecision"><tspan x="165.58" y="95.28" font-family="Arial" font-size="14.25" fill="rgb(0, 0, 0)">=</tspan></text></g><g id="Solid"><path d="M243.56 103.17 L243.56 103.17 L243.4 103.76 L242.94 103.82 L232.76 86.18 L233.13 85.97 L233.5 85.76 Z" stroke="rgb(0, 0, 0)" stroke-width="0" fill-rule="evenodd" stroke-linejoin="miter" fill="rgb(0, 0, 0)" shape-rendering="geometricPrecision" /></g><g id="Solid"><line x1="232.2" y1="84.37" x2="249.99" y2="74.09" stroke="rgb(0, 0, 0)" stroke-width="0.86" shape-rendering="auto" /><path d="M234.21 86.98 L234.21 86.98 L234.64 87.73 L252.77 77.25 L251.91 76.76 Z" stroke="rgb(0, 0, 0)" stroke-width="0" fill-rule="evenodd" stroke-linejoin="miter" fill="rgb(0, 0, 0)" shape-rendering="geometricPrecision" /><path d="M231.99 84 L231.99 84 L232.42 84.74 L250.21 74.46 L249.78 73.72 Z" stroke="rgb(0, 0, 0)" stroke-width="0" fill-rule="evenodd" stroke-linejoin="miter" fill="rgb(0, 0, 0)" shape-rendering="geometricPrecision" /></g><g id="Solid"><path d="M243.77 104.04 L243.77 104.04 L243.4 103.76 L243.56 103.17 L260.77 93.24 L261.2 93.49 L261.2 93.99 Z" stroke="rgb(0, 0, 0)" stroke-width="0" fill-rule="evenodd" stroke-linejoin="miter" fill="rgb(0, 0, 0)" shape-rendering="geometricPrecision" /></g><g id="Solid"><path d="M261.2 93.99 L261.2 93.99 L261.2 93.49 L261.63 93.24 L279.2 103.39 L278.99 103.76 L278.78 104.13 Z" stroke="rgb(0, 0, 0)" stroke-width="0" fill-rule="evenodd" stroke-linejoin="miter" fill="rgb(0, 0, 0)" shape-rendering="geometricPrecision" /></g><g id="Solid"><g id="Bond's parts"><path d="M251.05 75.35 L251.05 75.35 L251.25 75.4 L251.45 75.5 L251.68 75.6 L251.73 75.7 L251.95 75.8 L252.15 75.9 L252.38 76 L252.43 76.1 L252.65 76.2 L252.85 76.3 L253.07 76.4 L253.12 76.5 L253.35 76.6 L253.55 76.7 L253.77 76.8 L253.82 76.9 L254.05 77 L254.27 77.1 L254.32 77.2 L254.55 77.3 L254.75 77.4 L254.98 77.5 L255.02 77.6 L255.25 77.7 L255.45 77.8 L255.68 77.9 L255.73 78 L255.95 78.1 L256.15 78.2 L256.38 78.3 L256.42 78.4 L256.65 78.5 L256.88 78.6 L256.92 78.7 L257.15 78.8 L257.35 78.9 L257.58 79 L257.62 79.1 L257.85 79.2 L258.08 79.3 L258.1 79.35 L258.1 80.35 L258.08 80.3 L257.85 80.2 L257.62 80.1 L257.58 80 L257.35 79.9 L257.12 79.8 L257.08 79.7 L256.85 79.6 L256.65 79.5 L256.42 79.4 L256.38 79.3 L256.15 79.2 L255.95 79.1 L255.73 79 L255.68 78.9 L255.45 78.8 L255.25 78.7 L255.02 78.6 L254.98 78.5 L254.75 78.4 L254.52 78.3 L254.48 78.2 L254.25 78.1 L254.05 78 L253.82 77.9 L253.77 77.8 L253.55 77.7 L253.35 77.6 L253.12 77.5 L253.07 77.4 L252.85 77.3 L252.62 77.2 L252.57 77.1 L252.35 77 L252.15 76.9 L251.93 76.8 L251.88 76.7 L251.65 76.6 L251.45 76.5 L251.23 76.4 L251.18 76.3 L250.95 76.2 L250.75 76.15 L250.8 75.85 L250.85 75.8 L250.9 75.75 Z" stroke="rgb(0, 0, 0)" stroke-width="0" fill-rule="evenodd" stroke-linejoin="miter" fill="rgb(0, 0, 0)" shape-rendering="geometricPrecision" /><path d="M263.55 82.55 L263.55 82.55 L263.75 82.6 L263.98 82.7 L264.02 82.8 L264.25 82.9 L264.45 83 L264.67 83.1 L264.73 83.2 L264.95 83.3 L265.15 83.4 L265.38 83.5 L265.42 83.6 L265.65 83.7 L265.88 83.8 L265.92 83.9 L266.15 84 L266.35 84.1 L266.58 84.2 L266.62 84.3 L266.85 84.4 L267.05 84.5 L267.27 84.6 L267.33 84.7 L267.55 84.8 L267.75 84.9 L267.98 85 L268.02 85.1 L268.25 85.2 L268.48 85.3 L268.52 85.4 L268.75 85.45 L268.7 86.15 L268.65 86.35 L268.45 86.3 L268.25 86.2 L268.02 86.1 L267.98 86 L267.75 85.9 L267.55 85.8 L267.33 85.7 L267.27 85.6 L267.05 85.5 L266.85 85.4 L266.62 85.3 L266.58 85.2 L266.35 85.1 L266.12 85 L266.08 84.9 L265.85 84.8 L265.65 84.7 L265.42 84.6 L265.38 84.5 L265.15 84.4 L264.95 84.3 L264.73 84.2 L264.67 84.1 L264.45 84 L264.23 83.9 L264.17 83.8 L263.95 83.7 L263.75 83.6 Z" stroke="rgb(0, 0, 0)" stroke-width="0" fill-rule="evenodd" stroke-linejoin="miter" fill="rgb(0, 0, 0)" shape-rendering="geometricPrecision" /></g></g><g id="Solid"><line x1="270.32" y1="85.05" x2="280.59" y2="102.84" stroke="rgb(0, 0, 0)" stroke-width="0.86" shape-rendering="auto" /><path d="M266.69 85.3 L266.69 85.3 L265.2 84.44 L275.47 102.23 L276.96 103.09 Z" stroke="rgb(0, 0, 0)" stroke-width="0" fill-rule="evenodd" stroke-linejoin="miter" fill="rgb(0, 0, 0)" shape-rendering="geometricPrecision" /><path d="M271.22 85.74 L271.22 85.74 L270.36 85.98 L280.22 103.05 L280.96 102.62 Z" stroke="rgb(0, 0, 0)" stroke-width="0" fill-rule="evenodd" stroke-linejoin="miter" fill="rgb(0, 0, 0)" shape-rendering="geometricPrecision" /></g><g><text xml:space="preserve" text-anchor="start" text-rendering="geometricPrecision"><tspan x="255.65" y="68.07" font-family="Arial" font-size="14.25" fill="rgb(0, 0, 0)">O</tspan></text></g><g id="Solid"><path d="M261.63 93.24 L261.63 93.24 L261.2 93.49 L260.77 93.24 L260.77 70.58 L261.2 70.58 L261.63 70.58 Z" stroke="rgb(0, 0, 0)" stroke-width="0" fill-rule="evenodd" stroke-linejoin="miter" fill="rgb(0, 0, 0)" shape-rendering="geometricPrecision" /></g><g id="Solid"><path d="M255.14 58.45 L255.14 58.45 L254.93 58.82 L254.71 59.19 L243.28 52.6 L243.4 52.17 L243.52 51.74 Z" stroke="rgb(0, 0, 0)" stroke-width="0" fill-rule="evenodd" stroke-linejoin="miter" fill="rgb(0, 0, 0)" shape-rendering="geometricPrecision" /></g><g id="Solid"><line x1="242.47" y1="50.57" x2="260.27" y2="40.29" stroke="rgb(0, 0, 0)" stroke-width="0.86" shape-rendering="auto" /><path d="M245.25 52.74 L245.25 52.74 L246.11 53.24 L262.34 43.86 L261.91 43.12 Z" stroke="rgb(0, 0, 0)" stroke-width="0" fill-rule="evenodd" stroke-linejoin="miter" fill="rgb(0, 0, 0)" shape-rendering="geometricPrecision" /><path d="M239.59 51.74 L239.59 51.74 L241.31 51.74 L260.49 40.66 L260.06 39.92 Z" stroke="rgb(0, 0, 0)" stroke-width="0" fill-rule="evenodd" stroke-linejoin="miter" fill="rgb(0, 0, 0)" shape-rendering="geometricPrecision" /></g><g id="Solid"><path d="M243.52 51.74 L243.52 51.74 L243.4 52.17 L243.28 52.6 L227.41 52.6 L227.41 52.17 L227.41 51.74 Z" stroke="rgb(0, 0, 0)" stroke-width="0" fill-rule="evenodd" stroke-linejoin="miter" fill="rgb(0, 0, 0)" shape-rendering="geometricPrecision" /></g><g><text xml:space="preserve" text-anchor="end" text-rendering="geometricPrecision"><tspan x="228" y="57.79" font-family="Arial" font-size="14.25" fill="rgb(0, 0, 0)">HO</tspan><tspan font-family="Arial" dy="3.23" font-size="10.6875" fill="rgb(0, 0, 0)">2</tspan><tspan font-family="Arial" dy="-3.23" font-size="14.25" fill="rgb(0, 0, 0)">C</tspan></text></g><g><text xml:space="preserve" text-anchor="start" text-rendering="geometricPrecision"><tspan x="283.42" y="86.27" font-family="Arial" font-size="14.25" fill="rgb(0, 0, 0)">CO</tspan><tspan font-family="Arial" dy="3.23" font-size="10.6875" fill="rgb(0, 0, 0)">2</tspan><tspan font-family="Arial" dy="-3.23" font-size="14.25" fill="rgb(0, 0, 0)">H</tspan></text></g><g id="Solid"><path d="M268.66 86.43 L268.66 86.43 L268.72 85.97 L268.78 85.51 L281.89 82 L282 82.41 L282.11 82.83 Z" stroke="rgb(0, 0, 0)" stroke-width="0" fill-rule="evenodd" stroke-linejoin="miter" fill="rgb(0, 0, 0)" shape-rendering="geometricPrecision" /></g><g><text xml:space="preserve" text-anchor="end" text-rendering="geometricPrecision"><tspan x="243.63" y="129.24" font-family="Arial" font-size="14.25" fill="rgb(0, 0, 0)">HO</tspan></text></g><g id="Arrow"><path d="M269.13 104.45 C269.33 108.66 272.9 111.91 277.1 111.72 C281.31 111.52 284.56 107.94 284.37 103.73 C284.19 99.96 280.92 96.67 277.16 96.47 " stroke="rgb(255, 0, 0)" stroke-width="0.86" fill-rule="evenodd" stroke-linejoin="bevel" fill="none" shape-rendering="geometricPrecision" /><path d="M270.65 99.51 L267.35 105.8 C268.6 104.76 270.07 105.12 270.7 106.61 Z" stroke="rgb(255, 0, 0)" stroke-width="0" fill-rule="evenodd" stroke-linejoin="miter" stroke-miterlimit="9.95737074194091" fill="rgb(255, 0, 0)" shape-rendering="geometricPrecision" /></g><g id="Solid"><path d="M426.56 109.83 L426.56 109.83 L426.4 110.42 L425.94 110.48 L415.76 92.83 L416.13 92.62 L416.5 92.41 Z" stroke="rgb(0, 0, 0)" stroke-width="0" fill-rule="evenodd" stroke-linejoin="miter" fill="rgb(0, 0, 0)" shape-rendering="geometricPrecision" /></g><g id="Solid"><line x1="415.21" y1="91.02" x2="433" y2="80.75" stroke="rgb(0, 0, 0)" stroke-width="0.86" shape-rendering="auto" /><path d="M417.21 93.63 L417.21 93.63 L417.64 94.38 L435.77 83.91 L434.91 83.42 Z" stroke="rgb(0, 0, 0)" stroke-width="0" fill-rule="evenodd" stroke-linejoin="miter" fill="rgb(0, 0, 0)" shape-rendering="geometricPrecision" /><path d="M414.99 90.65 L414.99 90.65 L415.42 91.39 L433.21 81.12 L432.78 80.38 Z" stroke="rgb(0, 0, 0)" stroke-width="0" fill-rule="evenodd" stroke-linejoin="miter" fill="rgb(0, 0, 0)" shape-rendering="geometricPrecision" /></g><g id="Solid"><path d="M426.77 110.7 L426.77 110.7 L426.4 110.42 L426.56 109.83 L443.98 99.77 L444.2 100.14 L444.42 100.51 Z" stroke="rgb(0, 0, 0)" stroke-width="0" fill-rule="evenodd" stroke-linejoin="miter" fill="rgb(0, 0, 0)" shape-rendering="geometricPrecision" /></g><g id="Solid"><line x1="445.13" y1="98.54" x2="462.92" y2="108.82" stroke="rgb(0, 0, 0)" stroke-width="0.86" shape-rendering="auto" /><path d="M443.21 101.21 L443.21 101.21 L442.35 101.7 L460.85 112.39 L461.28 111.65 Z" stroke="rgb(0, 0, 0)" stroke-width="0" fill-rule="evenodd" stroke-linejoin="miter" fill="rgb(0, 0, 0)" shape-rendering="geometricPrecision" /><path d="M445.34 98.17 L445.34 98.17 L444.91 98.91 L461.32 108.39 L460.46 106.9 Z" stroke="rgb(0, 0, 0)" stroke-width="0" fill-rule="evenodd" stroke-linejoin="miter" fill="rgb(0, 0, 0)" shape-rendering="geometricPrecision" /></g><g id="Solid"><path d="M433.71 82.72 L433.71 82.72 L433.92 82.35 L434.13 81.98 L451.29 91.88 L451.72 92.62 L451.41 92.93 Z" stroke="rgb(0, 0, 0)" stroke-width="0" fill-rule="evenodd" stroke-linejoin="miter" fill="rgb(0, 0, 0)" shape-rendering="geometricPrecision" /></g><g id="Solid"><path d="M451.41 92.93 L451.41 92.93 L451.72 92.62 L452.37 92.89 L462.36 110.21 L461.99 110.42 L461.62 110.63 Z" stroke="rgb(0, 0, 0)" stroke-width="0" fill-rule="evenodd" stroke-linejoin="miter" fill="rgb(0, 0, 0)" shape-rendering="geometricPrecision" /></g><g><text xml:space="preserve" text-anchor="start" text-rendering="geometricPrecision"><tspan x="466.42" y="92.93" font-family="Arial" font-size="14.25" fill="rgb(0, 0, 0)">CO</tspan><tspan font-family="Arial" dy="3.23" font-size="10.6875" fill="rgb(0, 0, 0)">2</tspan><tspan font-family="Arial" dy="-3.23" font-size="14.25" fill="rgb(0, 0, 0)">H</tspan></text></g><g id="Solid"><path d="M452.37 92.89 L452.37 92.89 L451.72 92.62 L452.15 92.06 L464.89 88.65 L465 89.06 L465.11 89.48 Z" stroke="rgb(0, 0, 0)" stroke-width="0" fill-rule="evenodd" stroke-linejoin="miter" fill="rgb(0, 0, 0)" shape-rendering="geometricPrecision" /></g><g id="Solid"><path d="M425.94 110.48 L425.94 110.48 L426.4 110.42 L426.77 110.7 L423.34 123.51 L422.92 123.4 L422.51 123.29 Z" stroke="rgb(0, 0, 0)" stroke-width="0" fill-rule="evenodd" stroke-linejoin="miter" fill="rgb(0, 0, 0)" shape-rendering="geometricPrecision" /></g><g><text xml:space="preserve" text-anchor="end" text-rendering="geometricPrecision"><tspan x="426.63" y="135.89" font-family="Arial" font-size="14.25" fill="rgb(0, 0, 0)">HO</tspan></text></g><g id="Solid"><path d="M452.15 92.06 L452.15 92.06 L451.72 92.62 L451.29 91.88 L451.29 72.32 L451.72 72.07 L452.15 71.82 Z" stroke="rgb(0, 0, 0)" stroke-width="0" fill-rule="evenodd" stroke-linejoin="miter" fill="rgb(0, 0, 0)" shape-rendering="geometricPrecision" /></g><g id="Solid"><path d="M452.15 71.82 L452.15 71.82 L451.72 72.07 L451.29 72.32 L433.06 61.8 L433.92 61.8 L434.78 61.8 Z" stroke="rgb(0, 0, 0)" stroke-width="0" fill-rule="evenodd" stroke-linejoin="miter" fill="rgb(0, 0, 0)" shape-rendering="geometricPrecision" /></g><g id="Solid"><line x1="433.92" y1="63.65" x2="420.58" y2="63.65" stroke="rgb(0, 0, 0)" stroke-width="0.86" shape-rendering="auto" /><path d="M435.52 60.38 L435.52 60.38 L437.01 59.52 L420.58 59.52 L420.58 60.38 Z" stroke="rgb(0, 0, 0)" stroke-width="0" fill-rule="evenodd" stroke-linejoin="miter" fill="rgb(0, 0, 0)" shape-rendering="geometricPrecision" /><path d="M437.01 64.08 L437.01 64.08 L435.52 63.22 L420.58 63.22 L420.58 64.08 Z" stroke="rgb(0, 0, 0)" stroke-width="0" fill-rule="evenodd" stroke-linejoin="miter" fill="rgb(0, 0, 0)" shape-rendering="geometricPrecision" /></g><g><text xml:space="preserve" text-anchor="start" text-rendering="geometricPrecision"><tspan x="407.82" y="67.42" font-family="Arial" font-size="14.25" fill="rgb(0, 0, 0)">O</tspan></text></g><g><text xml:space="preserve" text-anchor="start" text-rendering="geometricPrecision"><tspan x="446.57" y="57.15" font-family="Arial" font-size="14.25" fill="rgb(0, 0, 0)">CO</tspan><tspan font-family="Arial" dy="3.23" font-size="10.6875" fill="rgb(0, 0, 0)">2</tspan><tspan font-family="Arial" dy="-3.23" font-size="14.25" fill="rgb(0, 0, 0)">H</tspan></text></g><g id="Solid"><path d="M434.78 61.8 L434.78 61.8 L433.92 61.8 L433.06 61.8 L445.31 54.73 L445.53 55.1 L445.74 55.47 Z" stroke="rgb(0, 0, 0)" stroke-width="0" fill-rule="evenodd" stroke-linejoin="miter" fill="rgb(0, 0, 0)" shape-rendering="geometricPrecision" /></g><g id="Solid"><path d="M242.94 103.82 L242.94 103.82 L243.4 103.76 L243.77 104.04 L240.32 116.91 L239.91 116.8 L239.49 116.69 Z" stroke="rgb(0, 0, 0)" stroke-width="0" fill-rule="evenodd" stroke-linejoin="miter" fill="rgb(0, 0, 0)" shape-rendering="geometricPrecision" /></g><g id="Arrow"><g id="Equilibrium Arrow"><line x1="385.14" y1="85.71" x2="329.25" y2="85.71" stroke="rgb(0, 0, 0)" stroke-width="0.86" shape-rendering="auto" /><line x1="390.38" y1="88.29" x2="334.48" y2="88.29" stroke="rgb(0, 0, 0)" stroke-width="0.86" shape-rendering="auto" /></g><path d="M391.67 86.14 L383.07 83.56 C384.58 85.01 384.14 86.14 384.14 86.14 Z" stroke="rgb(0, 0, 0)" stroke-width="0" fill-rule="evenodd" stroke-linejoin="miter" stroke-miterlimit="8.67920642970925" fill="rgb(0, 0, 0)" shape-rendering="geometricPrecision" /><path d="M327.96 87.86 L336.56 90.44 C335.05 88.99 335.48 87.86 335.48 87.86 Z" stroke="rgb(0, 0, 0)" stroke-width="0" fill-rule="evenodd" stroke-linejoin="miter" stroke-miterlimit="8.67920642970925" fill="rgb(0, 0, 0)" shape-rendering="geometricPrecision" /></g><g id="Arrow"><path d="M248.73 64.49 C249.34 70.09 253.6 75.05 259.03 76.51 " stroke="rgb(255, 0, 0)" stroke-width="0.86" fill-rule="evenodd" stroke-linejoin="bevel" fill="none" shape-rendering="geometricPrecision" /><path d="M249.13 59.35 L247.1 66.14 C248.12 64.89 249.63 64.96 250.53 66.3 Z" stroke="rgb(255, 0, 0)" stroke-width="0" fill-rule="evenodd" stroke-linejoin="miter" stroke-miterlimit="9.9405250790466" fill="rgb(255, 0, 0)" shape-rendering="geometricPrecision" /></g><g id="Arrow"><path d="M268.95 76.09 C272.13 65.95 267.49 54.06 258.28 48.74 " stroke="rgb(255, 0, 0)" stroke-width="0.86" fill-rule="evenodd" stroke-linejoin="bevel" fill="none" shape-rendering="geometricPrecision" /><path d="M266.88 80.82 L271.11 75.13 C269.72 75.96 268.33 75.38 267.94 73.81 Z" stroke="rgb(255, 0, 0)" stroke-width="0" fill-rule="evenodd" stroke-linejoin="miter" stroke-miterlimit="9.94476366603167" fill="rgb(255, 0, 0)" shape-rendering="geometricPrecision" /></g></g></g></svg>