<?xml version="1.0"?><svg xmlns="http://www.w3.org/2000/svg" xmlns:xlink="http://www.w3.org/1999/xlink" viewBox="111.61 76.31 344.96 83.65" preserveAspectRatio="xMidYMid" width="100%" height="100%"><clipPath id="132"><rect x="0.3" y="0.3" width="522.6" height="769.08" /></clipPath><g id="drawing"><rect x="111.61" y="76.31" width="100%" height="100%" fill="rgb(255, 255, 255)" /><g id="page" clip-path="url(#132)"><g><text xml:space="preserve" text-anchor="start" text-rendering="geometricPrecision"><tspan x="201.73" y="122.3" font-family="Arial" font-size="10" fill="rgb(0, 0, 0)">O</tspan></text></g><g id="Solid"><path d="M172.51 107.52 L172.51 107.52 L172.81 107.74 L173.11 107.96 L173.11 128.85 L172.81 129.07 L172.51 129.29 Z" stroke="rgb(0, 0, 0)" stroke-width="0" fill-rule="evenodd" stroke-linejoin="miter" fill="rgb(0, 0, 0)" shape-rendering="geometricPrecision" /><line x1="176.65" y1="110.53" x2="176.65" y2="126.28" stroke="rgb(0, 0, 0)" stroke-width="0.6" shape-rendering="auto" /></g><g id="Solid"><path d="M172.51 129.29 L172.51 129.29 L172.81 129.07 L173.11 128.85 L192.98 135.31 L193.09 135.66 L193.2 136.01 Z" stroke="rgb(0, 0, 0)" stroke-width="0" fill-rule="evenodd" stroke-linejoin="miter" fill="rgb(0, 0, 0)" shape-rendering="geometricPrecision" /></g><g id="Solid"><path d="M193.2 136.01 L193.2 136.01 L193.09 135.66 L192.98 135.31 L202.02 122.86 L202.26 123.04 L202.5 123.22 Z" stroke="rgb(0, 0, 0)" stroke-width="0" fill-rule="evenodd" stroke-linejoin="miter" fill="rgb(0, 0, 0)" shape-rendering="geometricPrecision" /></g><g id="Solid"><path d="M202.9 114.13 L202.9 114.13 L202.65 114.31 L202.41 114.48 L192.98 101.5 L193.09 101.15 L193.2 100.8 Z" stroke="rgb(0, 0, 0)" stroke-width="0" fill-rule="evenodd" stroke-linejoin="miter" fill="rgb(0, 0, 0)" shape-rendering="geometricPrecision" /></g><g id="Solid"><path d="M193.2 100.8 L193.2 100.8 L193.09 101.15 L192.98 101.5 L173.11 107.96 L172.81 107.74 L172.51 107.52 Z" stroke="rgb(0, 0, 0)" stroke-width="0" fill-rule="evenodd" stroke-linejoin="miter" fill="rgb(0, 0, 0)" shape-rendering="geometricPrecision" /></g><g id="Solid"><path d="M112.21 128.34 L112.21 128.34 L111.91 128.51 L111.61 128.68 L111.78 107 L112.08 107.18 L112.38 107.36 Z" stroke="rgb(0, 0, 0)" stroke-width="0" fill-rule="evenodd" stroke-linejoin="miter" fill="rgb(0, 0, 0)" shape-rendering="geometricPrecision" /></g><g id="Solid"><path d="M112.38 107.36 L112.38 107.36 L112.08 107.18 L111.78 107 L130.48 96.41 L130.63 96.67 L130.78 96.93 Z" stroke="rgb(0, 0, 0)" stroke-width="0" fill-rule="evenodd" stroke-linejoin="miter" fill="rgb(0, 0, 0)" shape-rendering="geometricPrecision" /><line x1="115.9" y1="109.43" x2="132.52" y2="100.01" stroke="rgb(0, 0, 0)" stroke-width="0.6" shape-rendering="auto" /></g><g id="Solid"><path d="M111.61 128.68 L111.61 128.68 L111.91 128.51 L112.21 128.34 L130.44 139.06 L130.29 139.32 L130.14 139.58 Z" stroke="rgb(0, 0, 0)" stroke-width="0" fill-rule="evenodd" stroke-linejoin="miter" fill="rgb(0, 0, 0)" shape-rendering="geometricPrecision" /><line x1="115.77" y1="126.32" x2="132.24" y2="136.01" stroke="rgb(0, 0, 0)" stroke-width="0.6" shape-rendering="auto" /></g><g id="Solid"><line x1="191.26" y1="100.56" x2="196.05" y2="85.83" stroke="rgb(0, 0, 0)" stroke-width="0.6" shape-rendering="auto" /><path d="M194.38 102.42 L194.38 102.42 L194.82 103.02 L199.99 87.11 L199.42 86.92 Z" stroke="rgb(0, 0, 0)" stroke-width="0" fill-rule="evenodd" stroke-linejoin="miter" fill="rgb(0, 0, 0)" shape-rendering="geometricPrecision" /><path d="M190.6 101.65 L190.6 101.65 L191.3 101.42 L196.34 85.92 L195.77 85.74 Z" stroke="rgb(0, 0, 0)" stroke-width="0" fill-rule="evenodd" stroke-linejoin="miter" fill="rgb(0, 0, 0)" shape-rendering="geometricPrecision" /></g><g><text xml:space="preserve" text-anchor="start" text-rendering="geometricPrecision"><tspan x="195.78" y="84.77" font-family="Arial" font-size="10" fill="rgb(0, 0, 0)">O</tspan></text></g><g id="Solid"><line x1="194.92" y1="135.07" x2="199.93" y2="150.49" stroke="rgb(0, 0, 0)" stroke-width="0.6" shape-rendering="auto" /><path d="M191.3 135.39 L191.3 135.39 L190.6 135.16 L195.99 151.76 L196.56 151.58 Z" stroke="rgb(0, 0, 0)" stroke-width="0" fill-rule="evenodd" stroke-linejoin="miter" fill="rgb(0, 0, 0)" shape-rendering="geometricPrecision" /><path d="M194.82 133.79 L194.82 133.79 L194.38 134.39 L199.64 150.58 L200.21 150.39 Z" stroke="rgb(0, 0, 0)" stroke-width="0" fill-rule="evenodd" stroke-linejoin="miter" fill="rgb(0, 0, 0)" shape-rendering="geometricPrecision" /></g><g><text xml:space="preserve" text-anchor="start" text-rendering="geometricPrecision"><tspan x="195.78" y="159.84" font-family="Arial" font-size="10" fill="rgb(0, 0, 0)">O</tspan></text></g><g id="Arrow"><line x1="338.6" y1="118.36" x2="251.03" y2="118.36" stroke="rgb(0, 0, 0)" stroke-width="0.6" shape-rendering="auto" /><path d="M342.85 118.36 L336.85 116.86 C338.04 117.7 338.04 119.02 336.85 119.86 Z" stroke="rgb(0, 0, 0)" stroke-width="0" fill-rule="evenodd" stroke-linejoin="miter" stroke-miterlimit="6.93525005514877" fill="rgb(0, 0, 0)" shape-rendering="geometricPrecision" /></g><g><text xml:space="preserve" text-anchor="start" text-rendering="geometricPrecision"><tspan x="285.94" y="109.7" font-family="Symbol" font-size="14.8" fill="rgb(0, 0, 0)">D</tspan></text></g><g><text xml:space="preserve" text-anchor="start" text-rendering="geometricPrecision"><tspan x="448.77" y="122.3" font-family="Arial" font-size="10" fill="rgb(0, 0, 0)">O</tspan></text></g><g id="Solid"><path d="M419.56 107.91 L419.56 107.91 L419.86 107.74 L420.16 107.96 L420.16 128.85 L419.86 129.07 L419.56 128.9 Z" stroke="rgb(0, 0, 0)" stroke-width="0" fill-rule="evenodd" stroke-linejoin="miter" fill="rgb(0, 0, 0)" shape-rendering="geometricPrecision" /></g><g id="Solid"><path d="M420.23 129.51 L420.23 129.51 L419.86 129.07 L420.16 128.85 L440.03 135.31 L440.14 135.66 L440.25 136.01 Z" stroke="rgb(0, 0, 0)" stroke-width="0" fill-rule="evenodd" stroke-linejoin="miter" fill="rgb(0, 0, 0)" shape-rendering="geometricPrecision" /></g><g id="Solid"><path d="M440.25 136.01 L440.25 136.01 L440.14 135.66 L440.03 135.31 L449.02 122.92 L449.26 123.09 L449.5 123.27 Z" stroke="rgb(0, 0, 0)" stroke-width="0" fill-rule="evenodd" stroke-linejoin="miter" fill="rgb(0, 0, 0)" shape-rendering="geometricPrecision" /></g><g id="Solid"><path d="M449.87 114.03 L449.87 114.03 L449.62 114.21 L449.38 114.38 L440.03 101.5 L440.14 101.15 L440.25 100.8 Z" stroke="rgb(0, 0, 0)" stroke-width="0" fill-rule="evenodd" stroke-linejoin="miter" fill="rgb(0, 0, 0)" shape-rendering="geometricPrecision" /></g><g id="Solid"><path d="M440.25 100.8 L440.25 100.8 L440.14 101.15 L440.03 101.5 L420.16 107.96 L419.86 107.74 L420.23 107.3 Z" stroke="rgb(0, 0, 0)" stroke-width="0" fill-rule="evenodd" stroke-linejoin="miter" fill="rgb(0, 0, 0)" shape-rendering="geometricPrecision" /></g><g id="Solid"><line x1="438.31" y1="100.56" x2="443.1" y2="85.83" stroke="rgb(0, 0, 0)" stroke-width="0.6" shape-rendering="auto" /><path d="M441.43 102.42 L441.43 102.42 L441.87 103.02 L447.04 87.11 L446.47 86.92 Z" stroke="rgb(0, 0, 0)" stroke-width="0" fill-rule="evenodd" stroke-linejoin="miter" fill="rgb(0, 0, 0)" shape-rendering="geometricPrecision" /><path d="M437.65 101.65 L437.65 101.65 L438.35 101.42 L443.39 85.92 L442.82 85.74 Z" stroke="rgb(0, 0, 0)" stroke-width="0" fill-rule="evenodd" stroke-linejoin="miter" fill="rgb(0, 0, 0)" shape-rendering="geometricPrecision" /></g><g><text xml:space="preserve" text-anchor="start" text-rendering="geometricPrecision"><tspan x="442.83" y="84.77" font-family="Arial" font-size="10" fill="rgb(0, 0, 0)">O</tspan></text></g><g><text xml:space="preserve" text-anchor="start" text-rendering="geometricPrecision"><tspan x="442.83" y="159.84" font-family="Arial" font-size="10" fill="rgb(0, 0, 0)">O</tspan></text></g><g id="Solid"><line x1="441.97" y1="135.07" x2="446.98" y2="150.49" stroke="rgb(0, 0, 0)" stroke-width="0.6" shape-rendering="auto" /><path d="M438.35 135.39 L438.35 135.39 L437.65 135.16 L443.04 151.76 L443.61 151.58 Z" stroke="rgb(0, 0, 0)" stroke-width="0" fill-rule="evenodd" stroke-linejoin="miter" fill="rgb(0, 0, 0)" shape-rendering="geometricPrecision" /><path d="M441.87 133.79 L441.87 133.79 L441.43 134.39 L446.69 150.58 L447.26 150.39 Z" stroke="rgb(0, 0, 0)" stroke-width="0" fill-rule="evenodd" stroke-linejoin="miter" fill="rgb(0, 0, 0)" shape-rendering="geometricPrecision" /></g><g id="Solid"><path d="M419.58 107.23 L419.58 107.23 L419.86 107.74 L419.56 107.91 L401.39 97.43 L401.39 97.08 L401.39 96.73 Z" stroke="rgb(0, 0, 0)" stroke-width="0" fill-rule="evenodd" stroke-linejoin="miter" fill="rgb(0, 0, 0)" shape-rendering="geometricPrecision" /></g><g id="Solid"><path d="M401.39 96.73 L401.39 96.73 L401.39 97.08 L401.39 97.43 L383.22 107.91 L382.92 107.74 L382.62 107.57 Z" stroke="rgb(0, 0, 0)" stroke-width="0" fill-rule="evenodd" stroke-linejoin="miter" fill="rgb(0, 0, 0)" shape-rendering="geometricPrecision" /></g><g id="Solid"><path d="M382.62 107.57 L382.62 107.57 L382.92 107.74 L383.22 107.91 L383.22 128.9 L382.92 129.07 L382.62 129.24 Z" stroke="rgb(0, 0, 0)" stroke-width="0" fill-rule="evenodd" stroke-linejoin="miter" fill="rgb(0, 0, 0)" shape-rendering="geometricPrecision" /><line x1="386.76" y1="109.96" x2="386.76" y2="126.85" stroke="rgb(0, 0, 0)" stroke-width="0.6" shape-rendering="auto" /></g><g id="Solid"><path d="M382.62 129.24 L382.62 129.24 L382.92 129.07 L383.22 128.9 L401.39 139.38 L401.39 139.73 L401.39 140.08 Z" stroke="rgb(0, 0, 0)" stroke-width="0" fill-rule="evenodd" stroke-linejoin="miter" fill="rgb(0, 0, 0)" shape-rendering="geometricPrecision" /></g><g id="Solid"><path d="M401.39 140.08 L401.39 140.08 L401.39 139.73 L401.39 139.38 L419.56 128.9 L419.86 129.07 L419.58 129.58 Z" stroke="rgb(0, 0, 0)" stroke-width="0" fill-rule="evenodd" stroke-linejoin="miter" fill="rgb(0, 0, 0)" shape-rendering="geometricPrecision" /></g><g id="WedgeBegin"><path d="M420.23 107.3 L420.23 107.3 L419.86 107.74 L419.58 107.23 L420.01 91.94 L421.5 92.09 L422.99 92.25 Z" stroke="rgb(0, 0, 0)" stroke-width="0" fill-rule="evenodd" stroke-linejoin="miter" fill="rgb(0, 0, 0)" shape-rendering="geometricPrecision" /></g><g><text xml:space="preserve" text-anchor="start" text-rendering="geometricPrecision"><tspan x="418.48" y="90.43" font-family="Arial" font-size="10" fill="rgb(0, 0, 0)">H</tspan></text></g><g id="WedgeBegin"><path d="M419.58 129.58 L419.58 129.58 L419.86 129.07 L420.23 129.51 L423.07 145.35 L421.58 145.51 L420.09 145.66 Z" stroke="rgb(0, 0, 0)" stroke-width="0" fill-rule="evenodd" stroke-linejoin="miter" fill="rgb(0, 0, 0)" shape-rendering="geometricPrecision" /></g><g><text xml:space="preserve" text-anchor="start" text-rendering="geometricPrecision"><tspan x="418.48" y="154.18" font-family="Arial" font-size="10" fill="rgb(0, 0, 0)">H</tspan></text></g><g id="Arrow"><path d="M147.68 106.1 C151.58 115.31 162.4 120.79 172.13 118.51 " stroke="rgb(255, 0, 0)" stroke-width="0.6" fill-rule="evenodd" stroke-linejoin="bevel" fill="none" shape-rendering="geometricPrecision" /><path d="M146.56 102.68 L146.98 107.61 C147.28 106.41 148.28 106.07 149.25 106.83 Z" stroke="rgb(255, 0, 0)" stroke-width="0" fill-rule="evenodd" stroke-linejoin="miter" stroke-miterlimit="6.93932223612708" fill="rgb(255, 0, 0)" shape-rendering="geometricPrecision" /></g><g id="Arrow"><path d="M116.15 120.18 C120.43 117.46 122.61 111.89 121.3 106.99 " stroke="rgb(255, 0, 0)" stroke-width="0.6" fill-rule="evenodd" stroke-linejoin="bevel" fill="none" shape-rendering="geometricPrecision" /><path d="M112.85 121.62 L117.71 120.67 C116.48 120.5 116.03 119.55 116.69 118.5 Z" stroke="rgb(255, 0, 0)" stroke-width="0" fill-rule="evenodd" stroke-linejoin="miter" stroke-miterlimit="6.93525005514864" fill="rgb(255, 0, 0)" shape-rendering="geometricPrecision" /></g><g id="Arrow"><path d="M149.65 132.05 C141.21 126.01 128.64 127.04 121.3 134.38 " stroke="rgb(255, 0, 0)" stroke-width="0.6" fill-rule="evenodd" stroke-linejoin="bevel" fill="none" shape-rendering="geometricPrecision" /><path d="M152.4 134.38 L149.46 130.4 C149.83 131.58 149.16 132.39 147.93 132.25 Z" stroke="rgb(255, 0, 0)" stroke-width="0" fill-rule="evenodd" stroke-linejoin="miter" stroke-miterlimit="6.935250055149" fill="rgb(255, 0, 0)" shape-rendering="geometricPrecision" /></g></g></g></svg>