<?xml version="1.0"?><svg xmlns="http://www.w3.org/2000/svg" xmlns:xlink="http://www.w3.org/1999/xlink" viewBox="20.73 31.32 330.92 68.98" preserveAspectRatio="xMidYMid" width="100%" height="100%"><clipPath id="1751"><rect x="0.3" y="0.3" width="522.72" height="769.32" /></clipPath><g id="drawing"><rect x="20.73" y="31.32" width="100%" height="100%" fill="rgb(255, 255, 255)" /><g id="page" clip-path="url(#1751)"><g id="Solid"><path d="M42.35 72.88 L42.35 72.88 L42.65 73.05 L42.95 73.22 L42.95 87.62 L42.65 87.45 L42.35 87.28 Z" stroke="rgb(0, 0, 0)" stroke-width="0" fill-rule="evenodd" stroke-linejoin="miter" fill="rgb(0, 0, 0)" shape-rendering="geometricPrecision" /><line x1="45.24" y1="74.55" x2="45.24" y2="87.45" stroke="rgb(0, 0, 0)" stroke-width="0.6" shape-rendering="auto" /></g><g id="Solid"><path d="M67.9 87.28 L67.9 87.28 L67.6 87.45 L67.3 87.62 L67.3 73.22 L67.6 73.05 L67.9 72.88 Z" stroke="rgb(0, 0, 0)" stroke-width="0" fill-rule="evenodd" stroke-linejoin="miter" fill="rgb(0, 0, 0)" shape-rendering="geometricPrecision" /><line x1="70.19" y1="85.95" x2="70.19" y2="73.05" stroke="rgb(0, 0, 0)" stroke-width="0.6" shape-rendering="auto" /></g><g id="Solid"><path d="M67.9 72.88 L67.9 72.88 L67.6 73.05 L67.3 73.22 L55.13 66.2 L55.13 65.85 L55.13 65.5 Z" stroke="rgb(0, 0, 0)" stroke-width="0" fill-rule="evenodd" stroke-linejoin="miter" fill="rgb(0, 0, 0)" shape-rendering="geometricPrecision" /></g><g id="Solid"><path d="M55.13 65.5 L55.13 65.5 L55.13 65.85 L55.13 66.2 L42.95 73.22 L42.65 73.05 L42.35 72.88 Z" stroke="rgb(0, 0, 0)" stroke-width="0" fill-rule="evenodd" stroke-linejoin="miter" fill="rgb(0, 0, 0)" shape-rendering="geometricPrecision" /></g><g><text xml:space="preserve" text-anchor="start" text-rendering="geometricPrecision"><tspan x="51.22" y="55.35" font-family="Arial" font-size="10" fill="rgb(0, 0, 0)">O</tspan></text></g><g id="Solid"><line x1="53.83" y1="65.85" x2="53.83" y2="57.1" stroke="rgb(0, 0, 0)" stroke-width="0.6" shape-rendering="auto" /><path d="M56.13 66.08 L56.13 66.08 L56.73 66.43 L56.73 57.1 L56.13 57.1 Z" stroke="rgb(0, 0, 0)" stroke-width="0" fill-rule="evenodd" stroke-linejoin="miter" fill="rgb(0, 0, 0)" shape-rendering="geometricPrecision" /><path d="M53.53 66.42 L53.53 66.42 L54.13 66.08 L54.13 57.1 L53.53 57.1 Z" stroke="rgb(0, 0, 0)" stroke-width="0" fill-rule="evenodd" stroke-linejoin="miter" fill="rgb(0, 0, 0)" shape-rendering="geometricPrecision" /></g><g><text xml:space="preserve" text-anchor="end" text-rendering="geometricPrecision"><tspan x="32.96" y="98.55" font-family="Arial" font-size="10" fill="rgb(0, 0, 0)">Ph</tspan></text></g><g id="Solid"><path d="M42.35 87.28 L42.35 87.28 L42.65 87.45 L42.95 87.62 L33.53 93.06 L33.38 92.8 L33.23 92.54 Z" stroke="rgb(0, 0, 0)" stroke-width="0" fill-rule="evenodd" stroke-linejoin="miter" fill="rgb(0, 0, 0)" shape-rendering="geometricPrecision" /></g><g><text xml:space="preserve" text-anchor="start" text-rendering="geometricPrecision"><tspan x="76.74" y="98.55" font-family="Arial" font-size="10" fill="rgb(0, 0, 0)">Ph</tspan></text></g><g id="Solid"><path d="M67.3 87.62 L67.3 87.62 L67.6 87.45 L67.9 87.28 L76.36 92.16 L76.21 92.42 L76.06 92.68 Z" stroke="rgb(0, 0, 0)" stroke-width="0" fill-rule="evenodd" stroke-linejoin="miter" fill="rgb(0, 0, 0)" shape-rendering="geometricPrecision" /></g><g id="Arrow"><line x1="135.63" y1="77.25" x2="107.63" y2="77.25" stroke="rgb(0, 0, 0)" stroke-width="0.6" shape-rendering="auto" /><path d="M139.88 77.25 L133.88 75.75 C135.07 76.59 135.07 77.91 133.88 78.75 Z" stroke="rgb(0, 0, 0)" stroke-width="0" fill-rule="evenodd" stroke-linejoin="miter" stroke-miterlimit="6.93525005514877" fill="rgb(0, 0, 0)" shape-rendering="geometricPrecision" /></g><g><text xml:space="preserve" text-anchor="start" text-rendering="geometricPrecision"><tspan x="113.62" y="71.25" font-family="Arial" font-size="10" fill="rgb(0, 0, 0)">AlCl</tspan><tspan font-family="Arial" dy="2.26" font-size="7.5" fill="rgb(0, 0, 0)">3</tspan></text></g><g id="Solid"><path d="M184.85 74.38 L184.85 74.38 L185.15 74.55 L185.45 74.72 L185.45 89.12 L185.15 88.95 L184.85 88.78 Z" stroke="rgb(0, 0, 0)" stroke-width="0" fill-rule="evenodd" stroke-linejoin="miter" fill="rgb(0, 0, 0)" shape-rendering="geometricPrecision" /><line x1="187.74" y1="76.05" x2="187.74" y2="88.95" stroke="rgb(0, 0, 0)" stroke-width="0.6" shape-rendering="auto" /></g><g id="Solid"><path d="M210.4 88.78 L210.4 88.78 L210.1 88.95 L209.8 89.12 L209.8 74.72 L210.1 74.55 L210.4 74.38 Z" stroke="rgb(0, 0, 0)" stroke-width="0" fill-rule="evenodd" stroke-linejoin="miter" fill="rgb(0, 0, 0)" shape-rendering="geometricPrecision" /><line x1="212.69" y1="87.45" x2="212.69" y2="74.55" stroke="rgb(0, 0, 0)" stroke-width="0.6" shape-rendering="auto" /></g><g id="Solid"><path d="M210.4 74.38 L210.4 74.38 L210.1 74.55 L209.8 74.72 L197.63 67.7 L197.63 67.35 L197.93 67.18 Z" stroke="rgb(0, 0, 0)" stroke-width="0" fill-rule="evenodd" stroke-linejoin="miter" fill="rgb(0, 0, 0)" shape-rendering="geometricPrecision" /></g><g id="Solid"><path d="M197.33 67.18 L197.33 67.18 L197.63 67.35 L197.63 67.7 L185.45 74.72 L185.15 74.55 L184.85 74.38 Z" stroke="rgb(0, 0, 0)" stroke-width="0" fill-rule="evenodd" stroke-linejoin="miter" fill="rgb(0, 0, 0)" shape-rendering="geometricPrecision" /></g><g id="Solid"><path d="M197.93 67.18 L197.93 67.18 L197.63 67.35 L197.33 67.18 L197.33 58.6 L197.63 58.6 L197.93 58.6 Z" stroke="rgb(0, 0, 0)" stroke-width="0" fill-rule="evenodd" stroke-linejoin="miter" fill="rgb(0, 0, 0)" shape-rendering="geometricPrecision" /><line x1="200.22" y1="65.85" x2="200.22" y2="58.6" stroke="rgb(0, 0, 0)" stroke-width="0.6" shape-rendering="auto" /></g><g><text xml:space="preserve" text-anchor="start" text-rendering="geometricPrecision"><tspan x="193.72" y="56.85" font-family="Arial" font-size="10" fill="rgb(0, 0, 0)">O</tspan></text></g><g><text xml:space="preserve" text-anchor="end" text-rendering="geometricPrecision"><tspan x="175.46" y="100.05" font-family="Arial" font-size="10" fill="rgb(0, 0, 0)">Ph</tspan></text></g><g id="Solid"><path d="M184.85 88.78 L184.85 88.78 L185.15 88.95 L185.45 89.12 L176.03 94.56 L175.88 94.3 L175.73 94.04 Z" stroke="rgb(0, 0, 0)" stroke-width="0" fill-rule="evenodd" stroke-linejoin="miter" fill="rgb(0, 0, 0)" shape-rendering="geometricPrecision" /></g><g id="Solid"><path d="M209.8 89.12 L209.8 89.12 L210.1 88.95 L210.4 88.78 L218.86 93.66 L218.71 93.92 L218.56 94.18 Z" stroke="rgb(0, 0, 0)" stroke-width="0" fill-rule="evenodd" stroke-linejoin="miter" fill="rgb(0, 0, 0)" shape-rendering="geometricPrecision" /></g><g><text xml:space="preserve" text-anchor="start" text-rendering="geometricPrecision"><tspan x="219.24" y="100.05" font-family="Arial" font-size="10" fill="rgb(0, 0, 0)">Ph</tspan></text></g><g><text xml:space="preserve" text-anchor="start" text-rendering="geometricPrecision"><tspan x="206.77" y="49.65" font-family="Arial" font-size="10" fill="rgb(0, 0, 0)">AlCl</tspan><tspan font-family="Arial" dy="2.26" font-size="7.5" fill="rgb(0, 0, 0)">3</tspan></text></g><g id="Solid"><path d="M202.24 50.64 L202.24 50.64 L202.09 50.38 L201.94 50.12 L206.06 47.73 L206.21 47.99 L206.36 48.25 Z" stroke="rgb(0, 0, 0)" stroke-width="0" fill-rule="evenodd" stroke-linejoin="miter" fill="rgb(0, 0, 0)" shape-rendering="geometricPrecision" /></g><g id="Charge1562"><circle cx="209.63" cy="35.25" r="3.33333333333333" stroke="rgb(0, 0, 0)" stroke-width="0.48" fill="none" /><line x1="207.66" y1="35.25" x2="211.6" y2="35.25" stroke="rgb(0, 0, 0)" stroke-width="0.48" shape-rendering="auto" /></g><g id="Charge1563"><circle cx="190.13" cy="46.5" r="3.33333333333333" stroke="rgb(0, 0, 0)" stroke-width="0.48" fill="none" /><line x1="188.16" y1="46.5" x2="192.1" y2="46.5" stroke="rgb(0, 0, 0)" stroke-width="0.48" shape-rendering="auto" /><line x1="190.13" y1="44.53" x2="190.13" y2="48.47" stroke="rgb(0, 0, 0)" stroke-width="0.48" shape-rendering="auto" /></g><g id="Arrow"><line x1="278.88" y1="76.5" x2="251.63" y2="76.5" stroke="rgb(0, 0, 0)" stroke-width="0.6" shape-rendering="auto" /><path d="M283.13 76.5 L277.13 75 C278.32 75.84 278.32 77.16 277.13 78 Z" stroke="rgb(0, 0, 0)" stroke-width="0" fill-rule="evenodd" stroke-linejoin="miter" stroke-miterlimit="6.93525005514877" fill="rgb(0, 0, 0)" shape-rendering="geometricPrecision" /></g><g id="Solid"><path d="M319.66 85.05 L319.66 85.05 L319.88 84.75 L320.1 84.45 L334.05 84.45 L334.27 84.75 L334.12 85.05 Z" stroke="rgb(0, 0, 0)" stroke-width="0" fill-rule="evenodd" stroke-linejoin="miter" fill="rgb(0, 0, 0)" shape-rendering="geometricPrecision" /></g><g id="Solid"><path d="M334.6 84.7 L334.6 84.7 L334.27 84.75 L334.05 84.45 L338.37 71.16 L338.72 71.05 L339.07 70.94 Z" stroke="rgb(0, 0, 0)" stroke-width="0" fill-rule="evenodd" stroke-linejoin="miter" fill="rgb(0, 0, 0)" shape-rendering="geometricPrecision" /><line x1="332.39" y1="82.16" x2="335.67" y2="72.04" stroke="rgb(0, 0, 0)" stroke-width="0.6" shape-rendering="auto" /></g><g id="Solid"><path d="M339.07 70.94 L339.07 70.94 L338.72 71.05 L338.37 71.16 L327.07 62.96 L327.07 62.59 L327.07 62.22 Z" stroke="rgb(0, 0, 0)" stroke-width="0" fill-rule="evenodd" stroke-linejoin="miter" fill="rgb(0, 0, 0)" shape-rendering="geometricPrecision" /></g><g id="Solid"><path d="M327.07 62.22 L327.07 62.22 L327.07 62.59 L327.07 62.96 L315.78 71.16 L315.43 71.05 L315.08 70.94 Z" stroke="rgb(0, 0, 0)" stroke-width="0" fill-rule="evenodd" stroke-linejoin="miter" fill="rgb(0, 0, 0)" shape-rendering="geometricPrecision" /></g><g id="Solid"><path d="M315.08 70.94 L315.08 70.94 L315.43 71.05 L315.78 71.16 L320.1 84.45 L319.88 84.75 L319.66 85.05 Z" stroke="rgb(0, 0, 0)" stroke-width="0" fill-rule="evenodd" stroke-linejoin="miter" fill="rgb(0, 0, 0)" shape-rendering="geometricPrecision" /></g><g><text xml:space="preserve" text-anchor="start" text-rendering="geometricPrecision"><tspan x="252.37" y="72" font-family="Arial" font-size="10" fill="rgb(0, 0, 0)">- AlCl</tspan><tspan font-family="Arial" dy="2.26" font-size="7.5" fill="rgb(0, 0, 0)">3</tspan></text></g><g><text xml:space="preserve" text-anchor="start" text-rendering="geometricPrecision"><tspan x="339.41" y="100.3" font-family="Arial" font-size="10" fill="rgb(0, 0, 0)">Ph</tspan></text></g><g id="Solid"><path d="M334.12 85.05 L334.12 85.05 L334.27 84.75 L334.6 84.7 L339.72 91.73 L339.47 91.91 L339.23 92.08 Z" stroke="rgb(0, 0, 0)" stroke-width="0" fill-rule="evenodd" stroke-linejoin="miter" fill="rgb(0, 0, 0)" shape-rendering="geometricPrecision" /></g><g><text xml:space="preserve" text-anchor="end" text-rendering="geometricPrecision"><tspan x="314.19" y="100.3" font-family="Arial" font-size="10" fill="rgb(0, 0, 0)">Ph</tspan></text></g><path d="M319.88 84.75 A0.918008057638729,0.918008057638729 126.01859959422 0,0 318.53 84.9 A0.918008057638729,0.918008057638729 126.01859959422 0,0 318.8 86.24 A0.918008057638729,0.918008057638729 126.01859959422 0,1 319.07 87.57 A0.918008057638729,0.918008057638729 126.01859959422 0,1 317.72 87.72 A0.918008057638729,0.918008057638729 126.01859959422 0,0 316.37 87.87 A0.918008057638729,0.918008057638729 126.01859959422 0,0 316.64 89.21 A0.918008057638729,0.918008057638729 126.01859959422 0,1 316.91 90.54 A0.918008057638729,0.918008057638729 126.01859959422 0,1 315.56 90.69 A0.918008057638729,0.918008057638729 126.01859959422 0,0 314.21 90.84 A0.918008057638729,0.918008057638729 126.01859959422 0,0 314.48 92.18 A0.918008057638729,0.918008057638729 126.01859959422 0,1 314.75 93.51 A0.918008057638729,0.918008057638729 126.01859959422 0,1 313.4 93.66 " stroke="rgb(0, 0, 0)" stroke-width="0.6" fill-rule="evenodd" stroke-linejoin="bevel" fill="none" shape-rendering="geometricPrecision" /><g><text xml:space="preserve" text-anchor="start" text-rendering="geometricPrecision"><tspan x="323.17" y="52.09" font-family="Arial" font-size="10" fill="rgb(0, 0, 0)">O</tspan></text></g><g id="Solid"><line x1="325.77" y1="62.59" x2="325.77" y2="53.9" stroke="rgb(0, 0, 0)" stroke-width="0.6" shape-rendering="auto" /><path d="M328.07 62.94 L328.07 62.94 L328.67 63.38 L328.67 53.9 L328.07 53.9 Z" stroke="rgb(0, 0, 0)" stroke-width="0" fill-rule="evenodd" stroke-linejoin="miter" fill="rgb(0, 0, 0)" shape-rendering="geometricPrecision" /><path d="M325.47 63.38 L325.47 63.38 L326.07 62.94 L326.07 53.9 L325.47 53.9 Z" stroke="rgb(0, 0, 0)" stroke-width="0" fill-rule="evenodd" stroke-linejoin="miter" fill="rgb(0, 0, 0)" shape-rendering="geometricPrecision" /></g><g id="Arrow"><path d="M197.8 87.04 C196.45 84.05 193.28 82 190 82 " stroke="rgb(255, 0, 0)" stroke-width="0.6" fill-rule="evenodd" stroke-linejoin="bevel" fill="none" shape-rendering="geometricPrecision" /><path d="M198.56 90.56 L198.55 85.61 C198.15 86.78 197.13 87.04 196.22 86.2 Z" stroke="rgb(255, 0, 0)" stroke-width="0" fill-rule="evenodd" stroke-linejoin="miter" stroke-miterlimit="6.93525005514877" fill="rgb(255, 0, 0)" shape-rendering="geometricPrecision" /></g><g id="Arrow"><path d="M202.08 77.58 C202.08 79.96 203.42 82.3 205.48 83.49 " stroke="rgb(255, 0, 0)" stroke-width="0.6" fill-rule="evenodd" stroke-linejoin="bevel" fill="none" shape-rendering="geometricPrecision" /><path d="M203 74.17 L200.97 77.8 C201.82 77.13 202.53 77.32 202.92 78.33 Z" stroke="rgb(255, 0, 0)" stroke-width="0" fill-rule="evenodd" stroke-linejoin="miter" stroke-miterlimit="5.35682878084726" fill="rgb(255, 0, 0)" shape-rendering="geometricPrecision" /></g><g id="Arrow"><path d="M193.22 57.72 C192.77 59.39 193.28 61.28 194.5 62.5 " stroke="rgb(255, 0, 0)" stroke-width="0.6" fill-rule="evenodd" stroke-linejoin="bevel" fill="none" shape-rendering="geometricPrecision" /><path d="M194.5 55.5 L192.4 57.67 C193.18 57.39 193.52 57.59 193.67 58.4 Z" stroke="rgb(255, 0, 0)" stroke-width="0" fill-rule="evenodd" stroke-linejoin="miter" stroke-miterlimit="4.91065618851288" fill="rgb(255, 0, 0)" shape-rendering="geometricPrecision" /></g></g></g></svg>