<?xml version="1.0"?><svg xmlns="http://www.w3.org/2000/svg" xmlns:xlink="http://www.w3.org/1999/xlink" viewBox="29.93 117.15 214.78 64.13" preserveAspectRatio="xMidYMid" width="100%" height="100%"><clipPath id="89"><rect x="0.3" y="0.3" width="539.4" height="719.15" /></clipPath><g id="drawing"><rect x="29.93" y="117.15" width="100%" height="100%" fill="rgb(255, 255, 255)" /><g id="page" clip-path="url(#89)"><g><text xml:space="preserve" text-anchor="end" text-rendering="geometricPrecision"><tspan x="43.84" y="167.72" font-family="Arial" font-size="10" fill="rgb(0, 0, 0)">Me</tspan></text></g><g id="Solid"><path d="M44.34 162.28 L44.34 162.28 L44.19 162.02 L44.04 161.76 L53.53 156.27 L53.53 156.62 L53.53 156.97 Z" stroke="rgb(0, 0, 0)" stroke-width="0" fill-rule="evenodd" stroke-linejoin="miter" fill="rgb(0, 0, 0)" shape-rendering="geometricPrecision" /></g><g id="Solid"><path d="M53.53 156.97 L53.53 156.97 L53.53 156.62 L53.53 156.27 L66 163.47 L66 163.82 L66 164.17 Z" stroke="rgb(0, 0, 0)" stroke-width="0" fill-rule="evenodd" stroke-linejoin="miter" fill="rgb(0, 0, 0)" shape-rendering="geometricPrecision" /><line x1="53.53" y1="159.61" x2="64.7" y2="166.06" stroke="rgb(0, 0, 0)" stroke-width="0.6" shape-rendering="auto" /></g><g id="Solid"><path d="M66 164.17 L66 164.17 L66 163.82 L66 163.47 L78.17 156.45 L78.47 156.62 L78.77 156.79 Z" stroke="rgb(0, 0, 0)" stroke-width="0" fill-rule="evenodd" stroke-linejoin="miter" fill="rgb(0, 0, 0)" shape-rendering="geometricPrecision" /></g><g id="Solid"><path d="M78.77 156.79 L78.77 156.79 L78.47 156.62 L78.17 156.45 L78.17 142.39 L78.47 142.22 L78.77 142.41 Z" stroke="rgb(0, 0, 0)" stroke-width="0" fill-rule="evenodd" stroke-linejoin="miter" fill="rgb(0, 0, 0)" shape-rendering="geometricPrecision" /></g><g id="Solid"><path d="M78.46 141.87 L78.46 141.87 L78.47 142.22 L78.17 142.39 L66 135.37 L66 135.02 L66 134.67 Z" stroke="rgb(0, 0, 0)" stroke-width="0" fill-rule="evenodd" stroke-linejoin="miter" fill="rgb(0, 0, 0)" shape-rendering="geometricPrecision" /></g><g id="Solid"><path d="M66 134.67 L66 134.67 L66 135.02 L66 135.37 L53.68 142.48 L53.53 142.22 L53.38 141.96 Z" stroke="rgb(0, 0, 0)" stroke-width="0" fill-rule="evenodd" stroke-linejoin="miter" fill="rgb(0, 0, 0)" shape-rendering="geometricPrecision" /><line x1="66" y1="138.01" x2="54.83" y2="144.46" stroke="rgb(0, 0, 0)" stroke-width="0.6" shape-rendering="auto" /></g><g><text xml:space="preserve" text-anchor="start" text-rendering="geometricPrecision"><tspan x="87.62" y="138.92" font-family="Arial" font-size="10" fill="rgb(0, 0, 0)">Ph</tspan></text></g><g id="WedgeBegin"><path d="M78.77 142.41 L78.77 142.41 L78.47 142.22 L78.46 141.87 L86.26 135.99 L87.01 137.29 L87.76 138.59 Z" stroke="rgb(0, 0, 0)" stroke-width="0" fill-rule="evenodd" stroke-linejoin="miter" fill="rgb(0, 0, 0)" shape-rendering="geometricPrecision" /></g><g><text xml:space="preserve" text-anchor="start" text-rendering="geometricPrecision"><tspan x="86.77" y="153.32" font-family="Arial" font-size="10" fill="rgb(0, 0, 0)">Me</tspan></text></g><g id="Wedged Hash Begin Bond"><path d="M78.32 142.48 L78.32 142.48 L78.62 141.96 L79.18 142.19 L78.8 142.85 Z" stroke="rgb(0, 0, 0)" stroke-width="0" fill-rule="evenodd" stroke-linejoin="miter" fill="rgb(0, 0, 0)" shape-rendering="geometricPrecision" /><path d="M80.54 144.19 L80.54 144.19 L81.21 143.03 L81.77 143.26 L81.02 144.56 Z" stroke="rgb(0, 0, 0)" stroke-width="0" fill-rule="evenodd" stroke-linejoin="miter" fill="rgb(0, 0, 0)" shape-rendering="geometricPrecision" /><path d="M82.76 145.9 L82.76 145.9 L83.81 144.09 L84.37 144.32 L83.24 146.27 Z" stroke="rgb(0, 0, 0)" stroke-width="0" fill-rule="evenodd" stroke-linejoin="miter" fill="rgb(0, 0, 0)" shape-rendering="geometricPrecision" /><path d="M84.99 147.62 L84.99 147.62 L86.4 145.16 L86.96 145.39 L85.46 147.99 Z" stroke="rgb(0, 0, 0)" stroke-width="0" fill-rule="evenodd" stroke-linejoin="miter" fill="rgb(0, 0, 0)" shape-rendering="geometricPrecision" /></g><g id="Arrow"><line x1="174.06" y1="149.45" x2="125.06" y2="149.45" stroke="rgb(0, 0, 0)" stroke-width="0.6" shape-rendering="auto" /><path d="M178.31 149.45 L172.31 147.95 C173.5 148.79 173.5 150.11 172.31 150.95 Z" stroke="rgb(0, 0, 0)" stroke-width="0" fill-rule="evenodd" stroke-linejoin="miter" stroke-miterlimit="6.93525005514877" fill="rgb(0, 0, 0)" shape-rendering="geometricPrecision" /></g><g id="Solid"><path d="M208.29 143.02 L208.29 143.02 L208.59 143.19 L208.89 143.36 L208.89 157.42 L208.59 157.59 L208.29 157.76 Z" stroke="rgb(0, 0, 0)" stroke-width="0" fill-rule="evenodd" stroke-linejoin="miter" fill="rgb(0, 0, 0)" shape-rendering="geometricPrecision" /></g><g id="Solid"><path d="M208.29 157.76 L208.29 157.76 L208.59 157.59 L208.89 157.42 L221.06 164.44 L221.06 164.79 L220.54 164.84 Z" stroke="rgb(0, 0, 0)" stroke-width="0" fill-rule="evenodd" stroke-linejoin="miter" fill="rgb(0, 0, 0)" shape-rendering="geometricPrecision" /></g><g id="Solid"><path d="M221.25 165.03 L221.25 165.03 L221.06 164.79 L221.06 164.44 L233.23 157.42 L233.53 157.59 L233.83 157.76 Z" stroke="rgb(0, 0, 0)" stroke-width="0" fill-rule="evenodd" stroke-linejoin="miter" fill="rgb(0, 0, 0)" shape-rendering="geometricPrecision" /></g><g id="Solid"><path d="M220.76 135.82 L220.76 135.82 L221.06 135.99 L221.18 136.27 L208.89 143.36 L208.59 143.19 L208.29 143.02 Z" stroke="rgb(0, 0, 0)" stroke-width="0" fill-rule="evenodd" stroke-linejoin="miter" fill="rgb(0, 0, 0)" shape-rendering="geometricPrecision" /><line x1="222.06" y1="138.41" x2="211.18" y2="144.69" stroke="rgb(0, 0, 0)" stroke-width="0.6" shape-rendering="auto" /></g><g id="Solid"><path d="M233.83 157.76 L233.83 157.76 L233.53 157.59 L233.23 157.42 L233.23 143.19 L233.53 143.19 L233.83 143.19 Z" stroke="rgb(0, 0, 0)" stroke-width="0" fill-rule="evenodd" stroke-linejoin="miter" fill="rgb(0, 0, 0)" shape-rendering="geometricPrecision" /><line x1="230.94" y1="156.09" x2="230.94" y2="143.19" stroke="rgb(0, 0, 0)" stroke-width="0.6" shape-rendering="auto" /></g><g id="Solid"><path d="M221.36 135.6 L221.36 135.6 L221.06 135.99 L220.76 135.82 L220.76 127.1 L221.06 127.1 L221.36 127.1 Z" stroke="rgb(0, 0, 0)" stroke-width="0" fill-rule="evenodd" stroke-linejoin="miter" fill="rgb(0, 0, 0)" shape-rendering="geometricPrecision" /></g><g><text xml:space="preserve" text-anchor="start" text-rendering="geometricPrecision"><tspan x="217.74" y="125.49" font-family="Arial" font-size="10" fill="rgb(0, 0, 0)">Ph</tspan></text></g><g id="WedgeBegin"><path d="M220.54 164.84 L220.54 164.84 L221.06 164.79 L221.25 165.03 L215.89 172.08 L214.83 171.02 L213.77 169.96 Z" stroke="rgb(0, 0, 0)" stroke-width="0" fill-rule="evenodd" stroke-linejoin="miter" fill="rgb(0, 0, 0)" shape-rendering="geometricPrecision" /></g><g><text xml:space="preserve" text-anchor="start" text-rendering="geometricPrecision"><tspan x="207.28" y="178.87" font-family="Arial" font-size="10" fill="rgb(0, 0, 0)">H</tspan></text></g><g id="Wedged Hash Begin Bond"><path d="M220.8 164.94 L220.8 164.94 L221.32 164.64 L221.69 165.12 L221.03 165.5 Z" stroke="rgb(0, 0, 0)" stroke-width="0" fill-rule="evenodd" stroke-linejoin="miter" fill="rgb(0, 0, 0)" shape-rendering="geometricPrecision" /><path d="M221.9 167.6 L221.9 167.6 L223.07 166.92 L223.44 167.4 L222.13 168.15 Z" stroke="rgb(0, 0, 0)" stroke-width="0" fill-rule="evenodd" stroke-linejoin="miter" fill="rgb(0, 0, 0)" shape-rendering="geometricPrecision" /><path d="M223 170.25 L223 170.25 L224.82 169.2 L225.19 169.68 L223.23 170.81 Z" stroke="rgb(0, 0, 0)" stroke-width="0" fill-rule="evenodd" stroke-linejoin="miter" fill="rgb(0, 0, 0)" shape-rendering="geometricPrecision" /><path d="M224.1 172.91 L224.1 172.91 L226.57 171.48 L226.93 171.96 L224.34 173.46 Z" stroke="rgb(0, 0, 0)" stroke-width="0" fill-rule="evenodd" stroke-linejoin="miter" fill="rgb(0, 0, 0)" shape-rendering="geometricPrecision" /></g><g><text xml:space="preserve" text-anchor="start" text-rendering="geometricPrecision"><tspan x="224.09" y="181.16" font-family="Arial" font-size="10" fill="rgb(0, 0, 0)">Me</tspan></text></g><g id="Solid"><path d="M221.18 136.27 L221.18 136.27 L221.06 135.99 L221.36 135.6 L229.98 133.29 L230.05 133.58 L230.13 133.87 Z" stroke="rgb(0, 0, 0)" stroke-width="0" fill-rule="evenodd" stroke-linejoin="miter" fill="rgb(0, 0, 0)" shape-rendering="geometricPrecision" /></g><g><text xml:space="preserve" text-anchor="start" text-rendering="geometricPrecision"><tspan x="230.8" y="136.16" font-family="Arial" font-size="10" fill="rgb(0, 0, 0)">Me</tspan></text></g><g id="Arrow"><path d="M59.42 149.42 C61.16 146.31 59.97 141.99 56.88 140.22 " stroke="rgb(255, 0, 0)" stroke-width="0.6" fill-rule="evenodd" stroke-linejoin="bevel" fill="none" shape-rendering="geometricPrecision" /><path d="M56.89 151.98 L60.99 149.21 C59.8 149.53 59.01 148.83 59.21 147.61 Z" stroke="rgb(255, 0, 0)" stroke-width="0" fill-rule="evenodd" stroke-linejoin="miter" stroke-miterlimit="6.93525005514871" fill="rgb(255, 0, 0)" shape-rendering="geometricPrecision" /></g><g id="Arrow"><path d="M70.75 156.18 C67.24 153.98 62.6 155.03 60.39 158.53 C60.34 158.62 60.29 158.7 60.24 158.79 " stroke="rgb(255, 0, 0)" stroke-width="0.6" fill-rule="evenodd" stroke-linejoin="bevel" fill="none" shape-rendering="geometricPrecision" /><path d="M73.25 158.77 L70.61 154.59 C70.89 155.79 70.17 156.55 68.95 156.33 Z" stroke="rgb(255, 0, 0)" stroke-width="0" fill-rule="evenodd" stroke-linejoin="miter" stroke-miterlimit="6.93178594026752" fill="rgb(255, 0, 0)" shape-rendering="geometricPrecision" /></g><g id="Arrow"><path d="M69.74 141.77 C70.69 145.32 74.7 147.63 78.25 146.68 " stroke="rgb(255, 0, 0)" stroke-width="0.6" fill-rule="evenodd" stroke-linejoin="bevel" fill="none" shape-rendering="geometricPrecision" /><path d="M69.74 138.17 L68.76 143.02 C69.38 141.95 70.43 141.91 71.15 142.91 Z" stroke="rgb(255, 0, 0)" stroke-width="0" fill-rule="evenodd" stroke-linejoin="miter" stroke-miterlimit="6.93525005514877" fill="rgb(255, 0, 0)" shape-rendering="geometricPrecision" /></g></g></g></svg>