<?xml version="1.0"?><svg xmlns="http://www.w3.org/2000/svg" xmlns:xlink="http://www.w3.org/1999/xlink" viewBox="54.8 55.89 386.32 76.51" preserveAspectRatio="xMidYMid" width="100%" height="100%"><clipPath id="163"><rect x="0.475" y="0.475" width="522.25" height="768.73" /></clipPath><g id="drawing"><rect x="54.8" y="55.89" width="100%" height="100%" fill="rgb(255, 255, 255)" /><g id="page" clip-path="url(#163)"><g id="Solid"><path d="M69.54 104 L69.54 104 L70.1 104.18 L70.66 104.36 L77.53 125.41 L77.19 125.89 L76.85 126.37 Z" stroke="rgb(0, 0, 0)" stroke-width="0" fill-rule="evenodd" stroke-linejoin="miter" fill="rgb(0, 0, 0)" shape-rendering="geometricPrecision" /><line x1="74.94" y1="105.74" x2="80.17" y2="121.78" stroke="rgb(0, 0, 0)" stroke-width="0.95" shape-rendering="auto" /></g><g id="Solid"><path d="M76.85 126.37 L76.85 126.37 L77.19 125.89 L77.53 125.41 L99.68 125.39 L100.03 125.86 L100.38 126.33 Z" stroke="rgb(0, 0, 0)" stroke-width="0" fill-rule="evenodd" stroke-linejoin="miter" fill="rgb(0, 0, 0)" shape-rendering="geometricPrecision" /></g><g id="Solid"><path d="M100.38 126.33 L100.38 126.33 L100.03 125.86 L99.68 125.39 L106.5 104.31 L107.06 104.13 L107.62 103.95 Z" stroke="rgb(0, 0, 0)" stroke-width="0" fill-rule="evenodd" stroke-linejoin="miter" fill="rgb(0, 0, 0)" shape-rendering="geometricPrecision" /><line x1="97.04" y1="121.75" x2="102.23" y2="105.71" stroke="rgb(0, 0, 0)" stroke-width="0.95" shape-rendering="auto" /></g><g id="Solid"><path d="M107.62 103.95 L107.62 103.95 L107.06 104.13 L106.5 104.31 L88.56 91.32 L88.56 90.73 L89.29 90.67 Z" stroke="rgb(0, 0, 0)" stroke-width="0" fill-rule="evenodd" stroke-linejoin="miter" fill="rgb(0, 0, 0)" shape-rendering="geometricPrecision" /></g><g id="Solid"><path d="M87.83 90.67 L87.83 90.67 L88.56 90.73 L88.56 91.32 L70.66 104.36 L70.1 104.18 L69.54 104 Z" stroke="rgb(0, 0, 0)" stroke-width="0" fill-rule="evenodd" stroke-linejoin="miter" fill="rgb(0, 0, 0)" shape-rendering="geometricPrecision" /></g><g><text xml:space="preserve" text-anchor="start" text-rendering="geometricPrecision"><tspan x="98.99" y="80.83" font-family="Arial" font-size="15.85" fill="rgb(0, 0, 0)">H</tspan></text></g><g id="Solid"><path d="M89.29 90.67 L89.29 90.67 L88.56 90.73 L88.56 90.06 L98.17 80.45 L98.5 80.79 L98.84 81.12 Z" stroke="rgb(0, 0, 0)" stroke-width="0" fill-rule="evenodd" stroke-linejoin="miter" fill="rgb(0, 0, 0)" shape-rendering="geometricPrecision" /></g><g><text xml:space="preserve" text-anchor="end" text-rendering="geometricPrecision"><tspan x="76.81" y="80.83" font-family="Arial" font-size="15.85" fill="rgb(0, 0, 0)">Me</tspan></text></g><g id="Solid"><path d="M88.56 90.06 L88.56 90.06 L88.56 90.73 L87.83 90.67 L77.56 80.4 L77.9 80.07 L78.23 79.73 Z" stroke="rgb(0, 0, 0)" stroke-width="0" fill-rule="evenodd" stroke-linejoin="miter" fill="rgb(0, 0, 0)" shape-rendering="geometricPrecision" /></g><g id="Solid"><path d="M221.8 104 L221.8 104 L222.36 104.18 L222.92 104.36 L229.79 125.41 L229.45 125.89 L229.11 126.37 Z" stroke="rgb(0, 0, 0)" stroke-width="0" fill-rule="evenodd" stroke-linejoin="miter" fill="rgb(0, 0, 0)" shape-rendering="geometricPrecision" /><line x1="227.2" y1="105.74" x2="228.42" y2="109.51" stroke="rgb(0, 0, 0)" stroke-width="0.95" shape-rendering="auto" /><path d="M228.75 112.02 L228.75 112.02 L229.98 115.79 L230.88 115.49 L229.65 111.73 Z" stroke="rgb(0, 0, 0)" stroke-width="0" fill-rule="evenodd" stroke-linejoin="miter" fill="rgb(0, 0, 0)" shape-rendering="geometricPrecision" /><line x1="231.2" y1="118.01" x2="232.43" y2="121.78" stroke="rgb(0, 0, 0)" stroke-width="0.95" shape-rendering="auto" /></g><g id="Solid"><path d="M229.11 126.37 L229.11 126.37 L229.45 125.89 L229.79 125.41 L251.94 125.39 L252.29 125.86 L252.64 126.33 Z" stroke="rgb(0, 0, 0)" stroke-width="0" fill-rule="evenodd" stroke-linejoin="miter" fill="rgb(0, 0, 0)" shape-rendering="geometricPrecision" /><line x1="232.43" y1="121.77" x2="236.39" y2="121.77" stroke="rgb(0, 0, 0)" stroke-width="0.95" shape-rendering="auto" /><path d="M238.88 122.24 L238.88 122.24 L242.84 122.24 L242.84 121.29 L238.88 121.29 Z" stroke="rgb(0, 0, 0)" stroke-width="0" fill-rule="evenodd" stroke-linejoin="miter" fill="rgb(0, 0, 0)" shape-rendering="geometricPrecision" /><line x1="245.34" y1="121.76" x2="249.3" y2="121.75" stroke="rgb(0, 0, 0)" stroke-width="0.95" shape-rendering="auto" /></g><g id="Solid"><path d="M252.64 126.33 L252.64 126.33 L252.29 125.86 L251.94 125.39 L258.75 104.31 L259.31 104.13 L259.77 104.25 Z" stroke="rgb(0, 0, 0)" stroke-width="0" fill-rule="evenodd" stroke-linejoin="miter" fill="rgb(0, 0, 0)" shape-rendering="geometricPrecision" /><line x1="249.3" y1="121.75" x2="250.51" y2="117.99" stroke="rgb(0, 0, 0)" stroke-width="0.95" shape-rendering="auto" /><path d="M251.73 115.76 L251.73 115.76 L252.95 111.99 L252.05 111.7 L250.83 115.47 Z" stroke="rgb(0, 0, 0)" stroke-width="0" fill-rule="evenodd" stroke-linejoin="miter" fill="rgb(0, 0, 0)" shape-rendering="geometricPrecision" /><line x1="253.26" y1="109.47" x2="254.48" y2="105.71" stroke="rgb(0, 0, 0)" stroke-width="0.95" shape-rendering="auto" /></g><g id="Solid"><path d="M258.98 103.3 L258.98 103.3 L259.31 104.13 L258.75 104.31 L240.82 91.32 L240.82 90.73 L241.91 90.93 Z" stroke="rgb(0, 0, 0)" stroke-width="0" fill-rule="evenodd" stroke-linejoin="miter" fill="rgb(0, 0, 0)" shape-rendering="geometricPrecision" /></g><g id="Solid"><path d="M240.09 90.67 L240.09 90.67 L240.82 90.73 L240.82 91.32 L222.92 104.36 L222.36 104.18 L221.8 104 Z" stroke="rgb(0, 0, 0)" stroke-width="0" fill-rule="evenodd" stroke-linejoin="miter" fill="rgb(0, 0, 0)" shape-rendering="geometricPrecision" /><line x1="240.83" y1="95.81" x2="237.63" y2="98.14" stroke="rgb(0, 0, 0)" stroke-width="0.95" shape-rendering="auto" /><path d="M235.33 99.23 L235.33 99.23 L232.13 101.56 L232.69 102.33 L235.89 100 Z" stroke="rgb(0, 0, 0)" stroke-width="0" fill-rule="evenodd" stroke-linejoin="miter" fill="rgb(0, 0, 0)" shape-rendering="geometricPrecision" /><line x1="230.4" y1="103.41" x2="227.2" y2="105.74" stroke="rgb(0, 0, 0)" stroke-width="0.95" shape-rendering="auto" /></g><g><text xml:space="preserve" text-anchor="end" text-rendering="geometricPrecision"><tspan x="229.07" y="80.83" font-family="Arial" font-size="15.85" fill="rgb(0, 0, 0)">Me</tspan></text></g><g id="Solid"><path d="M240.96 90.2 L240.96 90.2 L240.82 90.73 L240.09 90.67 L229.86 80.44 L230.2 80.11 L230.53 79.77 Z" stroke="rgb(0, 0, 0)" stroke-width="0" fill-rule="evenodd" stroke-linejoin="miter" fill="rgb(0, 0, 0)" shape-rendering="geometricPrecision" /></g><g id="Solid"><path d="M400.41 104.56 L400.41 104.56 L400.79 104.18 L401.35 104.36 L408.21 125.41 L407.87 125.89 L407.53 126.37 Z" stroke="rgb(0, 0, 0)" stroke-width="0" fill-rule="evenodd" stroke-linejoin="miter" fill="rgb(0, 0, 0)" shape-rendering="geometricPrecision" /><line x1="405.62" y1="105.74" x2="410.85" y2="121.78" stroke="rgb(0, 0, 0)" stroke-width="0.95" shape-rendering="auto" /></g><g id="Solid"><path d="M407.53 126.37 L407.53 126.37 L407.87 125.89 L408.21 125.41 L430.36 125.39 L430.71 125.86 L431.06 126.33 Z" stroke="rgb(0, 0, 0)" stroke-width="0" fill-rule="evenodd" stroke-linejoin="miter" fill="rgb(0, 0, 0)" shape-rendering="geometricPrecision" /></g><g id="Solid"><path d="M431.06 126.33 L431.06 126.33 L430.71 125.86 L430.36 125.39 L437.18 104.31 L437.74 104.13 L438.3 103.95 Z" stroke="rgb(0, 0, 0)" stroke-width="0" fill-rule="evenodd" stroke-linejoin="miter" fill="rgb(0, 0, 0)" shape-rendering="geometricPrecision" /><line x1="427.72" y1="121.75" x2="432.91" y2="105.71" stroke="rgb(0, 0, 0)" stroke-width="0.95" shape-rendering="auto" /></g><g id="Solid"><path d="M438.3 103.95 L438.3 103.95 L437.74 104.13 L437.18 104.31 L419.24 91.32 L419.24 90.73 L419.97 90.67 Z" stroke="rgb(0, 0, 0)" stroke-width="0" fill-rule="evenodd" stroke-linejoin="miter" fill="rgb(0, 0, 0)" shape-rendering="geometricPrecision" /></g><g id="Solid"><path d="M418.51 90.67 L418.51 90.67 L419.24 90.73 L419.24 91.32 L401.35 104.36 L400.79 104.18 L400.71 103.65 Z" stroke="rgb(0, 0, 0)" stroke-width="0" fill-rule="evenodd" stroke-linejoin="miter" fill="rgb(0, 0, 0)" shape-rendering="geometricPrecision" /></g><g><text xml:space="preserve" text-anchor="start" text-rendering="geometricPrecision"><tspan x="429.67" y="80.83" font-family="Arial" font-size="15.85" fill="rgb(0, 0, 0)">H</tspan></text></g><g id="Solid"><path d="M419.97 90.67 L419.97 90.67 L419.24 90.73 L419.24 90.06 L428.87 80.43 L429.2 80.77 L429.54 81.1 Z" stroke="rgb(0, 0, 0)" stroke-width="0" fill-rule="evenodd" stroke-linejoin="miter" fill="rgb(0, 0, 0)" shape-rendering="geometricPrecision" /></g><g><text xml:space="preserve" text-anchor="start" text-rendering="geometricPrecision"><tspan x="397.37" y="80.83" font-family="Arial" font-size="15.85" fill="rgb(0, 0, 0)">H</tspan></text></g><g id="Solid"><path d="M419.24 90.06 L419.24 90.06 L419.24 90.73 L418.51 90.67 L409.06 81.22 L409.4 80.89 L409.73 80.55 Z" stroke="rgb(0, 0, 0)" stroke-width="0" fill-rule="evenodd" stroke-linejoin="miter" fill="rgb(0, 0, 0)" shape-rendering="geometricPrecision" /></g><g><text xml:space="preserve" text-anchor="end" text-rendering="geometricPrecision"><tspan x="383.46" y="103.4" font-family="Arial" font-size="15.85" fill="rgb(0, 0, 0)">Me</tspan></text></g><g id="Solid"><path d="M400.71 103.65 L400.71 103.65 L400.79 104.18 L400.41 104.56 L385.07 99.59 L385.22 99.14 L385.36 98.69 Z" stroke="rgb(0, 0, 0)" stroke-width="0" fill-rule="evenodd" stroke-linejoin="miter" fill="rgb(0, 0, 0)" shape-rendering="geometricPrecision" /></g><g id="Bracket"><path d="M276.71 62.46 L282 62.46 L282 131.45 L276.71 131.45 " stroke="rgb(0, 0, 0)" stroke-width="0.95" fill-rule="evenodd" stroke-linejoin="miter" fill="none" shape-rendering="geometricPrecision" /></g><g id="Bracket"><path d="M200.46 131.45 L195.17 131.45 L195.17 62.46 L200.46 62.46 " stroke="rgb(0, 0, 0)" stroke-width="0.95" fill-rule="evenodd" stroke-linejoin="miter" fill="none" shape-rendering="geometricPrecision" /></g><g><text xml:space="preserve" text-anchor="start" text-rendering="geometricPrecision"><tspan x="283.79" y="67.14" font-family="Arial" font-size="12.55" fill="rgb(0, 0, 0)">TS</tspan></text></g><g id="Arrow"><line x1="168.83" y1="100.17" x2="124.39" y2="100.17" stroke="rgb(0, 0, 0)" stroke-width="0.95" shape-rendering="auto" /><path d="M176.14 100.17 L166.64 97.8 C168.26 99.13 168.26 101.21 166.64 102.54 Z" stroke="rgb(0, 0, 0)" stroke-width="0" fill-rule="evenodd" stroke-linejoin="miter" stroke-miterlimit="10.980812587319" fill="rgb(0, 0, 0)" shape-rendering="geometricPrecision" /></g><g id="Arrow"><line x1="338.92" y1="100.17" x2="294.49" y2="100.17" stroke="rgb(0, 0, 0)" stroke-width="0.95" shape-rendering="auto" /><path d="M346.23 100.17 L336.73 97.8 C338.36 99.13 338.36 101.21 336.73 102.54 Z" stroke="rgb(0, 0, 0)" stroke-width="0" fill-rule="evenodd" stroke-linejoin="miter" stroke-miterlimit="10.980812587319" fill="rgb(0, 0, 0)" shape-rendering="geometricPrecision" /></g><g id="Dash"><path d="M245.73 89.91 L245.73 89.91 L245.49 88.99 L240.96 90.2 L240.82 90.73 L241.91 90.93 Z" stroke="rgb(0, 0, 0)" stroke-width="0" fill-rule="evenodd" stroke-linejoin="miter" fill="rgb(0, 0, 0)" shape-rendering="geometricPrecision" /><path d="M252.34 88.13 L252.34 88.13 L252.1 87.22 L255.92 86.19 L256.05 86.65 L256.17 87.11 Z" stroke="rgb(0, 0, 0)" stroke-width="0" fill-rule="evenodd" stroke-linejoin="miter" fill="rgb(0, 0, 0)" shape-rendering="geometricPrecision" /></g><g><text xml:space="preserve" text-anchor="start" text-rendering="geometricPrecision"><tspan x="257.15" y="91.07" font-family="Arial" font-size="15.85" fill="rgb(0, 0, 0)">H</tspan></text></g><g id="Dash"><path d="M260.63 99.58 L260.63 99.58 L259.7 99.41 L258.98 103.3 L259.31 104.13 L259.77 104.25 Z" stroke="rgb(0, 0, 0)" stroke-width="0" fill-rule="evenodd" stroke-linejoin="miter" fill="rgb(0, 0, 0)" shape-rendering="geometricPrecision" /></g><g id="Arrow"><path d="M108.29 114 C115.82 106.47 117.33 93.83 111.8 84.73 " stroke="rgb(255, 0, 0)" stroke-width="0.95" fill-rule="evenodd" stroke-linejoin="bevel" fill="none" shape-rendering="geometricPrecision" /><path d="M108.28 80.25 L111.34 87.46 C111.36 85.71 112.68 84.71 114.37 85.18 Z" stroke="rgb(255, 0, 0)" stroke-width="0" fill-rule="evenodd" stroke-linejoin="miter" stroke-miterlimit="10.980812587319" fill="rgb(255, 0, 0)" shape-rendering="geometricPrecision" /></g><g id="Arrow"><path d="M87.78 97.28 C92.16 96.35 95.87 92.83 97.03 88.5 " stroke="rgb(255, 0, 0)" stroke-width="0.95" fill-rule="evenodd" stroke-linejoin="bevel" fill="none" shape-rendering="geometricPrecision" /><path d="M82.08 97.13 L89.3 98.94 C87.98 97.88 87.98 96.38 89.3 95.33 Z" stroke="rgb(255, 0, 0)" stroke-width="0" fill-rule="evenodd" stroke-linejoin="miter" stroke-miterlimit="10.1147303801933" fill="rgb(255, 0, 0)" shape-rendering="geometricPrecision" /></g><g id="Arrow"><path d="M88.12 119.75 C86.17 116.27 82.27 113.99 78.28 113.99 " stroke="rgb(255, 0, 0)" stroke-width="0.95" fill-rule="evenodd" stroke-linejoin="bevel" fill="none" shape-rendering="geometricPrecision" /><path d="M89.56 125.27 L89.44 118.39 C88.77 119.84 87.53 120.17 86.22 119.26 Z" stroke="rgb(255, 0, 0)" stroke-width="0" fill-rule="evenodd" stroke-linejoin="miter" stroke-miterlimit="9.00187326452777" fill="rgb(255, 0, 0)" shape-rendering="geometricPrecision" /></g></g></g></svg>