<?xml version="1.0"?><svg xmlns="http://www.w3.org/2000/svg" xmlns:xlink="http://www.w3.org/1999/xlink" viewBox="58.26 218.84 214.67 63.59" preserveAspectRatio="xMidYMid" width="100%" height="100%"><clipPath id="62"><rect x="0.3" y="0.3" width="539.4" height="719.15" /></clipPath><g id="drawing"><rect x="58.26" y="218.84" width="100%" height="100%" fill="rgb(255, 255, 255)" /><g id="page" clip-path="url(#62)"><g><text xml:space="preserve" text-anchor="start" text-rendering="geometricPrecision"><tspan x="89.72" y="261.94" font-family="Arial" font-size="10" fill="rgb(0, 0, 0)">H</tspan></text></g><g><text xml:space="preserve" text-anchor="start" text-rendering="geometricPrecision"><tspan x="89.72" y="247.54" font-family="Arial" font-size="10" fill="rgb(0, 0, 0)">H</tspan></text></g><g id="Solid"><path d="M58.26 243.52 L58.26 243.52 L58.56 243.64 L58.86 243.76 L58.86 257.92 L58.56 258.04 L58.26 258.16 Z" stroke="rgb(0, 0, 0)" stroke-width="0" fill-rule="evenodd" stroke-linejoin="miter" fill="rgb(0, 0, 0)" shape-rendering="geometricPrecision" /><line x1="61.15" y1="244.71" x2="61.15" y2="256.97" stroke="rgb(0, 0, 0)" stroke-width="0.6" shape-rendering="auto" /></g><g id="Solid"><path d="M58.26 258.16 L58.26 258.16 L58.56 258.04 L58.86 257.92 L68.86 267.92 L68.74 268.22 L68.62 268.52 Z" stroke="rgb(0, 0, 0)" stroke-width="0" fill-rule="evenodd" stroke-linejoin="miter" fill="rgb(0, 0, 0)" shape-rendering="geometricPrecision" /></g><g id="Solid"><path d="M68.62 268.52 L68.62 268.52 L68.74 268.22 L68.86 267.92 L83.02 267.92 L83.14 268.22 L83.02 268.52 Z" stroke="rgb(0, 0, 0)" stroke-width="0" fill-rule="evenodd" stroke-linejoin="miter" fill="rgb(0, 0, 0)" shape-rendering="geometricPrecision" /><line x1="69.81" y1="265.63" x2="82.07" y2="265.63" stroke="rgb(0, 0, 0)" stroke-width="0.6" shape-rendering="auto" /></g><g id="Solid"><path d="M83.56 268.22 L83.56 268.22 L83.14 268.22 L83.02 267.92 L89.26 261.68 L89.47 261.89 L89.68 262.1 Z" stroke="rgb(0, 0, 0)" stroke-width="0" fill-rule="evenodd" stroke-linejoin="miter" fill="rgb(0, 0, 0)" shape-rendering="geometricPrecision" /></g><g id="Solid"><path d="M89.68 239.58 L89.68 239.58 L89.47 239.79 L89.26 240 L83.02 233.76 L83.14 233.46 L83.56 233.46 Z" stroke="rgb(0, 0, 0)" stroke-width="0" fill-rule="evenodd" stroke-linejoin="miter" fill="rgb(0, 0, 0)" shape-rendering="geometricPrecision" /></g><g id="Solid"><path d="M83.02 233.16 L83.02 233.16 L83.14 233.46 L83.02 233.76 L68.86 233.76 L68.74 233.46 L68.62 233.16 Z" stroke="rgb(0, 0, 0)" stroke-width="0" fill-rule="evenodd" stroke-linejoin="miter" fill="rgb(0, 0, 0)" shape-rendering="geometricPrecision" /><line x1="82.07" y1="236.05" x2="69.81" y2="236.05" stroke="rgb(0, 0, 0)" stroke-width="0.6" shape-rendering="auto" /></g><g id="Solid"><path d="M68.62 233.16 L68.62 233.16 L68.74 233.46 L68.86 233.76 L58.86 243.76 L58.56 243.64 L58.26 243.52 Z" stroke="rgb(0, 0, 0)" stroke-width="0" fill-rule="evenodd" stroke-linejoin="miter" fill="rgb(0, 0, 0)" shape-rendering="geometricPrecision" /></g><g><text xml:space="preserve" text-anchor="start" text-rendering="geometricPrecision"><tspan x="89.14" y="227.18" font-family="Arial" font-size="10" fill="rgb(0, 0, 0)">Me</tspan></text></g><g id="Solid"><path d="M83.56 233.46 L83.56 233.46 L83.14 233.46 L83.02 233.16 L88.56 227.62 L88.77 227.83 L88.98 228.04 Z" stroke="rgb(0, 0, 0)" stroke-width="0" fill-rule="evenodd" stroke-linejoin="miter" fill="rgb(0, 0, 0)" shape-rendering="geometricPrecision" /></g><g><text xml:space="preserve" text-anchor="start" text-rendering="geometricPrecision"><tspan x="89.14" y="282.31" font-family="Arial" font-size="10" fill="rgb(0, 0, 0)">Me</tspan></text></g><g id="Solid"><path d="M83.02 268.52 L83.02 268.52 L83.14 268.22 L83.56 268.22 L89.19 273.86 L88.98 274.07 L88.77 274.28 Z" stroke="rgb(0, 0, 0)" stroke-width="0" fill-rule="evenodd" stroke-linejoin="miter" fill="rgb(0, 0, 0)" shape-rendering="geometricPrecision" /></g><g id="Arrow"><g id="Equilibrium Arrow"><line x1="178.71" y1="249.72" x2="124.69" y2="249.72" stroke="rgb(0, 0, 0)" stroke-width="0.6" shape-rendering="auto" /><line x1="182.06" y1="251.52" x2="128.04" y2="251.52" stroke="rgb(0, 0, 0)" stroke-width="0.6" shape-rendering="auto" /></g><path d="M182.96 250.02 L176.96 248.22 C178.15 249.23 177.71 250.02 177.71 250.02 Z" stroke="rgb(0, 0, 0)" stroke-width="0" fill-rule="evenodd" stroke-linejoin="miter" stroke-miterlimit="6.05526029979717" fill="rgb(0, 0, 0)" shape-rendering="geometricPrecision" /><path d="M123.79 251.22 L129.79 253.02 C128.6 252.01 129.04 251.22 129.04 251.22 Z" stroke="rgb(0, 0, 0)" stroke-width="0" fill-rule="evenodd" stroke-linejoin="miter" stroke-miterlimit="6.05526029979717" fill="rgb(0, 0, 0)" shape-rendering="geometricPrecision" /></g><g id="Solid"><path d="M224.04 243.52 L224.04 243.52 L224.34 243.69 L224.64 243.86 L224.64 257.92 L224.34 258.09 L224.04 258.26 Z" stroke="rgb(0, 0, 0)" stroke-width="0" fill-rule="evenodd" stroke-linejoin="miter" fill="rgb(0, 0, 0)" shape-rendering="geometricPrecision" /></g><g id="Solid"><path d="M224.04 258.26 L224.04 258.26 L224.34 258.09 L224.64 257.92 L236.81 264.94 L236.81 265.29 L236.81 265.64 Z" stroke="rgb(0, 0, 0)" stroke-width="0" fill-rule="evenodd" stroke-linejoin="miter" fill="rgb(0, 0, 0)" shape-rendering="geometricPrecision" /><line x1="226.93" y1="256.59" x2="236.81" y2="262.3" stroke="rgb(0, 0, 0)" stroke-width="0.6" shape-rendering="auto" /></g><g id="Solid"><path d="M236.81 265.64 L236.81 265.64 L236.81 265.29 L236.81 264.94 L248.98 257.92 L249.28 258.09 L249.31 258.42 Z" stroke="rgb(0, 0, 0)" stroke-width="0" fill-rule="evenodd" stroke-linejoin="miter" fill="rgb(0, 0, 0)" shape-rendering="geometricPrecision" /></g><g id="Solid"><path d="M249.58 257.84 L249.58 257.84 L249.28 258.09 L248.98 257.92 L248.98 243.86 L249.28 243.69 L249.58 243.94 Z" stroke="rgb(0, 0, 0)" stroke-width="0" fill-rule="evenodd" stroke-linejoin="miter" fill="rgb(0, 0, 0)" shape-rendering="geometricPrecision" /></g><g id="Solid"><path d="M249.31 243.36 L249.31 243.36 L249.28 243.69 L248.98 243.86 L236.81 236.84 L236.81 236.49 L236.81 236.14 Z" stroke="rgb(0, 0, 0)" stroke-width="0" fill-rule="evenodd" stroke-linejoin="miter" fill="rgb(0, 0, 0)" shape-rendering="geometricPrecision" /></g><g id="Solid"><path d="M236.81 236.14 L236.81 236.14 L236.81 236.49 L236.81 236.84 L224.64 243.86 L224.34 243.69 L224.04 243.52 Z" stroke="rgb(0, 0, 0)" stroke-width="0" fill-rule="evenodd" stroke-linejoin="miter" fill="rgb(0, 0, 0)" shape-rendering="geometricPrecision" /><line x1="236.81" y1="239.48" x2="226.93" y2="245.19" stroke="rgb(0, 0, 0)" stroke-width="0.6" shape-rendering="auto" /></g><g><text xml:space="preserve" text-anchor="start" text-rendering="geometricPrecision"><tspan x="259.02" y="243.87" font-family="Arial" font-size="10" fill="rgb(0, 0, 0)">Me</tspan></text></g><g id="WedgeBegin"><path d="M249.58 243.94 L249.58 243.94 L249.28 243.69 L249.31 243.36 L257.87 239.84 L258.25 241.29 L258.64 242.74 Z" stroke="rgb(0, 0, 0)" stroke-width="0" fill-rule="evenodd" stroke-linejoin="miter" fill="rgb(0, 0, 0)" shape-rendering="geometricPrecision" /></g><g id="WedgeBegin"><path d="M249.31 258.42 L249.31 258.42 L249.28 258.09 L249.58 257.84 L258.64 259.05 L258.25 260.5 L257.87 261.95 Z" stroke="rgb(0, 0, 0)" stroke-width="0" fill-rule="evenodd" stroke-linejoin="miter" fill="rgb(0, 0, 0)" shape-rendering="geometricPrecision" /></g><g><text xml:space="preserve" text-anchor="start" text-rendering="geometricPrecision"><tspan x="259.02" y="265.72" font-family="Arial" font-size="10" fill="rgb(0, 0, 0)">Me</tspan></text></g><g><text xml:space="preserve" text-anchor="start" text-rendering="geometricPrecision"><tspan x="245.68" y="233.19" font-family="Arial" font-size="10" fill="rgb(0, 0, 0)">H</tspan></text></g><g id="Wedged Hash Begin Bond"><path d="M249.58 243.69 L249.58 243.69 L248.98 243.69 L248.9 243.09 L249.66 243.09 Z" stroke="rgb(0, 0, 0)" stroke-width="0" fill-rule="evenodd" stroke-linejoin="miter" fill="rgb(0, 0, 0)" shape-rendering="geometricPrecision" /><path d="M249.95 240.93 L249.95 240.93 L248.61 240.93 L248.53 240.33 L250.03 240.33 Z" stroke="rgb(0, 0, 0)" stroke-width="0" fill-rule="evenodd" stroke-linejoin="miter" fill="rgb(0, 0, 0)" shape-rendering="geometricPrecision" /><path d="M250.33 238.16 L250.33 238.16 L248.23 238.16 L248.15 237.56 L250.41 237.56 Z" stroke="rgb(0, 0, 0)" stroke-width="0" fill-rule="evenodd" stroke-linejoin="miter" fill="rgb(0, 0, 0)" shape-rendering="geometricPrecision" /><path d="M250.7 235.4 L250.7 235.4 L247.86 235.4 L247.78 234.8 L250.78 234.8 Z" stroke="rgb(0, 0, 0)" stroke-width="0" fill-rule="evenodd" stroke-linejoin="miter" fill="rgb(0, 0, 0)" shape-rendering="geometricPrecision" /></g><g id="Wedged Hash Begin Bond"><path d="M248.98 258.09 L248.98 258.09 L249.58 258.09 L249.65 258.69 L248.91 258.69 Z" stroke="rgb(0, 0, 0)" stroke-width="0" fill-rule="evenodd" stroke-linejoin="miter" fill="rgb(0, 0, 0)" shape-rendering="geometricPrecision" /><path d="M248.6 261.09 L248.6 261.09 L249.96 261.09 L250.03 261.69 L248.53 261.69 Z" stroke="rgb(0, 0, 0)" stroke-width="0" fill-rule="evenodd" stroke-linejoin="miter" fill="rgb(0, 0, 0)" shape-rendering="geometricPrecision" /><path d="M248.23 264.1 L248.23 264.1 L250.33 264.1 L250.4 264.7 L248.16 264.7 Z" stroke="rgb(0, 0, 0)" stroke-width="0" fill-rule="evenodd" stroke-linejoin="miter" fill="rgb(0, 0, 0)" shape-rendering="geometricPrecision" /><path d="M247.85 267.1 L247.85 267.1 L250.71 267.1 L250.78 267.7 L247.78 267.7 Z" stroke="rgb(0, 0, 0)" stroke-width="0" fill-rule="evenodd" stroke-linejoin="miter" fill="rgb(0, 0, 0)" shape-rendering="geometricPrecision" /></g><g><text xml:space="preserve" text-anchor="start" text-rendering="geometricPrecision"><tspan x="245.68" y="276.39" font-family="Arial" font-size="10" fill="rgb(0, 0, 0)">H</tspan></text></g><g id="Arrow"><path d="M65.67 242.13 C70.41 242.63 74.65 239.19 75.14 234.46 C75.17 234.16 75.19 233.87 75.19 233.57 " stroke="rgb(255, 0, 0)" stroke-width="0.6" fill-rule="evenodd" stroke-linejoin="bevel" fill="none" shape-rendering="geometricPrecision" /><path d="M62.25 241.02 L66.53 243.49 C65.72 242.56 66.01 241.55 67.19 241.19 Z" stroke="rgb(255, 0, 0)" stroke-width="0" fill-rule="evenodd" stroke-linejoin="miter" stroke-miterlimit="6.93525005514887" fill="rgb(255, 0, 0)" shape-rendering="geometricPrecision" /></g><g id="Arrow"><path d="M67.54 260.29 C68 255.61 64.57 251.44 59.89 250.98 C59.62 250.95 59.34 250.94 59.06 250.94 " stroke="rgb(255, 0, 0)" stroke-width="0.6" fill-rule="evenodd" stroke-linejoin="bevel" fill="none" shape-rendering="geometricPrecision" /><path d="M66.44 263.72 L68.9 259.42 C67.97 260.24 66.95 259.96 66.59 258.77 Z" stroke="rgb(255, 0, 0)" stroke-width="0" fill-rule="evenodd" stroke-linejoin="miter" stroke-miterlimit="6.93525005514892" fill="rgb(255, 0, 0)" shape-rendering="geometricPrecision" /></g><g id="Arrow"><path d="M79.24 239.83 C73.85 246.67 73.75 257.92 79 264.93 C79.87 266.09 80.87 267.09 81.95 267.91 " stroke="rgb(255, 0, 0)" stroke-width="0.6" fill-rule="evenodd" stroke-linejoin="bevel" fill="none" shape-rendering="geometricPrecision" /><path d="M81.94 237.16 L77.57 239.86 C78.81 239.56 79.62 240.35 79.35 241.6 Z" stroke="rgb(255, 0, 0)" stroke-width="0" fill-rule="evenodd" stroke-linejoin="miter" stroke-miterlimit="7.39712723699402" fill="rgb(255, 0, 0)" shape-rendering="geometricPrecision" /></g></g></g></svg>