<?xml version="1.0"?><svg xmlns="http://www.w3.org/2000/svg" xmlns:xlink="http://www.w3.org/1999/xlink" viewBox="40.31 211.67 289.5 99.41" preserveAspectRatio="xMidYMid" width="100%" height="100%"><clipPath id="710"><rect x="0.3" y="0.3" width="522.72" height="769.32" /></clipPath><g id="drawing"><rect x="40.31" y="211.67" width="100%" height="100%" fill="rgb(255, 255, 255)" /><g id="page" clip-path="url(#710)"><g id="Solid"><path d="M40.31 278.91 L40.31 278.91 L40.61 279.08 L40.91 279.25 L40.91 293.31 L40.61 293.48 L40.31 293.65 Z" stroke="rgb(0, 0, 0)" stroke-width="0" fill-rule="evenodd" stroke-linejoin="miter" fill="rgb(0, 0, 0)" shape-rendering="geometricPrecision" /></g><g id="Solid"><path d="M40.31 293.65 L40.31 293.65 L40.61 293.48 L40.91 293.31 L53.09 300.33 L53.09 300.68 L52.6 300.74 Z" stroke="rgb(0, 0, 0)" stroke-width="0" fill-rule="evenodd" stroke-linejoin="miter" fill="rgb(0, 0, 0)" shape-rendering="geometricPrecision" /></g><g id="Solid"><path d="M53.58 300.74 L53.58 300.74 L53.09 300.68 L53.09 300.33 L65.26 293.31 L65.56 293.48 L65.56 293.83 Z" stroke="rgb(0, 0, 0)" stroke-width="0" fill-rule="evenodd" stroke-linejoin="miter" fill="rgb(0, 0, 0)" shape-rendering="geometricPrecision" /></g><g id="Solid"><path d="M65.86 293.31 L65.86 293.31 L65.56 293.48 L65.26 293.31 L65.26 279.25 L65.56 279.08 L65.86 278.91 Z" stroke="rgb(0, 0, 0)" stroke-width="0" fill-rule="evenodd" stroke-linejoin="miter" fill="rgb(0, 0, 0)" shape-rendering="geometricPrecision" /><line x1="62.97" y1="291.98" x2="62.97" y2="280.58" stroke="rgb(0, 0, 0)" stroke-width="0.6" shape-rendering="auto" /></g><g id="Solid"><path d="M65.86 278.91 L65.86 278.91 L65.56 279.08 L65.26 279.25 L53.09 272.23 L53.09 271.88 L53.09 271.53 Z" stroke="rgb(0, 0, 0)" stroke-width="0" fill-rule="evenodd" stroke-linejoin="miter" fill="rgb(0, 0, 0)" shape-rendering="geometricPrecision" /></g><g id="Solid"><path d="M53.09 271.53 L53.09 271.53 L53.09 271.88 L53.09 272.23 L40.91 279.25 L40.61 279.08 L40.31 278.91 Z" stroke="rgb(0, 0, 0)" stroke-width="0" fill-rule="evenodd" stroke-linejoin="miter" fill="rgb(0, 0, 0)" shape-rendering="geometricPrecision" /></g><g id="Solid"><path d="M65.56 293.83 L65.56 293.83 L65.56 293.48 L65.86 293.31 L78.03 300.33 L78.03 300.68 L78.03 301.03 Z" stroke="rgb(0, 0, 0)" stroke-width="0" fill-rule="evenodd" stroke-linejoin="miter" fill="rgb(0, 0, 0)" shape-rendering="geometricPrecision" /></g><g id="Solid"><path d="M78.03 301.03 L78.03 301.03 L78.03 300.68 L78.03 300.33 L90.35 293.22 L90.5 293.48 L90.65 293.74 Z" stroke="rgb(0, 0, 0)" stroke-width="0" fill-rule="evenodd" stroke-linejoin="miter" fill="rgb(0, 0, 0)" shape-rendering="geometricPrecision" /><line x1="78.03" y1="297.69" x2="89.2" y2="291.24" stroke="rgb(0, 0, 0)" stroke-width="0.6" shape-rendering="auto" /></g><g id="Solid"><path d="M52.6 300.74 L52.6 300.74 L53.09 300.68 L53.09 301.1 L43.11 311.07 L42.9 310.86 L42.69 310.65 Z" stroke="rgb(0, 0, 0)" stroke-width="0" fill-rule="evenodd" stroke-linejoin="miter" fill="rgb(0, 0, 0)" shape-rendering="geometricPrecision" /></g><g id="Solid"><path d="M53.09 301.1 L53.09 301.1 L53.09 300.68 L53.58 300.74 L63.48 310.65 L63.27 310.86 L63.06 311.07 Z" stroke="rgb(0, 0, 0)" stroke-width="0" fill-rule="evenodd" stroke-linejoin="miter" fill="rgb(0, 0, 0)" shape-rendering="geometricPrecision" /></g><g id="Solid"><path d="M98.06 237.66 L98.06 237.66 L98.36 237.83 L98.66 238 L98.66 252.06 L98.36 252.23 L98.06 252.4 Z" stroke="rgb(0, 0, 0)" stroke-width="0" fill-rule="evenodd" stroke-linejoin="miter" fill="rgb(0, 0, 0)" shape-rendering="geometricPrecision" /></g><g id="Solid"><path d="M98.06 252.4 L98.06 252.4 L98.36 252.23 L98.66 252.06 L110.84 259.08 L110.84 259.43 L110.84 259.78 Z" stroke="rgb(0, 0, 0)" stroke-width="0" fill-rule="evenodd" stroke-linejoin="miter" fill="rgb(0, 0, 0)" shape-rendering="geometricPrecision" /><line x1="100.95" y1="250.73" x2="110.84" y2="256.44" stroke="rgb(0, 0, 0)" stroke-width="0.6" shape-rendering="auto" /></g><g id="Solid"><path d="M110.84 259.78 L110.84 259.78 L110.84 259.43 L110.84 259.08 L123.01 252.06 L123.31 252.23 L123.61 252.4 Z" stroke="rgb(0, 0, 0)" stroke-width="0" fill-rule="evenodd" stroke-linejoin="miter" fill="rgb(0, 0, 0)" shape-rendering="geometricPrecision" /></g><g id="Solid"><path d="M123.61 252.4 L123.61 252.4 L123.31 252.23 L123.01 252.06 L123.01 238 L123.31 237.83 L123.61 238 Z" stroke="rgb(0, 0, 0)" stroke-width="0" fill-rule="evenodd" stroke-linejoin="miter" fill="rgb(0, 0, 0)" shape-rendering="geometricPrecision" /><line x1="120.72" y1="250.73" x2="120.72" y2="239.33" stroke="rgb(0, 0, 0)" stroke-width="0.6" shape-rendering="auto" /></g><g id="Solid"><path d="M123.31 237.48 L123.31 237.48 L123.31 237.83 L123.01 238 L110.84 230.98 L110.84 230.63 L110.84 230.28 Z" stroke="rgb(0, 0, 0)" stroke-width="0" fill-rule="evenodd" stroke-linejoin="miter" fill="rgb(0, 0, 0)" shape-rendering="geometricPrecision" /></g><g id="Solid"><path d="M110.84 230.28 L110.84 230.28 L110.84 230.63 L110.84 230.98 L98.66 238 L98.36 237.83 L98.06 237.66 Z" stroke="rgb(0, 0, 0)" stroke-width="0" fill-rule="evenodd" stroke-linejoin="miter" fill="rgb(0, 0, 0)" shape-rendering="geometricPrecision" /></g><g><text xml:space="preserve" text-anchor="start" text-rendering="geometricPrecision"><tspan x="81.99" y="234.53" font-family="Arial" font-size="10" fill="rgb(0, 0, 0)">O</tspan></text></g><g id="Solid"><line x1="97.71" y1="238.95" x2="90.14" y2="234.58" stroke="rgb(0, 0, 0)" stroke-width="0.6" shape-rendering="auto" /><path d="M99.06 237.08 L99.06 237.08 L99.66 236.74 L91.58 232.07 L91.28 232.59 Z" stroke="rgb(0, 0, 0)" stroke-width="0" fill-rule="evenodd" stroke-linejoin="miter" fill="rgb(0, 0, 0)" shape-rendering="geometricPrecision" /><path d="M98.06 239.5 L98.06 239.5 L98.06 238.81 L90.29 234.32 L89.99 234.84 Z" stroke="rgb(0, 0, 0)" stroke-width="0" fill-rule="evenodd" stroke-linejoin="miter" fill="rgb(0, 0, 0)" shape-rendering="geometricPrecision" /></g><g><text xml:space="preserve" text-anchor="start" text-rendering="geometricPrecision"><tspan x="106.94" y="220.13" font-family="Arial" font-size="10" fill="rgb(0, 0, 0)">O</tspan></text></g><g id="Solid"><line x1="109.54" y1="230.63" x2="109.54" y2="221.9" stroke="rgb(0, 0, 0)" stroke-width="0.6" shape-rendering="auto" /><path d="M111.84 230.86 L111.84 230.86 L112.44 231.21 L112.44 221.9 L111.84 221.9 Z" stroke="rgb(0, 0, 0)" stroke-width="0" fill-rule="evenodd" stroke-linejoin="miter" fill="rgb(0, 0, 0)" shape-rendering="geometricPrecision" /><path d="M109.24 231.2 L109.24 231.2 L109.84 230.86 L109.84 221.9 L109.24 221.9 Z" stroke="rgb(0, 0, 0)" stroke-width="0" fill-rule="evenodd" stroke-linejoin="miter" fill="rgb(0, 0, 0)" shape-rendering="geometricPrecision" /></g><g id="Solid"><path d="M123.61 238 L123.61 238 L123.31 237.83 L123.31 237.48 L135.48 230.46 L135.78 230.63 L135.78 230.98 Z" stroke="rgb(0, 0, 0)" stroke-width="0" fill-rule="evenodd" stroke-linejoin="miter" fill="rgb(0, 0, 0)" shape-rendering="geometricPrecision" /></g><g id="Solid"><path d="M135.78 230.98 L135.78 230.98 L135.78 230.63 L136.08 230.46 L148.4 237.57 L148.25 237.83 L148.1 238.09 Z" stroke="rgb(0, 0, 0)" stroke-width="0" fill-rule="evenodd" stroke-linejoin="miter" fill="rgb(0, 0, 0)" shape-rendering="geometricPrecision" /></g><g id="Solid"><path d="M136.08 230.46 L136.08 230.46 L135.78 230.63 L135.48 230.46 L135.48 216.23 L135.78 216.23 L136.08 216.23 Z" stroke="rgb(0, 0, 0)" stroke-width="0" fill-rule="evenodd" stroke-linejoin="miter" fill="rgb(0, 0, 0)" shape-rendering="geometricPrecision" /></g><g><text xml:space="preserve" text-anchor="start" text-rendering="geometricPrecision"><tspan x="87.59" y="273.53" font-family="Arial" font-size="10" fill="rgb(0, 0, 0)">+</tspan></text></g><g id="Arrow"><line x1="193.59" y1="266.78" x2="164.84" y2="266.78" stroke="rgb(0, 0, 0)" stroke-width="0.6" shape-rendering="auto" /><path d="M197.84 266.78 L191.84 265.28 C193.03 266.12 193.03 267.44 191.84 268.28 Z" stroke="rgb(0, 0, 0)" stroke-width="0" fill-rule="evenodd" stroke-linejoin="miter" stroke-miterlimit="6.93525005514877" fill="rgb(0, 0, 0)" shape-rendering="geometricPrecision" /></g><g id="Solid"><path d="M242.06 274.41 L242.06 274.41 L242.36 274.58 L242.66 274.75 L242.66 288.81 L242.36 288.98 L242.06 289.15 Z" stroke="rgb(0, 0, 0)" stroke-width="0" fill-rule="evenodd" stroke-linejoin="miter" fill="rgb(0, 0, 0)" shape-rendering="geometricPrecision" /></g><g id="Solid"><path d="M242.06 289.15 L242.06 289.15 L242.36 288.98 L242.66 288.81 L254.84 295.83 L254.84 296.18 L254.35 296.24 Z" stroke="rgb(0, 0, 0)" stroke-width="0" fill-rule="evenodd" stroke-linejoin="miter" fill="rgb(0, 0, 0)" shape-rendering="geometricPrecision" /></g><g id="Solid"><path d="M255.33 296.24 L255.33 296.24 L254.84 296.18 L254.84 295.83 L267.01 288.81 L267.31 288.98 L267.31 289.33 Z" stroke="rgb(0, 0, 0)" stroke-width="0" fill-rule="evenodd" stroke-linejoin="miter" fill="rgb(0, 0, 0)" shape-rendering="geometricPrecision" /></g><g id="Solid"><path d="M267.61 288.81 L267.61 288.81 L267.31 288.98 L267.01 288.81 L267.01 274.75 L267.31 274.58 L267.61 274.75 Z" stroke="rgb(0, 0, 0)" stroke-width="0" fill-rule="evenodd" stroke-linejoin="miter" fill="rgb(0, 0, 0)" shape-rendering="geometricPrecision" /></g><g id="Solid"><path d="M267.31 274.23 L267.31 274.23 L267.31 274.58 L267.01 274.75 L254.84 267.73 L254.84 267.38 L254.84 267.03 Z" stroke="rgb(0, 0, 0)" stroke-width="0" fill-rule="evenodd" stroke-linejoin="miter" fill="rgb(0, 0, 0)" shape-rendering="geometricPrecision" /></g><g id="Solid"><path d="M254.84 267.03 L254.84 267.03 L254.84 267.38 L254.84 267.73 L242.66 274.75 L242.36 274.58 L242.06 274.41 Z" stroke="rgb(0, 0, 0)" stroke-width="0" fill-rule="evenodd" stroke-linejoin="miter" fill="rgb(0, 0, 0)" shape-rendering="geometricPrecision" /></g><g id="Solid"><path d="M267.31 289.33 L267.31 289.33 L267.31 288.98 L267.61 288.81 L279.78 295.83 L279.78 296.18 L279.78 296.53 Z" stroke="rgb(0, 0, 0)" stroke-width="0" fill-rule="evenodd" stroke-linejoin="miter" fill="rgb(0, 0, 0)" shape-rendering="geometricPrecision" /><line x1="269.9" y1="287.48" x2="279.78" y2="293.19" stroke="rgb(0, 0, 0)" stroke-width="0.6" shape-rendering="auto" /></g><g id="Solid"><path d="M279.78 296.53 L279.78 296.53 L279.78 296.18 L279.78 295.83 L291.95 288.81 L292.25 288.98 L292.55 289.15 Z" stroke="rgb(0, 0, 0)" stroke-width="0" fill-rule="evenodd" stroke-linejoin="miter" fill="rgb(0, 0, 0)" shape-rendering="geometricPrecision" /></g><g id="Solid"><path d="M292.55 289.15 L292.55 289.15 L292.25 288.98 L291.95 288.81 L291.95 274.75 L292.25 274.58 L292.55 274.75 Z" stroke="rgb(0, 0, 0)" stroke-width="0" fill-rule="evenodd" stroke-linejoin="miter" fill="rgb(0, 0, 0)" shape-rendering="geometricPrecision" /></g><g id="Solid"><path d="M292.25 274.23 L292.25 274.23 L292.25 274.58 L291.95 274.75 L279.78 267.73 L279.78 267.38 L280.08 267.21 Z" stroke="rgb(0, 0, 0)" stroke-width="0" fill-rule="evenodd" stroke-linejoin="miter" fill="rgb(0, 0, 0)" shape-rendering="geometricPrecision" /></g><g id="Solid"><path d="M279.48 267.21 L279.48 267.21 L279.78 267.38 L279.78 267.73 L267.61 274.75 L267.31 274.58 L267.31 274.23 Z" stroke="rgb(0, 0, 0)" stroke-width="0" fill-rule="evenodd" stroke-linejoin="miter" fill="rgb(0, 0, 0)" shape-rendering="geometricPrecision" /></g><g id="Solid"><path d="M292.55 274.75 L292.55 274.75 L292.25 274.58 L292.25 274.23 L304.42 267.21 L304.72 267.38 L305.02 267.55 Z" stroke="rgb(0, 0, 0)" stroke-width="0" fill-rule="evenodd" stroke-linejoin="miter" fill="rgb(0, 0, 0)" shape-rendering="geometricPrecision" /></g><g id="Solid"><path d="M305.02 267.55 L305.02 267.55 L304.72 267.38 L304.42 267.21 L304.42 253.15 L304.72 252.98 L305.02 253.15 Z" stroke="rgb(0, 0, 0)" stroke-width="0" fill-rule="evenodd" stroke-linejoin="miter" fill="rgb(0, 0, 0)" shape-rendering="geometricPrecision" /><line x1="302.13" y1="265.88" x2="302.13" y2="254.48" stroke="rgb(0, 0, 0)" stroke-width="0.6" shape-rendering="auto" /></g><g id="Solid"><path d="M304.72 252.63 L304.72 252.63 L304.72 252.98 L304.42 253.15 L292.25 246.13 L292.25 245.78 L292.25 245.43 Z" stroke="rgb(0, 0, 0)" stroke-width="0" fill-rule="evenodd" stroke-linejoin="miter" fill="rgb(0, 0, 0)" shape-rendering="geometricPrecision" /></g><g id="Solid"><path d="M292.25 245.43 L292.25 245.43 L292.25 245.78 L292.25 246.13 L280.08 253.15 L279.78 252.98 L279.48 252.81 Z" stroke="rgb(0, 0, 0)" stroke-width="0" fill-rule="evenodd" stroke-linejoin="miter" fill="rgb(0, 0, 0)" shape-rendering="geometricPrecision" /></g><g id="Solid"><path d="M279.48 252.81 L279.48 252.81 L279.78 252.98 L280.08 253.15 L280.08 267.21 L279.78 267.38 L279.48 267.21 Z" stroke="rgb(0, 0, 0)" stroke-width="0" fill-rule="evenodd" stroke-linejoin="miter" fill="rgb(0, 0, 0)" shape-rendering="geometricPrecision" /></g><g id="Solid"><path d="M254.35 296.24 L254.35 296.24 L254.84 296.18 L254.84 296.6 L244.86 306.57 L244.65 306.36 L244.44 306.15 Z" stroke="rgb(0, 0, 0)" stroke-width="0" fill-rule="evenodd" stroke-linejoin="miter" fill="rgb(0, 0, 0)" shape-rendering="geometricPrecision" /></g><g id="Solid"><path d="M254.84 296.6 L254.84 296.6 L254.84 296.18 L255.33 296.24 L265.23 306.15 L265.02 306.36 L264.81 306.57 Z" stroke="rgb(0, 0, 0)" stroke-width="0" fill-rule="evenodd" stroke-linejoin="miter" fill="rgb(0, 0, 0)" shape-rendering="geometricPrecision" /></g><g id="Solid"><path d="M305.02 253.15 L305.02 253.15 L304.72 252.98 L304.72 252.63 L316.89 245.61 L317.19 245.78 L317.19 246.13 Z" stroke="rgb(0, 0, 0)" stroke-width="0" fill-rule="evenodd" stroke-linejoin="miter" fill="rgb(0, 0, 0)" shape-rendering="geometricPrecision" /></g><g id="Solid"><path d="M317.19 246.13 L317.19 246.13 L317.19 245.78 L317.49 245.61 L329.81 252.72 L329.66 252.98 L329.51 253.24 Z" stroke="rgb(0, 0, 0)" stroke-width="0" fill-rule="evenodd" stroke-linejoin="miter" fill="rgb(0, 0, 0)" shape-rendering="geometricPrecision" /></g><g id="Solid"><path d="M317.49 245.61 L317.49 245.61 L317.19 245.78 L316.89 245.61 L316.89 231.38 L317.19 231.38 L317.49 231.38 Z" stroke="rgb(0, 0, 0)" stroke-width="0" fill-rule="evenodd" stroke-linejoin="miter" fill="rgb(0, 0, 0)" shape-rendering="geometricPrecision" /></g><g><text xml:space="preserve" text-anchor="start" text-rendering="geometricPrecision"><tspan x="288.35" y="235.28" font-family="Arial" font-size="10" fill="rgb(0, 0, 0)">O</tspan></text></g><g id="Solid"><line x1="290.95" y1="245.78" x2="290.95" y2="237.1" stroke="rgb(0, 0, 0)" stroke-width="0.6" shape-rendering="auto" /><path d="M293.25 246.01 L293.25 246.01 L293.85 246.36 L293.85 237.1 L293.25 237.1 Z" stroke="rgb(0, 0, 0)" stroke-width="0" fill-rule="evenodd" stroke-linejoin="miter" fill="rgb(0, 0, 0)" shape-rendering="geometricPrecision" /><path d="M290.65 246.36 L290.65 246.36 L291.25 246.01 L291.25 237.1 L290.65 237.1 Z" stroke="rgb(0, 0, 0)" stroke-width="0" fill-rule="evenodd" stroke-linejoin="miter" fill="rgb(0, 0, 0)" shape-rendering="geometricPrecision" /></g><g><text xml:space="preserve" text-anchor="start" text-rendering="geometricPrecision"><tspan x="263.41" y="249.68" font-family="Arial" font-size="10" fill="rgb(0, 0, 0)">O</tspan></text></g><g id="Solid"><line x1="279.13" y1="254.1" x2="271.54" y2="249.72" stroke="rgb(0, 0, 0)" stroke-width="0.6" shape-rendering="auto" /><path d="M280.48 252.23 L280.48 252.23 L281.08 251.89 L272.98 247.21 L272.68 247.73 Z" stroke="rgb(0, 0, 0)" stroke-width="0" fill-rule="evenodd" stroke-linejoin="miter" fill="rgb(0, 0, 0)" shape-rendering="geometricPrecision" /><path d="M279.48 254.65 L279.48 254.65 L279.48 253.96 L271.69 249.46 L271.39 249.98 Z" stroke="rgb(0, 0, 0)" stroke-width="0" fill-rule="evenodd" stroke-linejoin="miter" fill="rgb(0, 0, 0)" shape-rendering="geometricPrecision" /></g><g id="Arrow"><path d="M88.03 300 C102.7 296.07 112.94 280.49 110.74 265.47 " stroke="rgb(255, 0, 0)" stroke-width="0.6" fill-rule="evenodd" stroke-linejoin="bevel" fill="none" shape-rendering="geometricPrecision" /><path d="M110.01 261.94 L109.76 266.88 C110.22 265.73 111.25 265.53 112.11 266.42 Z" stroke="rgb(255, 0, 0)" stroke-width="0" fill-rule="evenodd" stroke-linejoin="miter" stroke-miterlimit="6.93525005514859" fill="rgb(255, 0, 0)" shape-rendering="geometricPrecision" /></g><g id="Arrow"><path d="M105.28 250.5 C93.24 243.55 77.83 247.68 70.87 259.73 C69.28 262.49 68.21 265.57 67.76 268.73 " stroke="rgb(255, 0, 0)" stroke-width="0.6" fill-rule="evenodd" stroke-linejoin="bevel" fill="none" shape-rendering="geometricPrecision" /><path d="M67.5 272.32 L69.1 267.64 C68.34 268.61 67.29 268.53 66.7 267.44 Z" stroke="rgb(255, 0, 0)" stroke-width="0" fill-rule="evenodd" stroke-linejoin="miter" stroke-miterlimit="6.93525005514869" fill="rgb(255, 0, 0)" shape-rendering="geometricPrecision" /></g><g id="Arrow"><path d="M72.84 291.61 C72.22 289.17 70.22 287.14 67.78 286.49 " stroke="rgb(255, 0, 0)" stroke-width="0.6" fill-rule="evenodd" stroke-linejoin="bevel" fill="none" shape-rendering="geometricPrecision" /><path d="M72.82 295.21 L73.87 291 C73.22 291.91 72.41 291.91 71.76 291 Z" stroke="rgb(255, 0, 0)" stroke-width="0" fill-rule="evenodd" stroke-linejoin="miter" stroke-miterlimit="5.68268621783074" fill="rgb(255, 0, 0)" shape-rendering="geometricPrecision" /></g></g></g></svg>