<?xml version="1.0"?><svg xmlns="http://www.w3.org/2000/svg" xmlns:xlink="http://www.w3.org/1999/xlink" viewBox="136.4 161.6 109.83 100.5" preserveAspectRatio="xMidYMid" width="100%" height="100%"><clipPath id="4122"><rect x="0.3" y="0.3" width="522.72" height="769.32" /></clipPath><g id="drawing"><rect x="136.4" y="161.6" width="100%" height="100%" fill="rgb(255, 255, 255)" /><g id="page" clip-path="url(#4122)"><g id="Solid"><g id="Bond's parts"><path d="M197.93 204.7 L197.93 204.7 L198.15 204.7 L198.45 204.8 L198.85 204.9 L199.25 205 L199.45 205.05 L199.5 205.35 L199.6 205.55 L199.6 205.75 L199.57 205.7 L199.15 205.6 L198.75 205.5 L198.35 205.4 L198.05 205.3 L197.77 205.2 L197.8 205.15 L197.9 204.75 Z" stroke="rgb(0, 0, 0)" stroke-width="0" fill-rule="evenodd" stroke-linejoin="miter" fill="rgb(0, 0, 0)" shape-rendering="geometricPrecision" /><path d="M204.05 206.35 L204.05 206.35 L204.45 206.4 L204.85 206.5 L205.15 206.6 L205.55 206.7 L205.95 206.8 L206.35 206.9 L206.65 207 L207.02 207.1 L206.95 207.2 L206.85 207.3 L206.77 207.4 L206.55 207.5 L206.25 207.5 L205.85 207.4 L205.45 207.3 L205.15 207.2 L204.75 207.1 L204.32 207 L204.3 206.95 L204.2 206.75 Z" stroke="rgb(0, 0, 0)" stroke-width="0" fill-rule="evenodd" stroke-linejoin="miter" fill="rgb(0, 0, 0)" shape-rendering="geometricPrecision" /></g></g><g id="Solid"><g id="Bond's parts"><path d="M178.65 180 L178.65 180 L178.75 180 L178.85 180.1 L178.95 180.2 L179.05 180.3 L179.15 180.4 L179.25 180.5 L179.35 180.6 L179.45 180.7 L179.5 180.75 L179.6 180.95 L179.7 181.15 L179.75 181.2 L179.8 181.25 L179.9 181.45 L180 181.65 L180.05 181.7 L180.1 181.75 L180.2 181.95 L180.3 182.15 L180.35 182.2 L180.4 182.25 L180.5 182.45 L180.6 182.65 L180.65 182.7 L180.7 182.75 L180.8 182.95 L180.9 183.15 L180.95 183.2 L181 183.25 L181.1 183.45 L181.2 183.65 L181.25 183.7 L181.3 183.75 L181.4 183.95 L181.5 184.15 L181.55 184.2 L181.6 184.25 L181.7 184.45 L181.8 184.65 L181.85 184.7 L181.9 184.75 L182 184.95 L182.1 185.15 L182.15 185.2 L182.2 185.25 L182.3 185.45 L182.4 185.65 L182.45 185.7 L182.5 185.75 L182.6 185.95 L182.7 186.15 L182.75 186.2 L182.8 186.25 L182.9 186.45 L183 186.65 L183.05 186.7 L183.1 186.75 L183.2 186.95 L183.3 187.15 L183.35 187.2 L183.4 187.25 L183.5 187.45 L183.6 187.65 L183.65 187.7 L183.7 187.75 L183.8 187.95 L183.85 188 L183.9 188.05 L184 188.25 L184.1 188.45 L184.15 188.5 L184.2 188.55 L184.3 188.75 L184.4 188.95 L184.45 189 L184.5 189.05 L184.6 189.25 L184.7 189.45 L184.75 189.5 L184.8 189.55 L184.9 189.75 L185 189.95 L185.05 190 L185.1 190.05 L185.2 190.25 L185.3 190.45 L185.35 190.5 L185.4 190.55 L185.5 190.75 L185.6 190.95 L185.65 191 L185.7 191.05 L185.8 191.25 L185.9 191.45 L185.95 191.5 L186 191.55 L186.1 191.75 L186.2 191.95 L186.25 192 L186.3 192.05 L186.4 192.25 L186.5 192.45 L186.55 192.5 L186.6 192.55 L186.7 192.75 L186.8 192.95 L186.85 193 L186.9 193.05 L186.9 193.35 L186.85 193.4 L186.75 193.5 L186.65 193.6 L186.55 193.6 L186.45 193.5 L186.4 193.45 L186.3 193.25 L186.2 193.05 L186.15 193 L186.1 192.95 L186 192.75 L185.9 192.55 L185.85 192.5 L185.8 192.45 L185.7 192.25 L185.6 192.05 L185.55 192 L185.5 191.95 L185.4 191.75 L185.3 191.55 L185.25 191.5 L185.2 191.45 L185.1 191.25 L185 191.05 L184.95 191 L184.9 190.95 L184.8 190.75 L184.7 190.55 L184.65 190.5 L184.6 190.45 L184.5 190.25 L184.4 190.05 L184.35 190 L184.3 189.95 L184.2 189.75 L184.1 189.55 L184.05 189.5 L184 189.45 L183.9 189.25 L183.8 189.05 L183.75 189 L183.7 188.95 L183.6 188.75 L183.5 188.55 L183.45 188.5 L183.4 188.45 L183.3 188.25 L183.2 188.05 L183.15 188 L183.1 187.95 L183 187.75 L182.9 187.55 L182.85 187.5 L182.8 187.45 L182.7 187.25 L182.65 187.2 L182.6 187.15 L182.5 186.95 L182.4 186.75 L182.35 186.7 L182.3 186.65 L182.2 186.45 L182.1 186.25 L182.05 186.2 L182 186.15 L181.9 185.95 L181.8 185.75 L181.75 185.7 L181.7 185.65 L181.6 185.45 L181.5 185.25 L181.45 185.2 L181.4 185.15 L181.3 184.95 L181.2 184.75 L181.15 184.7 L181.1 184.65 L181 184.45 L180.9 184.25 L180.85 184.2 L180.8 184.15 L180.7 183.95 L180.6 183.75 L180.55 183.7 L180.5 183.65 L180.4 183.45 L180.3 183.25 L180.25 183.2 L180.2 183.15 L180.1 182.95 L180 182.75 L179.95 182.7 L179.9 182.65 L179.8 182.45 L179.7 182.25 L179.65 182.2 L179.6 182.15 L179.5 181.95 L179.4 181.75 L179.35 181.7 L179.3 181.65 L179.2 181.45 L179.1 181.25 L179.05 181.2 L179 181.15 L178.9 180.95 L178.8 180.75 L178.75 180.7 L178.7 180.65 L178.6 180.45 L178.6 180.05 Z" stroke="rgb(0, 0, 0)" stroke-width="0" fill-rule="evenodd" stroke-linejoin="miter" fill="rgb(0, 0, 0)" shape-rendering="geometricPrecision" /></g></g><g><text xml:space="preserve" text-anchor="start" text-rendering="geometricPrecision"><tspan x="188.98" y="207.51" font-family="Arial" font-size="10" fill="rgb(0, 0, 0)">O</tspan></text></g><g id="Solid"><path d="M179.45 180.7 L179.45 180.7 L178.65 179.95 L178.95 179.77 L194.32 187.67 L194.08 187.89 L193.6 187.98 Z" stroke="rgb(0, 0, 0)" stroke-width="0" fill-rule="evenodd" stroke-linejoin="miter" fill="rgb(0, 0, 0)" shape-rendering="geometricPrecision" /></g><g id="Solid"><path d="M178.35 179.72 L178.35 179.72 L178.65 179.95 L178.51 180.3 L161.16 185.44 L160.99 185.18 L160.82 184.92 Z" stroke="rgb(0, 0, 0)" stroke-width="0" fill-rule="evenodd" stroke-linejoin="miter" fill="rgb(0, 0, 0)" shape-rendering="geometricPrecision" /></g><g id="Solid"><path d="M160.82 184.92 L160.82 184.92 L160.99 185.18 L161.16 185.44 L149.04 199.02 L148.56 199.11 L148.08 199.2 Z" stroke="rgb(0, 0, 0)" stroke-width="0" fill-rule="evenodd" stroke-linejoin="miter" fill="rgb(0, 0, 0)" shape-rendering="geometricPrecision" /></g><g id="Solid"><path d="M148.08 199.2 L148.08 199.2 L148.56 199.11 L149.04 199.02 L162.58 206 L162.53 206.31 L162.48 206.62 Z" stroke="rgb(0, 0, 0)" stroke-width="0" fill-rule="evenodd" stroke-linejoin="miter" fill="rgb(0, 0, 0)" shape-rendering="geometricPrecision" /></g><g id="Solid"><path d="M162.48 206.62 L162.48 206.62 L162.53 206.31 L162.58 206 L180.04 203.06 L180.19 203.34 L179.88 203.7 Z" stroke="rgb(0, 0, 0)" stroke-width="0" fill-rule="evenodd" stroke-linejoin="miter" fill="rgb(0, 0, 0)" shape-rendering="geometricPrecision" /></g><g id="Solid"><path d="M180.55 203.39 L180.55 203.39 L180.19 203.34 L180.04 203.06 L193.6 187.98 L194.08 187.89 L193.98 188.44 Z" stroke="rgb(0, 0, 0)" stroke-width="0" fill-rule="evenodd" stroke-linejoin="miter" fill="rgb(0, 0, 0)" shape-rendering="geometricPrecision" /><line x1="184.62" y1="204" x2="192.89" y2="194.8" stroke="rgb(0, 0, 0)" stroke-width="0.6" shape-rendering="auto" /></g><g><text xml:space="preserve" text-anchor="end" text-rendering="geometricPrecision"><tspan x="183.26" y="225.65" font-family="Arial" font-size="10" fill="rgb(0, 0, 0)">MeO</tspan><tspan font-family="Arial" dy="2.26" font-size="7.5" fill="rgb(0, 0, 0)">2</tspan><tspan font-family="Arial" dy="-2.26" font-size="10" fill="rgb(0, 0, 0)">C</tspan></text></g><g><text xml:space="preserve" text-anchor="start" text-rendering="geometricPrecision"><tspan x="175.32" y="169.94" font-family="Arial" font-size="10" fill="rgb(0, 0, 0)">H</tspan></text></g><g id="Solid"><path d="M178.95 179.77 L178.95 179.77 L178.65 179.95 L178.35 179.72 L178.51 171.59 L178.81 171.6 L179.11 171.61 Z" stroke="rgb(0, 0, 0)" stroke-width="0" fill-rule="evenodd" stroke-linejoin="miter" fill="rgb(0, 0, 0)" shape-rendering="geometricPrecision" /></g><g><text xml:space="preserve" text-anchor="end" text-rendering="geometricPrecision"><tspan x="195.69" y="261.84" font-family="Arial" font-size="10" fill="rgb(0, 0, 0)">Me</tspan></text></g><g id="Solid"><path d="M199.67 246.37 L199.67 246.37 L200.1 246.25 L200.29 246.51 L196 253.49 L195.74 253.34 L195.49 253.18 Z" stroke="rgb(0, 0, 0)" stroke-width="0" fill-rule="evenodd" stroke-linejoin="miter" fill="rgb(0, 0, 0)" shape-rendering="geometricPrecision" /></g><g id="Solid"><path d="M179.88 203.7 L179.88 203.7 L180.19 203.34 L180.45 204.62 L180.1 216.81 L179.8 216.8 L179.5 216.79 Z" stroke="rgb(0, 0, 0)" stroke-width="0" fill-rule="evenodd" stroke-linejoin="miter" fill="rgb(0, 0, 0)" shape-rendering="geometricPrecision" /></g><g id="Dash"><g id="Bond's parts"><path d="M194.25 187.7 L194.25 187.7 L194.3 187.65 L194.4 187.85 L194.5 188.15 L194.6 188.35 L194.7 188.65 L194.8 188.85 L194.9 189.05 L195 189.35 L195.1 189.55 L195.2 189.85 L195.3 190.05 L195.4 190.25 L195.4 190.55 L195.38 190.6 L195.02 190.7 L194.95 190.7 L194.9 190.65 L194.8 190.45 L194.7 190.15 L194.6 189.95 L194.5 189.65 L194.4 189.45 L194.3 189.25 L194.2 188.95 L194.1 188.75 L194 188.45 L194 188.4 L194 188.35 L194.1 187.85 L194.15 187.8 Z" stroke="rgb(0, 0, 0)" stroke-width="0" fill-rule="evenodd" stroke-linejoin="miter" fill="rgb(0, 0, 0)" shape-rendering="geometricPrecision" /><path d="M196.48 193.1 L196.48 193.1 L196.55 193.1 L196.6 193.15 L196.7 193.45 L196.8 193.65 L196.9 193.95 L197 194.15 L197.1 194.45 L197.2 194.65 L197.3 194.85 L197.4 195.15 L197.45 195.45 L197.25 195.5 L196.93 195.5 L196.9 195.45 L196.8 195.25 L196.7 195.05 L196.6 194.75 L196.5 194.55 L196.4 194.25 L196.3 194.05 L196.2 193.85 L196.1 193.55 L196.05 193.25 L196.25 193.2 Z" stroke="rgb(0, 0, 0)" stroke-width="0" fill-rule="evenodd" stroke-linejoin="miter" fill="rgb(0, 0, 0)" shape-rendering="geometricPrecision" /><path d="M198.48 198 L198.48 198 L198.55 198 L198.6 198.05 L198.7 198.25 L198.8 198.55 L198.9 198.75 L199 198.95 L199.1 199.25 L199.2 199.45 L199.3 199.75 L199.4 199.95 L199.4 200.25 L199.38 200.3 L199.15 200.4 L198.93 200.4 L198.9 200.35 L198.8 200.05 L198.7 199.85 L198.6 199.65 L198.5 199.35 L198.4 199.15 L198.3 198.85 L198.2 198.65 L198.1 198.35 L198.1 198.15 L198.12 198.1 Z" stroke="rgb(0, 0, 0)" stroke-width="0" fill-rule="evenodd" stroke-linejoin="miter" fill="rgb(0, 0, 0)" shape-rendering="geometricPrecision" /><path d="M200.35 202.9 L200.35 202.9 L200.65 202.85 L200.7 203.15 L200.8 203.35 L200.9 203.55 L201 203.85 L201.1 204.05 L201.2 204.35 L201.3 204.55 L201.4 204.75 L201.5 205.05 L201.52 205.1 L201.35 205.2 L201.02 205.3 L201 205.35 L200.9 205.15 L200.8 204.95 L200.7 204.65 L200.6 204.45 L200.5 204.15 L200.4 203.95 L200.3 203.75 L200.2 203.45 L200.1 203.25 L200.05 202.95 Z" stroke="rgb(0, 0, 0)" stroke-width="0" fill-rule="evenodd" stroke-linejoin="miter" fill="rgb(0, 0, 0)" shape-rendering="geometricPrecision" /><path d="M202.48 207.7 L202.48 207.7 L202.55 207.7 L202.6 207.75 L202.7 207.95 L202.8 208.15 L202.9 208.45 L203 208.65 L203.1 208.95 L203.2 209.15 L203.3 209.45 L203.4 209.65 L203.5 209.85 L203.5 209.9 L203.48 210 L203.25 210.1 L202.95 210.15 L202.9 209.95 L202.8 209.75 L202.7 209.55 L202.6 209.25 L202.5 209.05 L202.4 208.75 L202.3 208.55 L202.2 208.35 L202.1 208.05 L202.05 207.85 L202.25 207.8 Z" stroke="rgb(0, 0, 0)" stroke-width="0" fill-rule="evenodd" stroke-linejoin="miter" fill="rgb(0, 0, 0)" shape-rendering="geometricPrecision" /><path d="M204.45 212.6 L204.45 212.6 L204.65 212.55 L204.7 212.75 L204.8 213.05 L204.9 213.25 L205 213.55 L205.1 213.75 L205.2 213.95 L205.3 214.25 L205.4 214.45 L205.5 214.75 L205.52 214.8 L205.35 214.9 L205.15 215 L204.95 215.05 L204.9 214.85 L204.8 214.55 L204.7 214.35 L204.6 214.15 L204.5 213.85 L204.4 213.65 L204.3 213.35 L204.2 213.15 L204.1 212.85 L204.1 212.8 L204.12 212.7 Z" stroke="rgb(0, 0, 0)" stroke-width="0" fill-rule="evenodd" stroke-linejoin="miter" fill="rgb(0, 0, 0)" shape-rendering="geometricPrecision" /><path d="M206.57 217.4 L206.57 217.4 L206.6 217.35 L206.7 217.65 L206.8 217.85 L206.9 218.05 L207 218.35 L207.1 218.55 L207.2 218.85 L207.3 219.05 L207.4 219.35 L207.5 219.55 L207.6 219.85 L207.7 220.25 L207.8 220.65 L207.9 221.05 L208 221.45 L208.02 221.5 L207.85 221.5 L207.62 221.4 L207.6 221.35 L207.5 221.15 L207.4 220.85 L207.3 220.65 L207.2 220.35 L207.1 220.15 L207 219.95 L206.9 219.65 L206.8 219.45 L206.7 219.15 L206.6 218.95 L206.5 218.65 L206.4 218.45 L206.3 218.25 L206.2 217.95 L206.1 217.75 L206.05 217.55 L206.35 217.5 Z" stroke="rgb(0, 0, 0)" stroke-width="0" fill-rule="evenodd" stroke-linejoin="miter" fill="rgb(0, 0, 0)" shape-rendering="geometricPrecision" /></g></g><g id="Solid"><path d="M206.51 207.58 L206.51 207.58 L206.79 207.34 L207.07 207.1 L208.32 221.43 L208.03 221.61 L207.56 219.7 Z" stroke="rgb(0, 0, 0)" stroke-width="0" fill-rule="evenodd" stroke-linejoin="miter" fill="rgb(0, 0, 0)" shape-rendering="geometricPrecision" /></g><g><text xml:space="preserve" text-anchor="start" text-rendering="geometricPrecision"><tspan x="212.87" y="200.86" font-family="Arial" font-size="10" fill="rgb(0, 0, 0)">O</tspan></text></g><g id="Solid"><line x1="205.86" y1="206.44" x2="211.36" y2="200.72" stroke="rgb(0, 0, 0)" stroke-width="0.6" shape-rendering="auto" /><path d="M207.18 208.37 L207.18 208.37 L207.25 209.16 L213.44 202.72 L213.01 202.31 Z" stroke="rgb(0, 0, 0)" stroke-width="0" fill-rule="evenodd" stroke-linejoin="miter" fill="rgb(0, 0, 0)" shape-rendering="geometricPrecision" /><path d="M205.27 206.62 L205.27 206.62 L205.93 206.8 L211.57 200.93 L211.14 200.51 Z" stroke="rgb(0, 0, 0)" stroke-width="0" fill-rule="evenodd" stroke-linejoin="miter" fill="rgb(0, 0, 0)" shape-rendering="geometricPrecision" /></g><g id="Solid"><g id="Bond's parts"><path d="M207.57 221.4 L207.57 221.4 L207.62 221.4 L207.85 221.5 L208.05 221.55 L208 221.85 L207.98 221.9 L207.65 222 L207.15 222.1 L206.75 222.2 L206.25 222.3 L205.85 222.4 L205.35 222.5 L204.95 222.6 L204.45 222.7 L204.05 222.8 L203.55 222.9 L203.15 223 L202.65 223.1 L202.25 223.2 L201.75 223.3 L201.35 223.4 L200.85 223.5 L200.45 223.6 L199.95 223.7 L199.55 223.8 L199.05 223.9 L198.65 224 L198.15 224.1 L197.75 224.2 L197.25 224.3 L196.85 224.4 L196.35 224.5 L195.95 224.6 L195.45 224.7 L194.95 224.8 L194.55 224.9 L194.05 225 L193.73 225 L193.65 224.9 L193.55 224.8 L193.5 224.75 L193.5 224.55 L193.52 224.5 L194.05 224.4 L194.45 224.3 L194.95 224.2 L195.35 224.1 L195.85 224 L196.25 223.9 L196.75 223.8 L197.15 223.7 L197.65 223.6 L198.05 223.5 L198.55 223.4 L198.95 223.3 L199.45 223.2 L199.85 223.1 L200.35 223 L200.85 222.9 L201.25 222.8 L201.75 222.7 L202.15 222.6 L202.65 222.5 L203.05 222.4 L203.55 222.3 L203.95 222.2 L204.45 222.1 L204.85 222 L205.35 221.9 L205.75 221.8 L206.25 221.7 L206.65 221.6 L207.15 221.5 Z" stroke="rgb(0, 0, 0)" stroke-width="0" fill-rule="evenodd" stroke-linejoin="miter" fill="rgb(0, 0, 0)" shape-rendering="geometricPrecision" /><path d="M207.25 224.2 L207.25 224.2 L207.55 224.15 L207.6 224.45 L207.65 224.75 L207.35 224.8 L206.85 224.9 L206.45 225 L205.95 225.1 L205.55 225.2 L205.05 225.3 L204.65 225.4 L204.15 225.5 L203.75 225.6 L203.25 225.7 L202.85 225.8 L202.35 225.9 L201.95 226 L201.45 226.1 L201.05 226.2 L200.55 226.3 L200.15 226.4 L199.65 226.5 L199.25 226.6 L198.75 226.7 L198.35 226.8 L197.85 226.9 L197.45 227 L196.95 227.1 L196.45 227.2 L196.05 227.3 L195.55 227.4 L195.35 227.45 L195.3 227.15 L195.25 226.85 L195.55 226.8 L195.95 226.7 L196.45 226.6 L196.85 226.5 L197.35 226.4 L197.75 226.3 L198.25 226.2 L198.65 226.1 L199.15 226 L199.55 225.9 L200.05 225.8 L200.45 225.7 L200.95 225.6 L201.45 225.5 L201.85 225.4 L202.35 225.3 L202.75 225.2 L203.25 225.1 L203.65 225 L204.15 224.9 L204.55 224.8 L205.05 224.7 L205.45 224.6 L205.95 224.5 L206.35 224.4 L206.85 224.3 Z" stroke="rgb(0, 0, 0)" stroke-width="0" fill-rule="evenodd" stroke-linejoin="miter" fill="rgb(0, 0, 0)" shape-rendering="geometricPrecision" /></g></g><g id="Solid"><path d="M199.47 245.6 L199.47 245.6 L200.1 246.25 L199.67 246.37 L185.22 239.18 L185.63 239.05 L186.04 238.92 Z" stroke="rgb(0, 0, 0)" stroke-width="0" fill-rule="evenodd" stroke-linejoin="miter" fill="rgb(0, 0, 0)" shape-rendering="geometricPrecision" /><line x1="193.97" y1="239.95" x2="189.65" y2="237.8" stroke="rgb(0, 0, 0)" stroke-width="0.6" shape-rendering="auto" /></g><g id="Charge4075"><line x1="242.75" y1="164.7" x2="242.75" y2="176.1" stroke="rgb(0, 0, 0)" stroke-width="0.48" shape-rendering="auto" /><line x1="239.75" y1="167.7" x2="245.75" y2="167.7" stroke="rgb(0, 0, 0)" stroke-width="0.48" shape-rendering="auto" /><line x1="239.75" y1="173.1" x2="245.75" y2="173.1" stroke="rgb(0, 0, 0)" stroke-width="0.48" shape-rendering="auto" /></g><g id="Bracket"><path d="M228.11 164 L235 164 L235 261.5 L228.11 261.5 " stroke="rgb(0, 0, 0)" stroke-width="0.6" fill-rule="evenodd" stroke-linejoin="miter" fill="none" shape-rendering="geometricPrecision" /></g><g id="Bracket"><path d="M143.89 261.5 L137 261.5 L137 164 L143.89 164 " stroke="rgb(0, 0, 0)" stroke-width="0.6" fill-rule="evenodd" stroke-linejoin="miter" fill="none" shape-rendering="geometricPrecision" /></g><g id="Solid"><g id="Bond's parts"><path d="M193.35 224.6 L193.35 224.6 L193.4 224.55 L193.5 224.75 L193.55 224.8 L193.65 224.9 L193.7 224.95 L193.7 225.15 L193.6 225.35 L193.5 225.55 L193.4 225.75 L193.35 225.8 L193.3 225.85 L193.2 226.05 L193.1 226.25 L193 226.45 L192.9 226.65 L192.85 226.6 L192.8 226.55 L192.7 226.35 L192.6 226.15 L192.6 225.95 L192.7 225.75 L192.8 225.55 L192.9 225.35 L193 225.15 L193.05 225.1 L193.1 225.05 L193.2 224.85 L193.3 224.65 Z" stroke="rgb(0, 0, 0)" stroke-width="0" fill-rule="evenodd" stroke-linejoin="miter" fill="rgb(0, 0, 0)" shape-rendering="geometricPrecision" /><path d="M190.15 230.25 L190.15 230.25 L190.35 230.25 L190.4 230.45 L190.5 230.65 L190.5 230.95 L190.45 231 L190.4 231.05 L190.3 231.25 L190.2 231.45 L190.1 231.65 L190 231.85 L189.95 231.9 L189.9 231.95 L189.8 232.15 L189.7 232.35 L189.6 232.55 L189.5 232.75 L189.45 232.8 L189.4 232.85 L189.3 233.05 L189.2 233.25 L189.1 233.45 L189 233.65 L188.95 233.7 L188.9 233.75 L188.8 233.95 L188.7 234.15 L188.6 234.35 L188.5 234.55 L188.45 234.6 L188.4 234.65 L188.3 234.85 L188.2 235.05 L188.1 235.25 L188 235.45 L187.95 235.5 L187.9 235.55 L187.8 235.75 L187.7 235.95 L187.6 236.15 L187.5 236.35 L187.45 236.4 L187.4 236.45 L187.3 236.65 L187.2 236.85 L187.1 237.05 L187 237.25 L186.95 237.3 L186.9 237.35 L186.8 237.55 L186.7 237.75 L186.6 237.95 L186.55 238 L186.5 238.05 L186.4 238.25 L186.3 238.45 L186.2 238.65 L186.1 238.85 L186.07 238.9 L185.75 239 L185.45 239.1 L185.27 239.1 L185.3 239.05 L185.4 238.85 L185.5 238.65 L185.6 238.45 L185.65 238.4 L185.7 238.35 L185.8 238.15 L185.9 237.95 L186 237.75 L186.1 237.55 L186.15 237.5 L186.2 237.45 L186.3 237.25 L186.4 237.05 L186.5 236.85 L186.6 236.65 L186.65 236.6 L186.7 236.55 L186.8 236.35 L186.9 236.15 L187 235.95 L187.1 235.75 L187.15 235.7 L187.2 235.65 L187.3 235.45 L187.4 235.25 L187.5 235.05 L187.6 234.85 L187.65 234.8 L187.7 234.75 L187.8 234.55 L187.9 234.35 L188 234.15 L188.1 233.95 L188.15 233.9 L188.2 233.85 L188.3 233.65 L188.4 233.45 L188.5 233.25 L188.6 233.05 L188.65 233 L188.7 232.95 L188.8 232.75 L188.9 232.55 L189 232.35 L189.1 232.15 L189.15 232.1 L189.2 232.05 L189.3 231.85 L189.4 231.65 L189.5 231.45 L189.55 231.4 L189.6 231.35 L189.7 231.15 L189.8 230.95 L189.9 230.75 L190 230.55 L190.05 230.5 Z" stroke="rgb(0, 0, 0)" stroke-width="0" fill-rule="evenodd" stroke-linejoin="miter" fill="rgb(0, 0, 0)" shape-rendering="geometricPrecision" /></g></g><g id="Solid"><path d="M207.98 221.93 L207.98 221.93 L208.03 221.61 L208.32 221.43 L216.46 226.13 L216.31 226.39 L216.16 226.65 Z" stroke="rgb(0, 0, 0)" stroke-width="0" fill-rule="evenodd" stroke-linejoin="miter" fill="rgb(0, 0, 0)" shape-rendering="geometricPrecision" /></g><g><text xml:space="preserve" text-anchor="start" text-rendering="geometricPrecision"><tspan x="216.9" y="232.71" font-family="Arial" font-size="10" fill="rgb(0, 0, 0)">H</tspan></text></g><g id="Solid"><path d="M200.29 246.51 L200.29 246.51 L200.1 246.25 L200.27 245.9 L209.68 243.38 L209.75 243.67 L209.83 243.96 Z" stroke="rgb(0, 0, 0)" stroke-width="0" fill-rule="evenodd" stroke-linejoin="miter" fill="rgb(0, 0, 0)" shape-rendering="geometricPrecision" /></g><g><text xml:space="preserve" text-anchor="start" text-rendering="geometricPrecision"><tspan x="210.41" y="246.43" font-family="Arial" font-size="10" fill="rgb(0, 0, 0)">H</tspan></text></g><g id="Dash"><path d="M181.51 206.89 L181.51 206.89 L182.05 206.64 L180.55 203.39 L180.19 203.34 L180.45 204.62 Z" stroke="rgb(0, 0, 0)" stroke-width="0" fill-rule="evenodd" stroke-linejoin="miter" fill="rgb(0, 0, 0)" shape-rendering="geometricPrecision" /><path d="M198.42 243.33 L198.42 243.33 L198.96 243.08 L200.27 245.9 L200.1 246.25 L199.47 245.6 Z" stroke="rgb(0, 0, 0)" stroke-width="0" fill-rule="evenodd" stroke-linejoin="miter" fill="rgb(0, 0, 0)" shape-rendering="geometricPrecision" /><path d="M182.7 209.46 L182.7 209.46 L183.75 211.73 L184.3 211.47 L183.24 209.21 Z" stroke="rgb(0, 0, 0)" stroke-width="0" fill-rule="evenodd" stroke-linejoin="miter" fill="rgb(0, 0, 0)" shape-rendering="geometricPrecision" /><path d="M184.94 214.3 L184.94 214.3 L186 216.57 L186.54 216.31 L185.49 214.05 Z" stroke="rgb(0, 0, 0)" stroke-width="0" fill-rule="evenodd" stroke-linejoin="miter" fill="rgb(0, 0, 0)" shape-rendering="geometricPrecision" /><path d="M187.19 219.14 L187.19 219.14 L188.24 221.41 L188.79 221.15 L187.73 218.88 Z" stroke="rgb(0, 0, 0)" stroke-width="0" fill-rule="evenodd" stroke-linejoin="miter" fill="rgb(0, 0, 0)" shape-rendering="geometricPrecision" /><path d="M189.43 223.98 L189.43 223.98 L190.49 226.24 L191.03 225.99 L189.98 223.72 Z" stroke="rgb(0, 0, 0)" stroke-width="0" fill-rule="evenodd" stroke-linejoin="miter" fill="rgb(0, 0, 0)" shape-rendering="geometricPrecision" /><path d="M191.68 228.82 L191.68 228.82 L192.73 231.08 L193.28 230.83 L192.22 228.56 Z" stroke="rgb(0, 0, 0)" stroke-width="0" fill-rule="evenodd" stroke-linejoin="miter" fill="rgb(0, 0, 0)" shape-rendering="geometricPrecision" /><path d="M193.93 233.65 L193.93 233.65 L194.98 235.92 L195.52 235.67 L194.47 233.4 Z" stroke="rgb(0, 0, 0)" stroke-width="0" fill-rule="evenodd" stroke-linejoin="miter" fill="rgb(0, 0, 0)" shape-rendering="geometricPrecision" /><path d="M196.17 238.49 L196.17 238.49 L197.22 240.76 L197.77 240.51 L196.71 238.24 Z" stroke="rgb(0, 0, 0)" stroke-width="0" fill-rule="evenodd" stroke-linejoin="miter" fill="rgb(0, 0, 0)" shape-rendering="geometricPrecision" /></g></g></g></svg>