<?xml version="1.0"?><svg xmlns="http://www.w3.org/2000/svg" xmlns:xlink="http://www.w3.org/1999/xlink" viewBox="47.78 298.88 109.82 100.49" preserveAspectRatio="xMidYMid" width="100%" height="100%"><clipPath id="9995"><rect x="0.3" y="0.3" width="522.72" height="769.32" /></clipPath><g id="drawing"><rect x="47.78" y="298.88" width="100%" height="100%" fill="rgb(255, 255, 255)" /><g id="page" clip-path="url(#9995)"><g id="Solid"><g id="Bond's parts"><path d="M109.32 342 L109.32 342 L109.55 342 L109.95 342.1 L110.35 342.2 L110.68 342.3 L110.75 342.4 L110.8 342.45 L110.9 342.65 L110.95 342.95 L110.55 342.9 L110.25 342.8 L109.85 342.7 L109.45 342.6 L109.15 342.55 L109.2 342.35 L109.3 342.05 Z" stroke="rgb(0, 0, 0)" stroke-width="0" fill-rule="evenodd" stroke-linejoin="miter" fill="rgb(0, 0, 0)" shape-rendering="geometricPrecision" /><path d="M111 343 L111 343 L115.38 343.6 L115.55 343.6 L115.95 343.7 L116.25 343.8 L116.65 343.9 L117.05 344 L117.45 344.1 L117.75 344.2 L118.15 344.3 L118.45 344.4 L118.22 344.5 L118.15 344.6 L118.05 344.7 L117.97 344.8 L117.75 344.8 L117.35 344.7 L116.95 344.6 L116.55 344.5 L116.25 344.4 L115.85 344.3 L115.65 344.25 L115.6 344.05 L115.5 343.85 L115.4 343.65 Z" stroke="rgb(0, 0, 0)" stroke-width="0" fill-rule="evenodd" stroke-linejoin="miter" fill="rgb(0, 0, 0)" shape-rendering="geometricPrecision" /></g></g><g id="Solid"><g id="Bond's parts"><path d="M90 317.25 L90 317.25 L90.05 317.3 L90.12 317.4 L90.38 317.5 L90.45 317.6 L90.55 317.7 L90.65 317.8 L90.75 317.9 L90.8 317.95 L90.9 318.15 L90.95 318.2 L91 318.25 L91.1 318.45 L91.2 318.65 L91.25 318.7 L91.3 318.75 L91.4 318.95 L91.5 319.15 L91.55 319.2 L91.6 319.25 L91.7 319.45 L91.8 319.65 L91.85 319.7 L91.9 319.75 L92 319.95 L92.1 320.15 L92.15 320.2 L92.2 320.25 L92.3 320.45 L92.4 320.65 L92.45 320.7 L92.5 320.75 L92.6 320.95 L92.7 321.15 L92.75 321.2 L92.8 321.25 L92.9 321.45 L93 321.65 L93.05 321.7 L93.1 321.75 L93.2 321.95 L93.3 322.15 L93.35 322.2 L93.4 322.25 L93.5 322.45 L93.6 322.65 L93.65 322.7 L93.7 322.75 L93.8 322.95 L93.9 323.15 L93.95 323.2 L94 323.25 L94.1 323.45 L94.2 323.65 L94.25 323.7 L94.3 323.75 L94.4 323.95 L94.5 324.15 L94.55 324.2 L94.6 324.25 L94.7 324.45 L94.8 324.65 L94.85 324.7 L94.9 324.75 L95 324.95 L95.05 325 L95.1 325.05 L95.2 325.25 L95.3 325.45 L95.35 325.5 L95.4 325.55 L95.5 325.75 L95.6 325.95 L95.65 326 L95.7 326.05 L95.8 326.25 L95.9 326.45 L95.95 326.5 L96 326.55 L96.1 326.75 L96.2 326.95 L96.25 327 L96.3 327.05 L96.4 327.25 L96.5 327.45 L96.55 327.5 L96.6 327.55 L96.7 327.75 L96.8 327.95 L96.85 328 L96.9 328.05 L97 328.25 L97.1 328.45 L97.15 328.5 L97.2 328.55 L97.3 328.75 L97.4 328.95 L97.45 329 L97.5 329.05 L97.6 329.25 L97.7 329.45 L97.75 329.5 L97.8 329.55 L97.9 329.75 L98 329.95 L98.05 330 L98.1 330.05 L98.2 330.25 L98.3 330.45 L98.3 330.65 L98.25 330.7 L98.15 330.8 L98.07 330.9 L97.85 330.95 L97.8 330.75 L97.7 330.55 L97.65 330.5 L97.6 330.45 L97.5 330.25 L97.4 330.05 L97.35 330 L97.3 329.95 L97.2 329.75 L97.1 329.55 L97.05 329.5 L97 329.45 L96.9 329.25 L96.8 329.05 L96.75 329 L96.7 328.95 L96.6 328.75 L96.5 328.55 L96.45 328.5 L96.4 328.45 L96.3 328.25 L96.2 328.05 L96.15 328 L96.1 327.95 L96 327.75 L95.9 327.55 L95.85 327.5 L95.8 327.45 L95.7 327.25 L95.6 327.05 L95.55 327 L95.5 326.95 L95.4 326.75 L95.3 326.55 L95.25 326.5 L95.2 326.45 L95.1 326.25 L95 326.05 L94.95 326 L94.9 325.95 L94.8 325.75 L94.7 325.55 L94.65 325.5 L94.6 325.45 L94.5 325.25 L94.4 325.05 L94.35 325 L94.3 324.95 L94.2 324.75 L94.1 324.55 L94.05 324.5 L94 324.45 L93.9 324.25 L93.8 324.05 L93.75 324 L93.7 323.95 L93.6 323.75 L93.5 323.55 L93.45 323.5 L93.4 323.45 L93.3 323.25 L93.2 323.05 L93.15 323 L93.1 322.95 L93 322.75 L92.95 322.7 L92.9 322.65 L92.8 322.45 L92.7 322.25 L92.65 322.2 L92.6 322.15 L92.5 321.95 L92.4 321.75 L92.35 321.7 L92.3 321.65 L92.2 321.45 L92.1 321.25 L92.05 321.2 L92 321.15 L91.9 320.95 L91.8 320.75 L91.75 320.7 L91.7 320.65 L91.6 320.45 L91.5 320.25 L91.45 320.2 L91.4 320.15 L91.3 319.95 L91.2 319.75 L91.15 319.7 L91.1 319.65 L91 319.45 L90.9 319.25 L90.85 319.2 L90.8 319.15 L90.7 318.95 L90.6 318.75 L90.55 318.7 L90.5 318.65 L90.4 318.45 L90.3 318.25 L90.25 318.2 L90.2 318.15 L90.1 317.95 L90 317.75 L89.95 317.7 L89.9 317.6 Z" stroke="rgb(0, 0, 0)" stroke-width="0" fill-rule="evenodd" stroke-linejoin="miter" fill="rgb(0, 0, 0)" shape-rendering="geometricPrecision" /></g></g><g><text xml:space="preserve" text-anchor="start" text-rendering="geometricPrecision"><tspan x="100.35" y="344.79" font-family="Arial" font-size="10" fill="rgb(0, 0, 0)">O</tspan></text></g><g id="Solid"><path d="M90.82 317.98 L90.82 317.98 L90.02 317.23 L90.32 317.05 L105.7 324.94 L105.46 325.16 L104.98 325.25 Z" stroke="rgb(0, 0, 0)" stroke-width="0" fill-rule="evenodd" stroke-linejoin="miter" fill="rgb(0, 0, 0)" shape-rendering="geometricPrecision" /></g><g id="Solid"><path d="M89.72 317 L89.72 317 L90.02 317.23 L89.88 317.58 L72.54 322.71 L72.37 322.45 L72.2 322.19 Z" stroke="rgb(0, 0, 0)" stroke-width="0" fill-rule="evenodd" stroke-linejoin="miter" fill="rgb(0, 0, 0)" shape-rendering="geometricPrecision" /></g><g id="Solid"><path d="M72.2 322.19 L72.2 322.19 L72.37 322.45 L72.54 322.71 L60.41 336.3 L59.93 336.39 L59.45 336.48 Z" stroke="rgb(0, 0, 0)" stroke-width="0" fill-rule="evenodd" stroke-linejoin="miter" fill="rgb(0, 0, 0)" shape-rendering="geometricPrecision" /></g><g id="Solid"><path d="M59.45 336.48 L59.45 336.48 L59.93 336.39 L60.41 336.3 L73.95 343.28 L73.9 343.59 L73.85 343.9 Z" stroke="rgb(0, 0, 0)" stroke-width="0" fill-rule="evenodd" stroke-linejoin="miter" fill="rgb(0, 0, 0)" shape-rendering="geometricPrecision" /></g><g id="Solid"><path d="M73.85 343.9 L73.85 343.9 L73.9 343.59 L73.95 343.28 L91.41 340.33 L91.56 340.61 L91.25 340.97 Z" stroke="rgb(0, 0, 0)" stroke-width="0" fill-rule="evenodd" stroke-linejoin="miter" fill="rgb(0, 0, 0)" shape-rendering="geometricPrecision" /></g><g id="Solid"><path d="M91.92 340.66 L91.92 340.66 L91.56 340.61 L91.41 340.33 L104.98 325.25 L105.46 325.16 L105.36 325.71 Z" stroke="rgb(0, 0, 0)" stroke-width="0" fill-rule="evenodd" stroke-linejoin="miter" fill="rgb(0, 0, 0)" shape-rendering="geometricPrecision" /><line x1="95.99" y1="341.28" x2="104.27" y2="332.08" stroke="rgb(0, 0, 0)" stroke-width="0.6" shape-rendering="auto" /></g><g><text xml:space="preserve" text-anchor="end" text-rendering="geometricPrecision"><tspan x="94.64" y="362.92" font-family="Arial" font-size="10" fill="rgb(0, 0, 0)">MeO</tspan><tspan font-family="Arial" dy="2.26" font-size="7.5" fill="rgb(0, 0, 0)">2</tspan><tspan font-family="Arial" dy="-2.26" font-size="10" fill="rgb(0, 0, 0)">C</tspan></text></g><g><text xml:space="preserve" text-anchor="start" text-rendering="geometricPrecision"><tspan x="86.7" y="307.22" font-family="Arial" font-size="10" fill="rgb(0, 0, 0)">H</tspan></text></g><g id="Solid"><path d="M90.32 317.05 L90.32 317.05 L90.02 317.23 L89.72 317 L89.89 308.89 L90.19 308.9 L90.49 308.91 Z" stroke="rgb(0, 0, 0)" stroke-width="0" fill-rule="evenodd" stroke-linejoin="miter" fill="rgb(0, 0, 0)" shape-rendering="geometricPrecision" /></g><g id="Solid"><path d="M119.36 359.21 L119.36 359.21 L119.4 358.89 L119.69 358.71 L132.28 365.98 L131.87 366.09 L131.46 366.2 Z" stroke="rgb(0, 0, 0)" stroke-width="0" fill-rule="evenodd" stroke-linejoin="miter" fill="rgb(0, 0, 0)" shape-rendering="geometricPrecision" /><line x1="119.02" y1="361.66" x2="128.33" y2="367.04" stroke="rgb(0, 0, 0)" stroke-width="0.6" shape-rendering="auto" /></g><g id="Solid"><path d="M131.46 366.2 L131.46 366.2 L131.87 366.09 L132.28 365.98 L124.88 378.8 L124.67 378.56 L124.46 378.32 Z" stroke="rgb(0, 0, 0)" stroke-width="0" fill-rule="evenodd" stroke-linejoin="miter" fill="rgb(0, 0, 0)" shape-rendering="geometricPrecision" /></g><g id="Solid"><path d="M124.46 378.32 L124.46 378.32 L124.67 378.56 L124.88 378.8 L111.67 383.77 L111.47 383.53 L111.62 383.15 Z" stroke="rgb(0, 0, 0)" stroke-width="0" fill-rule="evenodd" stroke-linejoin="miter" fill="rgb(0, 0, 0)" shape-rendering="geometricPrecision" /><line x1="122.93" y1="376.5" x2="112.78" y2="380.32" stroke="rgb(0, 0, 0)" stroke-width="0.6" shape-rendering="auto" /></g><g><text xml:space="preserve" text-anchor="end" text-rendering="geometricPrecision"><tspan x="107.06" y="399.11" font-family="Arial" font-size="10" fill="rgb(0, 0, 0)">Me</tspan></text></g><g id="Solid"><path d="M111.05 383.64 L111.05 383.64 L111.47 383.53 L111.67 383.77 L107.36 390.79 L107.1 390.64 L106.85 390.48 Z" stroke="rgb(0, 0, 0)" stroke-width="0" fill-rule="evenodd" stroke-linejoin="miter" fill="rgb(0, 0, 0)" shape-rendering="geometricPrecision" /></g><g id="Solid"><path d="M91.25 340.97 L91.25 340.97 L91.56 340.61 L91.82 341.89 L91.48 354.11 L91.18 354.1 L90.88 354.09 Z" stroke="rgb(0, 0, 0)" stroke-width="0" fill-rule="evenodd" stroke-linejoin="miter" fill="rgb(0, 0, 0)" shape-rendering="geometricPrecision" /></g><g id="Dash"><path d="M92.88 344.16 L92.88 344.16 L93.42 343.91 L91.92 340.66 L91.56 340.61 L91.82 341.89 Z" stroke="rgb(0, 0, 0)" stroke-width="0" fill-rule="evenodd" stroke-linejoin="miter" fill="rgb(0, 0, 0)" shape-rendering="geometricPrecision" /><path d="M109.75 380.53 L109.75 380.53 L110.29 380.28 L111.62 383.15 L111.47 383.53 L110.8 382.8 Z" stroke="rgb(0, 0, 0)" stroke-width="0" fill-rule="evenodd" stroke-linejoin="miter" fill="rgb(0, 0, 0)" shape-rendering="geometricPrecision" /><path d="M94.06 346.72 L94.06 346.72 L95.12 348.99 L95.66 348.74 L94.61 346.47 Z" stroke="rgb(0, 0, 0)" stroke-width="0" fill-rule="evenodd" stroke-linejoin="miter" fill="rgb(0, 0, 0)" shape-rendering="geometricPrecision" /><path d="M96.3 351.55 L96.3 351.55 L97.36 353.82 L97.9 353.57 L96.85 351.3 Z" stroke="rgb(0, 0, 0)" stroke-width="0" fill-rule="evenodd" stroke-linejoin="miter" fill="rgb(0, 0, 0)" shape-rendering="geometricPrecision" /><path d="M98.54 356.38 L98.54 356.38 L99.6 358.65 L100.14 358.4 L99.09 356.13 Z" stroke="rgb(0, 0, 0)" stroke-width="0" fill-rule="evenodd" stroke-linejoin="miter" fill="rgb(0, 0, 0)" shape-rendering="geometricPrecision" /><path d="M100.79 361.21 L100.79 361.21 L101.84 363.48 L102.38 363.23 L101.33 360.96 Z" stroke="rgb(0, 0, 0)" stroke-width="0" fill-rule="evenodd" stroke-linejoin="miter" fill="rgb(0, 0, 0)" shape-rendering="geometricPrecision" /><path d="M103.03 366.04 L103.03 366.04 L104.08 368.31 L104.62 368.05 L103.57 365.79 Z" stroke="rgb(0, 0, 0)" stroke-width="0" fill-rule="evenodd" stroke-linejoin="miter" fill="rgb(0, 0, 0)" shape-rendering="geometricPrecision" /><path d="M105.27 370.87 L105.27 370.87 L106.32 373.14 L106.86 372.88 L105.81 370.62 Z" stroke="rgb(0, 0, 0)" stroke-width="0" fill-rule="evenodd" stroke-linejoin="miter" fill="rgb(0, 0, 0)" shape-rendering="geometricPrecision" /><path d="M107.51 375.7 L107.51 375.7 L108.56 377.97 L109.1 377.71 L108.05 375.45 Z" stroke="rgb(0, 0, 0)" stroke-width="0" fill-rule="evenodd" stroke-linejoin="miter" fill="rgb(0, 0, 0)" shape-rendering="geometricPrecision" /></g><g id="Dash"><g id="Bond's parts"><path d="M105.65 325 L105.65 325 L105.7 324.95 L105.8 325.25 L105.9 325.45 L106 325.65 L106.1 325.95 L106.2 326.15 L106.3 326.45 L106.4 326.65 L106.5 326.85 L106.6 327.15 L106.7 327.35 L106.8 327.65 L106.85 327.85 L106.65 327.9 L106.25 327.95 L106.2 327.75 L106.1 327.45 L106 327.25 L105.9 327.05 L105.8 326.75 L105.7 326.55 L105.6 326.25 L105.5 326.05 L105.4 325.85 L105.4 325.55 L105.5 325.15 L105.55 325.1 Z" stroke="rgb(0, 0, 0)" stroke-width="0" fill-rule="evenodd" stroke-linejoin="miter" fill="rgb(0, 0, 0)" shape-rendering="geometricPrecision" /><path d="M107.88 330.4 L107.88 330.4 L107.9 330.35 L108 330.55 L108.1 330.75 L108.2 331.05 L108.3 331.25 L108.4 331.45 L108.5 331.75 L108.6 331.95 L108.7 332.25 L108.8 332.45 L108.8 332.65 L108.78 332.7 L108.55 332.8 L108.25 332.85 L108.2 332.55 L108.1 332.35 L108 332.05 L107.9 331.85 L107.8 331.65 L107.7 331.35 L107.6 331.15 L107.5 330.85 L107.4 330.65 L107.38 330.6 L107.55 330.5 Z" stroke="rgb(0, 0, 0)" stroke-width="0" fill-rule="evenodd" stroke-linejoin="miter" fill="rgb(0, 0, 0)" shape-rendering="geometricPrecision" /><path d="M109.75 335.3 L109.75 335.3 L109.97 335.3 L110 335.35 L110.1 335.65 L110.2 335.85 L110.3 336.05 L110.4 336.35 L110.5 336.55 L110.6 336.85 L110.7 337.05 L110.8 337.25 L110.85 337.55 L110.65 337.6 L110.43 337.7 L110.35 337.7 L110.3 337.65 L110.2 337.45 L110.1 337.15 L110 336.95 L109.9 336.65 L109.8 336.45 L109.7 336.25 L109.6 335.95 L109.5 335.75 L109.45 335.35 Z" stroke="rgb(0, 0, 0)" stroke-width="0" fill-rule="evenodd" stroke-linejoin="miter" fill="rgb(0, 0, 0)" shape-rendering="geometricPrecision" /><path d="M111.88 340.1 L111.88 340.1 L111.95 340.1 L112 340.15 L112.1 340.45 L112.2 340.65 L112.3 340.95 L112.4 341.15 L112.5 341.45 L112.6 341.65 L112.7 341.85 L112.8 342.15 L112.85 342.45 L112.65 342.5 L112.32 342.5 L112.3 342.45 L112.2 342.25 L112.1 342.05 L112 341.75 L111.9 341.55 L111.8 341.25 L111.7 341.05 L111.6 340.85 L111.5 340.55 L111.45 340.25 L111.65 340.2 Z" stroke="rgb(0, 0, 0)" stroke-width="0" fill-rule="evenodd" stroke-linejoin="miter" fill="rgb(0, 0, 0)" shape-rendering="geometricPrecision" /><path d="M113.88 345 L113.88 345 L113.95 345 L114 345.05 L114.1 345.25 L114.2 345.55 L114.3 345.75 L114.4 346.05 L114.5 346.25 L114.6 346.45 L114.7 346.75 L114.8 346.95 L114.8 347.25 L114.78 347.3 L114.55 347.4 L114.32 347.4 L114.3 347.35 L114.2 347.05 L114.1 346.85 L114 346.65 L113.9 346.35 L113.8 346.15 L113.7 345.85 L113.6 345.65 L113.5 345.35 L113.5 345.15 L113.53 345.1 Z" stroke="rgb(0, 0, 0)" stroke-width="0" fill-rule="evenodd" stroke-linejoin="miter" fill="rgb(0, 0, 0)" shape-rendering="geometricPrecision" /><path d="M115.75 349.9 L115.75 349.9 L116.05 349.85 L116.1 350.15 L116.2 350.35 L116.3 350.65 L116.4 350.85 L116.5 351.05 L116.6 351.35 L116.7 351.55 L116.8 351.85 L116.9 352.05 L116.93 352.1 L116.75 352.2 L116.43 352.3 L116.4 352.35 L116.3 352.15 L116.2 351.95 L116.1 351.65 L116 351.45 L115.9 351.25 L115.8 350.95 L115.7 350.75 L115.6 350.45 L115.5 350.25 L115.45 349.95 Z" stroke="rgb(0, 0, 0)" stroke-width="0" fill-rule="evenodd" stroke-linejoin="miter" fill="rgb(0, 0, 0)" shape-rendering="geometricPrecision" /><path d="M117.88 354.7 L117.88 354.7 L117.95 354.7 L118 354.75 L118.1 354.95 L118.2 355.25 L118.3 355.45 L118.4 355.65 L118.5 355.95 L118.6 356.15 L118.7 356.45 L118.8 356.65 L118.9 356.85 L119 357.25 L119.1 357.65 L119.2 358.05 L119.3 358.45 L119.3 358.85 L119.28 358.8 L119.03 358.7 L119 358.65 L118.9 358.45 L118.8 358.25 L118.7 357.95 L118.6 357.75 L118.5 357.45 L118.4 357.25 L118.3 357.05 L118.2 356.75 L118.1 356.55 L118 356.25 L117.9 356.05 L117.8 355.85 L117.7 355.55 L117.6 355.35 L117.5 355.05 L117.45 354.85 L117.65 354.8 Z" stroke="rgb(0, 0, 0)" stroke-width="0" fill-rule="evenodd" stroke-linejoin="miter" fill="rgb(0, 0, 0)" shape-rendering="geometricPrecision" /></g></g><g id="Solid"><path d="M117.88 344.85 L117.88 344.85 L118.16 344.61 L118.44 344.37 L119.69 358.71 L119.4 358.89 L118.93 356.97 Z" stroke="rgb(0, 0, 0)" stroke-width="0" fill-rule="evenodd" stroke-linejoin="miter" fill="rgb(0, 0, 0)" shape-rendering="geometricPrecision" /></g><g><text xml:space="preserve" text-anchor="start" text-rendering="geometricPrecision"><tspan x="124.25" y="338.14" font-family="Arial" font-size="10" fill="rgb(0, 0, 0)">O</tspan></text></g><g id="Solid"><line x1="117.23" y1="343.71" x2="122.76" y2="337.97" stroke="rgb(0, 0, 0)" stroke-width="0.6" shape-rendering="auto" /><path d="M118.55 345.64 L118.55 345.64 L118.62 346.43 L124.84 339.98 L124.41 339.56 Z" stroke="rgb(0, 0, 0)" stroke-width="0" fill-rule="evenodd" stroke-linejoin="miter" fill="rgb(0, 0, 0)" shape-rendering="geometricPrecision" /><path d="M116.64 343.89 L116.64 343.89 L117.3 344.07 L122.97 338.18 L122.54 337.76 Z" stroke="rgb(0, 0, 0)" stroke-width="0" fill-rule="evenodd" stroke-linejoin="miter" fill="rgb(0, 0, 0)" shape-rendering="geometricPrecision" /></g><g><text xml:space="preserve" text-anchor="start" text-rendering="geometricPrecision"><tspan x="103.33" y="365.99" font-family="Arial" font-size="10" fill="rgb(0, 0, 0)">H</tspan></text></g><g id="Solid"><path d="M118.99 358.69 L118.99 358.69 L119.4 358.89 L119.36 359.21 L111.42 361.25 L111.35 360.96 L111.28 360.67 Z" stroke="rgb(0, 0, 0)" stroke-width="0" fill-rule="evenodd" stroke-linejoin="miter" fill="rgb(0, 0, 0)" shape-rendering="geometricPrecision" /></g><g><text xml:space="preserve" text-anchor="start" text-rendering="geometricPrecision"><tspan x="95.4" y="380.23" font-family="Arial" font-size="10" fill="rgb(0, 0, 0)">H</tspan></text></g><g id="Solid"><path d="M110.8 382.8 L110.8 382.8 L111.47 383.53 L111.05 383.64 L103.14 379.06 L103.29 378.8 L103.44 378.54 Z" stroke="rgb(0, 0, 0)" stroke-width="0" fill-rule="evenodd" stroke-linejoin="miter" fill="rgb(0, 0, 0)" shape-rendering="geometricPrecision" /></g><g id="Charge9991"><line x1="154.12" y1="301.98" x2="154.12" y2="313.38" stroke="rgb(0, 0, 0)" stroke-width="0.48" shape-rendering="auto" /><line x1="151.12" y1="304.98" x2="157.12" y2="304.98" stroke="rgb(0, 0, 0)" stroke-width="0.48" shape-rendering="auto" /><line x1="151.12" y1="310.38" x2="157.12" y2="310.38" stroke="rgb(0, 0, 0)" stroke-width="0.48" shape-rendering="auto" /></g><g id="Bracket"><path d="M139.49 301.27 L146.38 301.27 L146.38 398.77 L139.49 398.77 " stroke="rgb(0, 0, 0)" stroke-width="0.6" fill-rule="evenodd" stroke-linejoin="miter" fill="none" shape-rendering="geometricPrecision" /></g><g id="Bracket"><path d="M55.27 398.77 L48.38 398.77 L48.38 301.27 L55.27 301.27 " stroke="rgb(0, 0, 0)" stroke-width="0.6" fill-rule="evenodd" stroke-linejoin="miter" fill="none" shape-rendering="geometricPrecision" /></g></g></g></svg>