<?xml version="1.0"?><svg xmlns="http://www.w3.org/2000/svg" xmlns:xlink="http://www.w3.org/1999/xlink" viewBox="87.85 85.79 305.42 79.54" preserveAspectRatio="xMidYMid" width="100%" height="100%"><clipPath id="106"><rect x="0.495" y="0.495" width="522.21" height="768.69" /></clipPath><g id="drawing"><rect x="87.85" y="85.79" width="100%" height="100%" fill="rgb(255, 255, 255)" /><g id="page" clip-path="url(#106)"><g id="Solid"><path d="M88.35 129.44 L88.35 129.44 L88.1 129.01 L87.85 128.58 L108.25 116.81 L108.74 117.1 L108.74 117.67 Z" stroke="rgb(0, 0, 0)" stroke-width="0" fill-rule="evenodd" stroke-linejoin="miter" fill="rgb(0, 0, 0)" shape-rendering="geometricPrecision" /><line x1="90.24" y1="132.73" x2="108.74" y2="122.05" stroke="rgb(0, 0, 0)" stroke-width="0.99" shape-rendering="auto" /></g><g><text xml:space="preserve" text-anchor="start" text-rendering="geometricPrecision"><tspan x="122.96" y="135.54" font-family="Arial" font-size="16.55" fill="rgb(0, 0, 0)">O</tspan></text></g><g id="Solid"><path d="M108.74 117.67 L108.74 117.67 L108.74 117.1 L109.24 116.81 L122.35 124.38 L122.1 124.81 L121.86 125.24 Z" stroke="rgb(0, 0, 0)" stroke-width="0" fill-rule="evenodd" stroke-linejoin="miter" fill="rgb(0, 0, 0)" shape-rendering="geometricPrecision" /></g><g><text xml:space="preserve" text-anchor="start" text-rendering="geometricPrecision"><tspan x="102.32" y="99.79" font-family="Arial" font-size="16.55" fill="rgb(0, 0, 0)">OMe</tspan></text></g><g id="Solid"><path d="M109.24 116.81 L109.24 116.81 L108.74 117.1 L108.25 116.81 L108.25 102.65 L108.74 102.65 L109.24 102.65 Z" stroke="rgb(0, 0, 0)" stroke-width="0" fill-rule="evenodd" stroke-linejoin="miter" fill="rgb(0, 0, 0)" shape-rendering="geometricPrecision" /></g><g id="Solid"><path d="M128.89 138.45 L128.89 138.45 L129.38 138.45 L129.88 138.45 L129.87 153.13 L129.38 152.84 L128.89 152.55 Z" stroke="rgb(0, 0, 0)" stroke-width="0" fill-rule="evenodd" stroke-linejoin="miter" fill="rgb(0, 0, 0)" shape-rendering="geometricPrecision" /></g><g id="Solid"><path d="M128.89 152.55 L128.89 152.55 L129.38 152.84 L129.87 153.13 L108.74 165.33 L108.74 164.76 L108.74 164.19 Z" stroke="rgb(0, 0, 0)" stroke-width="0" fill-rule="evenodd" stroke-linejoin="miter" fill="rgb(0, 0, 0)" shape-rendering="geometricPrecision" /></g><g id="Solid"><path d="M108.74 164.19 L108.74 164.19 L108.74 164.76 L108.74 165.33 L87.85 153.27 L88.1 152.84 L88.35 152.41 Z" stroke="rgb(0, 0, 0)" stroke-width="0" fill-rule="evenodd" stroke-linejoin="miter" fill="rgb(0, 0, 0)" shape-rendering="geometricPrecision" /><line x1="108.74" y1="159.81" x2="90.25" y2="149.12" stroke="rgb(0, 0, 0)" stroke-width="0.99" shape-rendering="auto" /></g><g id="Arrow"><line x1="282.44" y1="125.84" x2="190.8" y2="125.84" stroke="rgb(0, 0, 0)" stroke-width="0.99" shape-rendering="auto" /><path d="M290.1 125.84 L280.2 123.36 C281.88 124.76 281.88 126.92 280.2 128.32 Z" stroke="rgb(0, 0, 0)" stroke-width="0" fill-rule="evenodd" stroke-linejoin="miter" stroke-miterlimit="11.4431625909955" fill="rgb(0, 0, 0)" shape-rendering="geometricPrecision" /></g><g id="Solid"><path d="M343.68 129.3 L343.68 129.3 L343.18 129.01 L342.68 128.72 L363.33 116.81 L363.82 117.1 L364.31 117.39 Z" stroke="rgb(0, 0, 0)" stroke-width="0" fill-rule="evenodd" stroke-linejoin="miter" fill="rgb(0, 0, 0)" shape-rendering="geometricPrecision" /></g><g id="Solid"><line x1="364.89" y1="115.24" x2="377.68" y2="122.62" stroke="rgb(0, 0, 0)" stroke-width="0.99" shape-rendering="auto" /><path d="M362.66 118.34 L362.66 118.34 L361.67 118.91 L375.29 126.76 L375.78 125.91 Z" stroke="rgb(0, 0, 0)" stroke-width="0" fill-rule="evenodd" stroke-linejoin="miter" fill="rgb(0, 0, 0)" shape-rendering="geometricPrecision" /><path d="M364.32 114.34 L364.32 114.34 L364.32 115.48 L377.43 123.05 L377.92 122.19 Z" stroke="rgb(0, 0, 0)" stroke-width="0" fill-rule="evenodd" stroke-linejoin="miter" fill="rgb(0, 0, 0)" shape-rendering="geometricPrecision" /></g><g><text xml:space="preserve" text-anchor="start" text-rendering="geometricPrecision"><tspan x="378.03" y="135.54" font-family="Arial" font-size="16.55" fill="rgb(0, 0, 0)">O</tspan></text></g><g id="Solid"><path d="M364.31 117.39 L364.31 117.39 L363.82 117.1 L363.33 116.81 L363.33 102.65 L363.82 102.65 L364.32 102.65 Z" stroke="rgb(0, 0, 0)" stroke-width="0" fill-rule="evenodd" stroke-linejoin="miter" fill="rgb(0, 0, 0)" shape-rendering="geometricPrecision" /></g><g><text xml:space="preserve" text-anchor="start" text-rendering="geometricPrecision"><tspan x="357.4" y="99.79" font-family="Arial" font-size="16.55" fill="rgb(0, 0, 0)">OMe</tspan></text></g><g id="Solid"><path d="M384.21 152.41 L384.21 152.41 L384.46 152.84 L384.71 153.27 L363.82 165.33 L363.82 164.76 L363.82 164.19 Z" stroke="rgb(0, 0, 0)" stroke-width="0" fill-rule="evenodd" stroke-linejoin="miter" fill="rgb(0, 0, 0)" shape-rendering="geometricPrecision" /><line x1="382.31" y1="149.12" x2="363.82" y2="159.81" stroke="rgb(0, 0, 0)" stroke-width="0.99" shape-rendering="auto" /></g><g id="Solid"><path d="M363.82 164.19 L363.82 164.19 L363.82 164.76 L363.82 165.33 L342.68 153.13 L343.18 152.84 L343.68 152.55 Z" stroke="rgb(0, 0, 0)" stroke-width="0" fill-rule="evenodd" stroke-linejoin="miter" fill="rgb(0, 0, 0)" shape-rendering="geometricPrecision" /></g><g id="Solid"><path d="M343.68 152.55 L343.68 152.55 L343.18 152.84 L342.68 153.13 L342.68 128.72 L343.18 129.01 L343.68 129.3 Z" stroke="rgb(0, 0, 0)" stroke-width="0" fill-rule="evenodd" stroke-linejoin="miter" fill="rgb(0, 0, 0)" shape-rendering="geometricPrecision" /></g><g id="Arrow"><path d="M95.56 140.98 C102.31 137.78 105.18 129.71 101.99 122.97 C101.83 122.64 101.66 122.31 101.48 122 " stroke="rgb(255, 0, 0)" stroke-width="0.99" fill-rule="evenodd" stroke-linejoin="bevel" fill="none" shape-rendering="geometricPrecision" /><path d="M89.77 142.28 L97.93 142.16 C96.27 141.45 95.82 139.78 96.92 138.34 Z" stroke="rgb(255, 0, 0)" stroke-width="0" fill-rule="evenodd" stroke-linejoin="miter" stroke-miterlimit="11.4431625909956" fill="rgb(255, 0, 0)" shape-rendering="geometricPrecision" /></g><g id="Arrow"><path d="M117.32 153 C111.15 148.71 102.66 150.24 98.37 156.41 C98.15 156.72 97.95 157.05 97.76 157.37 " stroke="rgb(255, 0, 0)" stroke-width="0.99" fill-rule="evenodd" stroke-linejoin="bevel" fill="none" shape-rendering="geometricPrecision" /><path d="M121.34 157.37 L117.17 150.35 C117.38 152.15 116.15 153.37 114.36 153.14 Z" stroke="rgb(255, 0, 0)" stroke-width="0" fill-rule="evenodd" stroke-linejoin="miter" stroke-miterlimit="11.4431625909957" fill="rgb(255, 0, 0)" shape-rendering="geometricPrecision" /></g><g id="Arrow"><path d="M113.97 128.96 C113.34 136.45 118.91 143.05 126.41 143.68 C126.79 143.71 127.17 143.72 127.55 143.72 " stroke="rgb(255, 0, 0)" stroke-width="0.99" fill-rule="evenodd" stroke-linejoin="bevel" fill="none" shape-rendering="geometricPrecision" /><path d="M115.75 123.29 L111.76 130.41 C113.21 129.33 114.88 129.78 115.58 131.45 Z" stroke="rgb(255, 0, 0)" stroke-width="0" fill-rule="evenodd" stroke-linejoin="miter" stroke-miterlimit="11.4431625909954" fill="rgb(255, 0, 0)" shape-rendering="geometricPrecision" /></g><g><text xml:space="preserve" text-anchor="start" text-rendering="geometricPrecision"><tspan x="233.05" y="115.17" font-family="Symbol" font-size="16.55" fill="rgb(0, 0, 0)">D</tspan></text></g></g></g></svg>