<?xml version="1.0"?><svg xmlns="http://www.w3.org/2000/svg" xmlns:xlink="http://www.w3.org/1999/xlink" viewBox="79.18 312.83 325.82 73.84" preserveAspectRatio="xMidYMid" width="100%" height="100%"><clipPath id="9599"><rect x="0.3" y="0.3" width="522.72" height="769.32" /></clipPath><g id="drawing"><rect x="79.18" y="312.83" width="100%" height="100%" fill="rgb(255, 255, 255)" /><g id="page" clip-path="url(#9599)"><g id="Solid"><path d="M102.49 341.62 L102.49 341.62 L102.79 341.79 L103.09 341.96 L103.09 356.02 L102.79 356.19 L102.49 356.02 Z" stroke="rgb(0, 0, 0)" stroke-width="0" fill-rule="evenodd" stroke-linejoin="miter" fill="rgb(0, 0, 0)" shape-rendering="geometricPrecision" /></g><g id="Solid"><path d="M102.79 356.54 L102.79 356.54 L102.79 356.19 L103.09 356.02 L115.26 363.04 L115.26 363.39 L114.96 363.56 Z" stroke="rgb(0, 0, 0)" stroke-width="0" fill-rule="evenodd" stroke-linejoin="miter" fill="rgb(0, 0, 0)" shape-rendering="geometricPrecision" /><line x1="105.38" y1="354.69" x2="115.26" y2="360.4" stroke="rgb(0, 0, 0)" stroke-width="0.6" shape-rendering="auto" /></g><g id="Solid"><path d="M115.56 363.56 L115.56 363.56 L115.26 363.39 L115.26 363.04 L127.43 356.02 L127.73 356.19 L128.03 356.36 Z" stroke="rgb(0, 0, 0)" stroke-width="0" fill-rule="evenodd" stroke-linejoin="miter" fill="rgb(0, 0, 0)" shape-rendering="geometricPrecision" /></g><g id="Solid"><path d="M128.03 356.36 L128.03 356.36 L127.73 356.19 L127.43 356.02 L127.43 341.96 L127.73 341.79 L128.03 341.62 Z" stroke="rgb(0, 0, 0)" stroke-width="0" fill-rule="evenodd" stroke-linejoin="miter" fill="rgb(0, 0, 0)" shape-rendering="geometricPrecision" /></g><g id="Solid"><path d="M128.03 341.62 L128.03 341.62 L127.73 341.79 L127.43 341.96 L115.26 334.94 L115.26 334.59 L115.56 334.42 Z" stroke="rgb(0, 0, 0)" stroke-width="0" fill-rule="evenodd" stroke-linejoin="miter" fill="rgb(0, 0, 0)" shape-rendering="geometricPrecision" /></g><g id="Solid"><path d="M114.96 334.42 L114.96 334.42 L115.26 334.59 L115.26 334.94 L103.09 341.96 L102.79 341.79 L102.49 341.62 Z" stroke="rgb(0, 0, 0)" stroke-width="0" fill-rule="evenodd" stroke-linejoin="miter" fill="rgb(0, 0, 0)" shape-rendering="geometricPrecision" /><line x1="115.26" y1="337.58" x2="105.38" y2="343.29" stroke="rgb(0, 0, 0)" stroke-width="0.6" shape-rendering="auto" /></g><g><text xml:space="preserve" text-anchor="start" text-rendering="geometricPrecision"><tspan x="111.36" y="324.09" font-family="Arial" font-size="10" fill="rgb(0, 0, 0)">OMe</tspan></text></g><g id="Solid"><path d="M115.56 334.42 L115.56 334.42 L115.26 334.59 L114.96 334.42 L114.96 325.9 L115.26 325.9 L115.56 325.9 Z" stroke="rgb(0, 0, 0)" stroke-width="0" fill-rule="evenodd" stroke-linejoin="miter" fill="rgb(0, 0, 0)" shape-rendering="geometricPrecision" /></g><g><text xml:space="preserve" text-anchor="end" text-rendering="geometricPrecision"><tspan x="93.09" y="367.29" font-family="Arial" font-size="10" fill="rgb(0, 0, 0)">Me</tspan></text></g><g id="Solid"><path d="M102.49 356.02 L102.49 356.02 L102.79 356.19 L102.79 356.54 L93.56 361.86 L93.41 361.6 L93.26 361.34 Z" stroke="rgb(0, 0, 0)" stroke-width="0" fill-rule="evenodd" stroke-linejoin="miter" fill="rgb(0, 0, 0)" shape-rendering="geometricPrecision" /></g><g><text xml:space="preserve" text-anchor="start" text-rendering="geometricPrecision"><tspan x="111.08" y="381.69" font-family="Arial" font-size="10" fill="rgb(0, 0, 0)">Me</tspan></text></g><g id="Solid"><path d="M114.96 363.56 L114.96 363.56 L115.26 363.39 L115.56 363.56 L115.56 373.79 L115.26 373.79 L114.96 373.79 Z" stroke="rgb(0, 0, 0)" stroke-width="0" fill-rule="evenodd" stroke-linejoin="miter" fill="rgb(0, 0, 0)" shape-rendering="geometricPrecision" /></g><g><text xml:space="preserve" text-anchor="start" text-rendering="geometricPrecision"><tspan x="192.27" y="324.27" font-family="Arial" dy="-4.07" font-size="7.5" fill="rgb(0, 0, 0)">i</tspan><tspan font-family="Arial" dy="4.07" font-size="10" fill="rgb(0, 0, 0)">Pr</tspan></text></g><g id="Solid"><path d="M192.79 324.37 L192.79 324.37 L193.09 324.37 L193.39 324.37 L193.39 334.94 L193.09 334.77 L192.79 334.6 Z" stroke="rgb(0, 0, 0)" stroke-width="0" fill-rule="evenodd" stroke-linejoin="miter" fill="rgb(0, 0, 0)" shape-rendering="geometricPrecision" /></g><g><text xml:space="preserve" text-anchor="start" text-rendering="geometricPrecision"><tspan x="201.66" y="345.87" font-family="Arial" font-size="10" fill="rgb(0, 0, 0)">O</tspan></text></g><g id="Solid"><line x1="193.74" y1="333.65" x2="201.46" y2="338.11" stroke="rgb(0, 0, 0)" stroke-width="0.6" shape-rendering="auto" /><path d="M192.39 335.52 L192.39 335.52 L191.79 335.86 L200.02 340.61 L200.32 340.09 Z" stroke="rgb(0, 0, 0)" stroke-width="0" fill-rule="evenodd" stroke-linejoin="miter" fill="rgb(0, 0, 0)" shape-rendering="geometricPrecision" /><path d="M193.39 333.1 L193.39 333.1 L193.39 333.79 L201.31 338.37 L201.61 337.85 Z" stroke="rgb(0, 0, 0)" stroke-width="0" fill-rule="evenodd" stroke-linejoin="miter" fill="rgb(0, 0, 0)" shape-rendering="geometricPrecision" /></g><g id="Solid"><path d="M192.79 334.6 L192.79 334.6 L193.09 334.77 L193.39 334.94 L180.92 342.14 L180.62 341.97 L180.32 341.8 Z" stroke="rgb(0, 0, 0)" stroke-width="0" fill-rule="evenodd" stroke-linejoin="miter" fill="rgb(0, 0, 0)" shape-rendering="geometricPrecision" /></g><g id="Solid"><path d="M180.32 341.8 L180.32 341.8 L180.62 341.97 L180.92 342.14 L180.92 356.37 L180.62 356.37 L180.32 356.37 Z" stroke="rgb(0, 0, 0)" stroke-width="0" fill-rule="evenodd" stroke-linejoin="miter" fill="rgb(0, 0, 0)" shape-rendering="geometricPrecision" /><line x1="183.21" y1="343.47" x2="183.21" y2="356.37" stroke="rgb(0, 0, 0)" stroke-width="0.6" shape-rendering="auto" /></g><g><text xml:space="preserve" text-anchor="start" text-rendering="geometricPrecision"><tspan x="151.13" y="353.25" font-family="Arial" font-size="10" fill="rgb(0, 0, 0)">+</tspan></text></g><g id="Arrow"><line x1="300.63" y1="348.75" x2="247.88" y2="348.75" stroke="rgb(0, 0, 0)" stroke-width="0.6" shape-rendering="auto" /><path d="M304.88 348.75 L298.88 347.25 C300.07 348.09 300.07 349.41 298.88 350.25 Z" stroke="rgb(0, 0, 0)" stroke-width="0" fill-rule="evenodd" stroke-linejoin="miter" stroke-miterlimit="6.93525005514877" fill="rgb(0, 0, 0)" shape-rendering="geometricPrecision" /></g><g><text xml:space="preserve" text-anchor="start" text-rendering="geometricPrecision"><tspan x="270.37" y="343.5" font-family="Symbol" font-size="10" fill="rgb(0, 0, 0)">D</tspan></text></g><g id="Solid"><path d="M341.01 355.79 L341.01 355.79 L340.87 355.52 L341.49 355.04 L354.48 351.56 L354.78 351.79 L354.48 352.18 Z" stroke="rgb(0, 0, 0)" stroke-width="0" fill-rule="evenodd" stroke-linejoin="miter" fill="rgb(0, 0, 0)" shape-rendering="geometricPrecision" /></g><g id="Solid"><path d="M355.08 352.18 L355.08 352.18 L354.78 351.79 L355.08 351.56 L368.55 355.17 L368.69 355.52 L368.83 355.87 Z" stroke="rgb(0, 0, 0)" stroke-width="0" fill-rule="evenodd" stroke-linejoin="miter" fill="rgb(0, 0, 0)" shape-rendering="geometricPrecision" /></g><g id="Solid"><path d="M341.49 355.04 L341.49 355.04 L340.87 355.52 L340.64 355.32 L347.87 342.79 L348.07 343.05 L348.27 343.31 Z" stroke="rgb(0, 0, 0)" stroke-width="0" fill-rule="evenodd" stroke-linejoin="miter" fill="rgb(0, 0, 0)" shape-rendering="geometricPrecision" /><line x1="346.24" y1="351.4" x2="349.78" y2="345.28" stroke="rgb(0, 0, 0)" stroke-width="0.6" shape-rendering="auto" /></g><g id="Solid"><path d="M368.83 355.87 L368.83 355.87 L368.69 355.52 L368.55 355.17 L375.43 343.24 L375.89 343.05 L375.89 343.65 Z" stroke="rgb(0, 0, 0)" stroke-width="0" fill-rule="evenodd" stroke-linejoin="miter" fill="rgb(0, 0, 0)" shape-rendering="geometricPrecision" /></g><g id="Solid"><g id="Bond's parts"><path d="M361.25 339.2 L361.25 339.2 L361.88 339.2 L361.9 339.25 L361.95 339.65 L361.75 339.7 L361.35 339.8 L360.95 339.9 L360.65 340 L360.25 340.1 L359.85 340.2 L359.45 340.3 L359.15 340.4 L358.75 340.5 L358.35 340.6 L357.95 340.7 L357.65 340.8 L357.25 340.9 L356.85 341 L356.55 341.1 L356.35 341.15 L356.4 340.55 L356.42 340.5 L356.75 340.4 L357.15 340.3 L357.55 340.2 L357.95 340.1 L358.25 340 L358.65 339.9 L359.05 339.8 L359.35 339.7 L359.75 339.6 L360.15 339.5 L360.55 339.4 L360.85 339.3 Z" stroke="rgb(0, 0, 0)" stroke-width="0" fill-rule="evenodd" stroke-linejoin="miter" fill="rgb(0, 0, 0)" shape-rendering="geometricPrecision" /><path d="M352.35 341.6 L352.35 341.6 L352.55 341.55 L352.55 342.15 L352.35 342.2 L352.05 342.3 L351.65 342.4 L351.25 342.5 L350.95 342.6 L350.55 342.7 L350.15 342.8 L349.75 342.9 L349.45 343 L349.05 343.1 L348.65 343.2 L348.15 343.25 L348.1 343.05 L348.05 343 L347.95 342.9 L347.88 342.8 L348.25 342.7 L348.55 342.6 L348.95 342.5 L349.35 342.4 L349.75 342.3 L350.05 342.2 L350.45 342.1 L350.85 342 L351.25 341.9 L351.55 341.8 L351.95 341.7 Z" stroke="rgb(0, 0, 0)" stroke-width="0" fill-rule="evenodd" stroke-linejoin="miter" fill="rgb(0, 0, 0)" shape-rendering="geometricPrecision" /></g></g><g id="Solid"><path d="M361.98 339.63 L361.98 339.63 L361.98 339.32 L362.44 339.13 L375.8 342.71 L375.89 343.05 L375.43 343.24 Z" stroke="rgb(0, 0, 0)" stroke-width="0" fill-rule="evenodd" stroke-linejoin="miter" fill="rgb(0, 0, 0)" shape-rendering="geometricPrecision" /></g><g id="Solid"><path d="M355.08 351.56 L355.08 351.56 L354.78 351.79 L354.48 351.56 L354.48 335.81 L354.78 335.89 L355.08 335.97 Z" stroke="rgb(0, 0, 0)" stroke-width="0" fill-rule="evenodd" stroke-linejoin="miter" fill="rgb(0, 0, 0)" shape-rendering="geometricPrecision" /></g><g id="Solid"><path d="M362.28 338.2 L362.28 338.2 L361.98 339.32 L361.68 339.09 L361.68 324.54 L361.98 323.42 L362.28 322.3 Z" stroke="rgb(0, 0, 0)" stroke-width="0" fill-rule="evenodd" stroke-linejoin="miter" fill="rgb(0, 0, 0)" shape-rendering="geometricPrecision" /></g><g id="Solid"><path d="M362.28 322.3 L362.28 322.3 L361.98 323.42 L361.68 324.54 L355.08 335.97 L354.78 335.89 L354.48 335.81 Z" stroke="rgb(0, 0, 0)" stroke-width="0" fill-rule="evenodd" stroke-linejoin="miter" fill="rgb(0, 0, 0)" shape-rendering="geometricPrecision" /></g><g><text xml:space="preserve" text-anchor="start" text-rendering="geometricPrecision"><tspan x="365.28" y="330.75" font-family="Arial" font-size="10" fill="rgb(0, 0, 0)">OMe</tspan></text></g><g id="Solid"><path d="M362.44 339.13 L362.44 339.13 L361.98 339.32 L362.28 338.2 L366.07 331.64 L366.33 331.79 L366.59 331.94 Z" stroke="rgb(0, 0, 0)" stroke-width="0" fill-rule="evenodd" stroke-linejoin="miter" fill="rgb(0, 0, 0)" shape-rendering="geometricPrecision" /></g><g><text xml:space="preserve" text-anchor="end" text-rendering="geometricPrecision"><tspan x="332.22" y="368.19" font-family="Arial" font-size="10" fill="rgb(0, 0, 0)">Me</tspan></text></g><g id="Solid"><path d="M340.64 355.32 L340.64 355.32 L340.87 355.52 L341.01 355.79 L332.31 362.46 L332.13 362.23 L331.95 361.99 Z" stroke="rgb(0, 0, 0)" stroke-width="0" fill-rule="evenodd" stroke-linejoin="miter" fill="rgb(0, 0, 0)" shape-rendering="geometricPrecision" /></g><g><text xml:space="preserve" text-anchor="start" text-rendering="geometricPrecision"><tspan x="350.6" y="370.09" font-family="Arial" font-size="10" fill="rgb(0, 0, 0)">Me</tspan></text></g><g id="Solid"><path d="M354.48 352.18 L354.48 352.18 L354.78 351.79 L355.08 352.18 L355.08 362.19 L354.78 362.19 L354.48 362.19 Z" stroke="rgb(0, 0, 0)" stroke-width="0" fill-rule="evenodd" stroke-linejoin="miter" fill="rgb(0, 0, 0)" shape-rendering="geometricPrecision" /></g><g id="Solid"><path d="M375.89 343.65 L375.89 343.65 L375.89 343.05 L376.26 343.09 L383.26 355.22 L383.09 355.52 L382.92 355.82 Z" stroke="rgb(0, 0, 0)" stroke-width="0" fill-rule="evenodd" stroke-linejoin="miter" fill="rgb(0, 0, 0)" shape-rendering="geometricPrecision" /></g><g><text xml:space="preserve" text-anchor="start" text-rendering="geometricPrecision"><tspan x="371.99" y="371.89" font-family="Arial" font-size="10" fill="rgb(0, 0, 0)">O</tspan></text></g><g id="Solid"><line x1="384.21" y1="356.17" x2="379.71" y2="363.96" stroke="rgb(0, 0, 0)" stroke-width="0.6" shape-rendering="auto" /><path d="M382.34 354.82 L382.34 354.82 L382 354.22 L377.21 362.52 L377.73 362.82 Z" stroke="rgb(0, 0, 0)" stroke-width="0" fill-rule="evenodd" stroke-linejoin="miter" fill="rgb(0, 0, 0)" shape-rendering="geometricPrecision" /><path d="M384.76 355.82 L384.76 355.82 L384.07 355.82 L379.45 363.81 L379.97 364.11 Z" stroke="rgb(0, 0, 0)" stroke-width="0" fill-rule="evenodd" stroke-linejoin="miter" fill="rgb(0, 0, 0)" shape-rendering="geometricPrecision" /></g><g><text xml:space="preserve" text-anchor="start" text-rendering="geometricPrecision"><tspan x="392.51" y="359.42" font-family="Arial" dy="-4.07" font-size="7.5" fill="rgb(0, 0, 0)">i</tspan><tspan font-family="Arial" dy="4.07" font-size="10" fill="rgb(0, 0, 0)">Pr</tspan></text></g><g id="Solid"><path d="M382.92 355.82 L382.92 355.82 L383.09 355.52 L383.26 355.22 L393.4 355.22 L393.4 355.52 L393.4 355.82 Z" stroke="rgb(0, 0, 0)" stroke-width="0" fill-rule="evenodd" stroke-linejoin="miter" fill="rgb(0, 0, 0)" shape-rendering="geometricPrecision" /></g><g><text xml:space="preserve" text-anchor="start" text-rendering="geometricPrecision"><tspan x="379.51" y="339.38" font-family="Arial" font-size="10" fill="rgb(0, 0, 0)">H</tspan></text></g><g id="Solid"><path d="M376.26 343.09 L376.26 343.09 L375.89 343.05 L375.8 342.71 L379.08 339.27 L379.3 339.48 L379.51 339.69 Z" stroke="rgb(0, 0, 0)" stroke-width="0" fill-rule="evenodd" stroke-linejoin="miter" fill="rgb(0, 0, 0)" shape-rendering="geometricPrecision" /></g><g id="Arrow"><path d="M109.99 360.5 C121.24 379.99 146.19 386.67 165.67 375.42 C170.79 372.46 175.26 368.38 178.65 363.54 " stroke="rgb(255, 0, 0)" stroke-width="0.6" fill-rule="evenodd" stroke-linejoin="bevel" fill="none" shape-rendering="geometricPrecision" /><path d="M180.59 360.5 L176.97 363.88 C178.1 363.37 178.98 363.94 178.99 365.18 Z" stroke="rgb(255, 0, 0)" stroke-width="0" fill-rule="evenodd" stroke-linejoin="miter" stroke-miterlimit="6.93525005514884" fill="rgb(255, 0, 0)" shape-rendering="geometricPrecision" /></g><g id="Arrow"><path d="M178.5 348.99 C173.5 330.36 154.33 319.3 135.7 324.29 C130.97 325.56 126.51 327.84 122.71 330.93 " stroke="rgb(255, 0, 0)" stroke-width="0.6" fill-rule="evenodd" stroke-linejoin="bevel" fill="none" shape-rendering="geometricPrecision" /><path d="M120.04 333.34 L124.43 331.05 C123.2 331.24 122.51 330.45 122.84 329.26 Z" stroke="rgb(255, 0, 0)" stroke-width="0" fill-rule="evenodd" stroke-linejoin="miter" stroke-miterlimit="6.93525005514877" fill="rgb(255, 0, 0)" shape-rendering="geometricPrecision" /></g><g id="Arrow"><path d="M108.6 349.02 C110.36 348.01 111.5 346.03 111.5 344 " stroke="rgb(255, 0, 0)" stroke-width="0.6" fill-rule="evenodd" stroke-linejoin="bevel" fill="none" shape-rendering="geometricPrecision" /><path d="M105.7 349.8 L109.24 349.74 C108.37 349.36 108.23 348.84 108.79 348.08 Z" stroke="rgb(255, 0, 0)" stroke-width="0" fill-rule="evenodd" stroke-linejoin="miter" stroke-miterlimit="4.91065618851267" fill="rgb(255, 0, 0)" shape-rendering="geometricPrecision" /></g></g></g></svg>