<?xml version="1.0"?><svg xmlns="http://www.w3.org/2000/svg" xmlns:xlink="http://www.w3.org/1999/xlink" viewBox="22.28 40.65 115.38 87.45" preserveAspectRatio="xMidYMid" width="100%" height="100%"><clipPath id="70"><rect x="0.3" y="0.3" width="522.72" height="769.32" /></clipPath><g id="drawing"><rect x="22.28" y="40.65" width="100%" height="100%" fill="rgb(255, 255, 255)" /><g id="page" clip-path="url(#70)"><g id="Solid"><path d="M62.71 62.55 L62.71 62.55 L62.63 62.25 L62.55 61.95 L81.42 61.95 L81.52 62.25 L81.22 62.55 Z" stroke="rgb(0, 0, 255)" stroke-width="0" fill-rule="evenodd" stroke-linejoin="miter" fill="rgb(0, 0, 255)" shape-rendering="geometricPrecision" /><line x1="63.54" y1="65.65" x2="78.09" y2="65.65" stroke="rgb(0, 0, 255)" stroke-width="0.6" shape-rendering="auto" /></g><g id="Solid"><path d="M62.55 61.95 L62.55 61.95 L62.63 62.25 L62.71 62.55 L50.56 69.56 L50.15 69.45 L50.07 69.15 Z" stroke="rgb(0, 0, 255)" stroke-width="0" fill-rule="evenodd" stroke-linejoin="miter" fill="rgb(0, 0, 255)" shape-rendering="geometricPrecision" /></g><g id="Solid"><path d="M49.98 69.75 L49.98 69.75 L50.15 69.45 L50.56 69.56 L57.52 81.62 L57.35 81.92 L56.96 81.84 Z" stroke="rgb(0, 0, 255)" stroke-width="0" fill-rule="evenodd" stroke-linejoin="miter" fill="rgb(0, 0, 255)" shape-rendering="geometricPrecision" /><line x1="53.69" y1="70.4" x2="58.85" y2="79.33" stroke="rgb(0, 0, 255)" stroke-width="0.6" shape-rendering="auto" /></g><g id="Solid"><path d="M57.77 82.22 L57.77 82.22 L57.35 81.92 L57.52 81.62 L73.18 81.62 L73.25 81.92 L73.32 82.22 Z" stroke="rgb(0, 0, 255)" stroke-width="0" fill-rule="evenodd" stroke-linejoin="miter" fill="rgb(0, 0, 255)" shape-rendering="geometricPrecision" /></g><g id="Solid"><path d="M87.61 74.86 L87.61 74.86 L87.22 74.72 L86.83 74.58 L81.81 63.6 L81.52 62.25 L81.89 62.35 Z" stroke="rgb(0, 0, 255)" stroke-width="0" fill-rule="evenodd" stroke-linejoin="miter" fill="rgb(0, 0, 255)" shape-rendering="geometricPrecision" /></g><g><text xml:space="preserve" text-anchor="start" text-rendering="geometricPrecision"><tspan x="89.91" y="57.03" font-family="Arial" font-size="10" fill="rgb(0, 0, 255)">OMe</tspan></text></g><g id="Solid"><path d="M81.89 62.35 L81.89 62.35 L81.52 62.25 L81.42 61.95 L89.34 56.08 L89.52 56.32 L89.69 56.56 Z" stroke="rgb(0, 0, 255)" stroke-width="0" fill-rule="evenodd" stroke-linejoin="miter" fill="rgb(0, 0, 255)" shape-rendering="geometricPrecision" /></g><g id="Solid"><path d="M56.96 81.84 L56.96 81.84 L57.35 81.92 L57.2 82.4 L43.58 92.38 L43.4 92.14 L43.22 91.9 Z" stroke="rgb(0, 0, 255)" stroke-width="0" fill-rule="evenodd" stroke-linejoin="miter" fill="rgb(0, 0, 255)" shape-rendering="geometricPrecision" /></g><g id="Solid"><path d="M50.07 69.15 L50.07 69.15 L50.15 69.45 L49.98 69.75 L34.74 69.77 L34.74 69.47 L34.74 69.17 Z" stroke="rgb(0, 0, 255)" stroke-width="0" fill-rule="evenodd" stroke-linejoin="miter" fill="rgb(0, 0, 255)" shape-rendering="geometricPrecision" /></g><g id="Solid"><path d="M68.46 115.19 L68.46 115.19 L68.63 114.75 L68.8 114.31 L80.61 107.49 L81.1 107.55 L81.4 107.72 Z" stroke="rgb(0, 0, 255)" stroke-width="0" fill-rule="evenodd" stroke-linejoin="miter" fill="rgb(0, 0, 255)" shape-rendering="geometricPrecision" /><line x1="70.06" y1="110.93" x2="76.88" y2="107" stroke="rgb(0, 0, 255)" stroke-width="0.6" shape-rendering="auto" /></g><g id="Bracket"><path d="M114.94 41.25 L121.13 41.25 L121.13 127.5 L114.94 127.5 " stroke="rgb(0, 0, 255)" stroke-width="0.6" fill-rule="evenodd" stroke-linejoin="miter" fill="none" shape-rendering="geometricPrecision" /></g><g id="Bracket"><path d="M29.07 127.5 L22.88 127.5 L22.88 41.25 L29.07 41.25 " stroke="rgb(0, 0, 255)" stroke-width="0.6" fill-rule="evenodd" stroke-linejoin="miter" fill="none" shape-rendering="geometricPrecision" /></g><g id="Charge44"><line x1="133.88" y1="43.2" x2="133.88" y2="55.8" stroke="rgb(0, 0, 255)" stroke-width="0.48" shape-rendering="auto" /><line x1="130.58" y1="46.5" x2="137.18" y2="46.5" stroke="rgb(0, 0, 255)" stroke-width="0.48" shape-rendering="auto" /><line x1="130.58" y1="52.5" x2="137.18" y2="52.5" stroke="rgb(0, 0, 255)" stroke-width="0.48" shape-rendering="auto" /></g><g id="Solid"><path d="M80.81 106.83 L80.81 106.83 L81.1 107.55 L80.61 107.49 L70.79 97.67 L70.91 97.37 L71.03 97.07 Z" stroke="rgb(0, 0, 255)" stroke-width="0" fill-rule="evenodd" stroke-linejoin="miter" fill="rgb(0, 0, 255)" shape-rendering="geometricPrecision" /></g><g id="Solid"><g id="Bond's parts"><path d="M77.78 91.6 L77.78 91.6 L77.85 91.6 L77.9 91.65 L78 91.85 L78.05 92.15 L77.85 92.2 L77.62 92.3 L77.57 92.4 L77.35 92.5 L77.12 92.6 L77.07 92.7 L76.85 92.8 L76.65 92.9 L76.43 93 L76.38 93.1 L76.15 93.2 L75.95 93.3 L75.72 93.4 L75.68 93.5 L75.45 93.6 L75.25 93.7 L75.03 93.8 L74.97 93.9 L74.75 94 L74.53 94.1 L74.47 94.2 L74.25 94.3 L74.05 94.4 L73.82 94.5 L73.78 94.6 L73.55 94.7 L73.35 94.8 L73.12 94.9 L73.07 95 L72.85 95.1 L72.62 95.2 L72.57 95.3 L72.35 95.4 L72.15 95.5 L71.93 95.6 L71.88 95.7 L71.65 95.8 L71.45 95.9 L71.22 96 L71.18 96.1 L70.95 96.2 L70.75 96.3 L70.53 96.4 L70.47 96.5 L70.25 96.6 L70.03 96.7 L69.97 96.8 L69.75 96.9 L69.55 97 L68.35 97 L68.55 96.9 L68.78 96.8 L68.82 96.7 L69.05 96.6 L69.28 96.5 L69.32 96.4 L69.55 96.3 L69.75 96.2 L69.97 96.1 L70.03 96 L70.25 95.9 L70.45 95.8 L70.68 95.7 L70.72 95.6 L70.95 95.5 L71.15 95.4 L71.38 95.3 L71.43 95.2 L71.65 95.1 L71.88 95 L71.93 94.9 L72.15 94.8 L72.35 94.7 L72.57 94.6 L72.62 94.5 L72.85 94.4 L73.05 94.3 L73.28 94.2 L73.32 94.1 L73.55 94 L73.78 93.9 L73.82 93.8 L74.05 93.7 L74.25 93.6 L74.47 93.5 L74.53 93.4 L74.75 93.3 L74.95 93.2 L75.18 93.1 L75.22 93 L75.45 92.9 L75.65 92.8 L75.88 92.7 L75.93 92.6 L76.15 92.5 L76.38 92.4 L76.43 92.3 L76.65 92.2 L76.85 92.1 L77.07 92 L77.12 91.9 L77.35 91.8 L77.55 91.7 Z" stroke="rgb(0, 0, 255)" stroke-width="0" fill-rule="evenodd" stroke-linejoin="miter" fill="rgb(0, 0, 255)" shape-rendering="geometricPrecision" /><path d="M79.05 93.8 L79.05 93.8 L79.1 93.75 L79.2 93.95 L79.3 94.15 L79.35 94.2 L79.43 94.3 L79.25 94.4 L79.03 94.5 L78.97 94.6 L78.75 94.7 L78.55 94.8 L78.32 94.9 L78.28 95 L78.05 95.1 L77.85 95.2 L77.62 95.3 L77.57 95.4 L77.35 95.5 L77.15 95.6 L76.93 95.7 L76.88 95.8 L76.65 95.9 L76.43 96 L76.38 96.1 L76.15 96.2 L75.95 96.3 L75.72 96.4 L75.68 96.5 L75.45 96.6 L75.25 96.7 L75.03 96.8 L74.97 96.9 L74.75 97 L74.55 97.1 L74.32 97.2 L74.28 97.3 L74.05 97.4 L73.82 97.5 L73.78 97.6 L73.55 97.7 L73.35 97.8 L73.12 97.9 L73.07 98 L72.85 98.1 L72.65 98.2 L72.45 98.3 L72.22 98.3 L72.15 98.2 L72.05 98.1 L72 98.05 L71.95 97.85 L72.15 97.8 L72.35 97.7 L72.57 97.6 L72.62 97.5 L72.85 97.4 L73.07 97.3 L73.12 97.2 L73.35 97.1 L73.55 97 L73.78 96.9 L73.82 96.8 L74.05 96.7 L74.25 96.6 L74.47 96.5 L74.53 96.4 L74.75 96.3 L74.97 96.2 L75.03 96.1 L75.25 96 L75.45 95.9 L75.68 95.8 L75.72 95.7 L75.95 95.6 L76.15 95.5 L76.38 95.4 L76.43 95.3 L76.65 95.2 L76.85 95.1 L77.07 95 L77.12 94.9 L77.35 94.8 L77.57 94.7 L77.62 94.6 L77.85 94.5 L78.05 94.4 L78.28 94.3 L78.32 94.2 L78.55 94.1 L78.75 94 L78.97 93.9 Z" stroke="rgb(0, 0, 255)" stroke-width="0" fill-rule="evenodd" stroke-linejoin="miter" fill="rgb(0, 0, 255)" shape-rendering="geometricPrecision" /></g></g><g><text xml:space="preserve" text-anchor="start" text-rendering="geometricPrecision"><tspan x="79.48" y="94.07" font-family="Arial" font-size="10" fill="rgb(0, 0, 255)">O</tspan></text></g><g><text xml:space="preserve" text-anchor="end" text-rendering="geometricPrecision"><tspan x="58.19" y="101.27" font-family="Arial" font-size="10" fill="rgb(0, 0, 255)">Pr</tspan><tspan font-family="Arial" font-style="italic" dy="-4.07" font-size="7.5" fill="rgb(0, 0, 255)">i</tspan></text></g><g id="Solid"><g id="Bond's parts"><path d="M59.75 97.05 L59.75 97.05 L60.85 97.05 L60.9 97.25 L61 97.55 L61.03 97.6 Z" stroke="rgb(0, 0, 255)" stroke-width="0" fill-rule="evenodd" stroke-linejoin="miter" fill="rgb(0, 0, 255)" shape-rendering="geometricPrecision" /><path d="M64.88 97.1 L64.88 97.1 L71.03 97.1 L71 97.15 L70.9 97.35 L70.85 97.65 L65.05 97.65 L65 97.45 L64.9 97.15 Z" stroke="rgb(0, 0, 255)" stroke-width="0" fill-rule="evenodd" stroke-linejoin="miter" fill="rgb(0, 0, 255)" shape-rendering="geometricPrecision" /></g></g><g id="Dash"><path d="M58.02 84.78 L58.02 84.78 L58.58 84.58 L57.77 82.22 L57.35 81.92 L57.2 82.4 Z" stroke="rgb(0, 0, 255)" stroke-width="0" fill-rule="evenodd" stroke-linejoin="miter" fill="rgb(0, 0, 255)" shape-rendering="geometricPrecision" /><path d="M67.42 112.14 L67.42 112.14 L67.98 111.94 L68.8 114.31 L68.63 114.75 L68.46 115.19 Z" stroke="rgb(0, 0, 255)" stroke-width="0" fill-rule="evenodd" stroke-linejoin="miter" fill="rgb(0, 0, 255)" shape-rendering="geometricPrecision" /><path d="M58.9 87.37 L58.9 87.37 L59.72 89.73 L60.28 89.54 L59.47 87.17 Z" stroke="rgb(0, 0, 255)" stroke-width="0" fill-rule="evenodd" stroke-linejoin="miter" fill="rgb(0, 0, 255)" shape-rendering="geometricPrecision" /><path d="M60.61 92.32 L60.61 92.32 L61.42 94.69 L61.99 94.49 L61.17 92.13 Z" stroke="rgb(0, 0, 255)" stroke-width="0" fill-rule="evenodd" stroke-linejoin="miter" fill="rgb(0, 0, 255)" shape-rendering="geometricPrecision" /><path d="M62.31 97.28 L62.31 97.28 L63.12 99.64 L63.69 99.45 L62.88 97.08 Z" stroke="rgb(0, 0, 255)" stroke-width="0" fill-rule="evenodd" stroke-linejoin="miter" fill="rgb(0, 0, 255)" shape-rendering="geometricPrecision" /><path d="M64.01 102.23 L64.01 102.23 L64.82 104.6 L65.39 104.4 L64.58 102.04 Z" stroke="rgb(0, 0, 255)" stroke-width="0" fill-rule="evenodd" stroke-linejoin="miter" fill="rgb(0, 0, 255)" shape-rendering="geometricPrecision" /><path d="M65.71 107.18 L65.71 107.18 L66.53 109.55 L67.09 109.35 L66.28 106.99 Z" stroke="rgb(0, 0, 255)" stroke-width="0" fill-rule="evenodd" stroke-linejoin="miter" fill="rgb(0, 0, 255)" shape-rendering="geometricPrecision" /></g><g id="Dash"><g id="Bond's parts"><path d="M81.45 62.3 L81.45 62.3 L81.5 62.25 L81.6 62.65 L81.7 63.15 L81.8 63.55 L81.8 64.25 L81.75 66.05 L81.15 66.05 L81.2 64.35 L81.3 62.45 L81.35 62.4 Z" stroke="rgb(0, 0, 255)" stroke-width="0" fill-rule="evenodd" stroke-linejoin="miter" fill="rgb(0, 0, 255)" shape-rendering="geometricPrecision" /><path d="M81.15 69.45 L81.15 69.45 L81.75 69.45 L81.75 71.95 Z" stroke="rgb(0, 0, 255)" stroke-width="0" fill-rule="evenodd" stroke-linejoin="miter" fill="rgb(0, 0, 255)" shape-rendering="geometricPrecision" /><path d="M81.05 75.25 L81.05 75.25 L81.65 75.25 L81.6 75.75 L81.57 75.8 L81.35 75.9 L81.12 76 Z" stroke="rgb(0, 0, 255)" stroke-width="0" fill-rule="evenodd" stroke-linejoin="miter" fill="rgb(0, 0, 255)" shape-rendering="geometricPrecision" /><path d="M81.05 81.05 L81.05 81.05 L81.65 81.05 L81.65 83.55 Z" stroke="rgb(0, 0, 255)" stroke-width="0" fill-rule="evenodd" stroke-linejoin="miter" fill="rgb(0, 0, 255)" shape-rendering="geometricPrecision" /><path d="M80.95 86.85 L80.95 86.85 L81.55 86.85 L81.55 89.35 Z" stroke="rgb(0, 0, 255)" stroke-width="0" fill-rule="evenodd" stroke-linejoin="miter" fill="rgb(0, 0, 255)" shape-rendering="geometricPrecision" /><path d="M80.95 92.65 L80.95 92.65 L81.55 92.65 L81.55 95.15 Z" stroke="rgb(0, 0, 255)" stroke-width="0" fill-rule="evenodd" stroke-linejoin="miter" fill="rgb(0, 0, 255)" shape-rendering="geometricPrecision" /><path d="M80.85 98.55 L80.85 98.55 L81.45 98.55 L81.45 101.05 Z" stroke="rgb(0, 0, 255)" stroke-width="0" fill-rule="evenodd" stroke-linejoin="miter" fill="rgb(0, 0, 255)" shape-rendering="geometricPrecision" /><path d="M80.85 104.35 L80.85 104.35 L81.45 104.35 L81.4 107.75 L81.38 107.7 L81.12 107.6 L81.1 107.55 L81 107.35 Z" stroke="rgb(0, 0, 255)" stroke-width="0" fill-rule="evenodd" stroke-linejoin="miter" fill="rgb(0, 0, 255)" shape-rendering="geometricPrecision" /></g></g><g id="Solid"><path d="M73.32 82.22 L73.32 82.22 L73.25 81.92 L73.18 81.62 L86.83 74.58 L87.22 74.72 L87.61 74.86 Z" stroke="rgb(0, 0, 255)" stroke-width="0" fill-rule="evenodd" stroke-linejoin="miter" fill="rgb(0, 0, 255)" shape-rendering="geometricPrecision" /></g></g></g></svg>