<?xml version="1.0"?><svg xmlns="http://www.w3.org/2000/svg" xmlns:xlink="http://www.w3.org/1999/xlink" viewBox="22.28 40.65 125.13 87.45" preserveAspectRatio="xMidYMid" width="100%" height="100%"><clipPath id="77"><rect x="0.3" y="0.3" width="522.72" height="769.32" /></clipPath><g id="drawing"><rect x="22.28" y="40.65" width="100%" height="100%" fill="rgb(255, 255, 255)" /><g id="page" clip-path="url(#77)"><g id="Solid"><g id="Bond's parts"><path d="M62.85 89.65 L62.85 89.65 L79.78 89.7 L79.85 89.8 L79.95 89.9 L80 90 L79.95 90.1 L79.88 90.2 L62.75 90.25 Z" stroke="rgb(0, 0, 0)" stroke-width="0" fill-rule="evenodd" stroke-linejoin="miter" fill="rgb(0, 0, 0)" shape-rendering="geometricPrecision" /><path d="M62.05 93.05 L62.05 93.05 L77.85 93.05 L77.85 93.65 Z" stroke="rgb(0, 0, 0)" stroke-width="0" fill-rule="evenodd" stroke-linejoin="miter" fill="rgb(0, 0, 0)" shape-rendering="geometricPrecision" /></g></g><g id="Solid"><g id="Bond's parts"><path d="M58.95 90.9 L58.95 90.9 L59.12 90.9 L59.1 90.95 L59 91.35 L58.95 91.65 L58.72 91.7 L58.67 91.8 L58.45 91.9 L58.25 92 L58.03 92.1 L57.97 92.2 L57.75 92.3 L57.53 92.4 L57.47 92.5 L57.25 92.6 L57.05 92.7 L56.83 92.8 L56.78 92.9 L56.55 93 L56.35 93.1 L56.12 93.2 L56.08 93.3 L55.85 93.4 L55.65 93.5 L55.42 93.6 L55.38 93.7 L55.15 93.8 L54.92 93.9 L54.88 94 L54.65 94.1 L54.45 94.2 L54.22 94.3 L54.17 94.4 L53.95 94.5 L53.75 94.6 L53.53 94.7 L53.47 94.8 L53.25 94.9 L53.05 95 L52.83 95.1 L52.78 95.2 L52.55 95.3 L52.33 95.4 L52.28 95.5 L52.05 95.6 L51.85 95.7 L51.62 95.8 L51.58 95.9 L51.35 96 L51.15 96.1 L50.92 96.2 L50.88 96.3 L50.65 96.4 L50.45 96.5 L50.22 96.6 L50.17 96.7 L49.95 96.8 L49.72 96.9 L49.67 97 L49.45 97.1 L49.25 97.2 L48.65 97.25 L48.6 97.05 L48.55 96.85 L48.75 96.8 L48.97 96.7 L49.03 96.6 L49.25 96.5 L49.45 96.4 L49.67 96.3 L49.72 96.2 L49.95 96.1 L50.15 96 L50.38 95.9 L50.42 95.8 L50.65 95.7 L50.88 95.6 L50.92 95.5 L51.15 95.4 L51.35 95.3 L51.58 95.2 L51.62 95.1 L51.85 95 L52.05 94.9 L52.28 94.8 L52.33 94.7 L52.55 94.6 L52.75 94.5 L52.97 94.4 L53.03 94.3 L53.25 94.2 L53.47 94.1 L53.53 94 L53.75 93.9 L53.95 93.8 L54.17 93.7 L54.22 93.6 L54.45 93.5 L54.65 93.4 L54.88 93.3 L54.92 93.2 L55.15 93.1 L55.35 93 L55.58 92.9 L55.62 92.8 L55.85 92.7 L56.08 92.6 L56.12 92.5 L56.35 92.4 L56.55 92.3 L56.78 92.2 L56.83 92.1 L57.05 92 L57.25 91.9 L57.47 91.8 L57.53 91.7 L57.75 91.6 L57.95 91.5 L58.17 91.4 L58.22 91.3 L58.45 91.2 L58.67 91.1 L58.72 91 Z" stroke="rgb(0, 0, 0)" stroke-width="0" fill-rule="evenodd" stroke-linejoin="miter" fill="rgb(0, 0, 0)" shape-rendering="geometricPrecision" /></g></g><g id="Solid"><path d="M48.48 97.5 L48.48 97.5 L48.65 97.2 L49.06 97.31 L55.75 108.89 L55.85 109.67 L55.46 109.59 Z" stroke="rgb(0, 0, 0)" stroke-width="0" fill-rule="evenodd" stroke-linejoin="miter" fill="rgb(0, 0, 0)" shape-rendering="geometricPrecision" /><line x1="52.19" y1="98.15" x2="54.96" y2="102.95" stroke="rgb(0, 0, 0)" stroke-width="0.6" shape-rendering="auto" /></g><g id="Solid"><path d="M55.95 109.97 L55.95 109.97 L55.85 109.67 L56.24 109.37 L71.68 109.37 L71.75 109.67 L71.82 109.97 Z" stroke="rgb(0, 0, 0)" stroke-width="0" fill-rule="evenodd" stroke-linejoin="miter" fill="rgb(0, 0, 0)" shape-rendering="geometricPrecision" /></g><g id="Solid"><path d="M71.82 109.97 L71.82 109.97 L71.75 109.67 L71.68 109.37 L85.33 102.33 L85.72 102.47 L86.11 102.61 Z" stroke="rgb(0, 0, 0)" stroke-width="0" fill-rule="evenodd" stroke-linejoin="miter" fill="rgb(0, 0, 0)" shape-rendering="geometricPrecision" /></g><g id="Solid"><path d="M86.11 102.61 L86.11 102.61 L85.72 102.47 L85.33 102.33 L79.83 90.3 L80.02 90 L80.39 90.1 Z" stroke="rgb(0, 0, 0)" stroke-width="0" fill-rule="evenodd" stroke-linejoin="miter" fill="rgb(0, 0, 0)" shape-rendering="geometricPrecision" /></g><g><text xml:space="preserve" text-anchor="start" text-rendering="geometricPrecision"><tspan x="88.41" y="84.78" font-family="Arial" font-size="10" fill="rgb(0, 0, 0)">OMe</tspan></text></g><g id="Solid"><path d="M80.39 90.1 L80.39 90.1 L80.02 90 L80.31 89.41 L87.84 83.83 L88.02 84.07 L88.19 84.31 Z" stroke="rgb(0, 0, 0)" stroke-width="0" fill-rule="evenodd" stroke-linejoin="miter" fill="rgb(0, 0, 0)" shape-rendering="geometricPrecision" /></g><g id="Solid"><path d="M55.46 109.59 L55.46 109.59 L55.85 109.67 L55.95 109.97 L42.08 120.13 L41.9 119.89 L41.72 119.65 Z" stroke="rgb(0, 0, 0)" stroke-width="0" fill-rule="evenodd" stroke-linejoin="miter" fill="rgb(0, 0, 0)" shape-rendering="geometricPrecision" /></g><g id="Solid"><path d="M48.57 96.9 L48.57 96.9 L48.65 97.2 L48.48 97.5 L33.24 97.52 L33.24 97.22 L33.24 96.92 Z" stroke="rgb(0, 0, 0)" stroke-width="0" fill-rule="evenodd" stroke-linejoin="miter" fill="rgb(0, 0, 0)" shape-rendering="geometricPrecision" /></g><g id="Solid"><path d="M67.39 67.7 L67.39 67.7 L67.13 67.5 L66.87 67.3 L79.52 60 L79.6 60.3 L79.31 60.82 Z" stroke="rgb(0, 0, 0)" stroke-width="0" fill-rule="evenodd" stroke-linejoin="miter" fill="rgb(0, 0, 0)" shape-rendering="geometricPrecision" /><line x1="69.36" y1="69.21" x2="77.07" y2="64.75" stroke="rgb(0, 0, 0)" stroke-width="0.6" shape-rendering="auto" /></g><g id="Bracket"><path d="M124.69 41.25 L130.88 41.25 L130.88 127.5 L124.69 127.5 " stroke="rgb(0, 0, 0)" stroke-width="0.6" fill-rule="evenodd" stroke-linejoin="miter" fill="none" shape-rendering="geometricPrecision" /></g><g id="Bracket"><path d="M29.07 127.5 L22.88 127.5 L22.88 41.25 L29.07 41.25 " stroke="rgb(0, 0, 0)" stroke-width="0.6" fill-rule="evenodd" stroke-linejoin="miter" fill="none" shape-rendering="geometricPrecision" /></g><g id="Charge44"><line x1="143.63" y1="43.2" x2="143.63" y2="55.8" stroke="rgb(0, 0, 0)" stroke-width="0.48" shape-rendering="auto" /><line x1="140.33" y1="46.5" x2="146.93" y2="46.5" stroke="rgb(0, 0, 0)" stroke-width="0.48" shape-rendering="auto" /><line x1="140.33" y1="52.5" x2="146.93" y2="52.5" stroke="rgb(0, 0, 0)" stroke-width="0.48" shape-rendering="auto" /></g><g id="Dash"><path d="M56.97 106.63 L56.97 106.63 L56.39 106.48 L55.75 108.89 L55.85 109.67 L56.24 109.37 Z" stroke="rgb(0, 0, 0)" stroke-width="0" fill-rule="evenodd" stroke-linejoin="miter" fill="rgb(0, 0, 0)" shape-rendering="geometricPrecision" /><path d="M66.74 70.11 L66.74 70.11 L66.16 69.96 L66.87 67.3 L67.13 67.5 L67.39 67.7 Z" stroke="rgb(0, 0, 0)" stroke-width="0" fill-rule="evenodd" stroke-linejoin="miter" fill="rgb(0, 0, 0)" shape-rendering="geometricPrecision" /><path d="M57.81 103.49 L57.81 103.49 L58.46 101.07 L57.88 100.92 L57.24 103.33 Z" stroke="rgb(0, 0, 0)" stroke-width="0" fill-rule="evenodd" stroke-linejoin="miter" fill="rgb(0, 0, 0)" shape-rendering="geometricPrecision" /><path d="M59.3 97.92 L59.3 97.92 L59.95 95.51 L59.37 95.35 L58.72 97.77 Z" stroke="rgb(0, 0, 0)" stroke-width="0" fill-rule="evenodd" stroke-linejoin="miter" fill="rgb(0, 0, 0)" shape-rendering="geometricPrecision" /><path d="M60.79 92.36 L60.79 92.36 L61.44 89.95 L60.86 89.79 L60.21 92.21 Z" stroke="rgb(0, 0, 0)" stroke-width="0" fill-rule="evenodd" stroke-linejoin="miter" fill="rgb(0, 0, 0)" shape-rendering="geometricPrecision" /><path d="M62.28 86.8 L62.28 86.8 L62.92 84.38 L62.34 84.23 L61.7 86.64 Z" stroke="rgb(0, 0, 0)" stroke-width="0" fill-rule="evenodd" stroke-linejoin="miter" fill="rgb(0, 0, 0)" shape-rendering="geometricPrecision" /><path d="M63.77 81.24 L63.77 81.24 L64.41 78.82 L63.83 78.67 L63.19 81.08 Z" stroke="rgb(0, 0, 0)" stroke-width="0" fill-rule="evenodd" stroke-linejoin="miter" fill="rgb(0, 0, 0)" shape-rendering="geometricPrecision" /><path d="M65.25 75.67 L65.25 75.67 L65.9 73.26 L65.32 73.1 L64.67 75.52 Z" stroke="rgb(0, 0, 0)" stroke-width="0" fill-rule="evenodd" stroke-linejoin="miter" fill="rgb(0, 0, 0)" shape-rendering="geometricPrecision" /></g><g id="Dash"><path d="M80.28 86.91 L80.28 86.91 L79.68 86.92 L79.72 89.7 L80.02 90 L80.31 89.41 Z" stroke="rgb(0, 0, 0)" stroke-width="0" fill-rule="evenodd" stroke-linejoin="miter" fill="rgb(0, 0, 0)" shape-rendering="geometricPrecision" /><path d="M79.94 63.31 L79.94 63.31 L79.34 63.32 L79.31 60.82 L79.6 60.3 L79.9 60.6 Z" stroke="rgb(0, 0, 0)" stroke-width="0" fill-rule="evenodd" stroke-linejoin="miter" fill="rgb(0, 0, 0)" shape-rendering="geometricPrecision" /><path d="M80.24 84.19 L80.24 84.19 L80.2 81.69 L79.6 81.7 L79.64 84.2 Z" stroke="rgb(0, 0, 0)" stroke-width="0" fill-rule="evenodd" stroke-linejoin="miter" fill="rgb(0, 0, 0)" shape-rendering="geometricPrecision" /><path d="M80.16 78.97 L80.16 78.97 L80.13 76.47 L79.53 76.48 L79.56 78.98 Z" stroke="rgb(0, 0, 0)" stroke-width="0" fill-rule="evenodd" stroke-linejoin="miter" fill="rgb(0, 0, 0)" shape-rendering="geometricPrecision" /><path d="M80.09 73.75 L80.09 73.75 L80.05 71.25 L79.45 71.26 L79.49 73.76 Z" stroke="rgb(0, 0, 0)" stroke-width="0" fill-rule="evenodd" stroke-linejoin="miter" fill="rgb(0, 0, 0)" shape-rendering="geometricPrecision" /><path d="M80.02 68.53 L80.02 68.53 L79.98 66.03 L79.38 66.04 L79.42 68.54 Z" stroke="rgb(0, 0, 0)" stroke-width="0" fill-rule="evenodd" stroke-linejoin="miter" fill="rgb(0, 0, 0)" shape-rendering="geometricPrecision" /></g><g id="Solid"><path d="M79.9 60.6 L79.9 60.6 L79.6 60.3 L79.52 60 L94.08 60 L94 60.3 L93.92 60.6 Z" stroke="rgb(0, 0, 0)" stroke-width="0" fill-rule="evenodd" stroke-linejoin="miter" fill="rgb(0, 0, 0)" shape-rendering="geometricPrecision" /></g><g id="Solid"><line x1="93.35" y1="59.18" x2="101.07" y2="54.72" stroke="rgb(0, 0, 0)" stroke-width="0.6" shape-rendering="auto" /><path d="M95.3 60.7 L95.3 60.7 L95.9 61.05 L102.51 57.23 L102.21 56.71 Z" stroke="rgb(0, 0, 0)" stroke-width="0" fill-rule="evenodd" stroke-linejoin="miter" fill="rgb(0, 0, 0)" shape-rendering="geometricPrecision" /><path d="M91.33 60 L91.33 60 L92.53 60 L101.22 54.98 L100.92 54.46 Z" stroke="rgb(0, 0, 0)" stroke-width="0" fill-rule="evenodd" stroke-linejoin="miter" fill="rgb(0, 0, 0)" shape-rendering="geometricPrecision" /></g><g><text xml:space="preserve" text-anchor="start" text-rendering="geometricPrecision"><tspan x="102.57" y="57" font-family="Arial" font-size="10" fill="rgb(0, 0, 0)">O</tspan></text></g><g id="Solid"><path d="M93.92 60.6 L93.92 60.6 L94 60.3 L94.08 60 L100.86 63.92 L100.71 64.18 L100.56 64.44 Z" stroke="rgb(0, 0, 0)" stroke-width="0" fill-rule="evenodd" stroke-linejoin="miter" fill="rgb(0, 0, 0)" shape-rendering="geometricPrecision" /></g><g><text xml:space="preserve" text-anchor="start" text-rendering="geometricPrecision"><tspan x="101.49" y="71.4" font-family="Arial" font-style="italic" dy="-4.07" font-size="7.5" fill="rgb(0, 0, 0)">i</tspan><tspan font-family="Arial" dy="4.07" font-size="10" fill="rgb(0, 0, 0)">Pr</tspan></text></g></g></g></svg>