<?xml version="1.0"?><svg xmlns="http://www.w3.org/2000/svg" xmlns:xlink="http://www.w3.org/1999/xlink" viewBox="40.53 67.14 69.47 66.18" preserveAspectRatio="xMidYMid" width="100%" height="100%"><clipPath id="77"><rect x="0.3" y="0.3" width="522.72" height="769.32" /></clipPath><g id="drawing"><rect x="40.53" y="67.14" width="100%" height="100%" fill="rgb(255, 255, 255)" /><g id="page" clip-path="url(#77)"><g id="Solid"><g id="Bond's parts"><path d="M52.9 93.15 L52.9 93.15 L52.92 93.2 L53.15 93.3 L53.38 93.4 L53.4 93.45 L53.4 107.55 L53.38 107.6 L52.92 107.6 Z" stroke="rgb(0, 0, 0)" stroke-width="0" fill-rule="evenodd" stroke-linejoin="miter" fill="rgb(0, 0, 0)" shape-rendering="geometricPrecision" /><path d="M55.45 94.75 L55.45 94.75 L56.05 94.75 L56 96.35 L55.95 96.4 L55.9 96.45 L55.8 96.65 L55.75 96.7 L55.7 96.75 L55.6 96.95 L55.55 97 Z" stroke="rgb(0, 0, 0)" stroke-width="0" fill-rule="evenodd" stroke-linejoin="miter" fill="rgb(0, 0, 0)" shape-rendering="geometricPrecision" /><path d="M55.97 99 L55.97 99 L56 98.95 L56 99.55 L55.97 99.6 L55.65 99.7 L55.45 99.75 L55.45 99.15 L55.65 99.1 Z" stroke="rgb(0, 0, 0)" stroke-width="0" fill-rule="evenodd" stroke-linejoin="miter" fill="rgb(0, 0, 0)" shape-rendering="geometricPrecision" /><path d="M55.5 100.75 L55.5 100.75 L55.53 100.8 L55.97 100.9 L56 100.95 L56.05 106.15 Z" stroke="rgb(0, 0, 0)" stroke-width="0" fill-rule="evenodd" stroke-linejoin="miter" fill="rgb(0, 0, 0)" shape-rendering="geometricPrecision" /></g></g><g id="Solid"><path d="M53.15 108.05 L53.15 108.05 L53.15 107.7 L53.45 107.53 L65.5 114.48 L65.63 114.9 L65.63 115.25 Z" stroke="rgb(0, 0, 0)" stroke-width="0" fill-rule="evenodd" stroke-linejoin="miter" fill="rgb(0, 0, 0)" shape-rendering="geometricPrecision" /></g><g id="Solid"><path d="M65.63 115.25 L65.63 115.25 L65.63 114.9 L66.64 113.97 L77.8 107.53 L78.1 107.7 L78.4 107.87 Z" stroke="rgb(0, 0, 0)" stroke-width="0" fill-rule="evenodd" stroke-linejoin="miter" fill="rgb(0, 0, 0)" shape-rendering="geometricPrecision" /></g><g id="Solid"><path d="M78.4 107.87 L78.4 107.87 L78.1 107.7 L77.8 107.53 L77.8 93.47 L78.1 93.3 L78.4 93.13 Z" stroke="rgb(0, 0, 0)" stroke-width="0" fill-rule="evenodd" stroke-linejoin="miter" fill="rgb(0, 0, 0)" shape-rendering="geometricPrecision" /></g><g id="Solid"><path d="M78.4 93.13 L78.4 93.13 L78.1 93.3 L77.8 93.47 L65.76 86.52 L65.63 86.1 L65.63 85.75 Z" stroke="rgb(0, 0, 0)" stroke-width="0" fill-rule="evenodd" stroke-linejoin="miter" fill="rgb(0, 0, 0)" shape-rendering="geometricPrecision" /></g><g id="Solid"><path d="M65.63 85.75 L65.63 85.75 L65.63 86.1 L64.62 87.03 L53.45 93.47 L53.15 93.3 L52.85 93.13 Z" stroke="rgb(0, 0, 0)" stroke-width="0" fill-rule="evenodd" stroke-linejoin="miter" fill="rgb(0, 0, 0)" shape-rendering="geometricPrecision" /></g><g id="WedgeBegin"><path d="M64.62 87.03 L64.62 87.03 L65.63 86.1 L65.76 86.52 L60.33 98.04 L58.43 98.57 L56.29 99.03 Z" stroke="rgb(0, 0, 0)" stroke-width="0" fill-rule="evenodd" stroke-linejoin="miter" fill="rgb(0, 0, 0)" shape-rendering="geometricPrecision" /></g><g id="WedgeBegin"><g id="Bond's parts"><path d="M74.9 102 L74.9 102 L74.35 102.1 L74.82 102.1 L74.8 102.15 L74.7 102.35 L74.65 102.4 L74.6 102.45 L74.5 102.65 L74.45 102.7 L74.4 102.75 L74.3 102.95 L74.25 103 L74.2 103.05 L74.1 103.25 L74.05 103.3 L73.95 103.4 L73.9 103.45 L73.8 103.65 L73.75 103.7 L73.7 103.75 L73.6 103.95 L73.55 104 L73.5 104.05 L73.4 104.25 L73.35 104.3 L73.3 104.35 L73.2 104.55 L73.15 104.6 L73.05 104.7 L73 104.75 L72.9 104.95 L72.85 105 L72.8 105.05 L72.7 105.25 L72.65 105.3 L72.6 105.35 L72.5 105.55 L72.45 105.6 L72.4 105.65 L72.3 105.85 L72.25 105.9 L72.15 106 L72.1 106.05 L72 106.25 L71.95 106.3 L71.9 106.35 L71.8 106.55 L71.75 106.6 L71.7 106.65 L71.6 106.85 L71.55 106.9 L71.5 106.95 L71.4 107.15 L71.35 107.2 L71.25 107.3 L71.2 107.35 L71.1 107.55 L71.05 107.6 L71 107.65 L70.9 107.85 L70.85 107.9 L70.8 107.95 L70.7 108.15 L70.65 108.2 L70.6 108.25 L70.5 108.45 L70.45 108.5 L70.35 108.6 L70.3 108.65 L70.2 108.85 L70.15 108.9 L70.1 108.95 L70 109.15 L69.95 109.2 L69.9 109.25 L69.8 109.45 L69.75 109.5 L69.65 109.6 L69.6 109.65 L69.5 109.85 L69.45 109.9 L69.4 109.95 L69.3 110.15 L69.25 110.2 L69.2 110.25 L69.1 110.45 L69.05 110.5 L69 110.55 L68.9 110.75 L68.85 110.8 L68.75 110.9 L68.7 110.95 L68.6 111.15 L68.55 111.2 L68.5 111.25 L68.4 111.45 L68.35 111.5 L68.3 111.55 L68.2 111.75 L68.15 111.8 L68.1 111.85 L68 112.05 L67.95 112.1 L67.85 112.2 L67.8 112.25 L67.7 112.45 L67.65 112.5 L67.6 112.55 L67.5 112.75 L67.45 112.8 L67.4 112.85 L67.3 113.05 L67.25 113.1 L67.2 113.15 L67.1 113.35 L67.05 113.4 L66.95 113.5 L66.9 113.55 L66.8 113.75 L66.75 113.8 L66.7 113.85 L66.6 114.05 L66.57 114.1 L66.32 114.2 L66.25 114.3 L66.15 114.4 L66.05 114.5 L65.95 114.6 L65.85 114.7 L65.75 114.8 L65.65 114.8 L65.6 114.75 L65.6 114.25 L65.7 114.05 L65.8 113.85 L65.9 113.65 L66 113.45 L66.1 113.15 L66.2 112.95 L66.3 112.75 L66.4 112.55 L66.5 112.35 L66.6 112.15 L66.7 111.95 L66.8 111.75 L66.9 111.45 L67 111.25 L67.1 111.05 L67.2 110.85 L67.3 110.65 L67.4 110.45 L67.5 110.25 L67.6 110.05 L67.7 109.75 L67.8 109.55 L67.9 109.35 L68 109.15 L68.1 108.95 L68.2 108.75 L68.3 108.55 L68.4 108.35 L68.5 108.05 L68.6 107.85 L68.7 107.65 L68.8 107.45 L68.9 107.25 L69 107.05 L69.1 106.85 L69.2 106.65 L69.3 106.35 L69.4 106.15 L69.5 105.95 L69.6 105.75 L69.7 105.55 L69.8 105.35 L69.9 105.15 L70 104.95 L70.1 104.65 L70.2 104.45 L70.3 104.25 L70.4 104.05 L70.5 103.85 L70.6 103.65 L70.7 103.45 L70.8 103.25 L70.85 102.95 L71.15 102.9 L71.45 102.8 L71.85 102.7 L72.25 102.6 L72.55 102.5 L72.95 102.4 L73.45 102.3 L73.85 102.2 Z" stroke="rgb(0, 0, 0)" stroke-width="0" fill-rule="evenodd" stroke-linejoin="miter" fill="rgb(0, 0, 0)" shape-rendering="geometricPrecision" /></g></g><g id="Bold"><path d="M74.96 101.97 L74.96 101.97 L72.82 102.43 L70.92 102.96 L56.29 99.03 L58.43 98.57 L60.33 98.04 Z" stroke="rgb(0, 0, 0)" stroke-width="0" fill-rule="evenodd" stroke-linejoin="miter" fill="rgb(0, 0, 0)" shape-rendering="geometricPrecision" /></g><g id="Solid"><path d="M52.85 107.53 L52.85 107.53 L53.15 107.7 L53.15 108.05 L40.83 115.16 L40.68 114.9 L40.53 114.64 Z" stroke="rgb(0, 0, 0)" stroke-width="0" fill-rule="evenodd" stroke-linejoin="miter" fill="rgb(0, 0, 0)" shape-rendering="geometricPrecision" /></g><g><text xml:space="preserve" text-anchor="start" text-rendering="geometricPrecision"><tspan x="61.72" y="75.6" font-family="Arial" font-size="10" fill="rgb(0, 0, 0)">OMe</tspan></text></g><g id="Wedged Hash Begin Bond"><path d="M65.93 86.1 L65.93 86.1 L65.33 86.1 L65.25 85.5 L66.01 85.5 Z" stroke="rgb(0, 0, 0)" stroke-width="0" fill-rule="evenodd" stroke-linejoin="miter" fill="rgb(0, 0, 0)" shape-rendering="geometricPrecision" /><path d="M66.3 83.4 L66.3 83.4 L64.96 83.4 L64.87 82.8 L66.39 82.8 Z" stroke="rgb(0, 0, 0)" stroke-width="0" fill-rule="evenodd" stroke-linejoin="miter" fill="rgb(0, 0, 0)" shape-rendering="geometricPrecision" /><path d="M66.67 80.7 L66.67 80.7 L64.59 80.7 L64.5 80.1 L66.76 80.1 Z" stroke="rgb(0, 0, 0)" stroke-width="0" fill-rule="evenodd" stroke-linejoin="miter" fill="rgb(0, 0, 0)" shape-rendering="geometricPrecision" /><path d="M67.05 78 L67.05 78 L64.21 78 L64.13 77.4 L67.13 77.4 Z" stroke="rgb(0, 0, 0)" stroke-width="0" fill-rule="evenodd" stroke-linejoin="miter" fill="rgb(0, 0, 0)" shape-rendering="geometricPrecision" /></g><g id="Wedged Hash Begin Bond"><path d="M65.33 114.9 L65.33 114.9 L65.93 114.9 L65.98 115.5 L65.28 115.5 Z" stroke="rgb(0, 0, 0)" stroke-width="0" fill-rule="evenodd" stroke-linejoin="miter" fill="rgb(0, 0, 0)" shape-rendering="geometricPrecision" /><path d="M65.1 117.66 L65.1 117.66 L66.16 117.66 L66.21 118.26 L65.05 118.26 Z" stroke="rgb(0, 0, 0)" stroke-width="0" fill-rule="evenodd" stroke-linejoin="miter" fill="rgb(0, 0, 0)" shape-rendering="geometricPrecision" /><path d="M64.87 120.42 L64.87 120.42 L66.39 120.42 L66.44 121.02 L64.82 121.02 Z" stroke="rgb(0, 0, 0)" stroke-width="0" fill-rule="evenodd" stroke-linejoin="miter" fill="rgb(0, 0, 0)" shape-rendering="geometricPrecision" /><path d="M64.64 123.18 L64.64 123.18 L66.62 123.18 L66.67 123.78 L64.59 123.78 Z" stroke="rgb(0, 0, 0)" stroke-width="0" fill-rule="evenodd" stroke-linejoin="miter" fill="rgb(0, 0, 0)" shape-rendering="geometricPrecision" /><path d="M64.41 125.94 L64.41 125.94 L66.85 125.94 L66.9 126.54 L64.36 126.54 Z" stroke="rgb(0, 0, 0)" stroke-width="0" fill-rule="evenodd" stroke-linejoin="miter" fill="rgb(0, 0, 0)" shape-rendering="geometricPrecision" /><path d="M64.18 128.7 L64.18 128.7 L67.08 128.7 L67.13 129.3 L64.13 129.3 Z" stroke="rgb(0, 0, 0)" stroke-width="0" fill-rule="evenodd" stroke-linejoin="miter" fill="rgb(0, 0, 0)" shape-rendering="geometricPrecision" /></g><g id="Wedged Hash Begin Bond"><path d="M77.95 107.96 L77.95 107.96 L78.25 107.44 L78.79 107.7 L78.44 108.3 Z" stroke="rgb(0, 0, 0)" stroke-width="0" fill-rule="evenodd" stroke-linejoin="miter" fill="rgb(0, 0, 0)" shape-rendering="geometricPrecision" /><path d="M80.23 109.54 L80.23 109.54 L80.76 108.62 L81.3 108.88 L80.72 109.88 Z" stroke="rgb(0, 0, 0)" stroke-width="0" fill-rule="evenodd" stroke-linejoin="miter" fill="rgb(0, 0, 0)" shape-rendering="geometricPrecision" /><path d="M82.5 111.12 L82.5 111.12 L83.26 109.8 L83.8 110.06 L82.99 111.46 Z" stroke="rgb(0, 0, 0)" stroke-width="0" fill-rule="evenodd" stroke-linejoin="miter" fill="rgb(0, 0, 0)" shape-rendering="geometricPrecision" /><path d="M84.78 112.7 L84.78 112.7 L85.77 110.98 L86.31 111.24 L85.27 113.04 Z" stroke="rgb(0, 0, 0)" stroke-width="0" fill-rule="evenodd" stroke-linejoin="miter" fill="rgb(0, 0, 0)" shape-rendering="geometricPrecision" /><path d="M87.05 114.28 L87.05 114.28 L88.27 112.16 L88.81 112.42 L87.54 114.62 Z" stroke="rgb(0, 0, 0)" stroke-width="0" fill-rule="evenodd" stroke-linejoin="miter" fill="rgb(0, 0, 0)" shape-rendering="geometricPrecision" /><path d="M89.33 115.86 L89.33 115.86 L90.78 113.34 L91.32 113.6 L89.82 116.2 Z" stroke="rgb(0, 0, 0)" stroke-width="0" fill-rule="evenodd" stroke-linejoin="miter" fill="rgb(0, 0, 0)" shape-rendering="geometricPrecision" /></g><g><text xml:space="preserve" text-anchor="start" text-rendering="geometricPrecision"><tspan x="98.06" y="111.6" font-family="Arial" font-style="italic" dy="-4.07" font-size="7.5" fill="rgb(0, 0, 0)">i</tspan><tspan font-family="Arial" dy="4.07" font-size="10" fill="rgb(0, 0, 0)">Pr</tspan></text></g><g id="Solid"><path d="M90.72 115.16 L90.72 115.16 L90.57 114.9 L90.42 114.64 L98.96 109.71 L99.11 109.97 L99.26 110.23 Z" stroke="rgb(0, 0, 0)" stroke-width="0" fill-rule="evenodd" stroke-linejoin="miter" fill="rgb(0, 0, 0)" shape-rendering="geometricPrecision" /></g><g><text xml:space="preserve" text-anchor="start" text-rendering="geometricPrecision"><tspan x="86.67" y="133.2" font-family="Arial" font-size="10" fill="rgb(0, 0, 0)">O</tspan></text></g><g id="Solid"><line x1="91.87" y1="114.9" x2="91.87" y2="124.4" stroke="rgb(0, 0, 0)" stroke-width="0.6" shape-rendering="auto" /><path d="M89.57 114.76 L89.57 114.76 L88.97 114.48 L88.97 124.4 L89.57 124.4 Z" stroke="rgb(0, 0, 0)" stroke-width="0" fill-rule="evenodd" stroke-linejoin="miter" fill="rgb(0, 0, 0)" shape-rendering="geometricPrecision" /><path d="M92.17 114.32 L92.17 114.32 L91.57 114.67 L91.57 124.4 L92.17 124.4 Z" stroke="rgb(0, 0, 0)" stroke-width="0" fill-rule="evenodd" stroke-linejoin="miter" fill="rgb(0, 0, 0)" shape-rendering="geometricPrecision" /></g></g></g></svg>