<?xml version="1.0"?><svg xmlns="http://www.w3.org/2000/svg" xmlns:xlink="http://www.w3.org/1999/xlink" viewBox="58.85 64.51 182.47 33.69" preserveAspectRatio="xMidYMid" width="100%" height="100%"><clipPath id="1503"><rect x="0.3" y="0.3" width="522.72" height="769.32" /></clipPath><g id="drawing"><rect x="58.85" y="64.51" width="100%" height="100%" fill="rgb(255, 255, 255)" /><g id="page" clip-path="url(#1503)"><g id="Solid"><path d="M58.85 74.38 L58.85 74.38 L59.15 74.55 L59.45 74.72 L59.45 88.78 L59.15 88.95 L58.85 89.12 Z" stroke="rgb(0, 0, 0)" stroke-width="0" fill-rule="evenodd" stroke-linejoin="miter" fill="rgb(0, 0, 0)" shape-rendering="geometricPrecision" /><line x1="61.74" y1="76.05" x2="61.74" y2="87.45" stroke="rgb(0, 0, 0)" stroke-width="0.6" shape-rendering="auto" /></g><g id="Solid"><path d="M58.85 89.12 L58.85 89.12 L59.15 88.95 L59.45 88.78 L71.63 95.8 L71.63 96.15 L71.63 96.5 Z" stroke="rgb(0, 0, 0)" stroke-width="0" fill-rule="evenodd" stroke-linejoin="miter" fill="rgb(0, 0, 0)" shape-rendering="geometricPrecision" /></g><g id="Solid"><path d="M71.63 96.5 L71.63 96.5 L71.63 96.15 L71.63 95.8 L84.1 88.6 L84.1 88.95 L84.1 89.3 Z" stroke="rgb(0, 0, 0)" stroke-width="0" fill-rule="evenodd" stroke-linejoin="miter" fill="rgb(0, 0, 0)" shape-rendering="geometricPrecision" /><line x1="71.63" y1="93.16" x2="82.8" y2="86.71" stroke="rgb(0, 0, 0)" stroke-width="0.6" shape-rendering="auto" /></g><g id="Solid"><path d="M84.1 74.2 L84.1 74.2 L84.1 74.55 L84.1 74.9 L71.63 67.7 L71.63 67.35 L71.63 67 Z" stroke="rgb(0, 0, 0)" stroke-width="0" fill-rule="evenodd" stroke-linejoin="miter" fill="rgb(0, 0, 0)" shape-rendering="geometricPrecision" /><line x1="84.1" y1="71.56" x2="72.93" y2="65.11" stroke="rgb(0, 0, 0)" stroke-width="0.6" shape-rendering="auto" /></g><g id="Solid"><path d="M71.63 67 L71.63 67 L71.63 67.35 L71.63 67.7 L59.45 74.72 L59.15 74.55 L58.85 74.38 Z" stroke="rgb(0, 0, 0)" stroke-width="0" fill-rule="evenodd" stroke-linejoin="miter" fill="rgb(0, 0, 0)" shape-rendering="geometricPrecision" /></g><g id="Solid"><path d="M84.1 74.9 L84.1 74.9 L84.1 74.55 L84.1 74.2 L96.42 67.09 L96.57 67.35 L96.72 67.61 Z" stroke="rgb(0, 0, 0)" stroke-width="0" fill-rule="evenodd" stroke-linejoin="miter" fill="rgb(0, 0, 0)" shape-rendering="geometricPrecision" /></g><g id="Solid"><path d="M84.1 89.3 L84.1 89.3 L84.1 88.95 L84.1 88.6 L96.72 95.89 L96.57 96.15 L96.42 96.41 Z" stroke="rgb(0, 0, 0)" stroke-width="0" fill-rule="evenodd" stroke-linejoin="miter" fill="rgb(0, 0, 0)" shape-rendering="geometricPrecision" /></g><g id="Arrow"><line x1="171.63" y1="81.75" x2="124.88" y2="81.75" stroke="rgb(0, 0, 0)" stroke-width="0.6" shape-rendering="auto" /><path d="M175.88 81.75 L169.88 80.25 C171.07 81.09 171.07 82.41 169.88 83.25 Z" stroke="rgb(0, 0, 0)" stroke-width="0" fill-rule="evenodd" stroke-linejoin="miter" stroke-miterlimit="6.93525005514877" fill="rgb(0, 0, 0)" shape-rendering="geometricPrecision" /></g><g><text xml:space="preserve" text-anchor="start" text-rendering="geometricPrecision"><tspan x="143.63" y="78" font-family="Arial" font-style="italic" font-size="10" fill="rgb(0, 0, 0)">hv</tspan></text></g><g id="Solid"><path d="M202.85 75.13 L202.85 75.13 L203.15 75.3 L203.45 75.47 L203.45 89.53 L203.15 89.7 L202.85 89.87 Z" stroke="rgb(0, 0, 0)" stroke-width="0" fill-rule="evenodd" stroke-linejoin="miter" fill="rgb(0, 0, 0)" shape-rendering="geometricPrecision" /></g><g id="Solid"><path d="M202.85 89.87 L202.85 89.87 L203.15 89.7 L203.45 89.53 L215.63 96.55 L215.63 96.9 L215.63 97.25 Z" stroke="rgb(0, 0, 0)" stroke-width="0" fill-rule="evenodd" stroke-linejoin="miter" fill="rgb(0, 0, 0)" shape-rendering="geometricPrecision" /><line x1="205.74" y1="88.2" x2="215.63" y2="93.91" stroke="rgb(0, 0, 0)" stroke-width="0.6" shape-rendering="auto" /></g><g id="Solid"><path d="M215.63 97.25 L215.63 97.25 L215.63 96.9 L215.63 96.55 L227.8 89.53 L228.1 89.7 L228.4 89.87 Z" stroke="rgb(0, 0, 0)" stroke-width="0" fill-rule="evenodd" stroke-linejoin="miter" fill="rgb(0, 0, 0)" shape-rendering="geometricPrecision" /></g><g id="Solid"><path d="M228.4 89.87 L228.4 89.87 L228.1 89.7 L227.8 89.53 L227.8 75.47 L228.1 75.3 L228.4 75.49 Z" stroke="rgb(0, 0, 0)" stroke-width="0" fill-rule="evenodd" stroke-linejoin="miter" fill="rgb(0, 0, 0)" shape-rendering="geometricPrecision" /></g><g id="Solid"><path d="M228.09 74.95 L228.09 74.95 L228.1 75.3 L227.8 75.47 L215.63 68.45 L215.63 68.1 L215.63 67.75 Z" stroke="rgb(0, 0, 0)" stroke-width="0" fill-rule="evenodd" stroke-linejoin="miter" fill="rgb(0, 0, 0)" shape-rendering="geometricPrecision" /></g><g id="Solid"><path d="M215.63 67.75 L215.63 67.75 L215.63 68.1 L215.63 68.45 L203.45 75.47 L203.15 75.3 L202.85 75.13 Z" stroke="rgb(0, 0, 0)" stroke-width="0" fill-rule="evenodd" stroke-linejoin="miter" fill="rgb(0, 0, 0)" shape-rendering="geometricPrecision" /><line x1="215.63" y1="71.09" x2="205.74" y2="76.8" stroke="rgb(0, 0, 0)" stroke-width="0.6" shape-rendering="auto" /></g><g id="WedgeBegin"><path d="M228.4 75.49 L228.4 75.49 L228.1 75.3 L228.09 74.95 L239.82 66.8 L240.57 68.1 L241.32 69.4 Z" stroke="rgb(0, 0, 0)" stroke-width="0" fill-rule="evenodd" stroke-linejoin="miter" fill="rgb(0, 0, 0)" shape-rendering="geometricPrecision" /></g><g id="Wedged Hash Begin Bond"><path d="M227.95 89.96 L227.95 89.96 L228.25 89.44 L228.79 89.7 L228.44 90.3 Z" stroke="rgb(0, 0, 0)" stroke-width="0" fill-rule="evenodd" stroke-linejoin="miter" fill="rgb(0, 0, 0)" shape-rendering="geometricPrecision" /><path d="M230.23 91.54 L230.23 91.54 L230.76 90.62 L231.3 90.88 L230.72 91.88 Z" stroke="rgb(0, 0, 0)" stroke-width="0" fill-rule="evenodd" stroke-linejoin="miter" fill="rgb(0, 0, 0)" shape-rendering="geometricPrecision" /><path d="M232.5 93.12 L232.5 93.12 L233.26 91.8 L233.8 92.06 L232.99 93.46 Z" stroke="rgb(0, 0, 0)" stroke-width="0" fill-rule="evenodd" stroke-linejoin="miter" fill="rgb(0, 0, 0)" shape-rendering="geometricPrecision" /><path d="M234.78 94.7 L234.78 94.7 L235.77 92.98 L236.31 93.24 L235.27 95.04 Z" stroke="rgb(0, 0, 0)" stroke-width="0" fill-rule="evenodd" stroke-linejoin="miter" fill="rgb(0, 0, 0)" shape-rendering="geometricPrecision" /><path d="M237.05 96.28 L237.05 96.28 L238.27 94.16 L238.81 94.42 L237.54 96.62 Z" stroke="rgb(0, 0, 0)" stroke-width="0" fill-rule="evenodd" stroke-linejoin="miter" fill="rgb(0, 0, 0)" shape-rendering="geometricPrecision" /><path d="M239.33 97.86 L239.33 97.86 L240.78 95.34 L241.32 95.6 L239.82 98.2 Z" stroke="rgb(0, 0, 0)" stroke-width="0" fill-rule="evenodd" stroke-linejoin="miter" fill="rgb(0, 0, 0)" shape-rendering="geometricPrecision" /></g><g id="Arrow"><path d="M67.08 87.81 C67.12 85.27 65.7 82.77 63.5 81.5 " stroke="rgb(255, 0, 0)" stroke-width="0.6" fill-rule="evenodd" stroke-linejoin="bevel" fill="none" shape-rendering="geometricPrecision" /><path d="M66.12 91.28 L68.24 87.46 C67.37 88.18 66.58 87.97 66.19 86.91 Z" stroke="rgb(255, 0, 0)" stroke-width="0" fill-rule="evenodd" stroke-linejoin="miter" stroke-miterlimit="5.72499737711337" fill="rgb(255, 0, 0)" shape-rendering="geometricPrecision" /></g><g id="Arrow"><path d="M79.87 81.63 C78.1 83.37 77.35 86.09 78 88.5 " stroke="rgb(255, 0, 0)" stroke-width="0.6" fill-rule="evenodd" stroke-linejoin="bevel" fill="none" shape-rendering="geometricPrecision" /><path d="M83 79.84 L78.85 81.03 C79.96 81.13 80.36 81.82 79.9 82.84 Z" stroke="rgb(255, 0, 0)" stroke-width="0" fill-rule="evenodd" stroke-linejoin="miter" stroke-miterlimit="5.62593463411605" fill="rgb(255, 0, 0)" shape-rendering="geometricPrecision" /></g><g id="Arrow"><path d="M68.57 77.89 C71.29 78.79 74.47 78.03 76.5 76 " stroke="rgb(255, 0, 0)" stroke-width="0.6" fill-rule="evenodd" stroke-linejoin="bevel" fill="none" shape-rendering="geometricPrecision" /><path d="M65.5 76 L68.91 79.3 C68.38 78.22 68.86 77.39 70.06 77.3 Z" stroke="rgb(255, 0, 0)" stroke-width="0" fill-rule="evenodd" stroke-linejoin="miter" stroke-miterlimit="6.47779232447442" fill="rgb(255, 0, 0)" shape-rendering="geometricPrecision" /></g></g></g></svg>