<?xml version="1.0"?><svg xmlns="http://www.w3.org/2000/svg" xmlns:xlink="http://www.w3.org/1999/xlink" viewBox="98.78 282.9 99.25 43.2" preserveAspectRatio="xMidYMid" width="100%" height="100%"><clipPath id="2391"><rect x="0.3" y="0.3" width="522.72" height="769.32" /></clipPath><g id="drawing"><rect x="98.78" y="282.9" width="100%" height="100%" fill="rgb(255, 255, 255)" /><g id="page" clip-path="url(#2391)"><g id="Solid"><path d="M133.21 292.8 L133.21 292.8 L133.13 292.5 L133.05 292.2 L147.6 292.2 L147.52 292.5 L147.44 292.8 Z" stroke="rgb(0, 0, 0)" stroke-width="0" fill-rule="evenodd" stroke-linejoin="miter" fill="rgb(0, 0, 0)" shape-rendering="geometricPrecision" /><line x1="133.82" y1="295.09" x2="146.83" y2="295.09" stroke="rgb(0, 0, 0)" stroke-width="0.6" shape-rendering="auto" /></g><g id="Solid"><path d="M133.05 292.2 L133.05 292.2 L133.13 292.5 L133.21 292.8 L121.06 299.81 L120.65 299.7 L120.24 299.59 Z" stroke="rgb(0, 0, 0)" stroke-width="0" fill-rule="evenodd" stroke-linejoin="miter" fill="rgb(0, 0, 0)" shape-rendering="geometricPrecision" /></g><g id="Solid"><path d="M147.44 292.8 L147.44 292.8 L147.52 292.5 L147.6 292.2 L160.41 299.59 L160 299.7 L159.59 299.81 Z" stroke="rgb(0, 0, 0)" stroke-width="0" fill-rule="evenodd" stroke-linejoin="miter" fill="rgb(0, 0, 0)" shape-rendering="geometricPrecision" /></g><g id="Solid"><path d="M120.24 299.59 L120.24 299.59 L120.65 299.7 L121.06 299.81 L128.02 311.87 L127.85 312.17 L127.44 312.06 Z" stroke="rgb(0, 0, 0)" stroke-width="0" fill-rule="evenodd" stroke-linejoin="miter" fill="rgb(0, 0, 0)" shape-rendering="geometricPrecision" /><line x1="124.19" y1="300.65" x2="129.35" y2="309.58" stroke="rgb(0, 0, 0)" stroke-width="0.6" shape-rendering="auto" /></g><g id="Solid"><path d="M159.59 299.81 L159.59 299.81 L160 299.7 L160.41 299.59 L153.21 312.06 L152.8 312.17 L152.63 311.87 Z" stroke="rgb(0, 0, 0)" stroke-width="0" fill-rule="evenodd" stroke-linejoin="miter" fill="rgb(0, 0, 0)" shape-rendering="geometricPrecision" /><line x1="156.46" y1="300.65" x2="151.3" y2="309.58" stroke="rgb(0, 0, 0)" stroke-width="0.6" shape-rendering="auto" /></g><g id="Solid"><path d="M127.44 312.06 L127.44 312.06 L127.85 312.17 L127.93 312.47 L115.53 319.63 L115.38 319.37 L115.23 319.11 Z" stroke="rgb(0, 0, 0)" stroke-width="0" fill-rule="evenodd" stroke-linejoin="miter" fill="rgb(0, 0, 0)" shape-rendering="geometricPrecision" /></g><g id="Solid"><path d="M152.72 312.47 L152.72 312.47 L152.8 312.17 L153.21 312.06 L165.42 319.11 L165.27 319.37 L165.12 319.63 Z" stroke="rgb(0, 0, 0)" stroke-width="0" fill-rule="evenodd" stroke-linejoin="miter" fill="rgb(0, 0, 0)" shape-rendering="geometricPrecision" /></g><g id="Dash"><path d="M130.52 312.47 L130.52 312.47 L130.52 311.87 L128.02 311.87 L127.85 312.17 L127.93 312.47 Z" stroke="rgb(0, 0, 0)" stroke-width="0" fill-rule="evenodd" stroke-linejoin="miter" fill="rgb(0, 0, 0)" shape-rendering="geometricPrecision" /><path d="M150.13 312.47 L150.13 312.47 L150.13 311.87 L152.63 311.87 L152.8 312.17 L152.72 312.47 Z" stroke="rgb(0, 0, 0)" stroke-width="0" fill-rule="evenodd" stroke-linejoin="miter" fill="rgb(0, 0, 0)" shape-rendering="geometricPrecision" /><path d="M133.55 312.47 L133.55 312.47 L136.05 312.47 L136.05 311.87 L133.55 311.87 Z" stroke="rgb(0, 0, 0)" stroke-width="0" fill-rule="evenodd" stroke-linejoin="miter" fill="rgb(0, 0, 0)" shape-rendering="geometricPrecision" /><path d="M139.08 312.47 L139.08 312.47 L141.58 312.47 L141.58 311.87 L139.08 311.87 Z" stroke="rgb(0, 0, 0)" stroke-width="0" fill-rule="evenodd" stroke-linejoin="miter" fill="rgb(0, 0, 0)" shape-rendering="geometricPrecision" /><path d="M144.6 312.47 L144.6 312.47 L147.1 312.47 L147.1 311.87 L144.6 311.87 Z" stroke="rgb(0, 0, 0)" stroke-width="0" fill-rule="evenodd" stroke-linejoin="miter" fill="rgb(0, 0, 0)" shape-rendering="geometricPrecision" /></g><g id="Arrow"><path d="M133.8 312.86 C134.41 309.58 132.23 306.42 128.94 305.82 C127.02 305.46 124.95 306.11 123.57 307.49 " stroke="rgb(0, 0, 255)" stroke-width="0.6" fill-rule="evenodd" stroke-linejoin="bevel" fill="none" shape-rendering="geometricPrecision" /><path d="M132.13 316.05 L135.23 312.19 C134.18 312.85 133.23 312.41 133.05 311.19 Z" stroke="rgb(0, 0, 255)" stroke-width="0" fill-rule="evenodd" stroke-linejoin="miter" stroke-miterlimit="6.93525005514859" fill="rgb(0, 0, 255)" shape-rendering="geometricPrecision" /></g><g id="Arrow"><path d="M158.55 313.61 C159.16 310.33 156.98 307.17 153.69 306.57 C151.77 306.21 149.7 306.86 148.32 308.24 " stroke="rgb(0, 0, 255)" stroke-width="0.6" fill-rule="evenodd" stroke-linejoin="bevel" fill="none" shape-rendering="geometricPrecision" /><path d="M156.88 316.8 L159.98 312.94 C158.93 313.6 157.98 313.16 157.8 311.94 Z" stroke="rgb(0, 0, 255)" stroke-width="0" fill-rule="evenodd" stroke-linejoin="miter" stroke-miterlimit="6.93525005514859" fill="rgb(0, 0, 255)" shape-rendering="geometricPrecision" /></g><g id="Bracket"><path d="M183.7 283.5 L187.13 283.5 L187.13 325.5 L183.7 325.5 " stroke="rgb(0, 0, 0)" stroke-width="0.6" fill-rule="evenodd" stroke-linejoin="miter" fill="none" shape-rendering="geometricPrecision" /></g><g id="Bracket"><path d="M102.8 325.5 L99.38 325.5 L99.38 283.5 L102.8 283.5 " stroke="rgb(0, 0, 0)" stroke-width="0.6" fill-rule="evenodd" stroke-linejoin="miter" fill="none" shape-rendering="geometricPrecision" /></g><g id="Charge2373"><line x1="194.25" y1="284.47" x2="194.25" y2="297.07" stroke="rgb(0, 0, 0)" stroke-width="0.48" shape-rendering="auto" /><line x1="190.95" y1="287.77" x2="197.55" y2="287.77" stroke="rgb(0, 0, 0)" stroke-width="0.48" shape-rendering="auto" /><line x1="190.95" y1="293.77" x2="197.55" y2="293.77" stroke="rgb(0, 0, 0)" stroke-width="0.48" shape-rendering="auto" /></g></g></g></svg>