<?xml version="1.0"?><svg xmlns="http://www.w3.org/2000/svg" xmlns:xlink="http://www.w3.org/1999/xlink" viewBox="42.18 147.87 38.46 31.4" preserveAspectRatio="xMidYMid" width="100%" height="100%"><clipPath id="4897"><rect x="0.3" y="0.3" width="522.72" height="769.32" /></clipPath><g id="drawing"><rect x="42.18" y="147.87" width="100%" height="100%" fill="rgb(255, 255, 255)" /><g id="page" clip-path="url(#4897)"><g id="Solid"><path d="M42.18 156.2 L42.18 156.2 L42.48 156.37 L42.78 156.54 L42.78 170.6 L42.48 170.77 L42.18 170.94 Z" stroke="rgb(0, 0, 0)" stroke-width="0" fill-rule="evenodd" stroke-linejoin="miter" fill="rgb(0, 0, 0)" shape-rendering="geometricPrecision" /></g><g id="Solid"><path d="M42.18 170.94 L42.18 170.94 L42.48 170.77 L42.78 170.6 L54.95 177.62 L54.95 177.97 L54.95 178.32 Z" stroke="rgb(0, 0, 0)" stroke-width="0" fill-rule="evenodd" stroke-linejoin="miter" fill="rgb(0, 0, 0)" shape-rendering="geometricPrecision" /><line x1="45.07" y1="169.27" x2="54.95" y2="174.98" stroke="rgb(0, 0, 0)" stroke-width="0.6" shape-rendering="auto" /></g><g id="Solid"><path d="M54.95 178.32 L54.95 178.32 L54.95 177.97 L54.95 177.62 L67.12 170.6 L67.42 170.77 L67.41 171.12 Z" stroke="rgb(0, 0, 0)" stroke-width="0" fill-rule="evenodd" stroke-linejoin="miter" fill="rgb(0, 0, 0)" shape-rendering="geometricPrecision" /></g><g id="Solid"><path d="M67.72 170.58 L67.72 170.58 L67.42 170.77 L67.12 170.6 L67.12 156.54 L67.42 156.37 L67.72 156.2 Z" stroke="rgb(0, 0, 0)" stroke-width="0" fill-rule="evenodd" stroke-linejoin="miter" fill="rgb(0, 0, 0)" shape-rendering="geometricPrecision" /></g><g id="Solid"><path d="M67.72 156.2 L67.72 156.2 L67.42 156.37 L67.12 156.54 L54.95 149.52 L54.95 149.17 L54.95 148.82 Z" stroke="rgb(0, 0, 0)" stroke-width="0" fill-rule="evenodd" stroke-linejoin="miter" fill="rgb(0, 0, 0)" shape-rendering="geometricPrecision" /></g><g id="Solid"><path d="M54.95 148.82 L54.95 148.82 L54.95 149.17 L54.95 149.52 L42.78 156.54 L42.48 156.37 L42.18 156.2 Z" stroke="rgb(0, 0, 0)" stroke-width="0" fill-rule="evenodd" stroke-linejoin="miter" fill="rgb(0, 0, 0)" shape-rendering="geometricPrecision" /><line x1="54.95" y1="152.16" x2="45.07" y2="157.87" stroke="rgb(0, 0, 0)" stroke-width="0.6" shape-rendering="auto" /></g><g id="Wedged Hash Begin Bond"><path d="M67.57 156.63 L67.57 156.63 L67.27 156.11 L67.76 155.77 L68.11 156.37 Z" stroke="rgb(0, 0, 0)" stroke-width="0" fill-rule="evenodd" stroke-linejoin="miter" fill="rgb(0, 0, 0)" shape-rendering="geometricPrecision" /><path d="M70.08 155.45 L70.08 155.45 L69.55 154.53 L70.04 154.19 L70.62 155.19 Z" stroke="rgb(0, 0, 0)" stroke-width="0" fill-rule="evenodd" stroke-linejoin="miter" fill="rgb(0, 0, 0)" shape-rendering="geometricPrecision" /><path d="M72.58 154.27 L72.58 154.27 L71.82 152.95 L72.31 152.61 L73.12 154.01 Z" stroke="rgb(0, 0, 0)" stroke-width="0" fill-rule="evenodd" stroke-linejoin="miter" fill="rgb(0, 0, 0)" shape-rendering="geometricPrecision" /><path d="M75.09 153.09 L75.09 153.09 L74.1 151.37 L74.59 151.03 L75.63 152.83 Z" stroke="rgb(0, 0, 0)" stroke-width="0" fill-rule="evenodd" stroke-linejoin="miter" fill="rgb(0, 0, 0)" shape-rendering="geometricPrecision" /><path d="M77.59 151.91 L77.59 151.91 L76.37 149.79 L76.86 149.45 L78.13 151.65 Z" stroke="rgb(0, 0, 0)" stroke-width="0" fill-rule="evenodd" stroke-linejoin="miter" fill="rgb(0, 0, 0)" shape-rendering="geometricPrecision" /><path d="M80.1 150.73 L80.1 150.73 L78.65 148.21 L79.14 147.87 L80.64 150.47 Z" stroke="rgb(0, 0, 0)" stroke-width="0" fill-rule="evenodd" stroke-linejoin="miter" fill="rgb(0, 0, 0)" shape-rendering="geometricPrecision" /></g><g id="WedgeBegin"><path d="M67.41 171.12 L67.41 171.12 L67.42 170.77 L67.72 170.58 L80.64 176.67 L79.89 177.97 L79.14 179.27 Z" stroke="rgb(0, 0, 0)" stroke-width="0" fill-rule="evenodd" stroke-linejoin="miter" fill="rgb(0, 0, 0)" shape-rendering="geometricPrecision" /></g></g></g></svg>