<?xml version="1.0"?><svg xmlns="http://www.w3.org/2000/svg" xmlns:xlink="http://www.w3.org/1999/xlink" viewBox="36.65 57.83 243.99 50.94" preserveAspectRatio="xMidYMid" width="100%" height="100%"><clipPath id="136"><rect x="0.365" y="0.365" width="522.47" height="768.95" /></clipPath><g id="drawing"><rect x="36.65" y="57.83" width="100%" height="100%" fill="rgb(255, 255, 255)" /><g id="page" clip-path="url(#136)"><g id="Solid"><path d="M36.65 73.39 L36.65 73.39 L37.07 73.39 L37.49 73.39 L46.02 88.27 L45.81 88.63 L45.6 88.99 Z" stroke="rgb(0, 0, 0)" stroke-width="0" fill-rule="evenodd" stroke-linejoin="miter" fill="rgb(0, 0, 0)" shape-rendering="geometricPrecision" /></g><g id="Solid"><path d="M45.6 88.99 L45.6 88.99 L45.81 88.63 L46.02 88.27 L63.17 88.31 L63.38 88.68 L63.17 89.04 Z" stroke="rgb(0, 0, 0)" stroke-width="0" fill-rule="evenodd" stroke-linejoin="miter" fill="rgb(0, 0, 0)" shape-rendering="geometricPrecision" /></g><g id="Solid"><path d="M63.8 88.68 L63.8 88.68 L63.38 88.68 L63.17 88.31 L71.79 73.49 L72.21 73.49 L72.42 73.86 Z" stroke="rgb(0, 0, 0)" stroke-width="0" fill-rule="evenodd" stroke-linejoin="miter" fill="rgb(0, 0, 0)" shape-rendering="geometricPrecision" /><line x1="67.03" y1="88.69" x2="74.03" y2="76.66" stroke="rgb(0, 0, 0)" stroke-width="0.73" shape-rendering="auto" /></g><g id="Solid"><path d="M72.42 73.13 L72.42 73.13 L72.21 73.49 L71.79 73.49 L63.26 58.61 L63.47 58.25 L63.68 57.89 Z" stroke="rgb(0, 0, 0)" stroke-width="0" fill-rule="evenodd" stroke-linejoin="miter" fill="rgb(0, 0, 0)" shape-rendering="geometricPrecision" /></g><g id="Solid"><path d="M63.68 57.89 L63.68 57.89 L63.47 58.25 L63.26 58.61 L46.11 58.57 L45.9 58.2 L45.69 57.83 Z" stroke="rgb(0, 0, 0)" stroke-width="0" fill-rule="evenodd" stroke-linejoin="miter" fill="rgb(0, 0, 0)" shape-rendering="geometricPrecision" /></g><g id="Solid"><path d="M45.69 57.83 L45.69 57.83 L45.9 58.2 L46.11 58.57 L37.49 73.39 L37.07 73.39 L36.65 73.39 Z" stroke="rgb(0, 0, 0)" stroke-width="0" fill-rule="evenodd" stroke-linejoin="miter" fill="rgb(0, 0, 0)" shape-rendering="geometricPrecision" /></g><g id="Solid"><path d="M72.42 73.86 L72.42 73.86 L72.21 73.49 L72.42 73.13 L89.57 73.17 L89.78 73.54 L89.57 73.9 Z" stroke="rgb(0, 0, 0)" stroke-width="0" fill-rule="evenodd" stroke-linejoin="miter" fill="rgb(0, 0, 0)" shape-rendering="geometricPrecision" /></g><g id="Solid"><path d="M89.57 73.9 L89.57 73.9 L89.78 73.54 L90.2 73.54 L98.73 88.42 L98.52 88.78 L98.1 88.78 Z" stroke="rgb(0, 0, 0)" stroke-width="0" fill-rule="evenodd" stroke-linejoin="miter" fill="rgb(0, 0, 0)" shape-rendering="geometricPrecision" /><line x1="87.95" y1="76.7" x2="94.87" y2="88.77" stroke="rgb(0, 0, 0)" stroke-width="0.73" shape-rendering="auto" /></g><g id="Solid"><path d="M98.73 89.15 L98.73 89.15 L98.52 88.78 L98.73 88.42 L115.87 88.46 L116.08 88.83 L116.29 89.2 Z" stroke="rgb(0, 0, 0)" stroke-width="0" fill-rule="evenodd" stroke-linejoin="miter" fill="rgb(0, 0, 0)" shape-rendering="geometricPrecision" /></g><g id="Solid"><path d="M116.29 89.2 L116.29 89.2 L116.08 88.83 L115.87 88.46 L124.49 73.64 L124.91 73.64 L125.33 73.64 Z" stroke="rgb(0, 0, 0)" stroke-width="0" fill-rule="evenodd" stroke-linejoin="miter" fill="rgb(0, 0, 0)" shape-rendering="geometricPrecision" /></g><g id="Solid"><path d="M125.33 73.64 L125.33 73.64 L124.91 73.64 L124.49 73.64 L115.96 58.76 L116.17 58.4 L116.38 58.04 Z" stroke="rgb(0, 0, 0)" stroke-width="0" fill-rule="evenodd" stroke-linejoin="miter" fill="rgb(0, 0, 0)" shape-rendering="geometricPrecision" /></g><g id="Solid"><path d="M116.38 58.04 L116.38 58.04 L116.17 58.4 L115.96 58.76 L98.81 58.72 L98.6 58.35 L98.39 57.98 Z" stroke="rgb(0, 0, 0)" stroke-width="0" fill-rule="evenodd" stroke-linejoin="miter" fill="rgb(0, 0, 0)" shape-rendering="geometricPrecision" /></g><g id="Solid"><path d="M98.39 57.98 L98.39 57.98 L98.6 58.35 L98.81 58.72 L90.2 73.54 L89.78 73.54 L89.57 73.17 Z" stroke="rgb(0, 0, 0)" stroke-width="0" fill-rule="evenodd" stroke-linejoin="miter" fill="rgb(0, 0, 0)" shape-rendering="geometricPrecision" /></g><g><text xml:space="preserve" text-anchor="start" text-rendering="geometricPrecision"><tspan x="67.72" y="108.72" font-family="Arial" font-size="12.2" fill="rgb(0, 0, 0)">H</tspan></text></g><g id="Solid"><path d="M63.17 89.04 L63.17 89.04 L63.38 88.68 L63.8 88.68 L69.22 98.13 L68.9 98.31 L68.59 98.49 Z" stroke="rgb(0, 0, 0)" stroke-width="0" fill-rule="evenodd" stroke-linejoin="miter" fill="rgb(0, 0, 0)" shape-rendering="geometricPrecision" /></g><g><text xml:space="preserve" text-anchor="start" text-rendering="geometricPrecision"><tspan x="85.29" y="108.77" font-family="Arial" font-size="12.2" fill="rgb(0, 0, 0)">H</tspan></text></g><g id="Solid"><path d="M98.1 88.78 L98.1 88.78 L98.52 88.78 L98.73 89.15 L93.24 98.6 L92.92 98.41 L92.6 98.23 Z" stroke="rgb(0, 0, 0)" stroke-width="0" fill-rule="evenodd" stroke-linejoin="miter" fill="rgb(0, 0, 0)" shape-rendering="geometricPrecision" /></g><g id="Solid"><path d="M201.48 85.79 L201.48 85.79 L201.84 85.58 L202.2 85.37 L217.07 93.92 L217.07 94.34 L217.07 94.76 Z" stroke="rgb(0, 0, 0)" stroke-width="0" fill-rule="evenodd" stroke-linejoin="miter" fill="rgb(0, 0, 0)" shape-rendering="geometricPrecision" /></g><g id="Solid"><path d="M217.07 94.76 L217.07 94.76 L217.07 94.34 L217.07 93.92 L231.9 85.32 L232.27 85.53 L232.37 85.89 Z" stroke="rgb(0, 0, 0)" stroke-width="0" fill-rule="evenodd" stroke-linejoin="miter" fill="rgb(0, 0, 0)" shape-rendering="geometricPrecision" /></g><g id="Solid"><path d="M232.63 85.16 L232.63 85.16 L232.27 85.53 L231.9 85.32 L231.88 68.17 L232.24 67.96 L232.61 68.32 Z" stroke="rgb(0, 0, 0)" stroke-width="0" fill-rule="evenodd" stroke-linejoin="miter" fill="rgb(0, 0, 0)" shape-rendering="geometricPrecision" /></g><g id="Solid"><path d="M232.34 67.59 L232.34 67.59 L232.24 67.96 L231.88 68.17 L217.01 59.62 L217.01 59.2 L217.01 58.78 Z" stroke="rgb(0, 0, 0)" stroke-width="0" fill-rule="evenodd" stroke-linejoin="miter" fill="rgb(0, 0, 0)" shape-rendering="geometricPrecision" /></g><g id="Solid"><path d="M217.01 58.78 L217.01 58.78 L217.01 59.2 L217.01 59.62 L202.18 68.22 L201.81 68.01 L201.44 67.8 Z" stroke="rgb(0, 0, 0)" stroke-width="0" fill-rule="evenodd" stroke-linejoin="miter" fill="rgb(0, 0, 0)" shape-rendering="geometricPrecision" /></g><g id="Solid"><path d="M201.44 67.8 L201.44 67.8 L201.81 68.01 L202.18 68.22 L202.2 85.37 L201.84 85.58 L201.48 85.79 Z" stroke="rgb(0, 0, 0)" stroke-width="0" fill-rule="evenodd" stroke-linejoin="miter" fill="rgb(0, 0, 0)" shape-rendering="geometricPrecision" /></g><g id="Solid"><path d="M232.37 85.89 L232.37 85.89 L232.27 85.53 L232.63 85.16 L249.47 85.14 L249.84 85.5 L249.74 85.87 Z" stroke="rgb(0, 0, 0)" stroke-width="0" fill-rule="evenodd" stroke-linejoin="miter" fill="rgb(0, 0, 0)" shape-rendering="geometricPrecision" /></g><g id="Solid"><path d="M232.61 68.32 L232.61 68.32 L232.24 67.96 L232.34 67.59 L249.71 67.57 L249.81 67.93 L249.45 68.3 Z" stroke="rgb(0, 0, 0)" stroke-width="0" fill-rule="evenodd" stroke-linejoin="miter" fill="rgb(0, 0, 0)" shape-rendering="geometricPrecision" /><line x1="235.41" y1="71.12" x2="246.65" y2="71.1" stroke="rgb(0, 0, 0)" stroke-width="0.73" shape-rendering="auto" /></g><g id="Solid"><path d="M250.2 85.29 L250.2 85.29 L249.84 85.5 L249.47 85.14 L249.45 68.3 L249.81 67.93 L250.18 68.14 Z" stroke="rgb(0, 0, 0)" stroke-width="0" fill-rule="evenodd" stroke-linejoin="miter" fill="rgb(0, 0, 0)" shape-rendering="geometricPrecision" /></g><g id="Solid"><path d="M249.74 85.87 L249.74 85.87 L249.84 85.5 L250.2 85.29 L265.07 93.84 L265.07 94.26 L265.07 94.68 Z" stroke="rgb(0, 0, 0)" stroke-width="0" fill-rule="evenodd" stroke-linejoin="miter" fill="rgb(0, 0, 0)" shape-rendering="geometricPrecision" /></g><g id="Solid"><path d="M265.07 94.68 L265.07 94.68 L265.07 94.26 L265.07 93.84 L279.9 85.24 L280.27 85.45 L280.64 85.66 Z" stroke="rgb(0, 0, 0)" stroke-width="0" fill-rule="evenodd" stroke-linejoin="miter" fill="rgb(0, 0, 0)" shape-rendering="geometricPrecision" /></g><g id="Solid"><path d="M280.64 85.66 L280.64 85.66 L280.27 85.45 L279.9 85.24 L279.88 68.09 L280.24 67.88 L280.6 67.67 Z" stroke="rgb(0, 0, 0)" stroke-width="0" fill-rule="evenodd" stroke-linejoin="miter" fill="rgb(0, 0, 0)" shape-rendering="geometricPrecision" /></g><g id="Solid"><path d="M280.6 67.67 L280.6 67.67 L280.24 67.88 L279.88 68.09 L265.01 59.54 L265.01 59.12 L265.01 58.7 Z" stroke="rgb(0, 0, 0)" stroke-width="0" fill-rule="evenodd" stroke-linejoin="miter" fill="rgb(0, 0, 0)" shape-rendering="geometricPrecision" /></g><g id="Solid"><path d="M265.01 58.7 L265.01 58.7 L265.01 59.12 L265.01 59.54 L250.18 68.14 L249.81 67.93 L249.71 67.57 Z" stroke="rgb(0, 0, 0)" stroke-width="0" fill-rule="evenodd" stroke-linejoin="miter" fill="rgb(0, 0, 0)" shape-rendering="geometricPrecision" /></g><g><text xml:space="preserve" text-anchor="start" text-rendering="geometricPrecision"><tspan x="227.9" y="107.9" font-family="Arial" font-size="12.2" fill="rgb(0, 0, 0)">H</tspan></text></g><g id="Wedged Hash Begin Bond"><path d="M231.91 85.53 L231.91 85.53 L232.63 85.53 L232.73 86.26 L231.81 86.26 Z" stroke="rgb(0, 0, 0)" stroke-width="0" fill-rule="evenodd" stroke-linejoin="miter" fill="rgb(0, 0, 0)" shape-rendering="geometricPrecision" /><path d="M231.45 89.19 L231.45 89.19 L233.1 89.19 L233.19 89.92 L231.36 89.92 Z" stroke="rgb(0, 0, 0)" stroke-width="0" fill-rule="evenodd" stroke-linejoin="miter" fill="rgb(0, 0, 0)" shape-rendering="geometricPrecision" /><path d="M231 92.86 L231 92.86 L233.56 92.85 L233.66 93.58 L230.91 93.59 Z" stroke="rgb(0, 0, 0)" stroke-width="0" fill-rule="evenodd" stroke-linejoin="miter" fill="rgb(0, 0, 0)" shape-rendering="geometricPrecision" /><path d="M230.55 96.52 L230.55 96.52 L234.03 96.52 L234.12 97.25 L230.46 97.25 Z" stroke="rgb(0, 0, 0)" stroke-width="0" fill-rule="evenodd" stroke-linejoin="miter" fill="rgb(0, 0, 0)" shape-rendering="geometricPrecision" /></g><g><text xml:space="preserve" text-anchor="start" text-rendering="geometricPrecision"><tspan x="245.47" y="107.87" font-family="Arial" font-size="12.2" fill="rgb(0, 0, 0)">H</tspan></text></g><g id="Wedged Hash Begin Bond"><path d="M249.48 85.5 L249.48 85.5 L250.2 85.5 L250.3 86.23 L249.39 86.23 Z" stroke="rgb(0, 0, 0)" stroke-width="0" fill-rule="evenodd" stroke-linejoin="miter" fill="rgb(0, 0, 0)" shape-rendering="geometricPrecision" /><path d="M249.02 89.17 L249.02 89.17 L250.67 89.17 L250.76 89.9 L248.93 89.9 Z" stroke="rgb(0, 0, 0)" stroke-width="0" fill-rule="evenodd" stroke-linejoin="miter" fill="rgb(0, 0, 0)" shape-rendering="geometricPrecision" /><path d="M248.57 92.85 L248.57 92.85 L251.13 92.84 L251.23 93.57 L248.48 93.58 Z" stroke="rgb(0, 0, 0)" stroke-width="0" fill-rule="evenodd" stroke-linejoin="miter" fill="rgb(0, 0, 0)" shape-rendering="geometricPrecision" /><path d="M248.12 96.52 L248.12 96.52 L251.6 96.52 L251.69 97.25 L248.03 97.25 Z" stroke="rgb(0, 0, 0)" stroke-width="0" fill-rule="evenodd" stroke-linejoin="miter" fill="rgb(0, 0, 0)" shape-rendering="geometricPrecision" /></g><g id="Arrow"><path d="M78 85.03 C77.95 81.92 75.4 79.44 72.3 79.48 C70.85 79.51 69.43 80.11 68.41 81.13 " stroke="rgb(255, 0, 0)" stroke-width="0.73" fill-rule="evenodd" stroke-linejoin="bevel" fill="none" shape-rendering="geometricPrecision" /><path d="M76.35 89.09 L79.54 83.98 C78.4 84.84 77.18 84.44 76.76 83.08 Z" stroke="rgb(255, 0, 0)" stroke-width="0" fill-rule="evenodd" stroke-linejoin="miter" stroke-miterlimit="8.44797012885303" fill="rgb(255, 0, 0)" shape-rendering="geometricPrecision" /></g><g id="Arrow"><path d="M81.17 78.23 C81.73 81.83 85.1 84.3 88.69 83.75 C90.64 83.45 92.42 82.23 93.4 80.53 " stroke="rgb(255, 0, 0)" stroke-width="0.73" fill-rule="evenodd" stroke-linejoin="bevel" fill="none" shape-rendering="geometricPrecision" /><path d="M81.98 73.93 L79.8 79.54 C80.76 78.48 82.03 78.65 82.69 79.91 Z" stroke="rgb(255, 0, 0)" stroke-width="0" fill-rule="evenodd" stroke-linejoin="miter" stroke-miterlimit="8.43788756709776" fill="rgb(255, 0, 0)" shape-rendering="geometricPrecision" /></g><g id="Arrow"><line x1="183.86" y1="76.5" x2="133.75" y2="76.5" stroke="rgb(0, 0, 0)" stroke-width="0.73" shape-rendering="auto" /><path d="M189.25 76.5 L181.95 74.68 C183.3 75.7 183.3 77.3 181.95 78.32 Z" stroke="rgb(0, 0, 0)" stroke-width="0" fill-rule="evenodd" stroke-linejoin="miter" stroke-miterlimit="8.4378875670977" fill="rgb(0, 0, 0)" shape-rendering="geometricPrecision" /></g><g><text xml:space="preserve" text-anchor="start" text-rendering="geometricPrecision"><tspan x="155.75" y="71.5" font-family="Arial" font-style="italic" font-size="12.2" fill="rgb(0, 0, 0)">hv</tspan></text></g></g></g></svg>