<?xml version="1.0"?><svg xmlns="http://www.w3.org/2000/svg" xmlns:xlink="http://www.w3.org/1999/xlink" viewBox="36.53 238.65 136.38 109.2" preserveAspectRatio="xMidYMid" width="100%" height="100%"><clipPath id="784"><rect x="0.3" y="0.3" width="522.6" height="769.08" /></clipPath><g id="drawing"><rect x="36.53" y="238.65" width="100%" height="100%" fill="rgb(255, 255, 255)" /><g id="page" clip-path="url(#784)"><g id="Bold"><path d="M74.25 271 L74.25 271 L75.38 270 L76.51 269 L92.39 269 L93.52 270 L93.46 271 Z" stroke="rgb(0, 0, 0)" stroke-width="0" fill-rule="evenodd" stroke-linejoin="miter" fill="rgb(0, 0, 0)" shape-rendering="geometricPrecision" /><line x1="77.02" y1="266.03" x2="91.88" y2="266.03" stroke="rgb(0, 0, 0)" stroke-width="0.6" shape-rendering="auto" /></g><g id="Solid"><path d="M73.87 270.53 L73.87 270.53 L75.38 270 L74.25 271 L63.39 277.26 L62.9 277.2 L62.41 277.14 Z" stroke="rgb(0, 0, 0)" stroke-width="0" fill-rule="evenodd" stroke-linejoin="miter" fill="rgb(0, 0, 0)" shape-rendering="geometricPrecision" /></g><g id="Solid"><path d="M62.41 277.14 L62.41 277.14 L62.9 277.2 L63.39 277.26 L73.32 287.18 L73.09 287.38 L72.86 287.58 Z" stroke="rgb(0, 0, 0)" stroke-width="0" fill-rule="evenodd" stroke-linejoin="miter" fill="rgb(0, 0, 0)" shape-rendering="geometricPrecision" /><line x1="67.12" y1="277.76" x2="74.92" y2="285.55" stroke="rgb(0, 0, 0)" stroke-width="0.6" shape-rendering="auto" /></g><g id="WedgeEnd"><path d="M76.51 269 L76.51 269 L75.38 270 L73.87 270.53 L65.12 260.2 L65.19 259.82 L65.75 259.9 Z" stroke="rgb(0, 0, 0)" stroke-width="0" fill-rule="evenodd" stroke-linejoin="miter" fill="rgb(0, 0, 0)" shape-rendering="geometricPrecision" /></g><g id="WedgeEnd"><path d="M94.21 271.5 L94.21 271.5 L93.52 270 L92.39 269 L102.75 260.24 L103.71 259.82 L104.43 259.43 Z" stroke="rgb(0, 0, 0)" stroke-width="0" fill-rule="evenodd" stroke-linejoin="miter" fill="rgb(0, 0, 0)" shape-rendering="geometricPrecision" /></g><g id="Solid"><path d="M65.75 259.9 L65.75 259.9 L65.19 259.82 L65.39 259.41 L78.42 253.8 L78.38 254.14 L78.34 254.48 Z" stroke="rgb(0, 0, 0)" stroke-width="0" fill-rule="evenodd" stroke-linejoin="miter" fill="rgb(0, 0, 0)" shape-rendering="geometricPrecision" /></g><g id="Solid"><path d="M78.34 254.48 L78.34 254.48 L78.38 254.14 L78.42 253.8 L89.1 261.33 L89.02 261.64 L88.94 261.95 Z" stroke="rgb(0, 0, 0)" stroke-width="0" fill-rule="evenodd" stroke-linejoin="miter" fill="rgb(0, 0, 0)" shape-rendering="geometricPrecision" /></g><g id="Solid"><path d="M88.94 261.95 L88.94 261.95 L89.02 261.64 L89.1 261.33 L104.43 259.43 L103.71 259.82 L102.75 260.24 Z" stroke="rgb(0, 0, 0)" stroke-width="0" fill-rule="evenodd" stroke-linejoin="miter" fill="rgb(0, 0, 0)" shape-rendering="geometricPrecision" /></g><g id="Solid"><path d="M64.84 259.68 L64.84 259.68 L65.19 259.82 L65.12 260.2 L52.87 267.28 L52.72 267.02 L52.57 266.76 Z" stroke="rgb(0, 0, 0)" stroke-width="0" fill-rule="evenodd" stroke-linejoin="miter" fill="rgb(0, 0, 0)" shape-rendering="geometricPrecision" /></g><g id="Solid"><path d="M65.39 259.41 L65.39 259.41 L65.19 259.82 L64.84 259.68 L61.18 245.99 L61.47 245.91 L61.76 245.83 Z" stroke="rgb(0, 0, 0)" stroke-width="0" fill-rule="evenodd" stroke-linejoin="miter" fill="rgb(0, 0, 0)" shape-rendering="geometricPrecision" /></g><g id="Solid"><path d="M101.28 302.1 L101.28 302.1 L101.63 302.25 L101.69 302.56 L89.53 309.58 L89.15 309.45 L89.23 309.06 Z" stroke="rgb(0, 0, 0)" stroke-width="0" fill-rule="evenodd" stroke-linejoin="miter" fill="rgb(0, 0, 0)" shape-rendering="geometricPrecision" /><line x1="102.16" y1="304.94" x2="92.41" y2="310.56" stroke="rgb(0, 0, 0)" stroke-width="0.6" shape-rendering="auto" /></g><g id="Solid"><path d="M88.89 309.6 L88.89 309.6 L89.15 309.45 L89.53 309.58 L93.12 318.35 L92.9 318.6 L92.68 318.85 Z" stroke="rgb(0, 0, 0)" stroke-width="0" fill-rule="evenodd" stroke-linejoin="miter" fill="rgb(0, 0, 0)" shape-rendering="geometricPrecision" /></g><g id="Solid"><path d="M92.68 318.85 L92.68 318.85 L92.9 318.6 L93.12 318.35 L109.08 322.48 L109.13 322.8 L108.93 323.06 Z" stroke="rgb(0, 0, 0)" stroke-width="0" fill-rule="evenodd" stroke-linejoin="miter" fill="rgb(0, 0, 0)" shape-rendering="geometricPrecision" /><line x1="95.12" y1="316.06" x2="108.61" y2="319.55" stroke="rgb(0, 0, 0)" stroke-width="0.6" shape-rendering="auto" /></g><g id="Solid"><path d="M109.53 322.9 L109.53 322.9 L109.13 322.8 L109.08 322.48 L121.21 314.74 L121.6 314.85 L121.99 314.96 Z" stroke="rgb(0, 0, 0)" stroke-width="0" fill-rule="evenodd" stroke-linejoin="miter" fill="rgb(0, 0, 0)" shape-rendering="geometricPrecision" /></g><g id="Solid"><path d="M121.99 314.96 L121.99 314.96 L121.6 314.85 L121.21 314.74 L116.15 304.48 L116.35 304.2 L116.55 303.92 Z" stroke="rgb(0, 0, 0)" stroke-width="0" fill-rule="evenodd" stroke-linejoin="miter" fill="rgb(0, 0, 0)" shape-rendering="geometricPrecision" /></g><g id="Solid"><path d="M116.55 303.92 L116.55 303.92 L116.35 304.2 L116.15 304.48 L101.69 302.56 L101.63 302.25 L101.87 301.98 Z" stroke="rgb(0, 0, 0)" stroke-width="0" fill-rule="evenodd" stroke-linejoin="miter" fill="rgb(0, 0, 0)" shape-rendering="geometricPrecision" /></g><g id="Dash"><path d="M94.23 274.07 L94.23 274.07 L94.82 273.93 L94.21 271.5 L93.52 270 L93.46 271 Z" stroke="rgb(0, 0, 0)" stroke-width="0" fill-rule="evenodd" stroke-linejoin="miter" fill="rgb(0, 0, 0)" shape-rendering="geometricPrecision" /><path d="M100.67 299.68 L100.67 299.68 L101.26 299.53 L101.87 301.98 L101.63 302.25 L101.28 302.1 Z" stroke="rgb(0, 0, 0)" stroke-width="0" fill-rule="evenodd" stroke-linejoin="miter" fill="rgb(0, 0, 0)" shape-rendering="geometricPrecision" /><path d="M94.8 276.32 L94.8 276.32 L95.41 278.74 L95.99 278.6 L95.38 276.17 Z" stroke="rgb(0, 0, 0)" stroke-width="0" fill-rule="evenodd" stroke-linejoin="miter" fill="rgb(0, 0, 0)" shape-rendering="geometricPrecision" /><path d="M95.97 280.99 L95.97 280.99 L96.58 283.42 L97.17 283.27 L96.56 280.85 Z" stroke="rgb(0, 0, 0)" stroke-width="0" fill-rule="evenodd" stroke-linejoin="miter" fill="rgb(0, 0, 0)" shape-rendering="geometricPrecision" /><path d="M97.15 285.66 L97.15 285.66 L97.76 288.09 L98.34 287.94 L97.73 285.52 Z" stroke="rgb(0, 0, 0)" stroke-width="0" fill-rule="evenodd" stroke-linejoin="miter" fill="rgb(0, 0, 0)" shape-rendering="geometricPrecision" /><path d="M98.32 290.34 L98.32 290.34 L98.93 292.76 L99.52 292.61 L98.91 290.19 Z" stroke="rgb(0, 0, 0)" stroke-width="0" fill-rule="evenodd" stroke-linejoin="miter" fill="rgb(0, 0, 0)" shape-rendering="geometricPrecision" /><path d="M99.5 295.01 L99.5 295.01 L100.11 297.43 L100.69 297.29 L100.08 294.86 Z" stroke="rgb(0, 0, 0)" stroke-width="0" fill-rule="evenodd" stroke-linejoin="miter" fill="rgb(0, 0, 0)" shape-rendering="geometricPrecision" /></g><g id="Dash"><path d="M74.33 289.6 L74.33 289.6 L74.82 289.24 L73.32 287.18 L73.09 287.38 L72.86 287.58 Z" stroke="rgb(0, 0, 0)" stroke-width="0" fill-rule="evenodd" stroke-linejoin="miter" fill="rgb(0, 0, 0)" shape-rendering="geometricPrecision" /><path d="M87.28 307.39 L87.28 307.39 L87.76 307.03 L89.23 309.06 L89.15 309.45 L88.89 309.6 Z" stroke="rgb(0, 0, 0)" stroke-width="0" fill-rule="evenodd" stroke-linejoin="miter" fill="rgb(0, 0, 0)" shape-rendering="geometricPrecision" /><path d="M75.74 291.54 L75.74 291.54 L77.22 293.56 L77.7 293.21 L76.23 291.18 Z" stroke="rgb(0, 0, 0)" stroke-width="0" fill-rule="evenodd" stroke-linejoin="miter" fill="rgb(0, 0, 0)" shape-rendering="geometricPrecision" /><path d="M78.63 295.5 L78.63 295.5 L80.1 297.52 L80.58 297.17 L79.11 295.15 Z" stroke="rgb(0, 0, 0)" stroke-width="0" fill-rule="evenodd" stroke-linejoin="miter" fill="rgb(0, 0, 0)" shape-rendering="geometricPrecision" /><path d="M81.51 299.46 L81.51 299.46 L82.98 301.48 L83.47 301.13 L82 299.11 Z" stroke="rgb(0, 0, 0)" stroke-width="0" fill-rule="evenodd" stroke-linejoin="miter" fill="rgb(0, 0, 0)" shape-rendering="geometricPrecision" /><path d="M84.39 303.42 L84.39 303.42 L85.87 305.45 L86.35 305.09 L84.88 303.07 Z" stroke="rgb(0, 0, 0)" stroke-width="0" fill-rule="evenodd" stroke-linejoin="miter" fill="rgb(0, 0, 0)" shape-rendering="geometricPrecision" /></g><g><text xml:space="preserve" text-anchor="start" text-rendering="geometricPrecision"><tspan x="123.84" y="300.9" font-family="Arial" font-size="10" fill="rgb(0, 0, 0)">O</tspan></text></g><g id="Solid"><line x1="115.7" y1="303.17" x2="122.4" y2="298.94" stroke="rgb(0, 0, 0)" stroke-width="0.6" shape-rendering="auto" /><path d="M117.01 304.86 L117.01 304.86 L117.28 305.4 L123.86 301.24 L123.54 300.74 Z" stroke="rgb(0, 0, 0)" stroke-width="0" fill-rule="evenodd" stroke-linejoin="miter" fill="rgb(0, 0, 0)" shape-rendering="geometricPrecision" /><path d="M114.41 303.64 L114.41 303.64 L115.33 303.76 L122.56 299.19 L122.24 298.69 Z" stroke="rgb(0, 0, 0)" stroke-width="0" fill-rule="evenodd" stroke-linejoin="miter" fill="rgb(0, 0, 0)" shape-rendering="geometricPrecision" /></g><g><text xml:space="preserve" text-anchor="start" text-rendering="geometricPrecision"><tspan x="132.31" y="319.63" font-family="Arial" font-size="10" fill="rgb(0, 0, 0)">O</tspan></text></g><g id="Solid"><line x1="121.68" y1="313.54" x2="131.28" y2="314.11" stroke="rgb(0, 0, 0)" stroke-width="0.6" shape-rendering="auto" /><path d="M120.65 315.81 L120.65 315.81 L119.79 316.36 L131.11 317.04 L131.14 316.44 Z" stroke="rgb(0, 0, 0)" stroke-width="0" fill-rule="evenodd" stroke-linejoin="miter" fill="rgb(0, 0, 0)" shape-rendering="geometricPrecision" /><path d="M121.12 313.2 L121.12 313.2 L121.43 313.82 L131.26 314.41 L131.3 313.81 Z" stroke="rgb(0, 0, 0)" stroke-width="0" fill-rule="evenodd" stroke-linejoin="miter" fill="rgb(0, 0, 0)" shape-rendering="geometricPrecision" /></g><g id="Solid"><path d="M108.93 323.06 L108.93 323.06 L109.13 322.8 L109.53 322.9 L115.34 333.03 L115.13 333.27 L114.74 333.2 Z" stroke="rgb(0, 0, 0)" stroke-width="0" fill-rule="evenodd" stroke-linejoin="miter" fill="rgb(0, 0, 0)" shape-rendering="geometricPrecision" /></g><g id="Solid"><path d="M115.18 333.61 L115.18 333.61 L115.13 333.27 L115.34 333.03 L128.68 338.15 L128.57 338.43 L128.46 338.71 Z" stroke="rgb(0, 0, 0)" stroke-width="0" fill-rule="evenodd" stroke-linejoin="miter" fill="rgb(0, 0, 0)" shape-rendering="geometricPrecision" /></g><g id="Solid"><path d="M114.74 333.2 L114.74 333.2 L115.13 333.27 L115.18 333.61 L104.13 342.56 L103.94 342.33 L103.75 342.1 Z" stroke="rgb(0, 0, 0)" stroke-width="0" fill-rule="evenodd" stroke-linejoin="miter" fill="rgb(0, 0, 0)" shape-rendering="geometricPrecision" /></g><g id="Bracket"><path d="M151.08 239.25 L158.63 239.25 L158.63 347.25 L151.08 347.25 " stroke="rgb(0, 0, 0)" stroke-width="0.6" fill-rule="evenodd" stroke-linejoin="miter" fill="none" shape-rendering="geometricPrecision" /></g><g id="Bracket"><path d="M44.68 347.25 L37.13 347.25 L37.13 239.25 L44.68 239.25 " stroke="rgb(0, 0, 0)" stroke-width="0.6" fill-rule="evenodd" stroke-linejoin="miter" fill="none" shape-rendering="geometricPrecision" /></g><g id="Charge782"><line x1="169.13" y1="239.7" x2="169.13" y2="252.3" stroke="rgb(0, 0, 0)" stroke-width="0.48" shape-rendering="auto" /><line x1="165.83" y1="243" x2="172.43" y2="243" stroke="rgb(0, 0, 0)" stroke-width="0.48" shape-rendering="auto" /><line x1="165.83" y1="249" x2="172.43" y2="249" stroke="rgb(0, 0, 0)" stroke-width="0.48" shape-rendering="auto" /></g></g></g></svg>