<?xml version="1.0"?><svg xmlns="http://www.w3.org/2000/svg" xmlns:xlink="http://www.w3.org/1999/xlink" viewBox="118.01 126.15 104.36 91.95" preserveAspectRatio="xMidYMid" width="100%" height="100%"><clipPath id="4696"><rect x="0.3" y="0.3" width="522.6" height="769.08" /></clipPath><g id="drawing"><rect x="118.01" y="126.15" width="100%" height="100%" fill="rgb(255, 255, 255)" /><g id="page" clip-path="url(#4696)"><g id="Bold"><path d="M161.96 155.2 L161.96 155.2 L163.09 154.2 L164.22 153.2 L180.11 153.2 L181.24 154.2 L181.04 155.2 Z" stroke="rgb(0, 0, 0)" stroke-width="0" fill-rule="evenodd" stroke-linejoin="miter" fill="rgb(0, 0, 0)" shape-rendering="geometricPrecision" /><line x1="164.73" y1="150.23" x2="179.6" y2="150.23" stroke="rgb(0, 0, 0)" stroke-width="0.6" shape-rendering="auto" /></g><g id="Solid"><path d="M161.58 154.73 L161.58 154.73 L163.09 154.2 L161.96 155.2 L151.11 161.46 L150.62 161.4 L150.13 161.34 Z" stroke="rgb(0, 0, 0)" stroke-width="0" fill-rule="evenodd" stroke-linejoin="miter" fill="rgb(0, 0, 0)" shape-rendering="geometricPrecision" /></g><g id="Solid"><path d="M150.13 161.34 L150.13 161.34 L150.62 161.4 L151.11 161.46 L161.06 171.41 L160.8 171.58 L160.54 171.75 Z" stroke="rgb(0, 0, 0)" stroke-width="0" fill-rule="evenodd" stroke-linejoin="miter" fill="rgb(0, 0, 0)" shape-rendering="geometricPrecision" /><line x1="154.84" y1="161.96" x2="162.63" y2="169.75" stroke="rgb(0, 0, 0)" stroke-width="0.6" shape-rendering="auto" /></g><g id="WedgeEnd"><path d="M164.22 153.2 L164.22 153.2 L163.09 154.2 L161.58 154.73 L152.84 144.4 L152.91 144.02 L153.47 144.1 Z" stroke="rgb(0, 0, 0)" stroke-width="0" fill-rule="evenodd" stroke-linejoin="miter" fill="rgb(0, 0, 0)" shape-rendering="geometricPrecision" /></g><g id="WedgeEnd"><path d="M181.72 155.94 L181.72 155.94 L181.24 154.2 L180.11 153.2 L190.46 144.44 L191.42 144.02 L192.14 143.63 Z" stroke="rgb(0, 0, 0)" stroke-width="0" fill-rule="evenodd" stroke-linejoin="miter" fill="rgb(0, 0, 0)" shape-rendering="geometricPrecision" /></g><g id="Solid"><path d="M153.47 144.1 L153.47 144.1 L152.91 144.02 L153.11 143.61 L166.13 138 L166.09 138.34 L166.05 138.68 Z" stroke="rgb(0, 0, 0)" stroke-width="0" fill-rule="evenodd" stroke-linejoin="miter" fill="rgb(0, 0, 0)" shape-rendering="geometricPrecision" /></g><g id="Solid"><path d="M166.05 138.68 L166.05 138.68 L166.09 138.34 L166.13 138 L176.82 145.53 L176.74 145.84 L176.66 146.15 Z" stroke="rgb(0, 0, 0)" stroke-width="0" fill-rule="evenodd" stroke-linejoin="miter" fill="rgb(0, 0, 0)" shape-rendering="geometricPrecision" /></g><g id="Solid"><path d="M176.66 146.15 L176.66 146.15 L176.74 145.84 L176.82 145.53 L192.14 143.63 L191.42 144.02 L190.46 144.44 Z" stroke="rgb(0, 0, 0)" stroke-width="0" fill-rule="evenodd" stroke-linejoin="miter" fill="rgb(0, 0, 0)" shape-rendering="geometricPrecision" /></g><g id="Solid"><path d="M152.56 143.88 L152.56 143.88 L152.91 144.02 L152.84 144.4 L140.58 151.48 L140.43 151.22 L140.28 150.96 Z" stroke="rgb(0, 0, 0)" stroke-width="0" fill-rule="evenodd" stroke-linejoin="miter" fill="rgb(0, 0, 0)" shape-rendering="geometricPrecision" /></g><g id="Solid"><path d="M153.11 143.61 L153.11 143.61 L152.91 144.02 L152.56 143.88 L148.89 130.19 L149.18 130.11 L149.47 130.03 Z" stroke="rgb(0, 0, 0)" stroke-width="0" fill-rule="evenodd" stroke-linejoin="miter" fill="rgb(0, 0, 0)" shape-rendering="geometricPrecision" /></g><g id="Solid"><path d="M185.1 196.14 L185.1 196.14 L185.59 196.2 L185.91 196.36 L173.2 203.7 L173.12 203.4 L173.27 202.97 Z" stroke="rgb(0, 0, 0)" stroke-width="0" fill-rule="evenodd" stroke-linejoin="miter" fill="rgb(0, 0, 0)" shape-rendering="geometricPrecision" /><line x1="181.37" y1="195.64" x2="174.44" y2="199.64" stroke="rgb(0, 0, 0)" stroke-width="0.6" shape-rendering="auto" /></g><g id="Dash"><path d="M181.38 158.49 L181.38 158.49 L181.98 158.43 L181.72 155.94 L181.24 154.2 L181.04 155.2 Z" stroke="rgb(0, 0, 0)" stroke-width="0" fill-rule="evenodd" stroke-linejoin="miter" fill="rgb(0, 0, 0)" shape-rendering="geometricPrecision" /><path d="M184.95 192.9 L184.95 192.9 L185.54 192.84 L185.91 196.36 L185.59 196.2 L185.2 195.39 Z" stroke="rgb(0, 0, 0)" stroke-width="0" fill-rule="evenodd" stroke-linejoin="miter" fill="rgb(0, 0, 0)" shape-rendering="geometricPrecision" /><path d="M181.76 162.16 L181.76 162.16 L182.02 164.64 L182.62 164.58 L182.36 162.09 Z" stroke="rgb(0, 0, 0)" stroke-width="0" fill-rule="evenodd" stroke-linejoin="miter" fill="rgb(0, 0, 0)" shape-rendering="geometricPrecision" /><path d="M182.4 168.31 L182.4 168.31 L182.66 170.79 L183.25 170.73 L183 168.24 Z" stroke="rgb(0, 0, 0)" stroke-width="0" fill-rule="evenodd" stroke-linejoin="miter" fill="rgb(0, 0, 0)" shape-rendering="geometricPrecision" /><path d="M183.04 174.45 L183.04 174.45 L183.29 176.94 L183.89 176.88 L183.63 174.39 Z" stroke="rgb(0, 0, 0)" stroke-width="0" fill-rule="evenodd" stroke-linejoin="miter" fill="rgb(0, 0, 0)" shape-rendering="geometricPrecision" /><path d="M183.67 180.6 L183.67 180.6 L183.93 183.09 L184.53 183.03 L184.27 180.54 Z" stroke="rgb(0, 0, 0)" stroke-width="0" fill-rule="evenodd" stroke-linejoin="miter" fill="rgb(0, 0, 0)" shape-rendering="geometricPrecision" /><path d="M184.31 186.75 L184.31 186.75 L184.57 189.24 L185.16 189.18 L184.91 186.69 Z" stroke="rgb(0, 0, 0)" stroke-width="0" fill-rule="evenodd" stroke-linejoin="miter" fill="rgb(0, 0, 0)" shape-rendering="geometricPrecision" /></g><g id="Charge4692"><line x1="218.59" y1="127.65" x2="218.59" y2="140.25" stroke="rgb(0, 0, 0)" stroke-width="0.48" shape-rendering="auto" /><line x1="215.29" y1="130.95" x2="221.89" y2="130.95" stroke="rgb(0, 0, 0)" stroke-width="0.48" shape-rendering="auto" /><line x1="215.29" y1="136.95" x2="221.89" y2="136.95" stroke="rgb(0, 0, 0)" stroke-width="0.48" shape-rendering="auto" /></g><g id="Solid"><path d="M172.68 203.1 L172.68 203.1 L173.12 203.4 L173.2 203.7 L158.6 203.7 L158.72 203.4 L158.84 203.1 Z" stroke="rgb(0, 0, 0)" stroke-width="0" fill-rule="evenodd" stroke-linejoin="miter" fill="rgb(0, 0, 0)" shape-rendering="geometricPrecision" /></g><g id="Solid"><path d="M185.2 195.39 L185.2 195.39 L185.59 196.2 L185.1 196.14 L175.29 186.32 L175.41 186.02 L175.53 185.72 Z" stroke="rgb(0, 0, 0)" stroke-width="0" fill-rule="evenodd" stroke-linejoin="miter" fill="rgb(0, 0, 0)" shape-rendering="geometricPrecision" /></g><g id="Solid"><g id="Bond's parts"><path d="M161.05 185.75 L161.05 185.75 L163.98 185.8 L164 185.85 L164.1 186.15 L164.15 186.35 Z" stroke="rgb(0, 0, 0)" stroke-width="0" fill-rule="evenodd" stroke-linejoin="miter" fill="rgb(0, 0, 0)" shape-rendering="geometricPrecision" /><path d="M168.05 185.75 L168.05 185.75 L175.45 185.75 L175.4 186.05 L175.3 186.25 L175.27 186.3 L168.23 186.3 L168.2 186.25 Z" stroke="rgb(0, 0, 0)" stroke-width="0" fill-rule="evenodd" stroke-linejoin="miter" fill="rgb(0, 0, 0)" shape-rendering="geometricPrecision" /><path d="M161.75 188.35 L161.75 188.35 L164.98 188.4 L165 188.45 L165.1 188.75 L165.15 188.95 Z" stroke="rgb(0, 0, 0)" stroke-width="0" fill-rule="evenodd" stroke-linejoin="miter" fill="rgb(0, 0, 0)" shape-rendering="geometricPrecision" /><path d="M169.05 188.35 L169.05 188.35 L174.35 188.35 L174.35 188.95 L169.25 188.95 L169.2 188.75 Z" stroke="rgb(0, 0, 0)" stroke-width="0" fill-rule="evenodd" stroke-linejoin="miter" fill="rgb(0, 0, 0)" shape-rendering="geometricPrecision" /></g></g><g id="Solid"><path d="M160.52 185.96 L160.52 185.96 L161.01 186.02 L161.09 186.32 L149.02 193.28 L148.53 193.22 L148.04 193.16 Z" stroke="rgb(0, 0, 0)" stroke-width="0" fill-rule="evenodd" stroke-linejoin="miter" fill="rgb(0, 0, 0)" shape-rendering="geometricPrecision" /></g><g id="Solid"><path d="M148.04 193.16 L148.04 193.16 L148.53 193.22 L149.02 193.28 L158.84 203.1 L158.72 203.4 L158.6 203.7 Z" stroke="rgb(0, 0, 0)" stroke-width="0" fill-rule="evenodd" stroke-linejoin="miter" fill="rgb(0, 0, 0)" shape-rendering="geometricPrecision" /></g><g id="Dash"><path d="M161.45 174.08 L161.45 174.08 L162.01 173.86 L161.06 171.41 L160.8 171.58 L160.54 171.75 Z" stroke="rgb(0, 0, 0)" stroke-width="0" fill-rule="evenodd" stroke-linejoin="miter" fill="rgb(0, 0, 0)" shape-rendering="geometricPrecision" /><path d="M171.78 200.77 L171.78 200.77 L172.34 200.55 L173.27 202.97 L173.12 203.4 L172.68 203.1 Z" stroke="rgb(0, 0, 0)" stroke-width="0" fill-rule="evenodd" stroke-linejoin="miter" fill="rgb(0, 0, 0)" shape-rendering="geometricPrecision" /><path d="M162.42 176.58 L162.42 176.58 L163.32 178.92 L163.88 178.7 L162.98 176.37 Z" stroke="rgb(0, 0, 0)" stroke-width="0" fill-rule="evenodd" stroke-linejoin="miter" fill="rgb(0, 0, 0)" shape-rendering="geometricPrecision" /><path d="M164.29 181.42 L164.29 181.42 L165.19 183.75 L165.75 183.54 L164.85 181.2 Z" stroke="rgb(0, 0, 0)" stroke-width="0" fill-rule="evenodd" stroke-linejoin="miter" fill="rgb(0, 0, 0)" shape-rendering="geometricPrecision" /><path d="M166.16 186.26 L166.16 186.26 L167.06 188.59 L167.62 188.37 L166.72 186.04 Z" stroke="rgb(0, 0, 0)" stroke-width="0" fill-rule="evenodd" stroke-linejoin="miter" fill="rgb(0, 0, 0)" shape-rendering="geometricPrecision" /><path d="M168.03 191.09 L168.03 191.09 L168.94 193.43 L169.5 193.21 L168.59 190.88 Z" stroke="rgb(0, 0, 0)" stroke-width="0" fill-rule="evenodd" stroke-linejoin="miter" fill="rgb(0, 0, 0)" shape-rendering="geometricPrecision" /><path d="M169.91 195.93 L169.91 195.93 L170.81 198.26 L171.37 198.05 L170.47 195.72 Z" stroke="rgb(0, 0, 0)" stroke-width="0" fill-rule="evenodd" stroke-linejoin="miter" fill="rgb(0, 0, 0)" shape-rendering="geometricPrecision" /></g><g><text xml:space="preserve" text-anchor="start" text-rendering="geometricPrecision"><tspan x="142.56" y="216.85" font-family="Arial" font-size="10" fill="rgb(0, 0, 0)">O</tspan></text></g><g id="Solid"><line x1="159.58" y1="204.5" x2="152.02" y2="210.39" stroke="rgb(0, 0, 0)" stroke-width="0.6" shape-rendering="auto" /><path d="M157.7 202.8 L157.7 202.8 L157.27 202.38 L150.12 207.95 L150.49 208.42 Z" stroke="rgb(0, 0, 0)" stroke-width="0" fill-rule="evenodd" stroke-linejoin="miter" fill="rgb(0, 0, 0)" shape-rendering="geometricPrecision" /><path d="M161.1 203.7 L161.1 203.7 L160.12 203.7 L151.84 210.15 L152.21 210.63 Z" stroke="rgb(0, 0, 0)" stroke-width="0" fill-rule="evenodd" stroke-linejoin="miter" fill="rgb(0, 0, 0)" shape-rendering="geometricPrecision" /></g><g id="Solid"><path d="M161.13 185.72 L161.13 185.72 L161.01 186.02 L160.52 185.96 L150.7 176.14 L150.82 175.84 L151.07 175.67 Z" stroke="rgb(0, 0, 0)" stroke-width="0" fill-rule="evenodd" stroke-linejoin="miter" fill="rgb(0, 0, 0)" shape-rendering="geometricPrecision" /></g><g id="Solid"><line x1="148.36" y1="194.44" x2="139.92" y2="193.26" stroke="rgb(0, 0, 0)" stroke-width="0.6" shape-rendering="auto" /><path d="M149.36 192.4 L149.36 192.4 L150.2 191.91 L140.3 190.53 L140.21 191.13 Z" stroke="rgb(0, 0, 0)" stroke-width="0" fill-rule="evenodd" stroke-linejoin="miter" fill="rgb(0, 0, 0)" shape-rendering="geometricPrecision" /><path d="M149.83 194.94 L149.83 194.94 L149.13 194.24 L139.96 192.97 L139.87 193.56 Z" stroke="rgb(0, 0, 0)" stroke-width="0" fill-rule="evenodd" stroke-linejoin="miter" fill="rgb(0, 0, 0)" shape-rendering="geometricPrecision" /></g><g><text xml:space="preserve" text-anchor="start" text-rendering="geometricPrecision"><tspan x="131.11" y="195.24" font-family="Arial" font-size="10" fill="rgb(0, 0, 0)">O</tspan></text></g><g id="Solid"><path d="M150.37 175.54 L150.37 175.54 L150.82 175.84 L150.7 176.14 L136.42 176.14 L136.42 175.84 L136.42 175.54 Z" stroke="rgb(0, 0, 0)" stroke-width="0" fill-rule="evenodd" stroke-linejoin="miter" fill="rgb(0, 0, 0)" shape-rendering="geometricPrecision" /></g><g id="Solid"><path d="M151.07 175.67 L151.07 175.67 L150.82 175.84 L150.37 175.54 L146.34 165.72 L146.62 165.61 L146.9 165.5 Z" stroke="rgb(0, 0, 0)" stroke-width="0" fill-rule="evenodd" stroke-linejoin="miter" fill="rgb(0, 0, 0)" shape-rendering="geometricPrecision" /></g><g id="Bracket"><path d="M203.64 126.75 L210.11 126.75 L210.11 217.5 L203.64 217.5 " stroke="rgb(0, 0, 0)" stroke-width="0.6" fill-rule="evenodd" stroke-linejoin="miter" fill="none" shape-rendering="geometricPrecision" /></g><g id="Bracket"><path d="M125.08 217.5 L118.61 217.5 L118.61 126.75 L125.08 126.75 " stroke="rgb(0, 0, 0)" stroke-width="0.6" fill-rule="evenodd" stroke-linejoin="miter" fill="none" shape-rendering="geometricPrecision" /></g></g></g></svg>