<?xml version="1.0"?><svg xmlns="http://www.w3.org/2000/svg" xmlns:xlink="http://www.w3.org/1999/xlink" viewBox="61.5 280.82 87.75 79.76" preserveAspectRatio="xMidYMid" width="100%" height="100%"><clipPath id="4747"><rect x="0.3" y="0.3" width="522.6" height="769.08" /></clipPath><g id="drawing"><rect x="61.5" y="280.82" width="100%" height="100%" fill="rgb(255, 255, 255)" /><g id="page" clip-path="url(#4747)"><g id="Solid"><path d="M61.5 328.41 L61.5 328.41 L61.8 328.58 L62.1 328.75 L62.1 342.81 L61.8 342.98 L61.5 343.15 Z" stroke="rgb(0, 0, 0)" stroke-width="0" fill-rule="evenodd" stroke-linejoin="miter" fill="rgb(0, 0, 0)" shape-rendering="geometricPrecision" /></g><g id="Solid"><path d="M61.5 343.15 L61.5 343.15 L61.8 342.98 L62.1 342.81 L74.27 349.83 L74.27 350.18 L73.78 350.24 Z" stroke="rgb(0, 0, 0)" stroke-width="0" fill-rule="evenodd" stroke-linejoin="miter" fill="rgb(0, 0, 0)" shape-rendering="geometricPrecision" /></g><g id="Solid"><path d="M74.76 350.24 L74.76 350.24 L74.27 350.18 L74.27 349.83 L86.44 342.81 L86.74 342.98 L86.74 343.33 Z" stroke="rgb(0, 0, 0)" stroke-width="0" fill-rule="evenodd" stroke-linejoin="miter" fill="rgb(0, 0, 0)" shape-rendering="geometricPrecision" /></g><g id="Solid"><path d="M87.04 342.81 L87.04 342.81 L86.74 342.98 L86.44 342.81 L86.44 328.75 L86.74 328.58 L87.04 328.75 Z" stroke="rgb(0, 0, 0)" stroke-width="0" fill-rule="evenodd" stroke-linejoin="miter" fill="rgb(0, 0, 0)" shape-rendering="geometricPrecision" /></g><g id="Solid"><path d="M86.74 328.23 L86.74 328.23 L86.74 328.58 L86.44 328.75 L74.27 321.73 L74.27 321.38 L74.27 321.03 Z" stroke="rgb(0, 0, 0)" stroke-width="0" fill-rule="evenodd" stroke-linejoin="miter" fill="rgb(0, 0, 0)" shape-rendering="geometricPrecision" /></g><g id="Solid"><path d="M74.27 321.03 L74.27 321.03 L74.27 321.38 L74.27 321.73 L62.1 328.75 L61.8 328.58 L61.5 328.41 Z" stroke="rgb(0, 0, 0)" stroke-width="0" fill-rule="evenodd" stroke-linejoin="miter" fill="rgb(0, 0, 0)" shape-rendering="geometricPrecision" /></g><g id="Solid"><path d="M86.74 343.33 L86.74 343.33 L86.74 342.98 L87.04 342.81 L99.21 349.83 L99.21 350.18 L99.21 350.53 Z" stroke="rgb(0, 0, 0)" stroke-width="0" fill-rule="evenodd" stroke-linejoin="miter" fill="rgb(0, 0, 0)" shape-rendering="geometricPrecision" /><line x1="89.33" y1="341.48" x2="99.21" y2="347.19" stroke="rgb(0, 0, 0)" stroke-width="0.6" shape-rendering="auto" /></g><g id="Solid"><path d="M99.21 350.53 L99.21 350.53 L99.21 350.18 L99.21 349.83 L111.39 342.81 L111.69 342.98 L111.99 343.15 Z" stroke="rgb(0, 0, 0)" stroke-width="0" fill-rule="evenodd" stroke-linejoin="miter" fill="rgb(0, 0, 0)" shape-rendering="geometricPrecision" /></g><g id="Solid"><path d="M111.99 343.15 L111.99 343.15 L111.69 342.98 L111.39 342.81 L111.39 328.75 L111.69 328.58 L111.99 328.75 Z" stroke="rgb(0, 0, 0)" stroke-width="0" fill-rule="evenodd" stroke-linejoin="miter" fill="rgb(0, 0, 0)" shape-rendering="geometricPrecision" /></g><g id="Solid"><path d="M111.69 328.23 L111.69 328.23 L111.69 328.58 L111.39 328.75 L99.21 321.73 L99.21 321.38 L99.86 321.41 Z" stroke="rgb(0, 0, 0)" stroke-width="0" fill-rule="evenodd" stroke-linejoin="miter" fill="rgb(0, 0, 0)" shape-rendering="geometricPrecision" /></g><g id="Solid"><path d="M98.91 321.21 L98.91 321.21 L99.21 321.38 L99.21 321.73 L87.04 328.75 L86.74 328.58 L86.74 328.23 Z" stroke="rgb(0, 0, 0)" stroke-width="0" fill-rule="evenodd" stroke-linejoin="miter" fill="rgb(0, 0, 0)" shape-rendering="geometricPrecision" /></g><g id="Solid"><path d="M111.99 328.75 L111.99 328.75 L111.69 328.58 L111.69 328.23 L123.86 321.21 L124.16 321.38 L124.46 321.55 Z" stroke="rgb(0, 0, 0)" stroke-width="0" fill-rule="evenodd" stroke-linejoin="miter" fill="rgb(0, 0, 0)" shape-rendering="geometricPrecision" /></g><g id="Solid"><path d="M124.46 321.55 L124.46 321.55 L124.16 321.38 L123.86 321.21 L123.86 307.15 L124.16 306.98 L124.46 307.15 Z" stroke="rgb(0, 0, 0)" stroke-width="0" fill-rule="evenodd" stroke-linejoin="miter" fill="rgb(0, 0, 0)" shape-rendering="geometricPrecision" /><line x1="121.57" y1="319.88" x2="121.57" y2="308.48" stroke="rgb(0, 0, 0)" stroke-width="0.6" shape-rendering="auto" /></g><g id="Solid"><path d="M124.16 306.63 L124.16 306.63 L124.16 306.98 L123.86 307.15 L111.69 300.13 L111.69 299.78 L111.69 299.43 Z" stroke="rgb(0, 0, 0)" stroke-width="0" fill-rule="evenodd" stroke-linejoin="miter" fill="rgb(0, 0, 0)" shape-rendering="geometricPrecision" /></g><g id="Solid"><path d="M111.69 299.43 L111.69 299.43 L111.69 299.78 L111.69 300.13 L99.51 307.15 L99.21 306.98 L98.91 306.81 Z" stroke="rgb(0, 0, 0)" stroke-width="0" fill-rule="evenodd" stroke-linejoin="miter" fill="rgb(0, 0, 0)" shape-rendering="geometricPrecision" /></g><g id="Solid"><path d="M98.91 306.81 L98.91 306.81 L99.21 306.98 L99.51 307.15 L99.51 320.81 L99.21 321.38 L98.91 321.21 Z" stroke="rgb(0, 0, 0)" stroke-width="0" fill-rule="evenodd" stroke-linejoin="miter" fill="rgb(0, 0, 0)" shape-rendering="geometricPrecision" /></g><g id="Solid"><path d="M73.78 350.24 L73.78 350.24 L74.27 350.18 L74.27 350.6 L64.3 360.57 L64.09 360.36 L63.88 360.15 Z" stroke="rgb(0, 0, 0)" stroke-width="0" fill-rule="evenodd" stroke-linejoin="miter" fill="rgb(0, 0, 0)" shape-rendering="geometricPrecision" /></g><g id="Solid"><path d="M74.27 350.6 L74.27 350.6 L74.27 350.18 L74.76 350.24 L84.67 360.15 L84.46 360.36 L84.25 360.57 Z" stroke="rgb(0, 0, 0)" stroke-width="0" fill-rule="evenodd" stroke-linejoin="miter" fill="rgb(0, 0, 0)" shape-rendering="geometricPrecision" /></g><g id="Solid"><path d="M124.46 307.15 L124.46 307.15 L124.16 306.98 L124.16 306.63 L136.33 299.61 L136.63 299.78 L136.63 300.13 Z" stroke="rgb(0, 0, 0)" stroke-width="0" fill-rule="evenodd" stroke-linejoin="miter" fill="rgb(0, 0, 0)" shape-rendering="geometricPrecision" /></g><g id="Solid"><path d="M136.63 300.13 L136.63 300.13 L136.63 299.78 L136.93 299.61 L149.25 306.72 L149.1 306.98 L148.95 307.24 Z" stroke="rgb(0, 0, 0)" stroke-width="0" fill-rule="evenodd" stroke-linejoin="miter" fill="rgb(0, 0, 0)" shape-rendering="geometricPrecision" /></g><g id="Solid"><path d="M136.93 299.61 L136.93 299.61 L136.63 299.78 L136.33 299.61 L136.33 285.38 L136.63 285.38 L136.93 285.38 Z" stroke="rgb(0, 0, 0)" stroke-width="0" fill-rule="evenodd" stroke-linejoin="miter" fill="rgb(0, 0, 0)" shape-rendering="geometricPrecision" /></g><g><text xml:space="preserve" text-anchor="start" text-rendering="geometricPrecision"><tspan x="107.79" y="289.28" font-family="Arial" font-size="10" fill="rgb(0, 0, 0)">O</tspan></text></g><g id="Solid"><line x1="110.39" y1="299.78" x2="110.39" y2="291.1" stroke="rgb(0, 0, 0)" stroke-width="0.6" shape-rendering="auto" /><path d="M112.69 300.01 L112.69 300.01 L113.29 300.36 L113.29 291.1 L112.69 291.1 Z" stroke="rgb(0, 0, 0)" stroke-width="0" fill-rule="evenodd" stroke-linejoin="miter" fill="rgb(0, 0, 0)" shape-rendering="geometricPrecision" /><path d="M110.09 300.35 L110.09 300.35 L110.69 300.01 L110.69 291.1 L110.09 291.1 Z" stroke="rgb(0, 0, 0)" stroke-width="0" fill-rule="evenodd" stroke-linejoin="miter" fill="rgb(0, 0, 0)" shape-rendering="geometricPrecision" /></g><g><text xml:space="preserve" text-anchor="start" text-rendering="geometricPrecision"><tspan x="82.84" y="303.68" font-family="Arial" font-size="10" fill="rgb(0, 0, 0)">O</tspan></text></g><g id="Solid"><line x1="98.56" y1="308.1" x2="90.94" y2="303.7" stroke="rgb(0, 0, 0)" stroke-width="0.6" shape-rendering="auto" /><path d="M99.91 306.23 L99.91 306.23 L100.51 305.89 L92.38 301.2 L92.08 301.72 Z" stroke="rgb(0, 0, 0)" stroke-width="0" fill-rule="evenodd" stroke-linejoin="miter" fill="rgb(0, 0, 0)" shape-rendering="geometricPrecision" /><path d="M98.91 308.65 L98.91 308.65 L98.91 307.96 L91.09 303.44 L90.79 303.96 Z" stroke="rgb(0, 0, 0)" stroke-width="0" fill-rule="evenodd" stroke-linejoin="miter" fill="rgb(0, 0, 0)" shape-rendering="geometricPrecision" /></g><g><text xml:space="preserve" text-anchor="start" text-rendering="geometricPrecision"><tspan x="83.14" y="318.08" font-family="Arial" font-size="10" fill="rgb(0, 0, 0)">H</tspan></text></g><g id="Wedged Hash Begin Bond"><path d="M87.04 328.58 L87.04 328.58 L86.44 328.58 L86.36 327.98 L87.12 327.98 Z" stroke="rgb(0, 0, 0)" stroke-width="0" fill-rule="evenodd" stroke-linejoin="miter" fill="rgb(0, 0, 0)" shape-rendering="geometricPrecision" /><path d="M87.41 325.82 L87.41 325.82 L86.07 325.82 L85.99 325.22 L87.49 325.22 Z" stroke="rgb(0, 0, 0)" stroke-width="0" fill-rule="evenodd" stroke-linejoin="miter" fill="rgb(0, 0, 0)" shape-rendering="geometricPrecision" /><path d="M87.79 323.06 L87.79 323.06 L85.69 323.06 L85.61 322.46 L87.87 322.46 Z" stroke="rgb(0, 0, 0)" stroke-width="0" fill-rule="evenodd" stroke-linejoin="miter" fill="rgb(0, 0, 0)" shape-rendering="geometricPrecision" /><path d="M88.16 320.3 L88.16 320.3 L85.32 320.3 L85.24 319.7 L88.24 319.7 Z" stroke="rgb(0, 0, 0)" stroke-width="0" fill-rule="evenodd" stroke-linejoin="miter" fill="rgb(0, 0, 0)" shape-rendering="geometricPrecision" /></g><g><text xml:space="preserve" text-anchor="start" text-rendering="geometricPrecision"><tspan x="108.09" y="318.08" font-family="Arial" font-size="10" fill="rgb(0, 0, 0)">H</tspan></text></g><g id="WedgeBegin"><path d="M99.86 321.41 L99.86 321.41 L99.21 321.38 L99.51 320.81 L106.76 315.29 L107.51 316.59 L108.26 317.89 Z" stroke="rgb(0, 0, 0)" stroke-width="0" fill-rule="evenodd" stroke-linejoin="miter" fill="rgb(0, 0, 0)" shape-rendering="geometricPrecision" /></g><g><text xml:space="preserve" text-anchor="start" text-rendering="geometricPrecision"><tspan x="120.56" y="339.68" font-family="Arial" font-size="10" fill="rgb(0, 0, 0)">H</tspan></text></g><g id="Wedged Hash Begin Bond"><path d="M111.54 328.84 L111.54 328.84 L111.84 328.32 L112.4 328.56 L112.02 329.2 Z" stroke="rgb(0, 0, 0)" stroke-width="0" fill-rule="evenodd" stroke-linejoin="miter" fill="rgb(0, 0, 0)" shape-rendering="geometricPrecision" /><path d="M113.95 330.67 L113.95 330.67 L114.63 329.5 L115.19 329.73 L114.44 331.03 Z" stroke="rgb(0, 0, 0)" stroke-width="0" fill-rule="evenodd" stroke-linejoin="miter" fill="rgb(0, 0, 0)" shape-rendering="geometricPrecision" /><path d="M116.37 332.49 L116.37 332.49 L117.42 330.67 L117.98 330.91 L116.85 332.86 Z" stroke="rgb(0, 0, 0)" stroke-width="0" fill-rule="evenodd" stroke-linejoin="miter" fill="rgb(0, 0, 0)" shape-rendering="geometricPrecision" /><path d="M118.78 334.32 L118.78 334.32 L120.21 331.85 L120.76 332.09 L119.26 334.69 Z" stroke="rgb(0, 0, 0)" stroke-width="0" fill-rule="evenodd" stroke-linejoin="miter" fill="rgb(0, 0, 0)" shape-rendering="geometricPrecision" /></g></g></g></svg>