<?xml version="1.0"?><svg xmlns="http://www.w3.org/2000/svg" xmlns:xlink="http://www.w3.org/1999/xlink" viewBox="48.22 302.75 79.17 74.77" preserveAspectRatio="xMidYMid" width="100%" height="100%"><clipPath id="4861"><rect x="0.3" y="0.3" width="522.6" height="769.2" /></clipPath><g id="drawing"><rect x="48.22" y="302.75" width="100%" height="100%" fill="rgb(255, 255, 255)" /><g id="page" clip-path="url(#4861)"><g id="Solid"><path d="M62.36 337.33 L62.36 337.33 L62.66 337.5 L62.96 337.67 L62.96 351.73 L62.66 351.9 L62.36 352.07 Z" stroke="rgb(0, 0, 0)" stroke-width="0" fill-rule="evenodd" stroke-linejoin="miter" fill="rgb(0, 0, 0)" shape-rendering="geometricPrecision" /><line x1="65.25" y1="339" x2="65.25" y2="350.4" stroke="rgb(0, 0, 0)" stroke-width="0.6" shape-rendering="auto" /></g><g id="Solid"><path d="M62.36 352.07 L62.36 352.07 L62.66 351.9 L62.96 351.73 L75.13 358.75 L75.13 359.1 L75.13 359.45 Z" stroke="rgb(0, 0, 0)" stroke-width="0" fill-rule="evenodd" stroke-linejoin="miter" fill="rgb(0, 0, 0)" shape-rendering="geometricPrecision" /></g><g id="Solid"><path d="M75.13 359.45 L75.13 359.45 L75.13 359.1 L75.13 358.75 L87.3 351.73 L87.6 351.9 L87.9 352.07 Z" stroke="rgb(0, 0, 0)" stroke-width="0" fill-rule="evenodd" stroke-linejoin="miter" fill="rgb(0, 0, 0)" shape-rendering="geometricPrecision" /></g><g id="Solid"><path d="M87.9 352.07 L87.9 352.07 L87.6 351.9 L87.3 351.73 L87.3 337.67 L87.6 337.5 L87.9 337.33 Z" stroke="rgb(0, 0, 0)" stroke-width="0" fill-rule="evenodd" stroke-linejoin="miter" fill="rgb(0, 0, 0)" shape-rendering="geometricPrecision" /><line x1="85.01" y1="350.4" x2="85.01" y2="339" stroke="rgb(0, 0, 0)" stroke-width="0.6" shape-rendering="auto" /></g><g id="Solid"><path d="M87.9 337.33 L87.9 337.33 L87.6 337.5 L87.3 337.67 L75.13 330.65 L75.13 330.3 L75.67 330.26 Z" stroke="rgb(0, 0, 0)" stroke-width="0" fill-rule="evenodd" stroke-linejoin="miter" fill="rgb(0, 0, 0)" shape-rendering="geometricPrecision" /></g><g id="Solid"><path d="M74.94 330.06 L74.94 330.06 L75.13 330.3 L75.13 330.65 L62.96 337.67 L62.66 337.5 L62.36 337.33 Z" stroke="rgb(0, 0, 0)" stroke-width="0" fill-rule="evenodd" stroke-linejoin="miter" fill="rgb(0, 0, 0)" shape-rendering="geometricPrecision" /></g><g><text xml:space="preserve" text-anchor="start" text-rendering="geometricPrecision"><tspan x="71.23" y="377.4" font-family="Arial" font-size="10" fill="rgb(0, 0, 0)">OH</tspan></text></g><g id="Wedged Hash Begin Bond"><path d="M74.83 359.1 L74.83 359.1 L75.43 359.1 L75.51 359.7 L74.75 359.7 Z" stroke="rgb(0, 0, 0)" stroke-width="0" fill-rule="evenodd" stroke-linejoin="miter" fill="rgb(0, 0, 0)" shape-rendering="geometricPrecision" /><path d="M74.46 362.07 L74.46 362.07 L75.8 362.07 L75.88 362.67 L74.38 362.67 Z" stroke="rgb(0, 0, 0)" stroke-width="0" fill-rule="evenodd" stroke-linejoin="miter" fill="rgb(0, 0, 0)" shape-rendering="geometricPrecision" /><path d="M74.08 365.03 L74.08 365.03 L76.18 365.03 L76.26 365.63 L74 365.63 Z" stroke="rgb(0, 0, 0)" stroke-width="0" fill-rule="evenodd" stroke-linejoin="miter" fill="rgb(0, 0, 0)" shape-rendering="geometricPrecision" /><path d="M73.71 368 L73.71 368 L76.55 368 L76.63 368.6 L73.63 368.6 Z" stroke="rgb(0, 0, 0)" stroke-width="0" fill-rule="evenodd" stroke-linejoin="miter" fill="rgb(0, 0, 0)" shape-rendering="geometricPrecision" /></g><g><text xml:space="preserve" text-anchor="start" text-rendering="geometricPrecision"><tspan x="94.73" y="345.86" font-family="Arial" font-size="10" fill="rgb(0, 0, 0)">O</tspan></text></g><g id="Solid"><line x1="97.33" y1="337" x2="97.33" y2="327.56" stroke="rgb(0, 0, 0)" stroke-width="0.6" shape-rendering="auto" /><path d="M99.63 337 L99.63 337 L100.23 337 L100.23 326.99 L99.63 327.33 Z" stroke="rgb(0, 0, 0)" stroke-width="0" fill-rule="evenodd" stroke-linejoin="miter" fill="rgb(0, 0, 0)" shape-rendering="geometricPrecision" /><path d="M97.03 337 L97.03 337 L97.63 337 L97.63 327.33 L97.03 326.98 Z" stroke="rgb(0, 0, 0)" stroke-width="0" fill-rule="evenodd" stroke-linejoin="miter" fill="rgb(0, 0, 0)" shape-rendering="geometricPrecision" /></g><g id="Solid"><path d="M98.63 327.21 L98.63 327.21 L98.63 327.56 L98.63 327.91 L87.3 321.37 L86.16 320.36 L85.04 319.37 Z" stroke="rgb(0, 0, 0)" stroke-width="0" fill-rule="evenodd" stroke-linejoin="miter" fill="rgb(0, 0, 0)" shape-rendering="geometricPrecision" /></g><g><text xml:space="preserve" text-anchor="start" text-rendering="geometricPrecision"><tspan x="107.51" y="324.26" font-family="Arial" font-size="10" fill="rgb(0, 0, 0)">CO</tspan><tspan font-family="Arial" dy="2.26" font-size="7.5" fill="rgb(0, 0, 0)">2</tspan></text></g><g id="Solid"><path d="M98.63 327.91 L98.63 327.91 L98.63 327.56 L98.63 327.21 L106.66 322.58 L106.81 322.84 L106.96 323.1 Z" stroke="rgb(0, 0, 0)" stroke-width="0" fill-rule="evenodd" stroke-linejoin="miter" fill="rgb(0, 0, 0)" shape-rendering="geometricPrecision" /></g><g><text xml:space="preserve" text-anchor="end" text-rendering="geometricPrecision"><tspan x="71.73" y="320.3" font-family="Arial" font-size="10" fill="rgb(0, 0, 0)">O</tspan><tspan font-family="Arial" dy="2.26" font-size="7.5" fill="rgb(0, 0, 0)">2</tspan><tspan font-family="Arial" dy="-2.26" font-size="10" fill="rgb(0, 0, 0)">C</tspan></text></g><g id="Wedged Hash Begin Bond"><path d="M75.4 330.17 L75.4 330.17 L74.86 330.43 L74.52 329.93 L75.2 329.6 Z" stroke="rgb(0, 0, 0)" stroke-width="0" fill-rule="evenodd" stroke-linejoin="miter" fill="rgb(0, 0, 0)" shape-rendering="geometricPrecision" /><path d="M74.4 327.35 L74.4 327.35 L73.2 327.96 L72.86 327.46 L74.2 326.78 Z" stroke="rgb(0, 0, 0)" stroke-width="0" fill-rule="evenodd" stroke-linejoin="miter" fill="rgb(0, 0, 0)" shape-rendering="geometricPrecision" /><path d="M73.4 324.54 L73.4 324.54 L71.53 325.48 L71.19 324.98 L73.2 323.97 Z" stroke="rgb(0, 0, 0)" stroke-width="0" fill-rule="evenodd" stroke-linejoin="miter" fill="rgb(0, 0, 0)" shape-rendering="geometricPrecision" /><path d="M72.41 321.72 L72.41 321.72 L69.86 323.01 L69.52 322.5 L72.2 321.15 Z" stroke="rgb(0, 0, 0)" stroke-width="0" fill-rule="evenodd" stroke-linejoin="miter" fill="rgb(0, 0, 0)" shape-rendering="geometricPrecision" /></g><g id="Charge4839"><circle cx="52.15" cy="306.69" r="3.33333333333333" stroke="rgb(0, 0, 0)" stroke-width="0.48" fill="none" /><line x1="50.18" y1="306.69" x2="54.12" y2="306.69" stroke="rgb(0, 0, 0)" stroke-width="0.48" shape-rendering="auto" /></g><g id="Charge4840"><circle cx="123.46" cy="309.99" r="3.33133569771409" stroke="rgb(0, 0, 0)" stroke-width="0.48" fill="none" /><line x1="121.49" y1="309.99" x2="125.43" y2="309.99" stroke="rgb(0, 0, 0)" stroke-width="0.48" shape-rendering="auto" /></g><g id="WedgeBegin"><path d="M75.67 330.26 L75.67 330.26 L75.13 330.3 L74.94 330.06 L85.04 319.37 L86.16 320.36 L87.3 321.37 Z" stroke="rgb(0, 0, 0)" stroke-width="0" fill-rule="evenodd" stroke-linejoin="miter" fill="rgb(0, 0, 0)" shape-rendering="geometricPrecision" /></g></g></g></svg>