<?xml version="1.0"?><svg xmlns="http://www.w3.org/2000/svg" xmlns:xlink="http://www.w3.org/1999/xlink" viewBox="48.22 270.68 91.78 82.09" preserveAspectRatio="xMidYMid" width="100%" height="100%"><clipPath id="4872"><rect x="0.3" y="0.3" width="522.6" height="769.2" /></clipPath><g id="drawing"><rect x="48.22" y="270.68" width="100%" height="100%" fill="rgb(255, 255, 255)" /><g id="page" clip-path="url(#4872)"><g id="Solid"><path d="M62.36 312.58 L62.36 312.58 L62.66 312.75 L62.96 312.92 L62.96 326.98 L62.66 327.15 L62.36 327.32 Z" stroke="rgb(0, 0, 0)" stroke-width="0" fill-rule="evenodd" stroke-linejoin="miter" fill="rgb(0, 0, 0)" shape-rendering="geometricPrecision" /><line x1="65.25" y1="314.25" x2="65.25" y2="325.65" stroke="rgb(0, 0, 0)" stroke-width="0.6" shape-rendering="auto" /></g><g id="Solid"><path d="M62.36 327.32 L62.36 327.32 L62.66 327.15 L62.96 326.98 L75.13 334 L75.13 334.35 L74.82 334.52 Z" stroke="rgb(0, 0, 0)" stroke-width="0" fill-rule="evenodd" stroke-linejoin="miter" fill="rgb(0, 0, 0)" shape-rendering="geometricPrecision" /></g><g id="Solid"><path d="M75.44 334.52 L75.44 334.52 L75.13 334.35 L75.13 334 L87.3 326.98 L87.6 327.15 L87.9 327.32 Z" stroke="rgb(0, 0, 0)" stroke-width="0" fill-rule="evenodd" stroke-linejoin="miter" fill="rgb(0, 0, 0)" shape-rendering="geometricPrecision" /></g><g id="Solid"><path d="M87.9 327.32 L87.9 327.32 L87.6 327.15 L87.3 326.98 L87.3 312.92 L87.6 312.75 L87.9 312.58 Z" stroke="rgb(0, 0, 0)" stroke-width="0" fill-rule="evenodd" stroke-linejoin="miter" fill="rgb(0, 0, 0)" shape-rendering="geometricPrecision" /><line x1="85.01" y1="325.65" x2="85.01" y2="314.25" stroke="rgb(0, 0, 0)" stroke-width="0.6" shape-rendering="auto" /></g><g id="Solid"><path d="M87.9 312.58 L87.9 312.58 L87.6 312.75 L87.3 312.92 L75.13 305.9 L75.13 305.55 L75.67 305.51 Z" stroke="rgb(0, 0, 0)" stroke-width="0" fill-rule="evenodd" stroke-linejoin="miter" fill="rgb(0, 0, 0)" shape-rendering="geometricPrecision" /></g><g id="Solid"><path d="M74.94 305.31 L74.94 305.31 L75.13 305.55 L75.13 305.9 L62.96 312.92 L62.66 312.75 L62.36 312.58 Z" stroke="rgb(0, 0, 0)" stroke-width="0" fill-rule="evenodd" stroke-linejoin="miter" fill="rgb(0, 0, 0)" shape-rendering="geometricPrecision" /></g><g><text xml:space="preserve" text-anchor="start" text-rendering="geometricPrecision"><tspan x="71.23" y="352.65" font-family="Arial" font-size="10" fill="rgb(0, 0, 0)">OH</tspan></text></g><g id="WedgeBegin"><path d="M74.82 334.52 L74.82 334.52 L75.13 334.35 L75.44 334.52 L76.63 343.8 L75.13 343.8 L73.63 343.8 Z" stroke="rgb(0, 0, 0)" stroke-width="0" fill-rule="evenodd" stroke-linejoin="miter" fill="rgb(0, 0, 0)" shape-rendering="geometricPrecision" /></g><g><text xml:space="preserve" text-anchor="end" text-rendering="geometricPrecision"><tspan x="71.73" y="295.55" font-family="Arial" font-size="10" fill="rgb(0, 0, 0)">O</tspan><tspan font-family="Arial" dy="2.26" font-size="7.5" fill="rgb(0, 0, 0)">2</tspan><tspan font-family="Arial" dy="-2.26" font-size="10" fill="rgb(0, 0, 0)">C</tspan></text></g><g id="Wedged Hash Begin Bond"><path d="M75.4 305.42 L75.4 305.42 L74.86 305.68 L74.52 305.18 L75.2 304.84 Z" stroke="rgb(0, 0, 0)" stroke-width="0" fill-rule="evenodd" stroke-linejoin="miter" fill="rgb(0, 0, 0)" shape-rendering="geometricPrecision" /><path d="M74.41 302.62 L74.41 302.62 L73.2 303.23 L72.87 302.72 L74.21 302.05 Z" stroke="rgb(0, 0, 0)" stroke-width="0" fill-rule="evenodd" stroke-linejoin="miter" fill="rgb(0, 0, 0)" shape-rendering="geometricPrecision" /><path d="M73.42 299.82 L73.42 299.82 L71.55 300.77 L71.21 300.26 L73.22 299.25 Z" stroke="rgb(0, 0, 0)" stroke-width="0" fill-rule="evenodd" stroke-linejoin="miter" fill="rgb(0, 0, 0)" shape-rendering="geometricPrecision" /><path d="M72.43 297.02 L72.43 297.02 L69.89 298.31 L69.55 297.8 L72.23 296.45 Z" stroke="rgb(0, 0, 0)" stroke-width="0" fill-rule="evenodd" stroke-linejoin="miter" fill="rgb(0, 0, 0)" shape-rendering="geometricPrecision" /></g><g id="Charge4839"><circle cx="52.15" cy="281.94" r="3.33333333333333" stroke="rgb(0, 0, 0)" stroke-width="0.48" fill="none" /><line x1="50.18" y1="281.94" x2="54.12" y2="281.94" stroke="rgb(0, 0, 0)" stroke-width="0.48" shape-rendering="auto" /></g><g id="WedgeBegin"><path d="M75.67 305.51 L75.67 305.51 L75.13 305.55 L74.94 305.31 L84.75 294.92 L86.16 295.61 L87.68 296.33 Z" stroke="rgb(0, 0, 0)" stroke-width="0" fill-rule="evenodd" stroke-linejoin="miter" fill="rgb(0, 0, 0)" shape-rendering="geometricPrecision" /></g><g id="Solid"><path d="M87.68 296.33 L87.68 296.33 L86.16 295.61 L84.75 294.92 L99.98 299 L100.07 299.33 L100.16 299.66 Z" stroke="rgb(0, 0, 0)" stroke-width="0" fill-rule="evenodd" stroke-linejoin="miter" fill="rgb(0, 0, 0)" shape-rendering="geometricPrecision" /></g><g id="Solid"><path d="M100.16 299.66 L100.16 299.66 L100.07 299.33 L99.98 299 L110.17 288.82 L110.26 289.15 L110.35 289.48 Z" stroke="rgb(0, 0, 0)" stroke-width="0" fill-rule="evenodd" stroke-linejoin="miter" fill="rgb(0, 0, 0)" shape-rendering="geometricPrecision" /></g><g id="Solid"><path d="M110.35 289.48 L110.35 289.48 L110.26 289.15 L110.17 288.82 L119.73 291.38 L119.65 291.67 L119.58 291.96 Z" stroke="rgb(0, 0, 0)" stroke-width="0" fill-rule="evenodd" stroke-linejoin="miter" fill="rgb(0, 0, 0)" shape-rendering="geometricPrecision" /></g><g><text xml:space="preserve" text-anchor="start" text-rendering="geometricPrecision"><tspan x="120.57" y="296.78" font-family="Arial" font-size="10" fill="rgb(0, 0, 0)">CO</tspan><tspan font-family="Arial" dy="2.26" font-size="7.5" fill="rgb(0, 0, 0)">2</tspan></text></g><g id="Solid"><line x1="109.01" y1="289.49" x2="106.78" y2="281.18" stroke="rgb(0, 0, 0)" stroke-width="0.6" shape-rendering="auto" /><path d="M111.28 289.11 L111.28 289.11 L111.95 289.29 L109.57 280.43 L109 280.59 Z" stroke="rgb(0, 0, 0)" stroke-width="0" fill-rule="evenodd" stroke-linejoin="miter" fill="rgb(0, 0, 0)" shape-rendering="geometricPrecision" /><path d="M108.87 290.12 L108.87 290.12 L109.36 289.63 L107.07 281.1 L106.49 281.26 Z" stroke="rgb(0, 0, 0)" stroke-width="0" fill-rule="evenodd" stroke-linejoin="miter" fill="rgb(0, 0, 0)" shape-rendering="geometricPrecision" /></g><g><text xml:space="preserve" text-anchor="start" text-rendering="geometricPrecision"><tspan x="102.63" y="279.14" font-family="Arial" font-size="10" fill="rgb(0, 0, 0)">O</tspan></text></g><g id="Charge4851"><circle cx="135.38" cy="281.25" r="3.33333333333333" stroke="rgb(0, 0, 0)" stroke-width="0.48" fill="none" /><line x1="133.41" y1="281.25" x2="137.35" y2="281.25" stroke="rgb(0, 0, 0)" stroke-width="0.48" shape-rendering="auto" /></g></g></g></svg>