<?xml version="1.0"?><svg xmlns="http://www.w3.org/2000/svg" xmlns:xlink="http://www.w3.org/1999/xlink" viewBox="47.08 214.8 171.79 45.46" preserveAspectRatio="xMidYMid" width="100%" height="100%"><clipPath id="61"><rect x="0.3" y="0.3" width="539.4" height="719.15" /></clipPath><g id="drawing"><rect x="47.08" y="214.8" width="100%" height="100%" fill="rgb(255, 255, 255)" /><g id="page" clip-path="url(#61)"><g><text xml:space="preserve" text-anchor="start" text-rendering="geometricPrecision"><tspan x="47.08" y="239.28" font-family="Arial" font-size="10" fill="rgb(0, 0, 0)">H</tspan></text></g><g id="Solid"><path d="M50.38 240.9 L50.38 240.9 L50.68 240.9 L50.98 240.9 L50.98 249.66 L50.68 249.78 L50.38 249.9 Z" stroke="rgb(0, 0, 0)" stroke-width="0" fill-rule="evenodd" stroke-linejoin="miter" fill="rgb(0, 0, 0)" shape-rendering="geometricPrecision" /></g><g id="Solid"><path d="M50.38 249.9 L50.38 249.9 L50.68 249.78 L50.98 249.66 L60.98 259.66 L60.86 259.96 L60.74 260.26 Z" stroke="rgb(0, 0, 0)" stroke-width="0" fill-rule="evenodd" stroke-linejoin="miter" fill="rgb(0, 0, 0)" shape-rendering="geometricPrecision" /></g><g id="Solid"><path d="M60.74 260.26 L60.74 260.26 L60.86 259.96 L60.98 259.66 L75.14 259.66 L75.26 259.96 L75.38 260.26 Z" stroke="rgb(0, 0, 0)" stroke-width="0" fill-rule="evenodd" stroke-linejoin="miter" fill="rgb(0, 0, 0)" shape-rendering="geometricPrecision" /><line x1="61.93" y1="257.37" x2="74.19" y2="257.37" stroke="rgb(0, 0, 0)" stroke-width="0.6" shape-rendering="auto" /></g><g id="Solid"><path d="M75.38 260.26 L75.38 260.26 L75.26 259.96 L75.14 259.66 L85.14 249.66 L85.44 249.78 L85.74 249.9 Z" stroke="rgb(0, 0, 0)" stroke-width="0" fill-rule="evenodd" stroke-linejoin="miter" fill="rgb(0, 0, 0)" shape-rendering="geometricPrecision" /></g><g id="Solid"><path d="M85.74 249.9 L85.74 249.9 L85.44 249.78 L85.14 249.66 L85.14 235.5 L85.44 235.38 L85.74 235.26 Z" stroke="rgb(0, 0, 0)" stroke-width="0" fill-rule="evenodd" stroke-linejoin="miter" fill="rgb(0, 0, 0)" shape-rendering="geometricPrecision" /><line x1="82.85" y1="248.71" x2="82.85" y2="236.45" stroke="rgb(0, 0, 0)" stroke-width="0.6" shape-rendering="auto" /></g><g id="Solid"><path d="M85.74 235.26 L85.74 235.26 L85.44 235.38 L85.14 235.5 L75.14 225.5 L75.26 225.2 L75.38 224.9 Z" stroke="rgb(0, 0, 0)" stroke-width="0" fill-rule="evenodd" stroke-linejoin="miter" fill="rgb(0, 0, 0)" shape-rendering="geometricPrecision" /></g><g id="Solid"><path d="M75.38 224.9 L75.38 224.9 L75.26 225.2 L75.14 225.5 L60.74 225.5 L60.86 225.2 L60.98 224.9 Z" stroke="rgb(0, 0, 0)" stroke-width="0" fill-rule="evenodd" stroke-linejoin="miter" fill="rgb(0, 0, 0)" shape-rendering="geometricPrecision" /><line x1="74.19" y1="227.79" x2="60.86" y2="227.79" stroke="rgb(0, 0, 0)" stroke-width="0.6" shape-rendering="auto" /></g><g id="Solid"><path d="M60.98 224.9 L60.98 224.9 L60.86 225.2 L60.74 225.5 L50.47 215.22 L50.68 215.01 L50.89 214.8 Z" stroke="rgb(0, 0, 0)" stroke-width="0" fill-rule="evenodd" stroke-linejoin="miter" fill="rgb(0, 0, 0)" shape-rendering="geometricPrecision" /></g><g id="Arrow"><line x1="152.31" y1="237.72" x2="116.06" y2="237.72" stroke="rgb(0, 0, 0)" stroke-width="0.6" shape-rendering="auto" /><path d="M156.56 237.72 L150.56 236.22 C151.75 237.06 151.75 238.38 150.56 239.22 Z" stroke="rgb(0, 0, 0)" stroke-width="0" fill-rule="evenodd" stroke-linejoin="miter" stroke-miterlimit="6.93525005514877" fill="rgb(0, 0, 0)" shape-rendering="geometricPrecision" /></g><g><text xml:space="preserve" text-anchor="start" text-rendering="geometricPrecision"><tspan x="180.21" y="239.28" font-family="Arial" font-size="10" fill="rgb(0, 0, 0)">H</tspan></text></g><g id="Solid"><path d="M183.6 249.99 L183.6 249.99 L183.81 249.78 L184.02 249.57 L194.11 259.66 L193.99 259.96 L193.87 260.26 Z" stroke="rgb(0, 0, 0)" stroke-width="0" fill-rule="evenodd" stroke-linejoin="miter" fill="rgb(0, 0, 0)" shape-rendering="geometricPrecision" /><line x1="185.64" y1="247.95" x2="195.06" y2="257.37" stroke="rgb(0, 0, 0)" stroke-width="0.6" shape-rendering="auto" /></g><g id="Solid"><path d="M193.87 260.26 L193.87 260.26 L193.99 259.96 L194.11 259.66 L208.27 259.66 L208.39 259.96 L208.51 260.26 Z" stroke="rgb(0, 0, 0)" stroke-width="0" fill-rule="evenodd" stroke-linejoin="miter" fill="rgb(0, 0, 0)" shape-rendering="geometricPrecision" /></g><g id="Solid"><path d="M208.51 260.26 L208.51 260.26 L208.39 259.96 L208.27 259.66 L218.27 249.66 L218.57 249.78 L218.87 249.9 Z" stroke="rgb(0, 0, 0)" stroke-width="0" fill-rule="evenodd" stroke-linejoin="miter" fill="rgb(0, 0, 0)" shape-rendering="geometricPrecision" /><line x1="207.32" y1="257.37" x2="215.98" y2="248.71" stroke="rgb(0, 0, 0)" stroke-width="0.6" shape-rendering="auto" /></g><g id="Solid"><path d="M218.87 249.9 L218.87 249.9 L218.57 249.78 L218.27 249.66 L218.27 235.5 L218.57 235.38 L218.87 235.26 Z" stroke="rgb(0, 0, 0)" stroke-width="0" fill-rule="evenodd" stroke-linejoin="miter" fill="rgb(0, 0, 0)" shape-rendering="geometricPrecision" /></g><g id="Solid"><path d="M218.87 235.26 L218.87 235.26 L218.57 235.38 L218.27 235.5 L208.27 225.5 L208.39 225.2 L208.51 224.9 Z" stroke="rgb(0, 0, 0)" stroke-width="0" fill-rule="evenodd" stroke-linejoin="miter" fill="rgb(0, 0, 0)" shape-rendering="geometricPrecision" /><line x1="215.98" y1="236.45" x2="207.32" y2="227.79" stroke="rgb(0, 0, 0)" stroke-width="0.6" shape-rendering="auto" /></g><g id="Solid"><path d="M208.51 224.9 L208.51 224.9 L208.39 225.2 L208.27 225.5 L194.11 225.5 L193.99 225.2 L194.11 224.9 Z" stroke="rgb(0, 0, 0)" stroke-width="0" fill-rule="evenodd" stroke-linejoin="miter" fill="rgb(0, 0, 0)" shape-rendering="geometricPrecision" /></g><g id="Solid"><path d="M193.57 225.2 L193.57 225.2 L193.99 225.2 L194.11 225.5 L188.04 231.57 L187.83 231.36 L187.62 231.15 Z" stroke="rgb(0, 0, 0)" stroke-width="0" fill-rule="evenodd" stroke-linejoin="miter" fill="rgb(0, 0, 0)" shape-rendering="geometricPrecision" /></g><g id="Solid"><path d="M194.11 224.9 L194.11 224.9 L193.99 225.2 L193.57 225.2 L183.6 215.22 L183.81 215.01 L184.02 214.8 Z" stroke="rgb(0, 0, 0)" stroke-width="0" fill-rule="evenodd" stroke-linejoin="miter" fill="rgb(0, 0, 0)" shape-rendering="geometricPrecision" /></g><g id="Arrow"><path d="M68.82 259.25 C68.82 254.67 65.1 250.95 60.53 250.96 C60.29 250.96 60.05 250.97 59.81 250.99 " stroke="rgb(255, 0, 0)" stroke-width="0.6" fill-rule="evenodd" stroke-linejoin="bevel" fill="none" shape-rendering="geometricPrecision" /><path d="M56.38 252.07 L61.33 251.96 C60.15 251.58 59.87 250.57 60.69 249.64 Z" stroke="rgb(255, 0, 0)" stroke-width="0" fill-rule="evenodd" stroke-linejoin="miter" stroke-miterlimit="6.93525005514879" fill="rgb(255, 0, 0)" shape-rendering="geometricPrecision" /></g><g id="Arrow"><path d="M50.82 243 C55.1 243 58.57 239.52 58.56 235.25 C58.56 235.11 58.56 234.97 58.55 234.83 " stroke="rgb(255, 0, 0)" stroke-width="0.6" fill-rule="evenodd" stroke-linejoin="bevel" fill="none" shape-rendering="geometricPrecision" /><path d="M57.52 231.38 L57.55 236.32 C57.95 235.15 58.96 234.89 59.87 235.73 Z" stroke="rgb(255, 0, 0)" stroke-width="0" fill-rule="evenodd" stroke-linejoin="miter" stroke-miterlimit="6.92502954721253" fill="rgb(255, 0, 0)" shape-rendering="geometricPrecision" /></g><g id="Arrow"><path d="M67.3 225.62 C67.3 230.54 71.3 234.54 76.22 234.54 C76.57 234.54 76.92 234.52 77.27 234.48 " stroke="rgb(255, 0, 0)" stroke-width="0.6" fill-rule="evenodd" stroke-linejoin="bevel" fill="none" shape-rendering="geometricPrecision" /><path d="M80.69 233.35 L75.74 233.55 C76.93 233.9 77.22 234.91 76.41 235.85 Z" stroke="rgb(255, 0, 0)" stroke-width="0" fill-rule="evenodd" stroke-linejoin="miter" stroke-miterlimit="6.95145173161743" fill="rgb(255, 0, 0)" shape-rendering="geometricPrecision" /></g><g id="Arrow"><path d="M84.56 242.37 C80.42 242.36 77.06 245.73 77.06 249.87 C77.06 249.97 77.06 250.06 77.06 250.16 " stroke="rgb(255, 0, 0)" stroke-width="0.6" fill-rule="evenodd" stroke-linejoin="bevel" fill="none" shape-rendering="geometricPrecision" /><path d="M78.06 253.62 L78.09 248.67 C77.68 249.84 76.66 250.09 75.75 249.24 Z" stroke="rgb(255, 0, 0)" stroke-width="0" fill-rule="evenodd" stroke-linejoin="miter" stroke-miterlimit="6.93525005514882" fill="rgb(255, 0, 0)" shape-rendering="geometricPrecision" /></g></g></g></svg>