<?xml version="1.0"?><svg xmlns="http://www.w3.org/2000/svg" xmlns:xlink="http://www.w3.org/1999/xlink" viewBox="50.03 21.57 158.88 130.53" preserveAspectRatio="xMidYMid" width="100%" height="100%"><clipPath id="2284"><rect x="0.3" y="0.3" width="522.6" height="769.08" /></clipPath><g id="drawing"><rect x="50.03" y="21.57" width="100%" height="100%" fill="rgb(255, 255, 255)" /><g id="page" clip-path="url(#2284)"><g id="Dash"><g id="Bond's parts"><path d="M102.75 59.25 L102.75 59.25 L103.35 59.25 L103.35 61.75 Z" stroke="rgb(0, 0, 0)" stroke-width="0" fill-rule="evenodd" stroke-linejoin="miter" fill="rgb(0, 0, 0)" shape-rendering="geometricPrecision" /><path d="M102.75 64.65 L102.75 64.65 L103.35 64.65 L103.35 67.15 Z" stroke="rgb(0, 0, 0)" stroke-width="0" fill-rule="evenodd" stroke-linejoin="miter" fill="rgb(0, 0, 0)" shape-rendering="geometricPrecision" /><path d="M102.75 70.05 L102.75 70.05 L103.35 70.05 L103.35 72.55 Z" stroke="rgb(0, 0, 0)" stroke-width="0" fill-rule="evenodd" stroke-linejoin="miter" fill="rgb(0, 0, 0)" shape-rendering="geometricPrecision" /><path d="M102.75 75.45 L102.75 75.45 L103.35 75.45 L103.35 77.95 Z" stroke="rgb(0, 0, 0)" stroke-width="0" fill-rule="evenodd" stroke-linejoin="miter" fill="rgb(0, 0, 0)" shape-rendering="geometricPrecision" /><path d="M102.75 80.95 L102.75 80.95 L103.35 80.95 L103.35 83.45 Z" stroke="rgb(0, 0, 0)" stroke-width="0" fill-rule="evenodd" stroke-linejoin="miter" fill="rgb(0, 0, 0)" shape-rendering="geometricPrecision" /><path d="M102.75 86.35 L102.75 86.35 L103.35 86.35 L103.3 88.95 L103.25 89 L103.2 89.05 L103.1 89.25 L103.05 89.2 L103 89.15 L102.9 88.95 L102.85 88.9 Z" stroke="rgb(0, 0, 0)" stroke-width="0" fill-rule="evenodd" stroke-linejoin="miter" fill="rgb(0, 0, 0)" shape-rendering="geometricPrecision" /></g></g><g id="Solid"><path d="M74.63 113.32 L74.63 113.32 L74.33 113.15 L74.44 112.74 L92.73 102.18 L93.03 102.35 L93.07 102.67 Z" stroke="rgb(0, 0, 0)" stroke-width="0" fill-rule="evenodd" stroke-linejoin="miter" fill="rgb(0, 0, 0)" shape-rendering="geometricPrecision" /></g><g id="Solid"><path d="M93.07 102.67 L93.07 102.67 L93.03 102.35 L93.33 102.12 L113.28 107.46 L113.9 107.94 L114.52 108.42 Z" stroke="rgb(0, 0, 0)" stroke-width="0" fill-rule="evenodd" stroke-linejoin="miter" fill="rgb(0, 0, 0)" shape-rendering="geometricPrecision" /><line x1="96.92" y1="99.37" x2="105.84" y2="101.75" stroke="rgb(0, 0, 0)" stroke-width="0.6" shape-rendering="auto" /></g><g id="Solid"><path d="M114.52 108.42 L114.52 108.42 L113.9 107.94 L113.28 107.46 L102.9 89.49 L103.1 89.23 L103.56 89.42 Z" stroke="rgb(0, 0, 0)" stroke-width="0" fill-rule="evenodd" stroke-linejoin="miter" fill="rgb(0, 0, 0)" shape-rendering="geometricPrecision" /></g><g id="Solid"><path d="M98.05 58.91 L98.05 58.91 L97.91 58.64 L97.77 58.38 L127.27 42.63 L129.48 41.79 L129.61 42.06 Z" stroke="rgb(0, 0, 0)" stroke-width="0" fill-rule="evenodd" stroke-linejoin="miter" fill="rgb(0, 0, 0)" shape-rendering="geometricPrecision" /><line x1="101.06" y1="64.53" x2="132.62" y2="47.68" stroke="rgb(0, 0, 0)" stroke-width="0.6" shape-rendering="auto" /></g><g id="Solid"><path d="M129.39 41.5 L129.39 41.5 L129.48 41.79 L127.27 42.63 L103.4 48.37 L103.1 48.13 L102.8 47.89 Z" stroke="rgb(0, 0, 0)" stroke-width="0" fill-rule="evenodd" stroke-linejoin="miter" fill="rgb(0, 0, 0)" shape-rendering="geometricPrecision" /></g><g><text xml:space="preserve" text-anchor="start" text-rendering="geometricPrecision"><tspan x="148.79" y="36.72" font-family="Arial" font-size="10" fill="rgb(0, 0, 0)">CO</tspan><tspan font-family="Arial" dy="2.26" font-size="7.5" fill="rgb(0, 0, 0)">2</tspan></text></g><g id="Solid"><path d="M129.61 42.06 L129.61 42.06 L129.48 41.79 L129.39 41.5 L147.8 34.29 L147.91 34.57 L148.02 34.85 Z" stroke="rgb(0, 0, 0)" stroke-width="0" fill-rule="evenodd" stroke-linejoin="miter" fill="rgb(0, 0, 0)" shape-rendering="geometricPrecision" /></g><g id="Solid"><g id="Bond's parts"><path d="M82.18 83.4 L82.18 83.4 L82.45 83.4 L82.85 83.5 L83.25 83.6 L83.65 83.7 L83.95 83.8 L84.35 83.9 L84.75 84 L85.15 84.1 L85.45 84.2 L85.85 84.3 L86.25 84.4 L86.55 84.5 L86.95 84.6 L87.35 84.7 L87.75 84.8 L88.05 84.9 L88.45 85 L88.85 85.1 L89.25 85.2 L89.55 85.3 L89.95 85.4 L90.35 85.5 L90.75 85.6 L91.05 85.7 L91.45 85.75 L91.4 86.45 L91.38 86.4 L91.05 86.3 L90.65 86.2 L90.25 86.1 L89.85 86 L89.55 85.9 L89.15 85.8 L88.75 85.7 L88.35 85.6 L88.05 85.5 L87.65 85.4 L87.25 85.3 L86.85 85.2 L86.55 85.1 L86.15 85 L85.75 84.9 L85.45 84.8 L85.05 84.7 L84.65 84.6 L84.25 84.5 L83.95 84.4 L83.55 84.3 L83.15 84.2 L82.75 84.1 L82.45 84 L82.25 83.95 L82.2 83.45 Z" stroke="rgb(0, 0, 0)" stroke-width="0" fill-rule="evenodd" stroke-linejoin="miter" fill="rgb(0, 0, 0)" shape-rendering="geometricPrecision" /><path d="M95.25 86.85 L95.25 86.85 L95.55 86.9 L95.95 87 L96.35 87.1 L96.65 87.2 L97.05 87.3 L97.45 87.4 L97.85 87.5 L98.15 87.6 L98.55 87.7 L98.95 87.8 L99.25 87.9 L99.65 88 L100.05 88.1 L100.45 88.2 L100.75 88.3 L101.15 88.4 L101.55 88.5 L101.95 88.6 L102.25 88.7 L102.65 88.8 L102.88 88.9 L102.9 88.95 L103 89.15 L103 89.35 L102.97 89.4 L102.55 89.4 L102.25 89.3 L101.85 89.2 L101.45 89.1 L101.05 89 L100.75 88.9 L100.35 88.8 L99.95 88.7 L99.55 88.6 L99.25 88.5 L98.85 88.4 L98.45 88.3 L98.05 88.2 L97.75 88.1 L97.35 88 L96.95 87.9 L96.65 87.8 L96.25 87.7 L95.85 87.6 L95.45 87.5 Z" stroke="rgb(0, 0, 0)" stroke-width="0" fill-rule="evenodd" stroke-linejoin="miter" fill="rgb(0, 0, 0)" shape-rendering="geometricPrecision" /></g></g><g><text xml:space="preserve" text-anchor="start" text-rendering="geometricPrecision"><tspan x="89.13" y="65.15" font-family="Arial" font-size="10" fill="rgb(0, 0, 0)">O</tspan></text></g><g id="Dash"><path d="M93.33 99.62 L93.33 99.62 L92.73 99.62 L92.73 102.18 L93.03 102.35 L93.33 102.12 Z" stroke="rgb(0, 0, 0)" stroke-width="0" fill-rule="evenodd" stroke-linejoin="miter" fill="rgb(0, 0, 0)" shape-rendering="geometricPrecision" /><path d="M93.33 69.4 L93.33 69.4 L92.73 69.4 L92.73 66.9 L93.03 66.9 L93.33 66.9 Z" stroke="rgb(0, 0, 0)" stroke-width="0" fill-rule="evenodd" stroke-linejoin="miter" fill="rgb(0, 0, 0)" shape-rendering="geometricPrecision" /><path d="M93.33 96.67 L93.33 96.67 L93.33 94.17 L92.73 94.17 L92.73 96.67 Z" stroke="rgb(0, 0, 0)" stroke-width="0" fill-rule="evenodd" stroke-linejoin="miter" fill="rgb(0, 0, 0)" shape-rendering="geometricPrecision" /><path d="M93.33 91.21 L93.33 91.21 L93.33 88.71 L92.73 88.71 L92.73 91.21 Z" stroke="rgb(0, 0, 0)" stroke-width="0" fill-rule="evenodd" stroke-linejoin="miter" fill="rgb(0, 0, 0)" shape-rendering="geometricPrecision" /><path d="M93.33 85.76 L93.33 85.76 L93.33 83.26 L92.73 83.26 L92.73 85.76 Z" stroke="rgb(0, 0, 0)" stroke-width="0" fill-rule="evenodd" stroke-linejoin="miter" fill="rgb(0, 0, 0)" shape-rendering="geometricPrecision" /><path d="M93.33 80.31 L93.33 80.31 L93.33 77.81 L92.73 77.81 L92.73 80.31 Z" stroke="rgb(0, 0, 0)" stroke-width="0" fill-rule="evenodd" stroke-linejoin="miter" fill="rgb(0, 0, 0)" shape-rendering="geometricPrecision" /><path d="M93.33 74.85 L93.33 74.85 L93.33 72.35 L92.73 72.35 L92.73 74.85 Z" stroke="rgb(0, 0, 0)" stroke-width="0" fill-rule="evenodd" stroke-linejoin="miter" fill="rgb(0, 0, 0)" shape-rendering="geometricPrecision" /></g><g id="Solid"><path d="M82.19 83.32 L82.19 83.32 L82.23 83.64 L82.27 83.96 L63.94 94.55 L63.53 94.44 L63.12 94.33 Z" stroke="rgb(0, 0, 0)" stroke-width="0" fill-rule="evenodd" stroke-linejoin="miter" fill="rgb(0, 0, 0)" shape-rendering="geometricPrecision" /><line x1="82.78" y1="87.81" x2="68.84" y2="95.86" stroke="rgb(0, 0, 0)" stroke-width="0.6" shape-rendering="auto" /></g><g id="Solid"><path d="M63.12 94.33 L63.12 94.33 L63.53 94.44 L63.94 94.55 L74.44 112.74 L74.33 113.15 L74.03 113.23 Z" stroke="rgb(0, 0, 0)" stroke-width="0" fill-rule="evenodd" stroke-linejoin="miter" fill="rgb(0, 0, 0)" shape-rendering="geometricPrecision" /></g><g><text xml:space="preserve" text-anchor="start" text-rendering="geometricPrecision"><tspan x="70.43" y="138.65" font-family="Arial" font-size="10" fill="rgb(0, 0, 0)">OH</tspan></text></g><g id="Solid"><path d="M74.03 113.23 L74.03 113.23 L74.33 113.15 L74.63 113.32 L74.63 129.8 L74.33 129.8 L74.03 129.8 Z" stroke="rgb(0, 0, 0)" stroke-width="0" fill-rule="evenodd" stroke-linejoin="miter" fill="rgb(0, 0, 0)" shape-rendering="geometricPrecision" /></g><g><text xml:space="preserve" text-anchor="start" text-rendering="geometricPrecision"><tspan x="120.36" y="87.54" font-family="Arial" font-size="10" fill="rgb(0, 0, 0)">CO</tspan><tspan font-family="Arial" dy="2.26" font-size="7.5" fill="rgb(0, 0, 0)">2</tspan></text></g><g id="Solid"><path d="M103.56 89.42 L103.56 89.42 L103.1 89.23 L103.4 88.84 L119.28 84.58 L119.35 84.87 L119.43 85.16 Z" stroke="rgb(0, 0, 0)" stroke-width="0" fill-rule="evenodd" stroke-linejoin="miter" fill="rgb(0, 0, 0)" shape-rendering="geometricPrecision" /></g><g id="Charge2257"><circle cx="168.38" cy="25.5" r="3.33333333333333" stroke="rgb(0, 0, 0)" stroke-width="0.48" fill="none" /><line x1="166.41" y1="25.5" x2="170.35" y2="25.5" stroke="rgb(0, 0, 0)" stroke-width="0.48" shape-rendering="auto" /></g><g id="Charge2258"><circle cx="136.88" cy="74.25" r="3.33333333333333" stroke="rgb(0, 0, 0)" stroke-width="0.48" fill="none" /><line x1="134.91" y1="74.25" x2="138.85" y2="74.25" stroke="rgb(0, 0, 0)" stroke-width="0.48" shape-rendering="auto" /></g><g id="Charge2261"><line x1="205.13" y1="25.95" x2="205.13" y2="38.55" stroke="rgb(0, 0, 0)" stroke-width="0.48" shape-rendering="auto" /><line x1="201.83" y1="29.25" x2="208.43" y2="29.25" stroke="rgb(0, 0, 0)" stroke-width="0.48" shape-rendering="auto" /><line x1="201.83" y1="35.25" x2="208.43" y2="35.25" stroke="rgb(0, 0, 0)" stroke-width="0.48" shape-rendering="auto" /></g><g id="Bracket"><path d="M185.91 24.75 L194.63 24.75 L194.63 151.5 L185.91 151.5 " stroke="rgb(0, 0, 0)" stroke-width="0.6" fill-rule="evenodd" stroke-linejoin="miter" fill="none" shape-rendering="geometricPrecision" /></g><g id="Bracket"><path d="M59.35 151.5 L50.63 151.5 L50.63 24.75 L59.35 24.75 " stroke="rgb(0, 0, 0)" stroke-width="0.6" fill-rule="evenodd" stroke-linejoin="miter" fill="none" shape-rendering="geometricPrecision" /></g></g></g></svg>