<?xml version="1.0"?><svg xmlns="http://www.w3.org/2000/svg" xmlns:xlink="http://www.w3.org/1999/xlink" viewBox="28.28 117.15 143.13 152.7" preserveAspectRatio="xMidYMid" width="100%" height="100%"><clipPath id="2286"><rect x="0.3" y="0.3" width="522.72" height="769.32" /></clipPath><g id="drawing"><rect x="28.28" y="117.15" width="100%" height="100%" fill="rgb(255, 255, 255)" /><g id="page" clip-path="url(#2286)"><g id="Solid"><path d="M65.63 240.82 L65.63 240.82 L65.33 240.65 L65.44 240.24 L83.69 229.7 L84.03 229.85 L84.07 230.17 Z" stroke="rgb(0, 0, 0)" stroke-width="0" fill-rule="evenodd" stroke-linejoin="miter" fill="rgb(0, 0, 0)" shape-rendering="geometricPrecision" /></g><g id="Solid"><path d="M84.07 230.17 L84.07 230.17 L84.03 229.85 L84.29 229.61 L104.28 234.96 L104.9 235.44 L105.52 235.92 Z" stroke="rgb(0, 0, 0)" stroke-width="0" fill-rule="evenodd" stroke-linejoin="miter" fill="rgb(0, 0, 0)" shape-rendering="geometricPrecision" /><line x1="87.37" y1="226.72" x2="96.84" y2="229.25" stroke="rgb(0, 0, 0)" stroke-width="0.6" shape-rendering="auto" /></g><g id="Solid"><path d="M105.52 235.92 L105.52 235.92 L104.9 235.44 L104.28 234.96 L93.9 216.99 L94.1 216.73 L94.56 216.92 Z" stroke="rgb(0, 0, 0)" stroke-width="0" fill-rule="evenodd" stroke-linejoin="miter" fill="rgb(0, 0, 0)" shape-rendering="geometricPrecision" /></g><g id="Solid"><path d="M77.71 183.98 L77.71 183.98 L77.43 183.88 L77.14 183.79 L88.68 149.74 L88.98 149.79 L89.03 150.58 Z" stroke="rgb(0, 0, 0)" stroke-width="0" fill-rule="evenodd" stroke-linejoin="miter" fill="rgb(0, 0, 0)" shape-rendering="geometricPrecision" /><line x1="84.36" y1="186.23" x2="90.21" y2="168.97" stroke="rgb(0, 0, 0)" stroke-width="0.6" shape-rendering="auto" /></g><g id="Solid"><path d="M89.03 150.58 L89.03 150.58 L88.98 149.79 L89.28 149.72 L101.91 175.59 L101.6 175.63 L101.29 175.67 Z" stroke="rgb(0, 0, 0)" stroke-width="0" fill-rule="evenodd" stroke-linejoin="miter" fill="rgb(0, 0, 0)" shape-rendering="geometricPrecision" /></g><g><text xml:space="preserve" text-anchor="start" text-rendering="geometricPrecision"><tspan x="85.38" y="133.29" font-family="Arial" font-size="10" fill="rgb(0, 0, 0)">CO</tspan><tspan font-family="Arial" dy="2.26" font-size="7.5" fill="rgb(0, 0, 0)">2</tspan></text></g><g id="Solid"><path d="M89.28 149.72 L89.28 149.72 L88.98 149.79 L88.68 149.74 L88.68 135.1 L88.98 135.1 L89.28 135.1 Z" stroke="rgb(0, 0, 0)" stroke-width="0" fill-rule="evenodd" stroke-linejoin="miter" fill="rgb(0, 0, 0)" shape-rendering="geometricPrecision" /></g><g id="Solid"><g id="Bond's parts"><path d="M73.18 210.9 L73.18 210.9 L73.45 210.9 L73.85 211 L74.25 211.1 L74.65 211.2 L74.95 211.3 L75.35 211.4 L75.75 211.5 L76.15 211.6 L76.45 211.7 L76.85 211.8 L77.25 211.9 L77.55 212 L77.95 212.1 L78.25 212.15 L78.3 212.35 L78.3 212.85 L78.28 212.8 L77.85 212.7 L77.55 212.6 L77.15 212.5 L76.75 212.4 L76.45 212.3 L76.05 212.2 L75.65 212.1 L75.25 212 L74.95 211.9 L74.55 211.8 L74.15 211.7 L73.75 211.6 L73.45 211.5 L73.25 211.45 L73.2 210.95 Z" stroke="rgb(0, 0, 0)" stroke-width="0" fill-rule="evenodd" stroke-linejoin="miter" fill="rgb(0, 0, 0)" shape-rendering="geometricPrecision" /><path d="M82.4 213.25 L82.4 213.25 L82.43 213.3 L82.85 213.4 L83.15 213.5 L83.55 213.6 L83.95 213.7 L84.35 213.8 L84.65 213.9 L85.05 214 L85.45 214.1 L85.85 214.2 L86.15 214.3 L86.55 214.4 L86.95 214.5 L87.35 214.6 L87.65 214.7 L88.05 214.8 L88.45 214.9 L88.75 215 L89.15 215.1 L89.55 215.2 L89.95 215.3 L90.25 215.4 L90.65 215.5 L91.05 215.6 L91.45 215.7 L91.75 215.8 L92.15 215.9 L92.55 216 L92.95 216.1 L93.25 216.2 L93.65 216.3 L93.88 216.4 L93.95 216.5 L94 216.55 L94 216.85 L93.97 216.9 L93.55 216.9 L93.25 216.8 L92.85 216.7 L92.45 216.6 L92.05 216.5 L91.75 216.4 L91.35 216.3 L90.95 216.2 L90.55 216.1 L90.25 216 L89.85 215.9 L89.45 215.8 L89.05 215.7 L88.75 215.6 L88.35 215.5 L87.95 215.4 L87.65 215.3 L87.25 215.2 L86.85 215.1 L86.45 215 L86.15 214.9 L85.75 214.8 L85.35 214.7 L84.95 214.6 L84.65 214.5 L84.25 214.4 L83.85 214.3 L83.45 214.2 L83.15 214.1 L82.75 214 L82.45 213.95 Z" stroke="rgb(0, 0, 0)" stroke-width="0" fill-rule="evenodd" stroke-linejoin="miter" fill="rgb(0, 0, 0)" shape-rendering="geometricPrecision" /></g></g><g><text xml:space="preserve" text-anchor="start" text-rendering="geometricPrecision"><tspan x="71.88" y="192.65" font-family="Arial" font-size="10" fill="rgb(0, 0, 0)">O</tspan></text></g><g id="Dash"><path d="M83.79 227.13 L83.79 227.13 L83.2 227.25 L83.69 229.7 L84.03 229.85 L84.29 229.61 Z" stroke="rgb(0, 0, 0)" stroke-width="0" fill-rule="evenodd" stroke-linejoin="miter" fill="rgb(0, 0, 0)" shape-rendering="geometricPrecision" /><path d="M77.69 196.76 L77.69 196.76 L77.11 196.88 L76.61 194.43 L76.91 194.37 L77.2 194.31 Z" stroke="rgb(0, 0, 0)" stroke-width="0" fill-rule="evenodd" stroke-linejoin="miter" fill="rgb(0, 0, 0)" shape-rendering="geometricPrecision" /><path d="M83.18 224.11 L83.18 224.11 L82.69 221.66 L82.1 221.78 L82.6 224.23 Z" stroke="rgb(0, 0, 0)" stroke-width="0" fill-rule="evenodd" stroke-linejoin="miter" fill="rgb(0, 0, 0)" shape-rendering="geometricPrecision" /><path d="M82.09 218.64 L82.09 218.64 L81.59 216.19 L81.01 216.31 L81.5 218.76 Z" stroke="rgb(0, 0, 0)" stroke-width="0" fill-rule="evenodd" stroke-linejoin="miter" fill="rgb(0, 0, 0)" shape-rendering="geometricPrecision" /><path d="M80.99 213.17 L80.99 213.17 L80.5 210.72 L79.91 210.84 L80.4 213.29 Z" stroke="rgb(0, 0, 0)" stroke-width="0" fill-rule="evenodd" stroke-linejoin="miter" fill="rgb(0, 0, 0)" shape-rendering="geometricPrecision" /><path d="M79.89 207.7 L79.89 207.7 L79.4 205.25 L78.81 205.37 L79.3 207.82 Z" stroke="rgb(0, 0, 0)" stroke-width="0" fill-rule="evenodd" stroke-linejoin="miter" fill="rgb(0, 0, 0)" shape-rendering="geometricPrecision" /><path d="M78.79 202.23 L78.79 202.23 L78.3 199.78 L77.71 199.9 L78.2 202.35 Z" stroke="rgb(0, 0, 0)" stroke-width="0" fill-rule="evenodd" stroke-linejoin="miter" fill="rgb(0, 0, 0)" shape-rendering="geometricPrecision" /></g><g id="Solid"><path d="M73.19 210.82 L73.19 210.82 L73.23 211.14 L73.27 211.46 L54.94 222.05 L54.53 221.94 L54.12 221.83 Z" stroke="rgb(0, 0, 0)" stroke-width="0" fill-rule="evenodd" stroke-linejoin="miter" fill="rgb(0, 0, 0)" shape-rendering="geometricPrecision" /><line x1="73.78" y1="215.31" x2="59.84" y2="223.36" stroke="rgb(0, 0, 0)" stroke-width="0.6" shape-rendering="auto" /></g><g id="Solid"><path d="M54.12 221.83 L54.12 221.83 L54.53 221.94 L54.94 222.05 L65.44 240.24 L65.33 240.65 L65.03 240.73 Z" stroke="rgb(0, 0, 0)" stroke-width="0" fill-rule="evenodd" stroke-linejoin="miter" fill="rgb(0, 0, 0)" shape-rendering="geometricPrecision" /></g><g><text xml:space="preserve" text-anchor="start" text-rendering="geometricPrecision"><tspan x="61.43" y="266.15" font-family="Arial" font-size="10" fill="rgb(0, 0, 0)">OH</tspan></text></g><g id="Solid"><path d="M65.03 240.73 L65.03 240.73 L65.33 240.65 L65.63 240.82 L65.63 257.3 L65.33 257.3 L65.03 257.3 Z" stroke="rgb(0, 0, 0)" stroke-width="0" fill-rule="evenodd" stroke-linejoin="miter" fill="rgb(0, 0, 0)" shape-rendering="geometricPrecision" /></g><g><text xml:space="preserve" text-anchor="start" text-rendering="geometricPrecision"><tspan x="111.36" y="215.04" font-family="Arial" font-size="10" fill="rgb(0, 0, 0)">CO</tspan><tspan font-family="Arial" dy="2.26" font-size="7.5" fill="rgb(0, 0, 0)">2</tspan></text></g><g id="Solid"><path d="M94.56 216.92 L94.56 216.92 L94.1 216.73 L94.48 216.32 L110.28 212.08 L110.35 212.37 L110.43 212.66 Z" stroke="rgb(0, 0, 0)" stroke-width="0" fill-rule="evenodd" stroke-linejoin="miter" fill="rgb(0, 0, 0)" shape-rendering="geometricPrecision" /></g><g id="Dash"><path d="M100.84 178.13 L100.84 178.13 L101.43 178.24 L101.91 175.59 L101.6 175.63 L101.29 175.67 Z" stroke="rgb(0, 0, 0)" stroke-width="0" fill-rule="evenodd" stroke-linejoin="miter" fill="rgb(0, 0, 0)" shape-rendering="geometricPrecision" /><path d="M94.34 213.75 L94.34 213.75 L94.93 213.86 L94.48 216.32 L94.1 216.73 L93.86 216.36 Z" stroke="rgb(0, 0, 0)" stroke-width="0" fill-rule="evenodd" stroke-linejoin="miter" fill="rgb(0, 0, 0)" shape-rendering="geometricPrecision" /><path d="M100.29 181.11 L100.29 181.11 L99.85 183.57 L100.44 183.68 L100.88 181.22 Z" stroke="rgb(0, 0, 0)" stroke-width="0" fill-rule="evenodd" stroke-linejoin="miter" fill="rgb(0, 0, 0)" shape-rendering="geometricPrecision" /><path d="M99.3 186.55 L99.3 186.55 L98.85 189.01 L99.44 189.12 L99.89 186.66 Z" stroke="rgb(0, 0, 0)" stroke-width="0" fill-rule="evenodd" stroke-linejoin="miter" fill="rgb(0, 0, 0)" shape-rendering="geometricPrecision" /><path d="M98.31 191.99 L98.31 191.99 L97.86 194.45 L98.45 194.56 L98.9 192.1 Z" stroke="rgb(0, 0, 0)" stroke-width="0" fill-rule="evenodd" stroke-linejoin="miter" fill="rgb(0, 0, 0)" shape-rendering="geometricPrecision" /><path d="M97.32 197.43 L97.32 197.43 L96.87 199.89 L97.46 200 L97.91 197.54 Z" stroke="rgb(0, 0, 0)" stroke-width="0" fill-rule="evenodd" stroke-linejoin="miter" fill="rgb(0, 0, 0)" shape-rendering="geometricPrecision" /><path d="M96.32 202.87 L96.32 202.87 L95.88 205.33 L96.47 205.44 L96.91 202.98 Z" stroke="rgb(0, 0, 0)" stroke-width="0" fill-rule="evenodd" stroke-linejoin="miter" fill="rgb(0, 0, 0)" shape-rendering="geometricPrecision" /><path d="M95.33 208.31 L95.33 208.31 L94.88 210.77 L95.47 210.88 L95.92 208.42 Z" stroke="rgb(0, 0, 0)" stroke-width="0" fill-rule="evenodd" stroke-linejoin="miter" fill="rgb(0, 0, 0)" shape-rendering="geometricPrecision" /></g><g id="Charge2257"><circle cx="106.13" cy="122.25" r="3.33333333333333" stroke="rgb(0, 0, 0)" stroke-width="0.48" fill="none" /><line x1="104.16" y1="122.25" x2="108.1" y2="122.25" stroke="rgb(0, 0, 0)" stroke-width="0.48" shape-rendering="auto" /></g><g id="Charge2258"><circle cx="127.88" cy="201.75" r="3.33333333333333" stroke="rgb(0, 0, 0)" stroke-width="0.48" fill="none" /><line x1="125.91" y1="201.75" x2="129.85" y2="201.75" stroke="rgb(0, 0, 0)" stroke-width="0.48" shape-rendering="auto" /></g><g id="Charge2261"><line x1="167.63" y1="120.45" x2="167.63" y2="133.05" stroke="rgb(0, 0, 0)" stroke-width="0.48" shape-rendering="auto" /><line x1="164.33" y1="123.75" x2="170.93" y2="123.75" stroke="rgb(0, 0, 0)" stroke-width="0.48" shape-rendering="auto" /><line x1="164.33" y1="129.75" x2="170.93" y2="129.75" stroke="rgb(0, 0, 0)" stroke-width="0.48" shape-rendering="auto" /></g><g id="Bracket"><path d="M144.61 117.75 L154.88 117.75 L154.88 269.25 L144.61 269.25 " stroke="rgb(0, 0, 0)" stroke-width="0.6" fill-rule="evenodd" stroke-linejoin="miter" fill="none" shape-rendering="geometricPrecision" /></g><g id="Bracket"><path d="M39.15 269.25 L28.88 269.25 L28.88 117.75 L39.15 117.75 " stroke="rgb(0, 0, 0)" stroke-width="0.6" fill-rule="evenodd" stroke-linejoin="miter" fill="none" shape-rendering="geometricPrecision" /></g></g></g></svg>