<?xml version="1.0"?><svg xmlns="http://www.w3.org/2000/svg" xmlns:xlink="http://www.w3.org/1999/xlink" viewBox="71.25 101.78 130.38 110.7" preserveAspectRatio="xMidYMid" width="100%" height="100%"><clipPath id="2317"><rect x="0.3" y="0.3" width="522.6" height="769.08" /></clipPath><g id="drawing"><rect x="71.25" y="101.78" width="100%" height="100%" fill="rgb(255, 255, 255)" /><g id="page" clip-path="url(#2317)"><g id="Solid"><path d="M111.6 170.85 L111.6 170.85 L111.3 170.52 L111.48 170.24 L131.21 172.14 L131.51 172.47 L131.46 172.77 Z" stroke="rgb(0, 0, 0)" stroke-width="0" fill-rule="evenodd" stroke-linejoin="miter" fill="rgb(0, 0, 0)" shape-rendering="geometricPrecision" /></g><g id="Solid"><path d="M131.46 172.77 L131.46 172.77 L131.51 172.47 L131.81 172.24 L151.75 177.59 L152.37 178.07 L152.99 178.55 Z" stroke="rgb(0, 0, 0)" stroke-width="0" fill-rule="evenodd" stroke-linejoin="miter" fill="rgb(0, 0, 0)" shape-rendering="geometricPrecision" /><line x1="135.4" y1="169.49" x2="144.31" y2="171.88" stroke="rgb(0, 0, 0)" stroke-width="0.6" shape-rendering="auto" /></g><g id="Solid"><path d="M152.99 178.55 L152.99 178.55 L152.37 178.07 L151.75 177.59 L141.39 159.64 L141.57 159.36 L142.03 159.55 Z" stroke="rgb(0, 0, 0)" stroke-width="0" fill-rule="evenodd" stroke-linejoin="miter" fill="rgb(0, 0, 0)" shape-rendering="geometricPrecision" /></g><g id="Solid"><path d="M129.02 145.96 L129.02 145.96 L128.76 146.11 L128.5 146.26 L120.49 132.39 L120.71 132.17 L121.33 132.65 Z" stroke="rgb(0, 0, 0)" stroke-width="0" fill-rule="evenodd" stroke-linejoin="miter" fill="rgb(0, 0, 0)" shape-rendering="geometricPrecision" /><line x1="125.59" y1="147.95" x2="118.03" y2="134.85" stroke="rgb(0, 0, 0)" stroke-width="0.6" shape-rendering="auto" /></g><g id="Solid"><path d="M121.33 132.65 L121.33 132.65 L120.71 132.17 L120.83 131.89 L141.87 137.53 L141.57 137.76 L141.27 137.99 Z" stroke="rgb(0, 0, 0)" stroke-width="0" fill-rule="evenodd" stroke-linejoin="miter" fill="rgb(0, 0, 0)" shape-rendering="geometricPrecision" /></g><g><text xml:space="preserve" text-anchor="end" text-rendering="geometricPrecision"><tspan x="105.6" y="125.27" font-family="Arial" font-size="10" fill="rgb(0, 0, 0)">O</tspan><tspan font-family="Arial" dy="2.26" font-size="7.5" fill="rgb(0, 0, 0)">2</tspan><tspan font-family="Arial" dy="-2.26" font-size="10" fill="rgb(0, 0, 0)">C</tspan></text></g><g id="Solid"><path d="M120.83 131.89 L120.83 131.89 L120.71 132.17 L120.49 132.39 L106.54 124.33 L106.69 124.07 L106.84 123.81 Z" stroke="rgb(0, 0, 0)" stroke-width="0" fill-rule="evenodd" stroke-linejoin="miter" fill="rgb(0, 0, 0)" shape-rendering="geometricPrecision" /></g><g id="Solid"><g id="Bond's parts"><path d="M120.05 156.45 L120.05 156.45 L120.25 156.5 L121.05 156.6 L121.95 156.7 L122.75 156.8 L123.55 156.9 L124.45 157 L125.25 157.1 L126.05 157.2 L126.95 157.3 L127.75 157.4 L128.55 157.5 L129.35 157.55 L129.35 158.15 L128.55 158.1 L127.75 158 L126.85 157.9 L126.05 157.8 L125.25 157.7 L124.35 157.6 L123.55 157.5 L122.65 157.4 L121.85 157.3 L121.05 157.2 L120.15 157.1 L119.88 157 L119.9 156.95 Z" stroke="rgb(0, 0, 0)" stroke-width="0" fill-rule="evenodd" stroke-linejoin="miter" fill="rgb(0, 0, 0)" shape-rendering="geometricPrecision" /><path d="M133.15 158.05 L133.15 158.05 L133.55 158.1 L134.45 158.2 L135.25 158.3 L136.05 158.4 L136.85 158.5 L137.75 158.6 L138.55 158.7 L139.35 158.8 L140.25 158.9 L141.05 159 L141.38 159.1 L141.45 159.2 L141.5 159.25 L141.5 159.45 L141.45 159.65 L141.05 159.6 L140.25 159.5 L139.45 159.4 L138.55 159.3 L137.75 159.2 L136.85 159.1 L136.05 159 L135.25 158.9 L134.35 158.8 L133.55 158.7 Z" stroke="rgb(0, 0, 0)" stroke-width="0" fill-rule="evenodd" stroke-linejoin="miter" fill="rgb(0, 0, 0)" shape-rendering="geometricPrecision" /></g></g><g><text xml:space="preserve" text-anchor="start" text-rendering="geometricPrecision"><tspan x="127.61" y="154.77" font-family="Arial" font-size="10" fill="rgb(0, 0, 0)">O</tspan></text></g><g id="Dash"><path d="M131.81 169.64 L131.81 169.64 L131.21 169.64 L131.21 172.14 L131.51 172.47 L131.81 172.24 Z" stroke="rgb(0, 0, 0)" stroke-width="0" fill-rule="evenodd" stroke-linejoin="miter" fill="rgb(0, 0, 0)" shape-rendering="geometricPrecision" /><path d="M131.81 159 L131.81 159 L131.21 159 L131.21 156.5 L131.51 156.5 L131.81 156.5 Z" stroke="rgb(0, 0, 0)" stroke-width="0" fill-rule="evenodd" stroke-linejoin="miter" fill="rgb(0, 0, 0)" shape-rendering="geometricPrecision" /><path d="M131.81 167.76 L131.81 167.76 L131.81 165.26 L131.21 165.26 L131.21 167.76 Z" stroke="rgb(0, 0, 0)" stroke-width="0" fill-rule="evenodd" stroke-linejoin="miter" fill="rgb(0, 0, 0)" shape-rendering="geometricPrecision" /><path d="M131.81 163.38 L131.81 163.38 L131.81 160.88 L131.21 160.88 L131.21 163.38 Z" stroke="rgb(0, 0, 0)" stroke-width="0" fill-rule="evenodd" stroke-linejoin="miter" fill="rgb(0, 0, 0)" shape-rendering="geometricPrecision" /></g><g id="Solid"><path d="M120.04 156.48 L120.04 156.48 L119.96 156.77 L119.88 157.06 L97.5 146.51 L96.75 145.82 L96 145.13 Z" stroke="rgb(0, 0, 0)" stroke-width="0" fill-rule="evenodd" stroke-linejoin="miter" fill="rgb(0, 0, 0)" shape-rendering="geometricPrecision" /><line x1="121.25" y1="152.27" x2="98.72" y2="141.64" stroke="rgb(0, 0, 0)" stroke-width="0.6" shape-rendering="auto" /></g><g id="Solid"><path d="M96 145.13 L96 145.13 L96.75 145.82 L97.5 146.51 L111.48 170.24 L111.3 170.52 L111 170.6 Z" stroke="rgb(0, 0, 0)" stroke-width="0" fill-rule="evenodd" stroke-linejoin="miter" fill="rgb(0, 0, 0)" shape-rendering="geometricPrecision" /></g><g><text xml:space="preserve" text-anchor="start" text-rendering="geometricPrecision"><tspan x="107.4" y="195.27" font-family="Arial" font-size="10" fill="rgb(0, 0, 0)">OH</tspan></text></g><g id="Solid"><path d="M111 170.6 L111 170.6 L111.3 170.52 L111.6 170.85 L111.6 186.4 L111.3 186.4 L111 186.4 Z" stroke="rgb(0, 0, 0)" stroke-width="0" fill-rule="evenodd" stroke-linejoin="miter" fill="rgb(0, 0, 0)" shape-rendering="geometricPrecision" /></g><g><text xml:space="preserve" text-anchor="start" text-rendering="geometricPrecision"><tspan x="158.83" y="157.67" font-family="Arial" font-size="10" fill="rgb(0, 0, 0)">CO</tspan><tspan font-family="Arial" dy="2.26" font-size="7.5" fill="rgb(0, 0, 0)">2</tspan></text></g><g id="Solid"><path d="M142.03 159.55 L142.03 159.55 L141.57 159.36 L141.87 158.97 L157.78 154.71 L157.85 155 L157.93 155.29 Z" stroke="rgb(0, 0, 0)" stroke-width="0" fill-rule="evenodd" stroke-linejoin="miter" fill="rgb(0, 0, 0)" shape-rendering="geometricPrecision" /></g><g id="Dash"><path d="M141.27 140.49 L141.27 140.49 L141.87 140.49 L141.87 137.53 L141.57 137.76 L141.27 137.99 Z" stroke="rgb(0, 0, 0)" stroke-width="0" fill-rule="evenodd" stroke-linejoin="miter" fill="rgb(0, 0, 0)" shape-rendering="geometricPrecision" /><path d="M141.27 156.47 L141.27 156.47 L141.87 156.47 L141.87 158.97 L141.57 159.36 L141.27 159.02 Z" stroke="rgb(0, 0, 0)" stroke-width="0" fill-rule="evenodd" stroke-linejoin="miter" fill="rgb(0, 0, 0)" shape-rendering="geometricPrecision" /><path d="M141.27 142.61 L141.27 142.61 L141.27 145.11 L141.87 145.11 L141.87 142.61 Z" stroke="rgb(0, 0, 0)" stroke-width="0" fill-rule="evenodd" stroke-linejoin="miter" fill="rgb(0, 0, 0)" shape-rendering="geometricPrecision" /><path d="M141.27 147.23 L141.27 147.23 L141.27 149.73 L141.87 149.73 L141.87 147.23 Z" stroke="rgb(0, 0, 0)" stroke-width="0" fill-rule="evenodd" stroke-linejoin="miter" fill="rgb(0, 0, 0)" shape-rendering="geometricPrecision" /><path d="M141.27 151.85 L141.27 151.85 L141.27 154.35 L141.87 154.35 L141.87 151.85 Z" stroke="rgb(0, 0, 0)" stroke-width="0" fill-rule="evenodd" stroke-linejoin="miter" fill="rgb(0, 0, 0)" shape-rendering="geometricPrecision" /></g><g id="Charge2311"><circle cx="86.85" cy="109.88" r="3.33333333333333" stroke="rgb(0, 0, 0)" stroke-width="0.48" fill="none" /><line x1="84.88" y1="109.88" x2="88.82" y2="109.88" stroke="rgb(0, 0, 0)" stroke-width="0.48" shape-rendering="auto" /></g><g id="Charge2312"><circle cx="175.35" cy="144.38" r="3.33333333333333" stroke="rgb(0, 0, 0)" stroke-width="0.48" fill="none" /><line x1="173.38" y1="144.38" x2="177.32" y2="144.38" stroke="rgb(0, 0, 0)" stroke-width="0.48" shape-rendering="auto" /></g><g id="Bracket"><path d="M181.96 102.38 L189.6 102.38 L189.6 211.88 L181.96 211.88 " stroke="rgb(0, 0, 0)" stroke-width="0.6" fill-rule="evenodd" stroke-linejoin="miter" fill="none" shape-rendering="geometricPrecision" /></g><g id="Bracket"><path d="M79.49 211.88 L71.85 211.88 L71.85 102.38 L79.49 102.38 " stroke="rgb(0, 0, 0)" stroke-width="0.6" fill-rule="evenodd" stroke-linejoin="miter" fill="none" shape-rendering="geometricPrecision" /></g><g id="Charge2315"><line x1="197.85" y1="104.33" x2="197.85" y2="116.93" stroke="rgb(0, 0, 0)" stroke-width="0.48" shape-rendering="auto" /><line x1="194.55" y1="107.63" x2="201.15" y2="107.63" stroke="rgb(0, 0, 0)" stroke-width="0.48" shape-rendering="auto" /><line x1="194.55" y1="113.63" x2="201.15" y2="113.63" stroke="rgb(0, 0, 0)" stroke-width="0.48" shape-rendering="auto" /></g></g></g></svg>