<?xml version="1.0"?><svg xmlns="http://www.w3.org/2000/svg" xmlns:xlink="http://www.w3.org/1999/xlink" viewBox="32.78 24.9 130.38 110.7" preserveAspectRatio="xMidYMid" width="100%" height="100%"><clipPath id="2282"><rect x="0.3" y="0.3" width="522.72" height="769.32" /></clipPath><g id="drawing"><rect x="32.78" y="24.9" width="100%" height="100%" fill="rgb(255, 255, 255)" /><g id="page" clip-path="url(#2282)"><g id="Solid"><path d="M74.63 106.57 L74.63 106.57 L74.33 106.4 L74.44 105.99 L92.73 95.43 L93.03 95.6 L93.07 95.92 Z" stroke="rgb(0, 0, 0)" stroke-width="0" fill-rule="evenodd" stroke-linejoin="miter" fill="rgb(0, 0, 0)" shape-rendering="geometricPrecision" /></g><g id="Solid"><path d="M93.07 95.92 L93.07 95.92 L93.03 95.6 L93.33 95.37 L113.28 100.71 L113.9 101.19 L114.52 101.67 Z" stroke="rgb(0, 0, 0)" stroke-width="0" fill-rule="evenodd" stroke-linejoin="miter" fill="rgb(0, 0, 0)" shape-rendering="geometricPrecision" /><line x1="96.92" y1="92.62" x2="105.84" y2="95" stroke="rgb(0, 0, 0)" stroke-width="0.6" shape-rendering="auto" /></g><g id="Solid"><path d="M114.52 101.67 L114.52 101.67 L113.9 101.19 L113.28 100.71 L102.9 82.74 L103.1 82.48 L103.56 82.67 Z" stroke="rgb(0, 0, 0)" stroke-width="0" fill-rule="evenodd" stroke-linejoin="miter" fill="rgb(0, 0, 0)" shape-rendering="geometricPrecision" /></g><g id="Solid"><path d="M90.59 69.16 L90.59 69.16 L90.33 69.31 L90.07 69.46 L82.01 55.51 L82.23 55.29 L82.85 55.77 Z" stroke="rgb(0, 0, 0)" stroke-width="0" fill-rule="evenodd" stroke-linejoin="miter" fill="rgb(0, 0, 0)" shape-rendering="geometricPrecision" /><line x1="87.15" y1="71.15" x2="79.54" y2="57.98" stroke="rgb(0, 0, 0)" stroke-width="0.6" shape-rendering="auto" /></g><g id="Solid"><path d="M82.85 55.77 L82.85 55.77 L82.23 55.29 L82.35 55.01 L103.4 60.65 L103.1 60.88 L102.8 61.11 Z" stroke="rgb(0, 0, 0)" stroke-width="0" fill-rule="evenodd" stroke-linejoin="miter" fill="rgb(0, 0, 0)" shape-rendering="geometricPrecision" /></g><g><text xml:space="preserve" text-anchor="end" text-rendering="geometricPrecision"><tspan x="67.13" y="48.39" font-family="Arial" font-size="10" fill="rgb(0, 0, 0)">O</tspan><tspan font-family="Arial" dy="2.26" font-size="7.5" fill="rgb(0, 0, 0)">2</tspan><tspan font-family="Arial" dy="-2.26" font-size="10" fill="rgb(0, 0, 0)">C</tspan></text></g><g id="Solid"><path d="M82.35 55.01 L82.35 55.01 L82.23 55.29 L82.01 55.51 L68.04 47.44 L68.19 47.18 L68.34 46.92 Z" stroke="rgb(0, 0, 0)" stroke-width="0" fill-rule="evenodd" stroke-linejoin="miter" fill="rgb(0, 0, 0)" shape-rendering="geometricPrecision" /></g><g id="Solid"><g id="Bond's parts"><path d="M82.18 76.6 L82.18 76.6 L82.35 76.6 L82.65 76.7 L83.05 76.8 L83.45 76.9 L83.75 77 L84.15 77.1 L84.55 77.2 L84.95 77.3 L85.25 77.4 L85.65 77.5 L86.05 77.6 L86.45 77.7 L86.75 77.8 L87.15 77.9 L87.55 78 L87.95 78.1 L88.25 78.2 L88.65 78.3 L89.05 78.4 L89.45 78.5 L89.75 78.6 L90.15 78.7 L90.55 78.8 L90.85 78.85 L90.85 79.45 L90.45 79.4 L90.05 79.3 L89.65 79.2 L89.35 79.1 L88.95 79 L88.55 78.9 L88.25 78.8 L87.85 78.7 L87.45 78.6 L87.05 78.5 L86.75 78.4 L86.35 78.3 L85.95 78.2 L85.55 78.1 L85.25 78 L84.85 77.9 L84.45 77.8 L84.05 77.7 L83.75 77.6 L83.35 77.5 L82.95 77.4 L82.65 77.3 L82.25 77.25 L82.2 76.65 Z" stroke="rgb(0, 0, 0)" stroke-width="0" fill-rule="evenodd" stroke-linejoin="miter" fill="rgb(0, 0, 0)" shape-rendering="geometricPrecision" /><path d="M94.65 79.95 L94.65 79.95 L95.05 80 L95.35 80.1 L95.75 80.2 L96.15 80.3 L96.45 80.4 L96.85 80.5 L97.25 80.6 L97.65 80.7 L97.95 80.8 L98.35 80.9 L98.75 81 L99.15 81.1 L99.45 81.2 L99.85 81.3 L100.25 81.4 L100.65 81.5 L100.95 81.6 L101.35 81.7 L101.75 81.8 L102.05 81.9 L102.45 82 L102.85 82.05 L102.9 82.25 L102.95 82.3 L103 82.35 L103 82.65 L102.97 82.7 L102.75 82.7 L102.35 82.6 L102.05 82.5 L101.65 82.4 L101.25 82.3 L100.85 82.2 L100.55 82.1 L100.15 82 L99.75 81.9 L99.45 81.8 L99.05 81.7 L98.65 81.6 L98.25 81.5 L97.95 81.4 L97.55 81.3 L97.15 81.2 L96.75 81.1 L96.45 81 L96.05 80.9 L95.65 80.8 L95.25 80.7 L94.95 80.6 Z" stroke="rgb(0, 0, 0)" stroke-width="0" fill-rule="evenodd" stroke-linejoin="miter" fill="rgb(0, 0, 0)" shape-rendering="geometricPrecision" /></g></g><g><text xml:space="preserve" text-anchor="start" text-rendering="geometricPrecision"><tspan x="89.13" y="77.9" font-family="Arial" font-size="10" fill="rgb(0, 0, 0)">O</tspan></text></g><g id="Dash"><path d="M93.33 92.87 L93.33 92.87 L92.73 92.87 L92.73 95.43 L93.03 95.6 L93.33 95.37 Z" stroke="rgb(0, 0, 0)" stroke-width="0" fill-rule="evenodd" stroke-linejoin="miter" fill="rgb(0, 0, 0)" shape-rendering="geometricPrecision" /><path d="M93.33 82.2 L93.33 82.2 L92.73 82.2 L92.73 79.7 L93.03 79.7 L93.33 79.7 Z" stroke="rgb(0, 0, 0)" stroke-width="0" fill-rule="evenodd" stroke-linejoin="miter" fill="rgb(0, 0, 0)" shape-rendering="geometricPrecision" /><path d="M93.33 90.98 L93.33 90.98 L93.33 88.48 L92.73 88.48 L92.73 90.98 Z" stroke="rgb(0, 0, 0)" stroke-width="0" fill-rule="evenodd" stroke-linejoin="miter" fill="rgb(0, 0, 0)" shape-rendering="geometricPrecision" /><path d="M93.33 86.59 L93.33 86.59 L93.33 84.09 L92.73 84.09 L92.73 86.59 Z" stroke="rgb(0, 0, 0)" stroke-width="0" fill-rule="evenodd" stroke-linejoin="miter" fill="rgb(0, 0, 0)" shape-rendering="geometricPrecision" /></g><g id="Solid"><path d="M82.19 76.57 L82.19 76.57 L82.23 76.89 L82.27 77.21 L63.94 87.8 L63.53 87.69 L63.12 87.58 Z" stroke="rgb(0, 0, 0)" stroke-width="0" fill-rule="evenodd" stroke-linejoin="miter" fill="rgb(0, 0, 0)" shape-rendering="geometricPrecision" /><line x1="82.78" y1="81.06" x2="68.84" y2="89.11" stroke="rgb(0, 0, 0)" stroke-width="0.6" shape-rendering="auto" /></g><g id="Solid"><path d="M63.12 87.58 L63.12 87.58 L63.53 87.69 L63.94 87.8 L74.44 105.99 L74.33 106.4 L74.03 106.48 Z" stroke="rgb(0, 0, 0)" stroke-width="0" fill-rule="evenodd" stroke-linejoin="miter" fill="rgb(0, 0, 0)" shape-rendering="geometricPrecision" /></g><g><text xml:space="preserve" text-anchor="start" text-rendering="geometricPrecision"><tspan x="70.43" y="131.9" font-family="Arial" font-size="10" fill="rgb(0, 0, 0)">OH</tspan></text></g><g id="Solid"><path d="M74.03 106.48 L74.03 106.48 L74.33 106.4 L74.63 106.57 L74.63 123.1 L74.33 123.1 L74.03 123.1 Z" stroke="rgb(0, 0, 0)" stroke-width="0" fill-rule="evenodd" stroke-linejoin="miter" fill="rgb(0, 0, 0)" shape-rendering="geometricPrecision" /></g><g><text xml:space="preserve" text-anchor="start" text-rendering="geometricPrecision"><tspan x="120.36" y="80.79" font-family="Arial" font-size="10" fill="rgb(0, 0, 0)">CO</tspan><tspan font-family="Arial" dy="2.26" font-size="7.5" fill="rgb(0, 0, 0)">2</tspan></text></g><g id="Solid"><path d="M103.56 82.67 L103.56 82.67 L103.1 82.48 L103.4 82.09 L119.28 77.83 L119.35 78.12 L119.43 78.41 Z" stroke="rgb(0, 0, 0)" stroke-width="0" fill-rule="evenodd" stroke-linejoin="miter" fill="rgb(0, 0, 0)" shape-rendering="geometricPrecision" /></g><g id="Dash"><path d="M102.8 63.61 L102.8 63.61 L103.4 63.61 L103.4 60.65 L103.1 60.88 L102.8 61.11 Z" stroke="rgb(0, 0, 0)" stroke-width="0" fill-rule="evenodd" stroke-linejoin="miter" fill="rgb(0, 0, 0)" shape-rendering="geometricPrecision" /><path d="M102.8 79.59 L102.8 79.59 L103.4 79.59 L103.4 82.09 L103.1 82.48 L102.8 82.09 Z" stroke="rgb(0, 0, 0)" stroke-width="0" fill-rule="evenodd" stroke-linejoin="miter" fill="rgb(0, 0, 0)" shape-rendering="geometricPrecision" /><path d="M102.8 65.73 L102.8 65.73 L102.8 68.23 L103.4 68.23 L103.4 65.73 Z" stroke="rgb(0, 0, 0)" stroke-width="0" fill-rule="evenodd" stroke-linejoin="miter" fill="rgb(0, 0, 0)" shape-rendering="geometricPrecision" /><path d="M102.8 70.35 L102.8 70.35 L102.8 72.85 L103.4 72.85 L103.4 70.35 Z" stroke="rgb(0, 0, 0)" stroke-width="0" fill-rule="evenodd" stroke-linejoin="miter" fill="rgb(0, 0, 0)" shape-rendering="geometricPrecision" /><path d="M102.8 74.97 L102.8 74.97 L102.8 77.47 L103.4 77.47 L103.4 74.97 Z" stroke="rgb(0, 0, 0)" stroke-width="0" fill-rule="evenodd" stroke-linejoin="miter" fill="rgb(0, 0, 0)" shape-rendering="geometricPrecision" /></g><g id="Charge2257"><circle cx="48.38" cy="33" r="3.33333333333333" stroke="rgb(0, 0, 0)" stroke-width="0.48" fill="none" /><line x1="46.41" y1="33" x2="50.35" y2="33" stroke="rgb(0, 0, 0)" stroke-width="0.48" shape-rendering="auto" /></g><g id="Charge2258"><circle cx="136.88" cy="67.5" r="3.33333333333333" stroke="rgb(0, 0, 0)" stroke-width="0.48" fill="none" /><line x1="134.91" y1="67.5" x2="138.85" y2="67.5" stroke="rgb(0, 0, 0)" stroke-width="0.48" shape-rendering="auto" /></g><g id="Bracket"><path d="M143.49 25.5 L151.13 25.5 L151.13 135 L143.49 135 " stroke="rgb(0, 0, 0)" stroke-width="0.6" fill-rule="evenodd" stroke-linejoin="miter" fill="none" shape-rendering="geometricPrecision" /></g><g id="Bracket"><path d="M41.02 135 L33.38 135 L33.38 25.5 L41.02 25.5 " stroke="rgb(0, 0, 0)" stroke-width="0.6" fill-rule="evenodd" stroke-linejoin="miter" fill="none" shape-rendering="geometricPrecision" /></g><g id="Charge2261"><line x1="159.38" y1="27.45" x2="159.38" y2="40.05" stroke="rgb(0, 0, 0)" stroke-width="0.48" shape-rendering="auto" /><line x1="156.08" y1="30.75" x2="162.68" y2="30.75" stroke="rgb(0, 0, 0)" stroke-width="0.48" shape-rendering="auto" /><line x1="156.08" y1="36.75" x2="162.68" y2="36.75" stroke="rgb(0, 0, 0)" stroke-width="0.48" shape-rendering="auto" /></g></g></g></svg>