<?xml version="1.0"?><svg xmlns="http://www.w3.org/2000/svg" xmlns:xlink="http://www.w3.org/1999/xlink" viewBox="104.25 111.53 130.38 110.7" preserveAspectRatio="xMidYMid" width="100%" height="100%"><clipPath id="4838"><rect x="0.3" y="0.3" width="522.72" height="769.32" /></clipPath><g id="drawing"><rect x="104.25" y="111.53" width="100%" height="100%" fill="rgb(255, 255, 255)" /><g id="page" clip-path="url(#4838)"><g id="Solid"><path d="M146.1 193.19 L146.1 193.19 L145.8 193.02 L145.91 192.61 L164.21 182.05 L164.51 182.22 L164.55 182.54 Z" stroke="rgb(0, 0, 0)" stroke-width="0" fill-rule="evenodd" stroke-linejoin="miter" fill="rgb(0, 0, 0)" shape-rendering="geometricPrecision" /></g><g id="Solid"><path d="M164.55 182.54 L164.55 182.54 L164.51 182.22 L164.81 181.99 L184.75 187.34 L185.37 187.82 L185.99 188.3 Z" stroke="rgb(0, 0, 0)" stroke-width="0" fill-rule="evenodd" stroke-linejoin="miter" fill="rgb(0, 0, 0)" shape-rendering="geometricPrecision" /><line x1="168.4" y1="179.24" x2="177.31" y2="181.63" stroke="rgb(0, 0, 0)" stroke-width="0.6" shape-rendering="auto" /></g><g id="Solid"><path d="M185.99 188.3 L185.99 188.3 L185.37 187.82 L184.75 187.34 L174.37 169.37 L174.57 169.11 L175.03 169.3 Z" stroke="rgb(0, 0, 0)" stroke-width="0" fill-rule="evenodd" stroke-linejoin="miter" fill="rgb(0, 0, 0)" shape-rendering="geometricPrecision" /></g><g id="Solid"><path d="M162.05 155.76 L162.05 155.76 L161.79 155.91 L161.53 156.06 L153.49 142.14 L153.71 141.92 L154.33 142.4 Z" stroke="rgb(0, 0, 0)" stroke-width="0" fill-rule="evenodd" stroke-linejoin="miter" fill="rgb(0, 0, 0)" shape-rendering="geometricPrecision" /><line x1="158.62" y1="157.75" x2="151.03" y2="144.6" stroke="rgb(0, 0, 0)" stroke-width="0.6" shape-rendering="auto" /></g><g id="Solid"><path d="M154.33 142.4 L154.33 142.4 L153.71 141.92 L153.83 141.64 L174.87 147.28 L174.57 147.51 L174.27 147.74 Z" stroke="rgb(0, 0, 0)" stroke-width="0" fill-rule="evenodd" stroke-linejoin="miter" fill="rgb(0, 0, 0)" shape-rendering="geometricPrecision" /></g><g><text xml:space="preserve" text-anchor="end" text-rendering="geometricPrecision"><tspan x="138.6" y="135.02" font-family="Arial" font-size="10" fill="rgb(0, 0, 0)">O</tspan><tspan font-family="Arial" dy="2.26" font-size="7.5" fill="rgb(0, 0, 0)">2</tspan><tspan font-family="Arial" dy="-2.26" font-size="10" fill="rgb(0, 0, 0)">C</tspan></text></g><g id="Solid"><path d="M153.83 141.64 L153.83 141.64 L153.71 141.92 L153.49 142.14 L139.44 134.03 L139.59 133.77 L139.74 133.51 Z" stroke="rgb(0, 0, 0)" stroke-width="0" fill-rule="evenodd" stroke-linejoin="miter" fill="rgb(0, 0, 0)" shape-rendering="geometricPrecision" /></g><g id="Solid"><g id="Bond's parts"><path d="M153.65 163.25 L153.65 163.25 L154.05 163.3 L154.45 163.4 L154.75 163.5 L155.15 163.6 L155.55 163.7 L155.95 163.8 L156.25 163.9 L156.65 164 L157.05 164.1 L157.45 164.2 L157.75 164.3 L158.15 164.4 L158.55 164.5 L158.85 164.6 L159.25 164.7 L159.65 164.8 L160.05 164.9 L160.35 165 L160.75 165.1 L161.15 165.2 L161.55 165.3 L161.85 165.4 L162.27 165.5 L162.3 165.55 L162.35 166.15 L162.15 166.1 L161.75 166 L161.45 165.9 L161.05 165.8 L160.65 165.7 L160.35 165.6 L159.95 165.5 L159.55 165.4 L159.15 165.3 L158.85 165.2 L158.45 165.1 L158.05 165 L157.65 164.9 L157.35 164.8 L156.95 164.7 L156.55 164.6 L156.15 164.5 L155.85 164.4 L155.45 164.3 L155.05 164.2 L154.75 164.1 L154.35 164 L153.95 163.9 L153.75 163.85 Z" stroke="rgb(0, 0, 0)" stroke-width="0" fill-rule="evenodd" stroke-linejoin="miter" fill="rgb(0, 0, 0)" shape-rendering="geometricPrecision" /><path d="M166.15 166.55 L166.15 166.55 L166.35 166.6 L166.75 166.7 L167.15 166.8 L167.45 166.9 L167.85 167 L168.25 167.1 L168.55 167.2 L168.95 167.3 L169.35 167.4 L169.75 167.5 L170.05 167.6 L170.45 167.7 L170.85 167.8 L171.25 167.9 L171.55 168 L171.95 168.1 L172.35 168.2 L172.75 168.3 L173.05 168.4 L173.45 168.5 L173.85 168.6 L174.15 168.7 L174.38 168.8 L174.4 168.85 L174.5 169.05 L174.5 169.25 L174.48 169.3 L174.15 169.3 L173.75 169.2 L173.35 169.1 L172.95 169 L172.65 168.9 L172.25 168.8 L171.85 168.7 L171.55 168.6 L171.15 168.5 L170.75 168.4 L170.35 168.3 L170.05 168.2 L169.65 168.1 L169.25 168 L168.85 167.9 L168.55 167.8 L168.15 167.7 L167.75 167.6 L167.35 167.5 L167.05 167.4 L166.65 167.3 L166.23 167.2 Z" stroke="rgb(0, 0, 0)" stroke-width="0" fill-rule="evenodd" stroke-linejoin="miter" fill="rgb(0, 0, 0)" shape-rendering="geometricPrecision" /></g></g><g><text xml:space="preserve" text-anchor="start" text-rendering="geometricPrecision"><tspan x="160.61" y="164.52" font-family="Arial" font-size="10" fill="rgb(0, 0, 0)">O</tspan></text></g><g id="Dash"><path d="M164.81 179.49 L164.81 179.49 L164.21 179.49 L164.21 182.05 L164.51 182.22 L164.81 181.99 Z" stroke="rgb(0, 0, 0)" stroke-width="0" fill-rule="evenodd" stroke-linejoin="miter" fill="rgb(0, 0, 0)" shape-rendering="geometricPrecision" /><path d="M164.81 168.8 L164.81 168.8 L164.21 168.8 L164.21 166.3 L164.51 166.3 L164.81 166.3 Z" stroke="rgb(0, 0, 0)" stroke-width="0" fill-rule="evenodd" stroke-linejoin="miter" fill="rgb(0, 0, 0)" shape-rendering="geometricPrecision" /><path d="M164.81 177.59 L164.81 177.59 L164.81 175.09 L164.21 175.09 L164.21 177.59 Z" stroke="rgb(0, 0, 0)" stroke-width="0" fill-rule="evenodd" stroke-linejoin="miter" fill="rgb(0, 0, 0)" shape-rendering="geometricPrecision" /><path d="M164.81 173.2 L164.81 173.2 L164.81 170.7 L164.21 170.7 L164.21 173.2 Z" stroke="rgb(0, 0, 0)" stroke-width="0" fill-rule="evenodd" stroke-linejoin="miter" fill="rgb(0, 0, 0)" shape-rendering="geometricPrecision" /></g><g id="Solid"><path d="M153.67 163.2 L153.67 163.2 L153.71 163.52 L153.75 163.84 L135.41 174.43 L135 174.32 L134.59 174.21 Z" stroke="rgb(0, 0, 0)" stroke-width="0" fill-rule="evenodd" stroke-linejoin="miter" fill="rgb(0, 0, 0)" shape-rendering="geometricPrecision" /><line x1="154.26" y1="167.69" x2="140.31" y2="175.74" stroke="rgb(0, 0, 0)" stroke-width="0.6" shape-rendering="auto" /></g><g id="Solid"><path d="M134.59 174.21 L134.59 174.21 L135 174.32 L135.41 174.43 L145.91 192.61 L145.8 193.02 L145.5 193.1 Z" stroke="rgb(0, 0, 0)" stroke-width="0" fill-rule="evenodd" stroke-linejoin="miter" fill="rgb(0, 0, 0)" shape-rendering="geometricPrecision" /></g><g><text xml:space="preserve" text-anchor="start" text-rendering="geometricPrecision"><tspan x="141.9" y="218.52" font-family="Arial" font-size="10" fill="rgb(0, 0, 0)">OH</tspan></text></g><g id="Solid"><path d="M145.5 193.1 L145.5 193.1 L145.8 193.02 L146.1 193.19 L146.1 209.7 L145.8 209.7 L145.5 209.7 Z" stroke="rgb(0, 0, 0)" stroke-width="0" fill-rule="evenodd" stroke-linejoin="miter" fill="rgb(0, 0, 0)" shape-rendering="geometricPrecision" /></g><g><text xml:space="preserve" text-anchor="start" text-rendering="geometricPrecision"><tspan x="191.83" y="167.42" font-family="Arial" font-size="10" fill="rgb(0, 0, 0)">CO</tspan><tspan font-family="Arial" dy="2.26" font-size="7.5" fill="rgb(0, 0, 0)">2</tspan></text></g><g id="Solid"><path d="M175.03 169.3 L175.03 169.3 L174.57 169.11 L174.87 168.72 L190.78 164.46 L190.85 164.75 L190.93 165.04 Z" stroke="rgb(0, 0, 0)" stroke-width="0" fill-rule="evenodd" stroke-linejoin="miter" fill="rgb(0, 0, 0)" shape-rendering="geometricPrecision" /></g><g id="Dash"><path d="M174.27 150.24 L174.27 150.24 L174.87 150.24 L174.87 147.28 L174.57 147.51 L174.27 147.74 Z" stroke="rgb(0, 0, 0)" stroke-width="0" fill-rule="evenodd" stroke-linejoin="miter" fill="rgb(0, 0, 0)" shape-rendering="geometricPrecision" /><path d="M174.27 166.22 L174.27 166.22 L174.87 166.22 L174.87 168.72 L174.57 169.11 L174.27 168.72 Z" stroke="rgb(0, 0, 0)" stroke-width="0" fill-rule="evenodd" stroke-linejoin="miter" fill="rgb(0, 0, 0)" shape-rendering="geometricPrecision" /><path d="M174.27 152.36 L174.27 152.36 L174.27 154.86 L174.87 154.86 L174.87 152.36 Z" stroke="rgb(0, 0, 0)" stroke-width="0" fill-rule="evenodd" stroke-linejoin="miter" fill="rgb(0, 0, 0)" shape-rendering="geometricPrecision" /><path d="M174.27 156.98 L174.27 156.98 L174.27 159.48 L174.87 159.48 L174.87 156.98 Z" stroke="rgb(0, 0, 0)" stroke-width="0" fill-rule="evenodd" stroke-linejoin="miter" fill="rgb(0, 0, 0)" shape-rendering="geometricPrecision" /><path d="M174.27 161.6 L174.27 161.6 L174.27 164.1 L174.87 164.1 L174.87 161.6 Z" stroke="rgb(0, 0, 0)" stroke-width="0" fill-rule="evenodd" stroke-linejoin="miter" fill="rgb(0, 0, 0)" shape-rendering="geometricPrecision" /></g><g id="Charge4796"><circle cx="119.85" cy="119.63" r="3.33333333333333" stroke="rgb(0, 0, 0)" stroke-width="0.48" fill="none" /><line x1="117.88" y1="119.63" x2="121.82" y2="119.63" stroke="rgb(0, 0, 0)" stroke-width="0.48" shape-rendering="auto" /></g><g id="Charge2258"><circle cx="208.35" cy="154.13" r="3.33333333333333" stroke="rgb(0, 0, 0)" stroke-width="0.48" fill="none" /><line x1="206.38" y1="154.13" x2="210.32" y2="154.13" stroke="rgb(0, 0, 0)" stroke-width="0.48" shape-rendering="auto" /></g><g id="Bracket"><path d="M214.96 112.13 L222.6 112.13 L222.6 221.63 L214.96 221.63 " stroke="rgb(0, 0, 0)" stroke-width="0.6" fill-rule="evenodd" stroke-linejoin="miter" fill="none" shape-rendering="geometricPrecision" /></g><g id="Bracket"><path d="M112.49 221.63 L104.85 221.63 L104.85 112.13 L112.49 112.13 " stroke="rgb(0, 0, 0)" stroke-width="0.6" fill-rule="evenodd" stroke-linejoin="miter" fill="none" shape-rendering="geometricPrecision" /></g><g id="Charge4797"><line x1="230.85" y1="114.08" x2="230.85" y2="126.68" stroke="rgb(0, 0, 0)" stroke-width="0.48" shape-rendering="auto" /><line x1="227.55" y1="117.38" x2="234.15" y2="117.38" stroke="rgb(0, 0, 0)" stroke-width="0.48" shape-rendering="auto" /><line x1="227.55" y1="123.38" x2="234.15" y2="123.38" stroke="rgb(0, 0, 0)" stroke-width="0.48" shape-rendering="auto" /></g></g></g></svg>