<?xml version="1.0"?><svg xmlns="http://www.w3.org/2000/svg" xmlns:xlink="http://www.w3.org/1999/xlink" viewBox="19.28 40.65 121.38 87.45" preserveAspectRatio="xMidYMid" width="100%" height="100%"><clipPath id="63"><rect x="0.3" y="0.3" width="522.72" height="769.32" /></clipPath><g id="drawing"><rect x="19.28" y="40.65" width="100%" height="100%" fill="rgb(255, 255, 255)" /><g id="page" clip-path="url(#63)"><g id="Dash"><g id="Bond's parts"><path d="M81.45 62.3 L81.45 62.3 L81.5 62.25 L81.6 62.65 L81.7 63.15 L81.8 63.55 L81.8 64.25 L81.75 66.05 L81.15 66.05 L81.2 64.35 L81.3 62.45 L81.35 62.4 Z" stroke="rgb(0, 0, 0)" stroke-width="0" fill-rule="evenodd" stroke-linejoin="miter" fill="rgb(0, 0, 0)" shape-rendering="geometricPrecision" /><path d="M81.15 69.45 L81.15 69.45 L81.75 69.45 L81.75 71.95 Z" stroke="rgb(0, 0, 0)" stroke-width="0" fill-rule="evenodd" stroke-linejoin="miter" fill="rgb(0, 0, 0)" shape-rendering="geometricPrecision" /><path d="M81.05 75.35 L81.05 75.35 L81.65 75.35 L81.6 75.75 L81.57 75.8 L81.35 75.9 L81.12 76 Z" stroke="rgb(0, 0, 0)" stroke-width="0" fill-rule="evenodd" stroke-linejoin="miter" fill="rgb(0, 0, 0)" shape-rendering="geometricPrecision" /><path d="M81.05 81.25 L81.05 81.25 L81.65 81.25 L81.65 83.75 Z" stroke="rgb(0, 0, 0)" stroke-width="0" fill-rule="evenodd" stroke-linejoin="miter" fill="rgb(0, 0, 0)" shape-rendering="geometricPrecision" /><path d="M80.95 87.15 L80.95 87.15 L81.55 87.15 L81.55 89.65 Z" stroke="rgb(0, 0, 0)" stroke-width="0" fill-rule="evenodd" stroke-linejoin="miter" fill="rgb(0, 0, 0)" shape-rendering="geometricPrecision" /><path d="M80.95 92.95 L80.95 92.95 L81.55 92.95 L81.55 95.45 Z" stroke="rgb(0, 0, 0)" stroke-width="0" fill-rule="evenodd" stroke-linejoin="miter" fill="rgb(0, 0, 0)" shape-rendering="geometricPrecision" /><path d="M80.85 98.85 L80.85 98.85 L81.45 98.85 L81.45 101.35 Z" stroke="rgb(0, 0, 0)" stroke-width="0" fill-rule="evenodd" stroke-linejoin="miter" fill="rgb(0, 0, 0)" shape-rendering="geometricPrecision" /><path d="M80.85 104.75 L80.85 104.75 L81.45 104.75 L81.4 107.25 L81.35 107.3 L81.25 107.4 L81.15 107.5 L81.07 107.5 Z" stroke="rgb(0, 0, 0)" stroke-width="0" fill-rule="evenodd" stroke-linejoin="miter" fill="rgb(0, 0, 0)" shape-rendering="geometricPrecision" /></g></g><g id="Solid"><path d="M62.71 62.55 L62.71 62.55 L62.63 62.25 L62.55 61.95 L81.42 61.95 L81.52 62.25 L81.22 62.55 Z" stroke="rgb(0, 0, 0)" stroke-width="0" fill-rule="evenodd" stroke-linejoin="miter" fill="rgb(0, 0, 0)" shape-rendering="geometricPrecision" /><line x1="63.54" y1="65.65" x2="78.09" y2="65.65" stroke="rgb(0, 0, 0)" stroke-width="0.6" shape-rendering="auto" /></g><g id="Solid"><path d="M62.55 61.95 L62.55 61.95 L62.63 62.25 L62.71 62.55 L50.56 69.56 L50.15 69.45 L50.07 69.15 Z" stroke="rgb(0, 0, 0)" stroke-width="0" fill-rule="evenodd" stroke-linejoin="miter" fill="rgb(0, 0, 0)" shape-rendering="geometricPrecision" /></g><g id="Solid"><path d="M49.98 69.75 L49.98 69.75 L50.15 69.45 L50.56 69.56 L57.52 81.62 L57.35 81.92 L56.96 81.84 Z" stroke="rgb(0, 0, 0)" stroke-width="0" fill-rule="evenodd" stroke-linejoin="miter" fill="rgb(0, 0, 0)" shape-rendering="geometricPrecision" /><line x1="53.69" y1="70.4" x2="58.85" y2="79.33" stroke="rgb(0, 0, 0)" stroke-width="0.6" shape-rendering="auto" /></g><g id="Solid"><path d="M57.77 82.22 L57.77 82.22 L57.35 81.92 L57.52 81.62 L73.18 81.62 L73.25 81.92 L73.32 82.22 Z" stroke="rgb(0, 0, 0)" stroke-width="0" fill-rule="evenodd" stroke-linejoin="miter" fill="rgb(0, 0, 0)" shape-rendering="geometricPrecision" /></g><g id="Solid"><path d="M73.32 82.22 L73.32 82.22 L73.25 81.92 L73.18 81.62 L86.83 74.58 L87.22 74.72 L87.61 74.86 Z" stroke="rgb(0, 0, 0)" stroke-width="0" fill-rule="evenodd" stroke-linejoin="miter" fill="rgb(0, 0, 0)" shape-rendering="geometricPrecision" /></g><g id="Solid"><path d="M87.61 74.86 L87.61 74.86 L87.22 74.72 L86.83 74.58 L81.81 63.6 L81.52 62.25 L81.89 62.35 Z" stroke="rgb(0, 0, 0)" stroke-width="0" fill-rule="evenodd" stroke-linejoin="miter" fill="rgb(0, 0, 0)" shape-rendering="geometricPrecision" /></g><g><text xml:space="preserve" text-anchor="start" text-rendering="geometricPrecision"><tspan x="89.91" y="57.03" font-family="Arial" font-size="10" fill="rgb(0, 0, 0)">OMe</tspan></text></g><g id="Solid"><path d="M81.89 62.35 L81.89 62.35 L81.52 62.25 L81.42 61.95 L89.34 56.08 L89.52 56.32 L89.69 56.56 Z" stroke="rgb(0, 0, 0)" stroke-width="0" fill-rule="evenodd" stroke-linejoin="miter" fill="rgb(0, 0, 0)" shape-rendering="geometricPrecision" /></g><g id="Solid"><path d="M56.96 81.84 L56.96 81.84 L57.35 81.92 L57.2 82.4 L43.58 92.38 L43.4 92.14 L43.22 91.9 Z" stroke="rgb(0, 0, 0)" stroke-width="0" fill-rule="evenodd" stroke-linejoin="miter" fill="rgb(0, 0, 0)" shape-rendering="geometricPrecision" /></g><g id="Solid"><path d="M50.07 69.15 L50.07 69.15 L50.15 69.45 L49.98 69.75 L34.74 69.77 L34.74 69.47 L34.74 69.17 Z" stroke="rgb(0, 0, 0)" stroke-width="0" fill-rule="evenodd" stroke-linejoin="miter" fill="rgb(0, 0, 0)" shape-rendering="geometricPrecision" /></g><g id="Solid"><path d="M68.46 115.19 L68.46 115.19 L68.63 114.75 L68.8 114.31 L80.8 107.38 L81.1 107.55 L81.18 107.85 Z" stroke="rgb(0, 0, 0)" stroke-width="0" fill-rule="evenodd" stroke-linejoin="miter" fill="rgb(0, 0, 0)" shape-rendering="geometricPrecision" /><line x1="70.06" y1="110.93" x2="78.52" y2="106.05" stroke="rgb(0, 0, 0)" stroke-width="0.6" shape-rendering="auto" /></g><g id="Solid"><path d="M81.18 107.85 L81.18 107.85 L81.1 107.55 L81.4 107.25 L95.62 107.25 L95.5 107.55 L95.38 107.85 Z" stroke="rgb(0, 0, 0)" stroke-width="0" fill-rule="evenodd" stroke-linejoin="miter" fill="rgb(0, 0, 0)" shape-rendering="geometricPrecision" /></g><g><text xml:space="preserve" text-anchor="start" text-rendering="geometricPrecision"><tspan x="104.07" y="104.25" font-family="Arial" font-size="10" fill="rgb(0, 0, 0)">O</tspan></text></g><g id="Solid"><line x1="94.85" y1="106.43" x2="102.57" y2="101.97" stroke="rgb(0, 0, 0)" stroke-width="0.6" shape-rendering="auto" /><path d="M96.5 108.12 L96.5 108.12 L96.94 108.56 L104.01 104.48 L103.71 103.96 Z" stroke="rgb(0, 0, 0)" stroke-width="0" fill-rule="evenodd" stroke-linejoin="miter" fill="rgb(0, 0, 0)" shape-rendering="geometricPrecision" /><path d="M92.83 107.25 L92.83 107.25 L94.03 107.25 L102.72 102.23 L102.42 101.71 Z" stroke="rgb(0, 0, 0)" stroke-width="0" fill-rule="evenodd" stroke-linejoin="miter" fill="rgb(0, 0, 0)" shape-rendering="geometricPrecision" /></g><g><text xml:space="preserve" text-anchor="start" text-rendering="geometricPrecision"><tspan x="100.7" y="121.63" font-family="Arial" font-style="italic" dy="-4.07" font-size="7.5" fill="rgb(0, 0, 0)">i</tspan><tspan font-family="Arial" dy="4.07" font-size="10" fill="rgb(0, 0, 0)">Pr</tspan></text></g><g id="Solid"><path d="M95.38 107.85 L95.38 107.85 L95.5 107.55 L95.62 107.25 L100.68 112.31 L100.47 112.52 L100.26 112.73 Z" stroke="rgb(0, 0, 0)" stroke-width="0" fill-rule="evenodd" stroke-linejoin="miter" fill="rgb(0, 0, 0)" shape-rendering="geometricPrecision" /></g><g id="Dash"><path d="M58.02 84.78 L58.02 84.78 L58.58 84.58 L57.77 82.22 L57.35 81.92 L57.2 82.4 Z" stroke="rgb(0, 0, 0)" stroke-width="0" fill-rule="evenodd" stroke-linejoin="miter" fill="rgb(0, 0, 0)" shape-rendering="geometricPrecision" /><path d="M67.42 112.14 L67.42 112.14 L67.98 111.94 L68.8 114.31 L68.63 114.75 L68.46 115.19 Z" stroke="rgb(0, 0, 0)" stroke-width="0" fill-rule="evenodd" stroke-linejoin="miter" fill="rgb(0, 0, 0)" shape-rendering="geometricPrecision" /><path d="M58.9 87.37 L58.9 87.37 L59.72 89.73 L60.28 89.54 L59.47 87.17 Z" stroke="rgb(0, 0, 0)" stroke-width="0" fill-rule="evenodd" stroke-linejoin="miter" fill="rgb(0, 0, 0)" shape-rendering="geometricPrecision" /><path d="M60.61 92.32 L60.61 92.32 L61.42 94.69 L61.99 94.49 L61.17 92.13 Z" stroke="rgb(0, 0, 0)" stroke-width="0" fill-rule="evenodd" stroke-linejoin="miter" fill="rgb(0, 0, 0)" shape-rendering="geometricPrecision" /><path d="M62.31 97.28 L62.31 97.28 L63.12 99.64 L63.69 99.45 L62.88 97.08 Z" stroke="rgb(0, 0, 0)" stroke-width="0" fill-rule="evenodd" stroke-linejoin="miter" fill="rgb(0, 0, 0)" shape-rendering="geometricPrecision" /><path d="M64.01 102.23 L64.01 102.23 L64.82 104.6 L65.39 104.4 L64.58 102.04 Z" stroke="rgb(0, 0, 0)" stroke-width="0" fill-rule="evenodd" stroke-linejoin="miter" fill="rgb(0, 0, 0)" shape-rendering="geometricPrecision" /><path d="M65.71 107.18 L65.71 107.18 L66.53 109.55 L67.09 109.35 L66.28 106.99 Z" stroke="rgb(0, 0, 0)" stroke-width="0" fill-rule="evenodd" stroke-linejoin="miter" fill="rgb(0, 0, 0)" shape-rendering="geometricPrecision" /></g><g id="Bracket"><path d="M120.94 41.25 L127.13 41.25 L127.13 127.5 L120.94 127.5 " stroke="rgb(0, 0, 0)" stroke-width="0.6" fill-rule="evenodd" stroke-linejoin="miter" fill="none" shape-rendering="geometricPrecision" /></g><g id="Bracket"><path d="M26.07 127.5 L19.88 127.5 L19.88 41.25 L26.07 41.25 " stroke="rgb(0, 0, 0)" stroke-width="0.6" fill-rule="evenodd" stroke-linejoin="miter" fill="none" shape-rendering="geometricPrecision" /></g><g id="Charge44"><line x1="136.88" y1="43.2" x2="136.88" y2="55.8" stroke="rgb(0, 0, 0)" stroke-width="0.48" shape-rendering="auto" /><line x1="133.58" y1="46.5" x2="140.18" y2="46.5" stroke="rgb(0, 0, 0)" stroke-width="0.48" shape-rendering="auto" /><line x1="133.58" y1="52.5" x2="140.18" y2="52.5" stroke="rgb(0, 0, 0)" stroke-width="0.48" shape-rendering="auto" /></g></g></g></svg>