<?xml version="1.0"?><svg xmlns="http://www.w3.org/2000/svg" xmlns:xlink="http://www.w3.org/1999/xlink" viewBox="202.5 219.15 125.13 87.45" preserveAspectRatio="xMidYMid" width="100%" height="100%"><clipPath id="133"><rect x="0.3" y="0.3" width="522.72" height="769.32" /></clipPath><g id="drawing"><rect x="202.5" y="219.15" width="100%" height="100%" fill="rgb(255, 255, 255)" /><g id="page" clip-path="url(#133)"><g id="Solid"><path d="M252.68 239.55 L252.68 239.55 L252.6 239.25 L252.52 238.95 L271.4 238.95 L271.5 239.25 L271.2 239.55 Z" stroke="rgb(0, 0, 0)" stroke-width="0" fill-rule="evenodd" stroke-linejoin="miter" fill="rgb(0, 0, 0)" shape-rendering="geometricPrecision" /><line x1="253.51" y1="242.65" x2="268.07" y2="242.65" stroke="rgb(0, 0, 0)" stroke-width="0.6" shape-rendering="auto" /></g><g id="Solid"><path d="M252.52 238.95 L252.52 238.95 L252.6 239.25 L252.68 239.55 L240.54 246.56 L240.13 246.45 L240.05 246.15 Z" stroke="rgb(0, 0, 0)" stroke-width="0" fill-rule="evenodd" stroke-linejoin="miter" fill="rgb(0, 0, 0)" shape-rendering="geometricPrecision" /></g><g id="Solid"><path d="M239.96 246.75 L239.96 246.75 L240.13 246.45 L240.54 246.56 L247.5 258.62 L247.33 258.92 L246.94 258.84 Z" stroke="rgb(0, 0, 0)" stroke-width="0" fill-rule="evenodd" stroke-linejoin="miter" fill="rgb(0, 0, 0)" shape-rendering="geometricPrecision" /><line x1="243.67" y1="247.4" x2="248.83" y2="256.33" stroke="rgb(0, 0, 0)" stroke-width="0.6" shape-rendering="auto" /></g><g id="Solid"><path d="M247.75 259.22 L247.75 259.22 L247.33 258.92 L247.5 258.62 L263.16 258.62 L263.23 258.92 L263.3 259.22 Z" stroke="rgb(0, 0, 0)" stroke-width="0" fill-rule="evenodd" stroke-linejoin="miter" fill="rgb(0, 0, 0)" shape-rendering="geometricPrecision" /></g><g id="Solid"><path d="M277.59 251.86 L277.59 251.86 L277.2 251.72 L276.81 251.58 L271.79 240.6 L271.5 239.25 L271.87 239.35 Z" stroke="rgb(0, 0, 0)" stroke-width="0" fill-rule="evenodd" stroke-linejoin="miter" fill="rgb(0, 0, 0)" shape-rendering="geometricPrecision" /></g><g><text xml:space="preserve" text-anchor="start" text-rendering="geometricPrecision"><tspan x="279.88" y="234.03" font-family="Arial" font-size="10" fill="rgb(0, 0, 0)">OMe</tspan></text></g><g id="Solid"><path d="M271.87 239.35 L271.87 239.35 L271.5 239.25 L271.4 238.95 L279.24 233.13 L279.42 233.37 L279.59 233.61 Z" stroke="rgb(0, 0, 0)" stroke-width="0" fill-rule="evenodd" stroke-linejoin="miter" fill="rgb(0, 0, 0)" shape-rendering="geometricPrecision" /></g><g id="Solid"><path d="M246.94 258.84 L246.94 258.84 L247.33 258.92 L247.18 259.4 L233.56 269.38 L233.38 269.14 L233.2 268.9 Z" stroke="rgb(0, 0, 0)" stroke-width="0" fill-rule="evenodd" stroke-linejoin="miter" fill="rgb(0, 0, 0)" shape-rendering="geometricPrecision" /></g><g id="Solid"><path d="M240.05 246.15 L240.05 246.15 L240.13 246.45 L239.96 246.75 L224.72 246.77 L224.72 246.47 L224.72 246.17 Z" stroke="rgb(0, 0, 0)" stroke-width="0" fill-rule="evenodd" stroke-linejoin="miter" fill="rgb(0, 0, 0)" shape-rendering="geometricPrecision" /></g><g id="Solid"><path d="M258.68 292.05 L258.68 292.05 L258.6 291.75 L258.77 291.31 L270.77 284.38 L271.07 284.55 L271.37 284.72 Z" stroke="rgb(0, 0, 0)" stroke-width="0" fill-rule="evenodd" stroke-linejoin="miter" fill="rgb(0, 0, 0)" shape-rendering="geometricPrecision" /><line x1="260.03" y1="287.93" x2="268.49" y2="283.05" stroke="rgb(0, 0, 0)" stroke-width="0.6" shape-rendering="auto" /></g><g id="Bracket"><path d="M304.91 219.75 L311.1 219.75 L311.1 306 L304.91 306 " stroke="rgb(0, 0, 0)" stroke-width="0.6" fill-rule="evenodd" stroke-linejoin="miter" fill="none" shape-rendering="geometricPrecision" /></g><g id="Bracket"><path d="M209.29 306 L203.1 306 L203.1 219.75 L209.29 219.75 " stroke="rgb(0, 0, 0)" stroke-width="0.6" fill-rule="evenodd" stroke-linejoin="miter" fill="none" shape-rendering="geometricPrecision" /></g><g id="Charge110"><line x1="323.85" y1="221.7" x2="323.85" y2="234.3" stroke="rgb(0, 0, 0)" stroke-width="0.48" shape-rendering="auto" /><line x1="320.55" y1="225" x2="327.15" y2="225" stroke="rgb(0, 0, 0)" stroke-width="0.48" shape-rendering="auto" /><line x1="320.55" y1="231" x2="327.15" y2="231" stroke="rgb(0, 0, 0)" stroke-width="0.48" shape-rendering="auto" /></g><g id="Dash"><path d="M247.99 261.78 L247.99 261.78 L248.56 261.58 L247.75 259.22 L247.33 258.92 L247.18 259.4 Z" stroke="rgb(0, 0, 0)" stroke-width="0" fill-rule="evenodd" stroke-linejoin="miter" fill="rgb(0, 0, 0)" shape-rendering="geometricPrecision" /><path d="M257.37 289.09 L257.37 289.09 L257.94 288.89 L258.77 291.31 L258.6 291.75 L258.18 291.45 Z" stroke="rgb(0, 0, 0)" stroke-width="0" fill-rule="evenodd" stroke-linejoin="miter" fill="rgb(0, 0, 0)" shape-rendering="geometricPrecision" /><path d="M248.88 264.36 L248.88 264.36 L249.69 266.72 L250.26 266.53 L249.45 264.17 Z" stroke="rgb(0, 0, 0)" stroke-width="0" fill-rule="evenodd" stroke-linejoin="miter" fill="rgb(0, 0, 0)" shape-rendering="geometricPrecision" /><path d="M250.58 269.31 L250.58 269.31 L251.39 271.67 L251.96 271.47 L251.15 269.11 Z" stroke="rgb(0, 0, 0)" stroke-width="0" fill-rule="evenodd" stroke-linejoin="miter" fill="rgb(0, 0, 0)" shape-rendering="geometricPrecision" /><path d="M252.28 274.25 L252.28 274.25 L253.09 276.61 L253.65 276.42 L252.84 274.06 Z" stroke="rgb(0, 0, 0)" stroke-width="0" fill-rule="evenodd" stroke-linejoin="miter" fill="rgb(0, 0, 0)" shape-rendering="geometricPrecision" /><path d="M253.97 279.2 L253.97 279.2 L254.78 281.56 L255.35 281.36 L254.54 279 Z" stroke="rgb(0, 0, 0)" stroke-width="0" fill-rule="evenodd" stroke-linejoin="miter" fill="rgb(0, 0, 0)" shape-rendering="geometricPrecision" /><path d="M255.67 284.14 L255.67 284.14 L256.48 286.5 L257.05 286.31 L256.24 283.95 Z" stroke="rgb(0, 0, 0)" stroke-width="0" fill-rule="evenodd" stroke-linejoin="miter" fill="rgb(0, 0, 0)" shape-rendering="geometricPrecision" /></g><g id="Dash"><g id="Bond's parts"><path d="M271.45 239.3 L271.45 239.3 L271.5 239.25 L271.6 239.75 L271.7 240.15 L271.75 243.05 L271.15 243.05 L271.2 239.55 L271.25 239.5 L271.35 239.4 Z" stroke="rgb(0, 0, 0)" stroke-width="0" fill-rule="evenodd" stroke-linejoin="miter" fill="rgb(0, 0, 0)" shape-rendering="geometricPrecision" /><path d="M271.15 246.45 L271.15 246.45 L271.75 246.45 L271.75 248.95 Z" stroke="rgb(0, 0, 0)" stroke-width="0" fill-rule="evenodd" stroke-linejoin="miter" fill="rgb(0, 0, 0)" shape-rendering="geometricPrecision" /><path d="M271.05 252.35 L271.05 252.35 L271.65 252.35 L271.6 252.75 L271.58 252.8 L271.35 252.9 L271.12 253 Z" stroke="rgb(0, 0, 0)" stroke-width="0" fill-rule="evenodd" stroke-linejoin="miter" fill="rgb(0, 0, 0)" shape-rendering="geometricPrecision" /><path d="M271.05 258.25 L271.05 258.25 L271.65 258.25 L271.6 260.15 L271.55 260.75 L270.95 260.75 Z" stroke="rgb(0, 0, 0)" stroke-width="0" fill-rule="evenodd" stroke-linejoin="miter" fill="rgb(0, 0, 0)" shape-rendering="geometricPrecision" /><path d="M270.95 264.15 L270.95 264.15 L271.55 264.15 L271.55 266.65 Z" stroke="rgb(0, 0, 0)" stroke-width="0" fill-rule="evenodd" stroke-linejoin="miter" fill="rgb(0, 0, 0)" shape-rendering="geometricPrecision" /><path d="M270.95 270.05 L270.95 270.05 L271.55 270.05 L271.5 270.75 L271.45 272.55 L270.85 272.55 Z" stroke="rgb(0, 0, 0)" stroke-width="0" fill-rule="evenodd" stroke-linejoin="miter" fill="rgb(0, 0, 0)" shape-rendering="geometricPrecision" /><path d="M270.85 275.95 L270.85 275.95 L271.45 275.95 L271.45 278.45 Z" stroke="rgb(0, 0, 0)" stroke-width="0" fill-rule="evenodd" stroke-linejoin="miter" fill="rgb(0, 0, 0)" shape-rendering="geometricPrecision" /><path d="M270.75 281.85 L270.75 281.85 L271.35 281.85 L271.35 284.65 L271.15 284.6 L270.92 284.5 L270.85 284.4 Z" stroke="rgb(0, 0, 0)" stroke-width="0" fill-rule="evenodd" stroke-linejoin="miter" fill="rgb(0, 0, 0)" shape-rendering="geometricPrecision" /></g></g><g id="Solid"><path d="M258.18 291.45 L258.18 291.45 L258.6 291.75 L258.68 292.05 L244.12 292.05 L244.2 291.75 L244.28 291.45 Z" stroke="rgb(0, 0, 0)" stroke-width="0" fill-rule="evenodd" stroke-linejoin="miter" fill="rgb(0, 0, 0)" shape-rendering="geometricPrecision" /></g><g><text xml:space="preserve" text-anchor="start" text-rendering="geometricPrecision"><tspan x="227.83" y="302.85" font-family="Arial" font-size="10" fill="rgb(0, 0, 0)">O</tspan></text></g><g id="Solid"><line x1="244.85" y1="292.87" x2="237.23" y2="297.27" stroke="rgb(0, 0, 0)" stroke-width="0.6" shape-rendering="auto" /><path d="M242.9 291.35 L242.9 291.35 L242.3 291 L235.79 294.76 L236.09 295.28 Z" stroke="rgb(0, 0, 0)" stroke-width="0" fill-rule="evenodd" stroke-linejoin="miter" fill="rgb(0, 0, 0)" shape-rendering="geometricPrecision" /><path d="M246.87 292.05 L246.87 292.05 L245.67 292.05 L237.08 297.01 L237.38 297.53 Z" stroke="rgb(0, 0, 0)" stroke-width="0" fill-rule="evenodd" stroke-linejoin="miter" fill="rgb(0, 0, 0)" shape-rendering="geometricPrecision" /></g><g id="Solid"><path d="M244.28 291.45 L244.28 291.45 L244.2 291.75 L244.12 292.05 L235.04 286.81 L235.19 286.55 L235.34 286.29 Z" stroke="rgb(0, 0, 0)" stroke-width="0" fill-rule="evenodd" stroke-linejoin="miter" fill="rgb(0, 0, 0)" shape-rendering="geometricPrecision" /></g><g><text xml:space="preserve" text-anchor="end" text-rendering="geometricPrecision"><tspan x="233.4" y="288.45" font-family="Arial" font-size="10" fill="rgb(0, 0, 0)">Pr</tspan><tspan font-family="Arial" font-style="italic" dy="-4.07" font-size="7.5" fill="rgb(0, 0, 0)">i</tspan></text></g><g id="Solid"><path d="M263.3 259.22 L263.3 259.22 L263.23 258.92 L263.16 258.62 L276.81 251.58 L277.2 251.72 L277.59 251.86 Z" stroke="rgb(0, 0, 0)" stroke-width="0" fill-rule="evenodd" stroke-linejoin="miter" fill="rgb(0, 0, 0)" shape-rendering="geometricPrecision" /></g></g></g></svg>