<?xml version="1.0"?><svg xmlns="http://www.w3.org/2000/svg" xmlns:xlink="http://www.w3.org/1999/xlink" viewBox="40.53 67.14 69.47 62.16" preserveAspectRatio="xMidYMid" width="100%" height="100%"><clipPath id="58"><rect x="0.3" y="0.3" width="522.72" height="769.32" /></clipPath><g id="drawing"><rect x="40.53" y="67.14" width="100%" height="100%" fill="rgb(255, 255, 255)" /><g id="page" clip-path="url(#58)"><g id="Solid"><g id="Bond's parts"><path d="M52.9 93.15 L52.9 93.15 L52.92 93.2 L53.15 93.3 L53.38 93.4 L53.4 93.45 L53.4 107.55 L53.38 107.6 L52.92 107.6 Z" stroke="rgb(0, 0, 0)" stroke-width="0" fill-rule="evenodd" stroke-linejoin="miter" fill="rgb(0, 0, 0)" shape-rendering="geometricPrecision" /><path d="M55.45 94.75 L55.45 94.75 L56.05 94.75 L56 96.35 L55.95 96.4 L55.9 96.45 L55.8 96.65 L55.75 96.7 L55.7 96.75 L55.6 96.95 L55.55 97 Z" stroke="rgb(0, 0, 0)" stroke-width="0" fill-rule="evenodd" stroke-linejoin="miter" fill="rgb(0, 0, 0)" shape-rendering="geometricPrecision" /><path d="M55.53 98.8 L55.53 98.8 L56.05 98.75 L56.05 106.15 L55.45 106.15 L55.5 98.85 Z" stroke="rgb(0, 0, 0)" stroke-width="0" fill-rule="evenodd" stroke-linejoin="miter" fill="rgb(0, 0, 0)" shape-rendering="geometricPrecision" /></g></g><g id="Solid"><path d="M53.15 108.05 L53.15 108.05 L53.15 107.7 L53.45 107.53 L65.63 114.55 L65.63 114.9 L65.32 115.07 Z" stroke="rgb(0, 0, 0)" stroke-width="0" fill-rule="evenodd" stroke-linejoin="miter" fill="rgb(0, 0, 0)" shape-rendering="geometricPrecision" /></g><g id="Solid"><path d="M65.94 115.07 L65.94 115.07 L65.63 114.9 L65.63 114.55 L77.8 107.53 L78.1 107.7 L78.4 107.87 Z" stroke="rgb(0, 0, 0)" stroke-width="0" fill-rule="evenodd" stroke-linejoin="miter" fill="rgb(0, 0, 0)" shape-rendering="geometricPrecision" /></g><g id="Solid"><path d="M78.4 107.87 L78.4 107.87 L78.1 107.7 L77.8 107.53 L77.8 93.47 L78.1 93.3 L78.4 93.13 Z" stroke="rgb(0, 0, 0)" stroke-width="0" fill-rule="evenodd" stroke-linejoin="miter" fill="rgb(0, 0, 0)" shape-rendering="geometricPrecision" /></g><g id="Solid"><path d="M78.4 93.13 L78.4 93.13 L78.1 93.3 L77.8 93.47 L65.63 86.45 L65.63 86.1 L65.94 85.93 Z" stroke="rgb(0, 0, 0)" stroke-width="0" fill-rule="evenodd" stroke-linejoin="miter" fill="rgb(0, 0, 0)" shape-rendering="geometricPrecision" /></g><g id="Solid"><path d="M65.32 85.93 L65.32 85.93 L65.63 86.1 L65.63 86.45 L53.45 93.47 L53.15 93.3 L52.85 93.13 Z" stroke="rgb(0, 0, 0)" stroke-width="0" fill-rule="evenodd" stroke-linejoin="miter" fill="rgb(0, 0, 0)" shape-rendering="geometricPrecision" /></g><g id="Wedged Hash Begin Bond"><path d="M65.37 85.95 L65.37 85.95 L65.89 86.25 L65.63 86.79 L65.03 86.44 Z" stroke="rgb(0, 0, 0)" stroke-width="0" fill-rule="evenodd" stroke-linejoin="miter" fill="rgb(0, 0, 0)" shape-rendering="geometricPrecision" /><path d="M63.79 88.23 L63.79 88.23 L64.71 88.76 L64.45 89.3 L63.45 88.72 Z" stroke="rgb(0, 0, 0)" stroke-width="0" fill-rule="evenodd" stroke-linejoin="miter" fill="rgb(0, 0, 0)" shape-rendering="geometricPrecision" /><path d="M62.21 90.5 L62.21 90.5 L63.53 91.26 L63.27 91.8 L61.87 90.99 Z" stroke="rgb(0, 0, 0)" stroke-width="0" fill-rule="evenodd" stroke-linejoin="miter" fill="rgb(0, 0, 0)" shape-rendering="geometricPrecision" /><path d="M60.63 92.78 L60.63 92.78 L62.35 93.77 L62.09 94.31 L60.29 93.27 Z" stroke="rgb(0, 0, 0)" stroke-width="0" fill-rule="evenodd" stroke-linejoin="miter" fill="rgb(0, 0, 0)" shape-rendering="geometricPrecision" /><path d="M59.05 95.05 L59.05 95.05 L61.17 96.27 L60.91 96.81 L58.71 95.54 Z" stroke="rgb(0, 0, 0)" stroke-width="0" fill-rule="evenodd" stroke-linejoin="miter" fill="rgb(0, 0, 0)" shape-rendering="geometricPrecision" /><path d="M57.47 97.33 L57.47 97.33 L59.99 98.78 L59.73 99.32 L57.13 97.82 Z" stroke="rgb(0, 0, 0)" stroke-width="0" fill-rule="evenodd" stroke-linejoin="miter" fill="rgb(0, 0, 0)" shape-rendering="geometricPrecision" /></g><g id="Wedged Hash Begin Bond"><path d="M65.89 115.05 L65.89 115.05 L65.37 114.75 L65.63 114.21 L66.23 114.56 Z" stroke="rgb(0, 0, 0)" stroke-width="0" fill-rule="evenodd" stroke-linejoin="miter" fill="rgb(0, 0, 0)" shape-rendering="geometricPrecision" /><path d="M67.47 112.77 L67.47 112.77 L66.55 112.25 L66.81 111.7 L67.81 112.28 Z" stroke="rgb(0, 0, 0)" stroke-width="0" fill-rule="evenodd" stroke-linejoin="miter" fill="rgb(0, 0, 0)" shape-rendering="geometricPrecision" /><path d="M69.04 110.5 L69.04 110.5 L67.73 109.74 L67.98 109.2 L69.39 110 Z" stroke="rgb(0, 0, 0)" stroke-width="0" fill-rule="evenodd" stroke-linejoin="miter" fill="rgb(0, 0, 0)" shape-rendering="geometricPrecision" /><path d="M70.62 108.22 L70.62 108.22 L68.91 107.24 L69.16 106.69 L70.96 107.73 Z" stroke="rgb(0, 0, 0)" stroke-width="0" fill-rule="evenodd" stroke-linejoin="miter" fill="rgb(0, 0, 0)" shape-rendering="geometricPrecision" /><path d="M72.2 105.95 L72.2 105.95 L70.09 104.73 L70.34 104.19 L72.54 105.45 Z" stroke="rgb(0, 0, 0)" stroke-width="0" fill-rule="evenodd" stroke-linejoin="miter" fill="rgb(0, 0, 0)" shape-rendering="geometricPrecision" /><path d="M73.78 103.67 L73.78 103.67 L71.26 102.23 L71.52 101.68 L74.12 103.18 Z" stroke="rgb(0, 0, 0)" stroke-width="0" fill-rule="evenodd" stroke-linejoin="miter" fill="rgb(0, 0, 0)" shape-rendering="geometricPrecision" /></g><g id="Solid"><path d="M72.9 102.14 L72.9 102.14 L72.82 102.43 L72.74 102.72 L58.35 98.86 L58.43 98.57 L58.51 98.28 Z" stroke="rgb(0, 0, 0)" stroke-width="0" fill-rule="evenodd" stroke-linejoin="miter" fill="rgb(0, 0, 0)" shape-rendering="geometricPrecision" /></g><g id="Solid"><path d="M52.85 107.53 L52.85 107.53 L53.15 107.7 L53.15 108.05 L40.83 115.16 L40.68 114.9 L40.53 114.64 Z" stroke="rgb(0, 0, 0)" stroke-width="0" fill-rule="evenodd" stroke-linejoin="miter" fill="rgb(0, 0, 0)" shape-rendering="geometricPrecision" /></g><g><text xml:space="preserve" text-anchor="start" text-rendering="geometricPrecision"><tspan x="61.72" y="75.6" font-family="Arial" font-size="10" fill="rgb(0, 0, 0)">OMe</tspan></text></g><g id="WedgeBegin"><path d="M65.94 85.93 L65.94 85.93 L65.63 86.1 L65.32 85.93 L64.13 77.4 L65.63 77.4 L67.13 77.4 Z" stroke="rgb(0, 0, 0)" stroke-width="0" fill-rule="evenodd" stroke-linejoin="miter" fill="rgb(0, 0, 0)" shape-rendering="geometricPrecision" /></g><g id="Wedged Hash Begin Bond"><path d="M78.25 93.56 L78.25 93.56 L77.95 93.04 L78.44 92.7 L78.79 93.3 Z" stroke="rgb(0, 0, 0)" stroke-width="0" fill-rule="evenodd" stroke-linejoin="miter" fill="rgb(0, 0, 0)" shape-rendering="geometricPrecision" /><path d="M80.76 92.38 L80.76 92.38 L80.23 91.46 L80.72 91.12 L81.3 92.12 Z" stroke="rgb(0, 0, 0)" stroke-width="0" fill-rule="evenodd" stroke-linejoin="miter" fill="rgb(0, 0, 0)" shape-rendering="geometricPrecision" /><path d="M83.26 91.2 L83.26 91.2 L82.5 89.88 L82.99 89.54 L83.8 90.94 Z" stroke="rgb(0, 0, 0)" stroke-width="0" fill-rule="evenodd" stroke-linejoin="miter" fill="rgb(0, 0, 0)" shape-rendering="geometricPrecision" /><path d="M85.77 90.02 L85.77 90.02 L84.78 88.3 L85.27 87.96 L86.31 89.76 Z" stroke="rgb(0, 0, 0)" stroke-width="0" fill-rule="evenodd" stroke-linejoin="miter" fill="rgb(0, 0, 0)" shape-rendering="geometricPrecision" /><path d="M88.27 88.84 L88.27 88.84 L87.05 86.72 L87.54 86.38 L88.81 88.58 Z" stroke="rgb(0, 0, 0)" stroke-width="0" fill-rule="evenodd" stroke-linejoin="miter" fill="rgb(0, 0, 0)" shape-rendering="geometricPrecision" /><path d="M90.78 87.66 L90.78 87.66 L89.33 85.14 L89.82 84.8 L91.32 87.4 Z" stroke="rgb(0, 0, 0)" stroke-width="0" fill-rule="evenodd" stroke-linejoin="miter" fill="rgb(0, 0, 0)" shape-rendering="geometricPrecision" /></g><g><text xml:space="preserve" text-anchor="start" text-rendering="geometricPrecision"><tspan x="98.06" y="97.2" font-family="Arial" font-style="italic" dy="-4.07" font-size="7.5" fill="rgb(0, 0, 0)">i</tspan><tspan font-family="Arial" dy="4.07" font-size="10" fill="rgb(0, 0, 0)">Pr</tspan></text></g><g id="Solid"><path d="M90.42 86.36 L90.42 86.36 L90.57 86.1 L90.72 85.84 L97.46 89.73 L97.31 89.99 L97.16 90.25 Z" stroke="rgb(0, 0, 0)" stroke-width="0" fill-rule="evenodd" stroke-linejoin="miter" fill="rgb(0, 0, 0)" shape-rendering="geometricPrecision" /></g><g><text xml:space="preserve" text-anchor="start" text-rendering="geometricPrecision"><tspan x="86.67" y="75.6" font-family="Arial" font-size="10" fill="rgb(0, 0, 0)">O</tspan></text></g><g id="Solid"><line x1="89.27" y1="86.1" x2="89.27" y2="77.4" stroke="rgb(0, 0, 0)" stroke-width="0.6" shape-rendering="auto" /><path d="M91.57 86.33 L91.57 86.33 L92.17 86.68 L92.17 77.4 L91.57 77.4 Z" stroke="rgb(0, 0, 0)" stroke-width="0" fill-rule="evenodd" stroke-linejoin="miter" fill="rgb(0, 0, 0)" shape-rendering="geometricPrecision" /><path d="M88.97 86.52 L88.97 86.52 L89.57 86.24 L89.57 77.4 L88.97 77.4 Z" stroke="rgb(0, 0, 0)" stroke-width="0" fill-rule="evenodd" stroke-linejoin="miter" fill="rgb(0, 0, 0)" shape-rendering="geometricPrecision" /></g><g id="WedgeBegin"><path d="M65.32 115.07 L65.32 115.07 L65.63 114.9 L65.94 115.07 L67.13 129.3 L65.63 129.3 L64.13 129.3 Z" stroke="rgb(0, 0, 0)" stroke-width="0" fill-rule="evenodd" stroke-linejoin="miter" fill="rgb(0, 0, 0)" shape-rendering="geometricPrecision" /></g></g></g></svg>