<?xml version="1.0"?><svg xmlns="http://www.w3.org/2000/svg" xmlns:xlink="http://www.w3.org/1999/xlink" viewBox="40.53 67.14 69.47 62.16" preserveAspectRatio="xMidYMid" width="100%" height="100%"><clipPath id="58"><rect x="0.3" y="0.3" width="522.72" height="769.32" /></clipPath><g id="drawing"><rect x="40.53" y="67.14" width="100%" height="100%" fill="rgb(255, 255, 255)" /><g id="page" clip-path="url(#58)"><g id="Solid"><g id="Bond's parts"><path d="M52.9 93.15 L52.9 93.15 L52.92 93.2 L53.15 93.3 L53.38 93.4 L53.4 93.45 L53.4 107.55 L53.38 107.6 L52.92 107.6 Z" stroke="rgb(0, 0, 255)" stroke-width="0" fill-rule="evenodd" stroke-linejoin="miter" fill="rgb(0, 0, 255)" shape-rendering="geometricPrecision" /><path d="M55.45 94.75 L55.45 94.75 L56.05 94.75 L56 96.35 L55.95 96.4 L55.9 96.45 L55.8 96.65 L55.75 96.7 L55.7 96.75 L55.6 96.95 L55.55 97 Z" stroke="rgb(0, 0, 255)" stroke-width="0" fill-rule="evenodd" stroke-linejoin="miter" fill="rgb(0, 0, 255)" shape-rendering="geometricPrecision" /><path d="M55.97 99 L55.97 99 L56 98.95 L56 99.55 L55.97 99.6 L55.65 99.7 L55.45 99.75 L55.45 99.15 L55.65 99.1 Z" stroke="rgb(0, 0, 255)" stroke-width="0" fill-rule="evenodd" stroke-linejoin="miter" fill="rgb(0, 0, 255)" shape-rendering="geometricPrecision" /><path d="M55.5 100.75 L55.5 100.75 L55.53 100.8 L55.97 100.9 L56 100.95 L56.05 106.15 Z" stroke="rgb(0, 0, 255)" stroke-width="0" fill-rule="evenodd" stroke-linejoin="miter" fill="rgb(0, 0, 255)" shape-rendering="geometricPrecision" /></g></g><g id="Solid"><path d="M53.15 108.05 L53.15 108.05 L53.15 107.7 L53.45 107.53 L65.5 114.48 L65.63 114.9 L65.63 115.25 Z" stroke="rgb(0, 0, 255)" stroke-width="0" fill-rule="evenodd" stroke-linejoin="miter" fill="rgb(0, 0, 255)" shape-rendering="geometricPrecision" /></g><g id="Solid"><path d="M65.63 115.25 L65.63 115.25 L65.63 114.9 L66.64 113.97 L77.8 107.53 L78.1 107.7 L78.4 107.87 Z" stroke="rgb(0, 0, 255)" stroke-width="0" fill-rule="evenodd" stroke-linejoin="miter" fill="rgb(0, 0, 255)" shape-rendering="geometricPrecision" /></g><g id="Solid"><path d="M78.4 107.87 L78.4 107.87 L78.1 107.7 L77.8 107.53 L77.8 93.47 L78.1 93.3 L78.4 93.13 Z" stroke="rgb(0, 0, 255)" stroke-width="0" fill-rule="evenodd" stroke-linejoin="miter" fill="rgb(0, 0, 255)" shape-rendering="geometricPrecision" /></g><g id="Solid"><path d="M78.4 93.13 L78.4 93.13 L78.1 93.3 L77.8 93.47 L65.76 86.52 L65.63 86.1 L65.63 85.75 Z" stroke="rgb(0, 0, 255)" stroke-width="0" fill-rule="evenodd" stroke-linejoin="miter" fill="rgb(0, 0, 255)" shape-rendering="geometricPrecision" /></g><g id="Solid"><path d="M65.63 85.75 L65.63 85.75 L65.63 86.1 L64.62 87.03 L53.45 93.47 L53.15 93.3 L52.85 93.13 Z" stroke="rgb(0, 0, 255)" stroke-width="0" fill-rule="evenodd" stroke-linejoin="miter" fill="rgb(0, 0, 255)" shape-rendering="geometricPrecision" /></g><g id="WedgeBegin"><path d="M64.62 87.03 L64.62 87.03 L65.63 86.1 L65.76 86.52 L60.33 98.04 L58.43 98.57 L56.29 99.03 Z" stroke="rgb(0, 0, 255)" stroke-width="0" fill-rule="evenodd" stroke-linejoin="miter" fill="rgb(0, 0, 255)" shape-rendering="geometricPrecision" /></g><g id="WedgeBegin"><path d="M66.64 113.97 L66.64 113.97 L65.63 114.9 L65.5 114.48 L70.92 102.96 L72.82 102.43 L74.96 101.97 Z" stroke="rgb(0, 0, 255)" stroke-width="0" fill-rule="evenodd" stroke-linejoin="miter" fill="rgb(0, 0, 255)" shape-rendering="geometricPrecision" /></g><g id="Bold"><path d="M74.96 101.97 L74.96 101.97 L72.82 102.43 L70.92 102.96 L56.29 99.03 L58.43 98.57 L60.33 98.04 Z" stroke="rgb(0, 0, 255)" stroke-width="0" fill-rule="evenodd" stroke-linejoin="miter" fill="rgb(0, 0, 255)" shape-rendering="geometricPrecision" /></g><g id="Solid"><path d="M52.85 107.53 L52.85 107.53 L53.15 107.7 L53.15 108.05 L40.83 115.16 L40.68 114.9 L40.53 114.64 Z" stroke="rgb(0, 0, 255)" stroke-width="0" fill-rule="evenodd" stroke-linejoin="miter" fill="rgb(0, 0, 255)" shape-rendering="geometricPrecision" /></g><g><text xml:space="preserve" text-anchor="start" text-rendering="geometricPrecision"><tspan x="61.72" y="75.6" font-family="Arial" font-size="10" fill="rgb(0, 0, 255)">OMe</tspan></text></g><g id="Wedged Hash Begin Bond"><path d="M65.93 86.1 L65.93 86.1 L65.33 86.1 L65.25 85.5 L66.01 85.5 Z" stroke="rgb(0, 0, 255)" stroke-width="0" fill-rule="evenodd" stroke-linejoin="miter" fill="rgb(0, 0, 255)" shape-rendering="geometricPrecision" /><path d="M66.3 83.4 L66.3 83.4 L64.96 83.4 L64.87 82.8 L66.39 82.8 Z" stroke="rgb(0, 0, 255)" stroke-width="0" fill-rule="evenodd" stroke-linejoin="miter" fill="rgb(0, 0, 255)" shape-rendering="geometricPrecision" /><path d="M66.67 80.7 L66.67 80.7 L64.59 80.7 L64.5 80.1 L66.76 80.1 Z" stroke="rgb(0, 0, 255)" stroke-width="0" fill-rule="evenodd" stroke-linejoin="miter" fill="rgb(0, 0, 255)" shape-rendering="geometricPrecision" /><path d="M67.05 78 L67.05 78 L64.21 78 L64.13 77.4 L67.13 77.4 Z" stroke="rgb(0, 0, 255)" stroke-width="0" fill-rule="evenodd" stroke-linejoin="miter" fill="rgb(0, 0, 255)" shape-rendering="geometricPrecision" /></g><g id="Wedged Hash Begin Bond"><path d="M78.25 93.56 L78.25 93.56 L77.95 93.04 L78.44 92.7 L78.79 93.3 Z" stroke="rgb(0, 0, 255)" stroke-width="0" fill-rule="evenodd" stroke-linejoin="miter" fill="rgb(0, 0, 255)" shape-rendering="geometricPrecision" /><path d="M80.76 92.38 L80.76 92.38 L80.23 91.46 L80.72 91.12 L81.3 92.12 Z" stroke="rgb(0, 0, 255)" stroke-width="0" fill-rule="evenodd" stroke-linejoin="miter" fill="rgb(0, 0, 255)" shape-rendering="geometricPrecision" /><path d="M83.26 91.2 L83.26 91.2 L82.5 89.88 L82.99 89.54 L83.8 90.94 Z" stroke="rgb(0, 0, 255)" stroke-width="0" fill-rule="evenodd" stroke-linejoin="miter" fill="rgb(0, 0, 255)" shape-rendering="geometricPrecision" /><path d="M85.77 90.02 L85.77 90.02 L84.78 88.3 L85.27 87.96 L86.31 89.76 Z" stroke="rgb(0, 0, 255)" stroke-width="0" fill-rule="evenodd" stroke-linejoin="miter" fill="rgb(0, 0, 255)" shape-rendering="geometricPrecision" /><path d="M88.27 88.84 L88.27 88.84 L87.05 86.72 L87.54 86.38 L88.81 88.58 Z" stroke="rgb(0, 0, 255)" stroke-width="0" fill-rule="evenodd" stroke-linejoin="miter" fill="rgb(0, 0, 255)" shape-rendering="geometricPrecision" /><path d="M90.78 87.66 L90.78 87.66 L89.33 85.14 L89.82 84.8 L91.32 87.4 Z" stroke="rgb(0, 0, 255)" stroke-width="0" fill-rule="evenodd" stroke-linejoin="miter" fill="rgb(0, 0, 255)" shape-rendering="geometricPrecision" /></g><g><text xml:space="preserve" text-anchor="start" text-rendering="geometricPrecision"><tspan x="98.06" y="97.2" font-family="Arial" font-style="italic" dy="-4.07" font-size="7.5" fill="rgb(0, 0, 255)">i</tspan><tspan font-family="Arial" dy="4.07" font-size="10" fill="rgb(0, 0, 255)">Pr</tspan></text></g><g id="Solid"><path d="M90.42 86.36 L90.42 86.36 L90.57 86.1 L90.72 85.84 L97.46 89.73 L97.31 89.99 L97.16 90.25 Z" stroke="rgb(0, 0, 255)" stroke-width="0" fill-rule="evenodd" stroke-linejoin="miter" fill="rgb(0, 0, 255)" shape-rendering="geometricPrecision" /></g><g><text xml:space="preserve" text-anchor="start" text-rendering="geometricPrecision"><tspan x="86.67" y="75.6" font-family="Arial" font-size="10" fill="rgb(0, 0, 255)">O</tspan></text></g><g id="Solid"><line x1="89.27" y1="86.1" x2="89.27" y2="77.4" stroke="rgb(0, 0, 255)" stroke-width="0.6" shape-rendering="auto" /><path d="M91.57 86.33 L91.57 86.33 L92.17 86.68 L92.17 77.4 L91.57 77.4 Z" stroke="rgb(0, 0, 255)" stroke-width="0" fill-rule="evenodd" stroke-linejoin="miter" fill="rgb(0, 0, 255)" shape-rendering="geometricPrecision" /><path d="M88.97 86.52 L88.97 86.52 L89.57 86.24 L89.57 77.4 L88.97 77.4 Z" stroke="rgb(0, 0, 255)" stroke-width="0" fill-rule="evenodd" stroke-linejoin="miter" fill="rgb(0, 0, 255)" shape-rendering="geometricPrecision" /></g><g id="Wedged Hash Begin Bond"><path d="M65.33 114.9 L65.33 114.9 L65.93 114.9 L65.98 115.5 L65.28 115.5 Z" stroke="rgb(0, 0, 255)" stroke-width="0" fill-rule="evenodd" stroke-linejoin="miter" fill="rgb(0, 0, 255)" shape-rendering="geometricPrecision" /><path d="M65.1 117.66 L65.1 117.66 L66.16 117.66 L66.21 118.26 L65.05 118.26 Z" stroke="rgb(0, 0, 255)" stroke-width="0" fill-rule="evenodd" stroke-linejoin="miter" fill="rgb(0, 0, 255)" shape-rendering="geometricPrecision" /><path d="M64.87 120.42 L64.87 120.42 L66.39 120.42 L66.44 121.02 L64.82 121.02 Z" stroke="rgb(0, 0, 255)" stroke-width="0" fill-rule="evenodd" stroke-linejoin="miter" fill="rgb(0, 0, 255)" shape-rendering="geometricPrecision" /><path d="M64.64 123.18 L64.64 123.18 L66.62 123.18 L66.67 123.78 L64.59 123.78 Z" stroke="rgb(0, 0, 255)" stroke-width="0" fill-rule="evenodd" stroke-linejoin="miter" fill="rgb(0, 0, 255)" shape-rendering="geometricPrecision" /><path d="M64.41 125.94 L64.41 125.94 L66.85 125.94 L66.9 126.54 L64.36 126.54 Z" stroke="rgb(0, 0, 255)" stroke-width="0" fill-rule="evenodd" stroke-linejoin="miter" fill="rgb(0, 0, 255)" shape-rendering="geometricPrecision" /><path d="M64.18 128.7 L64.18 128.7 L67.08 128.7 L67.13 129.3 L64.13 129.3 Z" stroke="rgb(0, 0, 255)" stroke-width="0" fill-rule="evenodd" stroke-linejoin="miter" fill="rgb(0, 0, 255)" shape-rendering="geometricPrecision" /></g></g></g></svg>