<?xml version="1.0"?><svg xmlns="http://www.w3.org/2000/svg" xmlns:xlink="http://www.w3.org/1999/xlink" viewBox="84.6 76.21 383.68 60.13" preserveAspectRatio="xMidYMid" width="100%" height="100%"><clipPath id="240"><rect x="0.3" y="0.3" width="522.6" height="769.08" /></clipPath><g id="drawing"><rect x="84.6" y="76.21" width="100%" height="100%" fill="rgb(255, 255, 255)" /><g id="page" clip-path="url(#240)"><g id="Solid"><path d="M234.64 103.3 L234.64 103.3 L234.94 103.47 L235.24 103.64 L235.24 117.79 L234.94 117.87 L234.64 117.79 Z" stroke="rgb(0, 0, 0)" stroke-width="0" fill-rule="evenodd" stroke-linejoin="miter" fill="rgb(0, 0, 0)" shape-rendering="geometricPrecision" /><line x1="237.53" y1="104.97" x2="237.53" y2="117.18" stroke="rgb(0, 0, 0)" stroke-width="0.6" shape-rendering="auto" /></g><g id="Solid"><path d="M235.24 103.64 L235.24 103.64 L234.94 103.47 L234.64 103.3 L247.11 96.1 L247.41 96.27 L247.41 96.62 Z" stroke="rgb(0, 0, 0)" stroke-width="0" fill-rule="evenodd" stroke-linejoin="miter" fill="rgb(0, 0, 0)" shape-rendering="geometricPrecision" /></g><g id="Solid"><path d="M247.41 96.62 L247.41 96.62 L247.41 96.27 L247.71 96.1 L260.18 103.3 L259.88 103.47 L259.58 103.64 Z" stroke="rgb(0, 0, 0)" stroke-width="0" fill-rule="evenodd" stroke-linejoin="miter" fill="rgb(0, 0, 0)" shape-rendering="geometricPrecision" /></g><g id="Solid"><path d="M259.58 103.64 L259.58 103.64 L259.88 103.47 L260.18 103.3 L260.18 117.79 L259.88 117.87 L259.58 117.79 Z" stroke="rgb(0, 0, 0)" stroke-width="0" fill-rule="evenodd" stroke-linejoin="miter" fill="rgb(0, 0, 0)" shape-rendering="geometricPrecision" /><line x1="257.29" y1="104.97" x2="257.29" y2="117.18" stroke="rgb(0, 0, 0)" stroke-width="0.6" shape-rendering="auto" /></g><g><text xml:space="preserve" text-anchor="start" text-rendering="geometricPrecision"><tspan x="243.23" y="85.77" font-family="Arial" font-size="10" fill="rgb(0, 0, 0)">Me</tspan></text></g><g id="Solid"><path d="M247.71 96.1 L247.71 96.1 L247.41 96.27 L247.11 96.1 L247.11 87.4 L247.41 87.4 L247.71 87.4 Z" stroke="rgb(0, 0, 0)" stroke-width="0" fill-rule="evenodd" stroke-linejoin="miter" fill="rgb(0, 0, 0)" shape-rendering="geometricPrecision" /></g><g><text xml:space="preserve" text-anchor="start" text-rendering="geometricPrecision"><tspan x="238.54" y="134.24" font-family="Arial" font-size="10" fill="rgb(0, 0, 0)">H</tspan></text></g><g id="Solid"><path d="M234.94 118.47 L234.94 118.47 L234.94 117.87 L235.24 117.79 L239.73 125.56 L239.47 125.71 L239.21 125.86 Z" stroke="rgb(0, 0, 0)" stroke-width="0" fill-rule="evenodd" stroke-linejoin="miter" fill="rgb(0, 0, 0)" shape-rendering="geometricPrecision" /></g><g><text xml:space="preserve" text-anchor="end" text-rendering="geometricPrecision"><tspan x="230.51" y="134.24" font-family="Arial" font-size="10" fill="rgb(0, 0, 0)">Me</tspan></text></g><g id="Solid"><path d="M234.64 117.79 L234.64 117.79 L234.94 117.87 L234.94 118.47 L230.67 125.86 L230.41 125.71 L230.15 125.56 Z" stroke="rgb(0, 0, 0)" stroke-width="0" fill-rule="evenodd" stroke-linejoin="miter" fill="rgb(0, 0, 0)" shape-rendering="geometricPrecision" /></g><g><text xml:space="preserve" text-anchor="start" text-rendering="geometricPrecision"><tspan x="249.08" y="134.24" font-family="Arial" font-size="10" fill="rgb(0, 0, 0)">H</tspan></text></g><g id="Solid"><path d="M259.58 117.79 L259.58 117.79 L259.88 117.87 L259.88 118.47 L255.61 125.86 L255.35 125.71 L255.09 125.56 Z" stroke="rgb(0, 0, 0)" stroke-width="0" fill-rule="evenodd" stroke-linejoin="miter" fill="rgb(0, 0, 0)" shape-rendering="geometricPrecision" /></g><g><text xml:space="preserve" text-anchor="start" text-rendering="geometricPrecision"><tspan x="263.75" y="134.24" font-family="Arial" font-size="10" fill="rgb(0, 0, 0)">Et</tspan></text></g><g id="Solid"><path d="M259.88 118.47 L259.88 118.47 L259.88 117.87 L260.18 117.79 L264.67 125.56 L264.41 125.71 L264.15 125.86 Z" stroke="rgb(0, 0, 0)" stroke-width="0" fill-rule="evenodd" stroke-linejoin="miter" fill="rgb(0, 0, 0)" shape-rendering="geometricPrecision" /></g><g id="Solid"><path d="M340 103.39 L340 103.39 L340.35 103.5 L340.7 103.61 L345.01 116.9 L344.79 117.2 L344.42 117.04 Z" stroke="rgb(0, 0, 0)" stroke-width="0" fill-rule="evenodd" stroke-linejoin="miter" fill="rgb(0, 0, 0)" shape-rendering="geometricPrecision" /></g><g id="Solid"><path d="M344.88 117.5 L344.88 117.5 L344.79 117.2 L345.01 116.9 L358.97 116.92 L359.19 117.22 L359.1 117.52 Z" stroke="rgb(0, 0, 0)" stroke-width="0" fill-rule="evenodd" stroke-linejoin="miter" fill="rgb(0, 0, 0)" shape-rendering="geometricPrecision" /></g><g id="Solid"><path d="M359.56 117.06 L359.56 117.06 L359.19 117.22 L358.97 116.92 L363.3 103.63 L363.65 103.52 L364 103.41 Z" stroke="rgb(0, 0, 0)" stroke-width="0" fill-rule="evenodd" stroke-linejoin="miter" fill="rgb(0, 0, 0)" shape-rendering="geometricPrecision" /></g><g id="Solid"><path d="M364 103.41 L364 103.41 L363.65 103.52 L363.3 103.63 L352.01 95.42 L352.01 95.05 L352.31 94.9 Z" stroke="rgb(0, 0, 0)" stroke-width="0" fill-rule="evenodd" stroke-linejoin="miter" fill="rgb(0, 0, 0)" shape-rendering="geometricPrecision" /><line x1="360.6" y1="104.51" x2="352.01" y2="98.25" stroke="rgb(0, 0, 0)" stroke-width="0.6" shape-rendering="auto" /></g><g id="Solid"><path d="M351.71 94.9 L351.71 94.9 L352.01 95.05 L352.01 95.42 L340.7 103.61 L340.35 103.5 L340 103.39 Z" stroke="rgb(0, 0, 0)" stroke-width="0" fill-rule="evenodd" stroke-linejoin="miter" fill="rgb(0, 0, 0)" shape-rendering="geometricPrecision" /></g><g><text xml:space="preserve" text-anchor="start" text-rendering="geometricPrecision"><tspan x="347.83" y="84.55" font-family="Arial" font-size="10" fill="rgb(0, 0, 0)">Me</tspan></text></g><g id="Solid"><path d="M352.31 94.9 L352.31 94.9 L352.01 95.05 L351.71 94.9 L351.71 86.2 L352.01 86.2 L352.31 86.2 Z" stroke="rgb(0, 0, 0)" stroke-width="0" fill-rule="evenodd" stroke-linejoin="miter" fill="rgb(0, 0, 0)" shape-rendering="geometricPrecision" /></g><g><text xml:space="preserve" text-anchor="start" text-rendering="geometricPrecision"><tspan x="341.19" y="135.5" font-family="Arial" font-size="10" fill="rgb(0, 0, 0)">H</tspan></text></g><g id="Wedged Hash Begin Bond"><path d="M344.49 117.2 L344.49 117.2 L345.09 117.2 L345.17 117.8 L344.41 117.8 Z" stroke="rgb(0, 0, 0)" stroke-width="0" fill-rule="evenodd" stroke-linejoin="miter" fill="rgb(0, 0, 0)" shape-rendering="geometricPrecision" /><path d="M344.12 120.2 L344.12 120.2 L345.47 120.2 L345.54 120.8 L344.04 120.8 Z" stroke="rgb(0, 0, 0)" stroke-width="0" fill-rule="evenodd" stroke-linejoin="miter" fill="rgb(0, 0, 0)" shape-rendering="geometricPrecision" /><path d="M343.74 123.2 L343.74 123.2 L345.84 123.2 L345.92 123.8 L343.67 123.8 Z" stroke="rgb(0, 0, 0)" stroke-width="0" fill-rule="evenodd" stroke-linejoin="miter" fill="rgb(0, 0, 0)" shape-rendering="geometricPrecision" /><path d="M343.37 126.2 L343.37 126.2 L346.22 126.2 L346.29 126.8 L343.29 126.8 Z" stroke="rgb(0, 0, 0)" stroke-width="0" fill-rule="evenodd" stroke-linejoin="miter" fill="rgb(0, 0, 0)" shape-rendering="geometricPrecision" /></g><g><text xml:space="preserve" text-anchor="start" text-rendering="geometricPrecision"><tspan x="355.86" y="135.52" font-family="Arial" font-size="10" fill="rgb(0, 0, 0)">Et</tspan></text></g><g id="Wedged Hash Begin Bond"><path d="M358.89 117.22 L358.89 117.22 L359.49 117.22 L359.57 117.82 L358.81 117.82 Z" stroke="rgb(0, 0, 0)" stroke-width="0" fill-rule="evenodd" stroke-linejoin="miter" fill="rgb(0, 0, 0)" shape-rendering="geometricPrecision" /><path d="M358.52 120.21 L358.52 120.21 L359.86 120.21 L359.94 120.81 L358.44 120.81 Z" stroke="rgb(0, 0, 0)" stroke-width="0" fill-rule="evenodd" stroke-linejoin="miter" fill="rgb(0, 0, 0)" shape-rendering="geometricPrecision" /><path d="M358.14 123.21 L358.14 123.21 L360.24 123.21 L360.32 123.81 L358.06 123.81 Z" stroke="rgb(0, 0, 0)" stroke-width="0" fill-rule="evenodd" stroke-linejoin="miter" fill="rgb(0, 0, 0)" shape-rendering="geometricPrecision" /><path d="M357.77 126.2 L357.77 126.2 L360.61 126.2 L360.69 126.8 L357.69 126.8 Z" stroke="rgb(0, 0, 0)" stroke-width="0" fill-rule="evenodd" stroke-linejoin="miter" fill="rgb(0, 0, 0)" shape-rendering="geometricPrecision" /></g><g><text xml:space="preserve" text-anchor="end" text-rendering="geometricPrecision"><tspan x="335.09" y="128.3" font-family="Arial" font-size="10" fill="rgb(0, 0, 0)">Me</tspan></text></g><g id="WedgeBegin"><path d="M344.42 117.04 L344.42 117.04 L344.79 117.2 L344.88 117.5 L336.71 123.6 L335.96 122.3 L335.21 121 Z" stroke="rgb(0, 0, 0)" stroke-width="0" fill-rule="evenodd" stroke-linejoin="miter" fill="rgb(0, 0, 0)" shape-rendering="geometricPrecision" /></g><g><text xml:space="preserve" text-anchor="start" text-rendering="geometricPrecision"><tspan x="368.06" y="128.32" font-family="Arial" font-size="10" fill="rgb(0, 0, 0)">H</tspan></text></g><g id="WedgeBegin"><path d="M359.1 117.52 L359.1 117.52 L359.19 117.22 L359.56 117.06 L368.26 120.73 L367.51 122.03 L366.76 123.33 Z" stroke="rgb(0, 0, 0)" stroke-width="0" fill-rule="evenodd" stroke-linejoin="miter" fill="rgb(0, 0, 0)" shape-rendering="geometricPrecision" /></g><g id="Arrow"><path d="M248.22 114.04 C246.28 109.28 240.83 107 236.07 108.95 C235.68 109.1 235.3 109.29 234.94 109.5 " stroke="rgb(255, 0, 0)" stroke-width="0.6" fill-rule="evenodd" stroke-linejoin="bevel" fill="none" shape-rendering="geometricPrecision" /><path d="M248.92 117.57 L249.01 112.62 C248.58 113.79 247.56 114.02 246.67 113.16 Z" stroke="rgb(255, 0, 0)" stroke-width="0" fill-rule="evenodd" stroke-linejoin="miter" stroke-miterlimit="6.93525005514882" fill="rgb(255, 0, 0)" shape-rendering="geometricPrecision" /></g><g id="Arrow"><path d="M248.84 103.52 C249.67 107.93 253.92 110.83 258.33 110.01 C258.53 109.97 258.74 109.92 258.94 109.87 " stroke="rgb(255, 0, 0)" stroke-width="0.6" fill-rule="evenodd" stroke-linejoin="bevel" fill="none" shape-rendering="geometricPrecision" /><path d="M248.98 99.92 L247.78 104.72 C248.46 103.68 249.51 103.68 250.18 104.72 Z" stroke="rgb(255, 0, 0)" stroke-width="0" fill-rule="evenodd" stroke-linejoin="miter" stroke-miterlimit="6.93525109253524" fill="rgb(255, 0, 0)" shape-rendering="geometricPrecision" /></g><g><text xml:space="preserve" text-anchor="start" text-rendering="geometricPrecision"><tspan x="296.44" y="102" font-family="Symbol" font-size="10" fill="rgb(0, 0, 0)">D</tspan></text></g><g id="Solid"><path d="M102.64 102.55 L102.64 102.55 L102.94 102.72 L103.24 102.89 L103.24 117.04 L102.94 117.12 L102.64 117.04 Z" stroke="rgb(0, 0, 0)" stroke-width="0" fill-rule="evenodd" stroke-linejoin="miter" fill="rgb(0, 0, 0)" shape-rendering="geometricPrecision" /><line x1="105.53" y1="104.22" x2="105.53" y2="116.43" stroke="rgb(0, 0, 0)" stroke-width="0.6" shape-rendering="auto" /></g><g id="Solid"><path d="M103.24 102.89 L103.24 102.89 L102.94 102.72 L102.64 102.55 L115.41 95.17 L115.41 95.52 L115.41 95.87 Z" stroke="rgb(0, 0, 0)" stroke-width="0" fill-rule="evenodd" stroke-linejoin="miter" fill="rgb(0, 0, 0)" shape-rendering="geometricPrecision" /></g><g id="Solid"><path d="M115.41 95.87 L115.41 95.87 L115.41 95.52 L115.41 95.17 L128.18 102.55 L127.88 102.72 L127.58 102.89 Z" stroke="rgb(0, 0, 0)" stroke-width="0" fill-rule="evenodd" stroke-linejoin="miter" fill="rgb(0, 0, 0)" shape-rendering="geometricPrecision" /></g><g id="Solid"><path d="M127.58 102.89 L127.58 102.89 L127.88 102.72 L128.18 102.55 L128.18 117.04 L127.88 117.12 L127.58 117.04 Z" stroke="rgb(0, 0, 0)" stroke-width="0" fill-rule="evenodd" stroke-linejoin="miter" fill="rgb(0, 0, 0)" shape-rendering="geometricPrecision" /><line x1="125.29" y1="104.22" x2="125.29" y2="116.43" stroke="rgb(0, 0, 0)" stroke-width="0.6" shape-rendering="auto" /></g><g id="Solid"><line x1="114.11" y1="95.52" x2="114.11" y2="81.12" stroke="rgb(0, 0, 0)" stroke-width="0.6" shape-rendering="auto" /><path d="M116.41 95.75 L116.41 95.75 L117.01 96.1 L117.01 81.12 L116.41 81.12 Z" stroke="rgb(0, 0, 0)" stroke-width="0" fill-rule="evenodd" stroke-linejoin="miter" fill="rgb(0, 0, 0)" shape-rendering="geometricPrecision" /><path d="M113.81 96.1 L113.81 96.1 L114.41 95.75 L114.41 81.12 L113.81 81.12 Z" stroke="rgb(0, 0, 0)" stroke-width="0" fill-rule="evenodd" stroke-linejoin="miter" fill="rgb(0, 0, 0)" shape-rendering="geometricPrecision" /></g><g id="Solid"><path d="M102.94 117.72 L102.94 117.72 L102.94 117.12 L103.24 117.04 L107.76 124.86 L107.5 125.01 L107.24 125.16 Z" stroke="rgb(0, 0, 0)" stroke-width="0" fill-rule="evenodd" stroke-linejoin="miter" fill="rgb(0, 0, 0)" shape-rendering="geometricPrecision" /></g><g><text xml:space="preserve" text-anchor="start" text-rendering="geometricPrecision"><tspan x="106.54" y="133.49" font-family="Arial" font-size="10" fill="rgb(0, 0, 0)">H</tspan></text></g><g id="Solid"><path d="M102.64 117.04 L102.64 117.04 L102.94 117.12 L102.94 117.72 L98.64 125.16 L98.38 125.01 L98.12 124.86 Z" stroke="rgb(0, 0, 0)" stroke-width="0" fill-rule="evenodd" stroke-linejoin="miter" fill="rgb(0, 0, 0)" shape-rendering="geometricPrecision" /></g><g><text xml:space="preserve" text-anchor="end" text-rendering="geometricPrecision"><tspan x="98.51" y="133.49" font-family="Arial" font-size="10" fill="rgb(0, 0, 0)">Me</tspan></text></g><g id="Solid"><path d="M127.58 117.04 L127.58 117.04 L127.88 117.12 L127.88 117.72 L123.58 125.16 L123.32 125.01 L123.06 124.86 Z" stroke="rgb(0, 0, 0)" stroke-width="0" fill-rule="evenodd" stroke-linejoin="miter" fill="rgb(0, 0, 0)" shape-rendering="geometricPrecision" /></g><g><text xml:space="preserve" text-anchor="start" text-rendering="geometricPrecision"><tspan x="117.08" y="133.49" font-family="Arial" font-size="10" fill="rgb(0, 0, 0)">H</tspan></text></g><g id="Solid"><path d="M127.88 117.72 L127.88 117.72 L127.88 117.12 L128.18 117.04 L132.7 124.86 L132.44 125.01 L132.18 125.16 Z" stroke="rgb(0, 0, 0)" stroke-width="0" fill-rule="evenodd" stroke-linejoin="miter" fill="rgb(0, 0, 0)" shape-rendering="geometricPrecision" /></g><g><text xml:space="preserve" text-anchor="start" text-rendering="geometricPrecision"><tspan x="131.75" y="133.49" font-family="Arial" font-size="10" fill="rgb(0, 0, 0)">Et</tspan></text></g><g id="Arrow"><line x1="191.78" y1="108" x2="161.53" y2="108" stroke="rgb(0, 0, 0)" stroke-width="0.6" shape-rendering="auto" /><path d="M196.03 108 L190.03 106.5 C191.22 107.34 191.22 108.66 190.03 109.5 Z" stroke="rgb(0, 0, 0)" stroke-width="0" fill-rule="evenodd" stroke-linejoin="miter" stroke-miterlimit="6.93525005514877" fill="rgb(0, 0, 0)" shape-rendering="geometricPrecision" /></g><g><text xml:space="preserve" text-anchor="start" text-rendering="geometricPrecision"><tspan x="175.03" y="102.75" font-family="Arial" font-size="10" fill="rgb(0, 0, 0)">H</tspan></text></g><g id="Charge176"><circle cx="186.28" cy="91.5" r="3.33333333333333" stroke="rgb(0, 0, 0)" stroke-width="0.48" fill="none" /><line x1="184.31" y1="91.5" x2="188.25" y2="91.5" stroke="rgb(0, 0, 0)" stroke-width="0.48" shape-rendering="auto" /><line x1="186.28" y1="89.53" x2="186.28" y2="93.47" stroke="rgb(0, 0, 0)" stroke-width="0.48" shape-rendering="auto" /></g><g id="Charge177"><circle cx="253.43" cy="93.08" r="3.33333333333333" stroke="rgb(0, 0, 0)" stroke-width="0.48" fill="none" /><line x1="251.46" y1="93.08" x2="255.4" y2="93.08" stroke="rgb(0, 0, 0)" stroke-width="0.48" shape-rendering="auto" /><line x1="253.43" y1="91.11" x2="253.43" y2="95.05" stroke="rgb(0, 0, 0)" stroke-width="0.48" shape-rendering="auto" /></g><g id="Charge178"><circle cx="335.53" cy="99" r="3.33333333333333" stroke="rgb(0, 0, 0)" stroke-width="0.48" fill="none" /><line x1="333.56" y1="99" x2="337.5" y2="99" stroke="rgb(0, 0, 0)" stroke-width="0.48" shape-rendering="auto" /><line x1="335.53" y1="97.03" x2="335.53" y2="100.97" stroke="rgb(0, 0, 0)" stroke-width="0.48" shape-rendering="auto" /></g><g id="Arrow"><line x1="308.78" y1="108" x2="288.28" y2="108" stroke="rgb(0, 0, 0)" stroke-width="0.6" shape-rendering="auto" /><path d="M313.03 108 L307.03 106.5 C308.22 107.34 308.22 108.66 307.03 109.5 Z" stroke="rgb(0, 0, 0)" stroke-width="0" fill-rule="evenodd" stroke-linejoin="miter" stroke-miterlimit="6.93525005514877" fill="rgb(0, 0, 0)" shape-rendering="geometricPrecision" /></g><g id="Arrow"><line x1="410.03" y1="108" x2="384.28" y2="108" stroke="rgb(0, 0, 0)" stroke-width="0.6" shape-rendering="auto" /><path d="M414.28 108 L408.28 106.5 C409.47 107.34 409.47 108.66 408.28 109.5 Z" stroke="rgb(0, 0, 0)" stroke-width="0" fill-rule="evenodd" stroke-linejoin="miter" stroke-miterlimit="6.93525005514877" fill="rgb(0, 0, 0)" shape-rendering="geometricPrecision" /></g><g><text xml:space="preserve" text-anchor="start" text-rendering="geometricPrecision"><tspan x="389.96" y="102.75" font-family="Arial" font-size="10" fill="rgb(0, 0, 0)">- H</tspan></text></g><g id="Charge183"><circle cx="407.53" cy="91.5" r="3.33333333333333" stroke="rgb(0, 0, 0)" stroke-width="0.48" fill="none" /><line x1="405.56" y1="91.5" x2="409.5" y2="91.5" stroke="rgb(0, 0, 0)" stroke-width="0.48" shape-rendering="auto" /><line x1="407.53" y1="89.53" x2="407.53" y2="93.47" stroke="rgb(0, 0, 0)" stroke-width="0.48" shape-rendering="auto" /></g><g id="Solid"><path d="M433 104.14 L433 104.14 L433.35 104.25 L433.7 104.36 L438.01 117.65 L437.79 117.95 L437.46 117.9 Z" stroke="rgb(0, 0, 0)" stroke-width="0" fill-rule="evenodd" stroke-linejoin="miter" fill="rgb(0, 0, 0)" shape-rendering="geometricPrecision" /><line x1="436.4" y1="105.24" x2="439.68" y2="115.36" stroke="rgb(0, 0, 0)" stroke-width="0.6" shape-rendering="auto" /></g><g id="Solid"><path d="M437.94 118.25 L437.94 118.25 L437.79 117.95 L438.01 117.65 L451.97 117.67 L452.19 117.97 L452.1 118.27 Z" stroke="rgb(0, 0, 0)" stroke-width="0" fill-rule="evenodd" stroke-linejoin="miter" fill="rgb(0, 0, 0)" shape-rendering="geometricPrecision" /></g><g id="Solid"><path d="M452.56 117.81 L452.56 117.81 L452.19 117.97 L451.97 117.67 L456.3 104.38 L456.65 104.27 L457 104.16 Z" stroke="rgb(0, 0, 0)" stroke-width="0" fill-rule="evenodd" stroke-linejoin="miter" fill="rgb(0, 0, 0)" shape-rendering="geometricPrecision" /></g><g id="Solid"><path d="M457 104.16 L457 104.16 L456.65 104.27 L456.3 104.38 L445.01 96.17 L445.01 95.8 L445.31 95.65 Z" stroke="rgb(0, 0, 0)" stroke-width="0" fill-rule="evenodd" stroke-linejoin="miter" fill="rgb(0, 0, 0)" shape-rendering="geometricPrecision" /><line x1="453.6" y1="105.26" x2="445.01" y2="99" stroke="rgb(0, 0, 0)" stroke-width="0.6" shape-rendering="auto" /></g><g id="Solid"><path d="M444.71 95.65 L444.71 95.65 L445.01 95.8 L445.01 96.17 L433.7 104.36 L433.35 104.25 L433 104.14 Z" stroke="rgb(0, 0, 0)" stroke-width="0" fill-rule="evenodd" stroke-linejoin="miter" fill="rgb(0, 0, 0)" shape-rendering="geometricPrecision" /></g><g><text xml:space="preserve" text-anchor="start" text-rendering="geometricPrecision"><tspan x="440.83" y="85.3" font-family="Arial" font-size="10" fill="rgb(0, 0, 0)">Me</tspan></text></g><g id="Solid"><path d="M445.31 95.65 L445.31 95.65 L445.01 95.8 L444.71 95.65 L444.71 86.9 L445.01 86.9 L445.31 86.9 Z" stroke="rgb(0, 0, 0)" stroke-width="0" fill-rule="evenodd" stroke-linejoin="miter" fill="rgb(0, 0, 0)" shape-rendering="geometricPrecision" /></g><g id="Wedged Hash Begin Bond"><path d="M451.89 117.97 L451.89 117.97 L452.49 117.97 L452.56 118.57 L451.82 118.57 Z" stroke="rgb(0, 0, 0)" stroke-width="0" fill-rule="evenodd" stroke-linejoin="miter" fill="rgb(0, 0, 0)" shape-rendering="geometricPrecision" /><path d="M451.51 120.98 L451.51 120.98 L452.87 120.98 L452.94 121.58 L451.44 121.58 Z" stroke="rgb(0, 0, 0)" stroke-width="0" fill-rule="evenodd" stroke-linejoin="miter" fill="rgb(0, 0, 0)" shape-rendering="geometricPrecision" /><path d="M451.14 123.99 L451.14 123.99 L453.24 123.99 L453.31 124.59 L451.07 124.59 Z" stroke="rgb(0, 0, 0)" stroke-width="0" fill-rule="evenodd" stroke-linejoin="miter" fill="rgb(0, 0, 0)" shape-rendering="geometricPrecision" /><path d="M450.76 127 L450.76 127 L453.62 127 L453.69 127.6 L450.69 127.6 Z" stroke="rgb(0, 0, 0)" stroke-width="0" fill-rule="evenodd" stroke-linejoin="miter" fill="rgb(0, 0, 0)" shape-rendering="geometricPrecision" /></g><g><text xml:space="preserve" text-anchor="start" text-rendering="geometricPrecision"><tspan x="448.86" y="136.27" font-family="Arial" font-size="10" fill="rgb(0, 0, 0)">Et</tspan></text></g><g id="WedgeBegin"><path d="M452.1 118.27 L452.1 118.27 L452.19 117.97 L452.56 117.81 L461.26 121.48 L460.51 122.78 L459.76 124.08 Z" stroke="rgb(0, 0, 0)" stroke-width="0" fill-rule="evenodd" stroke-linejoin="miter" fill="rgb(0, 0, 0)" shape-rendering="geometricPrecision" /></g><g><text xml:space="preserve" text-anchor="start" text-rendering="geometricPrecision"><tspan x="461.06" y="129.07" font-family="Arial" font-size="10" fill="rgb(0, 0, 0)">H</tspan></text></g><g id="Solid"><path d="M437.46 117.9 L437.46 117.9 L437.79 117.95 L437.94 118.25 L429.55 129.77 L429.31 129.59 L429.07 129.41 Z" stroke="rgb(0, 0, 0)" stroke-width="0" fill-rule="evenodd" stroke-linejoin="miter" fill="rgb(0, 0, 0)" shape-rendering="geometricPrecision" /></g></g></g></svg>