<?xml version="1.0"?><svg xmlns="http://www.w3.org/2000/svg" xmlns:xlink="http://www.w3.org/1999/xlink" viewBox="138.93 48.69 227.58 55.51" preserveAspectRatio="xMidYMid" width="100%" height="100%"><clipPath id="98"><rect x="0.47" y="0.47" width="522.26" height="768.74" /></clipPath><g id="drawing"><rect x="138.93" y="48.69" width="100%" height="100%" fill="rgb(255, 255, 255)" /><g id="page" clip-path="url(#98)"><g id="Solid"><path d="M138.94 75.98 L138.94 75.98 L139.75 76.45 L140.56 76.92 L151.32 95.55 L151.05 96.02 L150.78 96.49 Z" stroke="rgb(0, 0, 0)" stroke-width="0" fill-rule="evenodd" stroke-linejoin="miter" fill="rgb(0, 0, 0)" shape-rendering="geometricPrecision" /></g><g id="Solid"><path d="M140.56 76.92 L140.56 76.92 L139.75 76.45 L138.94 75.98 L162.09 75.98 L162.36 76.45 L162.09 76.92 Z" stroke="rgb(0, 0, 0)" stroke-width="0" fill-rule="evenodd" stroke-linejoin="miter" fill="rgb(0, 0, 0)" shape-rendering="geometricPrecision" /></g><g id="Solid"><path d="M150.78 96.49 L150.78 96.49 L151.05 96.02 L151.32 95.55 L172.85 95.55 L173.66 96.02 L173.93 96.49 Z" stroke="rgb(0, 0, 0)" stroke-width="0" fill-rule="evenodd" stroke-linejoin="miter" fill="rgb(0, 0, 0)" shape-rendering="geometricPrecision" /></g><g id="Solid"><path d="M162.09 76.92 L162.09 76.92 L162.36 76.45 L162.9 76.45 L173.66 95.08 L173.66 96.02 L172.85 95.55 Z" stroke="rgb(0, 0, 0)" stroke-width="0" fill-rule="evenodd" stroke-linejoin="miter" fill="rgb(0, 0, 0)" shape-rendering="geometricPrecision" /></g><g id="Solid"><path d="M162.9 76.45 L162.9 76.45 L162.36 76.45 L162.09 75.98 L173.39 56.4 L173.66 56.87 L173.93 57.34 Z" stroke="rgb(0, 0, 0)" stroke-width="0" fill-rule="evenodd" stroke-linejoin="miter" fill="rgb(0, 0, 0)" shape-rendering="geometricPrecision" /></g><g id="Solid"><path d="M173.93 96.49 L173.93 96.49 L173.66 96.02 L173.66 95.08 L184.69 75.98 L184.96 76.45 L185.23 76.92 Z" stroke="rgb(0, 0, 0)" stroke-width="0" fill-rule="evenodd" stroke-linejoin="miter" fill="rgb(0, 0, 0)" shape-rendering="geometricPrecision" /></g><g id="Solid"><path d="M173.93 57.34 L173.93 57.34 L173.66 56.87 L173.39 56.4 L196.26 56.4 L196.26 56.87 L196.26 57.34 Z" stroke="rgb(0, 0, 0)" stroke-width="0" fill-rule="evenodd" stroke-linejoin="miter" fill="rgb(0, 0, 0)" shape-rendering="geometricPrecision" /><line x1="176.01" y1="60.94" x2="196.26" y2="60.94" stroke="rgb(0, 0, 0)" stroke-width="0.94" shape-rendering="auto" /></g><g id="Solid"><path d="M185.23 76.92 L185.23 76.92 L184.96 76.45 L184.69 75.98 L207.57 75.98 L207.57 76.45 L207.57 76.92 Z" stroke="rgb(0, 0, 0)" stroke-width="0" fill-rule="evenodd" stroke-linejoin="miter" fill="rgb(0, 0, 0)" shape-rendering="geometricPrecision" /><line x1="187.31" y1="80.52" x2="207.57" y2="80.52" stroke="rgb(0, 0, 0)" stroke-width="0.94" shape-rendering="auto" /></g><g id="Arrow"><path d="M167.22 84.99 C172.2 84.99 176.25 80.94 176.25 75.96 C176.25 73.14 174.85 70.36 172.58 68.69 " stroke="rgb(255, 0, 0)" stroke-width="0.94" fill-rule="evenodd" stroke-linejoin="bevel" fill="none" shape-rendering="geometricPrecision" /><path d="M167.22 66.93 L173.54 71.42 C172.64 69.93 173.24 68.4 174.91 67.92 Z" stroke="rgb(255, 0, 0)" stroke-width="0" fill-rule="evenodd" stroke-linejoin="miter" stroke-miterlimit="10.8652250863999" fill="rgb(255, 0, 0)" shape-rendering="geometricPrecision" /></g><g id="Arrow"><path d="M187.12 57.29 C185.41 60.25 186.43 64.05 189.4 65.76 C190.52 66.41 191.85 66.69 193.15 66.56 " stroke="rgb(255, 0, 0)" stroke-width="0.94" fill-rule="evenodd" stroke-linejoin="bevel" fill="none" shape-rendering="geometricPrecision" /><path d="M197.88 63.49 L190.85 65.5 C192.49 65.75 193.22 67.02 192.62 68.57 Z" stroke="rgb(255, 0, 0)" stroke-width="0" fill-rule="evenodd" stroke-linejoin="miter" stroke-miterlimit="9.90298422713865" fill="rgb(255, 0, 0)" shape-rendering="geometricPrecision" /></g><g id="Arrow"><path d="M184.54 87.21 C189.28 87.78 193.58 84.4 194.16 79.67 C194.47 77.08 193.54 74.37 191.69 72.52 " stroke="rgb(255, 0, 0)" stroke-width="0.94" fill-rule="evenodd" stroke-linejoin="bevel" fill="none" shape-rendering="geometricPrecision" /><path d="M179.47 84.74 L185.69 89.37 C184.82 87.86 185.46 86.34 187.13 85.9 Z" stroke="rgb(255, 0, 0)" stroke-width="0" fill-rule="evenodd" stroke-linejoin="miter" stroke-miterlimit="10.8652250863996" fill="rgb(255, 0, 0)" shape-rendering="geometricPrecision" /></g><g id="Solid"><path d="M310.99 64.95 L310.99 64.95 L311.46 65.14 L311.93 65.33 L311.93 87.56 L311.46 87.75 L310.99 87.94 Z" stroke="rgb(0, 0, 0)" stroke-width="0" fill-rule="evenodd" stroke-linejoin="miter" fill="rgb(0, 0, 0)" shape-rendering="geometricPrecision" /></g><g id="Solid"><path d="M310.99 87.94 L310.99 87.94 L311.46 87.75 L311.93 87.56 L327.64 103.26 L327.45 103.73 L327.26 104.2 Z" stroke="rgb(0, 0, 0)" stroke-width="0" fill-rule="evenodd" stroke-linejoin="miter" fill="rgb(0, 0, 0)" shape-rendering="geometricPrecision" /></g><g id="Solid"><path d="M327.26 104.2 L327.26 104.2 L327.45 103.73 L327.64 103.26 L349.86 103.26 L350.05 103.73 L350.24 104.2 Z" stroke="rgb(0, 0, 0)" stroke-width="0" fill-rule="evenodd" stroke-linejoin="miter" fill="rgb(0, 0, 0)" shape-rendering="geometricPrecision" /><line x1="329.13" y1="99.66" x2="348.37" y2="99.66" stroke="rgb(0, 0, 0)" stroke-width="0.94" shape-rendering="auto" /></g><g id="Solid"><path d="M350.24 104.2 L350.24 104.2 L350.05 103.73 L349.86 103.26 L365.57 87.56 L366.04 87.75 L366.51 87.94 Z" stroke="rgb(0, 0, 0)" stroke-width="0" fill-rule="evenodd" stroke-linejoin="miter" fill="rgb(0, 0, 0)" shape-rendering="geometricPrecision" /></g><g id="Solid"><path d="M366.51 87.94 L366.51 87.94 L366.04 87.75 L365.57 87.56 L365.57 65.33 L366.04 65.14 L366.51 64.95 Z" stroke="rgb(0, 0, 0)" stroke-width="0" fill-rule="evenodd" stroke-linejoin="miter" fill="rgb(0, 0, 0)" shape-rendering="geometricPrecision" /></g><g id="Solid"><path d="M366.51 64.95 L366.51 64.95 L366.04 65.14 L365.57 65.33 L349.86 49.63 L350.05 49.16 L350.24 48.69 Z" stroke="rgb(0, 0, 0)" stroke-width="0" fill-rule="evenodd" stroke-linejoin="miter" fill="rgb(0, 0, 0)" shape-rendering="geometricPrecision" /></g><g id="Solid"><path d="M350.24 48.69 L350.24 48.69 L350.05 49.16 L349.86 49.63 L327.64 49.63 L327.45 49.16 L327.26 48.69 Z" stroke="rgb(0, 0, 0)" stroke-width="0" fill-rule="evenodd" stroke-linejoin="miter" fill="rgb(0, 0, 0)" shape-rendering="geometricPrecision" /><line x1="348.37" y1="53.23" x2="329.13" y2="53.23" stroke="rgb(0, 0, 0)" stroke-width="0.94" shape-rendering="auto" /></g><g id="Solid"><path d="M327.26 48.69 L327.26 48.69 L327.45 49.16 L327.64 49.63 L311.93 65.33 L311.46 65.14 L310.99 64.95 Z" stroke="rgb(0, 0, 0)" stroke-width="0" fill-rule="evenodd" stroke-linejoin="miter" fill="rgb(0, 0, 0)" shape-rendering="geometricPrecision" /></g><g id="Arrow"><line x1="281.02" y1="77" x2="227.75" y2="77" stroke="rgb(0, 0, 0)" stroke-width="0.94" shape-rendering="auto" /><path d="M288.25 77 L278.85 74.65 C280.46 75.97 280.46 78.03 278.85 79.35 Z" stroke="rgb(0, 0, 0)" stroke-width="0" fill-rule="evenodd" stroke-linejoin="miter" stroke-miterlimit="10.8652250863998" fill="rgb(0, 0, 0)" shape-rendering="geometricPrecision" /></g><g><text xml:space="preserve" text-anchor="start" text-rendering="geometricPrecision"><tspan x="251.25" y="69" font-family="Symbol" font-size="15.65" fill="rgb(0, 0, 0)">D</tspan></text></g></g></g></svg>