<?xml version="1.0"?><svg xmlns="http://www.w3.org/2000/svg" xmlns:xlink="http://www.w3.org/1999/xlink" viewBox="15.65 324.4 103.88 50.2" preserveAspectRatio="xMidYMid" width="100%" height="100%"><clipPath id="1159"><rect x="0.3" y="0.3" width="522.72" height="769.32" /></clipPath><g id="drawing"><rect x="15.65" y="324.4" width="100%" height="100%" fill="rgb(255, 255, 255)" /><g id="page" clip-path="url(#1159)"><g><text xml:space="preserve" text-anchor="start" text-rendering="geometricPrecision"><tspan x="71.27" y="361.01" font-family="Arial" font-size="10" fill="rgb(0, 0, 0)">O</tspan></text></g><g id="Solid"><path d="M63.36 359.03 L63.36 359.03 L63.22 358.75 L63.64 358.39 L70.17 357.49 L70.21 357.79 L70.26 358.09 Z" stroke="rgb(0, 0, 0)" stroke-width="0" fill-rule="evenodd" stroke-linejoin="miter" fill="rgb(0, 0, 0)" shape-rendering="geometricPrecision" /></g><g id="Solid"><path d="M63.64 358.39 L63.64 358.39 L63.22 358.75 L62.95 358.59 L67.19 343.82 L67.49 343.86 L67.69 344.24 Z" stroke="rgb(0, 0, 0)" stroke-width="0" fill-rule="evenodd" stroke-linejoin="miter" fill="rgb(0, 0, 0)" shape-rendering="geometricPrecision" /><line x1="67.08" y1="355.41" x2="69.37" y2="347.4" stroke="rgb(0, 0, 0)" stroke-width="0.6" shape-rendering="auto" /></g><g id="Dash"><path d="M81.34 348.04 L81.34 348.04 L81.16 348.61 L83.91 349.5 L83.93 349.19 L83.72 348.81 Z" stroke="rgb(0, 0, 0)" stroke-width="0" fill-rule="evenodd" stroke-linejoin="miter" fill="rgb(0, 0, 0)" shape-rendering="geometricPrecision" /><path d="M70.26 344.44 L70.26 344.44 L70.07 345.01 L67.69 344.24 L67.49 343.86 L67.79 343.64 Z" stroke="rgb(0, 0, 0)" stroke-width="0" fill-rule="evenodd" stroke-linejoin="miter" fill="rgb(0, 0, 0)" shape-rendering="geometricPrecision" /><path d="M79.23 347.35 L79.23 347.35 L76.86 346.58 L76.67 347.15 L79.05 347.92 Z" stroke="rgb(0, 0, 0)" stroke-width="0" fill-rule="evenodd" stroke-linejoin="miter" fill="rgb(0, 0, 0)" shape-rendering="geometricPrecision" /><path d="M74.74 345.9 L74.74 345.9 L72.37 345.13 L72.18 345.7 L74.56 346.47 Z" stroke="rgb(0, 0, 0)" stroke-width="0" fill-rule="evenodd" stroke-linejoin="miter" fill="rgb(0, 0, 0)" shape-rendering="geometricPrecision" /></g><g id="Dash"><path d="M82.49 359.34 L82.49 359.34 L82.64 358.76 L80.22 358.12 L80.15 358.41 L80.07 358.7 Z" stroke="rgb(0, 0, 0)" stroke-width="0" fill-rule="evenodd" stroke-linejoin="miter" fill="rgb(0, 0, 0)" shape-rendering="geometricPrecision" /><path d="M89.47 361.16 L89.47 361.16 L89.62 360.58 L92.04 361.22 L92.25 361.58 L92.46 361.94 Z" stroke="rgb(0, 0, 0)" stroke-width="0" fill-rule="evenodd" stroke-linejoin="miter" fill="rgb(0, 0, 0)" shape-rendering="geometricPrecision" /><path d="M84.77 359.93 L84.77 359.93 L87.19 360.57 L87.34 359.99 L84.92 359.35 Z" stroke="rgb(0, 0, 0)" stroke-width="0" fill-rule="evenodd" stroke-linejoin="miter" fill="rgb(0, 0, 0)" shape-rendering="geometricPrecision" /></g><g id="Solid"><path d="M92.46 361.94 L92.46 361.94 L92.25 361.58 L92.04 361.22 L96.07 347.11 L96.49 346.72 L96.91 346.33 Z" stroke="rgb(0, 0, 0)" stroke-width="0" fill-rule="evenodd" stroke-linejoin="miter" fill="rgb(0, 0, 0)" shape-rendering="geometricPrecision" /></g><g id="Bracket"><path d="M105.89 325 L109.75 325 L109.75 374 L105.89 374 " stroke="rgb(0, 0, 0)" stroke-width="0.6" fill-rule="evenodd" stroke-linejoin="miter" fill="none" shape-rendering="geometricPrecision" /></g><g id="Bracket"><path d="M20.11 374 L16.25 374 L16.25 325 L20.11 325 " stroke="rgb(0, 0, 0)" stroke-width="0.6" fill-rule="evenodd" stroke-linejoin="miter" fill="none" shape-rendering="geometricPrecision" /></g><g id="Charge1121"><line x1="115.75" y1="326.2" x2="115.75" y2="338.8" stroke="rgb(0, 0, 0)" stroke-width="0.48" shape-rendering="auto" /><line x1="112.45" y1="329.5" x2="119.05" y2="329.5" stroke="rgb(0, 0, 0)" stroke-width="0.48" shape-rendering="auto" /><line x1="112.45" y1="335.5" x2="119.05" y2="335.5" stroke="rgb(0, 0, 0)" stroke-width="0.48" shape-rendering="auto" /></g><g id="Solid"><path d="M83.91 349.5 L83.91 349.5 L83.93 349.19 L84.34 348.8 L96.91 346.33 L96.49 346.72 L96.07 347.11 Z" stroke="rgb(0, 0, 0)" stroke-width="0" fill-rule="evenodd" stroke-linejoin="miter" fill="rgb(0, 0, 0)" shape-rendering="geometricPrecision" /><line x1="87.11" y1="346.22" x2="96.05" y2="344.46" stroke="rgb(0, 0, 0)" stroke-width="0.6" shape-rendering="auto" /></g><g><text xml:space="preserve" text-anchor="end" text-rendering="geometricPrecision"><tspan x="56.94" y="372.84" font-family="Arial" font-size="10" fill="rgb(0, 0, 0)">SMTO</tspan></text></g><g id="Solid"><path d="M62.95 358.59 L62.95 358.59 L63.22 358.75 L63.36 359.03 L56.82 365.58 L56.61 365.37 L56.4 365.16 Z" stroke="rgb(0, 0, 0)" stroke-width="0" fill-rule="evenodd" stroke-linejoin="miter" fill="rgb(0, 0, 0)" shape-rendering="geometricPrecision" /></g><g id="Solid"><path d="M67.79 343.64 L67.79 343.64 L67.49 343.86 L67.19 343.82 L67.19 329.46 L67.49 329.46 L67.79 329.46 Z" stroke="rgb(0, 0, 0)" stroke-width="0" fill-rule="evenodd" stroke-linejoin="miter" fill="rgb(0, 0, 0)" shape-rendering="geometricPrecision" /></g><g id="Solid"><path d="M84.34 348.8 L84.34 348.8 L83.93 349.19 L83.72 348.81 L87.37 335.2 L87.66 335.28 L87.95 335.36 Z" stroke="rgb(0, 0, 0)" stroke-width="0" fill-rule="evenodd" stroke-linejoin="miter" fill="rgb(0, 0, 0)" shape-rendering="geometricPrecision" /></g></g></g></svg>