<?xml version="1.0"?><svg xmlns="http://www.w3.org/2000/svg" xmlns:xlink="http://www.w3.org/1999/xlink" viewBox="29.9 238.9 102.38 50.2" preserveAspectRatio="xMidYMid" width="100%" height="100%"><clipPath id="1161"><rect x="0.3" y="0.3" width="522.72" height="769.32" /></clipPath><g id="drawing"><rect x="29.9" y="238.9" width="100%" height="100%" fill="rgb(255, 255, 255)" /><g id="page" clip-path="url(#1161)"><g><text xml:space="preserve" text-anchor="start" text-rendering="geometricPrecision"><tspan x="60.07" y="281.65" font-family="Arial" font-size="10" fill="rgb(0, 0, 0)">O</tspan></text></g><g id="Dash"><path d="M71.5 277.02 L71.5 277.02 L71.42 276.42 L68.94 276.76 L68.99 277.06 L69.03 277.36 Z" stroke="rgb(0, 0, 0)" stroke-width="0" fill-rule="evenodd" stroke-linejoin="miter" fill="rgb(0, 0, 0)" shape-rendering="geometricPrecision" /></g><g id="Solid"><path d="M65.63 273.04 L65.63 273.04 L65.34 272.96 L65.05 272.88 L67.92 262.9 L68.24 262.86 L68.44 263.24 Z" stroke="rgb(0, 0, 0)" stroke-width="0" fill-rule="evenodd" stroke-linejoin="miter" fill="rgb(0, 0, 0)" shape-rendering="geometricPrecision" /></g><g id="Solid"><path d="M84.47 267.81 L84.47 267.81 L84.68 268.19 L84.66 268.5 L68.44 263.24 L68.24 262.86 L68.44 262.61 Z" stroke="rgb(0, 0, 0)" stroke-width="0" fill-rule="evenodd" stroke-linejoin="miter" fill="rgb(0, 0, 0)" shape-rendering="geometricPrecision" /><line x1="82.52" y1="264.22" x2="70.34" y2="260.27" stroke="rgb(0, 0, 0)" stroke-width="0.6" shape-rendering="auto" /></g><g id="Solid"><path d="M75.9 276.42 L75.9 276.42 L75.92 276.11 L75.94 275.8 L92.79 280.22 L93 280.58 L93.21 280.94 Z" stroke="rgb(0, 0, 0)" stroke-width="0" fill-rule="evenodd" stroke-linejoin="miter" fill="rgb(0, 0, 0)" shape-rendering="geometricPrecision" /></g><g id="Solid"><path d="M93.21 280.94 L93.21 280.94 L93 280.58 L92.79 280.22 L96.82 266.11 L97.24 265.72 L97.42 266.17 Z" stroke="rgb(0, 0, 0)" stroke-width="0" fill-rule="evenodd" stroke-linejoin="miter" fill="rgb(0, 0, 0)" shape-rendering="geometricPrecision" /><line x1="91.07" y1="277.2" x2="93.32" y2="269.33" stroke="rgb(0, 0, 0)" stroke-width="0.6" shape-rendering="auto" /></g><g><text xml:space="preserve" text-anchor="end" text-rendering="geometricPrecision"><tspan x="63.5" y="251.8" font-family="Arial" font-size="10" fill="rgb(0, 0, 0)">SMTO</tspan></text></g><g id="Solid"><path d="M68.44 262.61 L68.44 262.61 L68.24 262.86 L67.92 262.9 L62.22 253.04 L62.48 252.89 L62.74 252.74 Z" stroke="rgb(0, 0, 0)" stroke-width="0" fill-rule="evenodd" stroke-linejoin="miter" fill="rgb(0, 0, 0)" shape-rendering="geometricPrecision" /></g><g id="Solid"><path d="M97.42 266.17 L97.42 266.17 L97.24 265.72 L97.29 265.4 L112.35 274.1 L112.2 274.36 L112.05 274.62 Z" stroke="rgb(0, 0, 0)" stroke-width="0" fill-rule="evenodd" stroke-linejoin="miter" fill="rgb(0, 0, 0)" shape-rendering="geometricPrecision" /></g><g id="Dash"><path d="M87.66 267.91 L87.66 267.91 L87.55 267.32 L85.09 267.8 L84.68 268.19 L84.66 268.5 Z" stroke="rgb(0, 0, 0)" stroke-width="0" fill-rule="evenodd" stroke-linejoin="miter" fill="rgb(0, 0, 0)" shape-rendering="geometricPrecision" /><path d="M94.36 266.59 L94.36 266.59 L94.25 266 L97.29 265.4 L97.24 265.72 L96.82 266.11 Z" stroke="rgb(0, 0, 0)" stroke-width="0" fill-rule="evenodd" stroke-linejoin="miter" fill="rgb(0, 0, 0)" shape-rendering="geometricPrecision" /><path d="M89.79 267.49 L89.79 267.49 L92.24 267.01 L92.12 266.42 L89.67 266.9 Z" stroke="rgb(0, 0, 0)" stroke-width="0" fill-rule="evenodd" stroke-linejoin="miter" fill="rgb(0, 0, 0)" shape-rendering="geometricPrecision" /></g><g id="Bracket"><path d="M118.64 239.5 L122.5 239.5 L122.5 288.5 L118.64 288.5 " stroke="rgb(0, 0, 0)" stroke-width="0.6" fill-rule="evenodd" stroke-linejoin="miter" fill="none" shape-rendering="geometricPrecision" /></g><g id="Bracket"><path d="M34.36 288.5 L30.5 288.5 L30.5 239.5 L34.36 239.5 " stroke="rgb(0, 0, 0)" stroke-width="0.6" fill-rule="evenodd" stroke-linejoin="miter" fill="none" shape-rendering="geometricPrecision" /></g><g id="Charge1085"><line x1="128.5" y1="240.7" x2="128.5" y2="253.3" stroke="rgb(0, 0, 0)" stroke-width="0.48" shape-rendering="auto" /><line x1="125.2" y1="244" x2="131.8" y2="244" stroke="rgb(0, 0, 0)" stroke-width="0.48" shape-rendering="auto" /><line x1="125.2" y1="250" x2="131.8" y2="250" stroke="rgb(0, 0, 0)" stroke-width="0.48" shape-rendering="auto" /></g><g id="Solid"><path d="M85.09 267.8 L85.09 267.8 L84.68 268.19 L84.47 267.81 L88.12 254.2 L88.41 254.28 L88.7 254.36 Z" stroke="rgb(0, 0, 0)" stroke-width="0" fill-rule="evenodd" stroke-linejoin="miter" fill="rgb(0, 0, 0)" shape-rendering="geometricPrecision" /></g></g></g></svg>