<?xml version="1.0"?><svg xmlns="http://www.w3.org/2000/svg" xmlns:xlink="http://www.w3.org/1999/xlink" viewBox="4.9 243.4 102.38 50.2" preserveAspectRatio="xMidYMid" width="100%" height="100%"><clipPath id="1101"><rect x="0.3" y="0.3" width="522.72" height="769.32" /></clipPath><g id="drawing"><rect x="4.9" y="243.4" width="100%" height="100%" fill="rgb(255, 255, 255)" /><g id="page" clip-path="url(#1101)"><g id="Solid"><g id="Bond's parts"><path d="M59.55 272.8 L59.55 272.8 L59.88 272.8 L59.9 272.85 L59.95 281.25 L59.55 281.2 L59.35 281.15 L59.35 272.85 Z" stroke="rgb(0, 0, 0)" stroke-width="0" fill-rule="evenodd" stroke-linejoin="miter" fill="rgb(0, 0, 0)" shape-rendering="geometricPrecision" /><path d="M59.4 285.05 L59.4 285.05 L59.42 285.1 L59.88 285.2 L59.9 285.25 L59.95 289.95 Z" stroke="rgb(0, 0, 0)" stroke-width="0" fill-rule="evenodd" stroke-linejoin="miter" fill="rgb(0, 0, 0)" shape-rendering="geometricPrecision" /></g></g><g><text xml:space="preserve" text-anchor="start" text-rendering="geometricPrecision"><tspan x="35.07" y="286.15" font-family="Arial" font-size="10" fill="rgb(0, 0, 0)">O</tspan></text></g><g id="Dash"><path d="M46.5 281.52 L46.5 281.52 L46.42 280.92 L43.94 281.26 L43.99 281.56 L44.03 281.86 Z" stroke="rgb(0, 0, 0)" stroke-width="0" fill-rule="evenodd" stroke-linejoin="miter" fill="rgb(0, 0, 0)" shape-rendering="geometricPrecision" /></g><g id="Solid"><path d="M40.63 277.54 L40.63 277.54 L40.34 277.46 L40.05 277.38 L42.92 267.4 L43.24 267.36 L43.44 267.74 Z" stroke="rgb(0, 0, 0)" stroke-width="0" fill-rule="evenodd" stroke-linejoin="miter" fill="rgb(0, 0, 0)" shape-rendering="geometricPrecision" /></g><g id="Solid"><path d="M59.7 272.38 L59.7 272.38 L59.68 272.69 L59.38 272.91 L43.44 267.74 L43.24 267.36 L43.44 267.11 Z" stroke="rgb(0, 0, 0)" stroke-width="0" fill-rule="evenodd" stroke-linejoin="miter" fill="rgb(0, 0, 0)" shape-rendering="geometricPrecision" /><line x1="59.87" y1="269.48" x2="45.34" y2="264.77" stroke="rgb(0, 0, 0)" stroke-width="0.6" shape-rendering="auto" /></g><g id="Solid"><path d="M50.9 280.92 L50.9 280.92 L50.92 280.61 L50.94 280.3 L67.79 284.72 L68 285.08 L68.21 285.44 Z" stroke="rgb(0, 0, 0)" stroke-width="0" fill-rule="evenodd" stroke-linejoin="miter" fill="rgb(0, 0, 0)" shape-rendering="geometricPrecision" /></g><g id="Solid"><path d="M68.21 285.44 L68.21 285.44 L68 285.08 L67.79 284.72 L71.82 270.61 L72.24 270.22 L72.42 270.67 Z" stroke="rgb(0, 0, 0)" stroke-width="0" fill-rule="evenodd" stroke-linejoin="miter" fill="rgb(0, 0, 0)" shape-rendering="geometricPrecision" /><line x1="66.07" y1="281.7" x2="68.32" y2="273.83" stroke="rgb(0, 0, 0)" stroke-width="0.6" shape-rendering="auto" /></g><g><text xml:space="preserve" text-anchor="end" text-rendering="geometricPrecision"><tspan x="38.5" y="256.3" font-family="Arial" font-size="10" fill="rgb(0, 0, 0)">SMTO</tspan></text></g><g id="Solid"><path d="M43.44 267.11 L43.44 267.11 L43.24 267.36 L42.92 267.4 L37.22 257.54 L37.48 257.39 L37.74 257.24 Z" stroke="rgb(0, 0, 0)" stroke-width="0" fill-rule="evenodd" stroke-linejoin="miter" fill="rgb(0, 0, 0)" shape-rendering="geometricPrecision" /></g><g id="Solid"><path d="M72.42 270.67 L72.42 270.67 L72.24 270.22 L72.29 269.9 L87.35 278.6 L87.2 278.86 L87.05 279.12 Z" stroke="rgb(0, 0, 0)" stroke-width="0" fill-rule="evenodd" stroke-linejoin="miter" fill="rgb(0, 0, 0)" shape-rendering="geometricPrecision" /></g><g id="Dash"><path d="M62.43 272.45 L62.43 272.45 L62.32 271.87 L59.7 272.38 L59.68 272.69 L59.98 272.94 Z" stroke="rgb(0, 0, 0)" stroke-width="0" fill-rule="evenodd" stroke-linejoin="miter" fill="rgb(0, 0, 0)" shape-rendering="geometricPrecision" /><path d="M69.36 271.09 L69.36 271.09 L69.25 270.5 L72.29 269.9 L72.24 270.22 L71.82 270.61 Z" stroke="rgb(0, 0, 0)" stroke-width="0" fill-rule="evenodd" stroke-linejoin="miter" fill="rgb(0, 0, 0)" shape-rendering="geometricPrecision" /><path d="M64.67 272.01 L64.67 272.01 L67.13 271.53 L67.01 270.94 L64.56 271.43 Z" stroke="rgb(0, 0, 0)" stroke-width="0" fill-rule="evenodd" stroke-linejoin="miter" fill="rgb(0, 0, 0)" shape-rendering="geometricPrecision" /></g><g id="Bracket"><path d="M93.64 244 L97.5 244 L97.5 293 L93.64 293 " stroke="rgb(0, 0, 0)" stroke-width="0.6" fill-rule="evenodd" stroke-linejoin="miter" fill="none" shape-rendering="geometricPrecision" /></g><g id="Bracket"><path d="M9.36 293 L5.5 293 L5.5 244 L9.36 244 " stroke="rgb(0, 0, 0)" stroke-width="0.6" fill-rule="evenodd" stroke-linejoin="miter" fill="none" shape-rendering="geometricPrecision" /></g><g id="Charge1085"><line x1="103.5" y1="245.2" x2="103.5" y2="257.8" stroke="rgb(0, 0, 0)" stroke-width="0.48" shape-rendering="auto" /><line x1="100.2" y1="248.5" x2="106.8" y2="248.5" stroke="rgb(0, 0, 0)" stroke-width="0.48" shape-rendering="auto" /><line x1="100.2" y1="254.5" x2="106.8" y2="254.5" stroke="rgb(0, 0, 0)" stroke-width="0.48" shape-rendering="auto" /></g></g></g></svg>