<?xml version="1.0"?><svg xmlns="http://www.w3.org/2000/svg" xmlns:xlink="http://www.w3.org/1999/xlink" viewBox="41.51 169.07 42.06 49.06" preserveAspectRatio="xMidYMid" width="100%" height="100%"><clipPath id="9841"><rect x="0.3" y="0.3" width="522.72" height="769.32" /></clipPath><g id="drawing"><rect x="41.51" y="169.07" width="100%" height="100%" fill="rgb(255, 255, 255)" /><g id="page" clip-path="url(#9841)"><g><text xml:space="preserve" text-anchor="start" text-rendering="geometricPrecision"><tspan x="41.51" y="199.13" font-family="Arial" font-size="10" fill="rgb(0, 0, 0)">O</tspan></text></g><g id="Solid"><path d="M45.26 209.89 L45.26 209.89 L45.41 209.63 L45.56 209.37 L57.88 216.48 L57.88 216.83 L57.88 217.18 Z" stroke="rgb(0, 0, 0)" stroke-width="0" fill-rule="evenodd" stroke-linejoin="miter" fill="rgb(0, 0, 0)" shape-rendering="geometricPrecision" /><line x1="46.71" y1="207.39" x2="57.88" y2="213.84" stroke="rgb(0, 0, 0)" stroke-width="0.6" shape-rendering="auto" /></g><g id="Solid"><path d="M57.88 217.18 L57.88 217.18 L57.88 216.83 L57.88 216.48 L70.05 209.46 L70.35 209.63 L70.65 209.8 Z" stroke="rgb(0, 0, 0)" stroke-width="0" fill-rule="evenodd" stroke-linejoin="miter" fill="rgb(0, 0, 0)" shape-rendering="geometricPrecision" /></g><g id="Solid"><path d="M70.65 209.8 L70.65 209.8 L70.35 209.63 L70.05 209.46 L70.05 195.4 L70.35 195.23 L70.65 195.06 Z" stroke="rgb(0, 0, 0)" stroke-width="0" fill-rule="evenodd" stroke-linejoin="miter" fill="rgb(0, 0, 0)" shape-rendering="geometricPrecision" /></g><g id="Solid"><path d="M70.65 195.06 L70.65 195.06 L70.35 195.23 L70.05 195.4 L57.58 188.2 L57.88 188.03 L58.18 187.86 Z" stroke="rgb(0, 0, 0)" stroke-width="0" fill-rule="evenodd" stroke-linejoin="miter" fill="rgb(0, 0, 0)" shape-rendering="geometricPrecision" /></g><g id="Solid"><line x1="58.53" y1="189.15" x2="50.93" y2="193.54" stroke="rgb(0, 0, 0)" stroke-width="0.6" shape-rendering="auto" /><path d="M57.58 187.05 L57.58 187.05 L57.58 186.36 L49.49 191.03 L49.79 191.55 Z" stroke="rgb(0, 0, 0)" stroke-width="0" fill-rule="evenodd" stroke-linejoin="miter" fill="rgb(0, 0, 0)" shape-rendering="geometricPrecision" /><path d="M59.18 189.12 L59.18 189.12 L58.58 188.78 L50.78 193.28 L51.08 193.8 Z" stroke="rgb(0, 0, 0)" stroke-width="0" fill-rule="evenodd" stroke-linejoin="miter" fill="rgb(0, 0, 0)" shape-rendering="geometricPrecision" /></g><g><text xml:space="preserve" text-anchor="start" text-rendering="geometricPrecision"><tspan x="53.98" y="177.53" font-family="Arial" font-size="10" fill="rgb(0, 0, 0)">OH</tspan></text></g><g id="Solid"><path d="M58.18 187.86 L58.18 187.86 L57.88 188.03 L57.58 188.2 L57.58 179.3 L57.88 179.3 L58.18 179.3 Z" stroke="rgb(0, 0, 0)" stroke-width="0" fill-rule="evenodd" stroke-linejoin="miter" fill="rgb(0, 0, 0)" shape-rendering="geometricPrecision" /></g><g id="Wedged Hash Begin Bond"><path d="M70.2 209.89 L70.2 209.89 L70.5 209.37 L71.04 209.63 L70.69 210.23 Z" stroke="rgb(0, 0, 0)" stroke-width="0" fill-rule="evenodd" stroke-linejoin="miter" fill="rgb(0, 0, 0)" shape-rendering="geometricPrecision" /><path d="M72.48 211.47 L72.48 211.47 L73.01 210.55 L73.55 210.81 L72.97 211.81 Z" stroke="rgb(0, 0, 0)" stroke-width="0" fill-rule="evenodd" stroke-linejoin="miter" fill="rgb(0, 0, 0)" shape-rendering="geometricPrecision" /><path d="M74.75 213.05 L74.75 213.05 L75.51 211.73 L76.05 211.99 L75.24 213.39 Z" stroke="rgb(0, 0, 0)" stroke-width="0" fill-rule="evenodd" stroke-linejoin="miter" fill="rgb(0, 0, 0)" shape-rendering="geometricPrecision" /><path d="M77.03 214.63 L77.03 214.63 L78.02 212.91 L78.56 213.17 L77.52 214.97 Z" stroke="rgb(0, 0, 0)" stroke-width="0" fill-rule="evenodd" stroke-linejoin="miter" fill="rgb(0, 0, 0)" shape-rendering="geometricPrecision" /><path d="M79.3 216.21 L79.3 216.21 L80.52 214.09 L81.06 214.35 L79.79 216.55 Z" stroke="rgb(0, 0, 0)" stroke-width="0" fill-rule="evenodd" stroke-linejoin="miter" fill="rgb(0, 0, 0)" shape-rendering="geometricPrecision" /><path d="M81.58 217.79 L81.58 217.79 L83.03 215.27 L83.57 215.53 L82.07 218.13 Z" stroke="rgb(0, 0, 0)" stroke-width="0" fill-rule="evenodd" stroke-linejoin="miter" fill="rgb(0, 0, 0)" shape-rendering="geometricPrecision" /></g><g id="Wedged Hash Begin Bond"><path d="M70.5 195.49 L70.5 195.49 L70.2 194.97 L70.69 194.63 L71.04 195.23 Z" stroke="rgb(0, 0, 0)" stroke-width="0" fill-rule="evenodd" stroke-linejoin="miter" fill="rgb(0, 0, 0)" shape-rendering="geometricPrecision" /><path d="M73.01 194.31 L73.01 194.31 L72.48 193.39 L72.97 193.05 L73.55 194.05 Z" stroke="rgb(0, 0, 0)" stroke-width="0" fill-rule="evenodd" stroke-linejoin="miter" fill="rgb(0, 0, 0)" shape-rendering="geometricPrecision" /><path d="M75.51 193.13 L75.51 193.13 L74.75 191.81 L75.24 191.47 L76.05 192.87 Z" stroke="rgb(0, 0, 0)" stroke-width="0" fill-rule="evenodd" stroke-linejoin="miter" fill="rgb(0, 0, 0)" shape-rendering="geometricPrecision" /><path d="M78.02 191.95 L78.02 191.95 L77.03 190.23 L77.52 189.89 L78.56 191.69 Z" stroke="rgb(0, 0, 0)" stroke-width="0" fill-rule="evenodd" stroke-linejoin="miter" fill="rgb(0, 0, 0)" shape-rendering="geometricPrecision" /><path d="M80.52 190.77 L80.52 190.77 L79.3 188.65 L79.79 188.31 L81.06 190.51 Z" stroke="rgb(0, 0, 0)" stroke-width="0" fill-rule="evenodd" stroke-linejoin="miter" fill="rgb(0, 0, 0)" shape-rendering="geometricPrecision" /><path d="M83.03 189.59 L83.03 189.59 L81.58 187.07 L82.07 186.73 L83.57 189.33 Z" stroke="rgb(0, 0, 0)" stroke-width="0" fill-rule="evenodd" stroke-linejoin="miter" fill="rgb(0, 0, 0)" shape-rendering="geometricPrecision" /></g></g></g></svg>