<?xml version="1.0"?><svg xmlns="http://www.w3.org/2000/svg" xmlns:xlink="http://www.w3.org/1999/xlink" viewBox="48.53 241.05 115.38 85.8" preserveAspectRatio="xMidYMid" width="100%" height="100%"><clipPath id="786"><rect x="0.3" y="0.3" width="522.72" height="769.32" /></clipPath><g id="drawing"><rect x="48.53" y="241.05" width="100%" height="100%" fill="rgb(255, 255, 255)" /><g id="page" clip-path="url(#786)"><g id="Bold"><g id="Bond's parts"><path d="M84.15 303.25 L84.15 303.25 L94.95 303.25 L94.95 303.85 L84.05 303.85 Z" stroke="rgb(0, 0, 0)" stroke-width="0" fill-rule="evenodd" stroke-linejoin="miter" fill="rgb(0, 0, 0)" shape-rendering="geometricPrecision" /><path d="M83.55 306.45 L83.55 306.45 L98.55 306.45 L98.6 306.85 L98.7 307.25 L98.8 307.55 L98.85 307.6 L98.93 307.7 L99.18 307.8 L99.25 307.9 L99.35 308 L99.45 308.1 L99.55 308.2 L99.65 308.3 L99.72 308.4 L83.25 308.45 L83.3 308.25 L83.4 307.65 Z" stroke="rgb(0, 0, 0)" stroke-width="0" fill-rule="evenodd" stroke-linejoin="miter" fill="rgb(0, 0, 0)" shape-rendering="geometricPrecision" /></g></g><g id="Solid"><g id="Bond's parts"><path d="M78.88 308.2 L78.88 308.2 L78.9 308.15 L78.9 308.35 L78.85 308.95 L78.65 309 L78.45 309.1 L78.22 309.2 L78.18 309.3 L77.95 309.4 L77.75 309.5 L77.53 309.6 L77.47 309.7 L77.25 309.8 L77.05 309.9 L76.82 310 L76.78 310.1 L76.55 310.2 L76.32 310.3 L76.28 310.4 L76.05 310.5 L75.85 310.6 L75.62 310.7 L75.57 310.8 L75.35 310.9 L75.15 311 L74.93 311.1 L74.88 311.2 L74.65 311.3 L74.45 311.4 L74.22 311.5 L74.18 311.6 L73.95 311.7 L73.72 311.8 L73.68 311.9 L73.45 312 L73.25 312.1 L73.03 312.2 L72.97 312.3 L72.75 312.4 L72.55 312.5 L72.32 312.6 L72.28 312.7 L72.05 312.8 L71.85 312.9 L71.62 313 L71.57 313.1 L71.35 313.2 L71.12 313.3 L71.07 313.4 L70.85 313.5 L70.65 313.6 L70.43 313.7 L70.38 313.8 L70.15 313.9 L69.95 314 L69.72 314.1 L69.68 314.2 L69.45 314.3 L69.25 314.4 L69.03 314.5 L68.97 314.6 L68.75 314.7 L68.15 314.7 L67.75 314.6 L67.97 314.5 L68.03 314.4 L68.25 314.3 L68.47 314.2 L68.53 314.1 L68.75 314 L68.95 313.9 L69.18 313.8 L69.22 313.7 L69.45 313.6 L69.65 313.5 L69.88 313.4 L69.93 313.3 L70.15 313.2 L70.38 313.1 L70.43 313 L70.65 312.9 L70.85 312.8 L71.07 312.7 L71.12 312.6 L71.35 312.5 L71.55 312.4 L71.78 312.3 L71.82 312.2 L72.05 312.1 L72.25 312 L72.47 311.9 L72.53 311.8 L72.75 311.7 L72.97 311.6 L73.03 311.5 L73.25 311.4 L73.45 311.3 L73.68 311.2 L73.72 311.1 L73.95 311 L74.15 310.9 L74.38 310.8 L74.43 310.7 L74.65 310.6 L74.85 310.5 L75.07 310.4 L75.12 310.3 L75.35 310.2 L75.57 310.1 L75.62 310 L75.85 309.9 L76.05 309.8 L76.28 309.7 L76.32 309.6 L76.55 309.5 L76.75 309.4 L76.97 309.3 L77.03 309.2 L77.25 309.1 L77.45 309 L77.68 308.9 L77.72 308.8 L77.95 308.7 L78.18 308.6 L78.22 308.5 L78.45 308.4 L78.65 308.3 Z" stroke="rgb(0, 0, 0)" stroke-width="0" fill-rule="evenodd" stroke-linejoin="miter" fill="rgb(0, 0, 0)" shape-rendering="geometricPrecision" /></g></g><g id="Solid"><path d="M67.66 314.64 L67.66 314.64 L68.15 314.7 L68.64 314.76 L78.14 324.25 L78.34 324.88 L78.54 325.51 Z" stroke="rgb(0, 0, 0)" stroke-width="0" fill-rule="evenodd" stroke-linejoin="miter" fill="rgb(0, 0, 0)" shape-rendering="geometricPrecision" /><line x1="72.37" y1="315.26" x2="76.6" y2="319.48" stroke="rgb(0, 0, 0)" stroke-width="0.6" shape-rendering="auto" /></g><g id="WedgeEnd"><g id="Bond's parts"><path d="M70.45 297.35 L70.45 297.35 L70.95 297.4 L71.18 297.5 L71.25 297.6 L71.35 297.7 L71.45 297.8 L71.53 297.9 L71.78 298 L71.85 298.1 L71.95 298.2 L72.05 298.3 L72.15 298.4 L72.22 298.5 L72.47 298.6 L72.55 298.7 L72.65 298.8 L72.75 298.9 L72.82 299 L73.07 299.1 L73.15 299.2 L73.25 299.3 L73.35 299.4 L73.45 299.5 L73.53 299.6 L73.78 299.7 L73.85 299.8 L73.95 299.9 L74.05 300 L74.12 300.1 L74.38 300.2 L74.45 300.3 L74.55 300.4 L74.65 300.5 L74.75 300.6 L74.82 300.7 L75.07 300.8 L75.15 300.9 L75.25 301 L75.35 301.1 L75.43 301.2 L75.68 301.3 L75.75 301.4 L75.85 301.5 L75.95 301.6 L76.03 301.7 L76.28 301.8 L76.35 301.9 L76.45 302 L76.55 302.1 L76.65 302.2 L76.72 302.3 L76.97 302.4 L77.05 302.5 L77.15 302.6 L77.25 302.7 L77.32 302.8 L77.57 302.9 L77.65 303 L77.75 303.1 L77.85 303.2 L77.95 303.3 L78.03 303.4 L78.28 303.5 L78.35 303.6 L78.45 303.7 L78.55 303.8 L78.62 303.9 L78.88 304 L78.95 304.1 L79.05 304.2 L79.15 304.3 L79.25 304.4 L79.32 304.5 L79.53 304.6 L79.5 304.65 L79.4 305.25 L79.3 305.85 L79.2 306.45 L79.1 307.05 L79 307.65 L78.95 307.7 L78.85 307.7 L78.75 307.6 L78.65 307.5 L78.6 307.45 L78.5 307.25 L78.45 307.2 L78.35 307.1 L78.25 307 L78.15 306.9 L78.05 306.8 L78 306.75 L77.9 306.55 L77.85 306.5 L77.75 306.4 L77.65 306.3 L77.55 306.2 L77.5 306.15 L77.4 305.95 L77.35 305.9 L77.25 305.8 L77.15 305.7 L77.05 305.6 L76.95 305.5 L76.9 305.45 L76.8 305.25 L76.75 305.2 L76.65 305.1 L76.55 305 L76.45 304.9 L76.4 304.85 L76.3 304.65 L76.25 304.6 L76.15 304.5 L76.05 304.4 L75.95 304.3 L75.85 304.2 L75.8 304.15 L75.7 303.95 L75.65 303.9 L75.55 303.8 L75.45 303.7 L75.35 303.6 L75.25 303.5 L75.2 303.45 L75.1 303.25 L75.05 303.2 L74.95 303.1 L74.85 303 L74.75 302.9 L74.7 302.85 L74.6 302.65 L74.55 302.6 L74.45 302.5 L74.35 302.4 L74.25 302.3 L74.15 302.2 L74.1 302.15 L74 301.95 L73.95 301.9 L73.85 301.8 L73.75 301.7 L73.65 301.6 L73.6 301.55 L73.5 301.35 L73.45 301.3 L73.35 301.2 L73.25 301.1 L73.15 301 L73.05 300.9 L73 300.85 L72.9 300.65 L72.85 300.6 L72.75 300.5 L72.65 300.4 L72.55 300.3 L72.5 300.25 L72.4 300.05 L72.35 300 L72.25 299.9 L72.15 299.8 L72.05 299.7 L71.95 299.6 L71.9 299.55 L71.8 299.35 L71.75 299.3 L71.65 299.2 L71.55 299.1 L71.45 299 L71.4 298.95 L71.3 298.75 L71.25 298.7 L71.15 298.6 L71.05 298.5 L70.95 298.4 L70.85 298.3 L70.8 298.25 L70.7 298.05 L70.65 298 L70.55 297.9 L70.45 297.8 L70.4 297.75 Z" stroke="rgb(0, 0, 0)" stroke-width="0" fill-rule="evenodd" stroke-linejoin="miter" fill="rgb(0, 0, 0)" shape-rendering="geometricPrecision" /></g></g><g id="WedgeEnd"><g id="Bond's parts"><path d="M109.6 297 L109.6 297 L109.35 297.1 L109.53 297.1 L109.45 297.2 L109.35 297.3 L109.25 297.4 L109.2 297.45 L109.1 297.65 L109.05 297.7 L108.95 297.8 L108.85 297.9 L108.75 298 L108.7 298.05 L108.6 298.25 L108.55 298.3 L108.45 298.4 L108.35 298.5 L108.25 298.6 L108.15 298.7 L108.1 298.75 L108 298.95 L107.95 299 L107.85 299.1 L107.75 299.2 L107.65 299.3 L107.6 299.35 L107.5 299.55 L107.45 299.6 L107.35 299.7 L107.25 299.8 L107.15 299.9 L107.05 300 L107 300.05 L106.9 300.25 L106.85 300.3 L106.75 300.4 L106.65 300.5 L106.55 300.6 L106.5 300.65 L106.4 300.85 L106.35 300.9 L106.25 301 L106.15 301.1 L106.05 301.2 L105.95 301.3 L105.9 301.35 L105.8 301.55 L105.75 301.6 L105.65 301.7 L105.55 301.8 L105.45 301.9 L105.35 302 L105.3 302.05 L105.2 302.25 L105.15 302.3 L105.05 302.4 L104.95 302.5 L104.85 302.6 L104.8 302.65 L104.7 302.85 L104.65 302.9 L104.55 303 L104.45 303.1 L104.35 303.2 L104.25 303.3 L104.2 303.35 L104.1 303.55 L104.05 303.6 L103.95 303.7 L103.85 303.8 L103.75 303.9 L103.7 303.95 L103.6 304.15 L103.55 304.2 L103.45 304.3 L103.35 304.4 L103.25 304.5 L103.15 304.6 L103.1 304.65 L103 304.85 L102.95 304.9 L102.85 305 L102.75 305.1 L102.65 305.2 L102.6 305.25 L102.5 305.45 L102.45 305.5 L102.35 305.6 L102.25 305.7 L102.15 305.8 L102.05 305.9 L102 305.95 L101.9 306.15 L101.85 306.2 L101.75 306.3 L101.65 306.4 L101.55 306.5 L101.5 306.55 L101.4 306.75 L101.35 306.8 L101.25 306.9 L101.15 307 L101.05 307.1 L100.95 307.2 L100.9 307.25 L100.8 307.45 L100.75 307.5 L100.65 307.6 L100.55 307.7 L100.45 307.8 L100.4 307.85 L100.3 308.05 L100.25 308.1 L100.15 308.2 L100.05 308.3 L99.97 308.4 L99.72 308.4 L99.65 308.3 L99.55 308.2 L99.45 308.1 L99.35 308 L99.25 307.9 L99.18 307.8 L98.93 307.7 L98.85 307.6 L98.8 307.55 L98.8 307.35 L98.9 306.75 L99 306.15 L99.1 305.55 L99.2 305.15 L99.22 305.1 L99.47 305 L99.55 304.9 L99.65 304.8 L99.75 304.7 L99.85 304.6 L99.93 304.5 L100.18 304.4 L100.25 304.3 L100.35 304.2 L100.45 304.1 L100.53 304 L100.78 303.9 L100.85 303.8 L100.95 303.7 L101.05 303.6 L101.12 303.5 L101.38 303.4 L101.45 303.3 L101.55 303.2 L101.65 303.1 L101.75 303 L101.82 302.9 L102.07 302.8 L102.15 302.7 L102.25 302.6 L102.35 302.5 L102.43 302.4 L102.68 302.3 L102.75 302.2 L102.85 302.1 L102.95 302 L103.05 301.9 L103.12 301.8 L103.38 301.7 L103.45 301.6 L103.55 301.5 L103.65 301.4 L103.72 301.3 L103.97 301.2 L104.05 301.1 L104.15 301 L104.25 300.9 L104.35 300.8 L104.43 300.7 L104.68 300.6 L104.75 300.5 L104.85 300.4 L104.95 300.3 L105.03 300.2 L105.28 300.1 L105.35 300 L105.45 299.9 L105.55 299.8 L105.62 299.7 L105.88 299.6 L105.95 299.5 L106.05 299.4 L106.15 299.3 L106.25 299.2 L106.32 299.1 L106.57 299 L106.65 298.9 L106.75 298.8 L106.85 298.7 L106.93 298.6 L107.18 298.5 L107.25 298.4 L107.35 298.3 L107.45 298.2 L107.55 298.1 L107.62 298 L107.88 297.9 L107.95 297.8 L108.03 297.7 L108.35 297.6 L108.55 297.5 L108.75 297.4 L108.95 297.3 L109.15 297.2 Z" stroke="rgb(0, 0, 0)" stroke-width="0" fill-rule="evenodd" stroke-linejoin="miter" fill="rgb(0, 0, 0)" shape-rendering="geometricPrecision" /></g></g><g id="Solid"><g id="Bond's parts"><path d="M81.35 292.3 L81.35 292.3 L81.53 292.3 L81.5 292.35 L81.45 292.95 L81.25 293 L80.95 293.1 L80.75 293.2 L80.55 293.3 L80.35 293.4 L80.05 293.5 L79.85 293.6 L79.65 293.7 L79.35 293.8 L79.15 293.9 L78.95 294 L78.65 294.1 L78.45 294.2 L78.25 294.3 L77.95 294.4 L77.75 294.5 L77.55 294.6 L77.25 294.7 L77.05 294.8 L76.85 294.9 L76.55 295 L76.35 295.1 L76.15 295.2 L75.85 295.3 L75.65 295.4 L75.45 295.5 L75.15 295.6 L74.95 295.7 L74.75 295.8 L74.45 295.9 L74.25 296 L74.05 296.1 L73.85 296.2 L73.55 296.3 L73.35 296.4 L73.15 296.5 L72.85 296.6 L72.65 296.7 L72.45 296.8 L72.15 296.9 L71.95 297 L71.75 297.1 L71.45 297.2 L71.25 297.3 L71.03 297.4 L70.97 297.4 L70.45 297.35 L70.5 297.15 L70.6 296.95 L70.62 296.9 L70.85 296.8 L71.15 296.7 L71.35 296.6 L71.55 296.5 L71.85 296.4 L72.05 296.3 L72.25 296.2 L72.55 296.1 L72.75 296 L72.95 295.9 L73.25 295.8 L73.45 295.7 L73.65 295.6 L73.95 295.5 L74.15 295.4 L74.35 295.3 L74.65 295.2 L74.85 295.1 L75.05 295 L75.25 294.9 L75.55 294.8 L75.75 294.7 L75.95 294.6 L76.25 294.5 L76.45 294.4 L76.65 294.3 L76.95 294.2 L77.15 294.1 L77.35 294 L77.65 293.9 L77.85 293.8 L78.05 293.7 L78.35 293.6 L78.55 293.5 L78.75 293.4 L79.05 293.3 L79.25 293.2 L79.45 293.1 L79.75 293 L79.95 292.9 L80.15 292.8 L80.45 292.7 L80.65 292.6 L80.85 292.5 L81.15 292.4 Z" stroke="rgb(0, 0, 0)" stroke-width="0" fill-rule="evenodd" stroke-linejoin="miter" fill="rgb(0, 0, 0)" shape-rendering="geometricPrecision" /></g></g><g id="Solid"><g id="Bond's parts"><path d="M85.75 292.85 L85.75 292.85 L85.97 292.9 L86.03 293 L86.28 293.1 L86.32 293.2 L86.57 293.3 L86.65 293.4 L86.72 293.5 L86.97 293.6 L87.03 293.7 L87.28 293.8 L87.35 293.9 L87.43 294 L87.68 294.1 L87.72 294.2 L87.97 294.3 L88.03 294.4 L88.28 294.5 L88.35 294.6 L88.43 294.7 L88.68 294.8 L88.72 294.9 L88.97 295 L89.03 295.1 L89.28 295.2 L89.35 295.3 L89.43 295.4 L89.68 295.5 L89.72 295.6 L89.97 295.7 L90.05 295.8 L90.12 295.9 L90.38 296 L90.43 296.1 L90.68 296.2 L90.72 296.3 L90.97 296.4 L91.05 296.5 L91.12 296.6 L91.38 296.7 L91.43 296.8 L91.68 296.9 L91.72 297 L91.97 297.1 L92.05 297.2 L92.12 297.3 L92.38 297.4 L92.43 297.5 L92.68 297.6 L92.75 297.7 L92.82 297.8 L93.07 297.9 L93.12 298 L93.38 298.1 L93.43 298.2 L93.68 298.3 L93.75 298.4 L93.82 298.5 L94.07 298.6 L94.12 298.7 L94.35 298.75 L94.3 299.05 L94.2 299.45 L94.18 299.4 L93.93 299.3 L93.88 299.2 L93.62 299.1 L93.55 299 L93.47 298.9 L93.22 298.8 L93.18 298.7 L92.93 298.6 L92.85 298.5 L92.78 298.4 L92.53 298.3 L92.47 298.2 L92.22 298.1 L92.18 298 L91.93 297.9 L91.85 297.8 L91.78 297.7 L91.53 297.6 L91.47 297.5 L91.22 297.4 L91.15 297.3 L91.07 297.2 L90.82 297.1 L90.78 297 L90.53 296.9 L90.47 296.8 L90.22 296.7 L90.15 296.6 L90.07 296.5 L89.82 296.4 L89.78 296.3 L89.53 296.2 L89.47 296.1 L89.22 296 L89.15 295.9 L89.07 295.8 L88.82 295.7 L88.78 295.6 L88.53 295.5 L88.45 295.4 L88.38 295.3 L88.12 295.2 L88.07 295.1 L87.82 295 L87.78 294.9 L87.53 294.8 L87.45 294.7 L87.38 294.6 L87.12 294.5 L87.07 294.4 L86.82 294.3 L86.75 294.2 L86.68 294.1 L86.43 294 L86.38 293.9 L86.12 293.8 L86.07 293.7 L85.82 293.6 Z" stroke="rgb(0, 0, 0)" stroke-width="0" fill-rule="evenodd" stroke-linejoin="miter" fill="rgb(0, 0, 0)" shape-rendering="geometricPrecision" /></g></g><g id="Solid"><g id="Bond's parts"><path d="M109.05 297 L109.05 297 L109.55 297 L109.35 297.1 L109.15 297.2 L108.95 297.3 L108.75 297.4 L108.55 297.5 L108.35 297.6 L108.05 297.7 L107.55 297.8 L106.75 297.9 L105.95 298 L105.15 298.1 L104.38 298.1 L104.45 298 L104.53 297.9 L104.78 297.8 L104.85 297.7 L104.95 297.6 L105.03 297.5 L105.85 297.4 L106.65 297.3 L107.45 297.2 L108.25 297.1 Z" stroke="rgb(0, 0, 0)" stroke-width="0" fill-rule="evenodd" stroke-linejoin="miter" fill="rgb(0, 0, 0)" shape-rendering="geometricPrecision" /><path d="M101.85 297.9 L101.85 297.9 L102.18 297.9 L102.25 298 L102.35 298.1 L102.45 298.2 L102.55 298.3 L102.62 298.4 L101.85 298.5 L101.35 298.55 L101.35 297.95 Z" stroke="rgb(0, 0, 0)" stroke-width="0" fill-rule="evenodd" stroke-linejoin="miter" fill="rgb(0, 0, 0)" shape-rendering="geometricPrecision" /><path d="M104.3 298.2 L104.3 298.2 L96.95 298.5 L97.55 298.45 L97.55 299.05 L97.05 299.1 L96.25 299.2 L95.45 299.3 L94.55 299.4 L94.25 299.45 L94.3 299.05 L94.35 298.85 L94.55 298.8 L95.35 298.7 L96.15 298.6 Z" stroke="rgb(0, 0, 0)" stroke-width="0" fill-rule="evenodd" stroke-linejoin="miter" fill="rgb(0, 0, 0)" shape-rendering="geometricPrecision" /></g></g><g id="Solid"><path d="M70.09 297.18 L70.09 297.18 L70.44 297.32 L70.37 297.7 L58.12 304.78 L57.97 304.52 L57.82 304.26 Z" stroke="rgb(0, 0, 0)" stroke-width="0" fill-rule="evenodd" stroke-linejoin="miter" fill="rgb(0, 0, 0)" shape-rendering="geometricPrecision" /></g><g id="Solid"><path d="M70.64 296.91 L70.64 296.91 L70.44 297.32 L70.09 297.18 L66.43 283.49 L66.72 283.41 L67.01 283.33 Z" stroke="rgb(0, 0, 0)" stroke-width="0" fill-rule="evenodd" stroke-linejoin="miter" fill="rgb(0, 0, 0)" shape-rendering="geometricPrecision" /></g><g id="Solid"><path d="M100.82 256.19 L100.82 256.19 L100.88 256.5 L100.56 257.03 L88.78 263.83 L88.4 263.7 L88.13 263.51 Z" stroke="rgb(0, 0, 0)" stroke-width="0" fill-rule="evenodd" stroke-linejoin="miter" fill="rgb(0, 0, 0)" shape-rendering="geometricPrecision" /><line x1="98.09" y1="261.1" x2="91.66" y2="264.81" stroke="rgb(0, 0, 0)" stroke-width="0.6" shape-rendering="auto" /></g><g id="Solid"><path d="M88.52 264.79 L88.52 264.79 L88.4 263.7 L88.78 263.83 L92.37 272.6 L92.15 272.85 L91.93 273.1 Z" stroke="rgb(0, 0, 0)" stroke-width="0" fill-rule="evenodd" stroke-linejoin="miter" fill="rgb(0, 0, 0)" shape-rendering="geometricPrecision" /></g><g id="Solid"><path d="M108.78 277.15 L108.78 277.15 L108.38 277.05 L108.33 276.73 L120.46 268.99 L120.85 269.1 L121.24 269.21 Z" stroke="rgb(0, 0, 0)" stroke-width="0" fill-rule="evenodd" stroke-linejoin="miter" fill="rgb(0, 0, 0)" shape-rendering="geometricPrecision" /></g><g id="Solid"><path d="M121.24 269.21 L121.24 269.21 L120.85 269.1 L120.46 268.99 L115.4 258.73 L115.6 258.45 L115.8 258.17 Z" stroke="rgb(0, 0, 0)" stroke-width="0" fill-rule="evenodd" stroke-linejoin="miter" fill="rgb(0, 0, 0)" shape-rendering="geometricPrecision" /></g><g id="Solid"><path d="M115.8 258.17 L115.8 258.17 L115.6 258.45 L115.4 258.73 L101.17 256.84 L100.88 256.5 L100.82 256.19 Z" stroke="rgb(0, 0, 0)" stroke-width="0" fill-rule="evenodd" stroke-linejoin="miter" fill="rgb(0, 0, 0)" shape-rendering="geometricPrecision" /></g><g id="Dash"><g id="Bond's parts"><path d="M100.85 256.6 L100.85 256.6 L100.95 256.6 L101.05 256.7 L101.1 256.75 L101.1 258.45 L101.05 259.55 L100.45 259.55 L100.5 258.45 L100.6 256.95 L100.7 256.75 L100.75 256.7 Z" stroke="rgb(0, 0, 0)" stroke-width="0" fill-rule="evenodd" stroke-linejoin="miter" fill="rgb(0, 0, 0)" shape-rendering="geometricPrecision" /><path d="M100.35 262.75 L100.35 262.75 L100.95 262.75 L100.9 263.25 L100.85 265.25 L100.25 265.25 Z" stroke="rgb(0, 0, 0)" stroke-width="0" fill-rule="evenodd" stroke-linejoin="miter" fill="rgb(0, 0, 0)" shape-rendering="geometricPrecision" /><path d="M100.05 268.45 L100.05 268.45 L100.65 268.45 L100.6 270.55 L100.55 270.95 L99.95 270.95 Z" stroke="rgb(0, 0, 0)" stroke-width="0" fill-rule="evenodd" stroke-linejoin="miter" fill="rgb(0, 0, 0)" shape-rendering="geometricPrecision" /><path d="M99.65 279.85 L99.65 279.85 L100.25 279.85 L100.2 280.15 L100.15 282.35 L99.55 282.35 Z" stroke="rgb(0, 0, 0)" stroke-width="0" fill-rule="evenodd" stroke-linejoin="miter" fill="rgb(0, 0, 0)" shape-rendering="geometricPrecision" /><path d="M99.35 285.55 L99.35 285.55 L99.95 285.55 L99.9 287.45 L99.85 288.05 L99.25 288.05 Z" stroke="rgb(0, 0, 0)" stroke-width="0" fill-rule="evenodd" stroke-linejoin="miter" fill="rgb(0, 0, 0)" shape-rendering="geometricPrecision" /><path d="M99.15 291.25 L99.15 291.25 L99.75 291.25 L99.7 292.25 L99.65 293.75 L99.05 293.75 Z" stroke="rgb(0, 0, 0)" stroke-width="0" fill-rule="evenodd" stroke-linejoin="miter" fill="rgb(0, 0, 0)" shape-rendering="geometricPrecision" /><path d="M98.95 296.95 L98.95 296.95 L99.35 297 L99.53 297.1 L99.5 297.15 L99.45 299.45 L98.85 299.45 Z" stroke="rgb(0, 0, 0)" stroke-width="0" fill-rule="evenodd" stroke-linejoin="miter" fill="rgb(0, 0, 0)" shape-rendering="geometricPrecision" /><path d="M98.65 302.65 L98.65 302.65 L98.95 302.7 L99.25 302.75 L99.2 304.35 L99.1 305.55 L99 306.15 L98.9 306.75 L98.8 307.35 L98.75 307.3 L98.7 307.25 L98.6 306.85 Z" stroke="rgb(0, 0, 0)" stroke-width="0" fill-rule="evenodd" stroke-linejoin="miter" fill="rgb(0, 0, 0)" shape-rendering="geometricPrecision" /></g></g><g id="Dash"><g id="Bond's parts"><path d="M88.15 263.6 L88.15 263.6 L88.25 263.6 L88.35 263.7 L88.4 263.75 L88.5 264.55 L88.5 264.95 L88.4 265.55 L88.3 266.15 L88.2 266.75 L88.15 267.25 L87.75 267.2 L87.55 267.15 L87.6 266.75 L87.7 266.05 L87.8 265.45 L87.9 264.85 L88 264.25 L88.1 263.65 Z" stroke="rgb(0, 0, 0)" stroke-width="0" fill-rule="evenodd" stroke-linejoin="miter" fill="rgb(0, 0, 0)" shape-rendering="geometricPrecision" /><path d="M87.1 269.85 L87.1 269.85 L87.12 269.9 L87.65 269.95 L87.6 270.35 L87.5 271.05 L87.4 271.65 L87.3 272.25 L87.25 272.45 L86.95 272.4 L86.68 272.3 L86.7 272.25 L86.8 271.55 L86.9 270.95 Z" stroke="rgb(0, 0, 0)" stroke-width="0" fill-rule="evenodd" stroke-linejoin="miter" fill="rgb(0, 0, 0)" shape-rendering="geometricPrecision" /><path d="M86.3 275.05 L86.3 275.05 L86.32 275.1 L86.82 275.2 L86.8 275.25 L86.7 275.85 L86.6 276.55 L86.5 277.15 L86.45 277.65 L86.15 277.6 L85.85 277.55 L85.9 277.05 L86 276.45 L86.1 275.85 Z" stroke="rgb(0, 0, 0)" stroke-width="0" fill-rule="evenodd" stroke-linejoin="miter" fill="rgb(0, 0, 0)" shape-rendering="geometricPrecision" /><path d="M85.35 280.25 L85.35 280.25 L85.55 280.3 L85.95 280.35 L85.9 280.75 L85.8 281.35 L85.7 281.95 L85.6 282.55 L85.55 282.85 L85.35 282.8 L84.95 282.75 L85 282.55 L85.1 281.95 L85.2 281.35 Z" stroke="rgb(0, 0, 0)" stroke-width="0" fill-rule="evenodd" stroke-linejoin="miter" fill="rgb(0, 0, 0)" shape-rendering="geometricPrecision" /><path d="M84.53 285.5 L84.53 285.5 L84.75 285.5 L85.12 285.6 L85.1 285.65 L85 286.25 L84.9 286.85 L84.8 287.45 L84.75 288.05 L84.55 288 L84.15 287.95 L84.2 287.35 L84.3 286.75 L84.4 286.15 L84.5 285.55 Z" stroke="rgb(0, 0, 0)" stroke-width="0" fill-rule="evenodd" stroke-linejoin="miter" fill="rgb(0, 0, 0)" shape-rendering="geometricPrecision" /><path d="M83.65 290.65 L83.65 290.65 L83.95 290.7 L84.25 290.75 L84.2 291.05 L84.1 291.65 L84 292.35 L83.9 292.95 L83.8 293.25 L83.78 293.2 L83.25 293.15 L83.3 292.85 L83.4 292.25 L83.5 291.65 Z" stroke="rgb(0, 0, 0)" stroke-width="0" fill-rule="evenodd" stroke-linejoin="miter" fill="rgb(0, 0, 0)" shape-rendering="geometricPrecision" /><path d="M82.82 295.9 L82.82 295.9 L83.15 295.9 L83.35 295.95 L83.3 296.55 L83.2 297.15 L83.1 297.75 L83.05 298.35 L82.45 298.35 L82.5 297.75 L82.6 297.15 L82.7 296.55 L82.8 295.95 Z" stroke="rgb(0, 0, 0)" stroke-width="0" fill-rule="evenodd" stroke-linejoin="miter" fill="rgb(0, 0, 0)" shape-rendering="geometricPrecision" /><path d="M81.95 301.05 L81.95 301.05 L82.47 301.1 L82.5 301.15 L82.5 301.45 L82.4 302.05 L82.3 302.65 L82.2 303.25 L82.15 303.55 L81.55 303.55 L81.6 303.15 L81.7 302.55 L81.8 301.95 Z" stroke="rgb(0, 0, 0)" stroke-width="0" fill-rule="evenodd" stroke-linejoin="miter" fill="rgb(0, 0, 0)" shape-rendering="geometricPrecision" /><path d="M81.05 306.25 L81.05 306.25 L81.65 306.25 L81.6 306.85 L81.5 307.55 L81.4 308.15 L81.35 308.75 L80.75 308.75 L80.8 308.05 L80.9 307.45 Z" stroke="rgb(0, 0, 0)" stroke-width="0" fill-rule="evenodd" stroke-linejoin="miter" fill="rgb(0, 0, 0)" shape-rendering="geometricPrecision" /><path d="M80.25 311.45 L80.25 311.45 L80.85 311.45 L80.8 311.75 L80.7 312.35 L80.6 312.95 L80.5 313.55 L80.45 313.95 L79.93 313.9 L79.9 313.85 L79.9 313.55 L80 312.95 L80.1 312.35 Z" stroke="rgb(0, 0, 0)" stroke-width="0" fill-rule="evenodd" stroke-linejoin="miter" fill="rgb(0, 0, 0)" shape-rendering="geometricPrecision" /><path d="M79.35 316.65 L79.35 316.65 L79.95 316.65 L79.9 317.25 L79.8 317.85 L79.7 318.45 L79.6 319.05 L79.57 319.1 L79.25 319.1 L79.05 319.05 L79.1 318.45 L79.2 317.85 Z" stroke="rgb(0, 0, 0)" stroke-width="0" fill-rule="evenodd" stroke-linejoin="miter" fill="rgb(0, 0, 0)" shape-rendering="geometricPrecision" /><path d="M78.6 321.75 L78.6 321.75 L78.62 321.8 L79.15 321.85 L79.1 322.15 L79 322.75 L78.9 323.35 L78.8 323.95 L78.7 324.55 L78.6 325.15 L78.5 325.35 L78.4 325.05 L78.3 324.75 L78.2 324.45 L78.2 323.85 L78.3 323.25 L78.4 322.65 Z" stroke="rgb(0, 0, 0)" stroke-width="0" fill-rule="evenodd" stroke-linejoin="miter" fill="rgb(0, 0, 0)" shape-rendering="geometricPrecision" /></g></g><g><text xml:space="preserve" text-anchor="start" text-rendering="geometricPrecision"><tspan x="123.09" y="255.15" font-family="Arial" font-size="10" fill="rgb(0, 0, 0)">O</tspan></text></g><g id="Solid"><line x1="114.95" y1="257.42" x2="121.6" y2="253.22" stroke="rgb(0, 0, 0)" stroke-width="0.6" shape-rendering="auto" /><path d="M116.26 259.11 L116.26 259.11 L116.53 259.65 L123.06 255.53 L122.74 255.02 Z" stroke="rgb(0, 0, 0)" stroke-width="0" fill-rule="evenodd" stroke-linejoin="miter" fill="rgb(0, 0, 0)" shape-rendering="geometricPrecision" /><path d="M113.66 257.89 L113.66 257.89 L114.58 258.01 L121.76 253.48 L121.44 252.97 Z" stroke="rgb(0, 0, 0)" stroke-width="0" fill-rule="evenodd" stroke-linejoin="miter" fill="rgb(0, 0, 0)" shape-rendering="geometricPrecision" /></g><g><text xml:space="preserve" text-anchor="start" text-rendering="geometricPrecision"><tspan x="131.56" y="273.88" font-family="Arial" font-size="10" fill="rgb(0, 0, 0)">O</tspan></text></g><g id="Solid"><line x1="120.93" y1="267.79" x2="130.58" y2="268.37" stroke="rgb(0, 0, 0)" stroke-width="0.6" shape-rendering="auto" /><path d="M119.9 270.06 L119.9 270.06 L119.04 270.61 L130.41 271.3 L130.44 270.7 Z" stroke="rgb(0, 0, 0)" stroke-width="0" fill-rule="evenodd" stroke-linejoin="miter" fill="rgb(0, 0, 0)" shape-rendering="geometricPrecision" /><path d="M120.37 267.45 L120.37 267.45 L120.68 268.07 L130.56 268.67 L130.6 268.07 Z" stroke="rgb(0, 0, 0)" stroke-width="0" fill-rule="evenodd" stroke-linejoin="miter" fill="rgb(0, 0, 0)" shape-rendering="geometricPrecision" /></g><g id="Solid"><path d="M108.18 277.31 L108.18 277.31 L108.38 277.05 L108.78 277.15 L114.59 287.28 L114.38 287.52 L113.99 287.45 Z" stroke="rgb(0, 0, 0)" stroke-width="0" fill-rule="evenodd" stroke-linejoin="miter" fill="rgb(0, 0, 0)" shape-rendering="geometricPrecision" /></g><g id="Solid"><path d="M114.43 287.86 L114.43 287.86 L114.38 287.52 L114.59 287.28 L127.93 292.4 L127.82 292.68 L127.71 292.96 Z" stroke="rgb(0, 0, 0)" stroke-width="0" fill-rule="evenodd" stroke-linejoin="miter" fill="rgb(0, 0, 0)" shape-rendering="geometricPrecision" /></g><g id="Solid"><path d="M113.99 287.45 L113.99 287.45 L114.38 287.52 L114.43 287.86 L103.38 296.81 L103.19 296.58 L103 296.35 Z" stroke="rgb(0, 0, 0)" stroke-width="0" fill-rule="evenodd" stroke-linejoin="miter" fill="rgb(0, 0, 0)" shape-rendering="geometricPrecision" /></g><g id="Charge782"><line x1="160.13" y1="241.95" x2="160.13" y2="254.55" stroke="rgb(0, 0, 0)" stroke-width="0.48" shape-rendering="auto" /><line x1="156.83" y1="245.25" x2="163.43" y2="245.25" stroke="rgb(0, 0, 0)" stroke-width="0.48" shape-rendering="auto" /><line x1="156.83" y1="251.25" x2="163.43" y2="251.25" stroke="rgb(0, 0, 0)" stroke-width="0.48" shape-rendering="auto" /></g><g id="Bracket"><path d="M145.83 242.25 L151.88 242.25 L151.88 326.25 L145.83 326.25 " stroke="rgb(0, 0, 0)" stroke-width="0.6" fill-rule="evenodd" stroke-linejoin="miter" fill="none" shape-rendering="geometricPrecision" /></g><g id="Bracket"><path d="M55.18 326.25 L49.13 326.25 L49.13 242.25 L55.18 242.25 " stroke="rgb(0, 0, 0)" stroke-width="0.6" fill-rule="evenodd" stroke-linejoin="miter" fill="none" shape-rendering="geometricPrecision" /></g><g id="Solid"><path d="M91.93 273.1 L91.93 273.1 L92.15 272.85 L92.37 272.6 L108.33 276.73 L108.38 277.05 L108.18 277.31 Z" stroke="rgb(0, 0, 0)" stroke-width="0" fill-rule="evenodd" stroke-linejoin="miter" fill="rgb(0, 0, 0)" shape-rendering="geometricPrecision" /><line x1="94.37" y1="270.31" x2="107.86" y2="273.8" stroke="rgb(0, 0, 0)" stroke-width="0.6" shape-rendering="auto" /></g></g></g></svg>