<?xml version="1.0"?><svg xmlns="http://www.w3.org/2000/svg" xmlns:xlink="http://www.w3.org/1999/xlink" viewBox="48.53 241.05 115.38 85.8" preserveAspectRatio="xMidYMid" width="100%" height="100%"><clipPath id="786"><rect x="0.3" y="0.3" width="522.6" height="769.08" /></clipPath><g id="drawing"><rect x="48.53" y="241.05" width="100%" height="100%" fill="rgb(255, 255, 255)" /><g id="page" clip-path="url(#786)"><g id="Bold"><g id="Bond's parts"><path d="M84.15 303.25 L84.15 303.25 L94.95 303.25 L94.95 303.85 L84.05 303.85 Z" stroke="rgb(0, 0, 0)" stroke-width="0" fill-rule="evenodd" stroke-linejoin="miter" fill="rgb(0, 0, 0)" shape-rendering="geometricPrecision" /><path d="M83.55 306.45 L83.55 306.45 L98.55 306.45 L98.6 306.85 L98.7 307.25 L98.8 307.55 L98.85 307.6 L98.93 307.7 L99.18 307.8 L99.25 307.9 L99.35 308 L99.45 308.1 L99.55 308.2 L99.65 308.3 L99.72 308.4 L83.25 308.45 L83.3 308.25 L83.4 307.65 Z" stroke="rgb(0, 0, 0)" stroke-width="0" fill-rule="evenodd" stroke-linejoin="miter" fill="rgb(0, 0, 0)" shape-rendering="geometricPrecision" /></g></g><g id="Solid"><g id="Bond's parts"><path d="M78.88 308.2 L78.88 308.2 L78.9 308.15 L78.9 308.35 L78.85 308.95 L78.65 309 L78.45 309.1 L78.22 309.2 L78.18 309.3 L77.95 309.4 L77.75 309.5 L77.53 309.6 L77.47 309.7 L77.25 309.8 L77.05 309.9 L76.82 310 L76.78 310.1 L76.55 310.2 L76.32 310.3 L76.28 310.4 L76.05 310.5 L75.85 310.6 L75.62 310.7 L75.57 310.8 L75.35 310.9 L75.15 311 L74.93 311.1 L74.88 311.2 L74.65 311.3 L74.45 311.4 L74.22 311.5 L74.18 311.6 L73.95 311.7 L73.72 311.8 L73.68 311.9 L73.45 312 L73.25 312.1 L73.03 312.2 L72.97 312.3 L72.75 312.4 L72.55 312.5 L72.32 312.6 L72.28 312.7 L72.05 312.8 L71.85 312.9 L71.62 313 L71.57 313.1 L71.35 313.2 L71.12 313.3 L71.07 313.4 L70.85 313.5 L70.65 313.6 L70.43 313.7 L70.38 313.8 L70.15 313.9 L69.95 314 L69.72 314.1 L69.68 314.2 L69.45 314.3 L69.25 314.4 L69.03 314.5 L68.97 314.6 L68.75 314.7 L68.15 314.7 L67.75 314.6 L67.97 314.5 L68.03 314.4 L68.25 314.3 L68.47 314.2 L68.53 314.1 L68.75 314 L68.95 313.9 L69.18 313.8 L69.22 313.7 L69.45 313.6 L69.65 313.5 L69.88 313.4 L69.93 313.3 L70.15 313.2 L70.38 313.1 L70.43 313 L70.65 312.9 L70.85 312.8 L71.07 312.7 L71.12 312.6 L71.35 312.5 L71.55 312.4 L71.78 312.3 L71.82 312.2 L72.05 312.1 L72.25 312 L72.47 311.9 L72.53 311.8 L72.75 311.7 L72.97 311.6 L73.03 311.5 L73.25 311.4 L73.45 311.3 L73.68 311.2 L73.72 311.1 L73.95 311 L74.15 310.9 L74.38 310.8 L74.43 310.7 L74.65 310.6 L74.85 310.5 L75.07 310.4 L75.12 310.3 L75.35 310.2 L75.57 310.1 L75.62 310 L75.85 309.9 L76.05 309.8 L76.28 309.7 L76.32 309.6 L76.55 309.5 L76.75 309.4 L76.97 309.3 L77.03 309.2 L77.25 309.1 L77.45 309 L77.68 308.9 L77.72 308.8 L77.95 308.7 L78.18 308.6 L78.22 308.5 L78.45 308.4 L78.65 308.3 Z" stroke="rgb(0, 0, 0)" stroke-width="0" fill-rule="evenodd" stroke-linejoin="miter" fill="rgb(0, 0, 0)" shape-rendering="geometricPrecision" /></g></g><g id="Solid"><path d="M67.66 314.64 L67.66 314.64 L68.15 314.7 L68.64 314.76 L78.14 324.25 L78.34 324.88 L78.54 325.51 Z" stroke="rgb(0, 0, 0)" stroke-width="0" fill-rule="evenodd" stroke-linejoin="miter" fill="rgb(0, 0, 0)" shape-rendering="geometricPrecision" /><line x1="72.37" y1="315.26" x2="76.6" y2="319.48" stroke="rgb(0, 0, 0)" stroke-width="0.6" shape-rendering="auto" /></g><g id="WedgeEnd"><g id="Bond's parts"><path d="M70.45 297.35 L70.45 297.35 L70.95 297.4 L71.18 297.5 L71.25 297.6 L71.35 297.7 L71.45 297.8 L71.53 297.9 L71.78 298 L71.85 298.1 L71.95 298.2 L72.05 298.3 L72.15 298.4 L72.22 298.5 L72.47 298.6 L72.55 298.7 L72.65 298.8 L72.75 298.9 L72.82 299 L73.07 299.1 L73.15 299.2 L73.25 299.3 L73.35 299.4 L73.45 299.5 L73.53 299.6 L73.78 299.7 L73.85 299.8 L73.95 299.9 L74.05 300 L74.12 300.1 L74.38 300.2 L74.45 300.3 L74.55 300.4 L74.65 300.5 L74.75 300.6 L74.82 300.7 L75.07 300.8 L75.15 300.9 L75.25 301 L75.35 301.1 L75.43 301.2 L75.68 301.3 L75.75 301.4 L75.85 301.5 L75.95 301.6 L76.03 301.7 L76.28 301.8 L76.35 301.9 L76.45 302 L76.55 302.1 L76.65 302.2 L76.72 302.3 L76.97 302.4 L77.05 302.5 L77.15 302.6 L77.25 302.7 L77.32 302.8 L77.57 302.9 L77.65 303 L77.75 303.1 L77.85 303.2 L77.95 303.3 L78.03 303.4 L78.28 303.5 L78.35 303.6 L78.45 303.7 L78.55 303.8 L78.62 303.9 L78.88 304 L78.95 304.1 L79.05 304.2 L79.15 304.3 L79.25 304.4 L79.32 304.5 L79.53 304.6 L79.5 304.65 L79.4 305.25 L79.3 305.85 L79.2 306.45 L79.1 307.05 L79 307.65 L78.95 307.7 L78.85 307.7 L78.75 307.6 L78.65 307.5 L78.6 307.45 L78.5 307.25 L78.45 307.2 L78.35 307.1 L78.25 307 L78.15 306.9 L78.05 306.8 L78 306.75 L77.9 306.55 L77.85 306.5 L77.75 306.4 L77.65 306.3 L77.55 306.2 L77.5 306.15 L77.4 305.95 L77.35 305.9 L77.25 305.8 L77.15 305.7 L77.05 305.6 L76.95 305.5 L76.9 305.45 L76.8 305.25 L76.75 305.2 L76.65 305.1 L76.55 305 L76.45 304.9 L76.4 304.85 L76.3 304.65 L76.25 304.6 L76.15 304.5 L76.05 304.4 L75.95 304.3 L75.85 304.2 L75.8 304.15 L75.7 303.95 L75.65 303.9 L75.55 303.8 L75.45 303.7 L75.35 303.6 L75.25 303.5 L75.2 303.45 L75.1 303.25 L75.05 303.2 L74.95 303.1 L74.85 303 L74.75 302.9 L74.7 302.85 L74.6 302.65 L74.55 302.6 L74.45 302.5 L74.35 302.4 L74.25 302.3 L74.15 302.2 L74.1 302.15 L74 301.95 L73.95 301.9 L73.85 301.8 L73.75 301.7 L73.65 301.6 L73.6 301.55 L73.5 301.35 L73.45 301.3 L73.35 301.2 L73.25 301.1 L73.15 301 L73.05 300.9 L73 300.85 L72.9 300.65 L72.85 300.6 L72.75 300.5 L72.65 300.4 L72.55 300.3 L72.5 300.25 L72.4 300.05 L72.35 300 L72.25 299.9 L72.15 299.8 L72.05 299.7 L71.95 299.6 L71.9 299.55 L71.8 299.35 L71.75 299.3 L71.65 299.2 L71.55 299.1 L71.45 299 L71.4 298.95 L71.3 298.75 L71.25 298.7 L71.15 298.6 L71.05 298.5 L70.95 298.4 L70.85 298.3 L70.8 298.25 L70.7 298.05 L70.65 298 L70.55 297.9 L70.45 297.8 L70.4 297.75 Z" stroke="rgb(0, 0, 0)" stroke-width="0" fill-rule="evenodd" stroke-linejoin="miter" fill="rgb(0, 0, 0)" shape-rendering="geometricPrecision" /></g></g><g id="WedgeEnd"><g id="Bond's parts"><path d="M109.6 297 L109.6 297 L109.35 297.1 L109.53 297.1 L109.45 297.2 L109.35 297.3 L109.25 297.4 L109.2 297.45 L109.1 297.65 L109.05 297.7 L108.95 297.8 L108.85 297.9 L108.75 298 L108.7 298.05 L108.6 298.25 L108.55 298.3 L108.45 298.4 L108.35 298.5 L108.25 298.6 L108.15 298.7 L108.1 298.75 L108 298.95 L107.95 299 L107.85 299.1 L107.75 299.2 L107.65 299.3 L107.6 299.35 L107.5 299.55 L107.45 299.6 L107.35 299.7 L107.25 299.8 L107.15 299.9 L107.05 300 L107 300.05 L106.9 300.25 L106.85 300.3 L106.75 300.4 L106.65 300.5 L106.55 300.6 L106.5 300.65 L106.4 300.85 L106.35 300.9 L106.25 301 L106.15 301.1 L106.05 301.2 L105.95 301.3 L105.9 301.35 L105.8 301.55 L105.75 301.6 L105.65 301.7 L105.55 301.8 L105.45 301.9 L105.35 302 L105.3 302.05 L105.2 302.25 L105.15 302.3 L105.05 302.4 L104.95 302.5 L104.85 302.6 L104.8 302.65 L104.7 302.85 L104.65 302.9 L104.55 303 L104.45 303.1 L104.35 303.2 L104.25 303.3 L104.2 303.35 L104.1 303.55 L104.05 303.6 L103.95 303.7 L103.85 303.8 L103.75 303.9 L103.7 303.95 L103.6 304.15 L103.55 304.2 L103.45 304.3 L103.35 304.4 L103.25 304.5 L103.15 304.6 L103.1 304.65 L103 304.85 L102.95 304.9 L102.85 305 L102.75 305.1 L102.65 305.2 L102.6 305.25 L102.5 305.45 L102.45 305.5 L102.35 305.6 L102.25 305.7 L102.15 305.8 L102.05 305.9 L102 305.95 L101.9 306.15 L101.85 306.2 L101.75 306.3 L101.65 306.4 L101.55 306.5 L101.5 306.55 L101.4 306.75 L101.35 306.8 L101.25 306.9 L101.15 307 L101.05 307.1 L100.95 307.2 L100.9 307.25 L100.8 307.45 L100.75 307.5 L100.65 307.6 L100.55 307.7 L100.45 307.8 L100.4 307.85 L100.3 308.05 L100.25 308.1 L100.15 308.2 L100.05 308.3 L99.97 308.4 L99.72 308.4 L99.65 308.3 L99.55 308.2 L99.45 308.1 L99.35 308 L99.25 307.9 L99.18 307.8 L98.93 307.7 L98.85 307.6 L98.8 307.55 L98.8 307.35 L98.9 306.75 L99 306.15 L99.1 305.55 L99.2 305.15 L99.22 305.1 L99.47 305 L99.55 304.9 L99.65 304.8 L99.75 304.7 L99.85 304.6 L99.93 304.5 L100.18 304.4 L100.25 304.3 L100.35 304.2 L100.45 304.1 L100.53 304 L100.78 303.9 L100.85 303.8 L100.95 303.7 L101.05 303.6 L101.12 303.5 L101.38 303.4 L101.45 303.3 L101.55 303.2 L101.65 303.1 L101.75 303 L101.82 302.9 L102.07 302.8 L102.15 302.7 L102.25 302.6 L102.35 302.5 L102.43 302.4 L102.68 302.3 L102.75 302.2 L102.85 302.1 L102.95 302 L103.05 301.9 L103.12 301.8 L103.38 301.7 L103.45 301.6 L103.55 301.5 L103.65 301.4 L103.72 301.3 L103.97 301.2 L104.05 301.1 L104.15 301 L104.25 300.9 L104.35 300.8 L104.43 300.7 L104.68 300.6 L104.75 300.5 L104.85 300.4 L104.95 300.3 L105.03 300.2 L105.28 300.1 L105.35 300 L105.45 299.9 L105.55 299.8 L105.62 299.7 L105.88 299.6 L105.95 299.5 L106.05 299.4 L106.15 299.3 L106.25 299.2 L106.32 299.1 L106.57 299 L106.65 298.9 L106.75 298.8 L106.85 298.7 L106.93 298.6 L107.18 298.5 L107.25 298.4 L107.35 298.3 L107.45 298.2 L107.55 298.1 L107.62 298 L107.88 297.9 L107.95 297.8 L108.03 297.7 L108.35 297.6 L108.55 297.5 L108.75 297.4 L108.95 297.3 L109.15 297.2 Z" stroke="rgb(0, 0, 0)" stroke-width="0" fill-rule="evenodd" stroke-linejoin="miter" fill="rgb(0, 0, 0)" shape-rendering="geometricPrecision" /></g></g><g id="Solid"><g id="Bond's parts"><path d="M81.35 292.3 L81.35 292.3 L81.53 292.3 L81.5 292.35 L81.45 292.95 L81.25 293 L80.95 293.1 L80.75 293.2 L80.55 293.3 L80.35 293.4 L80.05 293.5 L79.85 293.6 L79.65 293.7 L79.35 293.8 L79.15 293.9 L78.95 294 L78.65 294.1 L78.45 294.2 L78.25 294.3 L77.95 294.4 L77.75 294.5 L77.55 294.6 L77.25 294.7 L77.05 294.8 L76.85 294.9 L76.55 295 L76.35 295.1 L76.15 295.2 L75.85 295.3 L75.65 295.4 L75.45 295.5 L75.15 295.6 L74.95 295.7 L74.75 295.8 L74.45 295.9 L74.25 296 L74.05 296.1 L73.85 296.2 L73.55 296.3 L73.35 296.4 L73.15 296.5 L72.85 296.6 L72.65 296.7 L72.45 296.8 L72.15 296.9 L71.95 297 L71.75 297.1 L71.45 297.2 L71.25 297.3 L71.03 297.4 L70.97 297.4 L70.45 297.35 L70.5 297.15 L70.6 296.95 L70.62 296.9 L70.85 296.8 L71.15 296.7 L71.35 296.6 L71.55 296.5 L71.85 296.4 L72.05 296.3 L72.25 296.2 L72.55 296.1 L72.75 296 L72.95 295.9 L73.25 295.8 L73.45 295.7 L73.65 295.6 L73.95 295.5 L74.15 295.4 L74.35 295.3 L74.65 295.2 L74.85 295.1 L75.05 295 L75.25 294.9 L75.55 294.8 L75.75 294.7 L75.95 294.6 L76.25 294.5 L76.45 294.4 L76.65 294.3 L76.95 294.2 L77.15 294.1 L77.35 294 L77.65 293.9 L77.85 293.8 L78.05 293.7 L78.35 293.6 L78.55 293.5 L78.75 293.4 L79.05 293.3 L79.25 293.2 L79.45 293.1 L79.75 293 L79.95 292.9 L80.15 292.8 L80.45 292.7 L80.65 292.6 L80.85 292.5 L81.15 292.4 Z" stroke="rgb(0, 0, 0)" stroke-width="0" fill-rule="evenodd" stroke-linejoin="miter" fill="rgb(0, 0, 0)" shape-rendering="geometricPrecision" /></g></g><g id="Solid"><g id="Bond's parts"><path d="M85.75 292.85 L85.75 292.85 L85.97 292.9 L86.03 293 L86.28 293.1 L86.32 293.2 L86.57 293.3 L86.65 293.4 L86.72 293.5 L86.97 293.6 L87.03 293.7 L87.28 293.8 L87.35 293.9 L87.43 294 L87.68 294.1 L87.72 294.2 L87.97 294.3 L88.03 294.4 L88.28 294.5 L88.35 294.6 L88.43 294.7 L88.68 294.8 L88.72 294.9 L88.97 295 L89.03 295.1 L89.28 295.2 L89.35 295.3 L89.43 295.4 L89.68 295.5 L89.72 295.6 L89.97 295.7 L90.05 295.8 L90.12 295.9 L90.38 296 L90.43 296.1 L90.68 296.2 L90.72 296.3 L90.97 296.4 L91.05 296.5 L91.12 296.6 L91.38 296.7 L91.43 296.8 L91.68 296.9 L91.72 297 L91.97 297.1 L92.05 297.2 L92.12 297.3 L92.38 297.4 L92.43 297.5 L92.68 297.6 L92.75 297.7 L92.82 297.8 L93.07 297.9 L93.12 298 L93.38 298.1 L93.43 298.2 L93.68 298.3 L93.75 298.4 L93.82 298.5 L94.07 298.6 L94.12 298.7 L94.35 298.75 L94.3 299.05 L94.2 299.45 L94.18 299.4 L93.93 299.3 L93.88 299.2 L93.62 299.1 L93.55 299 L93.47 298.9 L93.22 298.8 L93.18 298.7 L92.93 298.6 L92.85 298.5 L92.78 298.4 L92.53 298.3 L92.47 298.2 L92.22 298.1 L92.18 298 L91.93 297.9 L91.85 297.8 L91.78 297.7 L91.53 297.6 L91.47 297.5 L91.22 297.4 L91.15 297.3 L91.07 297.2 L90.82 297.1 L90.78 297 L90.53 296.9 L90.47 296.8 L90.22 296.7 L90.15 296.6 L90.07 296.5 L89.82 296.4 L89.78 296.3 L89.53 296.2 L89.47 296.1 L89.22 296 L89.15 295.9 L89.07 295.8 L88.82 295.7 L88.78 295.6 L88.53 295.5 L88.45 295.4 L88.38 295.3 L88.12 295.2 L88.07 295.1 L87.82 295 L87.78 294.9 L87.53 294.8 L87.45 294.7 L87.38 294.6 L87.12 294.5 L87.07 294.4 L86.82 294.3 L86.75 294.2 L86.68 294.1 L86.43 294 L86.38 293.9 L86.12 293.8 L86.07 293.7 L85.82 293.6 Z" stroke="rgb(0, 0, 0)" stroke-width="0" fill-rule="evenodd" stroke-linejoin="miter" fill="rgb(0, 0, 0)" shape-rendering="geometricPrecision" /></g></g><g id="Solid"><g id="Bond's parts"><path d="M109.05 297 L109.05 297 L109.55 297 L109.35 297.1 L109.15 297.2 L108.95 297.3 L108.75 297.4 L108.55 297.5 L108.35 297.6 L108.05 297.7 L107.55 297.8 L106.75 297.9 L105.95 298 L105.15 298.1 L104.38 298.1 L104.45 298 L104.53 297.9 L104.78 297.8 L104.85 297.7 L104.95 297.6 L105.03 297.5 L105.85 297.4 L106.65 297.3 L107.45 297.2 L108.25 297.1 Z" stroke="rgb(0, 0, 0)" stroke-width="0" fill-rule="evenodd" stroke-linejoin="miter" fill="rgb(0, 0, 0)" shape-rendering="geometricPrecision" /><path d="M101.85 297.9 L101.85 297.9 L102.18 297.9 L102.25 298 L102.35 298.1 L102.45 298.2 L102.55 298.3 L102.62 298.4 L101.85 298.5 L101.35 298.55 L101.35 297.95 Z" stroke="rgb(0, 0, 0)" stroke-width="0" fill-rule="evenodd" stroke-linejoin="miter" fill="rgb(0, 0, 0)" shape-rendering="geometricPrecision" /><path d="M104.3 298.2 L104.3 298.2 L96.95 298.5 L97.55 298.45 L97.55 299.05 L97.05 299.1 L96.25 299.2 L95.45 299.3 L94.55 299.4 L94.25 299.45 L94.3 299.05 L94.35 298.85 L94.55 298.8 L95.35 298.7 L96.15 298.6 Z" stroke="rgb(0, 0, 0)" stroke-width="0" fill-rule="evenodd" stroke-linejoin="miter" fill="rgb(0, 0, 0)" shape-rendering="geometricPrecision" /></g></g><g id="Solid"><path d="M70.09 297.18 L70.09 297.18 L70.44 297.32 L70.37 297.7 L58.12 304.78 L57.97 304.52 L57.82 304.26 Z" stroke="rgb(0, 0, 0)" stroke-width="0" fill-rule="evenodd" stroke-linejoin="miter" fill="rgb(0, 0, 0)" shape-rendering="geometricPrecision" /></g><g id="Solid"><path d="M70.64 296.91 L70.64 296.91 L70.44 297.32 L70.09 297.18 L66.43 283.49 L66.72 283.41 L67.01 283.33 Z" stroke="rgb(0, 0, 0)" stroke-width="0" fill-rule="evenodd" stroke-linejoin="miter" fill="rgb(0, 0, 0)" shape-rendering="geometricPrecision" /></g><g id="Solid"><path d="M100.82 256.19 L100.82 256.19 L100.88 256.5 L100.56 257.03 L88.78 263.83 L88.4 263.7 L88.13 263.51 Z" stroke="rgb(0, 0, 0)" stroke-width="0" fill-rule="evenodd" stroke-linejoin="miter" fill="rgb(0, 0, 0)" shape-rendering="geometricPrecision" /><line x1="98.09" y1="261.1" x2="91.66" y2="264.81" stroke="rgb(0, 0, 0)" stroke-width="0.6" shape-rendering="auto" /></g><g id="Solid"><path d="M88.52 264.79 L88.52 264.79 L88.4 263.7 L88.78 263.83 L92.37 272.6 L92.15 272.85 L91.93 273.1 Z" stroke="rgb(0, 0, 0)" stroke-width="0" fill-rule="evenodd" stroke-linejoin="miter" fill="rgb(0, 0, 0)" shape-rendering="geometricPrecision" /></g><g id="Solid"><g id="Bond's parts"><path d="M94.43 270.1 L94.43 270.1 L94.75 270.1 L95.15 270.2 L95.55 270.3 L95.95 270.4 L96.35 270.5 L96.65 270.6 L97.05 270.7 L97.45 270.8 L97.85 270.9 L98.25 271 L98.65 271.05 L98.6 271.75 L98.57 271.7 L98.15 271.6 L97.75 271.5 L97.35 271.4 L97.05 271.3 L96.65 271.2 L96.25 271.1 L95.85 271 L95.45 270.9 L95.05 270.8 L94.65 270.7 L94.28 270.6 L94.3 270.55 L94.4 270.15 Z" stroke="rgb(0, 0, 0)" stroke-width="0" fill-rule="evenodd" stroke-linejoin="miter" fill="rgb(0, 0, 0)" shape-rendering="geometricPrecision" /><path d="M102.45 272.15 L102.45 272.15 L102.85 272.2 L103.25 272.3 L103.65 272.4 L104.05 272.5 L104.45 272.6 L104.85 272.7 L105.25 272.8 L105.55 272.9 L105.95 273 L106.35 273.1 L106.75 273.2 L107.15 273.3 L107.55 273.4 L107.95 273.45 L107.9 273.65 L107.85 274.05 L107.45 274 L107.05 273.9 L106.65 273.8 L106.25 273.7 L105.95 273.6 L105.55 273.5 L105.15 273.4 L104.75 273.3 L104.35 273.2 L103.95 273.1 L103.55 273 L103.15 272.9 L102.85 272.8 Z" stroke="rgb(0, 0, 0)" stroke-width="0" fill-rule="evenodd" stroke-linejoin="miter" fill="rgb(0, 0, 0)" shape-rendering="geometricPrecision" /><path d="M92.22 272.7 L92.22 272.7 L92.75 272.7 L93.15 272.8 L93.55 272.9 L93.95 273 L94.35 273.1 L94.65 273.2 L95.05 273.3 L95.45 273.4 L95.85 273.5 L96.25 273.6 L96.65 273.7 L97.05 273.8 L97.35 273.9 L97.75 274 L98.15 274.1 L98.55 274.15 L98.5 274.85 L98.47 274.8 L98.15 274.7 L97.75 274.6 L97.35 274.5 L96.95 274.4 L96.55 274.3 L96.15 274.2 L95.75 274.1 L95.45 274 L95.05 273.9 L94.65 273.8 L94.25 273.7 L93.85 273.6 L93.45 273.5 L93.05 273.4 L92.75 273.3 L92.35 273.2 L91.97 273.1 L92.05 273 L92.1 272.95 L92.2 272.75 Z" stroke="rgb(0, 0, 0)" stroke-width="0" fill-rule="evenodd" stroke-linejoin="miter" fill="rgb(0, 0, 0)" shape-rendering="geometricPrecision" /><path d="M102.35 275.2 L102.35 275.2 L102.43 275.2 L102.85 275.3 L103.25 275.4 L103.55 275.5 L103.95 275.6 L104.35 275.7 L104.75 275.8 L105.15 275.9 L105.55 276 L105.95 276.1 L106.25 276.2 L106.65 276.3 L107.05 276.4 L107.45 276.5 L107.85 276.6 L108.28 276.7 L108.3 276.75 L108.3 277.15 L108.28 277.2 L107.75 277.2 L107.35 277.1 L106.95 277 L106.65 276.9 L106.25 276.8 L105.85 276.7 L105.45 276.6 L105.05 276.5 L104.65 276.4 L104.25 276.3 L103.95 276.2 L103.55 276.1 L103.15 276 L102.75 275.9 L102.32 275.8 L102.3 275.75 L102.3 275.25 Z" stroke="rgb(0, 0, 0)" stroke-width="0" fill-rule="evenodd" stroke-linejoin="miter" fill="rgb(0, 0, 0)" shape-rendering="geometricPrecision" /></g></g><g id="Solid"><path d="M108.78 277.15 L108.78 277.15 L108.38 277.05 L108.33 276.73 L120.46 268.99 L120.85 269.1 L121.24 269.21 Z" stroke="rgb(0, 0, 0)" stroke-width="0" fill-rule="evenodd" stroke-linejoin="miter" fill="rgb(0, 0, 0)" shape-rendering="geometricPrecision" /></g><g id="Solid"><path d="M121.24 269.21 L121.24 269.21 L120.85 269.1 L120.46 268.99 L115.4 258.73 L115.6 258.45 L115.8 258.17 Z" stroke="rgb(0, 0, 0)" stroke-width="0" fill-rule="evenodd" stroke-linejoin="miter" fill="rgb(0, 0, 0)" shape-rendering="geometricPrecision" /></g><g id="Solid"><path d="M115.8 258.17 L115.8 258.17 L115.6 258.45 L115.4 258.73 L101.17 256.84 L100.88 256.5 L100.82 256.19 Z" stroke="rgb(0, 0, 0)" stroke-width="0" fill-rule="evenodd" stroke-linejoin="miter" fill="rgb(0, 0, 0)" shape-rendering="geometricPrecision" /></g><g id="Dash"><path d="M99.27 302.71 L99.27 302.71 L98.67 302.69 L98.51 306.5 L98.77 307.5 L99.17 305.21 Z" stroke="rgb(0, 0, 0)" stroke-width="0" fill-rule="evenodd" stroke-linejoin="miter" fill="rgb(0, 0, 0)" shape-rendering="geometricPrecision" /><path d="M101.05 259.55 L101.05 259.55 L100.45 259.53 L100.56 257.03 L100.88 256.5 L101.17 256.84 Z" stroke="rgb(0, 0, 0)" stroke-width="0" fill-rule="evenodd" stroke-linejoin="miter" fill="rgb(0, 0, 0)" shape-rendering="geometricPrecision" /><path d="M99.4 299.5 L99.4 299.5 L99.5 297 L98.91 296.98 L98.8 299.48 Z" stroke="rgb(0, 0, 0)" stroke-width="0" fill-rule="evenodd" stroke-linejoin="miter" fill="rgb(0, 0, 0)" shape-rendering="geometricPrecision" /><path d="M99.64 293.8 L99.64 293.8 L99.74 291.3 L99.14 291.27 L99.04 293.77 Z" stroke="rgb(0, 0, 0)" stroke-width="0" fill-rule="evenodd" stroke-linejoin="miter" fill="rgb(0, 0, 0)" shape-rendering="geometricPrecision" /><path d="M99.87 288.09 L99.87 288.09 L99.98 285.59 L99.38 285.57 L99.27 288.06 Z" stroke="rgb(0, 0, 0)" stroke-width="0" fill-rule="evenodd" stroke-linejoin="miter" fill="rgb(0, 0, 0)" shape-rendering="geometricPrecision" /><path d="M100.11 282.38 L100.11 282.38 L100.21 279.88 L99.61 279.86 L99.51 282.36 Z" stroke="rgb(0, 0, 0)" stroke-width="0" fill-rule="evenodd" stroke-linejoin="miter" fill="rgb(0, 0, 0)" shape-rendering="geometricPrecision" /><path d="M100.35 276.68 L100.35 276.68 L100.45 274.18 L99.85 274.15 L99.75 276.65 Z" stroke="rgb(0, 0, 0)" stroke-width="0" fill-rule="evenodd" stroke-linejoin="miter" fill="rgb(0, 0, 0)" shape-rendering="geometricPrecision" /><path d="M100.58 270.97 L100.58 270.97 L100.69 268.47 L100.09 268.45 L99.98 270.94 Z" stroke="rgb(0, 0, 0)" stroke-width="0" fill-rule="evenodd" stroke-linejoin="miter" fill="rgb(0, 0, 0)" shape-rendering="geometricPrecision" /><path d="M100.82 265.26 L100.82 265.26 L100.92 262.76 L100.32 262.74 L100.22 265.24 Z" stroke="rgb(0, 0, 0)" stroke-width="0" fill-rule="evenodd" stroke-linejoin="miter" fill="rgb(0, 0, 0)" shape-rendering="geometricPrecision" /></g><g id="Dash"><path d="M79.14 321.89 L79.14 321.89 L78.54 321.79 L78.14 324.25 L78.34 324.88 L78.54 325.51 Z" stroke="rgb(0, 0, 0)" stroke-width="0" fill-rule="evenodd" stroke-linejoin="miter" fill="rgb(0, 0, 0)" shape-rendering="geometricPrecision" /><path d="M88.12 267.26 L88.12 267.26 L87.53 267.16 L88.13 263.51 L88.4 263.7 L88.52 264.79 Z" stroke="rgb(0, 0, 0)" stroke-width="0" fill-rule="evenodd" stroke-linejoin="miter" fill="rgb(0, 0, 0)" shape-rendering="geometricPrecision" /><path d="M79.58 319.16 L79.58 319.16 L79.99 316.7 L79.4 316.6 L78.99 319.06 Z" stroke="rgb(0, 0, 0)" stroke-width="0" fill-rule="evenodd" stroke-linejoin="miter" fill="rgb(0, 0, 0)" shape-rendering="geometricPrecision" /><path d="M80.44 313.97 L80.44 313.97 L80.84 311.51 L80.25 311.41 L79.85 313.87 Z" stroke="rgb(0, 0, 0)" stroke-width="0" fill-rule="evenodd" stroke-linejoin="miter" fill="rgb(0, 0, 0)" shape-rendering="geometricPrecision" /><path d="M81.29 308.78 L81.29 308.78 L81.7 306.32 L81.1 306.22 L80.7 308.68 Z" stroke="rgb(0, 0, 0)" stroke-width="0" fill-rule="evenodd" stroke-linejoin="miter" fill="rgb(0, 0, 0)" shape-rendering="geometricPrecision" /><path d="M82.14 303.59 L82.14 303.59 L82.55 301.12 L81.96 301.03 L81.55 303.49 Z" stroke="rgb(0, 0, 0)" stroke-width="0" fill-rule="evenodd" stroke-linejoin="miter" fill="rgb(0, 0, 0)" shape-rendering="geometricPrecision" /><path d="M83 298.4 L83 298.4 L83.4 295.93 L82.81 295.84 L82.41 298.3 Z" stroke="rgb(0, 0, 0)" stroke-width="0" fill-rule="evenodd" stroke-linejoin="miter" fill="rgb(0, 0, 0)" shape-rendering="geometricPrecision" /><path d="M83.85 293.21 L83.85 293.21 L84.26 290.74 L83.66 290.65 L83.26 293.11 Z" stroke="rgb(0, 0, 0)" stroke-width="0" fill-rule="evenodd" stroke-linejoin="miter" fill="rgb(0, 0, 0)" shape-rendering="geometricPrecision" /><path d="M84.7 288.02 L84.7 288.02 L85.11 285.55 L84.52 285.46 L84.11 287.92 Z" stroke="rgb(0, 0, 0)" stroke-width="0" fill-rule="evenodd" stroke-linejoin="miter" fill="rgb(0, 0, 0)" shape-rendering="geometricPrecision" /><path d="M85.56 282.83 L85.56 282.83 L85.96 280.36 L85.37 280.27 L84.97 282.73 Z" stroke="rgb(0, 0, 0)" stroke-width="0" fill-rule="evenodd" stroke-linejoin="miter" fill="rgb(0, 0, 0)" shape-rendering="geometricPrecision" /><path d="M86.41 277.64 L86.41 277.64 L86.82 275.17 L86.23 275.08 L85.82 277.54 Z" stroke="rgb(0, 0, 0)" stroke-width="0" fill-rule="evenodd" stroke-linejoin="miter" fill="rgb(0, 0, 0)" shape-rendering="geometricPrecision" /><path d="M87.27 272.45 L87.27 272.45 L87.67 269.98 L87.08 269.89 L86.67 272.35 Z" stroke="rgb(0, 0, 0)" stroke-width="0" fill-rule="evenodd" stroke-linejoin="miter" fill="rgb(0, 0, 0)" shape-rendering="geometricPrecision" /></g><g><text xml:space="preserve" text-anchor="start" text-rendering="geometricPrecision"><tspan x="123.09" y="255.15" font-family="Arial" font-size="10" fill="rgb(0, 0, 0)">O</tspan></text></g><g id="Solid"><line x1="114.95" y1="257.42" x2="121.6" y2="253.22" stroke="rgb(0, 0, 0)" stroke-width="0.6" shape-rendering="auto" /><path d="M116.26 259.11 L116.26 259.11 L116.53 259.65 L123.06 255.53 L122.74 255.02 Z" stroke="rgb(0, 0, 0)" stroke-width="0" fill-rule="evenodd" stroke-linejoin="miter" fill="rgb(0, 0, 0)" shape-rendering="geometricPrecision" /><path d="M113.66 257.89 L113.66 257.89 L114.58 258.01 L121.76 253.48 L121.44 252.97 Z" stroke="rgb(0, 0, 0)" stroke-width="0" fill-rule="evenodd" stroke-linejoin="miter" fill="rgb(0, 0, 0)" shape-rendering="geometricPrecision" /></g><g><text xml:space="preserve" text-anchor="start" text-rendering="geometricPrecision"><tspan x="131.56" y="273.88" font-family="Arial" font-size="10" fill="rgb(0, 0, 0)">O</tspan></text></g><g id="Solid"><line x1="120.93" y1="267.79" x2="130.58" y2="268.37" stroke="rgb(0, 0, 0)" stroke-width="0.6" shape-rendering="auto" /><path d="M119.9 270.06 L119.9 270.06 L119.04 270.61 L130.41 271.3 L130.44 270.7 Z" stroke="rgb(0, 0, 0)" stroke-width="0" fill-rule="evenodd" stroke-linejoin="miter" fill="rgb(0, 0, 0)" shape-rendering="geometricPrecision" /><path d="M120.37 267.45 L120.37 267.45 L120.68 268.07 L130.56 268.67 L130.6 268.07 Z" stroke="rgb(0, 0, 0)" stroke-width="0" fill-rule="evenodd" stroke-linejoin="miter" fill="rgb(0, 0, 0)" shape-rendering="geometricPrecision" /></g><g id="Solid"><path d="M108.18 277.31 L108.18 277.31 L108.38 277.05 L108.78 277.15 L114.59 287.28 L114.38 287.52 L113.99 287.45 Z" stroke="rgb(0, 0, 0)" stroke-width="0" fill-rule="evenodd" stroke-linejoin="miter" fill="rgb(0, 0, 0)" shape-rendering="geometricPrecision" /></g><g id="Solid"><path d="M114.43 287.86 L114.43 287.86 L114.38 287.52 L114.59 287.28 L127.93 292.4 L127.82 292.68 L127.71 292.96 Z" stroke="rgb(0, 0, 0)" stroke-width="0" fill-rule="evenodd" stroke-linejoin="miter" fill="rgb(0, 0, 0)" shape-rendering="geometricPrecision" /></g><g id="Solid"><path d="M113.99 287.45 L113.99 287.45 L114.38 287.52 L114.43 287.86 L103.38 296.81 L103.19 296.58 L103 296.35 Z" stroke="rgb(0, 0, 0)" stroke-width="0" fill-rule="evenodd" stroke-linejoin="miter" fill="rgb(0, 0, 0)" shape-rendering="geometricPrecision" /></g><g id="Charge782"><line x1="160.13" y1="241.95" x2="160.13" y2="254.55" stroke="rgb(0, 0, 0)" stroke-width="0.48" shape-rendering="auto" /><line x1="156.83" y1="245.25" x2="163.43" y2="245.25" stroke="rgb(0, 0, 0)" stroke-width="0.48" shape-rendering="auto" /><line x1="156.83" y1="251.25" x2="163.43" y2="251.25" stroke="rgb(0, 0, 0)" stroke-width="0.48" shape-rendering="auto" /></g><g id="Bracket"><path d="M145.83 242.25 L151.88 242.25 L151.88 326.25 L145.83 326.25 " stroke="rgb(0, 0, 0)" stroke-width="0.6" fill-rule="evenodd" stroke-linejoin="miter" fill="none" shape-rendering="geometricPrecision" /></g><g id="Bracket"><path d="M55.18 326.25 L49.13 326.25 L49.13 242.25 L55.18 242.25 " stroke="rgb(0, 0, 0)" stroke-width="0.6" fill-rule="evenodd" stroke-linejoin="miter" fill="none" shape-rendering="geometricPrecision" /></g></g></g></svg>