<?xml version="1.0"?><svg xmlns="http://www.w3.org/2000/svg" xmlns:xlink="http://www.w3.org/1999/xlink" viewBox="72.53 197.4 104.35 91.95" preserveAspectRatio="xMidYMid" width="100%" height="100%"><clipPath id="869"><rect x="0.3" y="0.3" width="522.6" height="769.08" /></clipPath><g id="drawing"><rect x="72.53" y="197.4" width="100%" height="100%" fill="rgb(255, 255, 255)" /><g id="page" clip-path="url(#869)"><g id="Bold"><path d="M116.47 226.45 L116.47 226.45 L117.6 225.45 L118.73 224.45 L134.62 224.45 L135.75 225.45 L135.55 226.45 Z" stroke="rgb(0, 0, 0)" stroke-width="0" fill-rule="evenodd" stroke-linejoin="miter" fill="rgb(0, 0, 0)" shape-rendering="geometricPrecision" /><line x1="119.24" y1="221.48" x2="134.11" y2="221.48" stroke="rgb(0, 0, 0)" stroke-width="0.6" shape-rendering="auto" /></g><g id="Solid"><path d="M116.09 225.98 L116.09 225.98 L117.6 225.45 L116.47 226.45 L105.62 232.71 L105.13 232.65 L104.64 232.59 Z" stroke="rgb(0, 0, 0)" stroke-width="0" fill-rule="evenodd" stroke-linejoin="miter" fill="rgb(0, 0, 0)" shape-rendering="geometricPrecision" /></g><g id="Solid"><path d="M104.64 232.59 L104.64 232.59 L105.13 232.65 L105.62 232.71 L115.57 242.66 L115.31 242.83 L115.05 243 Z" stroke="rgb(0, 0, 0)" stroke-width="0" fill-rule="evenodd" stroke-linejoin="miter" fill="rgb(0, 0, 0)" shape-rendering="geometricPrecision" /><line x1="109.35" y1="233.21" x2="117.14" y2="241" stroke="rgb(0, 0, 0)" stroke-width="0.6" shape-rendering="auto" /></g><g id="WedgeEnd"><path d="M118.73 224.45 L118.73 224.45 L117.6 225.45 L116.09 225.98 L107.35 215.65 L107.42 215.27 L107.98 215.35 Z" stroke="rgb(0, 0, 0)" stroke-width="0" fill-rule="evenodd" stroke-linejoin="miter" fill="rgb(0, 0, 0)" shape-rendering="geometricPrecision" /></g><g id="WedgeEnd"><path d="M136.23 227.19 L136.23 227.19 L135.75 225.45 L134.62 224.45 L144.97 215.69 L145.93 215.27 L146.65 214.88 Z" stroke="rgb(0, 0, 0)" stroke-width="0" fill-rule="evenodd" stroke-linejoin="miter" fill="rgb(0, 0, 0)" shape-rendering="geometricPrecision" /></g><g id="Solid"><path d="M107.98 215.35 L107.98 215.35 L107.42 215.27 L107.62 214.86 L120.64 209.25 L120.6 209.59 L120.56 209.93 Z" stroke="rgb(0, 0, 0)" stroke-width="0" fill-rule="evenodd" stroke-linejoin="miter" fill="rgb(0, 0, 0)" shape-rendering="geometricPrecision" /></g><g id="Solid"><path d="M120.56 209.93 L120.56 209.93 L120.6 209.59 L120.64 209.25 L131.33 216.78 L131.25 217.09 L131.17 217.4 Z" stroke="rgb(0, 0, 0)" stroke-width="0" fill-rule="evenodd" stroke-linejoin="miter" fill="rgb(0, 0, 0)" shape-rendering="geometricPrecision" /></g><g id="Solid"><path d="M131.17 217.4 L131.17 217.4 L131.25 217.09 L131.33 216.78 L146.65 214.88 L145.93 215.27 L144.97 215.69 Z" stroke="rgb(0, 0, 0)" stroke-width="0" fill-rule="evenodd" stroke-linejoin="miter" fill="rgb(0, 0, 0)" shape-rendering="geometricPrecision" /></g><g id="Solid"><path d="M107.07 215.13 L107.07 215.13 L107.42 215.27 L107.35 215.65 L95.1 222.73 L94.95 222.47 L94.8 222.21 Z" stroke="rgb(0, 0, 0)" stroke-width="0" fill-rule="evenodd" stroke-linejoin="miter" fill="rgb(0, 0, 0)" shape-rendering="geometricPrecision" /></g><g id="Solid"><path d="M107.62 214.86 L107.62 214.86 L107.42 215.27 L107.07 215.13 L103.4 201.44 L103.69 201.36 L103.98 201.28 Z" stroke="rgb(0, 0, 0)" stroke-width="0" fill-rule="evenodd" stroke-linejoin="miter" fill="rgb(0, 0, 0)" shape-rendering="geometricPrecision" /></g><g id="Solid"><path d="M139.61 267.39 L139.61 267.39 L140.1 267.45 L140.42 267.61 L127.71 274.95 L127.63 274.65 L127.78 274.22 Z" stroke="rgb(0, 0, 0)" stroke-width="0" fill-rule="evenodd" stroke-linejoin="miter" fill="rgb(0, 0, 0)" shape-rendering="geometricPrecision" /><line x1="135.88" y1="266.89" x2="128.95" y2="270.89" stroke="rgb(0, 0, 0)" stroke-width="0.6" shape-rendering="auto" /></g><g id="Dash"><path d="M135.89 229.74 L135.89 229.74 L136.49 229.68 L136.23 227.19 L135.75 225.45 L135.55 226.45 Z" stroke="rgb(0, 0, 0)" stroke-width="0" fill-rule="evenodd" stroke-linejoin="miter" fill="rgb(0, 0, 0)" shape-rendering="geometricPrecision" /><path d="M139.46 264.15 L139.46 264.15 L140.05 264.09 L140.42 267.61 L140.1 267.45 L139.71 266.64 Z" stroke="rgb(0, 0, 0)" stroke-width="0" fill-rule="evenodd" stroke-linejoin="miter" fill="rgb(0, 0, 0)" shape-rendering="geometricPrecision" /><path d="M136.27 233.41 L136.27 233.41 L136.53 235.89 L137.13 235.83 L136.87 233.34 Z" stroke="rgb(0, 0, 0)" stroke-width="0" fill-rule="evenodd" stroke-linejoin="miter" fill="rgb(0, 0, 0)" shape-rendering="geometricPrecision" /><path d="M136.91 239.56 L136.91 239.56 L137.17 242.04 L137.76 241.98 L137.51 239.49 Z" stroke="rgb(0, 0, 0)" stroke-width="0" fill-rule="evenodd" stroke-linejoin="miter" fill="rgb(0, 0, 0)" shape-rendering="geometricPrecision" /><path d="M137.55 245.7 L137.55 245.7 L137.8 248.19 L138.4 248.13 L138.14 245.64 Z" stroke="rgb(0, 0, 0)" stroke-width="0" fill-rule="evenodd" stroke-linejoin="miter" fill="rgb(0, 0, 0)" shape-rendering="geometricPrecision" /><path d="M138.18 251.85 L138.18 251.85 L138.44 254.34 L139.04 254.28 L138.78 251.79 Z" stroke="rgb(0, 0, 0)" stroke-width="0" fill-rule="evenodd" stroke-linejoin="miter" fill="rgb(0, 0, 0)" shape-rendering="geometricPrecision" /><path d="M138.82 258 L138.82 258 L139.08 260.49 L139.67 260.43 L139.42 257.94 Z" stroke="rgb(0, 0, 0)" stroke-width="0" fill-rule="evenodd" stroke-linejoin="miter" fill="rgb(0, 0, 0)" shape-rendering="geometricPrecision" /></g><g id="Charge837"><line x1="173.1" y1="198.9" x2="173.1" y2="211.5" stroke="rgb(0, 0, 0)" stroke-width="0.48" shape-rendering="auto" /><line x1="169.8" y1="202.2" x2="176.4" y2="202.2" stroke="rgb(0, 0, 0)" stroke-width="0.48" shape-rendering="auto" /><line x1="169.8" y1="208.2" x2="176.4" y2="208.2" stroke="rgb(0, 0, 0)" stroke-width="0.48" shape-rendering="auto" /></g><g id="Solid"><path d="M127.19 274.35 L127.19 274.35 L127.63 274.65 L127.71 274.95 L113.11 274.95 L113.23 274.65 L113.35 274.35 Z" stroke="rgb(0, 0, 0)" stroke-width="0" fill-rule="evenodd" stroke-linejoin="miter" fill="rgb(0, 0, 0)" shape-rendering="geometricPrecision" /></g><g id="Solid"><path d="M139.71 266.64 L139.71 266.64 L140.1 267.45 L139.61 267.39 L129.8 257.57 L129.92 257.27 L130.04 256.97 Z" stroke="rgb(0, 0, 0)" stroke-width="0" fill-rule="evenodd" stroke-linejoin="miter" fill="rgb(0, 0, 0)" shape-rendering="geometricPrecision" /></g><g id="Solid"><g id="Bond's parts"><path d="M115.62 257 L115.62 257 L118.45 256.95 L118.5 257.15 L118.6 257.35 L118.65 257.55 L115.55 257.55 L115.6 257.05 Z" stroke="rgb(0, 0, 0)" stroke-width="0" fill-rule="evenodd" stroke-linejoin="miter" fill="rgb(0, 0, 0)" shape-rendering="geometricPrecision" /><path d="M122.55 256.95 L122.55 256.95 L130.02 257 L130 257.05 L129.9 257.35 L129.85 257.55 L122.72 257.5 L122.7 257.45 Z" stroke="rgb(0, 0, 0)" stroke-width="0" fill-rule="evenodd" stroke-linejoin="miter" fill="rgb(0, 0, 0)" shape-rendering="geometricPrecision" /><path d="M116.25 259.55 L116.25 259.55 L119.47 259.6 L119.5 259.65 L119.6 259.95 L119.65 260.15 Z" stroke="rgb(0, 0, 0)" stroke-width="0" fill-rule="evenodd" stroke-linejoin="miter" fill="rgb(0, 0, 0)" shape-rendering="geometricPrecision" /><path d="M123.55 259.55 L123.55 259.55 L128.85 259.55 L128.85 260.15 L123.72 260.1 L123.7 260.05 Z" stroke="rgb(0, 0, 0)" stroke-width="0" fill-rule="evenodd" stroke-linejoin="miter" fill="rgb(0, 0, 0)" shape-rendering="geometricPrecision" /></g></g><g id="Solid"><path d="M115.03 257.21 L115.03 257.21 L115.52 257.27 L115.6 257.57 L103.54 264.53 L103.05 264.47 L102.56 264.41 Z" stroke="rgb(0, 0, 0)" stroke-width="0" fill-rule="evenodd" stroke-linejoin="miter" fill="rgb(0, 0, 0)" shape-rendering="geometricPrecision" /></g><g id="Solid"><path d="M102.56 264.41 L102.56 264.41 L103.05 264.47 L103.54 264.53 L113.35 274.35 L113.23 274.65 L113.11 274.95 Z" stroke="rgb(0, 0, 0)" stroke-width="0" fill-rule="evenodd" stroke-linejoin="miter" fill="rgb(0, 0, 0)" shape-rendering="geometricPrecision" /></g><g id="Dash"><path d="M115.96 245.33 L115.96 245.33 L116.52 245.11 L115.57 242.66 L115.31 242.83 L115.05 243 Z" stroke="rgb(0, 0, 0)" stroke-width="0" fill-rule="evenodd" stroke-linejoin="miter" fill="rgb(0, 0, 0)" shape-rendering="geometricPrecision" /><path d="M126.29 272.02 L126.29 272.02 L126.85 271.8 L127.78 274.22 L127.63 274.65 L127.19 274.35 Z" stroke="rgb(0, 0, 0)" stroke-width="0" fill-rule="evenodd" stroke-linejoin="miter" fill="rgb(0, 0, 0)" shape-rendering="geometricPrecision" /><path d="M116.93 247.83 L116.93 247.83 L117.83 250.17 L118.39 249.95 L117.49 247.62 Z" stroke="rgb(0, 0, 0)" stroke-width="0" fill-rule="evenodd" stroke-linejoin="miter" fill="rgb(0, 0, 0)" shape-rendering="geometricPrecision" /><path d="M118.8 252.67 L118.8 252.67 L119.7 255 L120.26 254.79 L119.36 252.45 Z" stroke="rgb(0, 0, 0)" stroke-width="0" fill-rule="evenodd" stroke-linejoin="miter" fill="rgb(0, 0, 0)" shape-rendering="geometricPrecision" /><path d="M120.67 257.51 L120.67 257.51 L121.57 259.84 L122.13 259.62 L121.23 257.29 Z" stroke="rgb(0, 0, 0)" stroke-width="0" fill-rule="evenodd" stroke-linejoin="miter" fill="rgb(0, 0, 0)" shape-rendering="geometricPrecision" /><path d="M122.54 262.34 L122.54 262.34 L123.45 264.68 L124.01 264.46 L123.1 262.13 Z" stroke="rgb(0, 0, 0)" stroke-width="0" fill-rule="evenodd" stroke-linejoin="miter" fill="rgb(0, 0, 0)" shape-rendering="geometricPrecision" /><path d="M124.42 267.18 L124.42 267.18 L125.32 269.51 L125.88 269.3 L124.98 266.97 Z" stroke="rgb(0, 0, 0)" stroke-width="0" fill-rule="evenodd" stroke-linejoin="miter" fill="rgb(0, 0, 0)" shape-rendering="geometricPrecision" /></g><g><text xml:space="preserve" text-anchor="start" text-rendering="geometricPrecision"><tspan x="97.07" y="288.1" font-family="Arial" font-size="10" fill="rgb(0, 0, 0)">O</tspan></text></g><g id="Solid"><line x1="114.09" y1="275.75" x2="106.52" y2="281.65" stroke="rgb(0, 0, 0)" stroke-width="0.6" shape-rendering="auto" /><path d="M112.21 274.05 L112.21 274.05 L111.78 273.63 L104.62 279.2 L104.99 279.68 Z" stroke="rgb(0, 0, 0)" stroke-width="0" fill-rule="evenodd" stroke-linejoin="miter" fill="rgb(0, 0, 0)" shape-rendering="geometricPrecision" /><path d="M115.61 274.95 L115.61 274.95 L114.63 274.95 L106.34 281.41 L106.71 281.89 Z" stroke="rgb(0, 0, 0)" stroke-width="0" fill-rule="evenodd" stroke-linejoin="miter" fill="rgb(0, 0, 0)" shape-rendering="geometricPrecision" /></g><g id="Solid"><path d="M115.64 256.97 L115.64 256.97 L115.52 257.27 L115.03 257.21 L105.22 247.39 L105.34 247.09 L105.59 246.92 Z" stroke="rgb(0, 0, 0)" stroke-width="0" fill-rule="evenodd" stroke-linejoin="miter" fill="rgb(0, 0, 0)" shape-rendering="geometricPrecision" /></g><g id="Solid"><line x1="102.88" y1="265.69" x2="94.42" y2="264.51" stroke="rgb(0, 0, 0)" stroke-width="0.6" shape-rendering="auto" /><path d="M103.88 263.65 L103.88 263.65 L104.72 263.16 L94.8 261.78 L94.71 262.37 Z" stroke="rgb(0, 0, 0)" stroke-width="0" fill-rule="evenodd" stroke-linejoin="miter" fill="rgb(0, 0, 0)" shape-rendering="geometricPrecision" /><path d="M104.35 266.19 L104.35 266.19 L103.65 265.49 L94.46 264.21 L94.37 264.81 Z" stroke="rgb(0, 0, 0)" stroke-width="0" fill-rule="evenodd" stroke-linejoin="miter" fill="rgb(0, 0, 0)" shape-rendering="geometricPrecision" /></g><g><text xml:space="preserve" text-anchor="start" text-rendering="geometricPrecision"><tspan x="85.62" y="266.49" font-family="Arial" font-size="10" fill="rgb(0, 0, 0)">O</tspan></text></g><g id="Solid"><path d="M104.89 246.79 L104.89 246.79 L105.34 247.09 L105.22 247.39 L90.94 247.39 L90.94 247.09 L90.94 246.79 Z" stroke="rgb(0, 0, 0)" stroke-width="0" fill-rule="evenodd" stroke-linejoin="miter" fill="rgb(0, 0, 0)" shape-rendering="geometricPrecision" /></g><g id="Solid"><path d="M105.59 246.92 L105.59 246.92 L105.34 247.09 L104.89 246.79 L100.86 236.97 L101.14 236.86 L101.42 236.75 Z" stroke="rgb(0, 0, 0)" stroke-width="0" fill-rule="evenodd" stroke-linejoin="miter" fill="rgb(0, 0, 0)" shape-rendering="geometricPrecision" /></g><g id="Bracket"><path d="M158.16 198 L164.63 198 L164.63 288.75 L158.16 288.75 " stroke="rgb(0, 0, 0)" stroke-width="0.6" fill-rule="evenodd" stroke-linejoin="miter" fill="none" shape-rendering="geometricPrecision" /></g><g id="Bracket"><path d="M79.6 288.75 L73.13 288.75 L73.13 198 L79.6 198 " stroke="rgb(0, 0, 0)" stroke-width="0.6" fill-rule="evenodd" stroke-linejoin="miter" fill="none" shape-rendering="geometricPrecision" /></g></g></g></svg>