<?xml version="1.0"?><svg xmlns="http://www.w3.org/2000/svg" xmlns:xlink="http://www.w3.org/1999/xlink" viewBox="72.53 197.4 104.35 91.95" preserveAspectRatio="xMidYMid" width="100%" height="100%"><clipPath id="879"><rect x="0.3" y="0.3" width="522.72" height="769.32" /></clipPath><g id="drawing"><rect x="72.53" y="197.4" width="100%" height="100%" fill="rgb(255, 255, 255)" /><g id="page" clip-path="url(#879)"><g id="Solid"><g id="Bond's parts"><path d="M134.75 251.6 L134.75 251.6 L134.85 251.6 L134.95 251.7 L135.05 251.8 L135.1 251.85 L135.1 252.05 L135.05 252.1 L134.95 252.2 L134.88 252.3 L134.62 252.4 L134.55 252.5 L134.45 252.6 L134.38 252.7 L134.12 252.8 L134.05 252.9 L133.98 253 L133.73 253.1 L133.65 253.2 L133.55 253.3 L133.48 253.4 L133.23 253.5 L133.15 253.6 L133.07 253.7 L132.82 253.8 L132.75 253.9 L132.65 254 L132.57 254.1 L132.32 254.2 L132.25 254.3 L132.15 254.4 L132.07 254.5 L131.82 254.6 L131.75 254.7 L131.68 254.8 L131.43 254.9 L131.35 255 L131.25 255.1 L131.18 255.2 L130.93 255.3 L130.85 255.4 L130.77 255.5 L130.52 255.6 L130.45 255.7 L130.35 255.8 L130.27 255.9 L130.02 256 L129.95 256.1 L129.85 256.2 L129.77 256.3 L129.52 256.4 L129.45 256.5 L129.38 256.6 L129.12 256.7 L129.05 256.8 L128.98 256.9 L127.97 256.9 L128.02 256.8 L128.27 256.7 L128.35 256.6 L128.43 256.5 L128.68 256.4 L128.75 256.3 L128.85 256.2 L128.93 256.1 L129.18 256 L129.25 255.9 L129.35 255.8 L129.43 255.7 L129.68 255.6 L129.75 255.5 L129.82 255.4 L130.07 255.3 L130.15 255.2 L130.25 255.1 L130.32 255 L130.57 254.9 L130.65 254.8 L130.75 254.7 L130.82 254.6 L131.07 254.5 L131.15 254.4 L131.23 254.3 L131.48 254.2 L131.55 254.1 L131.65 254 L131.73 253.9 L131.98 253.8 L132.05 253.7 L132.12 253.6 L132.38 253.5 L132.45 253.4 L132.55 253.3 L132.62 253.2 L132.88 253.1 L132.95 253 L133.05 252.9 L133.12 252.8 L133.38 252.7 L133.45 252.6 L133.52 252.5 L133.77 252.4 L133.85 252.3 L133.95 252.2 L134.02 252.1 L134.27 252 L134.35 251.9 L134.43 251.8 L134.68 251.7 Z" stroke="rgb(0, 0, 0)" stroke-width="0" fill-rule="evenodd" stroke-linejoin="miter" fill="rgb(0, 0, 0)" shape-rendering="geometricPrecision" /><path d="M136.12 253.5 L136.12 253.5 L136.38 253.5 L136.45 253.6 L136.5 253.65 L136.6 253.85 L136.6 253.9 L136.57 254 L136.32 254.1 L136.25 254.2 L136.15 254.3 L136.07 254.4 L135.82 254.5 L135.75 254.6 L135.68 254.7 L135.43 254.8 L135.35 254.9 L135.25 255 L135.18 255.1 L134.93 255.2 L134.85 255.3 L134.75 255.4 L134.68 255.5 L134.43 255.6 L134.35 255.7 L134.27 255.8 L134.02 255.9 L133.95 256 L133.85 256.1 L133.77 256.2 L133.52 256.3 L133.45 256.4 L133.35 256.5 L133.27 256.6 L133.02 256.7 L132.95 256.8 L132.88 256.9 L132.62 257 L132.55 257.1 L132.45 257.2 L132.38 257.3 L132.12 257.4 L132.05 257.5 L131.98 257.6 L131.73 257.7 L131.65 257.8 L131.55 257.9 L131.48 258 L131.23 258.1 L131.15 258.1 L131.05 258 L130.95 257.9 L130.9 257.85 L130.9 257.65 L130.95 257.6 L131.02 257.5 L131.27 257.4 L131.35 257.3 L131.45 257.2 L131.52 257.1 L131.77 257 L131.85 256.9 L131.93 256.8 L132.18 256.7 L132.25 256.6 L132.35 256.5 L132.43 256.4 L132.68 256.3 L132.75 256.2 L132.85 256.1 L132.93 256 L133.18 255.9 L133.25 255.8 L133.32 255.7 L133.57 255.6 L133.65 255.5 L133.75 255.4 L133.82 255.3 L134.07 255.2 L134.15 255.1 L134.23 255 L134.48 254.9 L134.55 254.8 L134.65 254.7 L134.73 254.6 L134.98 254.5 L135.05 254.4 L135.15 254.3 L135.23 254.2 L135.48 254.1 L135.55 254 L135.62 253.9 L135.88 253.8 L135.95 253.7 L136.05 253.6 Z" stroke="rgb(0, 0, 0)" stroke-width="0" fill-rule="evenodd" stroke-linejoin="miter" fill="rgb(0, 0, 0)" shape-rendering="geometricPrecision" /></g></g><g id="Bold"><path d="M116.47 226.45 L116.47 226.45 L117.6 225.45 L118.73 224.45 L134.62 224.45 L135.75 225.45 L135.55 226.45 Z" stroke="rgb(0, 0, 0)" stroke-width="0" fill-rule="evenodd" stroke-linejoin="miter" fill="rgb(0, 0, 0)" shape-rendering="geometricPrecision" /><line x1="119.24" y1="221.48" x2="134.11" y2="221.48" stroke="rgb(0, 0, 0)" stroke-width="0.6" shape-rendering="auto" /></g><g id="Solid"><path d="M116.09 225.98 L116.09 225.98 L117.6 225.45 L116.47 226.45 L105.62 232.71 L105.13 232.65 L104.64 232.59 Z" stroke="rgb(0, 0, 0)" stroke-width="0" fill-rule="evenodd" stroke-linejoin="miter" fill="rgb(0, 0, 0)" shape-rendering="geometricPrecision" /></g><g id="Solid"><path d="M104.64 232.59 L104.64 232.59 L105.13 232.65 L105.62 232.71 L115.57 242.66 L115.31 242.83 L115.05 243 Z" stroke="rgb(0, 0, 0)" stroke-width="0" fill-rule="evenodd" stroke-linejoin="miter" fill="rgb(0, 0, 0)" shape-rendering="geometricPrecision" /><line x1="109.35" y1="233.21" x2="117.14" y2="241" stroke="rgb(0, 0, 0)" stroke-width="0.6" shape-rendering="auto" /></g><g id="WedgeEnd"><path d="M118.73 224.45 L118.73 224.45 L117.6 225.45 L116.09 225.98 L107.35 215.65 L107.42 215.27 L107.98 215.35 Z" stroke="rgb(0, 0, 0)" stroke-width="0" fill-rule="evenodd" stroke-linejoin="miter" fill="rgb(0, 0, 0)" shape-rendering="geometricPrecision" /></g><g id="WedgeEnd"><path d="M136.23 227.19 L136.23 227.19 L135.75 225.45 L134.62 224.45 L144.97 215.69 L145.93 215.27 L146.65 214.88 Z" stroke="rgb(0, 0, 0)" stroke-width="0" fill-rule="evenodd" stroke-linejoin="miter" fill="rgb(0, 0, 0)" shape-rendering="geometricPrecision" /></g><g id="Solid"><path d="M107.98 215.35 L107.98 215.35 L107.42 215.27 L107.62 214.86 L120.64 209.25 L120.6 209.59 L120.56 209.93 Z" stroke="rgb(0, 0, 0)" stroke-width="0" fill-rule="evenodd" stroke-linejoin="miter" fill="rgb(0, 0, 0)" shape-rendering="geometricPrecision" /></g><g id="Solid"><path d="M120.56 209.93 L120.56 209.93 L120.6 209.59 L120.64 209.25 L131.33 216.78 L131.25 217.09 L131.17 217.4 Z" stroke="rgb(0, 0, 0)" stroke-width="0" fill-rule="evenodd" stroke-linejoin="miter" fill="rgb(0, 0, 0)" shape-rendering="geometricPrecision" /></g><g id="Solid"><path d="M131.17 217.4 L131.17 217.4 L131.25 217.09 L131.33 216.78 L146.65 214.88 L145.93 215.27 L144.97 215.69 Z" stroke="rgb(0, 0, 0)" stroke-width="0" fill-rule="evenodd" stroke-linejoin="miter" fill="rgb(0, 0, 0)" shape-rendering="geometricPrecision" /></g><g id="Solid"><path d="M107.07 215.13 L107.07 215.13 L107.42 215.27 L107.35 215.65 L95.1 222.73 L94.95 222.47 L94.8 222.21 Z" stroke="rgb(0, 0, 0)" stroke-width="0" fill-rule="evenodd" stroke-linejoin="miter" fill="rgb(0, 0, 0)" shape-rendering="geometricPrecision" /></g><g id="Solid"><path d="M107.62 214.86 L107.62 214.86 L107.42 215.27 L107.07 215.13 L103.4 201.44 L103.69 201.36 L103.98 201.28 Z" stroke="rgb(0, 0, 0)" stroke-width="0" fill-rule="evenodd" stroke-linejoin="miter" fill="rgb(0, 0, 0)" shape-rendering="geometricPrecision" /></g><g id="Solid"><path d="M139.61 267.39 L139.61 267.39 L140.1 267.45 L140.42 267.61 L127.71 274.95 L127.63 274.65 L127.78 274.22 Z" stroke="rgb(0, 0, 0)" stroke-width="0" fill-rule="evenodd" stroke-linejoin="miter" fill="rgb(0, 0, 0)" shape-rendering="geometricPrecision" /><line x1="135.88" y1="266.89" x2="128.95" y2="270.89" stroke="rgb(0, 0, 0)" stroke-width="0.6" shape-rendering="auto" /></g><g id="Dash"><path d="M135.89 229.74 L135.89 229.74 L136.49 229.68 L136.23 227.19 L135.75 225.45 L135.55 226.45 Z" stroke="rgb(0, 0, 0)" stroke-width="0" fill-rule="evenodd" stroke-linejoin="miter" fill="rgb(0, 0, 0)" shape-rendering="geometricPrecision" /><path d="M139.46 264.15 L139.46 264.15 L140.05 264.09 L140.42 267.61 L140.1 267.45 L139.71 266.64 Z" stroke="rgb(0, 0, 0)" stroke-width="0" fill-rule="evenodd" stroke-linejoin="miter" fill="rgb(0, 0, 0)" shape-rendering="geometricPrecision" /><path d="M136.27 233.41 L136.27 233.41 L136.53 235.89 L137.13 235.83 L136.87 233.34 Z" stroke="rgb(0, 0, 0)" stroke-width="0" fill-rule="evenodd" stroke-linejoin="miter" fill="rgb(0, 0, 0)" shape-rendering="geometricPrecision" /><path d="M136.91 239.56 L136.91 239.56 L137.17 242.04 L137.76 241.98 L137.51 239.49 Z" stroke="rgb(0, 0, 0)" stroke-width="0" fill-rule="evenodd" stroke-linejoin="miter" fill="rgb(0, 0, 0)" shape-rendering="geometricPrecision" /><path d="M137.55 245.7 L137.55 245.7 L137.8 248.19 L138.4 248.13 L138.14 245.64 Z" stroke="rgb(0, 0, 0)" stroke-width="0" fill-rule="evenodd" stroke-linejoin="miter" fill="rgb(0, 0, 0)" shape-rendering="geometricPrecision" /><path d="M138.18 251.85 L138.18 251.85 L138.44 254.34 L139.04 254.28 L138.78 251.79 Z" stroke="rgb(0, 0, 0)" stroke-width="0" fill-rule="evenodd" stroke-linejoin="miter" fill="rgb(0, 0, 0)" shape-rendering="geometricPrecision" /><path d="M138.82 258 L138.82 258 L139.08 260.49 L139.67 260.43 L139.42 257.94 Z" stroke="rgb(0, 0, 0)" stroke-width="0" fill-rule="evenodd" stroke-linejoin="miter" fill="rgb(0, 0, 0)" shape-rendering="geometricPrecision" /></g><g id="Charge837"><line x1="173.1" y1="198.9" x2="173.1" y2="211.5" stroke="rgb(0, 0, 0)" stroke-width="0.48" shape-rendering="auto" /><line x1="169.8" y1="202.2" x2="176.4" y2="202.2" stroke="rgb(0, 0, 0)" stroke-width="0.48" shape-rendering="auto" /><line x1="169.8" y1="208.2" x2="176.4" y2="208.2" stroke="rgb(0, 0, 0)" stroke-width="0.48" shape-rendering="auto" /></g><g id="Solid"><path d="M127.19 274.35 L127.19 274.35 L127.63 274.65 L127.71 274.95 L113.11 274.95 L113.23 274.65 L113.35 274.35 Z" stroke="rgb(0, 0, 0)" stroke-width="0" fill-rule="evenodd" stroke-linejoin="miter" fill="rgb(0, 0, 0)" shape-rendering="geometricPrecision" /></g><g id="Solid"><path d="M139.71 266.64 L139.71 266.64 L140.1 267.45 L139.61 267.39 L129.8 257.57 L129.92 257.27 L130.04 256.97 Z" stroke="rgb(0, 0, 0)" stroke-width="0" fill-rule="evenodd" stroke-linejoin="miter" fill="rgb(0, 0, 0)" shape-rendering="geometricPrecision" /></g><g id="Solid"><g id="Bond's parts"><path d="M115.45 256.95 L115.45 256.95 L118.45 256.95 L118.5 257.15 L118.6 257.35 L118.65 257.55 L115.55 257.55 Z" stroke="rgb(0, 0, 0)" stroke-width="0" fill-rule="evenodd" stroke-linejoin="miter" fill="rgb(0, 0, 0)" shape-rendering="geometricPrecision" /><path d="M122.55 256.95 L122.55 256.95 L130.02 257 L130 257.05 L129.9 257.35 L129.85 257.55 L122.72 257.5 L122.7 257.45 Z" stroke="rgb(0, 0, 0)" stroke-width="0" fill-rule="evenodd" stroke-linejoin="miter" fill="rgb(0, 0, 0)" shape-rendering="geometricPrecision" /></g></g><g id="Solid"><path d="M115.44 256.97 L115.44 256.97 L115.52 257.27 L115.6 257.57 L103.54 264.53 L103.05 264.47 L102.97 264.17 Z" stroke="rgb(0, 0, 0)" stroke-width="0" fill-rule="evenodd" stroke-linejoin="miter" fill="rgb(0, 0, 0)" shape-rendering="geometricPrecision" /></g><g id="Solid"><path d="M102.93 264.77 L102.93 264.77 L103.05 264.47 L103.54 264.53 L113.35 274.35 L113.23 274.65 L113.11 274.95 Z" stroke="rgb(0, 0, 0)" stroke-width="0" fill-rule="evenodd" stroke-linejoin="miter" fill="rgb(0, 0, 0)" shape-rendering="geometricPrecision" /><line x1="107.27" y1="265.03" x2="114.3" y2="272.06" stroke="rgb(0, 0, 0)" stroke-width="0.6" shape-rendering="auto" /></g><g id="Dash"><path d="M115.96 245.33 L115.96 245.33 L116.52 245.11 L115.57 242.66 L115.31 242.83 L115.05 243 Z" stroke="rgb(0, 0, 0)" stroke-width="0" fill-rule="evenodd" stroke-linejoin="miter" fill="rgb(0, 0, 0)" shape-rendering="geometricPrecision" /><path d="M126.29 272.02 L126.29 272.02 L126.85 271.8 L127.78 274.22 L127.63 274.65 L127.19 274.35 Z" stroke="rgb(0, 0, 0)" stroke-width="0" fill-rule="evenodd" stroke-linejoin="miter" fill="rgb(0, 0, 0)" shape-rendering="geometricPrecision" /><path d="M116.93 247.83 L116.93 247.83 L117.83 250.17 L118.39 249.95 L117.49 247.62 Z" stroke="rgb(0, 0, 0)" stroke-width="0" fill-rule="evenodd" stroke-linejoin="miter" fill="rgb(0, 0, 0)" shape-rendering="geometricPrecision" /><path d="M118.8 252.67 L118.8 252.67 L119.7 255 L120.26 254.79 L119.36 252.45 Z" stroke="rgb(0, 0, 0)" stroke-width="0" fill-rule="evenodd" stroke-linejoin="miter" fill="rgb(0, 0, 0)" shape-rendering="geometricPrecision" /><path d="M120.67 257.51 L120.67 257.51 L121.57 259.84 L122.13 259.62 L121.23 257.29 Z" stroke="rgb(0, 0, 0)" stroke-width="0" fill-rule="evenodd" stroke-linejoin="miter" fill="rgb(0, 0, 0)" shape-rendering="geometricPrecision" /><path d="M122.54 262.34 L122.54 262.34 L123.45 264.68 L124.01 264.46 L123.1 262.13 Z" stroke="rgb(0, 0, 0)" stroke-width="0" fill-rule="evenodd" stroke-linejoin="miter" fill="rgb(0, 0, 0)" shape-rendering="geometricPrecision" /><path d="M124.42 267.18 L124.42 267.18 L125.32 269.51 L125.88 269.3 L124.98 266.97 Z" stroke="rgb(0, 0, 0)" stroke-width="0" fill-rule="evenodd" stroke-linejoin="miter" fill="rgb(0, 0, 0)" shape-rendering="geometricPrecision" /></g><g id="Bracket"><path d="M158.16 198 L164.63 198 L164.63 288.75 L158.16 288.75 " stroke="rgb(0, 0, 0)" stroke-width="0.6" fill-rule="evenodd" stroke-linejoin="miter" fill="none" shape-rendering="geometricPrecision" /></g><g id="Bracket"><path d="M79.6 288.75 L73.13 288.75 L73.13 198 L79.6 198 " stroke="rgb(0, 0, 0)" stroke-width="0.6" fill-rule="evenodd" stroke-linejoin="miter" fill="none" shape-rendering="geometricPrecision" /></g><g><text xml:space="preserve" text-anchor="start" text-rendering="geometricPrecision"><tspan x="136.49" y="252.97" font-family="Arial" font-size="10" fill="rgb(0, 0, 0)">O</tspan></text></g><g id="Solid"><line x1="114.69" y1="258.05" x2="110.57" y2="253.69" stroke="rgb(0, 0, 0)" stroke-width="0.6" shape-rendering="auto" /><path d="M116.39 256.97 L116.39 256.97 L117.21 256.97 L112.44 251.92 L112.01 252.34 Z" stroke="rgb(0, 0, 0)" stroke-width="0" fill-rule="evenodd" stroke-linejoin="miter" fill="rgb(0, 0, 0)" shape-rendering="geometricPrecision" /><path d="M114.03 257.78 L114.03 257.78 L114.56 257.48 L110.79 253.49 L110.36 253.9 Z" stroke="rgb(0, 0, 0)" stroke-width="0" fill-rule="evenodd" stroke-linejoin="miter" fill="rgb(0, 0, 0)" shape-rendering="geometricPrecision" /></g><g><text xml:space="preserve" text-anchor="start" text-rendering="geometricPrecision"><tspan x="102.94" y="251.99" font-family="Arial" font-size="10" fill="rgb(0, 0, 0)">O</tspan></text></g><g id="Solid"><path d="M102.97 264.17 L102.97 264.17 L103.05 264.47 L102.93 264.77 L88.82 264.77 L88.65 264.47 L88.82 264.17 Z" stroke="rgb(0, 0, 0)" stroke-width="0" fill-rule="evenodd" stroke-linejoin="miter" fill="rgb(0, 0, 0)" shape-rendering="geometricPrecision" /></g><g id="Solid"><path d="M88.82 264.17 L88.82 264.17 L88.65 264.47 L88.3 264.47 L81.19 252.15 L81.45 252 L81.71 251.85 Z" stroke="rgb(0, 0, 0)" stroke-width="0" fill-rule="evenodd" stroke-linejoin="miter" fill="rgb(0, 0, 0)" shape-rendering="geometricPrecision" /></g><g id="Solid"><path d="M88.3 264.47 L88.3 264.47 L88.65 264.47 L88.82 264.77 L81.71 277.09 L81.45 276.94 L81.19 276.79 Z" stroke="rgb(0, 0, 0)" stroke-width="0" fill-rule="evenodd" stroke-linejoin="miter" fill="rgb(0, 0, 0)" shape-rendering="geometricPrecision" /></g></g></g></svg>