<?xml version="1.0"?><svg xmlns="http://www.w3.org/2000/svg" xmlns:xlink="http://www.w3.org/1999/xlink" viewBox="81.4 198.4 110.98 89.2" preserveAspectRatio="xMidYMid" width="100%" height="100%"><clipPath id="881"><rect x="0.3" y="0.3" width="522.6" height="769.08" /></clipPath><g id="drawing"><rect x="81.4" y="198.4" width="100%" height="100%" fill="rgb(255, 255, 255)" /><g id="page" clip-path="url(#881)"><g id="Bold"><path d="M116.47 226.45 L116.47 226.45 L117.6 225.45 L118.73 224.45 L134.62 224.45 L135.75 225.45 L135.55 226.45 Z" stroke="rgb(0, 0, 0)" stroke-width="0" fill-rule="evenodd" stroke-linejoin="miter" fill="rgb(0, 0, 0)" shape-rendering="geometricPrecision" /><line x1="119.24" y1="221.48" x2="134.11" y2="221.48" stroke="rgb(0, 0, 0)" stroke-width="0.6" shape-rendering="auto" /></g><g id="Solid"><path d="M116.09 225.98 L116.09 225.98 L117.6 225.45 L116.47 226.45 L105.62 232.71 L105.13 232.65 L104.64 232.59 Z" stroke="rgb(0, 0, 0)" stroke-width="0" fill-rule="evenodd" stroke-linejoin="miter" fill="rgb(0, 0, 0)" shape-rendering="geometricPrecision" /></g><g id="Solid"><path d="M104.64 232.59 L104.64 232.59 L105.13 232.65 L105.62 232.71 L115.57 242.66 L115.31 242.83 L115.05 243 Z" stroke="rgb(0, 0, 0)" stroke-width="0" fill-rule="evenodd" stroke-linejoin="miter" fill="rgb(0, 0, 0)" shape-rendering="geometricPrecision" /><line x1="109.35" y1="233.21" x2="117.14" y2="241" stroke="rgb(0, 0, 0)" stroke-width="0.6" shape-rendering="auto" /></g><g id="WedgeEnd"><path d="M118.73 224.45 L118.73 224.45 L117.6 225.45 L116.09 225.98 L107.35 215.65 L107.42 215.27 L107.98 215.35 Z" stroke="rgb(0, 0, 0)" stroke-width="0" fill-rule="evenodd" stroke-linejoin="miter" fill="rgb(0, 0, 0)" shape-rendering="geometricPrecision" /></g><g id="WedgeEnd"><path d="M136.23 227.19 L136.23 227.19 L135.75 225.45 L134.62 224.45 L144.97 215.69 L145.93 215.27 L146.65 214.88 Z" stroke="rgb(0, 0, 0)" stroke-width="0" fill-rule="evenodd" stroke-linejoin="miter" fill="rgb(0, 0, 0)" shape-rendering="geometricPrecision" /></g><g id="Solid"><path d="M107.98 215.35 L107.98 215.35 L107.42 215.27 L107.62 214.86 L120.64 209.25 L120.6 209.59 L120.56 209.93 Z" stroke="rgb(0, 0, 0)" stroke-width="0" fill-rule="evenodd" stroke-linejoin="miter" fill="rgb(0, 0, 0)" shape-rendering="geometricPrecision" /></g><g id="Solid"><path d="M120.56 209.93 L120.56 209.93 L120.6 209.59 L120.64 209.25 L131.33 216.78 L131.25 217.09 L131.17 217.4 Z" stroke="rgb(0, 0, 0)" stroke-width="0" fill-rule="evenodd" stroke-linejoin="miter" fill="rgb(0, 0, 0)" shape-rendering="geometricPrecision" /></g><g id="Solid"><path d="M131.17 217.4 L131.17 217.4 L131.25 217.09 L131.33 216.78 L146.65 214.88 L145.93 215.27 L144.97 215.69 Z" stroke="rgb(0, 0, 0)" stroke-width="0" fill-rule="evenodd" stroke-linejoin="miter" fill="rgb(0, 0, 0)" shape-rendering="geometricPrecision" /></g><g id="Solid"><path d="M107.07 215.13 L107.07 215.13 L107.42 215.27 L107.35 215.65 L95.1 222.73 L94.95 222.47 L94.8 222.21 Z" stroke="rgb(0, 0, 0)" stroke-width="0" fill-rule="evenodd" stroke-linejoin="miter" fill="rgb(0, 0, 0)" shape-rendering="geometricPrecision" /></g><g id="Solid"><path d="M107.62 214.86 L107.62 214.86 L107.42 215.27 L107.07 215.13 L103.4 201.44 L103.69 201.36 L103.98 201.28 Z" stroke="rgb(0, 0, 0)" stroke-width="0" fill-rule="evenodd" stroke-linejoin="miter" fill="rgb(0, 0, 0)" shape-rendering="geometricPrecision" /></g><g id="Solid"><path d="M139.61 267.39 L139.61 267.39 L140.1 267.45 L140.17 267.75 L127.71 274.95 L127.63 274.65 L127.78 274.22 Z" stroke="rgb(0, 0, 0)" stroke-width="0" fill-rule="evenodd" stroke-linejoin="miter" fill="rgb(0, 0, 0)" shape-rendering="geometricPrecision" /><line x1="135.88" y1="266.89" x2="128.95" y2="270.89" stroke="rgb(0, 0, 0)" stroke-width="0.6" shape-rendering="auto" /></g><g id="Dash"><g id="Bond's parts"><path d="M135.65 225.65 L135.65 225.65 L135.85 225.65 L135.9 225.95 L136 226.35 L136.1 226.75 L136.2 227.05 L136.3 227.85 L136.4 228.85 L136.4 229.65 L136.38 229.7 L135.85 229.75 L135.8 228.85 L135.7 227.85 L135.6 226.95 Z" stroke="rgb(0, 0, 0)" stroke-width="0" fill-rule="evenodd" stroke-linejoin="miter" fill="rgb(0, 0, 0)" shape-rendering="geometricPrecision" /><path d="M136.32 233.4 L136.32 233.4 L136.85 233.35 L136.9 233.65 L137 234.65 L137.1 235.55 L137.15 235.85 L136.55 235.85 L136.5 235.55 L136.4 234.65 L136.3 233.65 L136.3 233.45 Z" stroke="rgb(0, 0, 0)" stroke-width="0" fill-rule="evenodd" stroke-linejoin="miter" fill="rgb(0, 0, 0)" shape-rendering="geometricPrecision" /><path d="M137.48 239.5 L137.48 239.5 L137.5 239.45 L137.6 240.45 L137.7 241.35 L137.75 241.95 L137.55 242 L137.15 242.05 L137.1 241.35 L137 240.45 L136.95 239.55 Z" stroke="rgb(0, 0, 0)" stroke-width="0" fill-rule="evenodd" stroke-linejoin="miter" fill="rgb(0, 0, 0)" shape-rendering="geometricPrecision" /><path d="M138.75 252.5 L138.75 252.5 L138.8 252.45 L138.9 252.95 L139 253.95 L139.05 254.25 L138.85 254.3 L138.45 254.35 L138.4 253.95 L138.4 252.85 L138.45 252.8 L138.55 252.7 L138.65 252.6 Z" stroke="rgb(0, 0, 0)" stroke-width="0" fill-rule="evenodd" stroke-linejoin="miter" fill="rgb(0, 0, 0)" shape-rendering="geometricPrecision" /><path d="M138.85 257.95 L138.85 257.95 L139.45 257.95 L139.5 258.75 L139.6 259.75 L139.65 260.45 L139.05 260.45 L139 259.75 Z" stroke="rgb(0, 0, 0)" stroke-width="0" fill-rule="evenodd" stroke-linejoin="miter" fill="rgb(0, 0, 0)" shape-rendering="geometricPrecision" /><path d="M139.98 264.1 L139.98 264.1 L140 264.05 L140.1 264.55 L140.2 265.55 L140.3 266.45 L140.3 267.25 L140.25 267.3 L140.15 267.4 L140.1 267.45 L140 267.25 L139.9 267.05 L139.8 266.85 L139.7 266.55 L139.6 265.55 L139.5 264.55 L139.45 264.15 Z" stroke="rgb(0, 0, 0)" stroke-width="0" fill-rule="evenodd" stroke-linejoin="miter" fill="rgb(0, 0, 0)" shape-rendering="geometricPrecision" /></g></g><g id="Charge837"><line x1="188.6" y1="199.9" x2="188.6" y2="212.5" stroke="rgb(0, 0, 0)" stroke-width="0.48" shape-rendering="auto" /><line x1="185.3" y1="203.2" x2="191.9" y2="203.2" stroke="rgb(0, 0, 0)" stroke-width="0.48" shape-rendering="auto" /><line x1="185.3" y1="209.2" x2="191.9" y2="209.2" stroke="rgb(0, 0, 0)" stroke-width="0.48" shape-rendering="auto" /></g><g id="Solid"><path d="M127.19 274.35 L127.19 274.35 L127.63 274.65 L127.71 274.95 L113.11 274.95 L113.23 274.65 L113.35 274.35 Z" stroke="rgb(0, 0, 0)" stroke-width="0" fill-rule="evenodd" stroke-linejoin="miter" fill="rgb(0, 0, 0)" shape-rendering="geometricPrecision" /></g><g id="Solid"><path d="M139.71 266.64 L139.71 266.64 L140.1 267.45 L139.61 267.39 L129.8 257.57 L129.92 257.27 L130.04 256.97 Z" stroke="rgb(0, 0, 0)" stroke-width="0" fill-rule="evenodd" stroke-linejoin="miter" fill="rgb(0, 0, 0)" shape-rendering="geometricPrecision" /></g><g id="Solid"><g id="Bond's parts"><path d="M115.45 256.95 L115.45 256.95 L118.45 256.95 L118.5 257.15 L118.6 257.35 L118.65 257.55 L115.55 257.55 Z" stroke="rgb(0, 0, 0)" stroke-width="0" fill-rule="evenodd" stroke-linejoin="miter" fill="rgb(0, 0, 0)" shape-rendering="geometricPrecision" /><path d="M122.55 256.95 L122.55 256.95 L130.02 257 L130 257.05 L129.9 257.35 L129.85 257.55 L122.72 257.5 L122.7 257.45 Z" stroke="rgb(0, 0, 0)" stroke-width="0" fill-rule="evenodd" stroke-linejoin="miter" fill="rgb(0, 0, 0)" shape-rendering="geometricPrecision" /></g></g><g id="Solid"><path d="M115.44 256.97 L115.44 256.97 L115.52 257.27 L115.6 257.57 L103.54 264.53 L103.05 264.47 L102.56 264.41 Z" stroke="rgb(0, 0, 0)" stroke-width="0" fill-rule="evenodd" stroke-linejoin="miter" fill="rgb(0, 0, 0)" shape-rendering="geometricPrecision" /></g><g id="Solid"><path d="M102.56 264.41 L102.56 264.41 L103.05 264.47 L103.54 264.53 L113.35 274.35 L113.23 274.65 L113.11 274.95 Z" stroke="rgb(0, 0, 0)" stroke-width="0" fill-rule="evenodd" stroke-linejoin="miter" fill="rgb(0, 0, 0)" shape-rendering="geometricPrecision" /><line x1="107.27" y1="265.03" x2="114.3" y2="272.06" stroke="rgb(0, 0, 0)" stroke-width="0.6" shape-rendering="auto" /></g><g id="Dash"><path d="M115.96 245.33 L115.96 245.33 L116.52 245.11 L115.57 242.66 L115.31 242.83 L115.05 243 Z" stroke="rgb(0, 0, 0)" stroke-width="0" fill-rule="evenodd" stroke-linejoin="miter" fill="rgb(0, 0, 0)" shape-rendering="geometricPrecision" /><path d="M126.29 272.02 L126.29 272.02 L126.85 271.8 L127.78 274.22 L127.63 274.65 L127.19 274.35 Z" stroke="rgb(0, 0, 0)" stroke-width="0" fill-rule="evenodd" stroke-linejoin="miter" fill="rgb(0, 0, 0)" shape-rendering="geometricPrecision" /><path d="M116.93 247.83 L116.93 247.83 L117.83 250.17 L118.39 249.95 L117.49 247.62 Z" stroke="rgb(0, 0, 0)" stroke-width="0" fill-rule="evenodd" stroke-linejoin="miter" fill="rgb(0, 0, 0)" shape-rendering="geometricPrecision" /><path d="M118.8 252.67 L118.8 252.67 L119.7 255 L120.26 254.79 L119.36 252.45 Z" stroke="rgb(0, 0, 0)" stroke-width="0" fill-rule="evenodd" stroke-linejoin="miter" fill="rgb(0, 0, 0)" shape-rendering="geometricPrecision" /><path d="M120.67 257.51 L120.67 257.51 L121.57 259.84 L122.13 259.62 L121.23 257.29 Z" stroke="rgb(0, 0, 0)" stroke-width="0" fill-rule="evenodd" stroke-linejoin="miter" fill="rgb(0, 0, 0)" shape-rendering="geometricPrecision" /><path d="M122.54 262.34 L122.54 262.34 L123.45 264.68 L124.01 264.46 L123.1 262.13 Z" stroke="rgb(0, 0, 0)" stroke-width="0" fill-rule="evenodd" stroke-linejoin="miter" fill="rgb(0, 0, 0)" shape-rendering="geometricPrecision" /><path d="M124.42 267.18 L124.42 267.18 L125.32 269.51 L125.88 269.3 L124.98 266.97 Z" stroke="rgb(0, 0, 0)" stroke-width="0" fill-rule="evenodd" stroke-linejoin="miter" fill="rgb(0, 0, 0)" shape-rendering="geometricPrecision" /></g><g id="Solid"><path d="M140.17 267.75 L140.17 267.75 L140.1 267.45 L140.37 267.16 L154.94 267.88 L155.01 268.18 L154.88 268.47 Z" stroke="rgb(0, 0, 0)" stroke-width="0" fill-rule="evenodd" stroke-linejoin="miter" fill="rgb(0, 0, 0)" shape-rendering="geometricPrecision" /></g><g id="Solid"><line x1="114.6" y1="258.19" x2="109.02" y2="252.6" stroke="rgb(0, 0, 0)" stroke-width="0.6" shape-rendering="auto" /><path d="M116.63 256.97 L116.63 256.97 L117.48 256.97 L111.06 250.55 L110.64 250.98 Z" stroke="rgb(0, 0, 0)" stroke-width="0" fill-rule="evenodd" stroke-linejoin="miter" fill="rgb(0, 0, 0)" shape-rendering="geometricPrecision" /><path d="M113.87 257.88 L113.87 257.88 L114.41 257.57 L109.23 252.39 L108.8 252.81 Z" stroke="rgb(0, 0, 0)" stroke-width="0" fill-rule="evenodd" stroke-linejoin="miter" fill="rgb(0, 0, 0)" shape-rendering="geometricPrecision" /></g><g><text xml:space="preserve" text-anchor="start" text-rendering="geometricPrecision"><tspan x="101.44" y="250.99" font-family="Arial" font-size="10" fill="rgb(0, 0, 0)">O</tspan></text></g><g id="Solid"><line x1="129" y1="256.35" x2="134.65" y2="250.71" stroke="rgb(0, 0, 0)" stroke-width="0.6" shape-rendering="auto" /><path d="M130.84 257.76 L130.84 257.76 L131.26 258.19 L136.7 252.75 L136.27 252.33 Z" stroke="rgb(0, 0, 0)" stroke-width="0" fill-rule="evenodd" stroke-linejoin="miter" fill="rgb(0, 0, 0)" shape-rendering="geometricPrecision" /><path d="M127.96 256.97 L127.96 256.97 L128.81 256.97 L134.86 250.92 L134.44 250.49 Z" stroke="rgb(0, 0, 0)" stroke-width="0" fill-rule="evenodd" stroke-linejoin="miter" fill="rgb(0, 0, 0)" shape-rendering="geometricPrecision" /></g><g><text xml:space="preserve" text-anchor="start" text-rendering="geometricPrecision"><tspan x="136.2" y="250.99" font-family="Arial" font-size="10" fill="rgb(0, 0, 0)">O</tspan></text></g><g id="Solid"><path d="M155.5 268.24 L155.5 268.24 L155.01 268.18 L154.94 267.88 L167.33 260.72 L167.48 260.98 L167.63 261.24 Z" stroke="rgb(0, 0, 0)" stroke-width="0" fill-rule="evenodd" stroke-linejoin="miter" fill="rgb(0, 0, 0)" shape-rendering="geometricPrecision" /></g><g id="Solid"><path d="M154.88 268.47 L154.88 268.47 L155.01 268.18 L155.5 268.24 L165.4 278.15 L165.19 278.36 L164.98 278.57 Z" stroke="rgb(0, 0, 0)" stroke-width="0" fill-rule="evenodd" stroke-linejoin="miter" fill="rgb(0, 0, 0)" shape-rendering="geometricPrecision" /></g><g id="Bracket"><path d="M174.7 199 L181 199 L181 287 L174.7 287 " stroke="rgb(0, 0, 0)" stroke-width="0.6" fill-rule="evenodd" stroke-linejoin="miter" fill="none" shape-rendering="geometricPrecision" /></g><g id="Bracket"><path d="M88.3 287 L82 287 L82 199 L88.3 199 " stroke="rgb(0, 0, 0)" stroke-width="0.6" fill-rule="evenodd" stroke-linejoin="miter" fill="none" shape-rendering="geometricPrecision" /></g></g></g></svg>