<?xml version="1.0"?><svg xmlns="http://www.w3.org/2000/svg" xmlns:xlink="http://www.w3.org/1999/xlink" viewBox="48.04 65.54 239.38 43.1" preserveAspectRatio="xMidYMid" width="100%" height="100%"><clipPath id="98"><rect x="0.3" y="0.3" width="539.4" height="719.15" /></clipPath><g id="drawing"><rect x="48.04" y="65.54" width="100%" height="100%" fill="rgb(255, 255, 255)" /><g id="page" clip-path="url(#98)"><g id="Solid"><path d="M95 78.29 L95 78.29 L94.65 78.29 L94.3 78.29 L87.24 66.14 L87.41 65.84 L87.58 65.54 Z" stroke="rgb(0, 0, 0)" stroke-width="0" fill-rule="evenodd" stroke-linejoin="miter" fill="rgb(0, 0, 0)" shape-rendering="geometricPrecision" /><line x1="91.66" y1="78.3" x2="85.92" y2="68.44" stroke="rgb(0, 0, 0)" stroke-width="0.6" shape-rendering="auto" /></g><g id="Solid"><path d="M87.58 65.54 L87.58 65.54 L87.41 65.84 L87.24 66.14 L73.18 66.19 L73.01 65.89 L72.84 65.59 Z" stroke="rgb(0, 0, 0)" stroke-width="0" fill-rule="evenodd" stroke-linejoin="miter" fill="rgb(0, 0, 0)" shape-rendering="geometricPrecision" /></g><g id="Solid"><path d="M72.84 65.59 L72.84 65.59 L73.01 65.89 L73.18 66.19 L66.2 78.38 L65.85 78.38 L65.5 78.38 Z" stroke="rgb(0, 0, 0)" stroke-width="0" fill-rule="evenodd" stroke-linejoin="miter" fill="rgb(0, 0, 0)" shape-rendering="geometricPrecision" /><line x1="74.51" y1="68.48" x2="68.84" y2="78.37" stroke="rgb(0, 0, 0)" stroke-width="0.6" shape-rendering="auto" /></g><g id="Solid"><path d="M65.5 78.38 L65.5 78.38 L65.85 78.38 L66.2 78.38 L73.26 90.53 L73.09 90.83 L72.42 90.27 Z" stroke="rgb(0, 0, 0)" stroke-width="0" fill-rule="evenodd" stroke-linejoin="miter" fill="rgb(0, 0, 0)" shape-rendering="geometricPrecision" /></g><g id="Solid"><path d="M73.07 91.13 L73.07 91.13 L73.09 90.83 L73.26 90.53 L87.32 90.48 L87.49 90.78 L87.51 91.08 Z" stroke="rgb(0, 0, 0)" stroke-width="0" fill-rule="evenodd" stroke-linejoin="miter" fill="rgb(0, 0, 0)" shape-rendering="geometricPrecision" /></g><g id="Solid"><path d="M88.15 90.22 L88.15 90.22 L87.49 90.78 L87.32 90.48 L94.3 78.29 L94.65 78.29 L95 78.29 Z" stroke="rgb(0, 0, 0)" stroke-width="0" fill-rule="evenodd" stroke-linejoin="miter" fill="rgb(0, 0, 0)" shape-rendering="geometricPrecision" /></g><g><text xml:space="preserve" text-anchor="start" text-rendering="geometricPrecision"><tspan x="97.22" y="90.96" font-family="Arial" font-size="10" fill="rgb(0, 0, 0)">Me</tspan></text></g><g id="WedgeBegin"><path d="M87.51 91.08 L87.51 91.08 L87.49 90.78 L88.15 90.22 L96.07 86.93 L96.45 88.38 L96.84 89.83 Z" stroke="rgb(0, 0, 0)" stroke-width="0" fill-rule="evenodd" stroke-linejoin="miter" fill="rgb(0, 0, 0)" shape-rendering="geometricPrecision" /></g><g><text xml:space="preserve" text-anchor="end" text-rendering="geometricPrecision"><tspan x="61.95" y="91" font-family="Arial" font-size="10" fill="rgb(0, 0, 0)">Me</tspan></text></g><g id="WedgeBegin"><path d="M72.42 90.27 L72.42 90.27 L73.09 90.83 L73.07 91.13 L62.76 89.61 L63.15 88.16 L63.53 86.71 Z" stroke="rgb(0, 0, 0)" stroke-width="0" fill-rule="evenodd" stroke-linejoin="miter" fill="rgb(0, 0, 0)" shape-rendering="geometricPrecision" /></g><g><text xml:space="preserve" text-anchor="start" text-rendering="geometricPrecision"><tspan x="65.76" y="108.64" font-family="Arial" font-size="10" fill="rgb(0, 0, 0)">H</tspan></text></g><g id="Wedged Hash Begin Bond"><path d="M72.8 90.75 L72.8 90.75 L73.38 90.91 L73.3 91.51 L72.57 91.31 Z" stroke="rgb(0, 0, 0)" stroke-width="0" fill-rule="evenodd" stroke-linejoin="miter" fill="rgb(0, 0, 0)" shape-rendering="geometricPrecision" /><path d="M71.67 93.5 L71.67 93.5 L72.98 93.85 L72.9 94.45 L71.45 94.06 Z" stroke="rgb(0, 0, 0)" stroke-width="0" fill-rule="evenodd" stroke-linejoin="miter" fill="rgb(0, 0, 0)" shape-rendering="geometricPrecision" /><path d="M70.55 96.25 L70.55 96.25 L72.58 96.8 L72.49 97.4 L70.32 96.81 Z" stroke="rgb(0, 0, 0)" stroke-width="0" fill-rule="evenodd" stroke-linejoin="miter" fill="rgb(0, 0, 0)" shape-rendering="geometricPrecision" /><path d="M69.42 99.01 L69.42 99.01 L72.17 99.74 L72.09 100.34 L69.19 99.57 Z" stroke="rgb(0, 0, 0)" stroke-width="0" fill-rule="evenodd" stroke-linejoin="miter" fill="rgb(0, 0, 0)" shape-rendering="geometricPrecision" /></g><g><text xml:space="preserve" text-anchor="start" text-rendering="geometricPrecision"><tspan x="87.61" y="108.59" font-family="Arial" font-size="10" fill="rgb(0, 0, 0)">H</tspan></text></g><g id="Wedged Hash Begin Bond"><path d="M87.2 90.86 L87.2 90.86 L87.78 90.7 L88.01 91.26 L87.28 91.46 Z" stroke="rgb(0, 0, 0)" stroke-width="0" fill-rule="evenodd" stroke-linejoin="miter" fill="rgb(0, 0, 0)" shape-rendering="geometricPrecision" /><path d="M87.6 93.82 L87.6 93.82 L88.91 93.47 L89.14 94.03 L87.69 94.42 Z" stroke="rgb(0, 0, 0)" stroke-width="0" fill-rule="evenodd" stroke-linejoin="miter" fill="rgb(0, 0, 0)" shape-rendering="geometricPrecision" /><path d="M88.01 96.78 L88.01 96.78 L90.04 96.24 L90.26 96.8 L88.09 97.38 Z" stroke="rgb(0, 0, 0)" stroke-width="0" fill-rule="evenodd" stroke-linejoin="miter" fill="rgb(0, 0, 0)" shape-rendering="geometricPrecision" /><path d="M88.41 99.74 L88.41 99.74 L91.16 99.01 L91.39 99.57 L88.49 100.34 Z" stroke="rgb(0, 0, 0)" stroke-width="0" fill-rule="evenodd" stroke-linejoin="miter" fill="rgb(0, 0, 0)" shape-rendering="geometricPrecision" /></g><g id="Arrow"><line x1="198.51" y1="87.28" x2="146.13" y2="87.28" stroke="rgb(0, 0, 0)" stroke-width="0.6" shape-rendering="auto" /><path d="M202.76 87.28 L196.76 85.78 C197.95 86.62 197.95 87.94 196.76 88.78 Z" stroke="rgb(0, 0, 0)" stroke-width="0" fill-rule="evenodd" stroke-linejoin="miter" stroke-miterlimit="6.93525005514877" fill="rgb(0, 0, 0)" shape-rendering="geometricPrecision" /></g><g><text xml:space="preserve" text-anchor="start" text-rendering="geometricPrecision"><tspan x="167.69" y="82.41" font-family="Arial" font-style="italic" font-size="10" fill="rgb(0, 0, 0)">hv</tspan></text></g><g id="Solid"><path d="M278 78.96 L278 78.96 L277.65 78.96 L277.3 78.96 L270.24 66.81 L270.41 66.51 L270.58 66.21 Z" stroke="rgb(0, 0, 0)" stroke-width="0" fill-rule="evenodd" stroke-linejoin="miter" fill="rgb(0, 0, 0)" shape-rendering="geometricPrecision" /></g><g id="Solid"><path d="M270.58 66.21 L270.58 66.21 L270.41 66.51 L270.24 66.81 L256.18 66.86 L256.01 66.56 L255.84 66.26 Z" stroke="rgb(0, 0, 0)" stroke-width="0" fill-rule="evenodd" stroke-linejoin="miter" fill="rgb(0, 0, 0)" shape-rendering="geometricPrecision" /><line x1="268.92" y1="69.11" x2="257.51" y2="69.15" stroke="rgb(0, 0, 0)" stroke-width="0.6" shape-rendering="auto" /></g><g id="Solid"><path d="M255.84 66.26 L255.84 66.26 L256.01 66.56 L256.18 66.86 L249.2 79.05 L248.85 79.05 L248.5 79.05 Z" stroke="rgb(0, 0, 0)" stroke-width="0" fill-rule="evenodd" stroke-linejoin="miter" fill="rgb(0, 0, 0)" shape-rendering="geometricPrecision" /></g><g id="Solid"><path d="M248.5 79.05 L248.5 79.05 L248.85 79.05 L249.2 79.05 L256.44 91.5 L256.09 91.5 L255.74 91.5 Z" stroke="rgb(0, 0, 0)" stroke-width="0" fill-rule="evenodd" stroke-linejoin="miter" fill="rgb(0, 0, 0)" shape-rendering="geometricPrecision" /><line x1="251.84" y1="79.04" x2="258.33" y2="90.2" stroke="rgb(0, 0, 0)" stroke-width="0.6" shape-rendering="auto" /></g><g id="Solid"><path d="M270.84 91.45 L270.84 91.45 L270.49 91.45 L270.14 91.45 L277.3 78.96 L277.65 78.96 L278 78.96 Z" stroke="rgb(0, 0, 0)" stroke-width="0" fill-rule="evenodd" stroke-linejoin="miter" fill="rgb(0, 0, 0)" shape-rendering="geometricPrecision" /><line x1="273.48" y1="91.45" x2="279.9" y2="80.25" stroke="rgb(0, 0, 0)" stroke-width="0.6" shape-rendering="auto" /></g><g><text xml:space="preserve" text-anchor="end" text-rendering="geometricPrecision"><tspan x="251.66" y="107.87" font-family="Arial" font-size="10" fill="rgb(0, 0, 0)">Me</tspan></text></g><g id="Solid"><path d="M255.74 91.5 L255.74 91.5 L256.09 91.5 L256.44 91.5 L251.78 99.56 L251.52 99.41 L251.26 99.26 Z" stroke="rgb(0, 0, 0)" stroke-width="0" fill-rule="evenodd" stroke-linejoin="miter" fill="rgb(0, 0, 0)" shape-rendering="geometricPrecision" /></g><g><text xml:space="preserve" text-anchor="start" text-rendering="geometricPrecision"><tspan x="273.51" y="107.82" font-family="Arial" font-size="10" fill="rgb(0, 0, 0)">Me</tspan></text></g><g id="Solid"><path d="M270.14 91.45 L270.14 91.45 L270.49 91.45 L270.84 91.45 L275.29 99.16 L275.03 99.31 L274.77 99.46 Z" stroke="rgb(0, 0, 0)" stroke-width="0" fill-rule="evenodd" stroke-linejoin="miter" fill="rgb(0, 0, 0)" shape-rendering="geometricPrecision" /></g><g id="Arrow"><path d="M90.55 72.37 C87.03 74.41 85.83 78.92 87.86 82.44 C87.9 82.5 87.94 82.56 87.98 82.62 " stroke="rgb(255, 0, 0)" stroke-width="0.6" fill-rule="evenodd" stroke-linejoin="bevel" fill="none" shape-rendering="geometricPrecision" /><path d="M90.56 85.13 L88.13 80.82 C88.35 82.04 87.59 82.76 86.39 82.47 Z" stroke="rgb(255, 0, 0)" stroke-width="0" fill-rule="evenodd" stroke-linejoin="miter" stroke-miterlimit="6.93525005514882" fill="rgb(255, 0, 0)" shape-rendering="geometricPrecision" /></g><g id="Arrow"><path d="M80.45 90.39 C80.45 87.13 77.65 84.19 74.39 84.02 " stroke="rgb(255, 0, 0)" stroke-width="0.6" fill-rule="evenodd" stroke-linejoin="bevel" fill="none" shape-rendering="geometricPrecision" /><path d="M70.89 84.86 L75.83 85.15 C74.69 84.68 74.49 83.65 75.39 82.79 Z" stroke="rgb(255, 0, 0)" stroke-width="0" fill-rule="evenodd" stroke-linejoin="miter" stroke-miterlimit="6.94825573686275" fill="rgb(255, 0, 0)" shape-rendering="geometricPrecision" /></g><g id="Arrow"><path d="M70.31 72.75 C73.28 74.46 77.43 73.41 79.23 70.5 " stroke="rgb(255, 0, 0)" stroke-width="0.6" fill-rule="evenodd" stroke-linejoin="bevel" fill="none" shape-rendering="geometricPrecision" /><path d="M80.21 67.04 L77.55 71.2 C78.52 70.43 79.51 70.77 79.82 71.97 Z" stroke="rgb(255, 0, 0)" stroke-width="0" fill-rule="evenodd" stroke-linejoin="miter" stroke-miterlimit="6.91957668426243" fill="rgb(255, 0, 0)" shape-rendering="geometricPrecision" /></g></g></g></svg>